G75*
%MOIN*%
%OFA0B0*%
%FSLAX25Y25*%
%IPPOS*%
%LPD*%
%AMOC8*
5,1,8,0,0,1.08239X$1,22.5*
%
%ADD10C,0.12611*%
%ADD11R,0.01575X0.05512*%
%ADD12R,0.07480X0.09252*%
%ADD13R,0.05524X0.05524*%
%ADD14R,0.07099X0.07898*%
%ADD15C,0.03975*%
%ADD16C,0.04369*%
D10*
X0146182Y0073985D03*
X0250119Y0073985D03*
D11*
X0227678Y0086780D03*
X0223741Y0086780D03*
X0219804Y0086780D03*
X0215867Y0086780D03*
X0211930Y0086780D03*
X0207993Y0086780D03*
X0204056Y0086780D03*
X0200119Y0086780D03*
X0196182Y0086780D03*
X0192245Y0086780D03*
X0188308Y0086780D03*
X0184371Y0086780D03*
X0180434Y0086780D03*
X0176497Y0086780D03*
X0172560Y0086780D03*
X0168623Y0086780D03*
D12*
X0159174Y0073985D03*
X0237127Y0073985D03*
D13*
X0371600Y0044834D03*
X0371600Y0036566D03*
X0024400Y0035566D03*
X0024400Y0043834D03*
D14*
X0018802Y0028300D03*
X0029998Y0028300D03*
G36*
X0361559Y0054058D02*
X0356540Y0059077D01*
X0362123Y0064660D01*
X0367142Y0059641D01*
X0361559Y0054058D01*
G37*
G36*
X0369477Y0046140D02*
X0364458Y0051159D01*
X0370041Y0056742D01*
X0375060Y0051723D01*
X0369477Y0046140D01*
G37*
D15*
X0378600Y0035400D03*
X0371600Y0025700D03*
X0351500Y0058200D03*
X0375300Y0062900D03*
X0366900Y0071800D03*
X0351800Y0079409D03*
X0318200Y0089351D03*
X0326000Y0091400D03*
X0294200Y0098400D03*
X0285000Y0095263D03*
X0260400Y0104900D03*
X0251600Y0100769D03*
X0231300Y0110500D03*
X0217800Y0109418D03*
X0171800Y0109418D03*
X0165500Y0110900D03*
X0160800Y0106269D03*
X0141300Y0107600D03*
X0127800Y0100363D03*
X0107000Y0101300D03*
X0094800Y0094851D03*
X0061300Y0085009D03*
X0032600Y0071400D03*
X0023200Y0061500D03*
X0041400Y0057900D03*
X0024300Y0051938D03*
X0071200Y0069500D03*
X0102500Y0077400D03*
X0136400Y0079400D03*
X0233200Y0088400D03*
X0260600Y0079000D03*
D16*
X0365867Y0040300D03*
X0029800Y0040200D03*
M02*
