%
M48
M72
T01C0.01575
T02C0.01969
T03C0.11811
%
T01
X24300Y51938
X41400Y57900
X23200Y61500
X32600Y71400
X61300Y85009
X94800Y94851
X107000Y101300
X127800Y100363
X141300Y107600
X160800Y106269
X165500Y110900
X171800Y109418
X217800Y109418
X231300Y110500
X251600Y100769
X260400Y104900
X285000Y95263
X294200Y98400
X318200Y89351
X326000Y91400
X351800Y79409
X366900Y71800
X375300Y62900
X351500Y58200
X378600Y35400
X371600Y25700
X260600Y79000
X233200Y88400
X136400Y79400
X102500Y77400
X71200Y69500
T02
X29800Y40200
X365867Y40300
T03
X250119Y73985
X146182Y73985
M30
