G75*
%MOIN*%
%OFA0B0*%
%FSLAX25Y25*%
%IPPOS*%
%LPD*%
%AMOC8*
5,1,8,0,0,1.08239X$1,22.5*
%
%ADD10C,0.12611*%
%ADD11R,0.06706X0.05918*%
%ADD12R,0.05918X0.06706*%
%ADD13R,0.04737X0.05800*%
%ADD14C,0.03975*%
%ADD15C,0.04369*%
D10*
X0146182Y0073985D03*
X0250119Y0073985D03*
D11*
X0029800Y0028060D03*
X0029800Y0035540D03*
X0029800Y0045160D03*
X0029800Y0052640D03*
X0041300Y0065560D03*
X0063800Y0072060D03*
X0074800Y0075560D03*
X0063800Y0079540D03*
X0074800Y0083040D03*
X0097300Y0082060D03*
X0108300Y0081560D03*
X0108300Y0089040D03*
X0097300Y0089540D03*
X0130800Y0088060D03*
X0141800Y0087060D03*
X0141800Y0094540D03*
X0130800Y0095540D03*
X0164300Y0094060D03*
X0174800Y0097560D03*
X0164300Y0101540D03*
X0174800Y0105040D03*
X0221300Y0105040D03*
X0231800Y0101540D03*
X0221300Y0097560D03*
X0231800Y0094060D03*
X0254800Y0094540D03*
X0265800Y0095540D03*
X0265800Y0088060D03*
X0254800Y0087060D03*
X0288300Y0089040D03*
X0299300Y0089540D03*
X0299300Y0082060D03*
X0288300Y0081560D03*
X0320800Y0083040D03*
X0332800Y0079540D03*
X0320800Y0075560D03*
X0332800Y0072060D03*
X0355300Y0073040D03*
X0355300Y0065560D03*
X0365867Y0052940D03*
X0365867Y0045460D03*
X0365867Y0035540D03*
X0365867Y0028060D03*
X0041300Y0073040D03*
D12*
X0183060Y0086300D03*
X0190540Y0086300D03*
X0206560Y0086300D03*
X0214040Y0086300D03*
D13*
X0213505Y0093729D03*
X0206418Y0093729D03*
X0189883Y0093729D03*
X0182796Y0093729D03*
X0156418Y0089792D03*
X0149331Y0089792D03*
X0122954Y0083887D03*
X0115867Y0083887D03*
X0089489Y0077981D03*
X0082402Y0077981D03*
X0056064Y0083769D03*
X0048938Y0083769D03*
X0082402Y0093611D03*
X0089528Y0093611D03*
X0115867Y0099517D03*
X0122993Y0099517D03*
X0149331Y0105422D03*
X0156457Y0105422D03*
X0182796Y0109359D03*
X0189922Y0109359D03*
X0206418Y0109359D03*
X0213544Y0109359D03*
X0239883Y0105422D03*
X0247009Y0105422D03*
X0273347Y0099517D03*
X0280473Y0099517D03*
X0306812Y0093611D03*
X0313938Y0093611D03*
X0340276Y0083769D03*
X0347402Y0083769D03*
X0313898Y0077981D03*
X0306812Y0077981D03*
X0280434Y0083887D03*
X0273347Y0083887D03*
X0246969Y0089792D03*
X0239883Y0089792D03*
X0340276Y0068139D03*
X0347363Y0068139D03*
X0373741Y0046367D03*
X0380828Y0046367D03*
X0380828Y0030737D03*
X0373702Y0030737D03*
X0056024Y0068139D03*
X0048938Y0068139D03*
X0022599Y0046367D03*
X0015473Y0046367D03*
X0015473Y0030737D03*
X0022560Y0030737D03*
D14*
X0024300Y0051938D03*
X0041400Y0057900D03*
X0023200Y0061500D03*
X0032600Y0071400D03*
X0061300Y0085009D03*
X0094800Y0094851D03*
X0107000Y0101300D03*
X0127800Y0100363D03*
X0141300Y0107600D03*
X0160800Y0106269D03*
X0165500Y0110900D03*
X0171800Y0109418D03*
X0217800Y0109418D03*
X0231300Y0110500D03*
X0251600Y0100769D03*
X0260400Y0104900D03*
X0285000Y0095263D03*
X0294200Y0098400D03*
X0318200Y0089351D03*
X0326000Y0091400D03*
X0351800Y0079409D03*
X0366900Y0071800D03*
X0375300Y0062900D03*
X0351500Y0058200D03*
X0378600Y0035400D03*
X0371600Y0025700D03*
X0260600Y0079000D03*
X0233200Y0088400D03*
X0136400Y0079400D03*
X0102500Y0077400D03*
X0071200Y0069500D03*
D15*
X0029800Y0040200D03*
X0365867Y0040300D03*
M02*
