G75*
%MOIN*%
%OFA0B0*%
%FSLAX25Y25*%
%IPPOS*%
%LPD*%
%AMOC8*
5,1,8,0,0,1.08239X$1,22.5*
%
%ADD10R,0.05906X0.05118*%
%ADD11R,0.05118X0.05906*%
%ADD12R,0.03937X0.05000*%
%ADD13C,0.01600*%
%ADD14C,0.03175*%
%ADD15C,0.03569*%
D10*
X0029800Y0028060D03*
X0029800Y0035540D03*
X0029800Y0045160D03*
X0029800Y0052640D03*
X0041300Y0065560D03*
X0063800Y0072060D03*
X0074800Y0075560D03*
X0063800Y0079540D03*
X0074800Y0083040D03*
X0097300Y0082060D03*
X0108300Y0081560D03*
X0108300Y0089040D03*
X0097300Y0089540D03*
X0130800Y0088060D03*
X0141800Y0087060D03*
X0141800Y0094540D03*
X0130800Y0095540D03*
X0164300Y0094060D03*
X0174800Y0097560D03*
X0164300Y0101540D03*
X0174800Y0105040D03*
X0221300Y0105040D03*
X0231800Y0101540D03*
X0221300Y0097560D03*
X0231800Y0094060D03*
X0254800Y0094540D03*
X0265800Y0095540D03*
X0265800Y0088060D03*
X0254800Y0087060D03*
X0288300Y0089040D03*
X0299300Y0089540D03*
X0299300Y0082060D03*
X0288300Y0081560D03*
X0320800Y0083040D03*
X0332800Y0079540D03*
X0320800Y0075560D03*
X0332800Y0072060D03*
X0355300Y0073040D03*
X0355300Y0065560D03*
X0365867Y0052940D03*
X0365867Y0045460D03*
X0365867Y0035540D03*
X0365867Y0028060D03*
X0041300Y0073040D03*
D11*
X0183060Y0086300D03*
X0190540Y0086300D03*
X0206560Y0086300D03*
X0214040Y0086300D03*
D12*
X0213505Y0093729D03*
X0206418Y0093729D03*
X0189883Y0093729D03*
X0182796Y0093729D03*
X0156418Y0089792D03*
X0149331Y0089792D03*
X0122954Y0083887D03*
X0115867Y0083887D03*
X0089489Y0077981D03*
X0082402Y0077981D03*
X0056064Y0083769D03*
X0048938Y0083769D03*
X0082402Y0093611D03*
X0089528Y0093611D03*
X0115867Y0099517D03*
X0122993Y0099517D03*
X0149331Y0105422D03*
X0156457Y0105422D03*
X0182796Y0109359D03*
X0189922Y0109359D03*
X0206418Y0109359D03*
X0213544Y0109359D03*
X0239883Y0105422D03*
X0247009Y0105422D03*
X0273347Y0099517D03*
X0280473Y0099517D03*
X0306812Y0093611D03*
X0313938Y0093611D03*
X0340276Y0083769D03*
X0347402Y0083769D03*
X0313898Y0077981D03*
X0306812Y0077981D03*
X0280434Y0083887D03*
X0273347Y0083887D03*
X0246969Y0089792D03*
X0239883Y0089792D03*
X0340276Y0068139D03*
X0347363Y0068139D03*
X0373741Y0046367D03*
X0380828Y0046367D03*
X0380828Y0030737D03*
X0373702Y0030737D03*
X0056024Y0068139D03*
X0048938Y0068139D03*
X0022599Y0046367D03*
X0015473Y0046367D03*
X0015473Y0030737D03*
X0022560Y0030737D03*
D13*
X0018800Y0026300D02*
X0028040Y0026300D01*
X0029800Y0028060D01*
X0022744Y0030921D02*
X0022376Y0030921D01*
X0022376Y0035037D01*
X0020354Y0035037D01*
X0019897Y0034914D01*
X0019486Y0034677D01*
X0019151Y0034342D01*
X0019053Y0034172D01*
X0018187Y0035037D01*
X0013093Y0035037D01*
X0013093Y0042114D01*
X0013268Y0042067D01*
X0015289Y0042067D01*
X0015289Y0046183D01*
X0015657Y0046183D01*
X0015657Y0042067D01*
X0017679Y0042067D01*
X0018137Y0042190D01*
X0018547Y0042427D01*
X0018882Y0042762D01*
X0018995Y0042957D01*
X0019885Y0042067D01*
X0025047Y0042067D01*
X0025047Y0041855D01*
X0026102Y0040801D01*
X0026216Y0040801D01*
X0026216Y0039899D01*
X0026102Y0039899D01*
X0025047Y0038845D01*
X0025047Y0034961D01*
X0024765Y0035037D01*
X0022744Y0035037D01*
X0022744Y0030921D01*
X0022744Y0031921D02*
X0022376Y0031921D01*
X0022376Y0033519D02*
X0022744Y0033519D01*
X0025047Y0035118D02*
X0013093Y0035118D01*
X0013093Y0036716D02*
X0025047Y0036716D01*
X0025047Y0038315D02*
X0013093Y0038315D01*
X0013093Y0039913D02*
X0026216Y0039913D01*
X0029800Y0040200D02*
X0029800Y0045160D01*
X0032860Y0045360D01*
X0035200Y0047600D01*
X0035300Y0059560D01*
X0041300Y0065560D01*
X0043560Y0063300D01*
X0059300Y0063300D01*
X0063800Y0067800D01*
X0063800Y0072060D01*
X0065540Y0073800D01*
X0075300Y0073800D01*
X0074800Y0074300D01*
X0074800Y0075560D01*
X0077060Y0073300D01*
X0093800Y0073300D01*
X0097300Y0076800D01*
X0097300Y0082060D01*
X0107800Y0082060D01*
X0108300Y0081560D01*
X0110560Y0079300D01*
X0125800Y0079300D01*
X0130800Y0084300D01*
X0130800Y0088060D01*
X0140800Y0088060D01*
X0141800Y0087060D01*
X0144060Y0084800D01*
X0159800Y0084800D01*
X0164300Y0089300D01*
X0164300Y0094060D01*
X0171300Y0094060D01*
X0174800Y0097560D01*
X0174800Y0085300D01*
X0178800Y0081300D01*
X0188800Y0081300D01*
X0212300Y0081300D01*
X0214040Y0083040D01*
X0214040Y0086300D01*
X0221300Y0093560D01*
X0221300Y0095800D01*
X0230060Y0095800D01*
X0231800Y0094060D01*
X0231800Y0089800D01*
X0233200Y0088400D01*
X0236800Y0084800D01*
X0251800Y0084800D01*
X0254060Y0087060D01*
X0254800Y0087060D01*
X0264800Y0087060D01*
X0265800Y0088060D01*
X0265800Y0082300D01*
X0268800Y0079300D01*
X0286300Y0079300D01*
X0288300Y0081300D01*
X0288300Y0081560D01*
X0298800Y0081560D01*
X0299300Y0082060D01*
X0299300Y0076300D01*
X0303100Y0073300D01*
X0318540Y0073300D01*
X0320800Y0075560D01*
X0322560Y0073800D01*
X0331300Y0073800D01*
X0332800Y0072300D01*
X0332800Y0072060D01*
X0332800Y0066300D01*
X0336600Y0063300D01*
X0353040Y0063300D01*
X0355300Y0065560D01*
X0360300Y0060060D01*
X0360300Y0048800D01*
X0363700Y0045400D01*
X0365867Y0045400D01*
X0365867Y0040300D01*
X0365867Y0035540D01*
X0370620Y0035118D02*
X0383208Y0035118D01*
X0383208Y0034990D02*
X0383033Y0035037D01*
X0381012Y0035037D01*
X0381012Y0030921D01*
X0380643Y0030921D01*
X0380643Y0035037D01*
X0378622Y0035037D01*
X0378164Y0034914D01*
X0377754Y0034677D01*
X0377419Y0034342D01*
X0377306Y0034147D01*
X0376416Y0035037D01*
X0370987Y0035037D01*
X0370620Y0034669D01*
X0370620Y0038845D01*
X0369565Y0039899D01*
X0369451Y0039899D01*
X0369451Y0041013D01*
X0369415Y0041101D01*
X0369565Y0041101D01*
X0370620Y0042155D01*
X0370620Y0042474D01*
X0370667Y0042427D01*
X0371078Y0042190D01*
X0371535Y0042067D01*
X0373557Y0042067D01*
X0373557Y0046183D01*
X0373925Y0046183D01*
X0373925Y0042067D01*
X0375946Y0042067D01*
X0376404Y0042190D01*
X0376815Y0042427D01*
X0377150Y0042762D01*
X0377248Y0042932D01*
X0378113Y0042067D01*
X0383208Y0042067D01*
X0383208Y0034990D01*
X0383208Y0036716D02*
X0370620Y0036716D01*
X0370620Y0038315D02*
X0383208Y0038315D01*
X0383208Y0039913D02*
X0369451Y0039913D01*
X0369976Y0041512D02*
X0383208Y0041512D01*
X0373925Y0043110D02*
X0373557Y0043110D01*
X0373557Y0044709D02*
X0373925Y0044709D01*
X0373925Y0046551D02*
X0373557Y0046551D01*
X0373557Y0050667D01*
X0371535Y0050667D01*
X0371078Y0050544D01*
X0370667Y0050307D01*
X0370620Y0050260D01*
X0370620Y0050700D01*
X0377923Y0050700D01*
X0378035Y0050588D01*
X0377248Y0049802D01*
X0377150Y0049972D01*
X0376815Y0050307D01*
X0376404Y0050544D01*
X0375946Y0050667D01*
X0373925Y0050667D01*
X0373925Y0046551D01*
X0373925Y0047906D02*
X0373557Y0047906D01*
X0373557Y0049504D02*
X0373925Y0049504D01*
X0379000Y0053300D02*
X0380828Y0051472D01*
X0380828Y0046367D01*
X0365867Y0045460D02*
X0365867Y0045400D01*
X0357700Y0051731D02*
X0356848Y0052866D01*
X0355722Y0053583D01*
X0355701Y0053654D01*
X0355049Y0054011D01*
X0354421Y0054410D01*
X0354349Y0054394D01*
X0348357Y0057675D01*
X0341646Y0060700D01*
X0353557Y0060700D01*
X0354513Y0061096D01*
X0354618Y0061201D01*
X0355749Y0061201D01*
X0357700Y0059055D01*
X0357700Y0051731D01*
X0357700Y0052701D02*
X0356972Y0052701D01*
X0356848Y0052866D02*
X0356848Y0052866D01*
X0356848Y0052866D01*
X0357700Y0054300D02*
X0354595Y0054300D01*
X0351602Y0055899D02*
X0357700Y0055899D01*
X0357700Y0057497D02*
X0348682Y0057497D01*
X0348357Y0057675D02*
X0348357Y0057675D01*
X0345206Y0059096D02*
X0357663Y0059096D01*
X0356210Y0060694D02*
X0341659Y0060694D01*
X0360053Y0064197D02*
X0360053Y0068864D01*
X0359617Y0069300D01*
X0360053Y0069736D01*
X0360053Y0076345D01*
X0358998Y0077399D01*
X0357449Y0077399D01*
X0356773Y0078075D01*
X0355187Y0079660D01*
X0355187Y0080082D01*
X0354672Y0081327D01*
X0353719Y0082280D01*
X0352474Y0082796D01*
X0352052Y0082796D01*
X0351171Y0083677D01*
X0351171Y0086460D01*
X0356300Y0083897D01*
X0363175Y0079396D01*
X0369482Y0074127D01*
X0375134Y0068162D01*
X0377687Y0064948D01*
X0379165Y0062744D01*
X0381482Y0057966D01*
X0382782Y0053194D01*
X0382300Y0053677D01*
X0381204Y0054773D01*
X0380473Y0055504D01*
X0379517Y0055900D01*
X0370620Y0055900D01*
X0370620Y0056245D01*
X0369565Y0057299D01*
X0362900Y0057299D01*
X0362900Y0059998D01*
X0362922Y0060453D01*
X0362900Y0060513D01*
X0362900Y0060577D01*
X0362726Y0060998D01*
X0362572Y0061426D01*
X0362529Y0061473D01*
X0362504Y0061533D01*
X0362182Y0061855D01*
X0360053Y0064197D01*
X0360331Y0063891D02*
X0378396Y0063891D01*
X0379384Y0062293D02*
X0361784Y0062293D01*
X0362852Y0060694D02*
X0380159Y0060694D01*
X0380935Y0059096D02*
X0362900Y0059096D01*
X0362900Y0057497D02*
X0381610Y0057497D01*
X0382046Y0055899D02*
X0379521Y0055899D01*
X0381677Y0054300D02*
X0382481Y0054300D01*
X0379000Y0053300D02*
X0366227Y0053300D01*
X0365867Y0052940D01*
X0360053Y0065490D02*
X0377257Y0065490D01*
X0375987Y0067088D02*
X0360053Y0067088D01*
X0360053Y0068687D02*
X0374637Y0068687D01*
X0373123Y0070285D02*
X0360053Y0070285D01*
X0360053Y0071884D02*
X0371608Y0071884D01*
X0370093Y0073482D02*
X0360053Y0073482D01*
X0360053Y0075081D02*
X0368341Y0075081D01*
X0366427Y0076679D02*
X0359718Y0076679D01*
X0356570Y0078278D02*
X0364514Y0078278D01*
X0362442Y0079876D02*
X0355187Y0079876D01*
X0352135Y0079073D02*
X0352135Y0079035D01*
X0355300Y0075871D01*
X0355300Y0073040D01*
X0350547Y0073482D02*
X0342900Y0073482D01*
X0342900Y0074317D02*
X0342900Y0072439D01*
X0342990Y0072439D01*
X0343856Y0071573D01*
X0343954Y0071744D01*
X0344289Y0072079D01*
X0344700Y0072316D01*
X0345158Y0072439D01*
X0347179Y0072439D01*
X0347179Y0068323D01*
X0347547Y0068323D01*
X0347547Y0072439D01*
X0349568Y0072439D01*
X0350026Y0072316D01*
X0350437Y0072079D01*
X0350547Y0071968D01*
X0350547Y0076261D01*
X0349881Y0076537D01*
X0348928Y0077490D01*
X0348413Y0078735D01*
X0348413Y0079081D01*
X0348025Y0079469D01*
X0344688Y0079469D01*
X0343798Y0080359D01*
X0343685Y0080163D01*
X0343350Y0079828D01*
X0342940Y0079591D01*
X0342482Y0079469D01*
X0340461Y0079469D01*
X0340461Y0083584D01*
X0340092Y0083584D01*
X0340092Y0079468D01*
X0338308Y0079469D01*
X0342504Y0075273D01*
X0342900Y0074317D01*
X0342584Y0075081D02*
X0350547Y0075081D01*
X0349739Y0076679D02*
X0341098Y0076679D01*
X0339499Y0078278D02*
X0348602Y0078278D01*
X0351800Y0079409D02*
X0352135Y0079073D01*
X0352135Y0079035D02*
X0347402Y0083769D01*
X0351171Y0084672D02*
X0354750Y0084672D01*
X0357559Y0083073D02*
X0351775Y0083073D01*
X0354524Y0081475D02*
X0360000Y0081475D01*
X0351551Y0086270D02*
X0351171Y0086270D01*
X0347687Y0088068D02*
X0344688Y0088068D01*
X0343798Y0087178D01*
X0343685Y0087374D01*
X0343350Y0087709D01*
X0342940Y0087946D01*
X0342482Y0088068D01*
X0340461Y0088068D01*
X0340461Y0083953D01*
X0340092Y0083953D01*
X0340092Y0088068D01*
X0338071Y0088068D01*
X0337613Y0087946D01*
X0337203Y0087709D01*
X0336868Y0087374D01*
X0336631Y0086963D01*
X0336508Y0086505D01*
X0336508Y0083953D01*
X0340092Y0083953D01*
X0340092Y0083584D01*
X0336813Y0083584D01*
X0336498Y0083899D01*
X0329102Y0083899D01*
X0328047Y0082845D01*
X0328047Y0076400D01*
X0325553Y0076400D01*
X0325553Y0078864D01*
X0325117Y0079300D01*
X0325553Y0079736D01*
X0325553Y0086345D01*
X0324498Y0087399D01*
X0323345Y0087399D01*
X0323004Y0088222D01*
X0322273Y0088953D01*
X0321587Y0089638D01*
X0321587Y0090025D01*
X0321072Y0091270D01*
X0320119Y0092223D01*
X0318874Y0092739D01*
X0318487Y0092739D01*
X0317706Y0093519D01*
X0317706Y0096857D01*
X0316652Y0097911D01*
X0311224Y0097911D01*
X0310334Y0097021D01*
X0310221Y0097216D01*
X0309886Y0097551D01*
X0309475Y0097788D01*
X0309017Y0097911D01*
X0306996Y0097911D01*
X0306996Y0093795D01*
X0306628Y0093795D01*
X0306628Y0097911D01*
X0304606Y0097911D01*
X0304149Y0097788D01*
X0303738Y0097551D01*
X0303403Y0097216D01*
X0303166Y0096806D01*
X0303043Y0096348D01*
X0303043Y0093854D01*
X0302998Y0093899D01*
X0295602Y0093899D01*
X0294547Y0092845D01*
X0294547Y0086236D01*
X0294983Y0085800D01*
X0294547Y0085364D01*
X0294547Y0084160D01*
X0293053Y0084160D01*
X0293053Y0084864D01*
X0292617Y0085300D01*
X0293053Y0085736D01*
X0293053Y0092345D01*
X0291998Y0093399D01*
X0290267Y0093399D01*
X0289773Y0093894D01*
X0288387Y0095279D01*
X0288387Y0095937D01*
X0287872Y0097182D01*
X0286919Y0098135D01*
X0285674Y0098650D01*
X0285016Y0098650D01*
X0284242Y0099425D01*
X0284242Y0102762D01*
X0283187Y0103817D01*
X0277759Y0103817D01*
X0276869Y0102926D01*
X0276756Y0103122D01*
X0276421Y0103457D01*
X0276011Y0103694D01*
X0275553Y0103817D01*
X0273531Y0103817D01*
X0273531Y0099701D01*
X0273163Y0099701D01*
X0273163Y0103817D01*
X0271142Y0103817D01*
X0270684Y0103694D01*
X0270274Y0103457D01*
X0269938Y0103122D01*
X0269701Y0102711D01*
X0269579Y0102254D01*
X0269579Y0099819D01*
X0269498Y0099899D01*
X0262102Y0099899D01*
X0261047Y0098845D01*
X0261047Y0092236D01*
X0261483Y0091800D01*
X0261047Y0091364D01*
X0261047Y0089660D01*
X0259553Y0089660D01*
X0259553Y0090364D01*
X0259117Y0090800D01*
X0259553Y0091236D01*
X0259553Y0097845D01*
X0258498Y0098899D01*
X0257089Y0098899D01*
X0257004Y0099103D01*
X0256273Y0099835D01*
X0254987Y0101120D01*
X0254987Y0101442D01*
X0254472Y0102687D01*
X0253519Y0103640D01*
X0252274Y0104156D01*
X0251952Y0104156D01*
X0250777Y0105330D01*
X0250777Y0108668D01*
X0249723Y0109722D01*
X0244295Y0109722D01*
X0243404Y0108832D01*
X0243292Y0109027D01*
X0242956Y0109362D01*
X0242546Y0109599D01*
X0242088Y0109722D01*
X0240067Y0109722D01*
X0240067Y0105606D01*
X0239698Y0105606D01*
X0239698Y0105238D01*
X0236160Y0105238D01*
X0235498Y0105899D01*
X0228102Y0105899D01*
X0227047Y0104845D01*
X0227047Y0098400D01*
X0226053Y0098400D01*
X0226053Y0100864D01*
X0225617Y0101300D01*
X0226053Y0101736D01*
X0226053Y0108345D01*
X0224998Y0109399D01*
X0221187Y0109399D01*
X0221187Y0110092D01*
X0220672Y0111337D01*
X0219719Y0112290D01*
X0218474Y0112805D01*
X0217126Y0112805D01*
X0217116Y0112801D01*
X0216258Y0113659D01*
X0210830Y0113659D01*
X0209940Y0112769D01*
X0209827Y0112964D01*
X0209492Y0113299D01*
X0209081Y0113536D01*
X0208624Y0113659D01*
X0206602Y0113659D01*
X0206602Y0109543D01*
X0206234Y0109543D01*
X0206234Y0109175D01*
X0206602Y0109175D01*
X0206602Y0105059D01*
X0208624Y0105059D01*
X0209081Y0105182D01*
X0209492Y0105419D01*
X0209827Y0105754D01*
X0209940Y0105949D01*
X0210830Y0105059D01*
X0214167Y0105059D01*
X0214379Y0104847D01*
X0215659Y0103567D01*
X0216390Y0102836D01*
X0216547Y0102771D01*
X0216547Y0101736D01*
X0216983Y0101300D01*
X0216547Y0100864D01*
X0216547Y0097687D01*
X0216168Y0097906D01*
X0215710Y0098029D01*
X0213689Y0098029D01*
X0213689Y0093913D01*
X0213320Y0093913D01*
X0213320Y0098029D01*
X0211299Y0098029D01*
X0210841Y0097906D01*
X0210431Y0097669D01*
X0210096Y0097334D01*
X0209997Y0097164D01*
X0209132Y0098029D01*
X0203704Y0098029D01*
X0202650Y0096975D01*
X0202650Y0090484D01*
X0202668Y0090465D01*
X0202201Y0089998D01*
X0202201Y0083900D01*
X0194899Y0083900D01*
X0194899Y0089998D01*
X0193845Y0091053D01*
X0193651Y0091053D01*
X0193651Y0093545D01*
X0190067Y0093545D01*
X0190067Y0093913D01*
X0193651Y0093913D01*
X0193651Y0096466D01*
X0193529Y0096924D01*
X0193292Y0097334D01*
X0192956Y0097669D01*
X0192546Y0097906D01*
X0192088Y0098029D01*
X0190067Y0098029D01*
X0190067Y0093913D01*
X0189698Y0093913D01*
X0189698Y0098029D01*
X0187677Y0098029D01*
X0187219Y0097906D01*
X0186809Y0097669D01*
X0186474Y0097334D01*
X0186375Y0097164D01*
X0185510Y0098029D01*
X0180082Y0098029D01*
X0179553Y0097500D01*
X0179553Y0100700D01*
X0187317Y0100700D01*
X0188273Y0101096D01*
X0189004Y0101827D01*
X0189004Y0101827D01*
X0191395Y0104218D01*
X0192126Y0104949D01*
X0192172Y0105059D01*
X0192636Y0105059D01*
X0193691Y0106113D01*
X0193691Y0112605D01*
X0192636Y0113659D01*
X0187208Y0113659D01*
X0186318Y0112769D01*
X0186205Y0112964D01*
X0185870Y0113299D01*
X0185459Y0113536D01*
X0185002Y0113659D01*
X0182980Y0113659D01*
X0182980Y0109543D01*
X0182612Y0109543D01*
X0182612Y0109175D01*
X0179028Y0109175D01*
X0179028Y0108870D01*
X0178498Y0109399D01*
X0175496Y0109399D01*
X0175187Y0109708D01*
X0175187Y0110092D01*
X0174672Y0111337D01*
X0173719Y0112290D01*
X0172474Y0112805D01*
X0171126Y0112805D01*
X0169881Y0112290D01*
X0168928Y0111337D01*
X0168413Y0110092D01*
X0168413Y0108744D01*
X0168928Y0107499D01*
X0169881Y0106546D01*
X0170047Y0106478D01*
X0170047Y0101736D01*
X0170483Y0101300D01*
X0170047Y0100864D01*
X0170047Y0096660D01*
X0169053Y0096660D01*
X0169053Y0097364D01*
X0168617Y0097800D01*
X0169053Y0098236D01*
X0169053Y0104845D01*
X0167998Y0105899D01*
X0164187Y0105899D01*
X0164187Y0106942D01*
X0163672Y0108187D01*
X0162719Y0109140D01*
X0161474Y0109656D01*
X0160126Y0109656D01*
X0159498Y0109396D01*
X0159172Y0109722D01*
X0153743Y0109722D01*
X0152853Y0108832D01*
X0152740Y0109027D01*
X0152405Y0109362D01*
X0151995Y0109599D01*
X0151537Y0109722D01*
X0149516Y0109722D01*
X0149516Y0105606D01*
X0149147Y0105606D01*
X0149147Y0105238D01*
X0145563Y0105238D01*
X0145563Y0102685D01*
X0145686Y0102227D01*
X0145923Y0101817D01*
X0146258Y0101482D01*
X0146668Y0101245D01*
X0147126Y0101122D01*
X0149147Y0101122D01*
X0149147Y0105238D01*
X0149516Y0105238D01*
X0149516Y0101122D01*
X0151537Y0101122D01*
X0151995Y0101245D01*
X0152405Y0101482D01*
X0152740Y0101817D01*
X0152853Y0102012D01*
X0153743Y0101122D01*
X0159172Y0101122D01*
X0159209Y0101159D01*
X0159547Y0100992D01*
X0159547Y0098236D01*
X0159983Y0097800D01*
X0159547Y0097364D01*
X0159547Y0093677D01*
X0159492Y0093732D01*
X0159081Y0093969D01*
X0158624Y0094092D01*
X0156602Y0094092D01*
X0156602Y0089976D01*
X0160187Y0089976D01*
X0160187Y0090116D01*
X0160602Y0089701D01*
X0161024Y0089701D01*
X0160187Y0088864D01*
X0160187Y0089608D01*
X0156602Y0089608D01*
X0156602Y0089976D01*
X0156234Y0089976D01*
X0156234Y0094092D01*
X0154213Y0094092D01*
X0153755Y0093969D01*
X0153344Y0093732D01*
X0153009Y0093397D01*
X0152911Y0093227D01*
X0152046Y0094092D01*
X0147386Y0094092D01*
X0146553Y0094617D01*
X0146553Y0097845D01*
X0145498Y0098899D01*
X0138102Y0098899D01*
X0137047Y0097845D01*
X0137047Y0091236D01*
X0137483Y0090800D01*
X0137343Y0090660D01*
X0135553Y0090660D01*
X0135553Y0091364D01*
X0135117Y0091800D01*
X0135553Y0092236D01*
X0135553Y0098845D01*
X0134498Y0099899D01*
X0131187Y0099899D01*
X0131187Y0101037D01*
X0130672Y0102282D01*
X0129719Y0103235D01*
X0128474Y0103750D01*
X0127126Y0103750D01*
X0126169Y0103354D01*
X0125707Y0103817D01*
X0120279Y0103817D01*
X0119389Y0102926D01*
X0119276Y0103122D01*
X0118941Y0103457D01*
X0118530Y0103694D01*
X0118072Y0103817D01*
X0116051Y0103817D01*
X0116051Y0099701D01*
X0115683Y0099701D01*
X0115683Y0103817D01*
X0113661Y0103817D01*
X0113204Y0103694D01*
X0112793Y0103457D01*
X0112458Y0103122D01*
X0112221Y0102711D01*
X0112098Y0102254D01*
X0112098Y0099701D01*
X0115683Y0099701D01*
X0115683Y0099332D01*
X0116051Y0099332D01*
X0116051Y0095217D01*
X0118072Y0095217D01*
X0118530Y0095339D01*
X0118941Y0095576D01*
X0119276Y0095911D01*
X0119389Y0096107D01*
X0120279Y0095217D01*
X0125707Y0095217D01*
X0125708Y0095216D01*
X0126047Y0095043D01*
X0126047Y0092236D01*
X0126483Y0091800D01*
X0126047Y0091364D01*
X0126047Y0087807D01*
X0126027Y0087827D01*
X0125617Y0088064D01*
X0125159Y0088187D01*
X0123138Y0088187D01*
X0123138Y0084071D01*
X0126722Y0084071D01*
X0126722Y0084080D01*
X0126813Y0083990D01*
X0126525Y0083702D01*
X0123138Y0083702D01*
X0123138Y0084071D01*
X0122769Y0084071D01*
X0122769Y0088187D01*
X0120748Y0088187D01*
X0120290Y0088064D01*
X0119880Y0087827D01*
X0119545Y0087492D01*
X0119446Y0087321D01*
X0118581Y0088187D01*
X0114172Y0088187D01*
X0113053Y0088949D01*
X0113053Y0092345D01*
X0111998Y0093399D01*
X0104602Y0093399D01*
X0103547Y0092345D01*
X0103547Y0085736D01*
X0103983Y0085300D01*
X0103547Y0084864D01*
X0103547Y0084660D01*
X0102053Y0084660D01*
X0102053Y0085364D01*
X0101617Y0085800D01*
X0102053Y0086236D01*
X0102053Y0092845D01*
X0100998Y0093899D01*
X0098072Y0093899D01*
X0098187Y0094177D01*
X0098187Y0095525D01*
X0097672Y0096770D01*
X0096719Y0097723D01*
X0095474Y0098239D01*
X0094126Y0098239D01*
X0092881Y0097723D01*
X0092656Y0097498D01*
X0092242Y0097911D01*
X0086814Y0097911D01*
X0085924Y0097021D01*
X0085811Y0097216D01*
X0085476Y0097551D01*
X0085066Y0097788D01*
X0084608Y0097911D01*
X0082587Y0097911D01*
X0082587Y0093795D01*
X0082218Y0093795D01*
X0082218Y0093427D01*
X0078634Y0093427D01*
X0078634Y0090874D01*
X0078757Y0090416D01*
X0078993Y0090006D01*
X0079329Y0089671D01*
X0079739Y0089434D01*
X0080197Y0089311D01*
X0082218Y0089311D01*
X0082218Y0093427D01*
X0082587Y0093427D01*
X0082587Y0089311D01*
X0084608Y0089311D01*
X0085066Y0089434D01*
X0085476Y0089671D01*
X0085811Y0090006D01*
X0085924Y0090201D01*
X0086814Y0089311D01*
X0092134Y0089311D01*
X0092547Y0089095D01*
X0092547Y0086236D01*
X0092983Y0085800D01*
X0092547Y0085364D01*
X0092547Y0081930D01*
X0092152Y0082158D01*
X0091694Y0082281D01*
X0089673Y0082281D01*
X0089673Y0078165D01*
X0093137Y0078165D01*
X0093602Y0077701D01*
X0094524Y0077701D01*
X0093257Y0076434D01*
X0093257Y0077797D01*
X0089673Y0077797D01*
X0089673Y0078165D01*
X0089305Y0078165D01*
X0089305Y0082281D01*
X0087283Y0082281D01*
X0086826Y0082158D01*
X0086415Y0081921D01*
X0086080Y0081586D01*
X0085982Y0081416D01*
X0085116Y0082281D01*
X0080634Y0082281D01*
X0079553Y0083000D01*
X0079553Y0086345D01*
X0078498Y0087399D01*
X0071102Y0087399D01*
X0070047Y0086345D01*
X0070047Y0079736D01*
X0070483Y0079300D01*
X0070047Y0078864D01*
X0070047Y0076400D01*
X0068553Y0076400D01*
X0068553Y0082845D01*
X0067498Y0083899D01*
X0064507Y0083899D01*
X0064687Y0084335D01*
X0064687Y0085682D01*
X0064172Y0086927D01*
X0063219Y0087880D01*
X0061974Y0088396D01*
X0060626Y0088396D01*
X0059381Y0087880D01*
X0059174Y0087673D01*
X0058778Y0088068D01*
X0053350Y0088068D01*
X0052459Y0087178D01*
X0052347Y0087374D01*
X0052012Y0087709D01*
X0051601Y0087946D01*
X0051143Y0088068D01*
X0049122Y0088068D01*
X0049122Y0083953D01*
X0048754Y0083953D01*
X0048754Y0088015D01*
X0051215Y0089094D01*
X0062983Y0093142D01*
X0086936Y0100213D01*
X0111263Y0105859D01*
X0135882Y0110061D01*
X0160705Y0112803D01*
X0185647Y0114077D01*
X0197357Y0114156D01*
X0197358Y0114155D01*
X0198150Y0114161D01*
X0198942Y0114155D01*
X0198944Y0114156D01*
X0210654Y0114077D01*
X0235596Y0112803D01*
X0260419Y0110061D01*
X0285037Y0105859D01*
X0309365Y0100213D01*
X0333317Y0093142D01*
X0345125Y0089080D01*
X0347687Y0088068D01*
X0344489Y0087869D02*
X0343073Y0087869D01*
X0344000Y0089467D02*
X0321759Y0089467D01*
X0321156Y0091066D02*
X0339353Y0091066D01*
X0334707Y0092664D02*
X0319053Y0092664D01*
X0317924Y0089624D02*
X0313938Y0093611D01*
X0317706Y0094263D02*
X0329521Y0094263D01*
X0324106Y0095861D02*
X0317706Y0095861D01*
X0317103Y0097460D02*
X0318692Y0097460D01*
X0313277Y0099058D02*
X0284608Y0099058D01*
X0284242Y0100657D02*
X0307453Y0100657D01*
X0300566Y0102255D02*
X0284242Y0102255D01*
X0286790Y0105452D02*
X0250777Y0105452D01*
X0253003Y0103854D02*
X0293678Y0103854D01*
X0284595Y0095395D02*
X0280473Y0099517D01*
X0287594Y0097460D02*
X0303647Y0097460D01*
X0303043Y0095861D02*
X0288387Y0095861D01*
X0289404Y0094263D02*
X0303043Y0094263D01*
X0306628Y0094263D02*
X0306996Y0094263D01*
X0306996Y0093427D02*
X0306996Y0089311D01*
X0309017Y0089311D01*
X0309475Y0089434D01*
X0309886Y0089671D01*
X0310221Y0090006D01*
X0310334Y0090201D01*
X0311224Y0089311D01*
X0314561Y0089311D01*
X0314813Y0089059D01*
X0314813Y0088677D01*
X0315328Y0087432D01*
X0316232Y0086529D01*
X0316047Y0086345D01*
X0316047Y0082281D01*
X0314083Y0082281D01*
X0314083Y0078165D01*
X0313714Y0078165D01*
X0313714Y0082281D01*
X0311693Y0082281D01*
X0311235Y0082158D01*
X0310825Y0081921D01*
X0310490Y0081586D01*
X0310391Y0081416D01*
X0309526Y0082281D01*
X0309400Y0082281D01*
X0309400Y0084317D01*
X0309004Y0085273D01*
X0304966Y0089311D01*
X0306628Y0089311D01*
X0306628Y0093427D01*
X0306996Y0093427D01*
X0306996Y0092664D02*
X0306628Y0092664D01*
X0306628Y0091066D02*
X0306996Y0091066D01*
X0306996Y0089467D02*
X0306628Y0089467D01*
X0306408Y0087869D02*
X0315148Y0087869D01*
X0316047Y0086270D02*
X0308007Y0086270D01*
X0309253Y0084672D02*
X0316047Y0084672D01*
X0316047Y0083073D02*
X0309400Y0083073D01*
X0310332Y0081475D02*
X0310425Y0081475D01*
X0313714Y0081475D02*
X0314083Y0081475D01*
X0314083Y0079876D02*
X0313714Y0079876D01*
X0313714Y0078278D02*
X0314083Y0078278D01*
X0306812Y0077981D02*
X0306800Y0077993D01*
X0306800Y0083800D01*
X0301060Y0089540D01*
X0299300Y0089540D01*
X0294547Y0089467D02*
X0293053Y0089467D01*
X0293053Y0087869D02*
X0294547Y0087869D01*
X0294547Y0086270D02*
X0293053Y0086270D01*
X0293053Y0084672D02*
X0294547Y0084672D01*
X0288300Y0089040D02*
X0288300Y0091690D01*
X0284595Y0095395D01*
X0284868Y0095395D01*
X0285000Y0095263D01*
X0281748Y0094263D02*
X0272514Y0094263D01*
X0273163Y0095217D02*
X0273163Y0099332D01*
X0273531Y0099332D01*
X0273531Y0095217D01*
X0275553Y0095217D01*
X0276011Y0095339D01*
X0276421Y0095576D01*
X0276756Y0095911D01*
X0276869Y0096107D01*
X0277759Y0095217D01*
X0281096Y0095217D01*
X0281613Y0094700D01*
X0281613Y0094589D01*
X0282128Y0093344D01*
X0283081Y0092391D01*
X0283547Y0092198D01*
X0283547Y0087787D01*
X0283508Y0087827D01*
X0283097Y0088064D01*
X0282639Y0088187D01*
X0280618Y0088187D01*
X0280618Y0084071D01*
X0280250Y0084071D01*
X0280250Y0088187D01*
X0278228Y0088187D01*
X0277771Y0088064D01*
X0277360Y0087827D01*
X0277025Y0087492D01*
X0276927Y0087321D01*
X0276061Y0088187D01*
X0275900Y0088187D01*
X0275900Y0090317D01*
X0275504Y0091273D01*
X0271560Y0095217D01*
X0273163Y0095217D01*
X0273163Y0095861D02*
X0273531Y0095861D01*
X0273531Y0097460D02*
X0273163Y0097460D01*
X0273163Y0099058D02*
X0273531Y0099058D01*
X0273531Y0100657D02*
X0273163Y0100657D01*
X0273163Y0102255D02*
X0273531Y0102255D01*
X0269579Y0102255D02*
X0254651Y0102255D01*
X0255451Y0100657D02*
X0269579Y0100657D01*
X0261261Y0099058D02*
X0257023Y0099058D01*
X0254800Y0097631D02*
X0254800Y0094540D01*
X0259553Y0094263D02*
X0261047Y0094263D01*
X0261047Y0095861D02*
X0259553Y0095861D01*
X0259553Y0097460D02*
X0261047Y0097460D01*
X0265800Y0095540D02*
X0267560Y0095540D01*
X0273300Y0089800D01*
X0273300Y0083934D01*
X0273347Y0083887D01*
X0280250Y0084672D02*
X0280618Y0084672D01*
X0280618Y0086270D02*
X0280250Y0086270D01*
X0280250Y0087869D02*
X0280618Y0087869D01*
X0283435Y0087869D02*
X0283547Y0087869D01*
X0283547Y0089467D02*
X0275900Y0089467D01*
X0275590Y0091066D02*
X0283547Y0091066D01*
X0282808Y0092664D02*
X0274113Y0092664D01*
X0276706Y0095861D02*
X0277114Y0095861D01*
X0292733Y0092664D02*
X0294547Y0092664D01*
X0294547Y0091066D02*
X0293053Y0091066D01*
X0306628Y0095861D02*
X0306996Y0095861D01*
X0306996Y0097460D02*
X0306628Y0097460D01*
X0309977Y0097460D02*
X0310773Y0097460D01*
X0311067Y0089467D02*
X0309533Y0089467D01*
X0317924Y0089624D02*
X0317927Y0089624D01*
X0318200Y0089351D01*
X0317924Y0089624D02*
X0320800Y0086749D01*
X0320800Y0083040D01*
X0325553Y0083073D02*
X0328276Y0083073D01*
X0328047Y0081475D02*
X0325553Y0081475D01*
X0325553Y0079876D02*
X0328047Y0079876D01*
X0328047Y0078278D02*
X0325553Y0078278D01*
X0325553Y0076679D02*
X0328047Y0076679D01*
X0332800Y0079540D02*
X0334560Y0079540D01*
X0340300Y0073800D01*
X0340300Y0068162D01*
X0340276Y0068139D01*
X0347179Y0068687D02*
X0347547Y0068687D01*
X0347547Y0070285D02*
X0347179Y0070285D01*
X0347179Y0071884D02*
X0347547Y0071884D01*
X0344094Y0071884D02*
X0343545Y0071884D01*
X0343398Y0079876D02*
X0344281Y0079876D01*
X0340461Y0079876D02*
X0340092Y0079876D01*
X0340092Y0081475D02*
X0340461Y0081475D01*
X0340461Y0083073D02*
X0340092Y0083073D01*
X0340092Y0084672D02*
X0340461Y0084672D01*
X0340461Y0086270D02*
X0340092Y0086270D01*
X0340092Y0087869D02*
X0340461Y0087869D01*
X0337480Y0087869D02*
X0323150Y0087869D01*
X0325553Y0086270D02*
X0336508Y0086270D01*
X0336508Y0084672D02*
X0325553Y0084672D01*
X0277432Y0087869D02*
X0276379Y0087869D01*
X0263200Y0083701D02*
X0263200Y0081783D01*
X0263596Y0080827D01*
X0266563Y0077861D01*
X0263779Y0076708D01*
X0261569Y0074498D01*
X0260373Y0071611D01*
X0260373Y0071611D01*
X0260373Y0070802D01*
X0260337Y0070762D01*
X0260373Y0070002D01*
X0260373Y0069883D01*
X0260344Y0068963D01*
X0259823Y0067053D01*
X0258737Y0065398D01*
X0257193Y0064160D01*
X0255342Y0063459D01*
X0254374Y0063337D01*
X0141927Y0063337D01*
X0140959Y0063459D01*
X0140959Y0063459D01*
X0139108Y0064160D01*
X0137563Y0065398D01*
X0136477Y0067053D01*
X0135956Y0068963D01*
X0135927Y0069884D01*
X0135927Y0070002D01*
X0135963Y0070762D01*
X0135927Y0070802D01*
X0135927Y0071611D01*
X0134731Y0074498D01*
X0132521Y0076708D01*
X0129634Y0077904D01*
X0128838Y0077904D01*
X0128808Y0077931D01*
X0128082Y0077905D01*
X0132273Y0082096D01*
X0133004Y0082827D01*
X0133366Y0083701D01*
X0134498Y0083701D01*
X0135553Y0084755D01*
X0135553Y0085460D01*
X0137047Y0085460D01*
X0137047Y0083755D01*
X0138102Y0082701D01*
X0142482Y0082701D01*
X0142587Y0082596D01*
X0143543Y0082200D01*
X0160317Y0082200D01*
X0161273Y0082596D01*
X0162004Y0083327D01*
X0165773Y0087096D01*
X0166504Y0087827D01*
X0166900Y0088783D01*
X0166900Y0089701D01*
X0167998Y0089701D01*
X0169053Y0090755D01*
X0169053Y0091460D01*
X0171817Y0091460D01*
X0172200Y0091618D01*
X0172200Y0084783D01*
X0172596Y0083827D01*
X0176596Y0079827D01*
X0177327Y0079096D01*
X0178283Y0078700D01*
X0212817Y0078700D01*
X0213773Y0079096D01*
X0214504Y0079827D01*
X0215513Y0080836D01*
X0216224Y0081547D01*
X0217345Y0081547D01*
X0218399Y0082602D01*
X0218399Y0086982D01*
X0222773Y0091356D01*
X0223504Y0092087D01*
X0223900Y0093043D01*
X0223900Y0093200D01*
X0227047Y0093200D01*
X0227047Y0090755D01*
X0228102Y0089701D01*
X0229200Y0089701D01*
X0229200Y0089283D01*
X0229596Y0088327D01*
X0229813Y0088110D01*
X0229813Y0087726D01*
X0230328Y0086481D01*
X0231281Y0085528D01*
X0232526Y0085013D01*
X0232910Y0085013D01*
X0234596Y0083327D01*
X0235327Y0082596D01*
X0236283Y0082200D01*
X0252317Y0082200D01*
X0253273Y0082596D01*
X0253378Y0082701D01*
X0258498Y0082701D01*
X0259553Y0083755D01*
X0259553Y0084460D01*
X0261343Y0084460D01*
X0262102Y0083701D01*
X0263200Y0083701D01*
X0263200Y0083073D02*
X0258871Y0083073D01*
X0263328Y0081475D02*
X0252173Y0081475D01*
X0251652Y0081691D02*
X0254484Y0080517D01*
X0256651Y0078350D01*
X0257824Y0075518D01*
X0257824Y0072452D01*
X0256651Y0069620D01*
X0254484Y0067453D01*
X0251652Y0066280D01*
X0248586Y0066280D01*
X0245754Y0067453D01*
X0243586Y0069620D01*
X0242413Y0072452D01*
X0242413Y0075518D01*
X0243586Y0078350D01*
X0245754Y0080517D01*
X0248586Y0081691D01*
X0251652Y0081691D01*
X0248065Y0081475D02*
X0216152Y0081475D01*
X0218399Y0083073D02*
X0234850Y0083073D01*
X0233251Y0084672D02*
X0218399Y0084672D01*
X0218399Y0086270D02*
X0230539Y0086270D01*
X0229813Y0087869D02*
X0219286Y0087869D01*
X0220884Y0089467D02*
X0229200Y0089467D01*
X0227047Y0091066D02*
X0222483Y0091066D01*
X0223743Y0092664D02*
X0227047Y0092664D01*
X0221300Y0095800D02*
X0221300Y0097560D01*
X0226053Y0099058D02*
X0227047Y0099058D01*
X0227047Y0100657D02*
X0226053Y0100657D01*
X0226053Y0102255D02*
X0227047Y0102255D01*
X0227047Y0103854D02*
X0226053Y0103854D01*
X0226053Y0105452D02*
X0227655Y0105452D01*
X0226053Y0107051D02*
X0236114Y0107051D01*
X0236114Y0108159D02*
X0236114Y0105606D01*
X0239698Y0105606D01*
X0239698Y0109722D01*
X0237677Y0109722D01*
X0237219Y0109599D01*
X0236809Y0109362D01*
X0236474Y0109027D01*
X0236237Y0108617D01*
X0236114Y0108159D01*
X0236256Y0108649D02*
X0225748Y0108649D01*
X0221123Y0110248D02*
X0258725Y0110248D01*
X0250777Y0108649D02*
X0268689Y0108649D01*
X0278055Y0107051D02*
X0250777Y0107051D01*
X0247009Y0105422D02*
X0250965Y0101465D01*
X0250965Y0101403D01*
X0251600Y0100769D01*
X0250965Y0101465D02*
X0254800Y0097631D01*
X0250047Y0097745D02*
X0250047Y0093728D01*
X0250043Y0093732D01*
X0249633Y0093969D01*
X0249175Y0094092D01*
X0247154Y0094092D01*
X0247154Y0089976D01*
X0246785Y0089976D01*
X0246785Y0094092D01*
X0244764Y0094092D01*
X0244306Y0093969D01*
X0243896Y0093732D01*
X0243560Y0093397D01*
X0243462Y0093227D01*
X0242597Y0094092D01*
X0241900Y0094092D01*
X0241900Y0096817D01*
X0241504Y0097773D01*
X0238155Y0101122D01*
X0239698Y0101122D01*
X0239698Y0105238D01*
X0240067Y0105238D01*
X0240067Y0101122D01*
X0242088Y0101122D01*
X0242546Y0101245D01*
X0242956Y0101482D01*
X0243292Y0101817D01*
X0243404Y0102012D01*
X0244295Y0101122D01*
X0247632Y0101122D01*
X0248213Y0100541D01*
X0248213Y0100095D01*
X0248728Y0098850D01*
X0249681Y0097897D01*
X0250047Y0097745D01*
X0250047Y0097460D02*
X0241634Y0097460D01*
X0241900Y0095861D02*
X0250047Y0095861D01*
X0250047Y0094263D02*
X0241900Y0094263D01*
X0239300Y0096300D02*
X0234060Y0101540D01*
X0231800Y0101540D01*
X0238620Y0100657D02*
X0248097Y0100657D01*
X0248642Y0099058D02*
X0240219Y0099058D01*
X0239300Y0096300D02*
X0239300Y0090375D01*
X0239883Y0089792D01*
X0246785Y0091066D02*
X0247154Y0091066D01*
X0247154Y0092664D02*
X0246785Y0092664D01*
X0259383Y0091066D02*
X0261047Y0091066D01*
X0261047Y0092664D02*
X0259553Y0092664D01*
X0240067Y0102255D02*
X0239698Y0102255D01*
X0239698Y0103854D02*
X0240067Y0103854D01*
X0239698Y0105452D02*
X0235945Y0105452D01*
X0239698Y0107051D02*
X0240067Y0107051D01*
X0240067Y0108649D02*
X0239698Y0108649D01*
X0244255Y0111846D02*
X0220162Y0111846D01*
X0223026Y0113445D02*
X0216472Y0113445D01*
X0210616Y0113445D02*
X0209240Y0113445D01*
X0206602Y0113445D02*
X0206234Y0113445D01*
X0206234Y0113659D02*
X0204213Y0113659D01*
X0203755Y0113536D01*
X0203344Y0113299D01*
X0203009Y0112964D01*
X0202772Y0112554D01*
X0202650Y0112096D01*
X0202650Y0109543D01*
X0206234Y0109543D01*
X0206234Y0113659D01*
X0206234Y0111846D02*
X0206602Y0111846D01*
X0206602Y0110248D02*
X0206234Y0110248D01*
X0206234Y0109175D02*
X0202650Y0109175D01*
X0202650Y0106622D01*
X0202772Y0106164D01*
X0203009Y0105754D01*
X0203344Y0105419D01*
X0203755Y0105182D01*
X0204213Y0105059D01*
X0206234Y0105059D01*
X0206234Y0109175D01*
X0206234Y0108649D02*
X0206602Y0108649D01*
X0206602Y0107051D02*
X0206234Y0107051D01*
X0202650Y0107051D02*
X0193691Y0107051D01*
X0193691Y0108649D02*
X0202650Y0108649D01*
X0202650Y0110248D02*
X0193691Y0110248D01*
X0193691Y0111846D02*
X0202650Y0111846D01*
X0203596Y0113445D02*
X0192850Y0113445D01*
X0186994Y0113445D02*
X0185618Y0113445D01*
X0182980Y0113445D02*
X0182612Y0113445D01*
X0182612Y0113659D02*
X0180591Y0113659D01*
X0180133Y0113536D01*
X0179722Y0113299D01*
X0179387Y0112964D01*
X0179150Y0112554D01*
X0179028Y0112096D01*
X0179028Y0109543D01*
X0182612Y0109543D01*
X0182612Y0113659D01*
X0182612Y0111846D02*
X0182980Y0111846D01*
X0182980Y0110248D02*
X0182612Y0110248D01*
X0179028Y0110248D02*
X0175123Y0110248D01*
X0174162Y0111846D02*
X0179028Y0111846D01*
X0179974Y0113445D02*
X0173275Y0113445D01*
X0169438Y0111846D02*
X0152046Y0111846D01*
X0149147Y0109722D02*
X0147126Y0109722D01*
X0146668Y0109599D01*
X0146258Y0109362D01*
X0145923Y0109027D01*
X0145686Y0108617D01*
X0145563Y0108159D01*
X0145563Y0105606D01*
X0149147Y0105606D01*
X0149147Y0109722D01*
X0149147Y0108649D02*
X0149516Y0108649D01*
X0149516Y0107051D02*
X0149147Y0107051D01*
X0145563Y0107051D02*
X0118246Y0107051D01*
X0127612Y0108649D02*
X0145704Y0108649D01*
X0137576Y0110248D02*
X0168477Y0110248D01*
X0168452Y0108649D02*
X0163210Y0108649D01*
X0164142Y0107051D02*
X0169377Y0107051D01*
X0171800Y0109418D02*
X0174800Y0106418D01*
X0174800Y0105040D01*
X0176540Y0103300D01*
X0186800Y0103300D01*
X0189922Y0106422D01*
X0189922Y0109359D01*
X0193029Y0105452D02*
X0203311Y0105452D01*
X0206234Y0105452D02*
X0206602Y0105452D01*
X0209526Y0105452D02*
X0210437Y0105452D01*
X0214379Y0104847D02*
X0214379Y0104847D01*
X0215372Y0103854D02*
X0191031Y0103854D01*
X0191395Y0104218D02*
X0191395Y0104218D01*
X0189432Y0102255D02*
X0216547Y0102255D01*
X0216547Y0100657D02*
X0179553Y0100657D01*
X0179553Y0099058D02*
X0216547Y0099058D01*
X0213689Y0097460D02*
X0213320Y0097460D01*
X0213320Y0095861D02*
X0213689Y0095861D01*
X0213689Y0094263D02*
X0213320Y0094263D01*
X0210221Y0097460D02*
X0209702Y0097460D01*
X0203135Y0097460D02*
X0193166Y0097460D01*
X0193651Y0095861D02*
X0202650Y0095861D01*
X0202650Y0094263D02*
X0193651Y0094263D01*
X0190067Y0094263D02*
X0189698Y0094263D01*
X0189698Y0095861D02*
X0190067Y0095861D01*
X0190067Y0097460D02*
X0189698Y0097460D01*
X0186599Y0097460D02*
X0186079Y0097460D01*
X0182796Y0093729D02*
X0182796Y0086564D01*
X0183060Y0086300D01*
X0190540Y0086300D02*
X0190540Y0083040D01*
X0188800Y0081300D01*
X0194899Y0084672D02*
X0202201Y0084672D01*
X0202201Y0086270D02*
X0194899Y0086270D01*
X0194899Y0087869D02*
X0202201Y0087869D01*
X0202201Y0089467D02*
X0194899Y0089467D01*
X0193651Y0091066D02*
X0202650Y0091066D01*
X0202650Y0092664D02*
X0193651Y0092664D01*
X0206418Y0093729D02*
X0206418Y0086442D01*
X0206560Y0086300D01*
X0214553Y0079876D02*
X0245113Y0079876D01*
X0243557Y0078278D02*
X0152744Y0078278D01*
X0152714Y0078350D02*
X0150547Y0080517D01*
X0147715Y0081691D01*
X0144649Y0081691D01*
X0141817Y0080517D01*
X0139649Y0078350D01*
X0138476Y0075518D01*
X0138476Y0072452D01*
X0139649Y0069620D01*
X0141817Y0067453D01*
X0144649Y0066280D01*
X0147715Y0066280D01*
X0150547Y0067453D01*
X0152714Y0069620D01*
X0153887Y0072452D01*
X0153887Y0075518D01*
X0152714Y0078350D01*
X0153406Y0076679D02*
X0242894Y0076679D01*
X0242413Y0075081D02*
X0153887Y0075081D01*
X0153887Y0073482D02*
X0242413Y0073482D01*
X0242649Y0071884D02*
X0153652Y0071884D01*
X0152990Y0070285D02*
X0243311Y0070285D01*
X0244520Y0068687D02*
X0151781Y0068687D01*
X0149667Y0067088D02*
X0246634Y0067088D01*
X0253604Y0067088D02*
X0259833Y0067088D01*
X0260269Y0068687D02*
X0255718Y0068687D01*
X0256927Y0070285D02*
X0260359Y0070285D01*
X0260344Y0068963D02*
X0260344Y0068963D01*
X0260486Y0071884D02*
X0257589Y0071884D01*
X0257824Y0073482D02*
X0261148Y0073482D01*
X0261569Y0074498D02*
X0261569Y0074498D01*
X0262152Y0075081D02*
X0257824Y0075081D01*
X0257343Y0076679D02*
X0263750Y0076679D01*
X0263779Y0076708D02*
X0263779Y0076708D01*
X0266145Y0078278D02*
X0256681Y0078278D01*
X0255125Y0079876D02*
X0264547Y0079876D01*
X0258797Y0065490D02*
X0137503Y0065490D01*
X0139818Y0063891D02*
X0256482Y0063891D01*
X0176547Y0079876D02*
X0151188Y0079876D01*
X0148236Y0081475D02*
X0174948Y0081475D01*
X0173350Y0083073D02*
X0161750Y0083073D01*
X0163349Y0084672D02*
X0172246Y0084672D01*
X0172200Y0086270D02*
X0164947Y0086270D01*
X0166521Y0087869D02*
X0172200Y0087869D01*
X0172200Y0089467D02*
X0166900Y0089467D01*
X0169053Y0091066D02*
X0172200Y0091066D01*
X0160790Y0089467D02*
X0160187Y0089467D01*
X0156602Y0091066D02*
X0156234Y0091066D01*
X0156234Y0092664D02*
X0156602Y0092664D01*
X0159547Y0094263D02*
X0147115Y0094263D01*
X0146553Y0095861D02*
X0159547Y0095861D01*
X0159643Y0097460D02*
X0146553Y0097460D01*
X0141800Y0094540D02*
X0149331Y0089792D01*
X0137217Y0091066D02*
X0135553Y0091066D01*
X0135553Y0092664D02*
X0137047Y0092664D01*
X0137047Y0094263D02*
X0135553Y0094263D01*
X0135553Y0095861D02*
X0137047Y0095861D01*
X0137047Y0097460D02*
X0135553Y0097460D01*
X0135339Y0099058D02*
X0159547Y0099058D01*
X0159547Y0100657D02*
X0131187Y0100657D01*
X0130683Y0102255D02*
X0145678Y0102255D01*
X0145563Y0103854D02*
X0102623Y0103854D01*
X0109510Y0105452D02*
X0149147Y0105452D01*
X0149147Y0103854D02*
X0149516Y0103854D01*
X0149516Y0102255D02*
X0149147Y0102255D01*
X0156457Y0105422D02*
X0159708Y0103813D01*
X0160800Y0106269D01*
X0159708Y0103813D02*
X0164300Y0101540D01*
X0169053Y0102255D02*
X0170047Y0102255D01*
X0170047Y0100657D02*
X0169053Y0100657D01*
X0169053Y0099058D02*
X0170047Y0099058D01*
X0170047Y0097460D02*
X0168957Y0097460D01*
X0169053Y0103854D02*
X0170047Y0103854D01*
X0170047Y0105452D02*
X0168445Y0105452D01*
X0130800Y0095540D02*
X0126427Y0097767D01*
X0127800Y0100363D01*
X0126427Y0097767D02*
X0122993Y0099517D01*
X0119634Y0095861D02*
X0119226Y0095861D01*
X0116051Y0095861D02*
X0115683Y0095861D01*
X0115683Y0095217D02*
X0115683Y0099332D01*
X0112098Y0099332D01*
X0112098Y0096780D01*
X0112221Y0096322D01*
X0112458Y0095911D01*
X0112793Y0095576D01*
X0113204Y0095339D01*
X0113661Y0095217D01*
X0115683Y0095217D01*
X0112508Y0095861D02*
X0098048Y0095861D01*
X0098187Y0094263D02*
X0126047Y0094263D01*
X0125708Y0095216D02*
X0125708Y0095216D01*
X0126047Y0092664D02*
X0112733Y0092664D01*
X0113053Y0091066D02*
X0126047Y0091066D01*
X0126047Y0089467D02*
X0113053Y0089467D01*
X0108300Y0089040D02*
X0115867Y0083887D01*
X0122769Y0084672D02*
X0123138Y0084672D01*
X0123138Y0086270D02*
X0122769Y0086270D01*
X0122769Y0087869D02*
X0123138Y0087869D01*
X0125955Y0087869D02*
X0126047Y0087869D01*
X0119952Y0087869D02*
X0118899Y0087869D01*
X0133106Y0083073D02*
X0137729Y0083073D01*
X0137047Y0084672D02*
X0135469Y0084672D01*
X0131652Y0081475D02*
X0144128Y0081475D01*
X0141176Y0079876D02*
X0130053Y0079876D01*
X0128455Y0078278D02*
X0139620Y0078278D01*
X0138957Y0076679D02*
X0132550Y0076679D01*
X0132521Y0076708D02*
X0132521Y0076708D01*
X0134148Y0075081D02*
X0138476Y0075081D01*
X0138476Y0073482D02*
X0135152Y0073482D01*
X0134731Y0074498D02*
X0134731Y0074498D01*
X0135814Y0071884D02*
X0138712Y0071884D01*
X0139374Y0070285D02*
X0135941Y0070285D01*
X0136031Y0068687D02*
X0140583Y0068687D01*
X0142697Y0067088D02*
X0136468Y0067088D01*
X0112309Y0076700D02*
X0105410Y0075912D01*
X0098813Y0074636D01*
X0099504Y0075327D01*
X0099900Y0076283D01*
X0099900Y0077701D01*
X0100998Y0077701D01*
X0102053Y0078755D01*
X0102053Y0079460D01*
X0103547Y0079460D01*
X0103547Y0078255D01*
X0104602Y0077201D01*
X0108982Y0077201D01*
X0109087Y0077096D01*
X0110043Y0076700D01*
X0112309Y0076700D01*
X0112127Y0076679D02*
X0099900Y0076679D01*
X0099258Y0075081D02*
X0101111Y0075081D01*
X0105410Y0075912D02*
X0105410Y0075912D01*
X0103547Y0078278D02*
X0101575Y0078278D01*
X0093502Y0076679D02*
X0093257Y0076679D01*
X0089673Y0078278D02*
X0089305Y0078278D01*
X0089305Y0079876D02*
X0089673Y0079876D01*
X0089673Y0081475D02*
X0089305Y0081475D01*
X0086016Y0081475D02*
X0085923Y0081475D01*
X0079553Y0083073D02*
X0092547Y0083073D01*
X0092547Y0084672D02*
X0079553Y0084672D01*
X0079553Y0086270D02*
X0092547Y0086270D01*
X0092547Y0087869D02*
X0063230Y0087869D01*
X0064444Y0086270D02*
X0070047Y0086270D01*
X0070047Y0084672D02*
X0064687Y0084672D01*
X0061300Y0085009D02*
X0059390Y0081950D01*
X0063800Y0079540D01*
X0068553Y0079876D02*
X0070047Y0079876D01*
X0070047Y0078278D02*
X0068553Y0078278D01*
X0068553Y0076679D02*
X0070047Y0076679D01*
X0074800Y0083040D02*
X0082402Y0077981D01*
X0070047Y0081475D02*
X0068553Y0081475D01*
X0068324Y0083073D02*
X0070047Y0083073D01*
X0059390Y0081950D02*
X0056064Y0083769D01*
X0049122Y0083584D02*
X0049122Y0079469D01*
X0051143Y0079469D01*
X0051601Y0079591D01*
X0052012Y0079828D01*
X0052347Y0080163D01*
X0052459Y0080359D01*
X0053350Y0079469D01*
X0058467Y0079469D01*
X0058529Y0079458D01*
X0058597Y0079421D01*
X0058597Y0079421D01*
X0059047Y0079175D01*
X0059047Y0076236D01*
X0059483Y0075800D01*
X0059047Y0075364D01*
X0059047Y0072108D01*
X0058688Y0072316D01*
X0058230Y0072439D01*
X0056209Y0072439D01*
X0056209Y0068323D01*
X0059480Y0068323D01*
X0060063Y0067740D01*
X0059793Y0067470D01*
X0059793Y0067954D01*
X0056209Y0067954D01*
X0056209Y0068323D01*
X0055840Y0068323D01*
X0055840Y0072439D01*
X0053819Y0072439D01*
X0053361Y0072316D01*
X0052951Y0072079D01*
X0052616Y0071744D01*
X0052517Y0071573D01*
X0051652Y0072439D01*
X0047051Y0072439D01*
X0046053Y0073079D01*
X0046053Y0076345D01*
X0044998Y0077399D01*
X0037602Y0077399D01*
X0036547Y0076345D01*
X0036547Y0069736D01*
X0036983Y0069300D01*
X0036547Y0068864D01*
X0036547Y0064484D01*
X0033470Y0061406D01*
X0033108Y0061051D01*
X0033104Y0061041D01*
X0033096Y0061033D01*
X0032902Y0060565D01*
X0032704Y0060099D01*
X0032704Y0060087D01*
X0032700Y0060077D01*
X0032700Y0059571D01*
X0032679Y0056999D01*
X0026102Y0056999D01*
X0025047Y0055945D01*
X0025047Y0055295D01*
X0024974Y0055325D01*
X0023626Y0055325D01*
X0022381Y0054809D01*
X0021428Y0053857D01*
X0020913Y0052612D01*
X0020913Y0051264D01*
X0021160Y0050667D01*
X0019885Y0050667D01*
X0018995Y0049777D01*
X0018882Y0049972D01*
X0018547Y0050307D01*
X0018137Y0050544D01*
X0017679Y0050667D01*
X0015657Y0050667D01*
X0015657Y0046551D01*
X0015289Y0046551D01*
X0015289Y0050667D01*
X0013676Y0050667D01*
X0014705Y0055081D01*
X0017095Y0060514D01*
X0018655Y0063038D01*
X0021160Y0066442D01*
X0026749Y0072795D01*
X0033038Y0078456D01*
X0039942Y0083349D01*
X0045169Y0086206D01*
X0045169Y0083953D01*
X0048753Y0083953D01*
X0048753Y0083584D01*
X0045169Y0083584D01*
X0045169Y0081032D01*
X0045292Y0080574D01*
X0045529Y0080163D01*
X0045864Y0079828D01*
X0046275Y0079591D01*
X0046732Y0079469D01*
X0048754Y0079468D01*
X0048754Y0083584D01*
X0049122Y0083584D01*
X0049122Y0083073D02*
X0048754Y0083073D01*
X0048754Y0081475D02*
X0049122Y0081475D01*
X0045169Y0081475D02*
X0037298Y0081475D01*
X0039553Y0083073D02*
X0045169Y0083073D01*
X0045169Y0084672D02*
X0042362Y0084672D01*
X0048754Y0084672D02*
X0049122Y0084672D01*
X0049122Y0086270D02*
X0048754Y0086270D01*
X0048754Y0087869D02*
X0049122Y0087869D01*
X0051735Y0087869D02*
X0053150Y0087869D01*
X0052300Y0089467D02*
X0079681Y0089467D01*
X0078634Y0091066D02*
X0056947Y0091066D01*
X0061594Y0092664D02*
X0078634Y0092664D01*
X0078634Y0093795D02*
X0082218Y0093795D01*
X0082218Y0097911D01*
X0080197Y0097911D01*
X0079739Y0097788D01*
X0079329Y0097551D01*
X0078993Y0097216D01*
X0078757Y0096806D01*
X0078634Y0096348D01*
X0078634Y0093795D01*
X0078634Y0094263D02*
X0066780Y0094263D01*
X0072194Y0095861D02*
X0078634Y0095861D01*
X0079237Y0097460D02*
X0077609Y0097460D01*
X0082218Y0097460D02*
X0082587Y0097460D01*
X0082587Y0095861D02*
X0082218Y0095861D01*
X0082218Y0094263D02*
X0082587Y0094263D01*
X0082587Y0092664D02*
X0082218Y0092664D01*
X0082218Y0091066D02*
X0082587Y0091066D01*
X0082587Y0089467D02*
X0082218Y0089467D01*
X0085124Y0089467D02*
X0086658Y0089467D01*
X0089528Y0093611D02*
X0092784Y0091906D01*
X0094800Y0094851D01*
X0096982Y0097460D02*
X0112098Y0097460D01*
X0112098Y0099058D02*
X0083024Y0099058D01*
X0085568Y0097460D02*
X0086363Y0097460D01*
X0088848Y0100657D02*
X0112098Y0100657D01*
X0112099Y0102255D02*
X0095735Y0102255D01*
X0115683Y0102255D02*
X0116051Y0102255D01*
X0116051Y0100657D02*
X0115683Y0100657D01*
X0115683Y0099058D02*
X0116051Y0099058D01*
X0116051Y0097460D02*
X0115683Y0097460D01*
X0103867Y0092664D02*
X0102053Y0092664D01*
X0102053Y0091066D02*
X0103547Y0091066D01*
X0103547Y0089467D02*
X0102053Y0089467D01*
X0102053Y0087869D02*
X0103547Y0087869D01*
X0103547Y0086270D02*
X0102053Y0086270D01*
X0102053Y0084672D02*
X0103547Y0084672D01*
X0097300Y0089540D02*
X0092784Y0091906D01*
X0059370Y0087869D02*
X0058978Y0087869D01*
X0052942Y0079876D02*
X0052060Y0079876D01*
X0049122Y0079876D02*
X0048754Y0079876D01*
X0045816Y0079876D02*
X0035043Y0079876D01*
X0032841Y0078278D02*
X0059047Y0078278D01*
X0059047Y0076679D02*
X0045718Y0076679D01*
X0046053Y0075081D02*
X0059047Y0075081D01*
X0059047Y0073482D02*
X0046053Y0073482D01*
X0041300Y0073040D02*
X0048938Y0068139D01*
X0055840Y0068687D02*
X0056209Y0068687D01*
X0056209Y0070285D02*
X0055840Y0070285D01*
X0055840Y0071884D02*
X0056209Y0071884D01*
X0052755Y0071884D02*
X0052207Y0071884D01*
X0036547Y0071884D02*
X0025948Y0071884D01*
X0024541Y0070285D02*
X0036547Y0070285D01*
X0036547Y0068687D02*
X0023135Y0068687D01*
X0021728Y0067088D02*
X0036547Y0067088D01*
X0036547Y0065490D02*
X0020459Y0065490D01*
X0019283Y0063891D02*
X0035954Y0063891D01*
X0034356Y0062293D02*
X0018194Y0062293D01*
X0017206Y0060694D02*
X0032956Y0060694D01*
X0032696Y0059096D02*
X0016471Y0059096D01*
X0015768Y0057497D02*
X0032683Y0057497D01*
X0037883Y0057497D02*
X0047619Y0057497D01*
X0047944Y0057675D02*
X0041952Y0054394D01*
X0041879Y0054410D01*
X0041252Y0054011D01*
X0040600Y0053654D01*
X0040579Y0053583D01*
X0039452Y0052866D01*
X0037826Y0050698D01*
X0037891Y0058474D01*
X0040618Y0061201D01*
X0041982Y0061201D01*
X0042087Y0061096D01*
X0043043Y0060700D01*
X0054655Y0060700D01*
X0047944Y0057675D01*
X0047944Y0057675D01*
X0051095Y0059096D02*
X0038513Y0059096D01*
X0040111Y0060694D02*
X0054641Y0060694D01*
X0064602Y0064926D02*
X0065273Y0065596D01*
X0066004Y0066327D01*
X0066400Y0067283D01*
X0066400Y0067701D01*
X0067498Y0067701D01*
X0068553Y0068755D01*
X0068553Y0071200D01*
X0075483Y0071200D01*
X0075587Y0071096D01*
X0076543Y0070700D01*
X0082060Y0070700D01*
X0075969Y0069024D01*
X0064602Y0064926D01*
X0065167Y0065490D02*
X0066167Y0065490D01*
X0066319Y0067088D02*
X0070601Y0067088D01*
X0068484Y0068687D02*
X0075034Y0068687D01*
X0075969Y0069024D02*
X0075969Y0069024D01*
X0080552Y0070285D02*
X0068553Y0070285D01*
X0036547Y0073482D02*
X0027513Y0073482D01*
X0029289Y0075081D02*
X0036547Y0075081D01*
X0036882Y0076679D02*
X0031065Y0076679D01*
X0025047Y0055899D02*
X0015064Y0055899D01*
X0014522Y0054300D02*
X0021872Y0054300D01*
X0020950Y0052701D02*
X0014150Y0052701D01*
X0013777Y0051103D02*
X0020979Y0051103D01*
X0024300Y0051938D02*
X0029800Y0052640D01*
X0024300Y0051938D02*
X0022599Y0046367D01*
X0015657Y0047906D02*
X0015289Y0047906D01*
X0015289Y0049504D02*
X0015657Y0049504D01*
X0015657Y0044709D02*
X0015289Y0044709D01*
X0015289Y0043110D02*
X0015657Y0043110D01*
X0013093Y0041512D02*
X0025391Y0041512D01*
X0029800Y0040200D02*
X0029800Y0035540D01*
X0018800Y0026300D02*
X0015473Y0029627D01*
X0015473Y0030737D01*
X0037829Y0051103D02*
X0038130Y0051103D01*
X0037843Y0052701D02*
X0039329Y0052701D01*
X0039452Y0052866D02*
X0039452Y0052866D01*
X0037856Y0054300D02*
X0041706Y0054300D01*
X0044699Y0055899D02*
X0037869Y0055899D01*
X0213544Y0109359D02*
X0215852Y0107052D01*
X0215852Y0107470D01*
X0217800Y0109418D01*
X0215852Y0107052D02*
X0217863Y0105040D01*
X0221300Y0105040D01*
X0380643Y0033519D02*
X0381012Y0033519D01*
X0381012Y0031921D02*
X0380643Y0031921D01*
X0380643Y0030553D02*
X0381012Y0030553D01*
X0381012Y0026437D01*
X0383033Y0026437D01*
X0383208Y0026484D01*
X0383208Y0026407D01*
X0383203Y0026222D01*
X0382948Y0025534D01*
X0382428Y0025014D01*
X0381739Y0024760D01*
X0381557Y0024754D01*
X0381295Y0024754D01*
X0380565Y0024810D01*
X0380499Y0024754D01*
X0374875Y0024754D01*
X0374987Y0025026D01*
X0374987Y0026374D01*
X0374961Y0026437D01*
X0376416Y0026437D01*
X0377306Y0027327D01*
X0377419Y0027132D01*
X0377754Y0026797D01*
X0378164Y0026560D01*
X0378622Y0026437D01*
X0380643Y0026437D01*
X0380643Y0030553D01*
X0380643Y0030322D02*
X0381012Y0030322D01*
X0381012Y0028724D02*
X0380643Y0028724D01*
X0380643Y0027125D02*
X0381012Y0027125D01*
X0377425Y0027125D02*
X0377104Y0027125D01*
X0373702Y0030737D02*
X0371024Y0028060D01*
X0370600Y0028060D01*
X0370600Y0026700D01*
X0371600Y0025700D01*
X0370600Y0028060D02*
X0365867Y0028060D01*
X0374987Y0025527D02*
X0382941Y0025527D01*
D14*
X0371600Y0025700D03*
X0378600Y0035400D03*
X0351500Y0058200D03*
X0375300Y0062900D03*
X0366900Y0071800D03*
X0351800Y0079409D03*
X0318200Y0089351D03*
X0326000Y0091400D03*
X0294200Y0098400D03*
X0285000Y0095263D03*
X0260400Y0104900D03*
X0251600Y0100769D03*
X0231300Y0110500D03*
X0217800Y0109418D03*
X0171800Y0109418D03*
X0165500Y0110900D03*
X0160800Y0106269D03*
X0141300Y0107600D03*
X0127800Y0100363D03*
X0107000Y0101300D03*
X0094800Y0094851D03*
X0061300Y0085009D03*
X0032600Y0071400D03*
X0023200Y0061500D03*
X0041400Y0057900D03*
X0024300Y0051938D03*
X0071200Y0069500D03*
X0102500Y0077400D03*
X0136400Y0079400D03*
X0233200Y0088400D03*
X0260600Y0079000D03*
D15*
X0365867Y0040300D03*
X0029800Y0040200D03*
M02*
