G75*
%MOIN*%
%OFA0B0*%
%FSLAX25Y25*%
%IPPOS*%
%LPD*%
%AMOC8*
5,1,8,0,0,1.08239X$1,22.5*
%
%ADD10C,0.00300*%
%ADD11C,0.00000*%
%ADD12C,0.00600*%
%ADD13R,0.05512X0.02559*%
%ADD14R,0.02559X0.05512*%
%ADD15C,0.00500*%
D10*
X0015080Y0022804D02*
X0033977Y0022804D01*
X0034101Y0022806D01*
X0034224Y0022812D01*
X0034348Y0022821D01*
X0034470Y0022835D01*
X0034593Y0022852D01*
X0034715Y0022874D01*
X0034836Y0022899D01*
X0034956Y0022928D01*
X0035075Y0022960D01*
X0035194Y0022997D01*
X0035311Y0023037D01*
X0035426Y0023080D01*
X0035541Y0023128D01*
X0035653Y0023179D01*
X0035764Y0023233D01*
X0035874Y0023291D01*
X0035981Y0023352D01*
X0036087Y0023417D01*
X0036190Y0023485D01*
X0036291Y0023556D01*
X0036390Y0023630D01*
X0036487Y0023707D01*
X0036581Y0023788D01*
X0036672Y0023871D01*
X0036761Y0023957D01*
X0036847Y0024046D01*
X0036930Y0024137D01*
X0037011Y0024231D01*
X0037088Y0024328D01*
X0037162Y0024427D01*
X0037233Y0024528D01*
X0037301Y0024631D01*
X0037366Y0024737D01*
X0037427Y0024844D01*
X0037485Y0024954D01*
X0037539Y0025065D01*
X0037590Y0025177D01*
X0037638Y0025292D01*
X0037681Y0025407D01*
X0037721Y0025524D01*
X0037758Y0025643D01*
X0037790Y0025762D01*
X0037819Y0025882D01*
X0037844Y0026003D01*
X0037866Y0026125D01*
X0037883Y0026248D01*
X0037897Y0026370D01*
X0037906Y0026494D01*
X0037912Y0026617D01*
X0037914Y0026741D01*
X0037914Y0043670D01*
X0011142Y0046426D02*
X0011188Y0047248D01*
X0011253Y0048068D01*
X0011339Y0048886D01*
X0011444Y0049701D01*
X0011569Y0050514D01*
X0011713Y0051324D01*
X0011877Y0052130D01*
X0012061Y0052932D01*
X0012263Y0053729D01*
X0012485Y0054521D01*
X0012727Y0055307D01*
X0012987Y0056088D01*
X0013266Y0056861D01*
X0013563Y0057628D01*
X0013879Y0058388D01*
X0014213Y0059139D01*
X0014566Y0059882D01*
X0014936Y0060617D01*
X0015324Y0061342D01*
X0015729Y0062058D01*
X0016152Y0062763D01*
X0016591Y0063459D01*
X0017048Y0064143D01*
X0025572Y0065506D02*
X0026394Y0065506D01*
X0025572Y0065506D02*
X0025516Y0065508D01*
X0025460Y0065514D01*
X0025405Y0065523D01*
X0025350Y0065536D01*
X0025297Y0065553D01*
X0025245Y0065574D01*
X0025194Y0065598D01*
X0025145Y0065626D01*
X0025098Y0065656D01*
X0025053Y0065690D01*
X0025011Y0065727D01*
X0024971Y0065767D01*
X0024934Y0065809D01*
X0024900Y0065854D01*
X0024870Y0065901D01*
X0024842Y0065950D01*
X0024818Y0066001D01*
X0024797Y0066053D01*
X0024780Y0066106D01*
X0024767Y0066161D01*
X0024758Y0066216D01*
X0024752Y0066272D01*
X0024750Y0066328D01*
X0024752Y0066384D01*
X0024758Y0066440D01*
X0024767Y0066495D01*
X0024780Y0066550D01*
X0024797Y0066603D01*
X0024818Y0066655D01*
X0024842Y0066706D01*
X0024870Y0066755D01*
X0024900Y0066802D01*
X0024934Y0066847D01*
X0024971Y0066889D01*
X0025011Y0066929D01*
X0025053Y0066966D01*
X0025098Y0067000D01*
X0025145Y0067030D01*
X0025194Y0067058D01*
X0025245Y0067082D01*
X0025297Y0067103D01*
X0025350Y0067120D01*
X0025405Y0067133D01*
X0025460Y0067142D01*
X0025516Y0067148D01*
X0025572Y0067150D01*
X0026806Y0067150D01*
X0029378Y0067150D02*
X0030406Y0066328D01*
X0029378Y0067150D02*
X0029378Y0063450D01*
X0030406Y0063450D02*
X0028350Y0063450D01*
X0026806Y0063450D02*
X0025778Y0063450D01*
X0025715Y0063452D01*
X0025652Y0063458D01*
X0025589Y0063468D01*
X0025527Y0063481D01*
X0025466Y0063498D01*
X0025407Y0063519D01*
X0025348Y0063544D01*
X0025292Y0063572D01*
X0025237Y0063604D01*
X0025184Y0063639D01*
X0025134Y0063677D01*
X0025085Y0063718D01*
X0025040Y0063762D01*
X0024997Y0063809D01*
X0024958Y0063858D01*
X0024921Y0063910D01*
X0024888Y0063964D01*
X0024858Y0064020D01*
X0024831Y0064077D01*
X0024808Y0064136D01*
X0024789Y0064197D01*
X0024774Y0064258D01*
X0024762Y0064320D01*
X0024754Y0064383D01*
X0024750Y0064446D01*
X0024750Y0064510D01*
X0024754Y0064573D01*
X0024762Y0064636D01*
X0024774Y0064698D01*
X0024789Y0064759D01*
X0024808Y0064820D01*
X0024831Y0064879D01*
X0024858Y0064936D01*
X0024888Y0064992D01*
X0024921Y0065046D01*
X0024958Y0065098D01*
X0024997Y0065147D01*
X0025040Y0065194D01*
X0025085Y0065238D01*
X0025134Y0065279D01*
X0025184Y0065317D01*
X0025237Y0065352D01*
X0025292Y0065384D01*
X0025348Y0065412D01*
X0025407Y0065437D01*
X0025466Y0065458D01*
X0025527Y0065475D01*
X0025589Y0065488D01*
X0025652Y0065498D01*
X0025715Y0065504D01*
X0025778Y0065506D01*
X0031928Y0063450D02*
X0032750Y0065094D01*
X0032955Y0065094D02*
X0033983Y0065094D01*
X0032955Y0065094D02*
X0032892Y0065096D01*
X0032829Y0065102D01*
X0032766Y0065112D01*
X0032704Y0065125D01*
X0032643Y0065142D01*
X0032584Y0065163D01*
X0032525Y0065188D01*
X0032469Y0065216D01*
X0032414Y0065248D01*
X0032361Y0065283D01*
X0032311Y0065321D01*
X0032262Y0065362D01*
X0032217Y0065406D01*
X0032174Y0065453D01*
X0032135Y0065502D01*
X0032098Y0065554D01*
X0032065Y0065608D01*
X0032035Y0065664D01*
X0032008Y0065721D01*
X0031985Y0065780D01*
X0031966Y0065841D01*
X0031951Y0065902D01*
X0031939Y0065964D01*
X0031931Y0066027D01*
X0031927Y0066090D01*
X0031927Y0066154D01*
X0031931Y0066217D01*
X0031939Y0066280D01*
X0031951Y0066342D01*
X0031966Y0066403D01*
X0031985Y0066464D01*
X0032008Y0066523D01*
X0032035Y0066580D01*
X0032065Y0066636D01*
X0032098Y0066690D01*
X0032135Y0066742D01*
X0032174Y0066791D01*
X0032217Y0066838D01*
X0032262Y0066882D01*
X0032311Y0066923D01*
X0032361Y0066961D01*
X0032414Y0066996D01*
X0032469Y0067028D01*
X0032525Y0067056D01*
X0032584Y0067081D01*
X0032643Y0067102D01*
X0032704Y0067119D01*
X0032766Y0067132D01*
X0032829Y0067142D01*
X0032892Y0067148D01*
X0032955Y0067150D01*
X0033983Y0067150D01*
X0033983Y0063450D01*
X0032683Y0059350D02*
X0031655Y0059350D01*
X0031592Y0059348D01*
X0031529Y0059342D01*
X0031466Y0059332D01*
X0031404Y0059319D01*
X0031343Y0059302D01*
X0031284Y0059281D01*
X0031225Y0059256D01*
X0031169Y0059228D01*
X0031114Y0059196D01*
X0031061Y0059161D01*
X0031011Y0059123D01*
X0030962Y0059082D01*
X0030917Y0059038D01*
X0030874Y0058991D01*
X0030835Y0058942D01*
X0030798Y0058890D01*
X0030765Y0058836D01*
X0030735Y0058780D01*
X0030708Y0058723D01*
X0030685Y0058664D01*
X0030666Y0058603D01*
X0030651Y0058542D01*
X0030639Y0058480D01*
X0030631Y0058417D01*
X0030627Y0058354D01*
X0030627Y0058290D01*
X0030631Y0058227D01*
X0030639Y0058164D01*
X0030651Y0058102D01*
X0030666Y0058041D01*
X0030685Y0057980D01*
X0030708Y0057921D01*
X0030735Y0057864D01*
X0030765Y0057808D01*
X0030798Y0057754D01*
X0030835Y0057702D01*
X0030874Y0057653D01*
X0030917Y0057606D01*
X0030962Y0057562D01*
X0031011Y0057521D01*
X0031061Y0057483D01*
X0031114Y0057448D01*
X0031169Y0057416D01*
X0031225Y0057388D01*
X0031284Y0057363D01*
X0031343Y0057342D01*
X0031404Y0057325D01*
X0031466Y0057312D01*
X0031529Y0057302D01*
X0031592Y0057296D01*
X0031655Y0057294D01*
X0032683Y0057294D01*
X0031450Y0057294D02*
X0030628Y0055650D01*
X0029106Y0055650D02*
X0027050Y0055650D01*
X0028078Y0055650D02*
X0028078Y0059350D01*
X0029106Y0058528D01*
X0032683Y0059350D02*
X0032683Y0055650D01*
X0011143Y0046426D02*
X0011143Y0026741D01*
X0011142Y0026741D02*
X0011135Y0026622D01*
X0011131Y0026503D01*
X0011132Y0026384D01*
X0011136Y0026264D01*
X0011145Y0026145D01*
X0011157Y0026027D01*
X0011173Y0025908D01*
X0011193Y0025791D01*
X0011216Y0025674D01*
X0011244Y0025558D01*
X0011275Y0025443D01*
X0011310Y0025329D01*
X0011349Y0025216D01*
X0011391Y0025104D01*
X0011437Y0024994D01*
X0011486Y0024886D01*
X0011539Y0024779D01*
X0011596Y0024674D01*
X0011655Y0024570D01*
X0011719Y0024469D01*
X0011785Y0024370D01*
X0011855Y0024273D01*
X0011927Y0024178D01*
X0012003Y0024086D01*
X0012082Y0023997D01*
X0012163Y0023910D01*
X0012248Y0023825D01*
X0012335Y0023744D01*
X0012424Y0023665D01*
X0012516Y0023589D01*
X0012611Y0023517D01*
X0012708Y0023447D01*
X0012807Y0023381D01*
X0012908Y0023317D01*
X0013012Y0023258D01*
X0013117Y0023201D01*
X0013224Y0023148D01*
X0013332Y0023099D01*
X0013442Y0023053D01*
X0013554Y0023011D01*
X0013667Y0022972D01*
X0013781Y0022937D01*
X0013896Y0022906D01*
X0014012Y0022878D01*
X0014129Y0022855D01*
X0014246Y0022835D01*
X0014365Y0022819D01*
X0014483Y0022807D01*
X0014602Y0022798D01*
X0014722Y0022794D01*
X0014841Y0022793D01*
X0014960Y0022797D01*
X0015079Y0022804D01*
X0014902Y0023833D02*
X0016958Y0023833D01*
X0015930Y0023833D02*
X0015930Y0027533D01*
X0016958Y0026711D01*
X0018382Y0027533D02*
X0020438Y0023833D01*
X0018382Y0023833D01*
X0021683Y0023833D02*
X0022505Y0023833D01*
X0022505Y0023834D02*
X0022561Y0023836D01*
X0022617Y0023842D01*
X0022672Y0023851D01*
X0022727Y0023864D01*
X0022780Y0023881D01*
X0022832Y0023902D01*
X0022883Y0023926D01*
X0022932Y0023954D01*
X0022979Y0023984D01*
X0023024Y0024018D01*
X0023066Y0024055D01*
X0023106Y0024095D01*
X0023143Y0024137D01*
X0023177Y0024182D01*
X0023207Y0024229D01*
X0023235Y0024278D01*
X0023259Y0024329D01*
X0023280Y0024381D01*
X0023297Y0024434D01*
X0023310Y0024489D01*
X0023319Y0024544D01*
X0023325Y0024600D01*
X0023327Y0024656D01*
X0023328Y0024656D02*
X0023328Y0026711D01*
X0023327Y0026711D02*
X0023325Y0026767D01*
X0023319Y0026823D01*
X0023310Y0026878D01*
X0023297Y0026933D01*
X0023280Y0026986D01*
X0023259Y0027038D01*
X0023235Y0027089D01*
X0023207Y0027138D01*
X0023177Y0027185D01*
X0023143Y0027230D01*
X0023106Y0027272D01*
X0023066Y0027312D01*
X0023024Y0027349D01*
X0022979Y0027383D01*
X0022932Y0027413D01*
X0022883Y0027441D01*
X0022832Y0027465D01*
X0022780Y0027486D01*
X0022727Y0027503D01*
X0022672Y0027516D01*
X0022617Y0027525D01*
X0022561Y0027531D01*
X0022505Y0027533D01*
X0021683Y0027533D01*
X0020438Y0027533D02*
X0018382Y0027533D01*
X0037914Y0043670D02*
X0037899Y0043896D01*
X0037890Y0044122D01*
X0037886Y0044348D01*
X0037888Y0044574D01*
X0037895Y0044800D01*
X0037907Y0045025D01*
X0037925Y0045251D01*
X0037949Y0045475D01*
X0037977Y0045700D01*
X0038011Y0045923D01*
X0038051Y0046146D01*
X0038096Y0046367D01*
X0038146Y0046588D01*
X0038201Y0046807D01*
X0038262Y0047024D01*
X0038328Y0047241D01*
X0038399Y0047455D01*
X0038475Y0047668D01*
X0038556Y0047879D01*
X0038642Y0048088D01*
X0038733Y0048295D01*
X0038830Y0048499D01*
X0038931Y0048702D01*
X0039037Y0048901D01*
X0039147Y0049098D01*
X0039263Y0049293D01*
X0039383Y0049484D01*
X0039507Y0049673D01*
X0039636Y0049858D01*
X0039770Y0050041D01*
X0039908Y0050220D01*
X0040050Y0050396D01*
X0040196Y0050568D01*
X0040346Y0050737D01*
X0040501Y0050902D01*
X0040659Y0051063D01*
X0040821Y0051221D01*
X0040987Y0051374D01*
X0041157Y0051524D01*
X0041330Y0051669D01*
X0041506Y0051810D01*
X0041686Y0051947D01*
X0041869Y0052080D01*
X0042055Y0052208D01*
X0042244Y0052332D01*
X0059367Y0065350D02*
X0059367Y0066994D01*
X0058750Y0066172D02*
X0060806Y0066172D01*
X0059983Y0069050D01*
X0063378Y0069050D02*
X0064406Y0068228D01*
X0063378Y0069050D02*
X0063378Y0065350D01*
X0064406Y0065350D02*
X0062350Y0065350D01*
X0065928Y0065350D02*
X0066750Y0066994D01*
X0066955Y0066994D02*
X0067983Y0066994D01*
X0066955Y0066994D02*
X0066892Y0066996D01*
X0066829Y0067002D01*
X0066766Y0067012D01*
X0066704Y0067025D01*
X0066643Y0067042D01*
X0066584Y0067063D01*
X0066525Y0067088D01*
X0066469Y0067116D01*
X0066414Y0067148D01*
X0066361Y0067183D01*
X0066311Y0067221D01*
X0066262Y0067262D01*
X0066217Y0067306D01*
X0066174Y0067353D01*
X0066135Y0067402D01*
X0066098Y0067454D01*
X0066065Y0067508D01*
X0066035Y0067564D01*
X0066008Y0067621D01*
X0065985Y0067680D01*
X0065966Y0067741D01*
X0065951Y0067802D01*
X0065939Y0067864D01*
X0065931Y0067927D01*
X0065927Y0067990D01*
X0065927Y0068054D01*
X0065931Y0068117D01*
X0065939Y0068180D01*
X0065951Y0068242D01*
X0065966Y0068303D01*
X0065985Y0068364D01*
X0066008Y0068423D01*
X0066035Y0068480D01*
X0066065Y0068536D01*
X0066098Y0068590D01*
X0066135Y0068642D01*
X0066174Y0068691D01*
X0066217Y0068738D01*
X0066262Y0068782D01*
X0066311Y0068823D01*
X0066361Y0068861D01*
X0066414Y0068896D01*
X0066469Y0068928D01*
X0066525Y0068956D01*
X0066584Y0068981D01*
X0066643Y0069002D01*
X0066704Y0069019D01*
X0066766Y0069032D01*
X0066829Y0069042D01*
X0066892Y0069048D01*
X0066955Y0069050D01*
X0067983Y0069050D01*
X0067983Y0065350D01*
X0090450Y0075172D02*
X0090450Y0075583D01*
X0090452Y0075639D01*
X0090458Y0075695D01*
X0090467Y0075750D01*
X0090480Y0075805D01*
X0090497Y0075858D01*
X0090518Y0075910D01*
X0090542Y0075961D01*
X0090570Y0076010D01*
X0090600Y0076057D01*
X0090634Y0076102D01*
X0090671Y0076144D01*
X0090711Y0076184D01*
X0090753Y0076221D01*
X0090798Y0076255D01*
X0090845Y0076285D01*
X0090894Y0076313D01*
X0090945Y0076337D01*
X0090997Y0076358D01*
X0091050Y0076375D01*
X0091105Y0076388D01*
X0091160Y0076397D01*
X0091216Y0076403D01*
X0091272Y0076405D01*
X0091272Y0076406D02*
X0092506Y0076406D01*
X0092506Y0078050D01*
X0090450Y0078050D01*
X0095078Y0078050D02*
X0095078Y0074350D01*
X0096106Y0074350D02*
X0094050Y0074350D01*
X0092506Y0074350D02*
X0091272Y0074350D01*
X0091216Y0074352D01*
X0091160Y0074358D01*
X0091105Y0074367D01*
X0091050Y0074380D01*
X0090997Y0074397D01*
X0090945Y0074418D01*
X0090894Y0074442D01*
X0090845Y0074470D01*
X0090798Y0074500D01*
X0090753Y0074534D01*
X0090711Y0074571D01*
X0090671Y0074611D01*
X0090634Y0074653D01*
X0090600Y0074698D01*
X0090570Y0074745D01*
X0090542Y0074794D01*
X0090518Y0074845D01*
X0090497Y0074897D01*
X0090480Y0074950D01*
X0090467Y0075005D01*
X0090458Y0075060D01*
X0090452Y0075116D01*
X0090450Y0075172D01*
X0095078Y0078050D02*
X0096106Y0077228D01*
X0098655Y0078050D02*
X0098592Y0078048D01*
X0098529Y0078042D01*
X0098466Y0078032D01*
X0098404Y0078019D01*
X0098343Y0078002D01*
X0098284Y0077981D01*
X0098225Y0077956D01*
X0098169Y0077928D01*
X0098114Y0077896D01*
X0098061Y0077861D01*
X0098011Y0077823D01*
X0097962Y0077782D01*
X0097917Y0077738D01*
X0097874Y0077691D01*
X0097835Y0077642D01*
X0097798Y0077590D01*
X0097765Y0077536D01*
X0097735Y0077480D01*
X0097708Y0077423D01*
X0097685Y0077364D01*
X0097666Y0077303D01*
X0097651Y0077242D01*
X0097639Y0077180D01*
X0097631Y0077117D01*
X0097627Y0077054D01*
X0097627Y0076990D01*
X0097631Y0076927D01*
X0097639Y0076864D01*
X0097651Y0076802D01*
X0097666Y0076741D01*
X0097685Y0076680D01*
X0097708Y0076621D01*
X0097735Y0076564D01*
X0097765Y0076508D01*
X0097798Y0076454D01*
X0097835Y0076402D01*
X0097874Y0076353D01*
X0097917Y0076306D01*
X0097962Y0076262D01*
X0098011Y0076221D01*
X0098061Y0076183D01*
X0098114Y0076148D01*
X0098169Y0076116D01*
X0098225Y0076088D01*
X0098284Y0076063D01*
X0098343Y0076042D01*
X0098404Y0076025D01*
X0098466Y0076012D01*
X0098529Y0076002D01*
X0098592Y0075996D01*
X0098655Y0075994D01*
X0099683Y0075994D01*
X0098450Y0075994D02*
X0097628Y0074350D01*
X0099683Y0074350D02*
X0099683Y0078050D01*
X0098655Y0078050D01*
X0123917Y0080578D02*
X0123917Y0080783D01*
X0123919Y0080839D01*
X0123925Y0080895D01*
X0123934Y0080950D01*
X0123947Y0081005D01*
X0123964Y0081058D01*
X0123985Y0081110D01*
X0124009Y0081161D01*
X0124037Y0081210D01*
X0124067Y0081257D01*
X0124101Y0081302D01*
X0124138Y0081344D01*
X0124178Y0081384D01*
X0124220Y0081421D01*
X0124265Y0081455D01*
X0124312Y0081485D01*
X0124361Y0081513D01*
X0124412Y0081537D01*
X0124464Y0081558D01*
X0124517Y0081575D01*
X0124572Y0081588D01*
X0124627Y0081597D01*
X0124683Y0081603D01*
X0124739Y0081605D01*
X0124739Y0081606D02*
X0125972Y0081606D01*
X0125972Y0080578D01*
X0125973Y0080578D02*
X0125971Y0080515D01*
X0125965Y0080452D01*
X0125955Y0080389D01*
X0125942Y0080327D01*
X0125925Y0080266D01*
X0125904Y0080207D01*
X0125879Y0080148D01*
X0125851Y0080092D01*
X0125819Y0080037D01*
X0125784Y0079984D01*
X0125746Y0079934D01*
X0125705Y0079885D01*
X0125661Y0079840D01*
X0125614Y0079797D01*
X0125565Y0079758D01*
X0125513Y0079721D01*
X0125459Y0079688D01*
X0125403Y0079658D01*
X0125346Y0079631D01*
X0125287Y0079608D01*
X0125226Y0079589D01*
X0125165Y0079574D01*
X0125103Y0079562D01*
X0125040Y0079554D01*
X0124977Y0079550D01*
X0124913Y0079550D01*
X0124850Y0079554D01*
X0124787Y0079562D01*
X0124725Y0079574D01*
X0124664Y0079589D01*
X0124603Y0079608D01*
X0124544Y0079631D01*
X0124487Y0079658D01*
X0124431Y0079688D01*
X0124377Y0079721D01*
X0124325Y0079758D01*
X0124276Y0079797D01*
X0124229Y0079840D01*
X0124185Y0079885D01*
X0124144Y0079934D01*
X0124106Y0079984D01*
X0124071Y0080037D01*
X0124039Y0080092D01*
X0124011Y0080148D01*
X0123986Y0080207D01*
X0123965Y0080266D01*
X0123948Y0080327D01*
X0123935Y0080389D01*
X0123925Y0080452D01*
X0123919Y0080515D01*
X0123917Y0080578D01*
X0125972Y0081606D02*
X0125970Y0081684D01*
X0125965Y0081762D01*
X0125955Y0081840D01*
X0125942Y0081917D01*
X0125926Y0081994D01*
X0125905Y0082069D01*
X0125882Y0082144D01*
X0125854Y0082217D01*
X0125823Y0082289D01*
X0125789Y0082359D01*
X0125752Y0082428D01*
X0125711Y0082495D01*
X0125667Y0082560D01*
X0125620Y0082622D01*
X0125570Y0082683D01*
X0125518Y0082740D01*
X0125462Y0082796D01*
X0125405Y0082848D01*
X0125344Y0082898D01*
X0125282Y0082945D01*
X0125217Y0082989D01*
X0125150Y0083030D01*
X0125081Y0083067D01*
X0125011Y0083101D01*
X0124939Y0083132D01*
X0124866Y0083160D01*
X0124791Y0083183D01*
X0124716Y0083204D01*
X0124639Y0083220D01*
X0124562Y0083233D01*
X0124484Y0083243D01*
X0124406Y0083248D01*
X0124328Y0083250D01*
X0128545Y0083250D02*
X0129572Y0082428D01*
X0128545Y0083250D02*
X0128545Y0079550D01*
X0129572Y0079550D02*
X0127517Y0079550D01*
X0131094Y0079550D02*
X0131917Y0081194D01*
X0132122Y0081194D02*
X0133150Y0081194D01*
X0132122Y0081194D02*
X0132059Y0081196D01*
X0131996Y0081202D01*
X0131933Y0081212D01*
X0131871Y0081225D01*
X0131810Y0081242D01*
X0131751Y0081263D01*
X0131692Y0081288D01*
X0131636Y0081316D01*
X0131581Y0081348D01*
X0131528Y0081383D01*
X0131478Y0081421D01*
X0131429Y0081462D01*
X0131384Y0081506D01*
X0131341Y0081553D01*
X0131302Y0081602D01*
X0131265Y0081654D01*
X0131232Y0081708D01*
X0131202Y0081764D01*
X0131175Y0081821D01*
X0131152Y0081880D01*
X0131133Y0081941D01*
X0131118Y0082002D01*
X0131106Y0082064D01*
X0131098Y0082127D01*
X0131094Y0082190D01*
X0131094Y0082254D01*
X0131098Y0082317D01*
X0131106Y0082380D01*
X0131118Y0082442D01*
X0131133Y0082503D01*
X0131152Y0082564D01*
X0131175Y0082623D01*
X0131202Y0082680D01*
X0131232Y0082736D01*
X0131265Y0082790D01*
X0131302Y0082842D01*
X0131341Y0082891D01*
X0131384Y0082938D01*
X0131429Y0082982D01*
X0131478Y0083023D01*
X0131528Y0083061D01*
X0131581Y0083096D01*
X0131636Y0083128D01*
X0131692Y0083156D01*
X0131751Y0083181D01*
X0131810Y0083202D01*
X0131871Y0083219D01*
X0131933Y0083232D01*
X0131996Y0083242D01*
X0132059Y0083248D01*
X0132122Y0083250D01*
X0133150Y0083250D01*
X0133150Y0079550D01*
X0128072Y0075954D02*
X0128224Y0075952D01*
X0128376Y0075946D01*
X0128528Y0075936D01*
X0128679Y0075923D01*
X0128830Y0075905D01*
X0128981Y0075884D01*
X0129131Y0075858D01*
X0129280Y0075829D01*
X0129429Y0075796D01*
X0129576Y0075759D01*
X0129723Y0075719D01*
X0129868Y0075674D01*
X0130012Y0075626D01*
X0130155Y0075574D01*
X0130297Y0075519D01*
X0130437Y0075460D01*
X0130576Y0075397D01*
X0130713Y0075331D01*
X0130848Y0075261D01*
X0130981Y0075188D01*
X0131112Y0075111D01*
X0131242Y0075031D01*
X0131369Y0074948D01*
X0131494Y0074862D01*
X0131617Y0074772D01*
X0131737Y0074679D01*
X0131855Y0074583D01*
X0131971Y0074484D01*
X0132084Y0074382D01*
X0132194Y0074278D01*
X0132302Y0074170D01*
X0132406Y0074060D01*
X0132508Y0073947D01*
X0132607Y0073831D01*
X0132703Y0073713D01*
X0132796Y0073593D01*
X0132886Y0073470D01*
X0132972Y0073345D01*
X0133055Y0073218D01*
X0133135Y0073088D01*
X0133212Y0072957D01*
X0133285Y0072824D01*
X0133355Y0072689D01*
X0133421Y0072552D01*
X0133484Y0072413D01*
X0133543Y0072273D01*
X0133598Y0072131D01*
X0133650Y0071988D01*
X0133698Y0071844D01*
X0133743Y0071699D01*
X0133783Y0071552D01*
X0133820Y0071405D01*
X0133853Y0071256D01*
X0133882Y0071107D01*
X0133908Y0070957D01*
X0133929Y0070806D01*
X0133947Y0070655D01*
X0133960Y0070504D01*
X0133970Y0070352D01*
X0133976Y0070200D01*
X0133978Y0070048D01*
X0133977Y0070048D02*
X0133970Y0069848D01*
X0133968Y0069648D01*
X0133971Y0069448D01*
X0133978Y0069248D01*
X0133990Y0069048D01*
X0134007Y0068849D01*
X0134029Y0068650D01*
X0134056Y0068452D01*
X0134087Y0068254D01*
X0134123Y0068058D01*
X0134164Y0067862D01*
X0134210Y0067667D01*
X0134260Y0067474D01*
X0134315Y0067281D01*
X0134375Y0067090D01*
X0134439Y0066901D01*
X0134508Y0066713D01*
X0134581Y0066527D01*
X0134659Y0066343D01*
X0134741Y0066160D01*
X0134828Y0065980D01*
X0134919Y0065802D01*
X0135014Y0065626D01*
X0135114Y0065453D01*
X0135217Y0065281D01*
X0135325Y0065113D01*
X0135437Y0064947D01*
X0135552Y0064784D01*
X0135672Y0064624D01*
X0135796Y0064466D01*
X0135923Y0064312D01*
X0136054Y0064161D01*
X0136188Y0064013D01*
X0136326Y0063868D01*
X0136468Y0063727D01*
X0136613Y0063589D01*
X0136761Y0063454D01*
X0136912Y0063324D01*
X0137067Y0063197D01*
X0137224Y0063074D01*
X0137385Y0062954D01*
X0137548Y0062839D01*
X0137714Y0062727D01*
X0137883Y0062620D01*
X0138054Y0062516D01*
X0138228Y0062417D01*
X0138404Y0062322D01*
X0138582Y0062232D01*
X0138763Y0062145D01*
X0138945Y0062063D01*
X0139130Y0061986D01*
X0139316Y0061913D01*
X0139504Y0061844D01*
X0139693Y0061780D01*
X0139884Y0061721D01*
X0140077Y0061666D01*
X0140270Y0061616D01*
X0140465Y0061571D01*
X0140661Y0061530D01*
X0140858Y0061494D01*
X0141055Y0061463D01*
X0141253Y0061437D01*
X0141452Y0061415D01*
X0141652Y0061398D01*
X0141851Y0061386D01*
X0141851Y0061387D02*
X0254450Y0061387D01*
X0254450Y0061386D02*
X0254650Y0061398D01*
X0254849Y0061415D01*
X0255048Y0061437D01*
X0255246Y0061463D01*
X0255444Y0061494D01*
X0255641Y0061530D01*
X0255836Y0061571D01*
X0256031Y0061616D01*
X0256225Y0061666D01*
X0256417Y0061721D01*
X0256608Y0061780D01*
X0256798Y0061844D01*
X0256986Y0061913D01*
X0257172Y0061986D01*
X0257356Y0062063D01*
X0257539Y0062145D01*
X0257719Y0062232D01*
X0257897Y0062322D01*
X0258073Y0062417D01*
X0258247Y0062517D01*
X0258418Y0062620D01*
X0258587Y0062727D01*
X0258753Y0062839D01*
X0258916Y0062954D01*
X0259077Y0063074D01*
X0259234Y0063197D01*
X0259389Y0063324D01*
X0259540Y0063455D01*
X0259689Y0063589D01*
X0259833Y0063727D01*
X0259975Y0063868D01*
X0260113Y0064013D01*
X0260248Y0064161D01*
X0260379Y0064312D01*
X0260506Y0064467D01*
X0260629Y0064624D01*
X0260749Y0064784D01*
X0260865Y0064947D01*
X0260976Y0065113D01*
X0261084Y0065282D01*
X0261188Y0065453D01*
X0261287Y0065626D01*
X0261382Y0065802D01*
X0261473Y0065981D01*
X0261560Y0066161D01*
X0261642Y0066343D01*
X0261720Y0066527D01*
X0261793Y0066714D01*
X0261862Y0066901D01*
X0261926Y0067091D01*
X0261986Y0067282D01*
X0262041Y0067474D01*
X0262091Y0067668D01*
X0262137Y0067862D01*
X0262178Y0068058D01*
X0262214Y0068255D01*
X0262245Y0068452D01*
X0262272Y0068651D01*
X0262294Y0068849D01*
X0262311Y0069049D01*
X0262323Y0069248D01*
X0262330Y0069448D01*
X0262333Y0069648D01*
X0262331Y0069848D01*
X0262324Y0070048D01*
X0262323Y0070048D02*
X0262325Y0070200D01*
X0262331Y0070352D01*
X0262341Y0070504D01*
X0262354Y0070656D01*
X0262372Y0070807D01*
X0262393Y0070957D01*
X0262419Y0071107D01*
X0262448Y0071256D01*
X0262481Y0071405D01*
X0262518Y0071552D01*
X0262558Y0071699D01*
X0262603Y0071844D01*
X0262651Y0071989D01*
X0262703Y0072132D01*
X0262758Y0072273D01*
X0262817Y0072413D01*
X0262880Y0072552D01*
X0262946Y0072689D01*
X0263016Y0072824D01*
X0263089Y0072957D01*
X0263166Y0073089D01*
X0263246Y0073218D01*
X0263329Y0073345D01*
X0263416Y0073470D01*
X0263505Y0073593D01*
X0263598Y0073714D01*
X0263694Y0073832D01*
X0263793Y0073947D01*
X0263895Y0074060D01*
X0264000Y0074170D01*
X0264107Y0074278D01*
X0264218Y0074383D01*
X0264330Y0074484D01*
X0264446Y0074583D01*
X0264564Y0074679D01*
X0264684Y0074772D01*
X0264807Y0074862D01*
X0264932Y0074948D01*
X0265060Y0075032D01*
X0265189Y0075112D01*
X0265320Y0075188D01*
X0265454Y0075261D01*
X0265589Y0075331D01*
X0265726Y0075397D01*
X0265864Y0075460D01*
X0266004Y0075519D01*
X0266146Y0075574D01*
X0266289Y0075626D01*
X0266433Y0075674D01*
X0266579Y0075719D01*
X0266725Y0075759D01*
X0266873Y0075796D01*
X0267021Y0075829D01*
X0267171Y0075858D01*
X0267321Y0075884D01*
X0267471Y0075905D01*
X0267622Y0075923D01*
X0267774Y0075936D01*
X0267925Y0075946D01*
X0268077Y0075952D01*
X0268229Y0075954D01*
X0250350Y0080950D02*
X0250350Y0081978D01*
X0250348Y0082041D01*
X0250342Y0082104D01*
X0250332Y0082167D01*
X0250319Y0082229D01*
X0250302Y0082290D01*
X0250281Y0082349D01*
X0250256Y0082408D01*
X0250228Y0082464D01*
X0250196Y0082519D01*
X0250161Y0082572D01*
X0250123Y0082622D01*
X0250082Y0082671D01*
X0250038Y0082716D01*
X0249991Y0082759D01*
X0249942Y0082798D01*
X0249890Y0082835D01*
X0249836Y0082868D01*
X0249780Y0082898D01*
X0249723Y0082925D01*
X0249664Y0082948D01*
X0249603Y0082967D01*
X0249542Y0082982D01*
X0249480Y0082994D01*
X0249417Y0083002D01*
X0249354Y0083006D01*
X0249290Y0083006D01*
X0249227Y0083002D01*
X0249164Y0082994D01*
X0249102Y0082982D01*
X0249041Y0082967D01*
X0248980Y0082948D01*
X0248921Y0082925D01*
X0248864Y0082898D01*
X0248808Y0082868D01*
X0248754Y0082835D01*
X0248702Y0082798D01*
X0248653Y0082759D01*
X0248606Y0082716D01*
X0248562Y0082671D01*
X0248521Y0082622D01*
X0248483Y0082572D01*
X0248448Y0082519D01*
X0248416Y0082464D01*
X0248388Y0082408D01*
X0248363Y0082349D01*
X0248342Y0082290D01*
X0248325Y0082229D01*
X0248312Y0082167D01*
X0248302Y0082104D01*
X0248296Y0082041D01*
X0248294Y0081978D01*
X0248294Y0080950D01*
X0248294Y0082183D02*
X0246650Y0083006D01*
X0246650Y0084528D02*
X0246650Y0086583D01*
X0247164Y0089875D02*
X0247260Y0089920D01*
X0247358Y0089961D01*
X0247458Y0089999D01*
X0247558Y0090034D01*
X0247660Y0090065D01*
X0247763Y0090093D01*
X0247866Y0090116D01*
X0247971Y0090137D01*
X0248076Y0090153D01*
X0248181Y0090166D01*
X0248287Y0090176D01*
X0248394Y0090181D01*
X0248500Y0090183D01*
X0248500Y0088128D02*
X0248606Y0088130D01*
X0248713Y0088135D01*
X0248819Y0088145D01*
X0248924Y0088158D01*
X0249029Y0088174D01*
X0249134Y0088195D01*
X0249237Y0088218D01*
X0249340Y0088246D01*
X0249442Y0088277D01*
X0249542Y0088312D01*
X0249642Y0088350D01*
X0249740Y0088391D01*
X0249836Y0088436D01*
X0250350Y0089155D02*
X0250348Y0089207D01*
X0250343Y0089260D01*
X0250334Y0089311D01*
X0250321Y0089362D01*
X0250305Y0089412D01*
X0250286Y0089461D01*
X0250263Y0089508D01*
X0250237Y0089554D01*
X0250208Y0089597D01*
X0250176Y0089639D01*
X0250142Y0089678D01*
X0250104Y0089715D01*
X0250064Y0089749D01*
X0250022Y0089781D01*
X0249978Y0089809D01*
X0249932Y0089834D01*
X0249885Y0089856D01*
X0249836Y0089875D01*
X0249528Y0089978D02*
X0247472Y0088333D01*
X0246650Y0089155D02*
X0246652Y0089207D01*
X0246657Y0089260D01*
X0246666Y0089311D01*
X0246679Y0089362D01*
X0246695Y0089412D01*
X0246714Y0089461D01*
X0246737Y0089508D01*
X0246763Y0089554D01*
X0246792Y0089597D01*
X0246824Y0089639D01*
X0246858Y0089678D01*
X0246896Y0089715D01*
X0246936Y0089749D01*
X0246978Y0089781D01*
X0247022Y0089809D01*
X0247068Y0089834D01*
X0247115Y0089856D01*
X0247164Y0089875D01*
X0246650Y0089155D02*
X0246652Y0089103D01*
X0246657Y0089050D01*
X0246666Y0088999D01*
X0246679Y0088948D01*
X0246695Y0088898D01*
X0246714Y0088849D01*
X0246737Y0088802D01*
X0246763Y0088756D01*
X0246792Y0088713D01*
X0246824Y0088671D01*
X0246858Y0088632D01*
X0246896Y0088595D01*
X0246936Y0088561D01*
X0246978Y0088529D01*
X0247022Y0088501D01*
X0247068Y0088476D01*
X0247115Y0088454D01*
X0247164Y0088435D01*
X0248500Y0090183D02*
X0248606Y0090181D01*
X0248713Y0090176D01*
X0248819Y0090166D01*
X0248924Y0090153D01*
X0249029Y0090137D01*
X0249134Y0090116D01*
X0249237Y0090093D01*
X0249340Y0090065D01*
X0249442Y0090034D01*
X0249542Y0089999D01*
X0249642Y0089961D01*
X0249740Y0089920D01*
X0249836Y0089875D01*
X0250350Y0089155D02*
X0250348Y0089103D01*
X0250343Y0089050D01*
X0250334Y0088999D01*
X0250321Y0088948D01*
X0250305Y0088898D01*
X0250286Y0088849D01*
X0250263Y0088802D01*
X0250237Y0088756D01*
X0250208Y0088713D01*
X0250176Y0088671D01*
X0250142Y0088632D01*
X0250104Y0088595D01*
X0250064Y0088561D01*
X0250022Y0088529D01*
X0249978Y0088501D01*
X0249932Y0088476D01*
X0249885Y0088454D01*
X0249836Y0088435D01*
X0248706Y0086275D02*
X0246650Y0084528D01*
X0249528Y0084528D02*
X0249592Y0084551D01*
X0249655Y0084577D01*
X0249716Y0084607D01*
X0249775Y0084640D01*
X0249832Y0084677D01*
X0249887Y0084717D01*
X0249939Y0084760D01*
X0249989Y0084806D01*
X0250037Y0084854D01*
X0250081Y0084906D01*
X0250123Y0084959D01*
X0250161Y0085015D01*
X0250196Y0085073D01*
X0250228Y0085133D01*
X0250256Y0085195D01*
X0250281Y0085258D01*
X0250302Y0085323D01*
X0250319Y0085389D01*
X0250333Y0085455D01*
X0250342Y0085522D01*
X0250348Y0085590D01*
X0250350Y0085658D01*
X0250348Y0085716D01*
X0250343Y0085774D01*
X0250334Y0085831D01*
X0250321Y0085888D01*
X0250305Y0085944D01*
X0250285Y0085999D01*
X0250262Y0086052D01*
X0250236Y0086104D01*
X0250206Y0086154D01*
X0250173Y0086202D01*
X0250138Y0086248D01*
X0250099Y0086291D01*
X0250058Y0086332D01*
X0250015Y0086371D01*
X0249969Y0086406D01*
X0249921Y0086439D01*
X0249871Y0086469D01*
X0249819Y0086495D01*
X0249766Y0086518D01*
X0249711Y0086538D01*
X0249655Y0086554D01*
X0249598Y0086567D01*
X0249541Y0086576D01*
X0249483Y0086581D01*
X0249425Y0086583D01*
X0249425Y0086584D02*
X0249363Y0086582D01*
X0249301Y0086576D01*
X0249240Y0086567D01*
X0249180Y0086553D01*
X0249120Y0086536D01*
X0249062Y0086515D01*
X0249005Y0086491D01*
X0248950Y0086463D01*
X0248896Y0086432D01*
X0248845Y0086397D01*
X0248796Y0086360D01*
X0248749Y0086319D01*
X0248705Y0086276D01*
X0248500Y0088128D02*
X0248394Y0088130D01*
X0248287Y0088135D01*
X0248181Y0088145D01*
X0248076Y0088158D01*
X0247971Y0088174D01*
X0247866Y0088195D01*
X0247763Y0088218D01*
X0247660Y0088246D01*
X0247558Y0088277D01*
X0247458Y0088312D01*
X0247358Y0088350D01*
X0247260Y0088391D01*
X0247164Y0088436D01*
X0235250Y0085550D02*
X0234222Y0085550D01*
X0234159Y0085548D01*
X0234096Y0085542D01*
X0234033Y0085532D01*
X0233971Y0085519D01*
X0233910Y0085502D01*
X0233851Y0085481D01*
X0233792Y0085456D01*
X0233736Y0085428D01*
X0233681Y0085396D01*
X0233628Y0085361D01*
X0233578Y0085323D01*
X0233529Y0085282D01*
X0233484Y0085238D01*
X0233441Y0085191D01*
X0233402Y0085142D01*
X0233365Y0085090D01*
X0233332Y0085036D01*
X0233302Y0084980D01*
X0233275Y0084923D01*
X0233252Y0084864D01*
X0233233Y0084803D01*
X0233218Y0084742D01*
X0233206Y0084680D01*
X0233198Y0084617D01*
X0233194Y0084554D01*
X0233194Y0084490D01*
X0233198Y0084427D01*
X0233206Y0084364D01*
X0233218Y0084302D01*
X0233233Y0084241D01*
X0233252Y0084180D01*
X0233275Y0084121D01*
X0233302Y0084064D01*
X0233332Y0084008D01*
X0233365Y0083954D01*
X0233402Y0083902D01*
X0233441Y0083853D01*
X0233484Y0083806D01*
X0233529Y0083762D01*
X0233578Y0083721D01*
X0233628Y0083683D01*
X0233681Y0083648D01*
X0233736Y0083616D01*
X0233792Y0083588D01*
X0233851Y0083563D01*
X0233910Y0083542D01*
X0233971Y0083525D01*
X0234033Y0083512D01*
X0234096Y0083502D01*
X0234159Y0083496D01*
X0234222Y0083494D01*
X0235250Y0083494D01*
X0234017Y0083494D02*
X0233194Y0081850D01*
X0235250Y0081850D02*
X0235250Y0085550D01*
X0231467Y0084728D02*
X0231465Y0084672D01*
X0231459Y0084616D01*
X0231450Y0084561D01*
X0231437Y0084506D01*
X0231420Y0084453D01*
X0231399Y0084401D01*
X0231375Y0084350D01*
X0231347Y0084301D01*
X0231317Y0084254D01*
X0231283Y0084209D01*
X0231246Y0084167D01*
X0231206Y0084127D01*
X0231164Y0084090D01*
X0231119Y0084056D01*
X0231072Y0084026D01*
X0231023Y0083998D01*
X0230972Y0083974D01*
X0230920Y0083953D01*
X0230867Y0083936D01*
X0230812Y0083923D01*
X0230757Y0083914D01*
X0230701Y0083908D01*
X0230645Y0083906D01*
X0230589Y0083908D01*
X0230533Y0083914D01*
X0230478Y0083923D01*
X0230423Y0083936D01*
X0230370Y0083953D01*
X0230318Y0083974D01*
X0230267Y0083998D01*
X0230218Y0084026D01*
X0230171Y0084056D01*
X0230126Y0084090D01*
X0230084Y0084127D01*
X0230044Y0084167D01*
X0230007Y0084209D01*
X0229973Y0084254D01*
X0229943Y0084301D01*
X0229915Y0084350D01*
X0229891Y0084401D01*
X0229870Y0084453D01*
X0229853Y0084506D01*
X0229840Y0084561D01*
X0229831Y0084616D01*
X0229825Y0084672D01*
X0229823Y0084728D01*
X0229825Y0084784D01*
X0229831Y0084840D01*
X0229840Y0084895D01*
X0229853Y0084950D01*
X0229870Y0085003D01*
X0229891Y0085055D01*
X0229915Y0085106D01*
X0229943Y0085155D01*
X0229973Y0085202D01*
X0230007Y0085247D01*
X0230044Y0085289D01*
X0230084Y0085329D01*
X0230126Y0085366D01*
X0230171Y0085400D01*
X0230218Y0085430D01*
X0230267Y0085458D01*
X0230318Y0085482D01*
X0230370Y0085503D01*
X0230423Y0085520D01*
X0230478Y0085533D01*
X0230533Y0085542D01*
X0230589Y0085548D01*
X0230645Y0085550D01*
X0230701Y0085548D01*
X0230757Y0085542D01*
X0230812Y0085533D01*
X0230867Y0085520D01*
X0230920Y0085503D01*
X0230972Y0085482D01*
X0231023Y0085458D01*
X0231072Y0085430D01*
X0231119Y0085400D01*
X0231164Y0085366D01*
X0231206Y0085329D01*
X0231246Y0085289D01*
X0231283Y0085247D01*
X0231317Y0085202D01*
X0231347Y0085155D01*
X0231375Y0085106D01*
X0231399Y0085055D01*
X0231420Y0085003D01*
X0231437Y0084950D01*
X0231450Y0084895D01*
X0231459Y0084840D01*
X0231465Y0084784D01*
X0231467Y0084728D01*
X0231673Y0082878D02*
X0231671Y0082815D01*
X0231665Y0082752D01*
X0231655Y0082689D01*
X0231642Y0082627D01*
X0231625Y0082566D01*
X0231604Y0082507D01*
X0231579Y0082448D01*
X0231551Y0082392D01*
X0231519Y0082337D01*
X0231484Y0082284D01*
X0231446Y0082234D01*
X0231405Y0082185D01*
X0231361Y0082140D01*
X0231314Y0082097D01*
X0231265Y0082058D01*
X0231213Y0082021D01*
X0231159Y0081988D01*
X0231103Y0081958D01*
X0231046Y0081931D01*
X0230987Y0081908D01*
X0230926Y0081889D01*
X0230865Y0081874D01*
X0230803Y0081862D01*
X0230740Y0081854D01*
X0230677Y0081850D01*
X0230613Y0081850D01*
X0230550Y0081854D01*
X0230487Y0081862D01*
X0230425Y0081874D01*
X0230364Y0081889D01*
X0230303Y0081908D01*
X0230244Y0081931D01*
X0230187Y0081958D01*
X0230131Y0081988D01*
X0230077Y0082021D01*
X0230025Y0082058D01*
X0229976Y0082097D01*
X0229929Y0082140D01*
X0229885Y0082185D01*
X0229844Y0082234D01*
X0229806Y0082284D01*
X0229771Y0082337D01*
X0229739Y0082392D01*
X0229711Y0082448D01*
X0229686Y0082507D01*
X0229665Y0082566D01*
X0229648Y0082627D01*
X0229635Y0082689D01*
X0229625Y0082752D01*
X0229619Y0082815D01*
X0229617Y0082878D01*
X0229619Y0082941D01*
X0229625Y0083004D01*
X0229635Y0083067D01*
X0229648Y0083129D01*
X0229665Y0083190D01*
X0229686Y0083249D01*
X0229711Y0083308D01*
X0229739Y0083364D01*
X0229771Y0083419D01*
X0229806Y0083472D01*
X0229844Y0083522D01*
X0229885Y0083571D01*
X0229929Y0083616D01*
X0229976Y0083659D01*
X0230025Y0083698D01*
X0230077Y0083735D01*
X0230131Y0083768D01*
X0230187Y0083798D01*
X0230244Y0083825D01*
X0230303Y0083848D01*
X0230364Y0083867D01*
X0230425Y0083882D01*
X0230487Y0083894D01*
X0230550Y0083902D01*
X0230613Y0083906D01*
X0230677Y0083906D01*
X0230740Y0083902D01*
X0230803Y0083894D01*
X0230865Y0083882D01*
X0230926Y0083867D01*
X0230987Y0083848D01*
X0231046Y0083825D01*
X0231103Y0083798D01*
X0231159Y0083768D01*
X0231213Y0083735D01*
X0231265Y0083698D01*
X0231314Y0083659D01*
X0231361Y0083616D01*
X0231405Y0083571D01*
X0231446Y0083522D01*
X0231484Y0083472D01*
X0231519Y0083419D01*
X0231551Y0083364D01*
X0231579Y0083308D01*
X0231604Y0083249D01*
X0231625Y0083190D01*
X0231642Y0083129D01*
X0231655Y0083067D01*
X0231665Y0083004D01*
X0231671Y0082941D01*
X0231673Y0082878D01*
X0246650Y0080950D02*
X0250350Y0080950D01*
X0225783Y0088950D02*
X0225783Y0092650D01*
X0224755Y0092650D01*
X0224692Y0092648D01*
X0224629Y0092642D01*
X0224566Y0092632D01*
X0224504Y0092619D01*
X0224443Y0092602D01*
X0224384Y0092581D01*
X0224325Y0092556D01*
X0224269Y0092528D01*
X0224214Y0092496D01*
X0224161Y0092461D01*
X0224111Y0092423D01*
X0224062Y0092382D01*
X0224017Y0092338D01*
X0223974Y0092291D01*
X0223935Y0092242D01*
X0223898Y0092190D01*
X0223865Y0092136D01*
X0223835Y0092080D01*
X0223808Y0092023D01*
X0223785Y0091964D01*
X0223766Y0091903D01*
X0223751Y0091842D01*
X0223739Y0091780D01*
X0223731Y0091717D01*
X0223727Y0091654D01*
X0223727Y0091590D01*
X0223731Y0091527D01*
X0223739Y0091464D01*
X0223751Y0091402D01*
X0223766Y0091341D01*
X0223785Y0091280D01*
X0223808Y0091221D01*
X0223835Y0091164D01*
X0223865Y0091108D01*
X0223898Y0091054D01*
X0223935Y0091002D01*
X0223974Y0090953D01*
X0224017Y0090906D01*
X0224062Y0090862D01*
X0224111Y0090821D01*
X0224161Y0090783D01*
X0224214Y0090748D01*
X0224269Y0090716D01*
X0224325Y0090688D01*
X0224384Y0090663D01*
X0224443Y0090642D01*
X0224504Y0090625D01*
X0224566Y0090612D01*
X0224629Y0090602D01*
X0224692Y0090596D01*
X0224755Y0090594D01*
X0225783Y0090594D01*
X0224550Y0090594D02*
X0223728Y0088950D01*
X0222206Y0088950D02*
X0220150Y0088950D01*
X0221178Y0088950D02*
X0221178Y0092650D01*
X0222206Y0091828D01*
X0218606Y0091622D02*
X0218606Y0091417D01*
X0218605Y0091417D02*
X0218603Y0091361D01*
X0218597Y0091305D01*
X0218588Y0091250D01*
X0218575Y0091195D01*
X0218558Y0091142D01*
X0218537Y0091090D01*
X0218513Y0091039D01*
X0218485Y0090990D01*
X0218455Y0090943D01*
X0218421Y0090898D01*
X0218384Y0090856D01*
X0218344Y0090816D01*
X0218302Y0090779D01*
X0218257Y0090745D01*
X0218210Y0090715D01*
X0218161Y0090687D01*
X0218110Y0090663D01*
X0218058Y0090642D01*
X0218005Y0090625D01*
X0217950Y0090612D01*
X0217895Y0090603D01*
X0217839Y0090597D01*
X0217783Y0090595D01*
X0217783Y0090594D02*
X0216550Y0090594D01*
X0216550Y0091622D01*
X0216552Y0091685D01*
X0216558Y0091748D01*
X0216568Y0091811D01*
X0216581Y0091873D01*
X0216598Y0091934D01*
X0216619Y0091993D01*
X0216644Y0092052D01*
X0216672Y0092108D01*
X0216704Y0092163D01*
X0216739Y0092216D01*
X0216777Y0092266D01*
X0216818Y0092315D01*
X0216862Y0092360D01*
X0216909Y0092403D01*
X0216958Y0092442D01*
X0217010Y0092479D01*
X0217064Y0092512D01*
X0217120Y0092542D01*
X0217177Y0092569D01*
X0217236Y0092592D01*
X0217297Y0092611D01*
X0217358Y0092626D01*
X0217420Y0092638D01*
X0217483Y0092646D01*
X0217546Y0092650D01*
X0217610Y0092650D01*
X0217673Y0092646D01*
X0217736Y0092638D01*
X0217798Y0092626D01*
X0217859Y0092611D01*
X0217920Y0092592D01*
X0217979Y0092569D01*
X0218036Y0092542D01*
X0218092Y0092512D01*
X0218146Y0092479D01*
X0218198Y0092442D01*
X0218247Y0092403D01*
X0218294Y0092360D01*
X0218338Y0092315D01*
X0218379Y0092266D01*
X0218417Y0092216D01*
X0218452Y0092163D01*
X0218484Y0092108D01*
X0218512Y0092052D01*
X0218537Y0091993D01*
X0218558Y0091934D01*
X0218575Y0091873D01*
X0218588Y0091811D01*
X0218598Y0091748D01*
X0218604Y0091685D01*
X0218606Y0091622D01*
X0216550Y0090594D02*
X0216552Y0090516D01*
X0216557Y0090438D01*
X0216567Y0090360D01*
X0216580Y0090283D01*
X0216596Y0090206D01*
X0216617Y0090131D01*
X0216640Y0090056D01*
X0216668Y0089983D01*
X0216699Y0089911D01*
X0216733Y0089841D01*
X0216770Y0089772D01*
X0216811Y0089705D01*
X0216855Y0089640D01*
X0216902Y0089578D01*
X0216952Y0089517D01*
X0217004Y0089460D01*
X0217060Y0089404D01*
X0217117Y0089352D01*
X0217178Y0089302D01*
X0217240Y0089255D01*
X0217305Y0089211D01*
X0217372Y0089170D01*
X0217441Y0089133D01*
X0217511Y0089099D01*
X0217583Y0089068D01*
X0217656Y0089040D01*
X0217731Y0089017D01*
X0217806Y0088996D01*
X0217883Y0088980D01*
X0217960Y0088967D01*
X0218038Y0088957D01*
X0218116Y0088952D01*
X0218194Y0088950D01*
X0213650Y0080550D02*
X0212622Y0080550D01*
X0212559Y0080548D01*
X0212496Y0080542D01*
X0212433Y0080532D01*
X0212371Y0080519D01*
X0212310Y0080502D01*
X0212251Y0080481D01*
X0212192Y0080456D01*
X0212136Y0080428D01*
X0212081Y0080396D01*
X0212028Y0080361D01*
X0211978Y0080323D01*
X0211929Y0080282D01*
X0211884Y0080238D01*
X0211841Y0080191D01*
X0211802Y0080142D01*
X0211765Y0080090D01*
X0211732Y0080036D01*
X0211702Y0079980D01*
X0211675Y0079923D01*
X0211652Y0079864D01*
X0211633Y0079803D01*
X0211618Y0079742D01*
X0211606Y0079680D01*
X0211598Y0079617D01*
X0211594Y0079554D01*
X0211594Y0079490D01*
X0211598Y0079427D01*
X0211606Y0079364D01*
X0211618Y0079302D01*
X0211633Y0079241D01*
X0211652Y0079180D01*
X0211675Y0079121D01*
X0211702Y0079064D01*
X0211732Y0079008D01*
X0211765Y0078954D01*
X0211802Y0078902D01*
X0211841Y0078853D01*
X0211884Y0078806D01*
X0211929Y0078762D01*
X0211978Y0078721D01*
X0212028Y0078683D01*
X0212081Y0078648D01*
X0212136Y0078616D01*
X0212192Y0078588D01*
X0212251Y0078563D01*
X0212310Y0078542D01*
X0212371Y0078525D01*
X0212433Y0078512D01*
X0212496Y0078502D01*
X0212559Y0078496D01*
X0212622Y0078494D01*
X0213650Y0078494D01*
X0212417Y0078494D02*
X0211594Y0076850D01*
X0213650Y0076850D02*
X0213650Y0080550D01*
X0210072Y0080550D02*
X0208017Y0080550D01*
X0209045Y0076850D01*
X0210072Y0080139D02*
X0210072Y0080550D01*
X0190050Y0080650D02*
X0190050Y0076950D01*
X0188817Y0078594D02*
X0187994Y0076950D01*
X0186472Y0077978D02*
X0186472Y0079006D01*
X0185239Y0079006D01*
X0186472Y0079006D02*
X0186470Y0079084D01*
X0186465Y0079162D01*
X0186455Y0079240D01*
X0186442Y0079317D01*
X0186426Y0079394D01*
X0186405Y0079469D01*
X0186382Y0079544D01*
X0186354Y0079617D01*
X0186323Y0079689D01*
X0186289Y0079759D01*
X0186252Y0079828D01*
X0186211Y0079895D01*
X0186167Y0079960D01*
X0186120Y0080022D01*
X0186070Y0080083D01*
X0186018Y0080140D01*
X0185962Y0080196D01*
X0185905Y0080248D01*
X0185844Y0080298D01*
X0185782Y0080345D01*
X0185717Y0080389D01*
X0185650Y0080430D01*
X0185581Y0080467D01*
X0185511Y0080501D01*
X0185439Y0080532D01*
X0185366Y0080560D01*
X0185291Y0080583D01*
X0185216Y0080604D01*
X0185139Y0080620D01*
X0185062Y0080633D01*
X0184984Y0080643D01*
X0184906Y0080648D01*
X0184828Y0080650D01*
X0189022Y0080650D02*
X0190050Y0080650D01*
X0189022Y0080650D02*
X0188959Y0080648D01*
X0188896Y0080642D01*
X0188833Y0080632D01*
X0188771Y0080619D01*
X0188710Y0080602D01*
X0188651Y0080581D01*
X0188592Y0080556D01*
X0188536Y0080528D01*
X0188481Y0080496D01*
X0188428Y0080461D01*
X0188378Y0080423D01*
X0188329Y0080382D01*
X0188284Y0080338D01*
X0188241Y0080291D01*
X0188202Y0080242D01*
X0188165Y0080190D01*
X0188132Y0080136D01*
X0188102Y0080080D01*
X0188075Y0080023D01*
X0188052Y0079964D01*
X0188033Y0079903D01*
X0188018Y0079842D01*
X0188006Y0079780D01*
X0187998Y0079717D01*
X0187994Y0079654D01*
X0187994Y0079590D01*
X0187998Y0079527D01*
X0188006Y0079464D01*
X0188018Y0079402D01*
X0188033Y0079341D01*
X0188052Y0079280D01*
X0188075Y0079221D01*
X0188102Y0079164D01*
X0188132Y0079108D01*
X0188165Y0079054D01*
X0188202Y0079002D01*
X0188241Y0078953D01*
X0188284Y0078906D01*
X0188329Y0078862D01*
X0188378Y0078821D01*
X0188428Y0078783D01*
X0188481Y0078748D01*
X0188536Y0078716D01*
X0188592Y0078688D01*
X0188651Y0078663D01*
X0188710Y0078642D01*
X0188771Y0078625D01*
X0188833Y0078612D01*
X0188896Y0078602D01*
X0188959Y0078596D01*
X0189022Y0078594D01*
X0190050Y0078594D01*
X0186473Y0077978D02*
X0186471Y0077915D01*
X0186465Y0077852D01*
X0186455Y0077789D01*
X0186442Y0077727D01*
X0186425Y0077666D01*
X0186404Y0077607D01*
X0186379Y0077548D01*
X0186351Y0077492D01*
X0186319Y0077437D01*
X0186284Y0077384D01*
X0186246Y0077334D01*
X0186205Y0077285D01*
X0186161Y0077240D01*
X0186114Y0077197D01*
X0186065Y0077158D01*
X0186013Y0077121D01*
X0185959Y0077088D01*
X0185903Y0077058D01*
X0185846Y0077031D01*
X0185787Y0077008D01*
X0185726Y0076989D01*
X0185665Y0076974D01*
X0185603Y0076962D01*
X0185540Y0076954D01*
X0185477Y0076950D01*
X0185413Y0076950D01*
X0185350Y0076954D01*
X0185287Y0076962D01*
X0185225Y0076974D01*
X0185164Y0076989D01*
X0185103Y0077008D01*
X0185044Y0077031D01*
X0184987Y0077058D01*
X0184931Y0077088D01*
X0184877Y0077121D01*
X0184825Y0077158D01*
X0184776Y0077197D01*
X0184729Y0077240D01*
X0184685Y0077285D01*
X0184644Y0077334D01*
X0184606Y0077384D01*
X0184571Y0077437D01*
X0184539Y0077492D01*
X0184511Y0077548D01*
X0184486Y0077607D01*
X0184465Y0077666D01*
X0184448Y0077727D01*
X0184435Y0077789D01*
X0184425Y0077852D01*
X0184419Y0077915D01*
X0184417Y0077978D01*
X0184417Y0078183D01*
X0184419Y0078239D01*
X0184425Y0078295D01*
X0184434Y0078350D01*
X0184447Y0078405D01*
X0184464Y0078458D01*
X0184485Y0078510D01*
X0184509Y0078561D01*
X0184537Y0078610D01*
X0184567Y0078657D01*
X0184601Y0078702D01*
X0184638Y0078744D01*
X0184678Y0078784D01*
X0184720Y0078821D01*
X0184765Y0078855D01*
X0184812Y0078885D01*
X0184861Y0078913D01*
X0184912Y0078937D01*
X0184964Y0078958D01*
X0185017Y0078975D01*
X0185072Y0078988D01*
X0185127Y0078997D01*
X0185183Y0079003D01*
X0185239Y0079005D01*
X0168883Y0084450D02*
X0168883Y0088150D01*
X0167855Y0088150D01*
X0167792Y0088148D01*
X0167729Y0088142D01*
X0167666Y0088132D01*
X0167604Y0088119D01*
X0167543Y0088102D01*
X0167484Y0088081D01*
X0167425Y0088056D01*
X0167369Y0088028D01*
X0167314Y0087996D01*
X0167261Y0087961D01*
X0167211Y0087923D01*
X0167162Y0087882D01*
X0167117Y0087838D01*
X0167074Y0087791D01*
X0167035Y0087742D01*
X0166998Y0087690D01*
X0166965Y0087636D01*
X0166935Y0087580D01*
X0166908Y0087523D01*
X0166885Y0087464D01*
X0166866Y0087403D01*
X0166851Y0087342D01*
X0166839Y0087280D01*
X0166831Y0087217D01*
X0166827Y0087154D01*
X0166827Y0087090D01*
X0166831Y0087027D01*
X0166839Y0086964D01*
X0166851Y0086902D01*
X0166866Y0086841D01*
X0166885Y0086780D01*
X0166908Y0086721D01*
X0166935Y0086664D01*
X0166965Y0086608D01*
X0166998Y0086554D01*
X0167035Y0086502D01*
X0167074Y0086453D01*
X0167117Y0086406D01*
X0167162Y0086362D01*
X0167211Y0086321D01*
X0167261Y0086283D01*
X0167314Y0086248D01*
X0167369Y0086216D01*
X0167425Y0086188D01*
X0167484Y0086163D01*
X0167543Y0086142D01*
X0167604Y0086125D01*
X0167666Y0086112D01*
X0167729Y0086102D01*
X0167792Y0086096D01*
X0167855Y0086094D01*
X0168883Y0086094D01*
X0167650Y0086094D02*
X0166828Y0084450D01*
X0165306Y0084450D02*
X0163250Y0084450D01*
X0164278Y0084450D02*
X0164278Y0088150D01*
X0165306Y0087328D01*
X0161706Y0087739D02*
X0161706Y0088150D01*
X0159650Y0088150D01*
X0160678Y0084450D01*
X0170150Y0089878D02*
X0170152Y0089815D01*
X0170158Y0089752D01*
X0170168Y0089689D01*
X0170181Y0089627D01*
X0170198Y0089566D01*
X0170219Y0089507D01*
X0170244Y0089448D01*
X0170272Y0089392D01*
X0170304Y0089337D01*
X0170339Y0089284D01*
X0170377Y0089234D01*
X0170418Y0089185D01*
X0170462Y0089140D01*
X0170509Y0089097D01*
X0170558Y0089058D01*
X0170610Y0089021D01*
X0170664Y0088988D01*
X0170720Y0088958D01*
X0170777Y0088931D01*
X0170836Y0088908D01*
X0170897Y0088889D01*
X0170958Y0088874D01*
X0171020Y0088862D01*
X0171083Y0088854D01*
X0171146Y0088850D01*
X0171210Y0088850D01*
X0171273Y0088854D01*
X0171336Y0088862D01*
X0171398Y0088874D01*
X0171459Y0088889D01*
X0171520Y0088908D01*
X0171579Y0088931D01*
X0171636Y0088958D01*
X0171692Y0088988D01*
X0171746Y0089021D01*
X0171798Y0089058D01*
X0171847Y0089097D01*
X0171894Y0089140D01*
X0171938Y0089185D01*
X0171979Y0089234D01*
X0172017Y0089284D01*
X0172052Y0089337D01*
X0172084Y0089392D01*
X0172112Y0089448D01*
X0172137Y0089507D01*
X0172158Y0089566D01*
X0172175Y0089627D01*
X0172188Y0089689D01*
X0172198Y0089752D01*
X0172204Y0089815D01*
X0172206Y0089878D01*
X0172204Y0089941D01*
X0172198Y0090004D01*
X0172188Y0090067D01*
X0172175Y0090129D01*
X0172158Y0090190D01*
X0172137Y0090249D01*
X0172112Y0090308D01*
X0172084Y0090364D01*
X0172052Y0090419D01*
X0172017Y0090472D01*
X0171979Y0090522D01*
X0171938Y0090571D01*
X0171894Y0090616D01*
X0171847Y0090659D01*
X0171798Y0090698D01*
X0171746Y0090735D01*
X0171692Y0090768D01*
X0171636Y0090798D01*
X0171579Y0090825D01*
X0171520Y0090848D01*
X0171459Y0090867D01*
X0171398Y0090882D01*
X0171336Y0090894D01*
X0171273Y0090902D01*
X0171210Y0090906D01*
X0171146Y0090906D01*
X0171083Y0090902D01*
X0171020Y0090894D01*
X0170958Y0090882D01*
X0170897Y0090867D01*
X0170836Y0090848D01*
X0170777Y0090825D01*
X0170720Y0090798D01*
X0170664Y0090768D01*
X0170610Y0090735D01*
X0170558Y0090698D01*
X0170509Y0090659D01*
X0170462Y0090616D01*
X0170418Y0090571D01*
X0170377Y0090522D01*
X0170339Y0090472D01*
X0170304Y0090419D01*
X0170272Y0090364D01*
X0170244Y0090308D01*
X0170219Y0090249D01*
X0170198Y0090190D01*
X0170181Y0090129D01*
X0170168Y0090067D01*
X0170158Y0090004D01*
X0170152Y0089941D01*
X0170150Y0089878D01*
X0173750Y0088850D02*
X0175806Y0088850D01*
X0174778Y0088850D02*
X0174778Y0092550D01*
X0175806Y0091728D01*
X0178355Y0092550D02*
X0178292Y0092548D01*
X0178229Y0092542D01*
X0178166Y0092532D01*
X0178104Y0092519D01*
X0178043Y0092502D01*
X0177984Y0092481D01*
X0177925Y0092456D01*
X0177869Y0092428D01*
X0177814Y0092396D01*
X0177761Y0092361D01*
X0177711Y0092323D01*
X0177662Y0092282D01*
X0177617Y0092238D01*
X0177574Y0092191D01*
X0177535Y0092142D01*
X0177498Y0092090D01*
X0177465Y0092036D01*
X0177435Y0091980D01*
X0177408Y0091923D01*
X0177385Y0091864D01*
X0177366Y0091803D01*
X0177351Y0091742D01*
X0177339Y0091680D01*
X0177331Y0091617D01*
X0177327Y0091554D01*
X0177327Y0091490D01*
X0177331Y0091427D01*
X0177339Y0091364D01*
X0177351Y0091302D01*
X0177366Y0091241D01*
X0177385Y0091180D01*
X0177408Y0091121D01*
X0177435Y0091064D01*
X0177465Y0091008D01*
X0177498Y0090954D01*
X0177535Y0090902D01*
X0177574Y0090853D01*
X0177617Y0090806D01*
X0177662Y0090762D01*
X0177711Y0090721D01*
X0177761Y0090683D01*
X0177814Y0090648D01*
X0177869Y0090616D01*
X0177925Y0090588D01*
X0177984Y0090563D01*
X0178043Y0090542D01*
X0178104Y0090525D01*
X0178166Y0090512D01*
X0178229Y0090502D01*
X0178292Y0090496D01*
X0178355Y0090494D01*
X0179383Y0090494D01*
X0178150Y0090494D02*
X0177328Y0088850D01*
X0179383Y0088850D02*
X0179383Y0092550D01*
X0178355Y0092550D01*
X0172000Y0091728D02*
X0171998Y0091672D01*
X0171992Y0091616D01*
X0171983Y0091561D01*
X0171970Y0091506D01*
X0171953Y0091453D01*
X0171932Y0091401D01*
X0171908Y0091350D01*
X0171880Y0091301D01*
X0171850Y0091254D01*
X0171816Y0091209D01*
X0171779Y0091167D01*
X0171739Y0091127D01*
X0171697Y0091090D01*
X0171652Y0091056D01*
X0171605Y0091026D01*
X0171556Y0090998D01*
X0171505Y0090974D01*
X0171453Y0090953D01*
X0171400Y0090936D01*
X0171345Y0090923D01*
X0171290Y0090914D01*
X0171234Y0090908D01*
X0171178Y0090906D01*
X0171122Y0090908D01*
X0171066Y0090914D01*
X0171011Y0090923D01*
X0170956Y0090936D01*
X0170903Y0090953D01*
X0170851Y0090974D01*
X0170800Y0090998D01*
X0170751Y0091026D01*
X0170704Y0091056D01*
X0170659Y0091090D01*
X0170617Y0091127D01*
X0170577Y0091167D01*
X0170540Y0091209D01*
X0170506Y0091254D01*
X0170476Y0091301D01*
X0170448Y0091350D01*
X0170424Y0091401D01*
X0170403Y0091453D01*
X0170386Y0091506D01*
X0170373Y0091561D01*
X0170364Y0091616D01*
X0170358Y0091672D01*
X0170356Y0091728D01*
X0170358Y0091784D01*
X0170364Y0091840D01*
X0170373Y0091895D01*
X0170386Y0091950D01*
X0170403Y0092003D01*
X0170424Y0092055D01*
X0170448Y0092106D01*
X0170476Y0092155D01*
X0170506Y0092202D01*
X0170540Y0092247D01*
X0170577Y0092289D01*
X0170617Y0092329D01*
X0170659Y0092366D01*
X0170704Y0092400D01*
X0170751Y0092430D01*
X0170800Y0092458D01*
X0170851Y0092482D01*
X0170903Y0092503D01*
X0170956Y0092520D01*
X0171011Y0092533D01*
X0171066Y0092542D01*
X0171122Y0092548D01*
X0171178Y0092550D01*
X0171234Y0092548D01*
X0171290Y0092542D01*
X0171345Y0092533D01*
X0171400Y0092520D01*
X0171453Y0092503D01*
X0171505Y0092482D01*
X0171556Y0092458D01*
X0171605Y0092430D01*
X0171652Y0092400D01*
X0171697Y0092366D01*
X0171739Y0092329D01*
X0171779Y0092289D01*
X0171816Y0092247D01*
X0171850Y0092202D01*
X0171880Y0092155D01*
X0171908Y0092106D01*
X0171932Y0092055D01*
X0171953Y0092003D01*
X0171970Y0091950D01*
X0171983Y0091895D01*
X0171992Y0091840D01*
X0171998Y0091784D01*
X0172000Y0091728D01*
X0193911Y0098502D02*
X0193911Y0099325D01*
X0193911Y0098502D02*
X0193913Y0098446D01*
X0193919Y0098390D01*
X0193928Y0098335D01*
X0193941Y0098280D01*
X0193958Y0098227D01*
X0193979Y0098175D01*
X0194003Y0098124D01*
X0194031Y0098075D01*
X0194061Y0098028D01*
X0194095Y0097983D01*
X0194132Y0097941D01*
X0194172Y0097901D01*
X0194214Y0097864D01*
X0194259Y0097830D01*
X0194306Y0097800D01*
X0194355Y0097772D01*
X0194406Y0097748D01*
X0194458Y0097727D01*
X0194511Y0097710D01*
X0194566Y0097697D01*
X0194621Y0097688D01*
X0194677Y0097682D01*
X0194733Y0097680D01*
X0196788Y0097680D01*
X0196844Y0097682D01*
X0196900Y0097688D01*
X0196955Y0097697D01*
X0197010Y0097710D01*
X0197063Y0097727D01*
X0197115Y0097748D01*
X0197166Y0097772D01*
X0197215Y0097800D01*
X0197262Y0097830D01*
X0197307Y0097864D01*
X0197349Y0097901D01*
X0197389Y0097941D01*
X0197426Y0097983D01*
X0197460Y0098028D01*
X0197490Y0098075D01*
X0197518Y0098124D01*
X0197542Y0098175D01*
X0197563Y0098227D01*
X0197580Y0098280D01*
X0197593Y0098335D01*
X0197602Y0098390D01*
X0197608Y0098446D01*
X0197610Y0098502D01*
X0197611Y0098502D02*
X0197611Y0099325D01*
X0198689Y0099425D02*
X0198689Y0098602D01*
X0198691Y0098546D01*
X0198697Y0098490D01*
X0198706Y0098435D01*
X0198719Y0098380D01*
X0198736Y0098327D01*
X0198757Y0098275D01*
X0198781Y0098224D01*
X0198809Y0098175D01*
X0198839Y0098128D01*
X0198873Y0098083D01*
X0198910Y0098041D01*
X0198950Y0098001D01*
X0198992Y0097964D01*
X0199037Y0097930D01*
X0199084Y0097900D01*
X0199133Y0097872D01*
X0199184Y0097848D01*
X0199236Y0097827D01*
X0199289Y0097810D01*
X0199344Y0097797D01*
X0199399Y0097788D01*
X0199455Y0097782D01*
X0199511Y0097780D01*
X0201566Y0097780D01*
X0201622Y0097782D01*
X0201678Y0097788D01*
X0201733Y0097797D01*
X0201788Y0097810D01*
X0201841Y0097827D01*
X0201893Y0097848D01*
X0201944Y0097872D01*
X0201993Y0097900D01*
X0202040Y0097930D01*
X0202085Y0097964D01*
X0202127Y0098001D01*
X0202167Y0098041D01*
X0202204Y0098083D01*
X0202238Y0098128D01*
X0202268Y0098175D01*
X0202296Y0098224D01*
X0202320Y0098275D01*
X0202341Y0098327D01*
X0202358Y0098380D01*
X0202371Y0098435D01*
X0202380Y0098490D01*
X0202386Y0098546D01*
X0202388Y0098602D01*
X0202389Y0098602D02*
X0202389Y0099425D01*
X0202389Y0100670D02*
X0202389Y0102726D01*
X0198689Y0100670D01*
X0198689Y0102726D01*
X0197611Y0102626D02*
X0193911Y0100570D01*
X0193911Y0102626D01*
X0194938Y0104050D02*
X0195966Y0104050D01*
X0195966Y0105284D01*
X0195966Y0104051D02*
X0196047Y0104053D01*
X0196127Y0104059D01*
X0196207Y0104069D01*
X0196287Y0104083D01*
X0196365Y0104100D01*
X0196443Y0104122D01*
X0196520Y0104147D01*
X0196595Y0104176D01*
X0196669Y0104209D01*
X0196741Y0104245D01*
X0196811Y0104285D01*
X0196879Y0104328D01*
X0196945Y0104375D01*
X0197009Y0104424D01*
X0197070Y0104477D01*
X0197128Y0104533D01*
X0197184Y0104591D01*
X0197237Y0104652D01*
X0197286Y0104716D01*
X0197333Y0104782D01*
X0197376Y0104850D01*
X0197416Y0104920D01*
X0197452Y0104992D01*
X0197485Y0105066D01*
X0197514Y0105141D01*
X0197539Y0105218D01*
X0197561Y0105296D01*
X0197578Y0105374D01*
X0197592Y0105454D01*
X0197602Y0105534D01*
X0197608Y0105614D01*
X0197610Y0105695D01*
X0198689Y0105178D02*
X0202389Y0106206D01*
X0202389Y0104150D01*
X0201977Y0104150D01*
X0197611Y0102626D02*
X0197611Y0100570D01*
X0194938Y0104050D02*
X0194875Y0104052D01*
X0194812Y0104058D01*
X0194749Y0104068D01*
X0194687Y0104081D01*
X0194626Y0104098D01*
X0194567Y0104119D01*
X0194508Y0104144D01*
X0194452Y0104172D01*
X0194397Y0104204D01*
X0194344Y0104239D01*
X0194294Y0104277D01*
X0194245Y0104318D01*
X0194200Y0104362D01*
X0194157Y0104409D01*
X0194118Y0104458D01*
X0194081Y0104510D01*
X0194048Y0104564D01*
X0194018Y0104620D01*
X0193991Y0104677D01*
X0193968Y0104736D01*
X0193949Y0104797D01*
X0193934Y0104858D01*
X0193922Y0104920D01*
X0193914Y0104983D01*
X0193910Y0105046D01*
X0193910Y0105110D01*
X0193914Y0105173D01*
X0193922Y0105236D01*
X0193934Y0105298D01*
X0193949Y0105359D01*
X0193968Y0105420D01*
X0193991Y0105479D01*
X0194018Y0105536D01*
X0194048Y0105592D01*
X0194081Y0105646D01*
X0194118Y0105698D01*
X0194157Y0105747D01*
X0194200Y0105794D01*
X0194245Y0105838D01*
X0194294Y0105879D01*
X0194344Y0105917D01*
X0194397Y0105952D01*
X0194452Y0105984D01*
X0194508Y0106012D01*
X0194567Y0106037D01*
X0194626Y0106058D01*
X0194687Y0106075D01*
X0194749Y0106088D01*
X0194812Y0106098D01*
X0194875Y0106104D01*
X0194938Y0106106D01*
X0195144Y0106106D01*
X0195200Y0106104D01*
X0195256Y0106098D01*
X0195311Y0106089D01*
X0195366Y0106076D01*
X0195419Y0106059D01*
X0195471Y0106038D01*
X0195522Y0106014D01*
X0195571Y0105986D01*
X0195618Y0105956D01*
X0195663Y0105922D01*
X0195705Y0105885D01*
X0195745Y0105845D01*
X0195782Y0105803D01*
X0195816Y0105758D01*
X0195846Y0105711D01*
X0195874Y0105662D01*
X0195898Y0105611D01*
X0195919Y0105559D01*
X0195936Y0105506D01*
X0195949Y0105451D01*
X0195958Y0105396D01*
X0195964Y0105340D01*
X0195966Y0105284D01*
X0159043Y0109447D02*
X0159043Y0111503D01*
X0159041Y0111559D01*
X0159035Y0111615D01*
X0159026Y0111670D01*
X0159013Y0111725D01*
X0158996Y0111778D01*
X0158975Y0111830D01*
X0158951Y0111881D01*
X0158923Y0111930D01*
X0158893Y0111977D01*
X0158859Y0112022D01*
X0158822Y0112064D01*
X0158782Y0112104D01*
X0158740Y0112141D01*
X0158695Y0112175D01*
X0158648Y0112205D01*
X0158599Y0112233D01*
X0158548Y0112257D01*
X0158496Y0112278D01*
X0158443Y0112295D01*
X0158388Y0112308D01*
X0158333Y0112317D01*
X0158277Y0112323D01*
X0158221Y0112325D01*
X0157398Y0112325D01*
X0156153Y0112325D02*
X0154097Y0112325D01*
X0156153Y0108625D01*
X0154097Y0108625D01*
X0152673Y0108625D02*
X0151439Y0108625D01*
X0151383Y0108627D01*
X0151327Y0108633D01*
X0151272Y0108642D01*
X0151217Y0108655D01*
X0151164Y0108672D01*
X0151112Y0108693D01*
X0151061Y0108717D01*
X0151012Y0108745D01*
X0150965Y0108775D01*
X0150920Y0108809D01*
X0150878Y0108846D01*
X0150838Y0108886D01*
X0150801Y0108928D01*
X0150767Y0108973D01*
X0150737Y0109020D01*
X0150709Y0109069D01*
X0150685Y0109120D01*
X0150664Y0109172D01*
X0150647Y0109225D01*
X0150634Y0109280D01*
X0150625Y0109335D01*
X0150619Y0109391D01*
X0150617Y0109447D01*
X0150617Y0109858D01*
X0150619Y0109914D01*
X0150625Y0109970D01*
X0150634Y0110025D01*
X0150647Y0110080D01*
X0150664Y0110133D01*
X0150685Y0110185D01*
X0150709Y0110236D01*
X0150737Y0110285D01*
X0150767Y0110332D01*
X0150801Y0110377D01*
X0150838Y0110419D01*
X0150878Y0110459D01*
X0150920Y0110496D01*
X0150965Y0110530D01*
X0151012Y0110560D01*
X0151061Y0110588D01*
X0151112Y0110612D01*
X0151164Y0110633D01*
X0151217Y0110650D01*
X0151272Y0110663D01*
X0151327Y0110672D01*
X0151383Y0110678D01*
X0151439Y0110680D01*
X0152673Y0110680D01*
X0152673Y0112325D01*
X0150617Y0112325D01*
X0157398Y0108625D02*
X0158221Y0108625D01*
X0158277Y0108627D01*
X0158333Y0108633D01*
X0158388Y0108642D01*
X0158443Y0108655D01*
X0158496Y0108672D01*
X0158548Y0108693D01*
X0158599Y0108717D01*
X0158648Y0108745D01*
X0158695Y0108775D01*
X0158740Y0108809D01*
X0158782Y0108846D01*
X0158822Y0108886D01*
X0158859Y0108928D01*
X0158893Y0108973D01*
X0158923Y0109020D01*
X0158951Y0109069D01*
X0158975Y0109120D01*
X0158996Y0109172D01*
X0159013Y0109225D01*
X0159026Y0109280D01*
X0159035Y0109335D01*
X0159041Y0109391D01*
X0159043Y0109447D01*
X0144550Y0103550D02*
X0143522Y0103550D01*
X0143459Y0103548D01*
X0143396Y0103542D01*
X0143333Y0103532D01*
X0143271Y0103519D01*
X0143210Y0103502D01*
X0143151Y0103481D01*
X0143092Y0103456D01*
X0143036Y0103428D01*
X0142981Y0103396D01*
X0142928Y0103361D01*
X0142878Y0103323D01*
X0142829Y0103282D01*
X0142784Y0103238D01*
X0142741Y0103191D01*
X0142702Y0103142D01*
X0142665Y0103090D01*
X0142632Y0103036D01*
X0142602Y0102980D01*
X0142575Y0102923D01*
X0142552Y0102864D01*
X0142533Y0102803D01*
X0142518Y0102742D01*
X0142506Y0102680D01*
X0142498Y0102617D01*
X0142494Y0102554D01*
X0142494Y0102490D01*
X0142498Y0102427D01*
X0142506Y0102364D01*
X0142518Y0102302D01*
X0142533Y0102241D01*
X0142552Y0102180D01*
X0142575Y0102121D01*
X0142602Y0102064D01*
X0142632Y0102008D01*
X0142665Y0101954D01*
X0142702Y0101902D01*
X0142741Y0101853D01*
X0142784Y0101806D01*
X0142829Y0101762D01*
X0142878Y0101721D01*
X0142928Y0101683D01*
X0142981Y0101648D01*
X0143036Y0101616D01*
X0143092Y0101588D01*
X0143151Y0101563D01*
X0143210Y0101542D01*
X0143271Y0101525D01*
X0143333Y0101512D01*
X0143396Y0101502D01*
X0143459Y0101496D01*
X0143522Y0101494D01*
X0144550Y0101494D01*
X0143317Y0101494D02*
X0142494Y0099850D01*
X0140972Y0099850D02*
X0139739Y0099850D01*
X0139683Y0099852D01*
X0139627Y0099858D01*
X0139572Y0099867D01*
X0139517Y0099880D01*
X0139464Y0099897D01*
X0139412Y0099918D01*
X0139361Y0099942D01*
X0139312Y0099970D01*
X0139265Y0100000D01*
X0139220Y0100034D01*
X0139178Y0100071D01*
X0139138Y0100111D01*
X0139101Y0100153D01*
X0139067Y0100198D01*
X0139037Y0100245D01*
X0139009Y0100294D01*
X0138985Y0100345D01*
X0138964Y0100397D01*
X0138947Y0100450D01*
X0138934Y0100505D01*
X0138925Y0100560D01*
X0138919Y0100616D01*
X0138917Y0100672D01*
X0138917Y0101083D01*
X0138919Y0101139D01*
X0138925Y0101195D01*
X0138934Y0101250D01*
X0138947Y0101305D01*
X0138964Y0101358D01*
X0138985Y0101410D01*
X0139009Y0101461D01*
X0139037Y0101510D01*
X0139067Y0101557D01*
X0139101Y0101602D01*
X0139138Y0101644D01*
X0139178Y0101684D01*
X0139220Y0101721D01*
X0139265Y0101755D01*
X0139312Y0101785D01*
X0139361Y0101813D01*
X0139412Y0101837D01*
X0139464Y0101858D01*
X0139517Y0101875D01*
X0139572Y0101888D01*
X0139627Y0101897D01*
X0139683Y0101903D01*
X0139739Y0101905D01*
X0139739Y0101906D02*
X0140972Y0101906D01*
X0140972Y0103550D01*
X0138917Y0103550D01*
X0144550Y0103550D02*
X0144550Y0099850D01*
X0124048Y0103682D02*
X0124048Y0105738D01*
X0124046Y0105794D01*
X0124040Y0105850D01*
X0124031Y0105905D01*
X0124018Y0105960D01*
X0124001Y0106013D01*
X0123980Y0106065D01*
X0123956Y0106116D01*
X0123928Y0106165D01*
X0123898Y0106212D01*
X0123864Y0106257D01*
X0123827Y0106299D01*
X0123787Y0106339D01*
X0123745Y0106376D01*
X0123700Y0106410D01*
X0123653Y0106440D01*
X0123604Y0106468D01*
X0123553Y0106492D01*
X0123501Y0106513D01*
X0123448Y0106530D01*
X0123393Y0106543D01*
X0123338Y0106552D01*
X0123282Y0106558D01*
X0123226Y0106560D01*
X0122404Y0106560D01*
X0121158Y0106560D02*
X0119103Y0106560D01*
X0121158Y0102860D01*
X0119103Y0102860D01*
X0117678Y0103682D02*
X0115623Y0103682D01*
X0116239Y0102860D02*
X0116239Y0104505D01*
X0117678Y0103682D02*
X0116856Y0106560D01*
X0122404Y0102860D02*
X0123226Y0102860D01*
X0123282Y0102862D01*
X0123338Y0102868D01*
X0123393Y0102877D01*
X0123448Y0102890D01*
X0123501Y0102907D01*
X0123553Y0102928D01*
X0123604Y0102952D01*
X0123653Y0102980D01*
X0123700Y0103010D01*
X0123745Y0103044D01*
X0123787Y0103081D01*
X0123827Y0103121D01*
X0123864Y0103163D01*
X0123898Y0103208D01*
X0123928Y0103255D01*
X0123956Y0103304D01*
X0123980Y0103355D01*
X0124001Y0103407D01*
X0124018Y0103460D01*
X0124031Y0103515D01*
X0124040Y0103570D01*
X0124046Y0103626D01*
X0124048Y0103682D01*
X0111250Y0097750D02*
X0110222Y0097750D01*
X0110159Y0097748D01*
X0110096Y0097742D01*
X0110033Y0097732D01*
X0109971Y0097719D01*
X0109910Y0097702D01*
X0109851Y0097681D01*
X0109792Y0097656D01*
X0109736Y0097628D01*
X0109681Y0097596D01*
X0109628Y0097561D01*
X0109578Y0097523D01*
X0109529Y0097482D01*
X0109484Y0097438D01*
X0109441Y0097391D01*
X0109402Y0097342D01*
X0109365Y0097290D01*
X0109332Y0097236D01*
X0109302Y0097180D01*
X0109275Y0097123D01*
X0109252Y0097064D01*
X0109233Y0097003D01*
X0109218Y0096942D01*
X0109206Y0096880D01*
X0109198Y0096817D01*
X0109194Y0096754D01*
X0109194Y0096690D01*
X0109198Y0096627D01*
X0109206Y0096564D01*
X0109218Y0096502D01*
X0109233Y0096441D01*
X0109252Y0096380D01*
X0109275Y0096321D01*
X0109302Y0096264D01*
X0109332Y0096208D01*
X0109365Y0096154D01*
X0109402Y0096102D01*
X0109441Y0096053D01*
X0109484Y0096006D01*
X0109529Y0095962D01*
X0109578Y0095921D01*
X0109628Y0095883D01*
X0109681Y0095848D01*
X0109736Y0095816D01*
X0109792Y0095788D01*
X0109851Y0095763D01*
X0109910Y0095742D01*
X0109971Y0095725D01*
X0110033Y0095712D01*
X0110096Y0095702D01*
X0110159Y0095696D01*
X0110222Y0095694D01*
X0111250Y0095694D01*
X0110017Y0095694D02*
X0109194Y0094050D01*
X0107672Y0094872D02*
X0105617Y0094872D01*
X0106234Y0095694D02*
X0106234Y0094050D01*
X0107672Y0094872D02*
X0106850Y0097750D01*
X0111250Y0097750D02*
X0111250Y0094050D01*
X0093154Y0097718D02*
X0093154Y0099773D01*
X0093152Y0099829D01*
X0093146Y0099885D01*
X0093137Y0099940D01*
X0093124Y0099995D01*
X0093107Y0100048D01*
X0093086Y0100100D01*
X0093062Y0100151D01*
X0093034Y0100200D01*
X0093004Y0100247D01*
X0092970Y0100292D01*
X0092933Y0100334D01*
X0092893Y0100374D01*
X0092851Y0100411D01*
X0092806Y0100445D01*
X0092759Y0100475D01*
X0092710Y0100503D01*
X0092659Y0100527D01*
X0092607Y0100548D01*
X0092554Y0100565D01*
X0092499Y0100578D01*
X0092444Y0100587D01*
X0092388Y0100593D01*
X0092332Y0100595D01*
X0092332Y0100596D02*
X0091509Y0100596D01*
X0090264Y0100596D02*
X0088208Y0100596D01*
X0090264Y0096896D01*
X0088208Y0096896D01*
X0086784Y0096896D02*
X0085756Y0096896D01*
X0085756Y0096895D02*
X0085693Y0096897D01*
X0085630Y0096903D01*
X0085567Y0096913D01*
X0085505Y0096926D01*
X0085444Y0096943D01*
X0085385Y0096964D01*
X0085326Y0096989D01*
X0085270Y0097017D01*
X0085215Y0097049D01*
X0085162Y0097084D01*
X0085112Y0097122D01*
X0085063Y0097163D01*
X0085018Y0097207D01*
X0084975Y0097254D01*
X0084936Y0097303D01*
X0084899Y0097355D01*
X0084866Y0097409D01*
X0084836Y0097465D01*
X0084809Y0097522D01*
X0084786Y0097581D01*
X0084767Y0097642D01*
X0084752Y0097703D01*
X0084740Y0097765D01*
X0084732Y0097828D01*
X0084728Y0097891D01*
X0084728Y0097955D01*
X0084732Y0098018D01*
X0084740Y0098081D01*
X0084752Y0098143D01*
X0084767Y0098204D01*
X0084786Y0098265D01*
X0084809Y0098324D01*
X0084836Y0098381D01*
X0084866Y0098437D01*
X0084899Y0098491D01*
X0084936Y0098543D01*
X0084975Y0098592D01*
X0085018Y0098639D01*
X0085063Y0098683D01*
X0085112Y0098724D01*
X0085162Y0098762D01*
X0085215Y0098797D01*
X0085270Y0098829D01*
X0085326Y0098857D01*
X0085385Y0098882D01*
X0085444Y0098903D01*
X0085505Y0098920D01*
X0085567Y0098933D01*
X0085630Y0098943D01*
X0085693Y0098949D01*
X0085756Y0098951D01*
X0085551Y0098951D02*
X0086373Y0098951D01*
X0085551Y0098951D02*
X0085495Y0098953D01*
X0085439Y0098959D01*
X0085384Y0098968D01*
X0085329Y0098981D01*
X0085276Y0098998D01*
X0085224Y0099019D01*
X0085173Y0099043D01*
X0085124Y0099071D01*
X0085077Y0099101D01*
X0085032Y0099135D01*
X0084990Y0099172D01*
X0084950Y0099212D01*
X0084913Y0099254D01*
X0084879Y0099299D01*
X0084849Y0099346D01*
X0084821Y0099395D01*
X0084797Y0099446D01*
X0084776Y0099498D01*
X0084759Y0099551D01*
X0084746Y0099606D01*
X0084737Y0099661D01*
X0084731Y0099717D01*
X0084729Y0099773D01*
X0084731Y0099829D01*
X0084737Y0099885D01*
X0084746Y0099940D01*
X0084759Y0099995D01*
X0084776Y0100048D01*
X0084797Y0100100D01*
X0084821Y0100151D01*
X0084849Y0100200D01*
X0084879Y0100247D01*
X0084913Y0100292D01*
X0084950Y0100334D01*
X0084990Y0100374D01*
X0085032Y0100411D01*
X0085077Y0100445D01*
X0085124Y0100475D01*
X0085173Y0100503D01*
X0085224Y0100527D01*
X0085276Y0100548D01*
X0085329Y0100565D01*
X0085384Y0100578D01*
X0085439Y0100587D01*
X0085495Y0100593D01*
X0085551Y0100595D01*
X0085551Y0100596D02*
X0086784Y0100596D01*
X0092332Y0096896D02*
X0092388Y0096898D01*
X0092444Y0096904D01*
X0092499Y0096913D01*
X0092554Y0096926D01*
X0092607Y0096943D01*
X0092659Y0096964D01*
X0092710Y0096988D01*
X0092759Y0097016D01*
X0092806Y0097046D01*
X0092851Y0097080D01*
X0092893Y0097117D01*
X0092933Y0097157D01*
X0092970Y0097199D01*
X0093004Y0097244D01*
X0093034Y0097291D01*
X0093062Y0097340D01*
X0093086Y0097391D01*
X0093107Y0097443D01*
X0093124Y0097496D01*
X0093137Y0097551D01*
X0093146Y0097606D01*
X0093152Y0097662D01*
X0093154Y0097718D01*
X0092332Y0096896D02*
X0091509Y0096896D01*
X0077650Y0091750D02*
X0076622Y0091750D01*
X0076559Y0091748D01*
X0076496Y0091742D01*
X0076433Y0091732D01*
X0076371Y0091719D01*
X0076310Y0091702D01*
X0076251Y0091681D01*
X0076192Y0091656D01*
X0076136Y0091628D01*
X0076081Y0091596D01*
X0076028Y0091561D01*
X0075978Y0091523D01*
X0075929Y0091482D01*
X0075884Y0091438D01*
X0075841Y0091391D01*
X0075802Y0091342D01*
X0075765Y0091290D01*
X0075732Y0091236D01*
X0075702Y0091180D01*
X0075675Y0091123D01*
X0075652Y0091064D01*
X0075633Y0091003D01*
X0075618Y0090942D01*
X0075606Y0090880D01*
X0075598Y0090817D01*
X0075594Y0090754D01*
X0075594Y0090690D01*
X0075598Y0090627D01*
X0075606Y0090564D01*
X0075618Y0090502D01*
X0075633Y0090441D01*
X0075652Y0090380D01*
X0075675Y0090321D01*
X0075702Y0090264D01*
X0075732Y0090208D01*
X0075765Y0090154D01*
X0075802Y0090102D01*
X0075841Y0090053D01*
X0075884Y0090006D01*
X0075929Y0089962D01*
X0075978Y0089921D01*
X0076028Y0089883D01*
X0076081Y0089848D01*
X0076136Y0089816D01*
X0076192Y0089788D01*
X0076251Y0089763D01*
X0076310Y0089742D01*
X0076371Y0089725D01*
X0076433Y0089712D01*
X0076496Y0089702D01*
X0076559Y0089696D01*
X0076622Y0089694D01*
X0077650Y0089694D01*
X0076417Y0089694D02*
X0075594Y0088050D01*
X0074072Y0088050D02*
X0073045Y0088050D01*
X0072982Y0088052D01*
X0072919Y0088058D01*
X0072856Y0088068D01*
X0072794Y0088081D01*
X0072733Y0088098D01*
X0072674Y0088119D01*
X0072615Y0088144D01*
X0072559Y0088172D01*
X0072504Y0088204D01*
X0072451Y0088239D01*
X0072401Y0088277D01*
X0072352Y0088318D01*
X0072307Y0088362D01*
X0072264Y0088409D01*
X0072225Y0088458D01*
X0072188Y0088510D01*
X0072155Y0088564D01*
X0072125Y0088620D01*
X0072098Y0088677D01*
X0072075Y0088736D01*
X0072056Y0088797D01*
X0072041Y0088858D01*
X0072029Y0088920D01*
X0072021Y0088983D01*
X0072017Y0089046D01*
X0072017Y0089110D01*
X0072021Y0089173D01*
X0072029Y0089236D01*
X0072041Y0089298D01*
X0072056Y0089359D01*
X0072075Y0089420D01*
X0072098Y0089479D01*
X0072125Y0089536D01*
X0072155Y0089592D01*
X0072188Y0089646D01*
X0072225Y0089698D01*
X0072264Y0089747D01*
X0072307Y0089794D01*
X0072352Y0089838D01*
X0072401Y0089879D01*
X0072451Y0089917D01*
X0072504Y0089952D01*
X0072559Y0089984D01*
X0072615Y0090012D01*
X0072674Y0090037D01*
X0072733Y0090058D01*
X0072794Y0090075D01*
X0072856Y0090088D01*
X0072919Y0090098D01*
X0072982Y0090104D01*
X0073045Y0090106D01*
X0072839Y0090106D02*
X0073661Y0090106D01*
X0072839Y0090106D02*
X0072783Y0090108D01*
X0072727Y0090114D01*
X0072672Y0090123D01*
X0072617Y0090136D01*
X0072564Y0090153D01*
X0072512Y0090174D01*
X0072461Y0090198D01*
X0072412Y0090226D01*
X0072365Y0090256D01*
X0072320Y0090290D01*
X0072278Y0090327D01*
X0072238Y0090367D01*
X0072201Y0090409D01*
X0072167Y0090454D01*
X0072137Y0090501D01*
X0072109Y0090550D01*
X0072085Y0090601D01*
X0072064Y0090653D01*
X0072047Y0090706D01*
X0072034Y0090761D01*
X0072025Y0090816D01*
X0072019Y0090872D01*
X0072017Y0090928D01*
X0072019Y0090984D01*
X0072025Y0091040D01*
X0072034Y0091095D01*
X0072047Y0091150D01*
X0072064Y0091203D01*
X0072085Y0091255D01*
X0072109Y0091306D01*
X0072137Y0091355D01*
X0072167Y0091402D01*
X0072201Y0091447D01*
X0072238Y0091489D01*
X0072278Y0091529D01*
X0072320Y0091566D01*
X0072365Y0091600D01*
X0072412Y0091630D01*
X0072461Y0091658D01*
X0072512Y0091682D01*
X0072564Y0091703D01*
X0072617Y0091720D01*
X0072672Y0091733D01*
X0072727Y0091742D01*
X0072783Y0091748D01*
X0072839Y0091750D01*
X0074072Y0091750D01*
X0077650Y0091750D02*
X0077650Y0088050D01*
X0061196Y0087753D02*
X0061196Y0089809D01*
X0061194Y0089865D01*
X0061188Y0089921D01*
X0061179Y0089976D01*
X0061166Y0090031D01*
X0061149Y0090084D01*
X0061128Y0090136D01*
X0061104Y0090187D01*
X0061076Y0090236D01*
X0061046Y0090283D01*
X0061012Y0090328D01*
X0060975Y0090370D01*
X0060935Y0090410D01*
X0060893Y0090447D01*
X0060848Y0090481D01*
X0060801Y0090511D01*
X0060752Y0090539D01*
X0060701Y0090563D01*
X0060649Y0090584D01*
X0060596Y0090601D01*
X0060541Y0090614D01*
X0060486Y0090623D01*
X0060430Y0090629D01*
X0060374Y0090631D01*
X0059552Y0090631D01*
X0058306Y0090631D02*
X0056251Y0090631D01*
X0058306Y0086931D01*
X0056251Y0086931D01*
X0054826Y0086931D02*
X0052771Y0086931D01*
X0054826Y0086931D02*
X0053079Y0088987D01*
X0053696Y0090631D02*
X0053764Y0090629D01*
X0053832Y0090623D01*
X0053899Y0090614D01*
X0053965Y0090600D01*
X0054031Y0090583D01*
X0054096Y0090562D01*
X0054159Y0090537D01*
X0054221Y0090509D01*
X0054281Y0090477D01*
X0054339Y0090442D01*
X0054395Y0090404D01*
X0054449Y0090362D01*
X0054500Y0090318D01*
X0054548Y0090270D01*
X0054594Y0090220D01*
X0054637Y0090168D01*
X0054677Y0090113D01*
X0054714Y0090056D01*
X0054747Y0089997D01*
X0054777Y0089936D01*
X0054803Y0089873D01*
X0054826Y0089809D01*
X0053078Y0088986D02*
X0053035Y0089030D01*
X0052994Y0089077D01*
X0052957Y0089126D01*
X0052922Y0089177D01*
X0052891Y0089231D01*
X0052863Y0089286D01*
X0052839Y0089343D01*
X0052818Y0089401D01*
X0052801Y0089461D01*
X0052787Y0089521D01*
X0052778Y0089582D01*
X0052772Y0089644D01*
X0052770Y0089706D01*
X0052771Y0089706D02*
X0052773Y0089764D01*
X0052778Y0089822D01*
X0052787Y0089879D01*
X0052800Y0089936D01*
X0052816Y0089992D01*
X0052836Y0090047D01*
X0052859Y0090100D01*
X0052885Y0090152D01*
X0052915Y0090202D01*
X0052948Y0090250D01*
X0052983Y0090296D01*
X0053022Y0090339D01*
X0053063Y0090380D01*
X0053106Y0090419D01*
X0053152Y0090454D01*
X0053200Y0090487D01*
X0053250Y0090517D01*
X0053302Y0090543D01*
X0053355Y0090566D01*
X0053410Y0090586D01*
X0053466Y0090602D01*
X0053523Y0090615D01*
X0053580Y0090624D01*
X0053638Y0090629D01*
X0053696Y0090631D01*
X0060374Y0086931D02*
X0060430Y0086933D01*
X0060486Y0086939D01*
X0060541Y0086948D01*
X0060596Y0086961D01*
X0060649Y0086978D01*
X0060701Y0086999D01*
X0060752Y0087023D01*
X0060801Y0087051D01*
X0060848Y0087081D01*
X0060893Y0087115D01*
X0060935Y0087152D01*
X0060975Y0087192D01*
X0061012Y0087234D01*
X0061046Y0087279D01*
X0061076Y0087326D01*
X0061104Y0087375D01*
X0061128Y0087426D01*
X0061149Y0087478D01*
X0061166Y0087531D01*
X0061179Y0087586D01*
X0061188Y0087641D01*
X0061194Y0087697D01*
X0061196Y0087753D01*
X0060374Y0086931D02*
X0059552Y0086931D01*
X0044150Y0081650D02*
X0043122Y0081650D01*
X0043059Y0081648D01*
X0042996Y0081642D01*
X0042933Y0081632D01*
X0042871Y0081619D01*
X0042810Y0081602D01*
X0042751Y0081581D01*
X0042692Y0081556D01*
X0042636Y0081528D01*
X0042581Y0081496D01*
X0042528Y0081461D01*
X0042478Y0081423D01*
X0042429Y0081382D01*
X0042384Y0081338D01*
X0042341Y0081291D01*
X0042302Y0081242D01*
X0042265Y0081190D01*
X0042232Y0081136D01*
X0042202Y0081080D01*
X0042175Y0081023D01*
X0042152Y0080964D01*
X0042133Y0080903D01*
X0042118Y0080842D01*
X0042106Y0080780D01*
X0042098Y0080717D01*
X0042094Y0080654D01*
X0042094Y0080590D01*
X0042098Y0080527D01*
X0042106Y0080464D01*
X0042118Y0080402D01*
X0042133Y0080341D01*
X0042152Y0080280D01*
X0042175Y0080221D01*
X0042202Y0080164D01*
X0042232Y0080108D01*
X0042265Y0080054D01*
X0042302Y0080002D01*
X0042341Y0079953D01*
X0042384Y0079906D01*
X0042429Y0079862D01*
X0042478Y0079821D01*
X0042528Y0079783D01*
X0042581Y0079748D01*
X0042636Y0079716D01*
X0042692Y0079688D01*
X0042751Y0079663D01*
X0042810Y0079642D01*
X0042871Y0079625D01*
X0042933Y0079612D01*
X0042996Y0079602D01*
X0043059Y0079596D01*
X0043122Y0079594D01*
X0044150Y0079594D01*
X0042917Y0079594D02*
X0042094Y0077950D01*
X0040572Y0077950D02*
X0038517Y0077950D01*
X0040572Y0077950D02*
X0038825Y0080006D01*
X0039442Y0081650D02*
X0039510Y0081648D01*
X0039578Y0081642D01*
X0039645Y0081633D01*
X0039711Y0081619D01*
X0039777Y0081602D01*
X0039842Y0081581D01*
X0039905Y0081556D01*
X0039967Y0081528D01*
X0040027Y0081496D01*
X0040085Y0081461D01*
X0040141Y0081423D01*
X0040195Y0081381D01*
X0040246Y0081337D01*
X0040294Y0081289D01*
X0040340Y0081239D01*
X0040383Y0081187D01*
X0040423Y0081132D01*
X0040460Y0081075D01*
X0040493Y0081016D01*
X0040523Y0080955D01*
X0040549Y0080892D01*
X0040572Y0080828D01*
X0038824Y0080005D02*
X0038781Y0080049D01*
X0038740Y0080096D01*
X0038703Y0080145D01*
X0038668Y0080196D01*
X0038637Y0080250D01*
X0038609Y0080305D01*
X0038585Y0080362D01*
X0038564Y0080420D01*
X0038547Y0080480D01*
X0038533Y0080540D01*
X0038524Y0080601D01*
X0038518Y0080663D01*
X0038516Y0080725D01*
X0038517Y0080725D02*
X0038519Y0080783D01*
X0038524Y0080841D01*
X0038533Y0080898D01*
X0038546Y0080955D01*
X0038562Y0081011D01*
X0038582Y0081066D01*
X0038605Y0081119D01*
X0038631Y0081171D01*
X0038661Y0081221D01*
X0038694Y0081269D01*
X0038729Y0081315D01*
X0038768Y0081358D01*
X0038809Y0081399D01*
X0038852Y0081438D01*
X0038898Y0081473D01*
X0038946Y0081506D01*
X0038996Y0081536D01*
X0039048Y0081562D01*
X0039101Y0081585D01*
X0039156Y0081605D01*
X0039212Y0081621D01*
X0039269Y0081634D01*
X0039326Y0081643D01*
X0039384Y0081648D01*
X0039442Y0081650D01*
X0044150Y0081650D02*
X0044150Y0077950D01*
X0050512Y0090913D02*
X0048842Y0090215D01*
X0047188Y0089476D01*
X0045553Y0088697D01*
X0043938Y0087879D01*
X0042342Y0087022D01*
X0040768Y0086126D01*
X0039216Y0085193D01*
X0037687Y0084222D01*
X0036182Y0083215D01*
X0034702Y0082171D01*
X0033248Y0081092D01*
X0031820Y0079978D01*
X0030420Y0078829D01*
X0029048Y0077647D01*
X0027705Y0076433D01*
X0026391Y0075186D01*
X0025109Y0073907D01*
X0023857Y0072598D01*
X0022638Y0071259D01*
X0021452Y0069890D01*
X0020299Y0068494D01*
X0019180Y0067070D01*
X0018096Y0065619D01*
X0017048Y0064142D01*
X0042245Y0052332D02*
X0046419Y0054552D01*
X0050646Y0056668D01*
X0054923Y0058681D01*
X0059249Y0060589D01*
X0063620Y0062390D01*
X0068033Y0064084D01*
X0072487Y0065669D01*
X0076978Y0067145D01*
X0081504Y0068510D01*
X0086062Y0069765D01*
X0090650Y0070908D01*
X0095264Y0071938D01*
X0099901Y0072855D01*
X0104560Y0073658D01*
X0109237Y0074347D01*
X0113930Y0074921D01*
X0118635Y0075381D01*
X0123350Y0075725D01*
X0128071Y0075954D01*
X0237917Y0109904D02*
X0237919Y0109841D01*
X0237925Y0109778D01*
X0237935Y0109715D01*
X0237948Y0109653D01*
X0237965Y0109592D01*
X0237986Y0109533D01*
X0238011Y0109474D01*
X0238039Y0109418D01*
X0238071Y0109363D01*
X0238106Y0109310D01*
X0238144Y0109260D01*
X0238185Y0109211D01*
X0238229Y0109166D01*
X0238276Y0109123D01*
X0238325Y0109084D01*
X0238377Y0109047D01*
X0238431Y0109014D01*
X0238487Y0108984D01*
X0238544Y0108957D01*
X0238603Y0108934D01*
X0238664Y0108915D01*
X0238725Y0108900D01*
X0238787Y0108888D01*
X0238850Y0108880D01*
X0238913Y0108876D01*
X0238977Y0108876D01*
X0239040Y0108880D01*
X0239103Y0108888D01*
X0239165Y0108900D01*
X0239226Y0108915D01*
X0239287Y0108934D01*
X0239346Y0108957D01*
X0239403Y0108984D01*
X0239459Y0109014D01*
X0239513Y0109047D01*
X0239565Y0109084D01*
X0239614Y0109123D01*
X0239661Y0109166D01*
X0239705Y0109211D01*
X0239746Y0109260D01*
X0239784Y0109310D01*
X0239819Y0109363D01*
X0239851Y0109418D01*
X0239879Y0109474D01*
X0239904Y0109533D01*
X0239925Y0109592D01*
X0239942Y0109653D01*
X0239955Y0109715D01*
X0239965Y0109778D01*
X0239971Y0109841D01*
X0239973Y0109904D01*
X0239971Y0109967D01*
X0239965Y0110030D01*
X0239955Y0110093D01*
X0239942Y0110155D01*
X0239925Y0110216D01*
X0239904Y0110275D01*
X0239879Y0110334D01*
X0239851Y0110390D01*
X0239819Y0110445D01*
X0239784Y0110498D01*
X0239746Y0110548D01*
X0239705Y0110597D01*
X0239661Y0110642D01*
X0239614Y0110685D01*
X0239565Y0110724D01*
X0239513Y0110761D01*
X0239459Y0110794D01*
X0239403Y0110824D01*
X0239346Y0110851D01*
X0239287Y0110874D01*
X0239226Y0110893D01*
X0239165Y0110908D01*
X0239103Y0110920D01*
X0239040Y0110928D01*
X0238977Y0110932D01*
X0238913Y0110932D01*
X0238850Y0110928D01*
X0238787Y0110920D01*
X0238725Y0110908D01*
X0238664Y0110893D01*
X0238603Y0110874D01*
X0238544Y0110851D01*
X0238487Y0110824D01*
X0238431Y0110794D01*
X0238377Y0110761D01*
X0238325Y0110724D01*
X0238276Y0110685D01*
X0238229Y0110642D01*
X0238185Y0110597D01*
X0238144Y0110548D01*
X0238106Y0110498D01*
X0238071Y0110445D01*
X0238039Y0110390D01*
X0238011Y0110334D01*
X0237986Y0110275D01*
X0237965Y0110216D01*
X0237948Y0110155D01*
X0237935Y0110093D01*
X0237925Y0110030D01*
X0237919Y0109967D01*
X0237917Y0109904D01*
X0238123Y0111754D02*
X0238125Y0111698D01*
X0238131Y0111642D01*
X0238140Y0111587D01*
X0238153Y0111532D01*
X0238170Y0111479D01*
X0238191Y0111427D01*
X0238215Y0111376D01*
X0238243Y0111327D01*
X0238273Y0111280D01*
X0238307Y0111235D01*
X0238344Y0111193D01*
X0238384Y0111153D01*
X0238426Y0111116D01*
X0238471Y0111082D01*
X0238518Y0111052D01*
X0238567Y0111024D01*
X0238618Y0111000D01*
X0238670Y0110979D01*
X0238723Y0110962D01*
X0238778Y0110949D01*
X0238833Y0110940D01*
X0238889Y0110934D01*
X0238945Y0110932D01*
X0239001Y0110934D01*
X0239057Y0110940D01*
X0239112Y0110949D01*
X0239167Y0110962D01*
X0239220Y0110979D01*
X0239272Y0111000D01*
X0239323Y0111024D01*
X0239372Y0111052D01*
X0239419Y0111082D01*
X0239464Y0111116D01*
X0239506Y0111153D01*
X0239546Y0111193D01*
X0239583Y0111235D01*
X0239617Y0111280D01*
X0239647Y0111327D01*
X0239675Y0111376D01*
X0239699Y0111427D01*
X0239720Y0111479D01*
X0239737Y0111532D01*
X0239750Y0111587D01*
X0239759Y0111642D01*
X0239765Y0111698D01*
X0239767Y0111754D01*
X0239765Y0111810D01*
X0239759Y0111866D01*
X0239750Y0111921D01*
X0239737Y0111976D01*
X0239720Y0112029D01*
X0239699Y0112081D01*
X0239675Y0112132D01*
X0239647Y0112181D01*
X0239617Y0112228D01*
X0239583Y0112273D01*
X0239546Y0112315D01*
X0239506Y0112355D01*
X0239464Y0112392D01*
X0239419Y0112426D01*
X0239372Y0112456D01*
X0239323Y0112484D01*
X0239272Y0112508D01*
X0239220Y0112529D01*
X0239167Y0112546D01*
X0239112Y0112559D01*
X0239057Y0112568D01*
X0239001Y0112574D01*
X0238945Y0112576D01*
X0238889Y0112574D01*
X0238833Y0112568D01*
X0238778Y0112559D01*
X0238723Y0112546D01*
X0238670Y0112529D01*
X0238618Y0112508D01*
X0238567Y0112484D01*
X0238518Y0112456D01*
X0238471Y0112426D01*
X0238426Y0112392D01*
X0238384Y0112355D01*
X0238344Y0112315D01*
X0238307Y0112273D01*
X0238273Y0112228D01*
X0238243Y0112181D01*
X0238215Y0112132D01*
X0238191Y0112081D01*
X0238170Y0112029D01*
X0238153Y0111976D01*
X0238140Y0111921D01*
X0238131Y0111866D01*
X0238125Y0111810D01*
X0238123Y0111754D01*
X0241397Y0112576D02*
X0243453Y0108876D01*
X0241397Y0108876D01*
X0244698Y0108876D02*
X0245521Y0108876D01*
X0245577Y0108878D01*
X0245633Y0108884D01*
X0245688Y0108893D01*
X0245743Y0108906D01*
X0245796Y0108923D01*
X0245848Y0108944D01*
X0245899Y0108968D01*
X0245948Y0108996D01*
X0245995Y0109026D01*
X0246040Y0109060D01*
X0246082Y0109097D01*
X0246122Y0109137D01*
X0246159Y0109179D01*
X0246193Y0109224D01*
X0246223Y0109271D01*
X0246251Y0109320D01*
X0246275Y0109371D01*
X0246296Y0109423D01*
X0246313Y0109476D01*
X0246326Y0109531D01*
X0246335Y0109586D01*
X0246341Y0109642D01*
X0246343Y0109698D01*
X0246343Y0111754D01*
X0246341Y0111810D01*
X0246335Y0111866D01*
X0246326Y0111921D01*
X0246313Y0111976D01*
X0246296Y0112029D01*
X0246275Y0112081D01*
X0246251Y0112132D01*
X0246223Y0112181D01*
X0246193Y0112228D01*
X0246159Y0112273D01*
X0246122Y0112315D01*
X0246082Y0112355D01*
X0246040Y0112392D01*
X0245995Y0112426D01*
X0245948Y0112456D01*
X0245899Y0112484D01*
X0245848Y0112508D01*
X0245796Y0112529D01*
X0245743Y0112546D01*
X0245688Y0112559D01*
X0245633Y0112568D01*
X0245577Y0112574D01*
X0245521Y0112576D01*
X0244698Y0112576D01*
X0243453Y0112576D02*
X0241397Y0112576D01*
X0262917Y0102922D02*
X0262917Y0101894D01*
X0264150Y0101894D01*
X0262917Y0101894D02*
X0262919Y0101816D01*
X0262924Y0101738D01*
X0262934Y0101660D01*
X0262947Y0101583D01*
X0262963Y0101506D01*
X0262984Y0101431D01*
X0263007Y0101356D01*
X0263035Y0101283D01*
X0263066Y0101211D01*
X0263100Y0101141D01*
X0263137Y0101072D01*
X0263178Y0101005D01*
X0263222Y0100940D01*
X0263269Y0100878D01*
X0263319Y0100817D01*
X0263371Y0100760D01*
X0263427Y0100704D01*
X0263484Y0100652D01*
X0263545Y0100602D01*
X0263607Y0100555D01*
X0263672Y0100511D01*
X0263739Y0100470D01*
X0263808Y0100433D01*
X0263878Y0100399D01*
X0263950Y0100368D01*
X0264023Y0100340D01*
X0264098Y0100317D01*
X0264173Y0100296D01*
X0264250Y0100280D01*
X0264327Y0100267D01*
X0264405Y0100257D01*
X0264483Y0100252D01*
X0264561Y0100250D01*
X0266494Y0100250D02*
X0267317Y0101894D01*
X0267522Y0101894D02*
X0268550Y0101894D01*
X0267522Y0101894D02*
X0267459Y0101896D01*
X0267396Y0101902D01*
X0267333Y0101912D01*
X0267271Y0101925D01*
X0267210Y0101942D01*
X0267151Y0101963D01*
X0267092Y0101988D01*
X0267036Y0102016D01*
X0266981Y0102048D01*
X0266928Y0102083D01*
X0266878Y0102121D01*
X0266829Y0102162D01*
X0266784Y0102206D01*
X0266741Y0102253D01*
X0266702Y0102302D01*
X0266665Y0102354D01*
X0266632Y0102408D01*
X0266602Y0102464D01*
X0266575Y0102521D01*
X0266552Y0102580D01*
X0266533Y0102641D01*
X0266518Y0102702D01*
X0266506Y0102764D01*
X0266498Y0102827D01*
X0266494Y0102890D01*
X0266494Y0102954D01*
X0266498Y0103017D01*
X0266506Y0103080D01*
X0266518Y0103142D01*
X0266533Y0103203D01*
X0266552Y0103264D01*
X0266575Y0103323D01*
X0266602Y0103380D01*
X0266632Y0103436D01*
X0266665Y0103490D01*
X0266702Y0103542D01*
X0266741Y0103591D01*
X0266784Y0103638D01*
X0266829Y0103682D01*
X0266878Y0103723D01*
X0266928Y0103761D01*
X0266981Y0103796D01*
X0267036Y0103828D01*
X0267092Y0103856D01*
X0267151Y0103881D01*
X0267210Y0103902D01*
X0267271Y0103919D01*
X0267333Y0103932D01*
X0267396Y0103942D01*
X0267459Y0103948D01*
X0267522Y0103950D01*
X0268550Y0103950D01*
X0268550Y0100250D01*
X0264972Y0102717D02*
X0264972Y0102922D01*
X0264972Y0102717D02*
X0264970Y0102661D01*
X0264964Y0102605D01*
X0264955Y0102550D01*
X0264942Y0102495D01*
X0264925Y0102442D01*
X0264904Y0102390D01*
X0264880Y0102339D01*
X0264852Y0102290D01*
X0264822Y0102243D01*
X0264788Y0102198D01*
X0264751Y0102156D01*
X0264711Y0102116D01*
X0264669Y0102079D01*
X0264624Y0102045D01*
X0264577Y0102015D01*
X0264528Y0101987D01*
X0264477Y0101963D01*
X0264425Y0101942D01*
X0264372Y0101925D01*
X0264317Y0101912D01*
X0264262Y0101903D01*
X0264206Y0101897D01*
X0264150Y0101895D01*
X0264973Y0102922D02*
X0264971Y0102985D01*
X0264965Y0103048D01*
X0264955Y0103111D01*
X0264942Y0103173D01*
X0264925Y0103234D01*
X0264904Y0103293D01*
X0264879Y0103352D01*
X0264851Y0103408D01*
X0264819Y0103463D01*
X0264784Y0103516D01*
X0264746Y0103566D01*
X0264705Y0103615D01*
X0264661Y0103660D01*
X0264614Y0103703D01*
X0264565Y0103742D01*
X0264513Y0103779D01*
X0264459Y0103812D01*
X0264403Y0103842D01*
X0264346Y0103869D01*
X0264287Y0103892D01*
X0264226Y0103911D01*
X0264165Y0103926D01*
X0264103Y0103938D01*
X0264040Y0103946D01*
X0263977Y0103950D01*
X0263913Y0103950D01*
X0263850Y0103946D01*
X0263787Y0103938D01*
X0263725Y0103926D01*
X0263664Y0103911D01*
X0263603Y0103892D01*
X0263544Y0103869D01*
X0263487Y0103842D01*
X0263431Y0103812D01*
X0263377Y0103779D01*
X0263325Y0103742D01*
X0263276Y0103703D01*
X0263229Y0103660D01*
X0263185Y0103615D01*
X0263144Y0103566D01*
X0263106Y0103516D01*
X0263071Y0103463D01*
X0263039Y0103408D01*
X0263011Y0103352D01*
X0262986Y0103293D01*
X0262965Y0103234D01*
X0262948Y0103173D01*
X0262935Y0103111D01*
X0262925Y0103048D01*
X0262919Y0102985D01*
X0262917Y0102922D01*
X0272223Y0104485D02*
X0272223Y0105513D01*
X0272225Y0105576D01*
X0272231Y0105639D01*
X0272241Y0105702D01*
X0272254Y0105764D01*
X0272271Y0105825D01*
X0272292Y0105884D01*
X0272317Y0105943D01*
X0272345Y0105999D01*
X0272377Y0106054D01*
X0272412Y0106107D01*
X0272450Y0106157D01*
X0272491Y0106206D01*
X0272535Y0106251D01*
X0272582Y0106294D01*
X0272631Y0106333D01*
X0272683Y0106370D01*
X0272737Y0106403D01*
X0272793Y0106433D01*
X0272850Y0106460D01*
X0272909Y0106483D01*
X0272970Y0106502D01*
X0273031Y0106517D01*
X0273093Y0106529D01*
X0273156Y0106537D01*
X0273219Y0106541D01*
X0273283Y0106541D01*
X0273346Y0106537D01*
X0273409Y0106529D01*
X0273471Y0106517D01*
X0273532Y0106502D01*
X0273593Y0106483D01*
X0273652Y0106460D01*
X0273709Y0106433D01*
X0273765Y0106403D01*
X0273819Y0106370D01*
X0273871Y0106333D01*
X0273920Y0106294D01*
X0273967Y0106251D01*
X0274011Y0106206D01*
X0274052Y0106157D01*
X0274090Y0106107D01*
X0274125Y0106054D01*
X0274157Y0105999D01*
X0274185Y0105943D01*
X0274210Y0105884D01*
X0274231Y0105825D01*
X0274248Y0105764D01*
X0274261Y0105702D01*
X0274271Y0105639D01*
X0274277Y0105576D01*
X0274279Y0105513D01*
X0274278Y0105513D02*
X0274278Y0105307D01*
X0274276Y0105251D01*
X0274270Y0105195D01*
X0274261Y0105140D01*
X0274248Y0105085D01*
X0274231Y0105032D01*
X0274210Y0104980D01*
X0274186Y0104929D01*
X0274158Y0104880D01*
X0274128Y0104833D01*
X0274094Y0104788D01*
X0274057Y0104746D01*
X0274017Y0104706D01*
X0273975Y0104669D01*
X0273930Y0104635D01*
X0273883Y0104605D01*
X0273834Y0104577D01*
X0273783Y0104553D01*
X0273731Y0104532D01*
X0273678Y0104515D01*
X0273623Y0104502D01*
X0273568Y0104493D01*
X0273512Y0104487D01*
X0273456Y0104485D01*
X0272223Y0104485D01*
X0272225Y0104407D01*
X0272230Y0104329D01*
X0272240Y0104251D01*
X0272253Y0104174D01*
X0272269Y0104097D01*
X0272290Y0104022D01*
X0272313Y0103947D01*
X0272341Y0103874D01*
X0272372Y0103802D01*
X0272406Y0103732D01*
X0272443Y0103663D01*
X0272484Y0103596D01*
X0272528Y0103531D01*
X0272575Y0103469D01*
X0272625Y0103408D01*
X0272677Y0103351D01*
X0272733Y0103295D01*
X0272790Y0103243D01*
X0272851Y0103193D01*
X0272913Y0103146D01*
X0272978Y0103102D01*
X0273045Y0103061D01*
X0273114Y0103024D01*
X0273184Y0102990D01*
X0273256Y0102959D01*
X0273329Y0102931D01*
X0273404Y0102908D01*
X0273479Y0102887D01*
X0273556Y0102871D01*
X0273633Y0102858D01*
X0273711Y0102848D01*
X0273789Y0102843D01*
X0273867Y0102841D01*
X0275703Y0102841D02*
X0277758Y0102841D01*
X0275703Y0106541D01*
X0277758Y0106541D01*
X0279004Y0106541D02*
X0279826Y0106541D01*
X0279826Y0106540D02*
X0279882Y0106538D01*
X0279938Y0106532D01*
X0279993Y0106523D01*
X0280048Y0106510D01*
X0280101Y0106493D01*
X0280153Y0106472D01*
X0280204Y0106448D01*
X0280253Y0106420D01*
X0280300Y0106390D01*
X0280345Y0106356D01*
X0280387Y0106319D01*
X0280427Y0106279D01*
X0280464Y0106237D01*
X0280498Y0106192D01*
X0280528Y0106145D01*
X0280556Y0106096D01*
X0280580Y0106045D01*
X0280601Y0105993D01*
X0280618Y0105940D01*
X0280631Y0105885D01*
X0280640Y0105830D01*
X0280646Y0105774D01*
X0280648Y0105718D01*
X0280648Y0103663D01*
X0280646Y0103607D01*
X0280640Y0103551D01*
X0280631Y0103496D01*
X0280618Y0103441D01*
X0280601Y0103388D01*
X0280580Y0103336D01*
X0280556Y0103285D01*
X0280528Y0103236D01*
X0280498Y0103189D01*
X0280464Y0103144D01*
X0280427Y0103102D01*
X0280387Y0103062D01*
X0280345Y0103025D01*
X0280300Y0102991D01*
X0280253Y0102961D01*
X0280204Y0102933D01*
X0280153Y0102909D01*
X0280101Y0102888D01*
X0280048Y0102871D01*
X0279993Y0102858D01*
X0279938Y0102849D01*
X0279882Y0102843D01*
X0279826Y0102841D01*
X0279004Y0102841D01*
X0287850Y0103283D02*
X0287850Y0101228D01*
X0287850Y0102255D02*
X0291550Y0102255D01*
X0290728Y0101228D01*
X0289906Y0099375D02*
X0287850Y0097628D01*
X0287850Y0099683D01*
X0290728Y0097628D02*
X0290792Y0097651D01*
X0290855Y0097677D01*
X0290916Y0097707D01*
X0290975Y0097740D01*
X0291032Y0097777D01*
X0291087Y0097817D01*
X0291139Y0097860D01*
X0291189Y0097906D01*
X0291237Y0097954D01*
X0291281Y0098006D01*
X0291323Y0098059D01*
X0291361Y0098115D01*
X0291396Y0098173D01*
X0291428Y0098233D01*
X0291456Y0098295D01*
X0291481Y0098358D01*
X0291502Y0098423D01*
X0291519Y0098489D01*
X0291533Y0098555D01*
X0291542Y0098622D01*
X0291548Y0098690D01*
X0291550Y0098758D01*
X0291548Y0098816D01*
X0291543Y0098874D01*
X0291534Y0098931D01*
X0291521Y0098988D01*
X0291505Y0099044D01*
X0291485Y0099099D01*
X0291462Y0099152D01*
X0291436Y0099204D01*
X0291406Y0099254D01*
X0291373Y0099302D01*
X0291338Y0099348D01*
X0291299Y0099391D01*
X0291258Y0099432D01*
X0291215Y0099471D01*
X0291169Y0099506D01*
X0291121Y0099539D01*
X0291071Y0099569D01*
X0291019Y0099595D01*
X0290966Y0099618D01*
X0290911Y0099638D01*
X0290855Y0099654D01*
X0290798Y0099667D01*
X0290741Y0099676D01*
X0290683Y0099681D01*
X0290625Y0099683D01*
X0290625Y0099684D02*
X0290563Y0099682D01*
X0290501Y0099676D01*
X0290440Y0099667D01*
X0290380Y0099653D01*
X0290320Y0099636D01*
X0290262Y0099615D01*
X0290205Y0099591D01*
X0290150Y0099563D01*
X0290096Y0099532D01*
X0290045Y0099497D01*
X0289996Y0099460D01*
X0289949Y0099419D01*
X0289905Y0099376D01*
X0287850Y0096106D02*
X0289494Y0095283D01*
X0289494Y0095078D02*
X0289494Y0094050D01*
X0289494Y0095078D02*
X0289496Y0095141D01*
X0289502Y0095204D01*
X0289512Y0095267D01*
X0289525Y0095329D01*
X0289542Y0095390D01*
X0289563Y0095449D01*
X0289588Y0095508D01*
X0289616Y0095564D01*
X0289648Y0095619D01*
X0289683Y0095672D01*
X0289721Y0095722D01*
X0289762Y0095771D01*
X0289806Y0095816D01*
X0289853Y0095859D01*
X0289902Y0095898D01*
X0289954Y0095935D01*
X0290008Y0095968D01*
X0290064Y0095998D01*
X0290121Y0096025D01*
X0290180Y0096048D01*
X0290241Y0096067D01*
X0290302Y0096082D01*
X0290364Y0096094D01*
X0290427Y0096102D01*
X0290490Y0096106D01*
X0290554Y0096106D01*
X0290617Y0096102D01*
X0290680Y0096094D01*
X0290742Y0096082D01*
X0290803Y0096067D01*
X0290864Y0096048D01*
X0290923Y0096025D01*
X0290980Y0095998D01*
X0291036Y0095968D01*
X0291090Y0095935D01*
X0291142Y0095898D01*
X0291191Y0095859D01*
X0291238Y0095816D01*
X0291282Y0095771D01*
X0291323Y0095722D01*
X0291361Y0095672D01*
X0291396Y0095619D01*
X0291428Y0095564D01*
X0291456Y0095508D01*
X0291481Y0095449D01*
X0291502Y0095390D01*
X0291519Y0095329D01*
X0291532Y0095267D01*
X0291542Y0095204D01*
X0291548Y0095141D01*
X0291550Y0095078D01*
X0291550Y0094050D01*
X0287850Y0094050D01*
X0296550Y0093617D02*
X0300250Y0093617D01*
X0300250Y0094645D01*
X0300248Y0094708D01*
X0300242Y0094771D01*
X0300232Y0094834D01*
X0300219Y0094896D01*
X0300202Y0094957D01*
X0300181Y0095016D01*
X0300156Y0095075D01*
X0300128Y0095131D01*
X0300096Y0095186D01*
X0300061Y0095239D01*
X0300023Y0095289D01*
X0299982Y0095338D01*
X0299938Y0095383D01*
X0299891Y0095426D01*
X0299842Y0095465D01*
X0299790Y0095502D01*
X0299736Y0095535D01*
X0299680Y0095565D01*
X0299623Y0095592D01*
X0299564Y0095615D01*
X0299503Y0095634D01*
X0299442Y0095649D01*
X0299380Y0095661D01*
X0299317Y0095669D01*
X0299254Y0095673D01*
X0299190Y0095673D01*
X0299127Y0095669D01*
X0299064Y0095661D01*
X0299002Y0095649D01*
X0298941Y0095634D01*
X0298880Y0095615D01*
X0298821Y0095592D01*
X0298764Y0095565D01*
X0298708Y0095535D01*
X0298654Y0095502D01*
X0298602Y0095465D01*
X0298553Y0095426D01*
X0298506Y0095383D01*
X0298462Y0095338D01*
X0298421Y0095289D01*
X0298383Y0095239D01*
X0298348Y0095186D01*
X0298316Y0095131D01*
X0298288Y0095075D01*
X0298263Y0095016D01*
X0298242Y0094957D01*
X0298225Y0094896D01*
X0298212Y0094834D01*
X0298202Y0094771D01*
X0298196Y0094708D01*
X0298194Y0094645D01*
X0298194Y0093617D01*
X0298194Y0094850D02*
X0296550Y0095672D01*
X0296550Y0097194D02*
X0296550Y0099250D01*
X0296550Y0098222D02*
X0300250Y0098222D01*
X0299428Y0097194D01*
X0303676Y0096619D02*
X0303721Y0096715D01*
X0303762Y0096813D01*
X0303800Y0096913D01*
X0303835Y0097013D01*
X0303866Y0097115D01*
X0303894Y0097218D01*
X0303917Y0097321D01*
X0303938Y0097426D01*
X0303954Y0097531D01*
X0303967Y0097636D01*
X0303977Y0097742D01*
X0303982Y0097849D01*
X0303984Y0097955D01*
X0301928Y0097955D02*
X0301930Y0098061D01*
X0301935Y0098168D01*
X0301945Y0098274D01*
X0301958Y0098379D01*
X0301974Y0098484D01*
X0301995Y0098589D01*
X0302018Y0098692D01*
X0302046Y0098795D01*
X0302077Y0098897D01*
X0302112Y0098997D01*
X0302150Y0099097D01*
X0302191Y0099195D01*
X0302236Y0099291D01*
X0302134Y0098983D02*
X0303778Y0096927D01*
X0302956Y0096105D02*
X0302904Y0096107D01*
X0302851Y0096112D01*
X0302800Y0096121D01*
X0302749Y0096134D01*
X0302699Y0096150D01*
X0302650Y0096169D01*
X0302603Y0096192D01*
X0302557Y0096218D01*
X0302514Y0096247D01*
X0302472Y0096279D01*
X0302433Y0096313D01*
X0302396Y0096351D01*
X0302362Y0096391D01*
X0302331Y0096433D01*
X0302302Y0096477D01*
X0302277Y0096523D01*
X0302255Y0096570D01*
X0302236Y0096619D01*
X0302956Y0096105D02*
X0303008Y0096107D01*
X0303061Y0096112D01*
X0303112Y0096121D01*
X0303163Y0096134D01*
X0303213Y0096150D01*
X0303262Y0096169D01*
X0303309Y0096192D01*
X0303355Y0096218D01*
X0303398Y0096247D01*
X0303440Y0096279D01*
X0303479Y0096313D01*
X0303516Y0096351D01*
X0303550Y0096391D01*
X0303582Y0096433D01*
X0303610Y0096477D01*
X0303635Y0096523D01*
X0303657Y0096570D01*
X0303676Y0096619D01*
X0302236Y0096619D02*
X0302191Y0096715D01*
X0302150Y0096813D01*
X0302112Y0096913D01*
X0302077Y0097013D01*
X0302046Y0097115D01*
X0302018Y0097218D01*
X0301995Y0097321D01*
X0301974Y0097426D01*
X0301958Y0097531D01*
X0301945Y0097636D01*
X0301935Y0097742D01*
X0301930Y0097849D01*
X0301928Y0097955D01*
X0303984Y0097955D02*
X0303982Y0098061D01*
X0303977Y0098168D01*
X0303967Y0098274D01*
X0303954Y0098379D01*
X0303938Y0098484D01*
X0303917Y0098589D01*
X0303894Y0098692D01*
X0303866Y0098795D01*
X0303835Y0098897D01*
X0303800Y0098997D01*
X0303762Y0099097D01*
X0303721Y0099195D01*
X0303676Y0099291D01*
X0302956Y0099806D02*
X0302904Y0099804D01*
X0302851Y0099799D01*
X0302800Y0099790D01*
X0302749Y0099777D01*
X0302699Y0099761D01*
X0302650Y0099742D01*
X0302603Y0099719D01*
X0302557Y0099693D01*
X0302514Y0099664D01*
X0302472Y0099632D01*
X0302433Y0099598D01*
X0302396Y0099560D01*
X0302362Y0099520D01*
X0302331Y0099478D01*
X0302302Y0099434D01*
X0302277Y0099388D01*
X0302255Y0099341D01*
X0302236Y0099292D01*
X0302956Y0099806D02*
X0303008Y0099804D01*
X0303061Y0099799D01*
X0303112Y0099790D01*
X0303163Y0099777D01*
X0303213Y0099761D01*
X0303262Y0099742D01*
X0303309Y0099719D01*
X0303355Y0099693D01*
X0303398Y0099664D01*
X0303440Y0099632D01*
X0303479Y0099598D01*
X0303516Y0099560D01*
X0303550Y0099520D01*
X0303582Y0099478D01*
X0303610Y0099434D01*
X0303635Y0099388D01*
X0303657Y0099341D01*
X0303676Y0099292D01*
X0306556Y0099805D02*
X0306556Y0096105D01*
X0307584Y0096105D02*
X0305528Y0096105D01*
X0309008Y0096105D02*
X0311064Y0096105D01*
X0309008Y0099805D01*
X0311064Y0099805D01*
X0312309Y0099805D02*
X0313132Y0099805D01*
X0313188Y0099803D01*
X0313244Y0099797D01*
X0313299Y0099788D01*
X0313354Y0099775D01*
X0313407Y0099758D01*
X0313459Y0099737D01*
X0313510Y0099713D01*
X0313559Y0099685D01*
X0313606Y0099655D01*
X0313651Y0099621D01*
X0313693Y0099584D01*
X0313733Y0099544D01*
X0313770Y0099502D01*
X0313804Y0099457D01*
X0313834Y0099410D01*
X0313862Y0099361D01*
X0313886Y0099310D01*
X0313907Y0099258D01*
X0313924Y0099205D01*
X0313937Y0099150D01*
X0313946Y0099095D01*
X0313952Y0099039D01*
X0313954Y0098983D01*
X0313954Y0096927D01*
X0313952Y0096871D01*
X0313946Y0096815D01*
X0313937Y0096760D01*
X0313924Y0096705D01*
X0313907Y0096652D01*
X0313886Y0096600D01*
X0313862Y0096549D01*
X0313834Y0096500D01*
X0313804Y0096453D01*
X0313770Y0096408D01*
X0313733Y0096366D01*
X0313693Y0096326D01*
X0313651Y0096289D01*
X0313606Y0096255D01*
X0313559Y0096225D01*
X0313510Y0096197D01*
X0313459Y0096173D01*
X0313407Y0096152D01*
X0313354Y0096135D01*
X0313299Y0096122D01*
X0313244Y0096113D01*
X0313188Y0096107D01*
X0313132Y0096105D01*
X0312309Y0096105D01*
X0307584Y0098983D02*
X0306556Y0099805D01*
X0300250Y0101822D02*
X0300248Y0101874D01*
X0300243Y0101927D01*
X0300234Y0101978D01*
X0300221Y0102029D01*
X0300205Y0102079D01*
X0300186Y0102128D01*
X0300163Y0102175D01*
X0300137Y0102221D01*
X0300108Y0102264D01*
X0300076Y0102306D01*
X0300042Y0102345D01*
X0300004Y0102382D01*
X0299964Y0102416D01*
X0299922Y0102448D01*
X0299878Y0102476D01*
X0299832Y0102501D01*
X0299785Y0102523D01*
X0299736Y0102542D01*
X0299428Y0102644D02*
X0297372Y0101000D01*
X0296550Y0101822D02*
X0296552Y0101874D01*
X0296557Y0101927D01*
X0296566Y0101978D01*
X0296579Y0102029D01*
X0296595Y0102079D01*
X0296614Y0102128D01*
X0296637Y0102175D01*
X0296663Y0102221D01*
X0296692Y0102264D01*
X0296724Y0102306D01*
X0296758Y0102345D01*
X0296796Y0102382D01*
X0296836Y0102416D01*
X0296878Y0102448D01*
X0296922Y0102476D01*
X0296968Y0102501D01*
X0297015Y0102523D01*
X0297064Y0102542D01*
X0296550Y0101822D02*
X0296552Y0101770D01*
X0296557Y0101717D01*
X0296566Y0101666D01*
X0296579Y0101615D01*
X0296595Y0101565D01*
X0296614Y0101516D01*
X0296637Y0101469D01*
X0296663Y0101423D01*
X0296692Y0101380D01*
X0296724Y0101338D01*
X0296758Y0101299D01*
X0296796Y0101262D01*
X0296836Y0101228D01*
X0296878Y0101196D01*
X0296922Y0101168D01*
X0296968Y0101143D01*
X0297015Y0101121D01*
X0297064Y0101102D01*
X0298400Y0102850D02*
X0298506Y0102848D01*
X0298613Y0102843D01*
X0298719Y0102833D01*
X0298824Y0102820D01*
X0298929Y0102804D01*
X0299034Y0102783D01*
X0299137Y0102760D01*
X0299240Y0102732D01*
X0299342Y0102701D01*
X0299442Y0102666D01*
X0299542Y0102628D01*
X0299640Y0102587D01*
X0299736Y0102542D01*
X0300250Y0101822D02*
X0300248Y0101770D01*
X0300243Y0101717D01*
X0300234Y0101666D01*
X0300221Y0101615D01*
X0300205Y0101565D01*
X0300186Y0101516D01*
X0300163Y0101469D01*
X0300137Y0101423D01*
X0300108Y0101380D01*
X0300076Y0101338D01*
X0300042Y0101299D01*
X0300004Y0101262D01*
X0299964Y0101228D01*
X0299922Y0101196D01*
X0299878Y0101168D01*
X0299832Y0101143D01*
X0299785Y0101121D01*
X0299736Y0101102D01*
X0298400Y0102850D02*
X0298294Y0102848D01*
X0298187Y0102843D01*
X0298081Y0102833D01*
X0297976Y0102820D01*
X0297871Y0102804D01*
X0297766Y0102783D01*
X0297663Y0102760D01*
X0297560Y0102732D01*
X0297458Y0102701D01*
X0297358Y0102666D01*
X0297258Y0102628D01*
X0297160Y0102587D01*
X0297064Y0102542D01*
X0298400Y0100795D02*
X0298506Y0100797D01*
X0298613Y0100802D01*
X0298719Y0100812D01*
X0298824Y0100825D01*
X0298929Y0100841D01*
X0299034Y0100862D01*
X0299137Y0100885D01*
X0299240Y0100913D01*
X0299342Y0100944D01*
X0299442Y0100979D01*
X0299542Y0101017D01*
X0299640Y0101058D01*
X0299736Y0101103D01*
X0298400Y0100795D02*
X0298294Y0100797D01*
X0298187Y0100802D01*
X0298081Y0100812D01*
X0297976Y0100825D01*
X0297871Y0100841D01*
X0297766Y0100862D01*
X0297663Y0100885D01*
X0297560Y0100913D01*
X0297458Y0100944D01*
X0297358Y0100979D01*
X0297258Y0101017D01*
X0297160Y0101058D01*
X0297064Y0101103D01*
X0328945Y0088950D02*
X0328945Y0085250D01*
X0329972Y0085250D02*
X0327917Y0085250D01*
X0331517Y0085250D02*
X0333572Y0085250D01*
X0332545Y0085250D02*
X0332545Y0088950D01*
X0333572Y0088128D01*
X0336122Y0088950D02*
X0336059Y0088948D01*
X0335996Y0088942D01*
X0335933Y0088932D01*
X0335871Y0088919D01*
X0335810Y0088902D01*
X0335751Y0088881D01*
X0335692Y0088856D01*
X0335636Y0088828D01*
X0335581Y0088796D01*
X0335528Y0088761D01*
X0335478Y0088723D01*
X0335429Y0088682D01*
X0335384Y0088638D01*
X0335341Y0088591D01*
X0335302Y0088542D01*
X0335265Y0088490D01*
X0335232Y0088436D01*
X0335202Y0088380D01*
X0335175Y0088323D01*
X0335152Y0088264D01*
X0335133Y0088203D01*
X0335118Y0088142D01*
X0335106Y0088080D01*
X0335098Y0088017D01*
X0335094Y0087954D01*
X0335094Y0087890D01*
X0335098Y0087827D01*
X0335106Y0087764D01*
X0335118Y0087702D01*
X0335133Y0087641D01*
X0335152Y0087580D01*
X0335175Y0087521D01*
X0335202Y0087464D01*
X0335232Y0087408D01*
X0335265Y0087354D01*
X0335302Y0087302D01*
X0335341Y0087253D01*
X0335384Y0087206D01*
X0335429Y0087162D01*
X0335478Y0087121D01*
X0335528Y0087083D01*
X0335581Y0087048D01*
X0335636Y0087016D01*
X0335692Y0086988D01*
X0335751Y0086963D01*
X0335810Y0086942D01*
X0335871Y0086925D01*
X0335933Y0086912D01*
X0335996Y0086902D01*
X0336059Y0086896D01*
X0336122Y0086894D01*
X0337150Y0086894D01*
X0335917Y0086894D02*
X0335094Y0085250D01*
X0337150Y0085250D02*
X0337150Y0088950D01*
X0336122Y0088950D01*
X0329972Y0088128D02*
X0328945Y0088950D01*
X0314706Y0078842D02*
X0312650Y0077094D01*
X0312650Y0079150D01*
X0315528Y0077095D02*
X0315592Y0077118D01*
X0315655Y0077144D01*
X0315716Y0077174D01*
X0315775Y0077207D01*
X0315832Y0077244D01*
X0315887Y0077284D01*
X0315939Y0077327D01*
X0315989Y0077373D01*
X0316037Y0077421D01*
X0316081Y0077473D01*
X0316123Y0077526D01*
X0316161Y0077582D01*
X0316196Y0077640D01*
X0316228Y0077700D01*
X0316256Y0077762D01*
X0316281Y0077825D01*
X0316302Y0077890D01*
X0316319Y0077956D01*
X0316333Y0078022D01*
X0316342Y0078089D01*
X0316348Y0078157D01*
X0316350Y0078225D01*
X0316348Y0078283D01*
X0316343Y0078341D01*
X0316334Y0078398D01*
X0316321Y0078455D01*
X0316305Y0078511D01*
X0316285Y0078566D01*
X0316262Y0078619D01*
X0316236Y0078671D01*
X0316206Y0078721D01*
X0316173Y0078769D01*
X0316138Y0078815D01*
X0316099Y0078858D01*
X0316058Y0078899D01*
X0316015Y0078938D01*
X0315969Y0078973D01*
X0315921Y0079006D01*
X0315871Y0079036D01*
X0315819Y0079062D01*
X0315766Y0079085D01*
X0315711Y0079105D01*
X0315655Y0079121D01*
X0315598Y0079134D01*
X0315541Y0079143D01*
X0315483Y0079148D01*
X0315425Y0079150D01*
X0315363Y0079148D01*
X0315301Y0079142D01*
X0315240Y0079133D01*
X0315180Y0079119D01*
X0315120Y0079102D01*
X0315062Y0079081D01*
X0315005Y0079057D01*
X0314950Y0079029D01*
X0314896Y0078998D01*
X0314845Y0078963D01*
X0314796Y0078926D01*
X0314749Y0078885D01*
X0314705Y0078842D01*
X0314706Y0075242D02*
X0312650Y0073494D01*
X0312650Y0075550D01*
X0315528Y0073495D02*
X0315592Y0073518D01*
X0315655Y0073544D01*
X0315716Y0073574D01*
X0315775Y0073607D01*
X0315832Y0073644D01*
X0315887Y0073684D01*
X0315939Y0073727D01*
X0315989Y0073773D01*
X0316037Y0073821D01*
X0316081Y0073873D01*
X0316123Y0073926D01*
X0316161Y0073982D01*
X0316196Y0074040D01*
X0316228Y0074100D01*
X0316256Y0074162D01*
X0316281Y0074225D01*
X0316302Y0074290D01*
X0316319Y0074356D01*
X0316333Y0074422D01*
X0316342Y0074489D01*
X0316348Y0074557D01*
X0316350Y0074625D01*
X0316348Y0074683D01*
X0316343Y0074741D01*
X0316334Y0074798D01*
X0316321Y0074855D01*
X0316305Y0074911D01*
X0316285Y0074966D01*
X0316262Y0075019D01*
X0316236Y0075071D01*
X0316206Y0075121D01*
X0316173Y0075169D01*
X0316138Y0075215D01*
X0316099Y0075258D01*
X0316058Y0075299D01*
X0316015Y0075338D01*
X0315969Y0075373D01*
X0315921Y0075406D01*
X0315871Y0075436D01*
X0315819Y0075462D01*
X0315766Y0075485D01*
X0315711Y0075505D01*
X0315655Y0075521D01*
X0315598Y0075534D01*
X0315541Y0075543D01*
X0315483Y0075548D01*
X0315425Y0075550D01*
X0315363Y0075548D01*
X0315301Y0075542D01*
X0315240Y0075533D01*
X0315180Y0075519D01*
X0315120Y0075502D01*
X0315062Y0075481D01*
X0315005Y0075457D01*
X0314950Y0075429D01*
X0314896Y0075398D01*
X0314845Y0075363D01*
X0314796Y0075326D01*
X0314749Y0075285D01*
X0314705Y0075242D01*
X0312650Y0071972D02*
X0314294Y0071150D01*
X0314294Y0070945D02*
X0314294Y0069917D01*
X0314294Y0070945D02*
X0314296Y0071008D01*
X0314302Y0071071D01*
X0314312Y0071134D01*
X0314325Y0071196D01*
X0314342Y0071257D01*
X0314363Y0071316D01*
X0314388Y0071375D01*
X0314416Y0071431D01*
X0314448Y0071486D01*
X0314483Y0071539D01*
X0314521Y0071589D01*
X0314562Y0071638D01*
X0314606Y0071683D01*
X0314653Y0071726D01*
X0314702Y0071765D01*
X0314754Y0071802D01*
X0314808Y0071835D01*
X0314864Y0071865D01*
X0314921Y0071892D01*
X0314980Y0071915D01*
X0315041Y0071934D01*
X0315102Y0071949D01*
X0315164Y0071961D01*
X0315227Y0071969D01*
X0315290Y0071973D01*
X0315354Y0071973D01*
X0315417Y0071969D01*
X0315480Y0071961D01*
X0315542Y0071949D01*
X0315603Y0071934D01*
X0315664Y0071915D01*
X0315723Y0071892D01*
X0315780Y0071865D01*
X0315836Y0071835D01*
X0315890Y0071802D01*
X0315942Y0071765D01*
X0315991Y0071726D01*
X0316038Y0071683D01*
X0316082Y0071638D01*
X0316123Y0071589D01*
X0316161Y0071539D01*
X0316196Y0071486D01*
X0316228Y0071431D01*
X0316256Y0071375D01*
X0316281Y0071316D01*
X0316302Y0071257D01*
X0316319Y0071196D01*
X0316332Y0071134D01*
X0316342Y0071071D01*
X0316348Y0071008D01*
X0316350Y0070945D01*
X0316350Y0069917D01*
X0312650Y0069917D01*
X0338071Y0061270D02*
X0340126Y0061270D01*
X0339099Y0061270D02*
X0339099Y0064970D01*
X0340126Y0064147D01*
X0342699Y0064970D02*
X0342699Y0061270D01*
X0343726Y0061270D02*
X0341671Y0061270D01*
X0345151Y0061270D02*
X0347206Y0061270D01*
X0345151Y0064970D01*
X0347206Y0064970D01*
X0348452Y0064970D02*
X0349274Y0064970D01*
X0349274Y0064969D02*
X0349330Y0064967D01*
X0349386Y0064961D01*
X0349441Y0064952D01*
X0349496Y0064939D01*
X0349549Y0064922D01*
X0349601Y0064901D01*
X0349652Y0064877D01*
X0349701Y0064849D01*
X0349748Y0064819D01*
X0349793Y0064785D01*
X0349835Y0064748D01*
X0349875Y0064708D01*
X0349912Y0064666D01*
X0349946Y0064621D01*
X0349976Y0064574D01*
X0350004Y0064525D01*
X0350028Y0064474D01*
X0350049Y0064422D01*
X0350066Y0064369D01*
X0350079Y0064314D01*
X0350088Y0064259D01*
X0350094Y0064203D01*
X0350096Y0064147D01*
X0350096Y0062092D01*
X0350094Y0062036D01*
X0350088Y0061980D01*
X0350079Y0061925D01*
X0350066Y0061870D01*
X0350049Y0061817D01*
X0350028Y0061765D01*
X0350004Y0061714D01*
X0349976Y0061665D01*
X0349946Y0061618D01*
X0349912Y0061573D01*
X0349875Y0061531D01*
X0349835Y0061491D01*
X0349793Y0061454D01*
X0349748Y0061420D01*
X0349701Y0061390D01*
X0349652Y0061362D01*
X0349601Y0061338D01*
X0349549Y0061317D01*
X0349496Y0061300D01*
X0349441Y0061287D01*
X0349386Y0061278D01*
X0349330Y0061272D01*
X0349274Y0061270D01*
X0348452Y0061270D01*
X0343726Y0064147D02*
X0342699Y0064970D01*
X0360050Y0064950D02*
X0363750Y0064950D01*
X0363750Y0065978D01*
X0363748Y0066041D01*
X0363742Y0066104D01*
X0363732Y0066167D01*
X0363719Y0066229D01*
X0363702Y0066290D01*
X0363681Y0066349D01*
X0363656Y0066408D01*
X0363628Y0066464D01*
X0363596Y0066519D01*
X0363561Y0066572D01*
X0363523Y0066622D01*
X0363482Y0066671D01*
X0363438Y0066716D01*
X0363391Y0066759D01*
X0363342Y0066798D01*
X0363290Y0066835D01*
X0363236Y0066868D01*
X0363180Y0066898D01*
X0363123Y0066925D01*
X0363064Y0066948D01*
X0363003Y0066967D01*
X0362942Y0066982D01*
X0362880Y0066994D01*
X0362817Y0067002D01*
X0362754Y0067006D01*
X0362690Y0067006D01*
X0362627Y0067002D01*
X0362564Y0066994D01*
X0362502Y0066982D01*
X0362441Y0066967D01*
X0362380Y0066948D01*
X0362321Y0066925D01*
X0362264Y0066898D01*
X0362208Y0066868D01*
X0362154Y0066835D01*
X0362102Y0066798D01*
X0362053Y0066759D01*
X0362006Y0066716D01*
X0361962Y0066671D01*
X0361921Y0066622D01*
X0361883Y0066572D01*
X0361848Y0066519D01*
X0361816Y0066464D01*
X0361788Y0066408D01*
X0361763Y0066349D01*
X0361742Y0066290D01*
X0361725Y0066229D01*
X0361712Y0066167D01*
X0361702Y0066104D01*
X0361696Y0066041D01*
X0361694Y0065978D01*
X0361694Y0064950D01*
X0361694Y0066183D02*
X0360050Y0067006D01*
X0360050Y0068528D02*
X0360050Y0070583D01*
X0360050Y0072128D02*
X0360050Y0073155D01*
X0360052Y0073218D01*
X0360058Y0073281D01*
X0360068Y0073344D01*
X0360081Y0073406D01*
X0360098Y0073467D01*
X0360119Y0073526D01*
X0360144Y0073585D01*
X0360172Y0073641D01*
X0360204Y0073696D01*
X0360239Y0073749D01*
X0360277Y0073799D01*
X0360318Y0073848D01*
X0360362Y0073893D01*
X0360409Y0073936D01*
X0360458Y0073975D01*
X0360510Y0074012D01*
X0360564Y0074045D01*
X0360620Y0074075D01*
X0360677Y0074102D01*
X0360736Y0074125D01*
X0360797Y0074144D01*
X0360858Y0074159D01*
X0360920Y0074171D01*
X0360983Y0074179D01*
X0361046Y0074183D01*
X0361110Y0074183D01*
X0361173Y0074179D01*
X0361236Y0074171D01*
X0361298Y0074159D01*
X0361359Y0074144D01*
X0361420Y0074125D01*
X0361479Y0074102D01*
X0361536Y0074075D01*
X0361592Y0074045D01*
X0361646Y0074012D01*
X0361698Y0073975D01*
X0361747Y0073936D01*
X0361794Y0073893D01*
X0361838Y0073848D01*
X0361879Y0073799D01*
X0361917Y0073749D01*
X0361952Y0073696D01*
X0361984Y0073641D01*
X0362012Y0073585D01*
X0362037Y0073526D01*
X0362058Y0073467D01*
X0362075Y0073406D01*
X0362088Y0073344D01*
X0362098Y0073281D01*
X0362104Y0073218D01*
X0362106Y0073155D01*
X0362106Y0073361D02*
X0362106Y0072539D01*
X0362106Y0073361D02*
X0362108Y0073417D01*
X0362114Y0073473D01*
X0362123Y0073528D01*
X0362136Y0073583D01*
X0362153Y0073636D01*
X0362174Y0073688D01*
X0362198Y0073739D01*
X0362226Y0073788D01*
X0362256Y0073835D01*
X0362290Y0073880D01*
X0362327Y0073922D01*
X0362367Y0073962D01*
X0362409Y0073999D01*
X0362454Y0074033D01*
X0362501Y0074063D01*
X0362550Y0074091D01*
X0362601Y0074115D01*
X0362653Y0074136D01*
X0362706Y0074153D01*
X0362761Y0074166D01*
X0362816Y0074175D01*
X0362872Y0074181D01*
X0362928Y0074183D01*
X0362984Y0074181D01*
X0363040Y0074175D01*
X0363095Y0074166D01*
X0363150Y0074153D01*
X0363203Y0074136D01*
X0363255Y0074115D01*
X0363306Y0074091D01*
X0363355Y0074063D01*
X0363402Y0074033D01*
X0363447Y0073999D01*
X0363489Y0073962D01*
X0363529Y0073922D01*
X0363566Y0073880D01*
X0363600Y0073835D01*
X0363630Y0073788D01*
X0363658Y0073739D01*
X0363682Y0073688D01*
X0363703Y0073636D01*
X0363720Y0073583D01*
X0363733Y0073528D01*
X0363742Y0073473D01*
X0363748Y0073417D01*
X0363750Y0073361D01*
X0363750Y0072128D01*
X0362106Y0070275D02*
X0360050Y0068528D01*
X0362928Y0068528D02*
X0362992Y0068551D01*
X0363055Y0068577D01*
X0363116Y0068607D01*
X0363175Y0068640D01*
X0363232Y0068677D01*
X0363287Y0068717D01*
X0363339Y0068760D01*
X0363389Y0068806D01*
X0363437Y0068854D01*
X0363481Y0068906D01*
X0363523Y0068959D01*
X0363561Y0069015D01*
X0363596Y0069073D01*
X0363628Y0069133D01*
X0363656Y0069195D01*
X0363681Y0069258D01*
X0363702Y0069323D01*
X0363719Y0069389D01*
X0363733Y0069455D01*
X0363742Y0069522D01*
X0363748Y0069590D01*
X0363750Y0069658D01*
X0363748Y0069716D01*
X0363743Y0069774D01*
X0363734Y0069831D01*
X0363721Y0069888D01*
X0363705Y0069944D01*
X0363685Y0069999D01*
X0363662Y0070052D01*
X0363636Y0070104D01*
X0363606Y0070154D01*
X0363573Y0070202D01*
X0363538Y0070248D01*
X0363499Y0070291D01*
X0363458Y0070332D01*
X0363415Y0070371D01*
X0363369Y0070406D01*
X0363321Y0070439D01*
X0363271Y0070469D01*
X0363219Y0070495D01*
X0363166Y0070518D01*
X0363111Y0070538D01*
X0363055Y0070554D01*
X0362998Y0070567D01*
X0362941Y0070576D01*
X0362883Y0070581D01*
X0362825Y0070583D01*
X0362825Y0070584D02*
X0362763Y0070582D01*
X0362701Y0070576D01*
X0362640Y0070567D01*
X0362580Y0070553D01*
X0362520Y0070536D01*
X0362462Y0070515D01*
X0362405Y0070491D01*
X0362350Y0070463D01*
X0362296Y0070432D01*
X0362245Y0070397D01*
X0362196Y0070360D01*
X0362149Y0070319D01*
X0362105Y0070276D01*
X0365945Y0062317D02*
X0365945Y0058617D01*
X0366972Y0058617D02*
X0364917Y0058617D01*
X0363372Y0058617D02*
X0361317Y0058617D01*
X0363372Y0058617D02*
X0361625Y0060672D01*
X0362242Y0062317D02*
X0362310Y0062315D01*
X0362378Y0062309D01*
X0362445Y0062300D01*
X0362511Y0062286D01*
X0362577Y0062269D01*
X0362642Y0062248D01*
X0362705Y0062223D01*
X0362767Y0062195D01*
X0362827Y0062163D01*
X0362885Y0062128D01*
X0362941Y0062090D01*
X0362995Y0062048D01*
X0363046Y0062004D01*
X0363094Y0061956D01*
X0363140Y0061906D01*
X0363183Y0061854D01*
X0363223Y0061799D01*
X0363260Y0061742D01*
X0363293Y0061683D01*
X0363323Y0061622D01*
X0363349Y0061559D01*
X0363372Y0061495D01*
X0361624Y0060672D02*
X0361581Y0060716D01*
X0361540Y0060763D01*
X0361503Y0060812D01*
X0361468Y0060863D01*
X0361437Y0060917D01*
X0361409Y0060972D01*
X0361385Y0061029D01*
X0361364Y0061087D01*
X0361347Y0061147D01*
X0361333Y0061207D01*
X0361324Y0061268D01*
X0361318Y0061330D01*
X0361316Y0061392D01*
X0361317Y0061392D02*
X0361319Y0061450D01*
X0361324Y0061508D01*
X0361333Y0061565D01*
X0361346Y0061622D01*
X0361362Y0061678D01*
X0361382Y0061733D01*
X0361405Y0061786D01*
X0361431Y0061838D01*
X0361461Y0061888D01*
X0361494Y0061936D01*
X0361529Y0061982D01*
X0361568Y0062025D01*
X0361609Y0062066D01*
X0361652Y0062105D01*
X0361698Y0062140D01*
X0361746Y0062173D01*
X0361796Y0062203D01*
X0361848Y0062229D01*
X0361901Y0062252D01*
X0361956Y0062272D01*
X0362012Y0062288D01*
X0362069Y0062301D01*
X0362126Y0062310D01*
X0362184Y0062315D01*
X0362242Y0062317D01*
X0365945Y0062317D02*
X0366972Y0061495D01*
X0369522Y0062317D02*
X0369459Y0062315D01*
X0369396Y0062309D01*
X0369333Y0062299D01*
X0369271Y0062286D01*
X0369210Y0062269D01*
X0369151Y0062248D01*
X0369092Y0062223D01*
X0369036Y0062195D01*
X0368981Y0062163D01*
X0368928Y0062128D01*
X0368878Y0062090D01*
X0368829Y0062049D01*
X0368784Y0062005D01*
X0368741Y0061958D01*
X0368702Y0061909D01*
X0368665Y0061857D01*
X0368632Y0061803D01*
X0368602Y0061747D01*
X0368575Y0061690D01*
X0368552Y0061631D01*
X0368533Y0061570D01*
X0368518Y0061509D01*
X0368506Y0061447D01*
X0368498Y0061384D01*
X0368494Y0061321D01*
X0368494Y0061257D01*
X0368498Y0061194D01*
X0368506Y0061131D01*
X0368518Y0061069D01*
X0368533Y0061008D01*
X0368552Y0060947D01*
X0368575Y0060888D01*
X0368602Y0060831D01*
X0368632Y0060775D01*
X0368665Y0060721D01*
X0368702Y0060669D01*
X0368741Y0060620D01*
X0368784Y0060573D01*
X0368829Y0060529D01*
X0368878Y0060488D01*
X0368928Y0060450D01*
X0368981Y0060415D01*
X0369036Y0060383D01*
X0369092Y0060355D01*
X0369151Y0060330D01*
X0369210Y0060309D01*
X0369271Y0060292D01*
X0369333Y0060279D01*
X0369396Y0060269D01*
X0369459Y0060263D01*
X0369522Y0060261D01*
X0370550Y0060261D01*
X0369317Y0060261D02*
X0368494Y0058617D01*
X0370550Y0058617D02*
X0370550Y0062317D01*
X0369522Y0062317D01*
X0372223Y0053734D02*
X0372165Y0053732D01*
X0372107Y0053727D01*
X0372050Y0053718D01*
X0371993Y0053705D01*
X0371937Y0053689D01*
X0371882Y0053669D01*
X0371829Y0053646D01*
X0371777Y0053620D01*
X0371727Y0053590D01*
X0371679Y0053557D01*
X0371633Y0053522D01*
X0371590Y0053483D01*
X0371549Y0053442D01*
X0371510Y0053399D01*
X0371475Y0053353D01*
X0371442Y0053305D01*
X0371412Y0053255D01*
X0371386Y0053203D01*
X0371363Y0053150D01*
X0371343Y0053095D01*
X0371327Y0053039D01*
X0371314Y0052982D01*
X0371305Y0052925D01*
X0371300Y0052867D01*
X0371298Y0052809D01*
X0371606Y0052090D02*
X0373354Y0050034D01*
X0371298Y0050034D01*
X0373353Y0052912D02*
X0373330Y0052976D01*
X0373304Y0053039D01*
X0373274Y0053100D01*
X0373241Y0053159D01*
X0373204Y0053216D01*
X0373164Y0053271D01*
X0373121Y0053323D01*
X0373075Y0053373D01*
X0373027Y0053421D01*
X0372976Y0053465D01*
X0372922Y0053507D01*
X0372866Y0053545D01*
X0372808Y0053580D01*
X0372748Y0053612D01*
X0372686Y0053640D01*
X0372623Y0053665D01*
X0372558Y0053686D01*
X0372492Y0053703D01*
X0372426Y0053717D01*
X0372359Y0053726D01*
X0372291Y0053732D01*
X0372223Y0053734D01*
X0371298Y0052809D02*
X0371300Y0052747D01*
X0371306Y0052685D01*
X0371315Y0052624D01*
X0371329Y0052564D01*
X0371346Y0052504D01*
X0371367Y0052446D01*
X0371391Y0052389D01*
X0371419Y0052334D01*
X0371450Y0052280D01*
X0371485Y0052229D01*
X0371522Y0052180D01*
X0371563Y0052133D01*
X0371606Y0052089D01*
X0374898Y0050034D02*
X0376954Y0050034D01*
X0375926Y0050034D02*
X0375926Y0053734D01*
X0376954Y0052912D01*
X0378378Y0053734D02*
X0380434Y0050034D01*
X0378378Y0050034D01*
X0381679Y0050034D02*
X0382501Y0050034D01*
X0382557Y0050036D01*
X0382613Y0050042D01*
X0382668Y0050051D01*
X0382723Y0050064D01*
X0382776Y0050081D01*
X0382828Y0050102D01*
X0382879Y0050126D01*
X0382928Y0050154D01*
X0382975Y0050184D01*
X0383020Y0050218D01*
X0383062Y0050255D01*
X0383102Y0050295D01*
X0383139Y0050337D01*
X0383173Y0050382D01*
X0383203Y0050429D01*
X0383231Y0050478D01*
X0383255Y0050529D01*
X0383276Y0050581D01*
X0383293Y0050634D01*
X0383306Y0050689D01*
X0383315Y0050744D01*
X0383321Y0050800D01*
X0383323Y0050856D01*
X0383324Y0050856D02*
X0383324Y0052912D01*
X0383323Y0052912D02*
X0383321Y0052968D01*
X0383315Y0053024D01*
X0383306Y0053079D01*
X0383293Y0053134D01*
X0383276Y0053187D01*
X0383255Y0053239D01*
X0383231Y0053290D01*
X0383203Y0053339D01*
X0383173Y0053386D01*
X0383139Y0053431D01*
X0383102Y0053473D01*
X0383062Y0053513D01*
X0383020Y0053550D01*
X0382975Y0053584D01*
X0382928Y0053614D01*
X0382879Y0053642D01*
X0382828Y0053666D01*
X0382776Y0053687D01*
X0382723Y0053704D01*
X0382668Y0053717D01*
X0382613Y0053726D01*
X0382557Y0053732D01*
X0382501Y0053734D01*
X0381679Y0053734D01*
X0380434Y0053734D02*
X0378378Y0053734D01*
X0385158Y0050363D02*
X0385158Y0026741D01*
X0383050Y0027317D02*
X0382022Y0027317D01*
X0385158Y0026741D02*
X0385165Y0026622D01*
X0385169Y0026503D01*
X0385168Y0026383D01*
X0385164Y0026264D01*
X0385155Y0026145D01*
X0385143Y0026026D01*
X0385127Y0025908D01*
X0385107Y0025790D01*
X0385084Y0025674D01*
X0385056Y0025557D01*
X0385025Y0025442D01*
X0384990Y0025328D01*
X0384951Y0025215D01*
X0384909Y0025104D01*
X0384863Y0024994D01*
X0384814Y0024885D01*
X0384761Y0024778D01*
X0384704Y0024673D01*
X0384644Y0024570D01*
X0384581Y0024469D01*
X0384515Y0024370D01*
X0384445Y0024273D01*
X0384373Y0024178D01*
X0384297Y0024086D01*
X0384218Y0023996D01*
X0384137Y0023909D01*
X0384052Y0023825D01*
X0383965Y0023743D01*
X0383875Y0023665D01*
X0383783Y0023589D01*
X0383689Y0023516D01*
X0383592Y0023447D01*
X0383493Y0023380D01*
X0383391Y0023317D01*
X0383288Y0023257D01*
X0383183Y0023201D01*
X0383076Y0023148D01*
X0382968Y0023099D01*
X0382857Y0023053D01*
X0382746Y0023010D01*
X0382633Y0022972D01*
X0382519Y0022937D01*
X0382404Y0022906D01*
X0382288Y0022878D01*
X0382171Y0022855D01*
X0382053Y0022835D01*
X0381935Y0022819D01*
X0381816Y0022806D01*
X0381697Y0022798D01*
X0381578Y0022794D01*
X0381459Y0022793D01*
X0381339Y0022797D01*
X0381220Y0022804D01*
X0362323Y0022804D01*
X0362199Y0022806D01*
X0362075Y0022812D01*
X0361952Y0022822D01*
X0361829Y0022835D01*
X0361707Y0022853D01*
X0361585Y0022874D01*
X0361464Y0022899D01*
X0361344Y0022928D01*
X0361224Y0022960D01*
X0361106Y0022997D01*
X0360989Y0023037D01*
X0360873Y0023081D01*
X0360759Y0023128D01*
X0360646Y0023179D01*
X0360535Y0023233D01*
X0360426Y0023291D01*
X0360319Y0023352D01*
X0360213Y0023417D01*
X0360110Y0023485D01*
X0360009Y0023556D01*
X0359910Y0023630D01*
X0359813Y0023708D01*
X0359719Y0023788D01*
X0359628Y0023871D01*
X0359539Y0023957D01*
X0359453Y0024046D01*
X0359370Y0024138D01*
X0359289Y0024232D01*
X0359212Y0024328D01*
X0359138Y0024427D01*
X0359067Y0024528D01*
X0358999Y0024632D01*
X0358934Y0024737D01*
X0358873Y0024845D01*
X0358815Y0024954D01*
X0358761Y0025065D01*
X0358710Y0025178D01*
X0358662Y0025292D01*
X0358619Y0025408D01*
X0358579Y0025525D01*
X0358542Y0025643D01*
X0358510Y0025762D01*
X0358481Y0025883D01*
X0358456Y0026004D01*
X0358434Y0026126D01*
X0358417Y0026248D01*
X0358403Y0026371D01*
X0358394Y0026494D01*
X0358388Y0026618D01*
X0358386Y0026741D01*
X0358387Y0026741D02*
X0358387Y0043670D01*
X0385158Y0050363D02*
X0385089Y0051100D01*
X0385003Y0051836D01*
X0384899Y0052569D01*
X0384777Y0053300D01*
X0384638Y0054028D01*
X0384481Y0054752D01*
X0384306Y0055471D01*
X0384115Y0056187D01*
X0383905Y0056898D01*
X0383679Y0057603D01*
X0383436Y0058303D01*
X0383176Y0058996D01*
X0382899Y0059683D01*
X0382606Y0060364D01*
X0382296Y0061036D01*
X0381970Y0061702D01*
X0381628Y0062359D01*
X0381270Y0063007D01*
X0380897Y0063647D01*
X0380508Y0064278D01*
X0380105Y0064899D01*
X0379686Y0065510D01*
X0379252Y0066111D01*
X0354056Y0052332D02*
X0354245Y0052208D01*
X0354431Y0052080D01*
X0354614Y0051947D01*
X0354794Y0051810D01*
X0354970Y0051669D01*
X0355143Y0051524D01*
X0355313Y0051374D01*
X0355479Y0051221D01*
X0355641Y0051063D01*
X0355799Y0050902D01*
X0355954Y0050737D01*
X0356104Y0050568D01*
X0356250Y0050396D01*
X0356392Y0050220D01*
X0356530Y0050041D01*
X0356664Y0049858D01*
X0356793Y0049673D01*
X0356917Y0049484D01*
X0357037Y0049293D01*
X0357153Y0049098D01*
X0357263Y0048901D01*
X0357369Y0048702D01*
X0357470Y0048499D01*
X0357567Y0048295D01*
X0357658Y0048088D01*
X0357744Y0047879D01*
X0357825Y0047668D01*
X0357901Y0047455D01*
X0357972Y0047241D01*
X0358038Y0047024D01*
X0358099Y0046807D01*
X0358154Y0046588D01*
X0358204Y0046367D01*
X0358249Y0046146D01*
X0358289Y0045923D01*
X0358323Y0045700D01*
X0358351Y0045475D01*
X0358375Y0045251D01*
X0358393Y0045025D01*
X0358405Y0044800D01*
X0358412Y0044574D01*
X0358414Y0044348D01*
X0358410Y0044122D01*
X0358401Y0043896D01*
X0358386Y0043670D01*
X0375050Y0027317D02*
X0375872Y0024439D01*
X0373817Y0024439D01*
X0374434Y0025261D02*
X0374434Y0023617D01*
X0377417Y0023617D02*
X0379472Y0023617D01*
X0377725Y0025672D01*
X0378342Y0027317D02*
X0378410Y0027315D01*
X0378478Y0027309D01*
X0378545Y0027300D01*
X0378611Y0027286D01*
X0378677Y0027269D01*
X0378742Y0027248D01*
X0378805Y0027223D01*
X0378867Y0027195D01*
X0378927Y0027163D01*
X0378985Y0027128D01*
X0379041Y0027090D01*
X0379095Y0027048D01*
X0379146Y0027004D01*
X0379194Y0026956D01*
X0379240Y0026906D01*
X0379283Y0026854D01*
X0379323Y0026799D01*
X0379360Y0026742D01*
X0379393Y0026683D01*
X0379423Y0026622D01*
X0379449Y0026559D01*
X0379472Y0026495D01*
X0377724Y0025672D02*
X0377681Y0025716D01*
X0377640Y0025763D01*
X0377603Y0025812D01*
X0377568Y0025863D01*
X0377537Y0025917D01*
X0377509Y0025972D01*
X0377485Y0026029D01*
X0377464Y0026087D01*
X0377447Y0026147D01*
X0377433Y0026207D01*
X0377424Y0026268D01*
X0377418Y0026330D01*
X0377416Y0026392D01*
X0377417Y0026392D02*
X0377419Y0026450D01*
X0377424Y0026508D01*
X0377433Y0026565D01*
X0377446Y0026622D01*
X0377462Y0026678D01*
X0377482Y0026733D01*
X0377505Y0026786D01*
X0377531Y0026838D01*
X0377561Y0026888D01*
X0377594Y0026936D01*
X0377629Y0026982D01*
X0377668Y0027025D01*
X0377709Y0027066D01*
X0377752Y0027105D01*
X0377798Y0027140D01*
X0377846Y0027173D01*
X0377896Y0027203D01*
X0377948Y0027229D01*
X0378001Y0027252D01*
X0378056Y0027272D01*
X0378112Y0027288D01*
X0378169Y0027301D01*
X0378226Y0027310D01*
X0378284Y0027315D01*
X0378342Y0027317D01*
X0382022Y0027317D02*
X0381959Y0027315D01*
X0381896Y0027309D01*
X0381833Y0027299D01*
X0381771Y0027286D01*
X0381710Y0027269D01*
X0381651Y0027248D01*
X0381592Y0027223D01*
X0381536Y0027195D01*
X0381481Y0027163D01*
X0381428Y0027128D01*
X0381378Y0027090D01*
X0381329Y0027049D01*
X0381284Y0027005D01*
X0381241Y0026958D01*
X0381202Y0026909D01*
X0381165Y0026857D01*
X0381132Y0026803D01*
X0381102Y0026747D01*
X0381075Y0026690D01*
X0381052Y0026631D01*
X0381033Y0026570D01*
X0381018Y0026509D01*
X0381006Y0026447D01*
X0380998Y0026384D01*
X0380994Y0026321D01*
X0380994Y0026257D01*
X0380998Y0026194D01*
X0381006Y0026131D01*
X0381018Y0026069D01*
X0381033Y0026008D01*
X0381052Y0025947D01*
X0381075Y0025888D01*
X0381102Y0025831D01*
X0381132Y0025775D01*
X0381165Y0025721D01*
X0381202Y0025669D01*
X0381241Y0025620D01*
X0381284Y0025573D01*
X0381329Y0025529D01*
X0381378Y0025488D01*
X0381428Y0025450D01*
X0381481Y0025415D01*
X0381536Y0025383D01*
X0381592Y0025355D01*
X0381651Y0025330D01*
X0381710Y0025309D01*
X0381771Y0025292D01*
X0381833Y0025279D01*
X0381896Y0025269D01*
X0381959Y0025263D01*
X0382022Y0025261D01*
X0383050Y0025261D01*
X0381817Y0025261D02*
X0380994Y0023617D01*
X0383050Y0023617D02*
X0383050Y0027317D01*
X0379252Y0066111D02*
X0378181Y0067508D01*
X0377076Y0068878D01*
X0375938Y0070221D01*
X0374769Y0071537D01*
X0373567Y0072823D01*
X0372335Y0074080D01*
X0371073Y0075307D01*
X0369781Y0076503D01*
X0368461Y0077667D01*
X0367112Y0078799D01*
X0365737Y0079898D01*
X0364336Y0080963D01*
X0362909Y0081994D01*
X0361458Y0082990D01*
X0359983Y0083950D01*
X0358485Y0084875D01*
X0356965Y0085763D01*
X0355424Y0086614D01*
X0353863Y0087427D01*
X0352283Y0088203D01*
X0350684Y0088939D01*
X0349068Y0089637D01*
X0347436Y0090296D01*
X0345788Y0090914D01*
X0354056Y0052332D02*
X0349882Y0054552D01*
X0345655Y0056668D01*
X0341378Y0058681D01*
X0337052Y0060589D01*
X0332681Y0062390D01*
X0328268Y0064084D01*
X0323814Y0065669D01*
X0319323Y0067145D01*
X0314797Y0068510D01*
X0310239Y0069765D01*
X0305651Y0070908D01*
X0301037Y0071938D01*
X0296400Y0072855D01*
X0291741Y0073658D01*
X0287064Y0074347D01*
X0282371Y0074921D01*
X0277666Y0075381D01*
X0272951Y0075725D01*
X0268230Y0075954D01*
X0345788Y0090914D02*
X0336306Y0094206D01*
X0326750Y0097275D01*
X0317124Y0100116D01*
X0307433Y0102730D01*
X0297683Y0105115D01*
X0287880Y0107268D01*
X0278029Y0109190D01*
X0268135Y0110878D01*
X0258204Y0112333D01*
X0248242Y0113553D01*
X0238253Y0114537D01*
X0228244Y0115285D01*
X0218220Y0115797D01*
X0208187Y0116072D01*
X0198150Y0116110D01*
X0198151Y0116110D02*
X0188114Y0116072D01*
X0178081Y0115797D01*
X0168057Y0115285D01*
X0158048Y0114537D01*
X0148059Y0113553D01*
X0138097Y0112333D01*
X0128166Y0110878D01*
X0118272Y0109190D01*
X0108421Y0107268D01*
X0098618Y0105115D01*
X0088868Y0102730D01*
X0079177Y0100116D01*
X0069551Y0097275D01*
X0059995Y0094206D01*
X0050513Y0090914D01*
D11*
X0140276Y0073985D02*
X0140278Y0074138D01*
X0140284Y0074292D01*
X0140294Y0074445D01*
X0140308Y0074597D01*
X0140326Y0074750D01*
X0140348Y0074901D01*
X0140373Y0075052D01*
X0140403Y0075203D01*
X0140437Y0075353D01*
X0140474Y0075501D01*
X0140515Y0075649D01*
X0140560Y0075795D01*
X0140609Y0075941D01*
X0140662Y0076085D01*
X0140718Y0076227D01*
X0140778Y0076368D01*
X0140842Y0076508D01*
X0140909Y0076646D01*
X0140980Y0076782D01*
X0141055Y0076916D01*
X0141132Y0077048D01*
X0141214Y0077178D01*
X0141298Y0077306D01*
X0141386Y0077432D01*
X0141477Y0077555D01*
X0141571Y0077676D01*
X0141669Y0077794D01*
X0141769Y0077910D01*
X0141873Y0078023D01*
X0141979Y0078134D01*
X0142088Y0078242D01*
X0142200Y0078347D01*
X0142314Y0078448D01*
X0142432Y0078547D01*
X0142551Y0078643D01*
X0142673Y0078736D01*
X0142798Y0078825D01*
X0142925Y0078912D01*
X0143054Y0078994D01*
X0143185Y0079074D01*
X0143318Y0079150D01*
X0143453Y0079223D01*
X0143590Y0079292D01*
X0143729Y0079357D01*
X0143869Y0079419D01*
X0144011Y0079477D01*
X0144154Y0079532D01*
X0144299Y0079583D01*
X0144445Y0079630D01*
X0144592Y0079673D01*
X0144740Y0079712D01*
X0144889Y0079748D01*
X0145039Y0079779D01*
X0145190Y0079807D01*
X0145341Y0079831D01*
X0145494Y0079851D01*
X0145646Y0079867D01*
X0145799Y0079879D01*
X0145952Y0079887D01*
X0146105Y0079891D01*
X0146259Y0079891D01*
X0146412Y0079887D01*
X0146565Y0079879D01*
X0146718Y0079867D01*
X0146870Y0079851D01*
X0147023Y0079831D01*
X0147174Y0079807D01*
X0147325Y0079779D01*
X0147475Y0079748D01*
X0147624Y0079712D01*
X0147772Y0079673D01*
X0147919Y0079630D01*
X0148065Y0079583D01*
X0148210Y0079532D01*
X0148353Y0079477D01*
X0148495Y0079419D01*
X0148635Y0079357D01*
X0148774Y0079292D01*
X0148911Y0079223D01*
X0149046Y0079150D01*
X0149179Y0079074D01*
X0149310Y0078994D01*
X0149439Y0078912D01*
X0149566Y0078825D01*
X0149691Y0078736D01*
X0149813Y0078643D01*
X0149932Y0078547D01*
X0150050Y0078448D01*
X0150164Y0078347D01*
X0150276Y0078242D01*
X0150385Y0078134D01*
X0150491Y0078023D01*
X0150595Y0077910D01*
X0150695Y0077794D01*
X0150793Y0077676D01*
X0150887Y0077555D01*
X0150978Y0077432D01*
X0151066Y0077306D01*
X0151150Y0077178D01*
X0151232Y0077048D01*
X0151309Y0076916D01*
X0151384Y0076782D01*
X0151455Y0076646D01*
X0151522Y0076508D01*
X0151586Y0076368D01*
X0151646Y0076227D01*
X0151702Y0076085D01*
X0151755Y0075941D01*
X0151804Y0075795D01*
X0151849Y0075649D01*
X0151890Y0075501D01*
X0151927Y0075353D01*
X0151961Y0075203D01*
X0151991Y0075052D01*
X0152016Y0074901D01*
X0152038Y0074750D01*
X0152056Y0074597D01*
X0152070Y0074445D01*
X0152080Y0074292D01*
X0152086Y0074138D01*
X0152088Y0073985D01*
X0152086Y0073832D01*
X0152080Y0073678D01*
X0152070Y0073525D01*
X0152056Y0073373D01*
X0152038Y0073220D01*
X0152016Y0073069D01*
X0151991Y0072918D01*
X0151961Y0072767D01*
X0151927Y0072617D01*
X0151890Y0072469D01*
X0151849Y0072321D01*
X0151804Y0072175D01*
X0151755Y0072029D01*
X0151702Y0071885D01*
X0151646Y0071743D01*
X0151586Y0071602D01*
X0151522Y0071462D01*
X0151455Y0071324D01*
X0151384Y0071188D01*
X0151309Y0071054D01*
X0151232Y0070922D01*
X0151150Y0070792D01*
X0151066Y0070664D01*
X0150978Y0070538D01*
X0150887Y0070415D01*
X0150793Y0070294D01*
X0150695Y0070176D01*
X0150595Y0070060D01*
X0150491Y0069947D01*
X0150385Y0069836D01*
X0150276Y0069728D01*
X0150164Y0069623D01*
X0150050Y0069522D01*
X0149932Y0069423D01*
X0149813Y0069327D01*
X0149691Y0069234D01*
X0149566Y0069145D01*
X0149439Y0069058D01*
X0149310Y0068976D01*
X0149179Y0068896D01*
X0149046Y0068820D01*
X0148911Y0068747D01*
X0148774Y0068678D01*
X0148635Y0068613D01*
X0148495Y0068551D01*
X0148353Y0068493D01*
X0148210Y0068438D01*
X0148065Y0068387D01*
X0147919Y0068340D01*
X0147772Y0068297D01*
X0147624Y0068258D01*
X0147475Y0068222D01*
X0147325Y0068191D01*
X0147174Y0068163D01*
X0147023Y0068139D01*
X0146870Y0068119D01*
X0146718Y0068103D01*
X0146565Y0068091D01*
X0146412Y0068083D01*
X0146259Y0068079D01*
X0146105Y0068079D01*
X0145952Y0068083D01*
X0145799Y0068091D01*
X0145646Y0068103D01*
X0145494Y0068119D01*
X0145341Y0068139D01*
X0145190Y0068163D01*
X0145039Y0068191D01*
X0144889Y0068222D01*
X0144740Y0068258D01*
X0144592Y0068297D01*
X0144445Y0068340D01*
X0144299Y0068387D01*
X0144154Y0068438D01*
X0144011Y0068493D01*
X0143869Y0068551D01*
X0143729Y0068613D01*
X0143590Y0068678D01*
X0143453Y0068747D01*
X0143318Y0068820D01*
X0143185Y0068896D01*
X0143054Y0068976D01*
X0142925Y0069058D01*
X0142798Y0069145D01*
X0142673Y0069234D01*
X0142551Y0069327D01*
X0142432Y0069423D01*
X0142314Y0069522D01*
X0142200Y0069623D01*
X0142088Y0069728D01*
X0141979Y0069836D01*
X0141873Y0069947D01*
X0141769Y0070060D01*
X0141669Y0070176D01*
X0141571Y0070294D01*
X0141477Y0070415D01*
X0141386Y0070538D01*
X0141298Y0070664D01*
X0141214Y0070792D01*
X0141132Y0070922D01*
X0141055Y0071054D01*
X0140980Y0071188D01*
X0140909Y0071324D01*
X0140842Y0071462D01*
X0140778Y0071602D01*
X0140718Y0071743D01*
X0140662Y0071885D01*
X0140609Y0072029D01*
X0140560Y0072175D01*
X0140515Y0072321D01*
X0140474Y0072469D01*
X0140437Y0072617D01*
X0140403Y0072767D01*
X0140373Y0072918D01*
X0140348Y0073069D01*
X0140326Y0073220D01*
X0140308Y0073373D01*
X0140294Y0073525D01*
X0140284Y0073678D01*
X0140278Y0073832D01*
X0140276Y0073985D01*
X0244213Y0073985D02*
X0244215Y0074138D01*
X0244221Y0074292D01*
X0244231Y0074445D01*
X0244245Y0074597D01*
X0244263Y0074750D01*
X0244285Y0074901D01*
X0244310Y0075052D01*
X0244340Y0075203D01*
X0244374Y0075353D01*
X0244411Y0075501D01*
X0244452Y0075649D01*
X0244497Y0075795D01*
X0244546Y0075941D01*
X0244599Y0076085D01*
X0244655Y0076227D01*
X0244715Y0076368D01*
X0244779Y0076508D01*
X0244846Y0076646D01*
X0244917Y0076782D01*
X0244992Y0076916D01*
X0245069Y0077048D01*
X0245151Y0077178D01*
X0245235Y0077306D01*
X0245323Y0077432D01*
X0245414Y0077555D01*
X0245508Y0077676D01*
X0245606Y0077794D01*
X0245706Y0077910D01*
X0245810Y0078023D01*
X0245916Y0078134D01*
X0246025Y0078242D01*
X0246137Y0078347D01*
X0246251Y0078448D01*
X0246369Y0078547D01*
X0246488Y0078643D01*
X0246610Y0078736D01*
X0246735Y0078825D01*
X0246862Y0078912D01*
X0246991Y0078994D01*
X0247122Y0079074D01*
X0247255Y0079150D01*
X0247390Y0079223D01*
X0247527Y0079292D01*
X0247666Y0079357D01*
X0247806Y0079419D01*
X0247948Y0079477D01*
X0248091Y0079532D01*
X0248236Y0079583D01*
X0248382Y0079630D01*
X0248529Y0079673D01*
X0248677Y0079712D01*
X0248826Y0079748D01*
X0248976Y0079779D01*
X0249127Y0079807D01*
X0249278Y0079831D01*
X0249431Y0079851D01*
X0249583Y0079867D01*
X0249736Y0079879D01*
X0249889Y0079887D01*
X0250042Y0079891D01*
X0250196Y0079891D01*
X0250349Y0079887D01*
X0250502Y0079879D01*
X0250655Y0079867D01*
X0250807Y0079851D01*
X0250960Y0079831D01*
X0251111Y0079807D01*
X0251262Y0079779D01*
X0251412Y0079748D01*
X0251561Y0079712D01*
X0251709Y0079673D01*
X0251856Y0079630D01*
X0252002Y0079583D01*
X0252147Y0079532D01*
X0252290Y0079477D01*
X0252432Y0079419D01*
X0252572Y0079357D01*
X0252711Y0079292D01*
X0252848Y0079223D01*
X0252983Y0079150D01*
X0253116Y0079074D01*
X0253247Y0078994D01*
X0253376Y0078912D01*
X0253503Y0078825D01*
X0253628Y0078736D01*
X0253750Y0078643D01*
X0253869Y0078547D01*
X0253987Y0078448D01*
X0254101Y0078347D01*
X0254213Y0078242D01*
X0254322Y0078134D01*
X0254428Y0078023D01*
X0254532Y0077910D01*
X0254632Y0077794D01*
X0254730Y0077676D01*
X0254824Y0077555D01*
X0254915Y0077432D01*
X0255003Y0077306D01*
X0255087Y0077178D01*
X0255169Y0077048D01*
X0255246Y0076916D01*
X0255321Y0076782D01*
X0255392Y0076646D01*
X0255459Y0076508D01*
X0255523Y0076368D01*
X0255583Y0076227D01*
X0255639Y0076085D01*
X0255692Y0075941D01*
X0255741Y0075795D01*
X0255786Y0075649D01*
X0255827Y0075501D01*
X0255864Y0075353D01*
X0255898Y0075203D01*
X0255928Y0075052D01*
X0255953Y0074901D01*
X0255975Y0074750D01*
X0255993Y0074597D01*
X0256007Y0074445D01*
X0256017Y0074292D01*
X0256023Y0074138D01*
X0256025Y0073985D01*
X0256023Y0073832D01*
X0256017Y0073678D01*
X0256007Y0073525D01*
X0255993Y0073373D01*
X0255975Y0073220D01*
X0255953Y0073069D01*
X0255928Y0072918D01*
X0255898Y0072767D01*
X0255864Y0072617D01*
X0255827Y0072469D01*
X0255786Y0072321D01*
X0255741Y0072175D01*
X0255692Y0072029D01*
X0255639Y0071885D01*
X0255583Y0071743D01*
X0255523Y0071602D01*
X0255459Y0071462D01*
X0255392Y0071324D01*
X0255321Y0071188D01*
X0255246Y0071054D01*
X0255169Y0070922D01*
X0255087Y0070792D01*
X0255003Y0070664D01*
X0254915Y0070538D01*
X0254824Y0070415D01*
X0254730Y0070294D01*
X0254632Y0070176D01*
X0254532Y0070060D01*
X0254428Y0069947D01*
X0254322Y0069836D01*
X0254213Y0069728D01*
X0254101Y0069623D01*
X0253987Y0069522D01*
X0253869Y0069423D01*
X0253750Y0069327D01*
X0253628Y0069234D01*
X0253503Y0069145D01*
X0253376Y0069058D01*
X0253247Y0068976D01*
X0253116Y0068896D01*
X0252983Y0068820D01*
X0252848Y0068747D01*
X0252711Y0068678D01*
X0252572Y0068613D01*
X0252432Y0068551D01*
X0252290Y0068493D01*
X0252147Y0068438D01*
X0252002Y0068387D01*
X0251856Y0068340D01*
X0251709Y0068297D01*
X0251561Y0068258D01*
X0251412Y0068222D01*
X0251262Y0068191D01*
X0251111Y0068163D01*
X0250960Y0068139D01*
X0250807Y0068119D01*
X0250655Y0068103D01*
X0250502Y0068091D01*
X0250349Y0068083D01*
X0250196Y0068079D01*
X0250042Y0068079D01*
X0249889Y0068083D01*
X0249736Y0068091D01*
X0249583Y0068103D01*
X0249431Y0068119D01*
X0249278Y0068139D01*
X0249127Y0068163D01*
X0248976Y0068191D01*
X0248826Y0068222D01*
X0248677Y0068258D01*
X0248529Y0068297D01*
X0248382Y0068340D01*
X0248236Y0068387D01*
X0248091Y0068438D01*
X0247948Y0068493D01*
X0247806Y0068551D01*
X0247666Y0068613D01*
X0247527Y0068678D01*
X0247390Y0068747D01*
X0247255Y0068820D01*
X0247122Y0068896D01*
X0246991Y0068976D01*
X0246862Y0069058D01*
X0246735Y0069145D01*
X0246610Y0069234D01*
X0246488Y0069327D01*
X0246369Y0069423D01*
X0246251Y0069522D01*
X0246137Y0069623D01*
X0246025Y0069728D01*
X0245916Y0069836D01*
X0245810Y0069947D01*
X0245706Y0070060D01*
X0245606Y0070176D01*
X0245508Y0070294D01*
X0245414Y0070415D01*
X0245323Y0070538D01*
X0245235Y0070664D01*
X0245151Y0070792D01*
X0245069Y0070922D01*
X0244992Y0071054D01*
X0244917Y0071188D01*
X0244846Y0071324D01*
X0244779Y0071462D01*
X0244715Y0071602D01*
X0244655Y0071743D01*
X0244599Y0071885D01*
X0244546Y0072029D01*
X0244497Y0072175D01*
X0244452Y0072321D01*
X0244411Y0072469D01*
X0244374Y0072617D01*
X0244340Y0072767D01*
X0244310Y0072918D01*
X0244285Y0073069D01*
X0244263Y0073220D01*
X0244245Y0073373D01*
X0244231Y0073525D01*
X0244221Y0073678D01*
X0244215Y0073832D01*
X0244213Y0073985D01*
D12*
X0211914Y0083800D02*
X0208686Y0083800D01*
X0208686Y0088800D02*
X0211914Y0088800D01*
X0229300Y0096186D02*
X0229300Y0099414D01*
X0234300Y0099414D02*
X0234300Y0096186D01*
X0223800Y0099686D02*
X0223800Y0102914D01*
X0218800Y0102914D02*
X0218800Y0099686D01*
X0188414Y0088800D02*
X0185186Y0088800D01*
X0185186Y0083800D02*
X0188414Y0083800D01*
X0166800Y0096186D02*
X0166800Y0099414D01*
X0172300Y0099686D02*
X0172300Y0102914D01*
X0177300Y0102914D02*
X0177300Y0099686D01*
X0161800Y0099414D02*
X0161800Y0096186D01*
X0144300Y0092414D02*
X0144300Y0089186D01*
X0139300Y0089186D02*
X0139300Y0092414D01*
X0133300Y0093414D02*
X0133300Y0090186D01*
X0128300Y0090186D02*
X0128300Y0093414D01*
X0110800Y0086914D02*
X0110800Y0083686D01*
X0105800Y0083686D02*
X0105800Y0086914D01*
X0099800Y0087414D02*
X0099800Y0084186D01*
X0094800Y0084186D02*
X0094800Y0087414D01*
X0077300Y0080914D02*
X0077300Y0077686D01*
X0072300Y0077686D02*
X0072300Y0080914D01*
X0066300Y0077414D02*
X0066300Y0074186D01*
X0061300Y0074186D02*
X0061300Y0077414D01*
X0043800Y0070914D02*
X0043800Y0067686D01*
X0038800Y0067686D02*
X0038800Y0070914D01*
X0032300Y0050514D02*
X0032300Y0047286D01*
X0027300Y0047286D02*
X0027300Y0050514D01*
X0027300Y0033414D02*
X0027300Y0030186D01*
X0032300Y0030186D02*
X0032300Y0033414D01*
X0252300Y0089186D02*
X0252300Y0092414D01*
X0257300Y0092414D02*
X0257300Y0089186D01*
X0263300Y0090186D02*
X0263300Y0093414D01*
X0268300Y0093414D02*
X0268300Y0090186D01*
X0285800Y0086914D02*
X0285800Y0083686D01*
X0290800Y0083686D02*
X0290800Y0086914D01*
X0296800Y0087414D02*
X0296800Y0084186D01*
X0301800Y0084186D02*
X0301800Y0087414D01*
X0318300Y0080914D02*
X0318300Y0077686D01*
X0323300Y0077686D02*
X0323300Y0080914D01*
X0330300Y0077414D02*
X0330300Y0074186D01*
X0335300Y0074186D02*
X0335300Y0077414D01*
X0352800Y0070914D02*
X0352800Y0067686D01*
X0357800Y0067686D02*
X0357800Y0070914D01*
X0363367Y0050814D02*
X0363367Y0047586D01*
X0368367Y0047586D02*
X0368367Y0050814D01*
X0368367Y0033414D02*
X0368367Y0030186D01*
X0363367Y0030186D02*
X0363367Y0033414D01*
D13*
X0365873Y0034680D03*
X0365873Y0028880D03*
X0365873Y0046280D03*
X0365873Y0052080D03*
X0355294Y0066420D03*
X0355294Y0072220D03*
X0332806Y0072880D03*
X0320794Y0076420D03*
X0332806Y0078680D03*
X0320794Y0082220D03*
X0299306Y0082880D03*
X0288294Y0082420D03*
X0288294Y0088220D03*
X0299306Y0088680D03*
X0265806Y0088880D03*
X0254794Y0087920D03*
X0254794Y0093720D03*
X0265806Y0094680D03*
X0231806Y0094880D03*
X0221294Y0098420D03*
X0231806Y0100680D03*
X0221294Y0104220D03*
X0174794Y0104220D03*
X0164294Y0100720D03*
X0174794Y0098420D03*
X0164294Y0094920D03*
X0141806Y0093680D03*
X0130794Y0094720D03*
X0130794Y0088920D03*
X0141806Y0087880D03*
X0108306Y0088180D03*
X0097294Y0088720D03*
X0097294Y0082920D03*
X0108306Y0082380D03*
X0074806Y0082180D03*
X0063794Y0078720D03*
X0074806Y0076380D03*
X0063794Y0072920D03*
X0041306Y0072180D03*
X0041306Y0066380D03*
X0029794Y0051820D03*
X0029794Y0046020D03*
X0029794Y0034720D03*
X0029794Y0028920D03*
D14*
X0183920Y0086306D03*
X0189720Y0086306D03*
X0207420Y0086306D03*
X0213220Y0086306D03*
D15*
X0236733Y0094261D02*
X0236733Y0102922D01*
X0250119Y0102922D01*
X0250119Y0092292D01*
X0238702Y0092292D01*
X0236733Y0094261D01*
X0238308Y0094064D02*
X0242639Y0094064D01*
X0242639Y0101150D01*
X0238308Y0101150D01*
X0238308Y0094064D01*
X0244213Y0094064D02*
X0248544Y0094064D01*
X0248544Y0101150D01*
X0244213Y0101150D01*
X0244213Y0094064D01*
X0270198Y0097017D02*
X0270198Y0088355D01*
X0272166Y0086387D01*
X0283583Y0086387D01*
X0283583Y0097017D01*
X0270198Y0097017D01*
X0271772Y0095245D02*
X0271772Y0088158D01*
X0276103Y0088158D01*
X0276103Y0095245D01*
X0271772Y0095245D01*
X0277678Y0095245D02*
X0282009Y0095245D01*
X0282009Y0088158D01*
X0277678Y0088158D01*
X0277678Y0095245D01*
X0303662Y0091111D02*
X0317048Y0091111D01*
X0317048Y0080481D01*
X0305631Y0080481D01*
X0303662Y0082450D01*
X0303662Y0091111D01*
X0305237Y0089339D02*
X0305237Y0082253D01*
X0309568Y0082253D01*
X0309568Y0089339D01*
X0305237Y0089339D01*
X0311143Y0089339D02*
X0315473Y0089339D01*
X0315473Y0082253D01*
X0311143Y0082253D01*
X0311143Y0089339D01*
X0337127Y0081269D02*
X0350513Y0081269D01*
X0350513Y0070639D01*
X0339095Y0070639D01*
X0337127Y0072607D01*
X0337127Y0081269D01*
X0338702Y0079497D02*
X0338702Y0072410D01*
X0343032Y0072410D01*
X0343032Y0079497D01*
X0338702Y0079497D01*
X0344607Y0079497D02*
X0348938Y0079497D01*
X0348938Y0072410D01*
X0344607Y0072410D01*
X0344607Y0079497D01*
X0370591Y0043867D02*
X0370591Y0033237D01*
X0383977Y0033237D01*
X0383977Y0041898D01*
X0382009Y0043867D01*
X0370591Y0043867D01*
X0372166Y0042095D02*
X0376497Y0042095D01*
X0376497Y0035009D01*
X0372166Y0035009D01*
X0372166Y0042095D01*
X0378072Y0042095D02*
X0382402Y0042095D01*
X0382402Y0035009D01*
X0378072Y0035009D01*
X0378072Y0042095D01*
X0216654Y0096229D02*
X0216654Y0106859D01*
X0203269Y0106859D01*
X0203269Y0098198D01*
X0205237Y0096229D01*
X0216654Y0096229D01*
X0215080Y0098001D02*
X0210749Y0098001D01*
X0210749Y0105087D01*
X0215080Y0105087D01*
X0215080Y0098001D01*
X0209174Y0098001D02*
X0204843Y0098001D01*
X0204843Y0105087D01*
X0209174Y0105087D01*
X0209174Y0098001D01*
X0193032Y0096229D02*
X0193032Y0106859D01*
X0179646Y0106859D01*
X0179646Y0098198D01*
X0181615Y0096229D01*
X0193032Y0096229D01*
X0191457Y0098001D02*
X0187127Y0098001D01*
X0187127Y0105087D01*
X0191457Y0105087D01*
X0191457Y0098001D01*
X0185552Y0098001D02*
X0181221Y0098001D01*
X0181221Y0105087D01*
X0185552Y0105087D01*
X0185552Y0098001D01*
X0159568Y0102922D02*
X0159568Y0092292D01*
X0148150Y0092292D01*
X0146182Y0094261D01*
X0146182Y0102922D01*
X0159568Y0102922D01*
X0157993Y0101150D02*
X0153662Y0101150D01*
X0153662Y0094064D01*
X0157993Y0094064D01*
X0157993Y0101150D01*
X0152087Y0101150D02*
X0147757Y0101150D01*
X0147757Y0094064D01*
X0152087Y0094064D01*
X0152087Y0101150D01*
X0126103Y0097017D02*
X0126103Y0086387D01*
X0114686Y0086387D01*
X0112717Y0088355D01*
X0112717Y0097017D01*
X0126103Y0097017D01*
X0124528Y0095245D02*
X0120198Y0095245D01*
X0120198Y0088158D01*
X0124528Y0088158D01*
X0124528Y0095245D01*
X0118623Y0095245D02*
X0114292Y0095245D01*
X0114292Y0088158D01*
X0118623Y0088158D01*
X0118623Y0095245D01*
X0092639Y0091111D02*
X0092639Y0080481D01*
X0081221Y0080481D01*
X0079253Y0082450D01*
X0079253Y0091111D01*
X0092639Y0091111D01*
X0091064Y0089339D02*
X0086733Y0089339D01*
X0086733Y0082253D01*
X0091064Y0082253D01*
X0091064Y0089339D01*
X0085158Y0089339D02*
X0080828Y0089339D01*
X0080828Y0082253D01*
X0085158Y0082253D01*
X0085158Y0089339D01*
X0059174Y0081269D02*
X0059174Y0070639D01*
X0047757Y0070639D01*
X0045788Y0072607D01*
X0045788Y0081269D01*
X0059174Y0081269D01*
X0057599Y0079497D02*
X0053269Y0079497D01*
X0053269Y0072410D01*
X0057599Y0072410D01*
X0057599Y0079497D01*
X0051694Y0079497D02*
X0047363Y0079497D01*
X0047363Y0072410D01*
X0051694Y0072410D01*
X0051694Y0079497D01*
X0025709Y0043867D02*
X0012324Y0043867D01*
X0012324Y0035206D01*
X0014292Y0033237D01*
X0025709Y0033237D01*
X0025709Y0043867D01*
X0024135Y0042095D02*
X0019804Y0042095D01*
X0019804Y0035009D01*
X0024135Y0035009D01*
X0024135Y0042095D01*
X0018229Y0042095D02*
X0013898Y0042095D01*
X0013898Y0035009D01*
X0018229Y0035009D01*
X0018229Y0042095D01*
M02*
