G75*
%MOIN*%
%OFA0B0*%
%FSLAX25Y25*%
%IPPOS*%
%LPD*%
%AMOC8*
5,1,8,0,0,1.08239X$1,22.5*
%
%ADD10C,0.00000*%
%ADD11C,0.00300*%
%ADD12C,0.00500*%
%ADD13C,0.01600*%
%ADD14C,0.00400*%
%ADD15C,0.00800*%
%ADD16C,0.00100*%
%ADD17R,0.01969X0.06299*%
%ADD18R,0.03400X0.11400*%
%ADD19R,0.03400X0.03000*%
%ADD20C,0.00787*%
%ADD21R,0.06299X0.01969*%
%ADD22C,0.00600*%
%ADD23R,0.02300X0.01800*%
%ADD24C,0.00250*%
%ADD25C,0.00984*%
%ADD26R,0.02900X0.06900*%
%ADD27R,0.06900X0.02900*%
%ADD28C,0.00200*%
D10*
X0017192Y0041762D02*
X0017194Y0041915D01*
X0017200Y0042069D01*
X0017210Y0042222D01*
X0017224Y0042374D01*
X0017242Y0042527D01*
X0017264Y0042678D01*
X0017289Y0042829D01*
X0017319Y0042980D01*
X0017353Y0043130D01*
X0017390Y0043278D01*
X0017431Y0043426D01*
X0017476Y0043572D01*
X0017525Y0043718D01*
X0017578Y0043862D01*
X0017634Y0044004D01*
X0017694Y0044145D01*
X0017758Y0044285D01*
X0017825Y0044423D01*
X0017896Y0044559D01*
X0017971Y0044693D01*
X0018048Y0044825D01*
X0018130Y0044955D01*
X0018214Y0045083D01*
X0018302Y0045209D01*
X0018393Y0045332D01*
X0018487Y0045453D01*
X0018585Y0045571D01*
X0018685Y0045687D01*
X0018789Y0045800D01*
X0018895Y0045911D01*
X0019004Y0046019D01*
X0019116Y0046124D01*
X0019230Y0046225D01*
X0019348Y0046324D01*
X0019467Y0046420D01*
X0019589Y0046513D01*
X0019714Y0046602D01*
X0019841Y0046689D01*
X0019970Y0046771D01*
X0020101Y0046851D01*
X0020234Y0046927D01*
X0020369Y0047000D01*
X0020506Y0047069D01*
X0020645Y0047134D01*
X0020785Y0047196D01*
X0020927Y0047254D01*
X0021070Y0047309D01*
X0021215Y0047360D01*
X0021361Y0047407D01*
X0021508Y0047450D01*
X0021656Y0047489D01*
X0021805Y0047525D01*
X0021955Y0047556D01*
X0022106Y0047584D01*
X0022257Y0047608D01*
X0022410Y0047628D01*
X0022562Y0047644D01*
X0022715Y0047656D01*
X0022868Y0047664D01*
X0023021Y0047668D01*
X0023175Y0047668D01*
X0023328Y0047664D01*
X0023481Y0047656D01*
X0023634Y0047644D01*
X0023786Y0047628D01*
X0023939Y0047608D01*
X0024090Y0047584D01*
X0024241Y0047556D01*
X0024391Y0047525D01*
X0024540Y0047489D01*
X0024688Y0047450D01*
X0024835Y0047407D01*
X0024981Y0047360D01*
X0025126Y0047309D01*
X0025269Y0047254D01*
X0025411Y0047196D01*
X0025551Y0047134D01*
X0025690Y0047069D01*
X0025827Y0047000D01*
X0025962Y0046927D01*
X0026095Y0046851D01*
X0026226Y0046771D01*
X0026355Y0046689D01*
X0026482Y0046602D01*
X0026607Y0046513D01*
X0026729Y0046420D01*
X0026848Y0046324D01*
X0026966Y0046225D01*
X0027080Y0046124D01*
X0027192Y0046019D01*
X0027301Y0045911D01*
X0027407Y0045800D01*
X0027511Y0045687D01*
X0027611Y0045571D01*
X0027709Y0045453D01*
X0027803Y0045332D01*
X0027894Y0045209D01*
X0027982Y0045083D01*
X0028066Y0044955D01*
X0028148Y0044825D01*
X0028225Y0044693D01*
X0028300Y0044559D01*
X0028371Y0044423D01*
X0028438Y0044285D01*
X0028502Y0044145D01*
X0028562Y0044004D01*
X0028618Y0043862D01*
X0028671Y0043718D01*
X0028720Y0043572D01*
X0028765Y0043426D01*
X0028806Y0043278D01*
X0028843Y0043130D01*
X0028877Y0042980D01*
X0028907Y0042829D01*
X0028932Y0042678D01*
X0028954Y0042527D01*
X0028972Y0042374D01*
X0028986Y0042222D01*
X0028996Y0042069D01*
X0029002Y0041915D01*
X0029004Y0041762D01*
X0029002Y0041609D01*
X0028996Y0041455D01*
X0028986Y0041302D01*
X0028972Y0041150D01*
X0028954Y0040997D01*
X0028932Y0040846D01*
X0028907Y0040695D01*
X0028877Y0040544D01*
X0028843Y0040394D01*
X0028806Y0040246D01*
X0028765Y0040098D01*
X0028720Y0039952D01*
X0028671Y0039806D01*
X0028618Y0039662D01*
X0028562Y0039520D01*
X0028502Y0039379D01*
X0028438Y0039239D01*
X0028371Y0039101D01*
X0028300Y0038965D01*
X0028225Y0038831D01*
X0028148Y0038699D01*
X0028066Y0038569D01*
X0027982Y0038441D01*
X0027894Y0038315D01*
X0027803Y0038192D01*
X0027709Y0038071D01*
X0027611Y0037953D01*
X0027511Y0037837D01*
X0027407Y0037724D01*
X0027301Y0037613D01*
X0027192Y0037505D01*
X0027080Y0037400D01*
X0026966Y0037299D01*
X0026848Y0037200D01*
X0026729Y0037104D01*
X0026607Y0037011D01*
X0026482Y0036922D01*
X0026355Y0036835D01*
X0026226Y0036753D01*
X0026095Y0036673D01*
X0025962Y0036597D01*
X0025827Y0036524D01*
X0025690Y0036455D01*
X0025551Y0036390D01*
X0025411Y0036328D01*
X0025269Y0036270D01*
X0025126Y0036215D01*
X0024981Y0036164D01*
X0024835Y0036117D01*
X0024688Y0036074D01*
X0024540Y0036035D01*
X0024391Y0035999D01*
X0024241Y0035968D01*
X0024090Y0035940D01*
X0023939Y0035916D01*
X0023786Y0035896D01*
X0023634Y0035880D01*
X0023481Y0035868D01*
X0023328Y0035860D01*
X0023175Y0035856D01*
X0023021Y0035856D01*
X0022868Y0035860D01*
X0022715Y0035868D01*
X0022562Y0035880D01*
X0022410Y0035896D01*
X0022257Y0035916D01*
X0022106Y0035940D01*
X0021955Y0035968D01*
X0021805Y0035999D01*
X0021656Y0036035D01*
X0021508Y0036074D01*
X0021361Y0036117D01*
X0021215Y0036164D01*
X0021070Y0036215D01*
X0020927Y0036270D01*
X0020785Y0036328D01*
X0020645Y0036390D01*
X0020506Y0036455D01*
X0020369Y0036524D01*
X0020234Y0036597D01*
X0020101Y0036673D01*
X0019970Y0036753D01*
X0019841Y0036835D01*
X0019714Y0036922D01*
X0019589Y0037011D01*
X0019467Y0037104D01*
X0019348Y0037200D01*
X0019230Y0037299D01*
X0019116Y0037400D01*
X0019004Y0037505D01*
X0018895Y0037613D01*
X0018789Y0037724D01*
X0018685Y0037837D01*
X0018585Y0037953D01*
X0018487Y0038071D01*
X0018393Y0038192D01*
X0018302Y0038315D01*
X0018214Y0038441D01*
X0018130Y0038569D01*
X0018048Y0038699D01*
X0017971Y0038831D01*
X0017896Y0038965D01*
X0017825Y0039101D01*
X0017758Y0039239D01*
X0017694Y0039379D01*
X0017634Y0039520D01*
X0017578Y0039662D01*
X0017525Y0039806D01*
X0017476Y0039952D01*
X0017431Y0040098D01*
X0017390Y0040246D01*
X0017353Y0040394D01*
X0017319Y0040544D01*
X0017289Y0040695D01*
X0017264Y0040846D01*
X0017242Y0040997D01*
X0017224Y0041150D01*
X0017210Y0041302D01*
X0017200Y0041455D01*
X0017194Y0041609D01*
X0017192Y0041762D01*
X0017192Y0112628D02*
X0017194Y0112781D01*
X0017200Y0112935D01*
X0017210Y0113088D01*
X0017224Y0113240D01*
X0017242Y0113393D01*
X0017264Y0113544D01*
X0017289Y0113695D01*
X0017319Y0113846D01*
X0017353Y0113996D01*
X0017390Y0114144D01*
X0017431Y0114292D01*
X0017476Y0114438D01*
X0017525Y0114584D01*
X0017578Y0114728D01*
X0017634Y0114870D01*
X0017694Y0115011D01*
X0017758Y0115151D01*
X0017825Y0115289D01*
X0017896Y0115425D01*
X0017971Y0115559D01*
X0018048Y0115691D01*
X0018130Y0115821D01*
X0018214Y0115949D01*
X0018302Y0116075D01*
X0018393Y0116198D01*
X0018487Y0116319D01*
X0018585Y0116437D01*
X0018685Y0116553D01*
X0018789Y0116666D01*
X0018895Y0116777D01*
X0019004Y0116885D01*
X0019116Y0116990D01*
X0019230Y0117091D01*
X0019348Y0117190D01*
X0019467Y0117286D01*
X0019589Y0117379D01*
X0019714Y0117468D01*
X0019841Y0117555D01*
X0019970Y0117637D01*
X0020101Y0117717D01*
X0020234Y0117793D01*
X0020369Y0117866D01*
X0020506Y0117935D01*
X0020645Y0118000D01*
X0020785Y0118062D01*
X0020927Y0118120D01*
X0021070Y0118175D01*
X0021215Y0118226D01*
X0021361Y0118273D01*
X0021508Y0118316D01*
X0021656Y0118355D01*
X0021805Y0118391D01*
X0021955Y0118422D01*
X0022106Y0118450D01*
X0022257Y0118474D01*
X0022410Y0118494D01*
X0022562Y0118510D01*
X0022715Y0118522D01*
X0022868Y0118530D01*
X0023021Y0118534D01*
X0023175Y0118534D01*
X0023328Y0118530D01*
X0023481Y0118522D01*
X0023634Y0118510D01*
X0023786Y0118494D01*
X0023939Y0118474D01*
X0024090Y0118450D01*
X0024241Y0118422D01*
X0024391Y0118391D01*
X0024540Y0118355D01*
X0024688Y0118316D01*
X0024835Y0118273D01*
X0024981Y0118226D01*
X0025126Y0118175D01*
X0025269Y0118120D01*
X0025411Y0118062D01*
X0025551Y0118000D01*
X0025690Y0117935D01*
X0025827Y0117866D01*
X0025962Y0117793D01*
X0026095Y0117717D01*
X0026226Y0117637D01*
X0026355Y0117555D01*
X0026482Y0117468D01*
X0026607Y0117379D01*
X0026729Y0117286D01*
X0026848Y0117190D01*
X0026966Y0117091D01*
X0027080Y0116990D01*
X0027192Y0116885D01*
X0027301Y0116777D01*
X0027407Y0116666D01*
X0027511Y0116553D01*
X0027611Y0116437D01*
X0027709Y0116319D01*
X0027803Y0116198D01*
X0027894Y0116075D01*
X0027982Y0115949D01*
X0028066Y0115821D01*
X0028148Y0115691D01*
X0028225Y0115559D01*
X0028300Y0115425D01*
X0028371Y0115289D01*
X0028438Y0115151D01*
X0028502Y0115011D01*
X0028562Y0114870D01*
X0028618Y0114728D01*
X0028671Y0114584D01*
X0028720Y0114438D01*
X0028765Y0114292D01*
X0028806Y0114144D01*
X0028843Y0113996D01*
X0028877Y0113846D01*
X0028907Y0113695D01*
X0028932Y0113544D01*
X0028954Y0113393D01*
X0028972Y0113240D01*
X0028986Y0113088D01*
X0028996Y0112935D01*
X0029002Y0112781D01*
X0029004Y0112628D01*
X0029002Y0112475D01*
X0028996Y0112321D01*
X0028986Y0112168D01*
X0028972Y0112016D01*
X0028954Y0111863D01*
X0028932Y0111712D01*
X0028907Y0111561D01*
X0028877Y0111410D01*
X0028843Y0111260D01*
X0028806Y0111112D01*
X0028765Y0110964D01*
X0028720Y0110818D01*
X0028671Y0110672D01*
X0028618Y0110528D01*
X0028562Y0110386D01*
X0028502Y0110245D01*
X0028438Y0110105D01*
X0028371Y0109967D01*
X0028300Y0109831D01*
X0028225Y0109697D01*
X0028148Y0109565D01*
X0028066Y0109435D01*
X0027982Y0109307D01*
X0027894Y0109181D01*
X0027803Y0109058D01*
X0027709Y0108937D01*
X0027611Y0108819D01*
X0027511Y0108703D01*
X0027407Y0108590D01*
X0027301Y0108479D01*
X0027192Y0108371D01*
X0027080Y0108266D01*
X0026966Y0108165D01*
X0026848Y0108066D01*
X0026729Y0107970D01*
X0026607Y0107877D01*
X0026482Y0107788D01*
X0026355Y0107701D01*
X0026226Y0107619D01*
X0026095Y0107539D01*
X0025962Y0107463D01*
X0025827Y0107390D01*
X0025690Y0107321D01*
X0025551Y0107256D01*
X0025411Y0107194D01*
X0025269Y0107136D01*
X0025126Y0107081D01*
X0024981Y0107030D01*
X0024835Y0106983D01*
X0024688Y0106940D01*
X0024540Y0106901D01*
X0024391Y0106865D01*
X0024241Y0106834D01*
X0024090Y0106806D01*
X0023939Y0106782D01*
X0023786Y0106762D01*
X0023634Y0106746D01*
X0023481Y0106734D01*
X0023328Y0106726D01*
X0023175Y0106722D01*
X0023021Y0106722D01*
X0022868Y0106726D01*
X0022715Y0106734D01*
X0022562Y0106746D01*
X0022410Y0106762D01*
X0022257Y0106782D01*
X0022106Y0106806D01*
X0021955Y0106834D01*
X0021805Y0106865D01*
X0021656Y0106901D01*
X0021508Y0106940D01*
X0021361Y0106983D01*
X0021215Y0107030D01*
X0021070Y0107081D01*
X0020927Y0107136D01*
X0020785Y0107194D01*
X0020645Y0107256D01*
X0020506Y0107321D01*
X0020369Y0107390D01*
X0020234Y0107463D01*
X0020101Y0107539D01*
X0019970Y0107619D01*
X0019841Y0107701D01*
X0019714Y0107788D01*
X0019589Y0107877D01*
X0019467Y0107970D01*
X0019348Y0108066D01*
X0019230Y0108165D01*
X0019116Y0108266D01*
X0019004Y0108371D01*
X0018895Y0108479D01*
X0018789Y0108590D01*
X0018685Y0108703D01*
X0018585Y0108819D01*
X0018487Y0108937D01*
X0018393Y0109058D01*
X0018302Y0109181D01*
X0018214Y0109307D01*
X0018130Y0109435D01*
X0018048Y0109565D01*
X0017971Y0109697D01*
X0017896Y0109831D01*
X0017825Y0109967D01*
X0017758Y0110105D01*
X0017694Y0110245D01*
X0017634Y0110386D01*
X0017578Y0110528D01*
X0017525Y0110672D01*
X0017476Y0110818D01*
X0017431Y0110964D01*
X0017390Y0111112D01*
X0017353Y0111260D01*
X0017319Y0111410D01*
X0017289Y0111561D01*
X0017264Y0111712D01*
X0017242Y0111863D01*
X0017224Y0112016D01*
X0017210Y0112168D01*
X0017200Y0112321D01*
X0017194Y0112475D01*
X0017192Y0112628D01*
X0143176Y0190187D02*
X0143178Y0190340D01*
X0143184Y0190494D01*
X0143194Y0190647D01*
X0143208Y0190799D01*
X0143226Y0190952D01*
X0143248Y0191103D01*
X0143273Y0191254D01*
X0143303Y0191405D01*
X0143337Y0191555D01*
X0143374Y0191703D01*
X0143415Y0191851D01*
X0143460Y0191997D01*
X0143509Y0192143D01*
X0143562Y0192287D01*
X0143618Y0192429D01*
X0143678Y0192570D01*
X0143742Y0192710D01*
X0143809Y0192848D01*
X0143880Y0192984D01*
X0143955Y0193118D01*
X0144032Y0193250D01*
X0144114Y0193380D01*
X0144198Y0193508D01*
X0144286Y0193634D01*
X0144377Y0193757D01*
X0144471Y0193878D01*
X0144569Y0193996D01*
X0144669Y0194112D01*
X0144773Y0194225D01*
X0144879Y0194336D01*
X0144988Y0194444D01*
X0145100Y0194549D01*
X0145214Y0194650D01*
X0145332Y0194749D01*
X0145451Y0194845D01*
X0145573Y0194938D01*
X0145698Y0195027D01*
X0145825Y0195114D01*
X0145954Y0195196D01*
X0146085Y0195276D01*
X0146218Y0195352D01*
X0146353Y0195425D01*
X0146490Y0195494D01*
X0146629Y0195559D01*
X0146769Y0195621D01*
X0146911Y0195679D01*
X0147054Y0195734D01*
X0147199Y0195785D01*
X0147345Y0195832D01*
X0147492Y0195875D01*
X0147640Y0195914D01*
X0147789Y0195950D01*
X0147939Y0195981D01*
X0148090Y0196009D01*
X0148241Y0196033D01*
X0148394Y0196053D01*
X0148546Y0196069D01*
X0148699Y0196081D01*
X0148852Y0196089D01*
X0149005Y0196093D01*
X0149159Y0196093D01*
X0149312Y0196089D01*
X0149465Y0196081D01*
X0149618Y0196069D01*
X0149770Y0196053D01*
X0149923Y0196033D01*
X0150074Y0196009D01*
X0150225Y0195981D01*
X0150375Y0195950D01*
X0150524Y0195914D01*
X0150672Y0195875D01*
X0150819Y0195832D01*
X0150965Y0195785D01*
X0151110Y0195734D01*
X0151253Y0195679D01*
X0151395Y0195621D01*
X0151535Y0195559D01*
X0151674Y0195494D01*
X0151811Y0195425D01*
X0151946Y0195352D01*
X0152079Y0195276D01*
X0152210Y0195196D01*
X0152339Y0195114D01*
X0152466Y0195027D01*
X0152591Y0194938D01*
X0152713Y0194845D01*
X0152832Y0194749D01*
X0152950Y0194650D01*
X0153064Y0194549D01*
X0153176Y0194444D01*
X0153285Y0194336D01*
X0153391Y0194225D01*
X0153495Y0194112D01*
X0153595Y0193996D01*
X0153693Y0193878D01*
X0153787Y0193757D01*
X0153878Y0193634D01*
X0153966Y0193508D01*
X0154050Y0193380D01*
X0154132Y0193250D01*
X0154209Y0193118D01*
X0154284Y0192984D01*
X0154355Y0192848D01*
X0154422Y0192710D01*
X0154486Y0192570D01*
X0154546Y0192429D01*
X0154602Y0192287D01*
X0154655Y0192143D01*
X0154704Y0191997D01*
X0154749Y0191851D01*
X0154790Y0191703D01*
X0154827Y0191555D01*
X0154861Y0191405D01*
X0154891Y0191254D01*
X0154916Y0191103D01*
X0154938Y0190952D01*
X0154956Y0190799D01*
X0154970Y0190647D01*
X0154980Y0190494D01*
X0154986Y0190340D01*
X0154988Y0190187D01*
X0154986Y0190034D01*
X0154980Y0189880D01*
X0154970Y0189727D01*
X0154956Y0189575D01*
X0154938Y0189422D01*
X0154916Y0189271D01*
X0154891Y0189120D01*
X0154861Y0188969D01*
X0154827Y0188819D01*
X0154790Y0188671D01*
X0154749Y0188523D01*
X0154704Y0188377D01*
X0154655Y0188231D01*
X0154602Y0188087D01*
X0154546Y0187945D01*
X0154486Y0187804D01*
X0154422Y0187664D01*
X0154355Y0187526D01*
X0154284Y0187390D01*
X0154209Y0187256D01*
X0154132Y0187124D01*
X0154050Y0186994D01*
X0153966Y0186866D01*
X0153878Y0186740D01*
X0153787Y0186617D01*
X0153693Y0186496D01*
X0153595Y0186378D01*
X0153495Y0186262D01*
X0153391Y0186149D01*
X0153285Y0186038D01*
X0153176Y0185930D01*
X0153064Y0185825D01*
X0152950Y0185724D01*
X0152832Y0185625D01*
X0152713Y0185529D01*
X0152591Y0185436D01*
X0152466Y0185347D01*
X0152339Y0185260D01*
X0152210Y0185178D01*
X0152079Y0185098D01*
X0151946Y0185022D01*
X0151811Y0184949D01*
X0151674Y0184880D01*
X0151535Y0184815D01*
X0151395Y0184753D01*
X0151253Y0184695D01*
X0151110Y0184640D01*
X0150965Y0184589D01*
X0150819Y0184542D01*
X0150672Y0184499D01*
X0150524Y0184460D01*
X0150375Y0184424D01*
X0150225Y0184393D01*
X0150074Y0184365D01*
X0149923Y0184341D01*
X0149770Y0184321D01*
X0149618Y0184305D01*
X0149465Y0184293D01*
X0149312Y0184285D01*
X0149159Y0184281D01*
X0149005Y0184281D01*
X0148852Y0184285D01*
X0148699Y0184293D01*
X0148546Y0184305D01*
X0148394Y0184321D01*
X0148241Y0184341D01*
X0148090Y0184365D01*
X0147939Y0184393D01*
X0147789Y0184424D01*
X0147640Y0184460D01*
X0147492Y0184499D01*
X0147345Y0184542D01*
X0147199Y0184589D01*
X0147054Y0184640D01*
X0146911Y0184695D01*
X0146769Y0184753D01*
X0146629Y0184815D01*
X0146490Y0184880D01*
X0146353Y0184949D01*
X0146218Y0185022D01*
X0146085Y0185098D01*
X0145954Y0185178D01*
X0145825Y0185260D01*
X0145698Y0185347D01*
X0145573Y0185436D01*
X0145451Y0185529D01*
X0145332Y0185625D01*
X0145214Y0185724D01*
X0145100Y0185825D01*
X0144988Y0185930D01*
X0144879Y0186038D01*
X0144773Y0186149D01*
X0144669Y0186262D01*
X0144569Y0186378D01*
X0144471Y0186496D01*
X0144377Y0186617D01*
X0144286Y0186740D01*
X0144198Y0186866D01*
X0144114Y0186994D01*
X0144032Y0187124D01*
X0143955Y0187256D01*
X0143880Y0187390D01*
X0143809Y0187526D01*
X0143742Y0187664D01*
X0143678Y0187804D01*
X0143618Y0187945D01*
X0143562Y0188087D01*
X0143509Y0188231D01*
X0143460Y0188377D01*
X0143415Y0188523D01*
X0143374Y0188671D01*
X0143337Y0188819D01*
X0143303Y0188969D01*
X0143273Y0189120D01*
X0143248Y0189271D01*
X0143226Y0189422D01*
X0143208Y0189575D01*
X0143194Y0189727D01*
X0143184Y0189880D01*
X0143178Y0190034D01*
X0143176Y0190187D01*
X0247113Y0190187D02*
X0247115Y0190340D01*
X0247121Y0190494D01*
X0247131Y0190647D01*
X0247145Y0190799D01*
X0247163Y0190952D01*
X0247185Y0191103D01*
X0247210Y0191254D01*
X0247240Y0191405D01*
X0247274Y0191555D01*
X0247311Y0191703D01*
X0247352Y0191851D01*
X0247397Y0191997D01*
X0247446Y0192143D01*
X0247499Y0192287D01*
X0247555Y0192429D01*
X0247615Y0192570D01*
X0247679Y0192710D01*
X0247746Y0192848D01*
X0247817Y0192984D01*
X0247892Y0193118D01*
X0247969Y0193250D01*
X0248051Y0193380D01*
X0248135Y0193508D01*
X0248223Y0193634D01*
X0248314Y0193757D01*
X0248408Y0193878D01*
X0248506Y0193996D01*
X0248606Y0194112D01*
X0248710Y0194225D01*
X0248816Y0194336D01*
X0248925Y0194444D01*
X0249037Y0194549D01*
X0249151Y0194650D01*
X0249269Y0194749D01*
X0249388Y0194845D01*
X0249510Y0194938D01*
X0249635Y0195027D01*
X0249762Y0195114D01*
X0249891Y0195196D01*
X0250022Y0195276D01*
X0250155Y0195352D01*
X0250290Y0195425D01*
X0250427Y0195494D01*
X0250566Y0195559D01*
X0250706Y0195621D01*
X0250848Y0195679D01*
X0250991Y0195734D01*
X0251136Y0195785D01*
X0251282Y0195832D01*
X0251429Y0195875D01*
X0251577Y0195914D01*
X0251726Y0195950D01*
X0251876Y0195981D01*
X0252027Y0196009D01*
X0252178Y0196033D01*
X0252331Y0196053D01*
X0252483Y0196069D01*
X0252636Y0196081D01*
X0252789Y0196089D01*
X0252942Y0196093D01*
X0253096Y0196093D01*
X0253249Y0196089D01*
X0253402Y0196081D01*
X0253555Y0196069D01*
X0253707Y0196053D01*
X0253860Y0196033D01*
X0254011Y0196009D01*
X0254162Y0195981D01*
X0254312Y0195950D01*
X0254461Y0195914D01*
X0254609Y0195875D01*
X0254756Y0195832D01*
X0254902Y0195785D01*
X0255047Y0195734D01*
X0255190Y0195679D01*
X0255332Y0195621D01*
X0255472Y0195559D01*
X0255611Y0195494D01*
X0255748Y0195425D01*
X0255883Y0195352D01*
X0256016Y0195276D01*
X0256147Y0195196D01*
X0256276Y0195114D01*
X0256403Y0195027D01*
X0256528Y0194938D01*
X0256650Y0194845D01*
X0256769Y0194749D01*
X0256887Y0194650D01*
X0257001Y0194549D01*
X0257113Y0194444D01*
X0257222Y0194336D01*
X0257328Y0194225D01*
X0257432Y0194112D01*
X0257532Y0193996D01*
X0257630Y0193878D01*
X0257724Y0193757D01*
X0257815Y0193634D01*
X0257903Y0193508D01*
X0257987Y0193380D01*
X0258069Y0193250D01*
X0258146Y0193118D01*
X0258221Y0192984D01*
X0258292Y0192848D01*
X0258359Y0192710D01*
X0258423Y0192570D01*
X0258483Y0192429D01*
X0258539Y0192287D01*
X0258592Y0192143D01*
X0258641Y0191997D01*
X0258686Y0191851D01*
X0258727Y0191703D01*
X0258764Y0191555D01*
X0258798Y0191405D01*
X0258828Y0191254D01*
X0258853Y0191103D01*
X0258875Y0190952D01*
X0258893Y0190799D01*
X0258907Y0190647D01*
X0258917Y0190494D01*
X0258923Y0190340D01*
X0258925Y0190187D01*
X0258923Y0190034D01*
X0258917Y0189880D01*
X0258907Y0189727D01*
X0258893Y0189575D01*
X0258875Y0189422D01*
X0258853Y0189271D01*
X0258828Y0189120D01*
X0258798Y0188969D01*
X0258764Y0188819D01*
X0258727Y0188671D01*
X0258686Y0188523D01*
X0258641Y0188377D01*
X0258592Y0188231D01*
X0258539Y0188087D01*
X0258483Y0187945D01*
X0258423Y0187804D01*
X0258359Y0187664D01*
X0258292Y0187526D01*
X0258221Y0187390D01*
X0258146Y0187256D01*
X0258069Y0187124D01*
X0257987Y0186994D01*
X0257903Y0186866D01*
X0257815Y0186740D01*
X0257724Y0186617D01*
X0257630Y0186496D01*
X0257532Y0186378D01*
X0257432Y0186262D01*
X0257328Y0186149D01*
X0257222Y0186038D01*
X0257113Y0185930D01*
X0257001Y0185825D01*
X0256887Y0185724D01*
X0256769Y0185625D01*
X0256650Y0185529D01*
X0256528Y0185436D01*
X0256403Y0185347D01*
X0256276Y0185260D01*
X0256147Y0185178D01*
X0256016Y0185098D01*
X0255883Y0185022D01*
X0255748Y0184949D01*
X0255611Y0184880D01*
X0255472Y0184815D01*
X0255332Y0184753D01*
X0255190Y0184695D01*
X0255047Y0184640D01*
X0254902Y0184589D01*
X0254756Y0184542D01*
X0254609Y0184499D01*
X0254461Y0184460D01*
X0254312Y0184424D01*
X0254162Y0184393D01*
X0254011Y0184365D01*
X0253860Y0184341D01*
X0253707Y0184321D01*
X0253555Y0184305D01*
X0253402Y0184293D01*
X0253249Y0184285D01*
X0253096Y0184281D01*
X0252942Y0184281D01*
X0252789Y0184285D01*
X0252636Y0184293D01*
X0252483Y0184305D01*
X0252331Y0184321D01*
X0252178Y0184341D01*
X0252027Y0184365D01*
X0251876Y0184393D01*
X0251726Y0184424D01*
X0251577Y0184460D01*
X0251429Y0184499D01*
X0251282Y0184542D01*
X0251136Y0184589D01*
X0250991Y0184640D01*
X0250848Y0184695D01*
X0250706Y0184753D01*
X0250566Y0184815D01*
X0250427Y0184880D01*
X0250290Y0184949D01*
X0250155Y0185022D01*
X0250022Y0185098D01*
X0249891Y0185178D01*
X0249762Y0185260D01*
X0249635Y0185347D01*
X0249510Y0185436D01*
X0249388Y0185529D01*
X0249269Y0185625D01*
X0249151Y0185724D01*
X0249037Y0185825D01*
X0248925Y0185930D01*
X0248816Y0186038D01*
X0248710Y0186149D01*
X0248606Y0186262D01*
X0248506Y0186378D01*
X0248408Y0186496D01*
X0248314Y0186617D01*
X0248223Y0186740D01*
X0248135Y0186866D01*
X0248051Y0186994D01*
X0247969Y0187124D01*
X0247892Y0187256D01*
X0247817Y0187390D01*
X0247746Y0187526D01*
X0247679Y0187664D01*
X0247615Y0187804D01*
X0247555Y0187945D01*
X0247499Y0188087D01*
X0247446Y0188231D01*
X0247397Y0188377D01*
X0247352Y0188523D01*
X0247311Y0188671D01*
X0247274Y0188819D01*
X0247240Y0188969D01*
X0247210Y0189120D01*
X0247185Y0189271D01*
X0247163Y0189422D01*
X0247145Y0189575D01*
X0247131Y0189727D01*
X0247121Y0189880D01*
X0247115Y0190034D01*
X0247113Y0190187D01*
X0373097Y0112628D02*
X0373099Y0112781D01*
X0373105Y0112935D01*
X0373115Y0113088D01*
X0373129Y0113240D01*
X0373147Y0113393D01*
X0373169Y0113544D01*
X0373194Y0113695D01*
X0373224Y0113846D01*
X0373258Y0113996D01*
X0373295Y0114144D01*
X0373336Y0114292D01*
X0373381Y0114438D01*
X0373430Y0114584D01*
X0373483Y0114728D01*
X0373539Y0114870D01*
X0373599Y0115011D01*
X0373663Y0115151D01*
X0373730Y0115289D01*
X0373801Y0115425D01*
X0373876Y0115559D01*
X0373953Y0115691D01*
X0374035Y0115821D01*
X0374119Y0115949D01*
X0374207Y0116075D01*
X0374298Y0116198D01*
X0374392Y0116319D01*
X0374490Y0116437D01*
X0374590Y0116553D01*
X0374694Y0116666D01*
X0374800Y0116777D01*
X0374909Y0116885D01*
X0375021Y0116990D01*
X0375135Y0117091D01*
X0375253Y0117190D01*
X0375372Y0117286D01*
X0375494Y0117379D01*
X0375619Y0117468D01*
X0375746Y0117555D01*
X0375875Y0117637D01*
X0376006Y0117717D01*
X0376139Y0117793D01*
X0376274Y0117866D01*
X0376411Y0117935D01*
X0376550Y0118000D01*
X0376690Y0118062D01*
X0376832Y0118120D01*
X0376975Y0118175D01*
X0377120Y0118226D01*
X0377266Y0118273D01*
X0377413Y0118316D01*
X0377561Y0118355D01*
X0377710Y0118391D01*
X0377860Y0118422D01*
X0378011Y0118450D01*
X0378162Y0118474D01*
X0378315Y0118494D01*
X0378467Y0118510D01*
X0378620Y0118522D01*
X0378773Y0118530D01*
X0378926Y0118534D01*
X0379080Y0118534D01*
X0379233Y0118530D01*
X0379386Y0118522D01*
X0379539Y0118510D01*
X0379691Y0118494D01*
X0379844Y0118474D01*
X0379995Y0118450D01*
X0380146Y0118422D01*
X0380296Y0118391D01*
X0380445Y0118355D01*
X0380593Y0118316D01*
X0380740Y0118273D01*
X0380886Y0118226D01*
X0381031Y0118175D01*
X0381174Y0118120D01*
X0381316Y0118062D01*
X0381456Y0118000D01*
X0381595Y0117935D01*
X0381732Y0117866D01*
X0381867Y0117793D01*
X0382000Y0117717D01*
X0382131Y0117637D01*
X0382260Y0117555D01*
X0382387Y0117468D01*
X0382512Y0117379D01*
X0382634Y0117286D01*
X0382753Y0117190D01*
X0382871Y0117091D01*
X0382985Y0116990D01*
X0383097Y0116885D01*
X0383206Y0116777D01*
X0383312Y0116666D01*
X0383416Y0116553D01*
X0383516Y0116437D01*
X0383614Y0116319D01*
X0383708Y0116198D01*
X0383799Y0116075D01*
X0383887Y0115949D01*
X0383971Y0115821D01*
X0384053Y0115691D01*
X0384130Y0115559D01*
X0384205Y0115425D01*
X0384276Y0115289D01*
X0384343Y0115151D01*
X0384407Y0115011D01*
X0384467Y0114870D01*
X0384523Y0114728D01*
X0384576Y0114584D01*
X0384625Y0114438D01*
X0384670Y0114292D01*
X0384711Y0114144D01*
X0384748Y0113996D01*
X0384782Y0113846D01*
X0384812Y0113695D01*
X0384837Y0113544D01*
X0384859Y0113393D01*
X0384877Y0113240D01*
X0384891Y0113088D01*
X0384901Y0112935D01*
X0384907Y0112781D01*
X0384909Y0112628D01*
X0384907Y0112475D01*
X0384901Y0112321D01*
X0384891Y0112168D01*
X0384877Y0112016D01*
X0384859Y0111863D01*
X0384837Y0111712D01*
X0384812Y0111561D01*
X0384782Y0111410D01*
X0384748Y0111260D01*
X0384711Y0111112D01*
X0384670Y0110964D01*
X0384625Y0110818D01*
X0384576Y0110672D01*
X0384523Y0110528D01*
X0384467Y0110386D01*
X0384407Y0110245D01*
X0384343Y0110105D01*
X0384276Y0109967D01*
X0384205Y0109831D01*
X0384130Y0109697D01*
X0384053Y0109565D01*
X0383971Y0109435D01*
X0383887Y0109307D01*
X0383799Y0109181D01*
X0383708Y0109058D01*
X0383614Y0108937D01*
X0383516Y0108819D01*
X0383416Y0108703D01*
X0383312Y0108590D01*
X0383206Y0108479D01*
X0383097Y0108371D01*
X0382985Y0108266D01*
X0382871Y0108165D01*
X0382753Y0108066D01*
X0382634Y0107970D01*
X0382512Y0107877D01*
X0382387Y0107788D01*
X0382260Y0107701D01*
X0382131Y0107619D01*
X0382000Y0107539D01*
X0381867Y0107463D01*
X0381732Y0107390D01*
X0381595Y0107321D01*
X0381456Y0107256D01*
X0381316Y0107194D01*
X0381174Y0107136D01*
X0381031Y0107081D01*
X0380886Y0107030D01*
X0380740Y0106983D01*
X0380593Y0106940D01*
X0380445Y0106901D01*
X0380296Y0106865D01*
X0380146Y0106834D01*
X0379995Y0106806D01*
X0379844Y0106782D01*
X0379691Y0106762D01*
X0379539Y0106746D01*
X0379386Y0106734D01*
X0379233Y0106726D01*
X0379080Y0106722D01*
X0378926Y0106722D01*
X0378773Y0106726D01*
X0378620Y0106734D01*
X0378467Y0106746D01*
X0378315Y0106762D01*
X0378162Y0106782D01*
X0378011Y0106806D01*
X0377860Y0106834D01*
X0377710Y0106865D01*
X0377561Y0106901D01*
X0377413Y0106940D01*
X0377266Y0106983D01*
X0377120Y0107030D01*
X0376975Y0107081D01*
X0376832Y0107136D01*
X0376690Y0107194D01*
X0376550Y0107256D01*
X0376411Y0107321D01*
X0376274Y0107390D01*
X0376139Y0107463D01*
X0376006Y0107539D01*
X0375875Y0107619D01*
X0375746Y0107701D01*
X0375619Y0107788D01*
X0375494Y0107877D01*
X0375372Y0107970D01*
X0375253Y0108066D01*
X0375135Y0108165D01*
X0375021Y0108266D01*
X0374909Y0108371D01*
X0374800Y0108479D01*
X0374694Y0108590D01*
X0374590Y0108703D01*
X0374490Y0108819D01*
X0374392Y0108937D01*
X0374298Y0109058D01*
X0374207Y0109181D01*
X0374119Y0109307D01*
X0374035Y0109435D01*
X0373953Y0109565D01*
X0373876Y0109697D01*
X0373801Y0109831D01*
X0373730Y0109967D01*
X0373663Y0110105D01*
X0373599Y0110245D01*
X0373539Y0110386D01*
X0373483Y0110528D01*
X0373430Y0110672D01*
X0373381Y0110818D01*
X0373336Y0110964D01*
X0373295Y0111112D01*
X0373258Y0111260D01*
X0373224Y0111410D01*
X0373194Y0111561D01*
X0373169Y0111712D01*
X0373147Y0111863D01*
X0373129Y0112016D01*
X0373115Y0112168D01*
X0373105Y0112321D01*
X0373099Y0112475D01*
X0373097Y0112628D01*
X0373097Y0041762D02*
X0373099Y0041915D01*
X0373105Y0042069D01*
X0373115Y0042222D01*
X0373129Y0042374D01*
X0373147Y0042527D01*
X0373169Y0042678D01*
X0373194Y0042829D01*
X0373224Y0042980D01*
X0373258Y0043130D01*
X0373295Y0043278D01*
X0373336Y0043426D01*
X0373381Y0043572D01*
X0373430Y0043718D01*
X0373483Y0043862D01*
X0373539Y0044004D01*
X0373599Y0044145D01*
X0373663Y0044285D01*
X0373730Y0044423D01*
X0373801Y0044559D01*
X0373876Y0044693D01*
X0373953Y0044825D01*
X0374035Y0044955D01*
X0374119Y0045083D01*
X0374207Y0045209D01*
X0374298Y0045332D01*
X0374392Y0045453D01*
X0374490Y0045571D01*
X0374590Y0045687D01*
X0374694Y0045800D01*
X0374800Y0045911D01*
X0374909Y0046019D01*
X0375021Y0046124D01*
X0375135Y0046225D01*
X0375253Y0046324D01*
X0375372Y0046420D01*
X0375494Y0046513D01*
X0375619Y0046602D01*
X0375746Y0046689D01*
X0375875Y0046771D01*
X0376006Y0046851D01*
X0376139Y0046927D01*
X0376274Y0047000D01*
X0376411Y0047069D01*
X0376550Y0047134D01*
X0376690Y0047196D01*
X0376832Y0047254D01*
X0376975Y0047309D01*
X0377120Y0047360D01*
X0377266Y0047407D01*
X0377413Y0047450D01*
X0377561Y0047489D01*
X0377710Y0047525D01*
X0377860Y0047556D01*
X0378011Y0047584D01*
X0378162Y0047608D01*
X0378315Y0047628D01*
X0378467Y0047644D01*
X0378620Y0047656D01*
X0378773Y0047664D01*
X0378926Y0047668D01*
X0379080Y0047668D01*
X0379233Y0047664D01*
X0379386Y0047656D01*
X0379539Y0047644D01*
X0379691Y0047628D01*
X0379844Y0047608D01*
X0379995Y0047584D01*
X0380146Y0047556D01*
X0380296Y0047525D01*
X0380445Y0047489D01*
X0380593Y0047450D01*
X0380740Y0047407D01*
X0380886Y0047360D01*
X0381031Y0047309D01*
X0381174Y0047254D01*
X0381316Y0047196D01*
X0381456Y0047134D01*
X0381595Y0047069D01*
X0381732Y0047000D01*
X0381867Y0046927D01*
X0382000Y0046851D01*
X0382131Y0046771D01*
X0382260Y0046689D01*
X0382387Y0046602D01*
X0382512Y0046513D01*
X0382634Y0046420D01*
X0382753Y0046324D01*
X0382871Y0046225D01*
X0382985Y0046124D01*
X0383097Y0046019D01*
X0383206Y0045911D01*
X0383312Y0045800D01*
X0383416Y0045687D01*
X0383516Y0045571D01*
X0383614Y0045453D01*
X0383708Y0045332D01*
X0383799Y0045209D01*
X0383887Y0045083D01*
X0383971Y0044955D01*
X0384053Y0044825D01*
X0384130Y0044693D01*
X0384205Y0044559D01*
X0384276Y0044423D01*
X0384343Y0044285D01*
X0384407Y0044145D01*
X0384467Y0044004D01*
X0384523Y0043862D01*
X0384576Y0043718D01*
X0384625Y0043572D01*
X0384670Y0043426D01*
X0384711Y0043278D01*
X0384748Y0043130D01*
X0384782Y0042980D01*
X0384812Y0042829D01*
X0384837Y0042678D01*
X0384859Y0042527D01*
X0384877Y0042374D01*
X0384891Y0042222D01*
X0384901Y0042069D01*
X0384907Y0041915D01*
X0384909Y0041762D01*
X0384907Y0041609D01*
X0384901Y0041455D01*
X0384891Y0041302D01*
X0384877Y0041150D01*
X0384859Y0040997D01*
X0384837Y0040846D01*
X0384812Y0040695D01*
X0384782Y0040544D01*
X0384748Y0040394D01*
X0384711Y0040246D01*
X0384670Y0040098D01*
X0384625Y0039952D01*
X0384576Y0039806D01*
X0384523Y0039662D01*
X0384467Y0039520D01*
X0384407Y0039379D01*
X0384343Y0039239D01*
X0384276Y0039101D01*
X0384205Y0038965D01*
X0384130Y0038831D01*
X0384053Y0038699D01*
X0383971Y0038569D01*
X0383887Y0038441D01*
X0383799Y0038315D01*
X0383708Y0038192D01*
X0383614Y0038071D01*
X0383516Y0037953D01*
X0383416Y0037837D01*
X0383312Y0037724D01*
X0383206Y0037613D01*
X0383097Y0037505D01*
X0382985Y0037400D01*
X0382871Y0037299D01*
X0382753Y0037200D01*
X0382634Y0037104D01*
X0382512Y0037011D01*
X0382387Y0036922D01*
X0382260Y0036835D01*
X0382131Y0036753D01*
X0382000Y0036673D01*
X0381867Y0036597D01*
X0381732Y0036524D01*
X0381595Y0036455D01*
X0381456Y0036390D01*
X0381316Y0036328D01*
X0381174Y0036270D01*
X0381031Y0036215D01*
X0380886Y0036164D01*
X0380740Y0036117D01*
X0380593Y0036074D01*
X0380445Y0036035D01*
X0380296Y0035999D01*
X0380146Y0035968D01*
X0379995Y0035940D01*
X0379844Y0035916D01*
X0379691Y0035896D01*
X0379539Y0035880D01*
X0379386Y0035868D01*
X0379233Y0035860D01*
X0379080Y0035856D01*
X0378926Y0035856D01*
X0378773Y0035860D01*
X0378620Y0035868D01*
X0378467Y0035880D01*
X0378315Y0035896D01*
X0378162Y0035916D01*
X0378011Y0035940D01*
X0377860Y0035968D01*
X0377710Y0035999D01*
X0377561Y0036035D01*
X0377413Y0036074D01*
X0377266Y0036117D01*
X0377120Y0036164D01*
X0376975Y0036215D01*
X0376832Y0036270D01*
X0376690Y0036328D01*
X0376550Y0036390D01*
X0376411Y0036455D01*
X0376274Y0036524D01*
X0376139Y0036597D01*
X0376006Y0036673D01*
X0375875Y0036753D01*
X0375746Y0036835D01*
X0375619Y0036922D01*
X0375494Y0037011D01*
X0375372Y0037104D01*
X0375253Y0037200D01*
X0375135Y0037299D01*
X0375021Y0037400D01*
X0374909Y0037505D01*
X0374800Y0037613D01*
X0374694Y0037724D01*
X0374590Y0037837D01*
X0374490Y0037953D01*
X0374392Y0038071D01*
X0374298Y0038192D01*
X0374207Y0038315D01*
X0374119Y0038441D01*
X0374035Y0038569D01*
X0373953Y0038699D01*
X0373876Y0038831D01*
X0373801Y0038965D01*
X0373730Y0039101D01*
X0373663Y0039239D01*
X0373599Y0039379D01*
X0373539Y0039520D01*
X0373483Y0039662D01*
X0373430Y0039806D01*
X0373381Y0039952D01*
X0373336Y0040098D01*
X0373295Y0040246D01*
X0373258Y0040394D01*
X0373224Y0040544D01*
X0373194Y0040695D01*
X0373169Y0040846D01*
X0373147Y0040997D01*
X0373129Y0041150D01*
X0373115Y0041302D01*
X0373105Y0041455D01*
X0373099Y0041609D01*
X0373097Y0041762D01*
D11*
X0384515Y0007510D02*
X0017586Y0007510D01*
X0017301Y0007513D01*
X0017015Y0007524D01*
X0016730Y0007541D01*
X0016446Y0007565D01*
X0016162Y0007596D01*
X0015879Y0007634D01*
X0015598Y0007679D01*
X0015317Y0007730D01*
X0015037Y0007788D01*
X0014759Y0007853D01*
X0014483Y0007925D01*
X0014209Y0008003D01*
X0013936Y0008088D01*
X0013666Y0008180D01*
X0013398Y0008278D01*
X0013132Y0008382D01*
X0012869Y0008493D01*
X0012609Y0008610D01*
X0012351Y0008733D01*
X0012097Y0008863D01*
X0011846Y0008999D01*
X0011598Y0009140D01*
X0011354Y0009288D01*
X0011113Y0009441D01*
X0010877Y0009601D01*
X0010644Y0009766D01*
X0010415Y0009936D01*
X0010190Y0010112D01*
X0009970Y0010294D01*
X0009754Y0010480D01*
X0009543Y0010672D01*
X0009336Y0010869D01*
X0009134Y0011071D01*
X0008937Y0011278D01*
X0008745Y0011489D01*
X0008559Y0011705D01*
X0008377Y0011925D01*
X0008201Y0012150D01*
X0008031Y0012379D01*
X0007866Y0012612D01*
X0007706Y0012848D01*
X0007553Y0013089D01*
X0007405Y0013333D01*
X0007264Y0013581D01*
X0007128Y0013832D01*
X0006998Y0014086D01*
X0006875Y0014344D01*
X0006758Y0014604D01*
X0006647Y0014867D01*
X0006543Y0015133D01*
X0006445Y0015401D01*
X0006353Y0015671D01*
X0006268Y0015944D01*
X0006190Y0016218D01*
X0006118Y0016494D01*
X0006053Y0016772D01*
X0005995Y0017052D01*
X0005944Y0017333D01*
X0005899Y0017614D01*
X0005861Y0017897D01*
X0005830Y0018181D01*
X0005806Y0018465D01*
X0005789Y0018750D01*
X0005778Y0019036D01*
X0005775Y0019321D01*
X0005775Y0115384D01*
X0005813Y0115766D01*
X0005861Y0116147D01*
X0005918Y0116526D01*
X0005984Y0116904D01*
X0006060Y0117281D01*
X0006145Y0117655D01*
X0006238Y0118027D01*
X0006341Y0118397D01*
X0006453Y0118764D01*
X0006574Y0119129D01*
X0006703Y0119490D01*
X0006842Y0119848D01*
X0006989Y0120203D01*
X0007144Y0120554D01*
X0007308Y0120901D01*
X0007481Y0121243D01*
X0007662Y0121582D01*
X0007851Y0121916D01*
X0008048Y0122245D01*
X0008253Y0122570D01*
X0008466Y0122889D01*
X0008687Y0123203D01*
X0008915Y0123512D01*
X0009150Y0123815D01*
X0009393Y0124112D01*
X0009644Y0124403D01*
X0009901Y0124688D01*
X0010165Y0124967D01*
X0010436Y0125239D01*
X0010713Y0125504D01*
X0010997Y0125763D01*
X0011287Y0126014D01*
X0127681Y0126032D02*
X0127681Y0124797D01*
X0128298Y0124180D01*
X0128915Y0124180D01*
X0129532Y0124797D01*
X0129532Y0126032D01*
X0128915Y0126649D01*
X0128298Y0126649D01*
X0127681Y0126032D01*
X0129532Y0126032D02*
X0130149Y0126649D01*
X0130767Y0126649D01*
X0131384Y0126032D01*
X0131384Y0124797D01*
X0130767Y0124180D01*
X0130149Y0124180D01*
X0129532Y0124797D01*
X0127681Y0122966D02*
X0127681Y0120497D01*
X0127681Y0121731D02*
X0131384Y0121731D01*
X0130149Y0120497D01*
X0130767Y0119283D02*
X0131384Y0118665D01*
X0131384Y0117431D01*
X0130767Y0116814D01*
X0128298Y0116814D01*
X0127681Y0117431D01*
X0127681Y0118665D01*
X0128298Y0119283D01*
X0132153Y0178376D02*
X0132294Y0178389D01*
X0132434Y0178406D01*
X0132574Y0178426D01*
X0132713Y0178450D01*
X0132852Y0178479D01*
X0132990Y0178511D01*
X0133127Y0178547D01*
X0133262Y0178586D01*
X0133397Y0178629D01*
X0133530Y0178676D01*
X0133662Y0178727D01*
X0133793Y0178781D01*
X0133922Y0178839D01*
X0134050Y0178900D01*
X0134175Y0178965D01*
X0134299Y0179034D01*
X0134421Y0179105D01*
X0134541Y0179180D01*
X0134659Y0179259D01*
X0134774Y0179340D01*
X0134888Y0179425D01*
X0134999Y0179513D01*
X0135107Y0179603D01*
X0135213Y0179697D01*
X0135316Y0179794D01*
X0135417Y0179893D01*
X0135515Y0179995D01*
X0135610Y0180100D01*
X0135702Y0180208D01*
X0135791Y0180317D01*
X0135877Y0180430D01*
X0135960Y0180544D01*
X0136040Y0180661D01*
X0136116Y0180780D01*
X0136189Y0180901D01*
X0136259Y0181024D01*
X0136325Y0181149D01*
X0136388Y0181276D01*
X0136447Y0181404D01*
X0136503Y0181534D01*
X0136555Y0181666D01*
X0136604Y0181799D01*
X0136649Y0181933D01*
X0136690Y0182068D01*
X0136727Y0182205D01*
X0136761Y0182342D01*
X0136791Y0182480D01*
X0136817Y0182619D01*
X0136839Y0182759D01*
X0136857Y0182899D01*
X0136872Y0183040D01*
X0136882Y0183181D01*
X0136889Y0183322D01*
X0136892Y0183464D01*
X0136891Y0183605D01*
X0136886Y0183747D01*
X0136877Y0183888D01*
X0136877Y0194912D01*
X0136879Y0195102D01*
X0136886Y0195292D01*
X0136898Y0195482D01*
X0136914Y0195672D01*
X0136934Y0195861D01*
X0136960Y0196050D01*
X0136989Y0196238D01*
X0137024Y0196425D01*
X0137063Y0196611D01*
X0137106Y0196796D01*
X0137154Y0196981D01*
X0137206Y0197164D01*
X0137262Y0197345D01*
X0137323Y0197525D01*
X0137389Y0197704D01*
X0137458Y0197881D01*
X0137532Y0198057D01*
X0137610Y0198230D01*
X0137693Y0198402D01*
X0137779Y0198571D01*
X0137869Y0198739D01*
X0137964Y0198904D01*
X0138062Y0199067D01*
X0138165Y0199227D01*
X0138271Y0199385D01*
X0138381Y0199540D01*
X0138494Y0199693D01*
X0138612Y0199843D01*
X0138733Y0199989D01*
X0138857Y0200133D01*
X0138985Y0200274D01*
X0139116Y0200412D01*
X0139251Y0200547D01*
X0139389Y0200678D01*
X0139530Y0200806D01*
X0139674Y0200930D01*
X0139820Y0201051D01*
X0139970Y0201169D01*
X0140123Y0201282D01*
X0140278Y0201392D01*
X0140436Y0201498D01*
X0140596Y0201601D01*
X0140759Y0201699D01*
X0140924Y0201794D01*
X0141092Y0201884D01*
X0141261Y0201970D01*
X0141433Y0202053D01*
X0141606Y0202131D01*
X0141782Y0202205D01*
X0141959Y0202274D01*
X0142138Y0202340D01*
X0142318Y0202401D01*
X0142499Y0202457D01*
X0142682Y0202509D01*
X0142867Y0202557D01*
X0143052Y0202600D01*
X0143238Y0202639D01*
X0143425Y0202674D01*
X0143613Y0202703D01*
X0143802Y0202729D01*
X0143991Y0202749D01*
X0144181Y0202765D01*
X0144371Y0202777D01*
X0144561Y0202784D01*
X0144751Y0202786D01*
X0257350Y0202786D01*
X0257540Y0202784D01*
X0257730Y0202777D01*
X0257920Y0202765D01*
X0258110Y0202749D01*
X0258299Y0202729D01*
X0258488Y0202703D01*
X0258676Y0202674D01*
X0258863Y0202639D01*
X0259049Y0202600D01*
X0259234Y0202557D01*
X0259419Y0202509D01*
X0259602Y0202457D01*
X0259783Y0202401D01*
X0259963Y0202340D01*
X0260142Y0202274D01*
X0260319Y0202205D01*
X0260495Y0202131D01*
X0260668Y0202053D01*
X0260840Y0201970D01*
X0261009Y0201884D01*
X0261177Y0201794D01*
X0261342Y0201699D01*
X0261505Y0201601D01*
X0261665Y0201498D01*
X0261823Y0201392D01*
X0261978Y0201282D01*
X0262131Y0201169D01*
X0262281Y0201051D01*
X0262427Y0200930D01*
X0262571Y0200806D01*
X0262712Y0200678D01*
X0262850Y0200547D01*
X0262985Y0200412D01*
X0263116Y0200274D01*
X0263244Y0200133D01*
X0263368Y0199989D01*
X0263489Y0199843D01*
X0263607Y0199693D01*
X0263720Y0199540D01*
X0263830Y0199385D01*
X0263936Y0199227D01*
X0264039Y0199067D01*
X0264137Y0198904D01*
X0264232Y0198739D01*
X0264322Y0198571D01*
X0264408Y0198402D01*
X0264491Y0198230D01*
X0264569Y0198057D01*
X0264643Y0197881D01*
X0264712Y0197704D01*
X0264778Y0197525D01*
X0264839Y0197345D01*
X0264895Y0197164D01*
X0264947Y0196981D01*
X0264995Y0196796D01*
X0265038Y0196611D01*
X0265077Y0196425D01*
X0265112Y0196238D01*
X0265141Y0196050D01*
X0265167Y0195861D01*
X0265187Y0195672D01*
X0265203Y0195482D01*
X0265215Y0195292D01*
X0265222Y0195102D01*
X0265224Y0194912D01*
X0265224Y0183888D01*
X0265215Y0183747D01*
X0265210Y0183605D01*
X0265209Y0183464D01*
X0265212Y0183322D01*
X0265219Y0183181D01*
X0265229Y0183040D01*
X0265244Y0182899D01*
X0265262Y0182759D01*
X0265284Y0182619D01*
X0265310Y0182480D01*
X0265340Y0182342D01*
X0265374Y0182205D01*
X0265411Y0182068D01*
X0265452Y0181933D01*
X0265497Y0181799D01*
X0265546Y0181666D01*
X0265598Y0181534D01*
X0265654Y0181404D01*
X0265713Y0181276D01*
X0265776Y0181149D01*
X0265842Y0181024D01*
X0265912Y0180901D01*
X0265985Y0180780D01*
X0266061Y0180661D01*
X0266141Y0180544D01*
X0266224Y0180430D01*
X0266310Y0180317D01*
X0266399Y0180208D01*
X0266491Y0180100D01*
X0266586Y0179995D01*
X0266684Y0179893D01*
X0266785Y0179794D01*
X0266888Y0179697D01*
X0266994Y0179603D01*
X0267102Y0179513D01*
X0267213Y0179425D01*
X0267327Y0179340D01*
X0267442Y0179259D01*
X0267560Y0179180D01*
X0267680Y0179105D01*
X0267802Y0179034D01*
X0267926Y0178965D01*
X0268051Y0178900D01*
X0268179Y0178839D01*
X0268308Y0178781D01*
X0268439Y0178727D01*
X0268571Y0178676D01*
X0268704Y0178629D01*
X0268839Y0178586D01*
X0268974Y0178547D01*
X0269111Y0178511D01*
X0269249Y0178479D01*
X0269388Y0178450D01*
X0269527Y0178426D01*
X0269667Y0178406D01*
X0269807Y0178389D01*
X0269948Y0178376D01*
X0390814Y0126014D02*
X0391104Y0125763D01*
X0391388Y0125504D01*
X0391665Y0125239D01*
X0391936Y0124967D01*
X0392200Y0124688D01*
X0392457Y0124403D01*
X0392708Y0124112D01*
X0392951Y0123815D01*
X0393186Y0123512D01*
X0393414Y0123203D01*
X0393635Y0122889D01*
X0393848Y0122570D01*
X0394053Y0122245D01*
X0394250Y0121916D01*
X0394439Y0121582D01*
X0394620Y0121243D01*
X0394793Y0120901D01*
X0394957Y0120554D01*
X0395112Y0120203D01*
X0395259Y0119848D01*
X0395398Y0119490D01*
X0395527Y0119129D01*
X0395648Y0118764D01*
X0395760Y0118397D01*
X0395863Y0118027D01*
X0395956Y0117655D01*
X0396041Y0117281D01*
X0396117Y0116904D01*
X0396183Y0116526D01*
X0396240Y0116147D01*
X0396288Y0115766D01*
X0396326Y0115384D01*
X0396326Y0019321D01*
X0396323Y0019036D01*
X0396312Y0018750D01*
X0396295Y0018465D01*
X0396271Y0018181D01*
X0396240Y0017897D01*
X0396202Y0017614D01*
X0396157Y0017333D01*
X0396106Y0017052D01*
X0396048Y0016772D01*
X0395983Y0016494D01*
X0395911Y0016218D01*
X0395833Y0015944D01*
X0395748Y0015671D01*
X0395656Y0015401D01*
X0395558Y0015133D01*
X0395454Y0014867D01*
X0395343Y0014604D01*
X0395226Y0014344D01*
X0395103Y0014086D01*
X0394973Y0013832D01*
X0394837Y0013581D01*
X0394696Y0013333D01*
X0394548Y0013089D01*
X0394395Y0012848D01*
X0394235Y0012612D01*
X0394070Y0012379D01*
X0393900Y0012150D01*
X0393724Y0011925D01*
X0393542Y0011705D01*
X0393356Y0011489D01*
X0393164Y0011278D01*
X0392967Y0011071D01*
X0392765Y0010869D01*
X0392558Y0010672D01*
X0392347Y0010480D01*
X0392131Y0010294D01*
X0391911Y0010112D01*
X0391686Y0009936D01*
X0391457Y0009766D01*
X0391224Y0009601D01*
X0390988Y0009441D01*
X0390747Y0009288D01*
X0390503Y0009140D01*
X0390255Y0008999D01*
X0390004Y0008863D01*
X0389750Y0008733D01*
X0389492Y0008610D01*
X0389232Y0008493D01*
X0388969Y0008382D01*
X0388703Y0008278D01*
X0388435Y0008180D01*
X0388165Y0008088D01*
X0387892Y0008003D01*
X0387618Y0007925D01*
X0387342Y0007853D01*
X0387064Y0007788D01*
X0386784Y0007730D01*
X0386503Y0007679D01*
X0386222Y0007634D01*
X0385939Y0007596D01*
X0385655Y0007565D01*
X0385371Y0007541D01*
X0385086Y0007524D01*
X0384800Y0007513D01*
X0384515Y0007510D01*
X0303749Y0050861D02*
X0303132Y0050244D01*
X0301898Y0050244D01*
X0301280Y0050861D01*
X0300066Y0050861D02*
X0299449Y0050244D01*
X0298214Y0050244D01*
X0297597Y0050861D01*
X0297597Y0051478D01*
X0298214Y0052095D01*
X0298832Y0052095D01*
X0298214Y0052095D02*
X0297597Y0052712D01*
X0297597Y0053330D01*
X0298214Y0053947D01*
X0299449Y0053947D01*
X0300066Y0053330D01*
X0301280Y0053330D02*
X0301898Y0053947D01*
X0303132Y0053947D01*
X0303749Y0053330D01*
X0303749Y0050861D01*
X0340614Y0058861D02*
X0341231Y0058244D01*
X0342466Y0058244D01*
X0343083Y0058861D01*
X0340614Y0061330D01*
X0340614Y0058861D01*
X0340614Y0061330D02*
X0341231Y0061947D01*
X0342466Y0061947D01*
X0343083Y0061330D01*
X0343083Y0058861D01*
X0344297Y0058244D02*
X0346766Y0058244D01*
X0345532Y0058244D02*
X0345532Y0061947D01*
X0346766Y0060712D01*
X0347980Y0061330D02*
X0348598Y0061947D01*
X0349832Y0061947D01*
X0350449Y0061330D01*
X0350449Y0058861D01*
X0349832Y0058244D01*
X0348598Y0058244D01*
X0347980Y0058861D01*
X0390814Y0126014D02*
X0387074Y0129276D01*
X0383258Y0132449D01*
X0379367Y0135530D01*
X0375404Y0138517D01*
X0371372Y0141410D01*
X0367272Y0144207D01*
X0363107Y0146905D01*
X0358879Y0149504D01*
X0354590Y0152002D01*
X0350244Y0154398D01*
X0345842Y0156689D01*
X0341387Y0158876D01*
X0336881Y0160956D01*
X0332327Y0162929D01*
X0327728Y0164793D01*
X0323085Y0166548D01*
X0318403Y0168192D01*
X0313683Y0169725D01*
X0308927Y0171145D01*
X0304139Y0172452D01*
X0299322Y0173644D01*
X0294478Y0174723D01*
X0289609Y0175686D01*
X0284719Y0176533D01*
X0279811Y0177264D01*
X0274886Y0177879D01*
X0269948Y0178376D01*
X0110200Y0053968D02*
X0109583Y0054585D01*
X0108349Y0054585D01*
X0107731Y0053968D01*
X0106517Y0053351D02*
X0105283Y0054585D01*
X0105283Y0050882D01*
X0106517Y0050882D02*
X0104048Y0050882D01*
X0102834Y0050882D02*
X0100365Y0050882D01*
X0101600Y0050882D02*
X0101600Y0054585D01*
X0102834Y0053351D01*
X0107731Y0051499D02*
X0108349Y0050882D01*
X0109583Y0050882D01*
X0110200Y0051499D01*
X0110200Y0053968D01*
X0110467Y0047749D02*
X0111084Y0047132D01*
X0111084Y0045897D01*
X0110467Y0045280D01*
X0109849Y0045280D01*
X0109232Y0045897D01*
X0109232Y0047749D01*
X0107998Y0047749D02*
X0110467Y0047749D01*
X0107998Y0047749D02*
X0107381Y0047132D01*
X0107381Y0045897D01*
X0107998Y0045280D01*
X0107381Y0044066D02*
X0107381Y0041597D01*
X0107381Y0042831D02*
X0111084Y0042831D01*
X0109849Y0041597D01*
X0110467Y0040383D02*
X0111084Y0039765D01*
X0111084Y0038531D01*
X0110467Y0037914D01*
X0107998Y0037914D01*
X0107381Y0038531D01*
X0107381Y0039765D01*
X0107998Y0040383D01*
X0079117Y0051299D02*
X0078500Y0050682D01*
X0077266Y0050682D01*
X0076648Y0051299D01*
X0075434Y0050682D02*
X0072965Y0053151D01*
X0072965Y0053768D01*
X0073582Y0054385D01*
X0074817Y0054385D01*
X0075434Y0053768D01*
X0076648Y0053768D02*
X0077266Y0054385D01*
X0078500Y0054385D01*
X0079117Y0053768D01*
X0079117Y0051299D01*
X0075434Y0050682D02*
X0072965Y0050682D01*
X0011287Y0126014D02*
X0015027Y0129276D01*
X0018843Y0132449D01*
X0022734Y0135530D01*
X0026697Y0138517D01*
X0030729Y0141410D01*
X0034829Y0144207D01*
X0038994Y0146905D01*
X0043222Y0149504D01*
X0047511Y0152002D01*
X0051857Y0154398D01*
X0056259Y0156689D01*
X0060714Y0158876D01*
X0065220Y0160956D01*
X0069774Y0162929D01*
X0074373Y0164793D01*
X0079016Y0166548D01*
X0083698Y0168192D01*
X0088418Y0169725D01*
X0093174Y0171145D01*
X0097962Y0172452D01*
X0102779Y0173644D01*
X0107623Y0174723D01*
X0112492Y0175686D01*
X0117382Y0176533D01*
X0122290Y0177264D01*
X0127215Y0177879D01*
X0132153Y0178376D01*
D12*
X0193951Y0183012D02*
X0193951Y0162914D01*
X0209049Y0162914D01*
X0209049Y0183012D01*
X0193951Y0183012D01*
X0194000Y0182963D02*
X0194000Y0162963D01*
X0209000Y0162963D01*
X0209000Y0182963D01*
X0194000Y0182963D01*
X0175609Y0120416D02*
X0175609Y0044510D01*
X0226791Y0044510D01*
X0226791Y0120416D01*
X0175609Y0120416D01*
X0041767Y0078472D02*
X0041767Y0063374D01*
X0021669Y0063374D01*
X0021669Y0078472D01*
X0041767Y0078472D01*
X0041718Y0078423D02*
X0041718Y0063423D01*
X0021718Y0063423D01*
X0021718Y0078423D01*
X0041718Y0078423D01*
X0360151Y0078712D02*
X0360151Y0063614D01*
X0380249Y0063614D01*
X0380249Y0078712D01*
X0360151Y0078712D01*
X0360200Y0078663D02*
X0360200Y0063663D01*
X0380200Y0063663D01*
X0380200Y0078663D01*
X0360200Y0078663D01*
D13*
X0218917Y0102896D02*
X0218917Y0114707D01*
X0213011Y0114707D01*
X0213011Y0102896D01*
X0207106Y0108802D02*
X0201200Y0108802D01*
X0201200Y0114707D01*
X0195294Y0114707D01*
X0195294Y0108802D01*
X0189389Y0108802D01*
X0189389Y0114707D01*
X0183483Y0114707D01*
X0183483Y0108802D01*
X0207106Y0108802D02*
X0207106Y0114707D01*
X0213011Y0114707D01*
D14*
X0182705Y0135663D02*
X0182705Y0137198D01*
X0182705Y0136430D02*
X0178101Y0136430D01*
X0178101Y0135663D02*
X0178101Y0137198D01*
X0178868Y0138732D02*
X0178101Y0139500D01*
X0178101Y0141034D01*
X0178868Y0141802D01*
X0178868Y0143336D02*
X0179635Y0143336D01*
X0180403Y0144104D01*
X0180403Y0145638D01*
X0179635Y0146405D01*
X0178868Y0146405D01*
X0178101Y0145638D01*
X0178101Y0144104D01*
X0178868Y0143336D01*
X0180403Y0144104D02*
X0181170Y0143336D01*
X0181937Y0143336D01*
X0182705Y0144104D01*
X0182705Y0145638D01*
X0181937Y0146405D01*
X0181170Y0146405D01*
X0180403Y0145638D01*
X0179035Y0149251D02*
X0179035Y0151553D01*
X0179802Y0152320D01*
X0181337Y0152320D01*
X0182104Y0151553D01*
X0182104Y0149251D01*
X0177500Y0149251D01*
X0179035Y0150786D02*
X0177500Y0152320D01*
X0177500Y0153855D02*
X0177500Y0156924D01*
X0177500Y0155390D02*
X0182104Y0155390D01*
X0180569Y0153855D01*
X0182104Y0158459D02*
X0182104Y0161528D01*
X0181337Y0161528D01*
X0178267Y0158459D01*
X0177500Y0158459D01*
X0185900Y0159126D02*
X0185900Y0160661D01*
X0186667Y0161428D01*
X0187435Y0161428D01*
X0188202Y0160661D01*
X0188202Y0158359D01*
X0186667Y0158359D01*
X0185900Y0159126D01*
X0185900Y0156824D02*
X0187435Y0155290D01*
X0187435Y0156057D02*
X0187435Y0153755D01*
X0185900Y0153755D02*
X0190504Y0153755D01*
X0190504Y0156057D01*
X0189737Y0156824D01*
X0188202Y0156824D01*
X0187435Y0156057D01*
X0188202Y0158359D02*
X0189737Y0159894D01*
X0190504Y0161428D01*
X0211700Y0161913D02*
X0211700Y0164215D01*
X0212467Y0164982D01*
X0215537Y0164982D01*
X0216304Y0164215D01*
X0216304Y0161913D01*
X0211700Y0161913D01*
X0212600Y0159261D02*
X0217204Y0159261D01*
X0214902Y0156959D01*
X0214902Y0160028D01*
X0214902Y0155424D02*
X0214135Y0154657D01*
X0214135Y0152355D01*
X0214135Y0153890D02*
X0212600Y0155424D01*
X0214902Y0155424D02*
X0216437Y0155424D01*
X0217204Y0154657D01*
X0217204Y0152355D01*
X0212600Y0152355D01*
X0211700Y0166517D02*
X0214769Y0169586D01*
X0215537Y0169586D01*
X0216304Y0168819D01*
X0216304Y0167284D01*
X0215537Y0166517D01*
X0211700Y0166517D02*
X0211700Y0169586D01*
X0255167Y0143336D02*
X0258237Y0146405D01*
X0259004Y0146405D01*
X0259004Y0143336D01*
X0258237Y0141802D02*
X0259004Y0141034D01*
X0259004Y0139500D01*
X0258237Y0138732D01*
X0255167Y0138732D01*
X0254400Y0139500D01*
X0254400Y0141034D01*
X0255167Y0141802D01*
X0255167Y0143336D02*
X0254400Y0143336D01*
X0254400Y0137198D02*
X0254400Y0135663D01*
X0254400Y0136430D02*
X0259004Y0136430D01*
X0259004Y0135663D02*
X0259004Y0137198D01*
X0182705Y0139500D02*
X0181937Y0138732D01*
X0178868Y0138732D01*
X0182705Y0139500D02*
X0182705Y0141034D01*
X0181937Y0141802D01*
X0126153Y0128967D02*
X0126153Y0116959D01*
X0120247Y0116959D02*
X0120247Y0128967D01*
X0054171Y0097703D02*
X0051869Y0097703D01*
X0051102Y0096936D01*
X0051102Y0095401D01*
X0051869Y0094634D01*
X0054171Y0094634D01*
X0052636Y0094634D02*
X0051102Y0093099D01*
X0049567Y0093099D02*
X0046498Y0093099D01*
X0048032Y0093099D02*
X0048032Y0097703D01*
X0049567Y0096168D01*
X0054171Y0097703D02*
X0054171Y0093099D01*
X0044963Y0093099D02*
X0041894Y0093099D01*
X0043428Y0093099D02*
X0043428Y0097703D01*
X0044963Y0096168D01*
X0042768Y0085727D02*
X0040466Y0085727D01*
X0039699Y0084959D01*
X0039699Y0081890D01*
X0040466Y0081123D01*
X0042768Y0081123D01*
X0042768Y0085727D01*
X0038164Y0084192D02*
X0036630Y0085727D01*
X0036630Y0081123D01*
X0037302Y0079893D02*
X0037302Y0078359D01*
X0038069Y0077591D01*
X0040371Y0077591D01*
X0040371Y0076057D02*
X0040371Y0080661D01*
X0038069Y0080661D01*
X0037302Y0079893D01*
X0038164Y0081123D02*
X0035095Y0081123D01*
X0034232Y0080661D02*
X0034232Y0076057D01*
X0032698Y0076057D02*
X0035767Y0076057D01*
X0037302Y0076057D02*
X0038836Y0077591D01*
X0035767Y0079126D02*
X0034232Y0080661D01*
X0031163Y0079893D02*
X0030396Y0080661D01*
X0028861Y0080661D01*
X0028094Y0079893D01*
X0031163Y0076824D01*
X0030396Y0076057D01*
X0028861Y0076057D01*
X0028094Y0076824D01*
X0028094Y0079893D01*
X0031163Y0079893D02*
X0031163Y0076824D01*
X0043520Y0058233D02*
X0043520Y0053629D01*
X0041986Y0053629D02*
X0045055Y0053629D01*
X0046590Y0053629D02*
X0048124Y0055164D01*
X0047357Y0055164D02*
X0049659Y0055164D01*
X0049659Y0053629D02*
X0049659Y0058233D01*
X0047357Y0058233D01*
X0046590Y0057466D01*
X0046590Y0055931D01*
X0047357Y0055164D01*
X0045055Y0056698D02*
X0043520Y0058233D01*
X0056696Y0055416D02*
X0068704Y0055416D01*
X0068704Y0049510D02*
X0056696Y0049510D01*
X0085196Y0050010D02*
X0097204Y0050010D01*
X0097204Y0055916D02*
X0085196Y0055916D01*
X0114247Y0044967D02*
X0114247Y0032959D01*
X0120153Y0032959D02*
X0120153Y0044967D01*
X0139400Y0043957D02*
X0139400Y0042422D01*
X0140167Y0041655D01*
X0143237Y0041655D01*
X0144004Y0042422D01*
X0144004Y0043957D01*
X0143237Y0044724D01*
X0144004Y0046259D02*
X0141702Y0046259D01*
X0142469Y0047794D01*
X0142469Y0048561D01*
X0141702Y0049328D01*
X0140167Y0049328D01*
X0139400Y0048561D01*
X0139400Y0047026D01*
X0140167Y0046259D01*
X0140167Y0044724D02*
X0139400Y0043957D01*
X0144004Y0046259D02*
X0144004Y0049328D01*
X0144004Y0040120D02*
X0144004Y0038586D01*
X0144004Y0039353D02*
X0139400Y0039353D01*
X0139400Y0038586D02*
X0139400Y0040120D01*
X0191424Y0071947D02*
X0192191Y0071180D01*
X0193726Y0071180D01*
X0194493Y0071947D01*
X0191424Y0075016D01*
X0191424Y0071947D01*
X0194493Y0071947D02*
X0194493Y0075016D01*
X0193726Y0075783D01*
X0192191Y0075783D01*
X0191424Y0075016D01*
X0197562Y0075783D02*
X0197562Y0071180D01*
X0196028Y0071180D02*
X0199097Y0071180D01*
X0200632Y0073481D02*
X0203701Y0073481D01*
X0205235Y0075016D02*
X0205235Y0075783D01*
X0205235Y0075016D02*
X0206770Y0073481D01*
X0206770Y0071180D01*
X0206770Y0073481D02*
X0208305Y0075016D01*
X0208305Y0075783D01*
X0209839Y0075016D02*
X0210607Y0075783D01*
X0212909Y0075783D01*
X0212909Y0071180D01*
X0210607Y0071180D01*
X0209839Y0071947D01*
X0209839Y0075016D01*
X0214443Y0075783D02*
X0215978Y0075783D01*
X0215211Y0075783D02*
X0215211Y0071947D01*
X0215978Y0071180D01*
X0216745Y0071180D01*
X0217513Y0071947D01*
X0199097Y0074249D02*
X0197562Y0075783D01*
X0307696Y0055416D02*
X0319704Y0055416D01*
X0319704Y0049510D02*
X0307696Y0049510D01*
X0335696Y0050010D02*
X0347704Y0050010D01*
X0347704Y0055916D02*
X0335696Y0055916D01*
X0360285Y0057130D02*
X0361052Y0056363D01*
X0362587Y0056363D01*
X0363354Y0057130D01*
X0364889Y0057130D02*
X0364889Y0060200D01*
X0365656Y0060967D01*
X0367958Y0060967D01*
X0367958Y0056363D01*
X0365656Y0056363D01*
X0364889Y0057130D01*
X0363354Y0060200D02*
X0362587Y0060967D01*
X0361052Y0060967D01*
X0360285Y0060200D01*
X0360285Y0059432D01*
X0361052Y0058665D01*
X0360285Y0057898D01*
X0360285Y0057130D01*
X0361052Y0058665D02*
X0361819Y0058665D01*
X0380181Y0058033D02*
X0380948Y0058801D01*
X0382483Y0058801D01*
X0383250Y0058033D01*
X0380181Y0058033D02*
X0380181Y0057266D01*
X0383250Y0054197D01*
X0380181Y0054197D01*
X0384785Y0054197D02*
X0387854Y0054197D01*
X0386320Y0054197D02*
X0386320Y0058801D01*
X0387854Y0057266D01*
X0389389Y0056499D02*
X0390156Y0055731D01*
X0392458Y0055731D01*
X0392458Y0054197D02*
X0392458Y0058801D01*
X0390156Y0058801D01*
X0389389Y0058033D01*
X0389389Y0056499D01*
X0390924Y0055731D02*
X0389389Y0054197D01*
X0388989Y0083769D02*
X0390524Y0085304D01*
X0389756Y0085304D02*
X0392058Y0085304D01*
X0392058Y0083769D02*
X0392058Y0088373D01*
X0389756Y0088373D01*
X0388989Y0087606D01*
X0388989Y0086071D01*
X0389756Y0085304D01*
X0387454Y0086839D02*
X0385920Y0088373D01*
X0385920Y0083769D01*
X0387454Y0083769D02*
X0384385Y0083769D01*
X0382850Y0084537D02*
X0382083Y0083769D01*
X0380548Y0083769D01*
X0379781Y0084537D01*
X0379781Y0085304D01*
X0380548Y0086071D01*
X0381316Y0086071D01*
X0380548Y0086071D02*
X0379781Y0086839D01*
X0379781Y0087606D01*
X0380548Y0088373D01*
X0382083Y0088373D01*
X0382850Y0087606D01*
X0384569Y0093499D02*
X0387638Y0093499D01*
X0389172Y0093499D02*
X0390707Y0095034D01*
X0389940Y0095034D02*
X0392242Y0095034D01*
X0392242Y0093499D02*
X0392242Y0098103D01*
X0389940Y0098103D01*
X0389172Y0097336D01*
X0389172Y0095801D01*
X0389940Y0095034D01*
X0387638Y0096568D02*
X0386103Y0098103D01*
X0386103Y0093499D01*
X0383034Y0095801D02*
X0379965Y0095801D01*
X0380732Y0093499D02*
X0380732Y0098103D01*
X0383034Y0095801D01*
X0208706Y0007804D02*
X0208706Y0003200D01*
X0205636Y0003200D01*
X0204102Y0003200D02*
X0201032Y0003200D01*
X0199498Y0003200D02*
X0197196Y0003200D01*
X0196428Y0003967D01*
X0196428Y0007037D01*
X0197196Y0007804D01*
X0199498Y0007804D01*
X0199498Y0003200D01*
X0202567Y0005502D02*
X0204102Y0005502D01*
X0204102Y0007804D02*
X0201032Y0007804D01*
X0204102Y0007804D02*
X0204102Y0003200D01*
X0194894Y0003967D02*
X0194894Y0004735D01*
X0194126Y0005502D01*
X0192592Y0005502D01*
X0191824Y0004735D01*
X0191824Y0003967D01*
X0192592Y0003200D01*
X0194126Y0003200D01*
X0194894Y0003967D01*
X0194126Y0005502D02*
X0194894Y0006269D01*
X0194894Y0007037D01*
X0194126Y0007804D01*
X0192592Y0007804D01*
X0191824Y0007037D01*
X0191824Y0006269D01*
X0192592Y0005502D01*
X0197460Y0009898D02*
X0197460Y0014228D01*
X0204940Y0014228D01*
X0204940Y0009898D01*
X0197460Y0009898D01*
D15*
X0095543Y0060231D02*
X0095543Y0093695D01*
X0075857Y0093695D01*
X0075857Y0060231D01*
X0095543Y0060231D01*
X0096822Y0095963D02*
X0096824Y0096022D01*
X0096830Y0096080D01*
X0096840Y0096138D01*
X0096853Y0096195D01*
X0096871Y0096251D01*
X0096892Y0096306D01*
X0096916Y0096359D01*
X0096945Y0096410D01*
X0096976Y0096460D01*
X0097011Y0096507D01*
X0097049Y0096552D01*
X0097090Y0096594D01*
X0097133Y0096633D01*
X0097179Y0096670D01*
X0097228Y0096703D01*
X0097278Y0096733D01*
X0097330Y0096759D01*
X0097384Y0096782D01*
X0097440Y0096802D01*
X0097496Y0096817D01*
X0097554Y0096829D01*
X0097612Y0096837D01*
X0097671Y0096841D01*
X0097729Y0096841D01*
X0097788Y0096837D01*
X0097846Y0096829D01*
X0097904Y0096817D01*
X0097960Y0096802D01*
X0098016Y0096782D01*
X0098070Y0096759D01*
X0098122Y0096733D01*
X0098172Y0096703D01*
X0098221Y0096670D01*
X0098267Y0096633D01*
X0098310Y0096594D01*
X0098351Y0096552D01*
X0098389Y0096507D01*
X0098424Y0096460D01*
X0098455Y0096410D01*
X0098484Y0096359D01*
X0098508Y0096306D01*
X0098529Y0096251D01*
X0098547Y0096195D01*
X0098560Y0096138D01*
X0098570Y0096080D01*
X0098576Y0096022D01*
X0098578Y0095963D01*
X0098576Y0095904D01*
X0098570Y0095846D01*
X0098560Y0095788D01*
X0098547Y0095731D01*
X0098529Y0095675D01*
X0098508Y0095620D01*
X0098484Y0095567D01*
X0098455Y0095516D01*
X0098424Y0095466D01*
X0098389Y0095419D01*
X0098351Y0095374D01*
X0098310Y0095332D01*
X0098267Y0095293D01*
X0098221Y0095256D01*
X0098172Y0095223D01*
X0098122Y0095193D01*
X0098070Y0095167D01*
X0098016Y0095144D01*
X0097960Y0095124D01*
X0097904Y0095109D01*
X0097846Y0095097D01*
X0097788Y0095089D01*
X0097729Y0095085D01*
X0097671Y0095085D01*
X0097612Y0095089D01*
X0097554Y0095097D01*
X0097496Y0095109D01*
X0097440Y0095124D01*
X0097384Y0095144D01*
X0097330Y0095167D01*
X0097278Y0095193D01*
X0097228Y0095223D01*
X0097179Y0095256D01*
X0097133Y0095293D01*
X0097090Y0095332D01*
X0097049Y0095374D01*
X0097011Y0095419D01*
X0096976Y0095466D01*
X0096945Y0095516D01*
X0096916Y0095567D01*
X0096892Y0095620D01*
X0096871Y0095675D01*
X0096853Y0095731D01*
X0096840Y0095788D01*
X0096830Y0095846D01*
X0096824Y0095904D01*
X0096822Y0095963D01*
X0149999Y0136963D02*
X0175802Y0136963D01*
X0175801Y0160563D01*
X0175802Y0160561D02*
X0149998Y0160560D01*
X0150001Y0160563D02*
X0149999Y0136963D01*
X0152801Y0160963D02*
X0173001Y0160963D01*
X0173001Y0163763D01*
X0171201Y0165563D01*
X0154601Y0165563D01*
X0152801Y0163763D01*
X0152801Y0160963D01*
X0226297Y0160560D02*
X0252102Y0160561D01*
X0252100Y0160563D02*
X0252102Y0136963D01*
X0226298Y0136963D01*
X0226300Y0160563D01*
X0229100Y0160963D02*
X0229100Y0163763D01*
X0230900Y0165563D01*
X0247500Y0165563D01*
X0249300Y0163763D01*
X0249300Y0160963D01*
X0229100Y0160963D01*
X0305857Y0093695D02*
X0305857Y0060231D01*
X0325543Y0060231D01*
X0325543Y0093695D01*
X0305857Y0093695D01*
X0302822Y0057963D02*
X0302824Y0058022D01*
X0302830Y0058080D01*
X0302840Y0058138D01*
X0302853Y0058195D01*
X0302871Y0058251D01*
X0302892Y0058306D01*
X0302916Y0058359D01*
X0302945Y0058410D01*
X0302976Y0058460D01*
X0303011Y0058507D01*
X0303049Y0058552D01*
X0303090Y0058594D01*
X0303133Y0058633D01*
X0303179Y0058670D01*
X0303228Y0058703D01*
X0303278Y0058733D01*
X0303330Y0058759D01*
X0303384Y0058782D01*
X0303440Y0058802D01*
X0303496Y0058817D01*
X0303554Y0058829D01*
X0303612Y0058837D01*
X0303671Y0058841D01*
X0303729Y0058841D01*
X0303788Y0058837D01*
X0303846Y0058829D01*
X0303904Y0058817D01*
X0303960Y0058802D01*
X0304016Y0058782D01*
X0304070Y0058759D01*
X0304122Y0058733D01*
X0304172Y0058703D01*
X0304221Y0058670D01*
X0304267Y0058633D01*
X0304310Y0058594D01*
X0304351Y0058552D01*
X0304389Y0058507D01*
X0304424Y0058460D01*
X0304455Y0058410D01*
X0304484Y0058359D01*
X0304508Y0058306D01*
X0304529Y0058251D01*
X0304547Y0058195D01*
X0304560Y0058138D01*
X0304570Y0058080D01*
X0304576Y0058022D01*
X0304578Y0057963D01*
X0304576Y0057904D01*
X0304570Y0057846D01*
X0304560Y0057788D01*
X0304547Y0057731D01*
X0304529Y0057675D01*
X0304508Y0057620D01*
X0304484Y0057567D01*
X0304455Y0057516D01*
X0304424Y0057466D01*
X0304389Y0057419D01*
X0304351Y0057374D01*
X0304310Y0057332D01*
X0304267Y0057293D01*
X0304221Y0057256D01*
X0304172Y0057223D01*
X0304122Y0057193D01*
X0304070Y0057167D01*
X0304016Y0057144D01*
X0303960Y0057124D01*
X0303904Y0057109D01*
X0303846Y0057097D01*
X0303788Y0057089D01*
X0303729Y0057085D01*
X0303671Y0057085D01*
X0303612Y0057089D01*
X0303554Y0057097D01*
X0303496Y0057109D01*
X0303440Y0057124D01*
X0303384Y0057144D01*
X0303330Y0057167D01*
X0303278Y0057193D01*
X0303228Y0057223D01*
X0303179Y0057256D01*
X0303133Y0057293D01*
X0303090Y0057332D01*
X0303049Y0057374D01*
X0303011Y0057419D01*
X0302976Y0057466D01*
X0302945Y0057516D01*
X0302916Y0057567D01*
X0302892Y0057620D01*
X0302871Y0057675D01*
X0302853Y0057731D01*
X0302840Y0057788D01*
X0302830Y0057846D01*
X0302824Y0057904D01*
X0302822Y0057963D01*
D16*
X0320750Y0062263D02*
X0320750Y0062764D01*
X0321000Y0063014D01*
X0322251Y0063014D01*
X0322001Y0063486D02*
X0322251Y0063736D01*
X0322251Y0064237D01*
X0322001Y0064487D01*
X0321501Y0064237D02*
X0321501Y0063736D01*
X0321751Y0063486D01*
X0322001Y0063486D01*
X0322501Y0063987D02*
X0320500Y0063987D01*
X0320750Y0064237D02*
X0321000Y0064487D01*
X0321250Y0064487D01*
X0321501Y0064237D01*
X0321501Y0064959D02*
X0321501Y0065960D01*
X0322251Y0065710D02*
X0321501Y0064959D01*
X0320750Y0064237D02*
X0320750Y0063736D01*
X0321000Y0063486D01*
X0320750Y0062263D02*
X0321000Y0062013D01*
X0322251Y0062013D01*
X0322251Y0065710D02*
X0320750Y0065710D01*
X0080901Y0089567D02*
X0078900Y0089567D01*
X0079150Y0089817D02*
X0079400Y0090067D01*
X0079650Y0090067D01*
X0079901Y0089817D01*
X0079901Y0089317D01*
X0080151Y0089066D01*
X0080401Y0089066D01*
X0080651Y0089317D01*
X0080651Y0089817D01*
X0080401Y0090067D01*
X0080401Y0090540D02*
X0080651Y0090790D01*
X0080651Y0091290D01*
X0080401Y0091541D01*
X0080151Y0091541D01*
X0079150Y0090540D01*
X0079150Y0091541D01*
X0079150Y0089817D02*
X0079150Y0089317D01*
X0079400Y0089066D01*
X0079400Y0088594D02*
X0080651Y0088594D01*
X0080651Y0087593D02*
X0079400Y0087593D01*
X0079150Y0087843D01*
X0079150Y0088344D01*
X0079400Y0088594D01*
D17*
X0085885Y0052963D03*
X0096515Y0052963D03*
X0068015Y0052463D03*
X0057385Y0052463D03*
X0308385Y0052463D03*
X0319015Y0052463D03*
X0336385Y0052963D03*
X0347015Y0052963D03*
D18*
X0248200Y0130863D03*
X0230200Y0130863D03*
X0171901Y0130863D03*
X0153901Y0130863D03*
D19*
X0162901Y0135063D03*
X0239200Y0135063D03*
D20*
X0229100Y0160963D02*
X0249300Y0160963D01*
X0249300Y0163763D01*
X0247500Y0165563D01*
X0230900Y0165563D01*
X0229100Y0163763D01*
X0229100Y0160963D01*
X0229100Y0161331D02*
X0249300Y0161331D01*
X0249300Y0162116D02*
X0229100Y0162116D01*
X0229100Y0162901D02*
X0249300Y0162901D01*
X0249300Y0163686D02*
X0229100Y0163686D01*
X0229809Y0164472D02*
X0248591Y0164472D01*
X0247806Y0165257D02*
X0230594Y0165257D01*
X0173001Y0163763D02*
X0173001Y0160963D01*
X0152801Y0160963D01*
X0152801Y0163763D01*
X0154601Y0165563D01*
X0171201Y0165563D01*
X0173001Y0163763D01*
X0173001Y0163686D02*
X0152801Y0163686D01*
X0152801Y0162901D02*
X0173001Y0162901D01*
X0173001Y0162116D02*
X0152801Y0162116D01*
X0152801Y0161331D02*
X0173001Y0161331D01*
X0172292Y0164472D02*
X0153509Y0164472D01*
X0154295Y0165257D02*
X0171507Y0165257D01*
D21*
X0123200Y0128278D03*
X0123200Y0117648D03*
X0117200Y0044278D03*
X0117200Y0033648D03*
D22*
X0128102Y0033365D02*
X0131298Y0033365D01*
X0133298Y0033365D02*
X0128102Y0033365D01*
X0128102Y0035561D01*
X0128102Y0033365D02*
X0128102Y0044561D01*
X0128102Y0042365D01*
X0128102Y0044561D02*
X0131298Y0044561D01*
X0133298Y0044561D02*
X0128102Y0044561D01*
X0133298Y0044561D02*
X0133298Y0033365D01*
X0035559Y0053129D02*
X0028009Y0053129D01*
X0028009Y0059529D02*
X0035559Y0059529D01*
X0035509Y0082657D02*
X0027959Y0082657D01*
X0027959Y0089057D02*
X0035509Y0089057D01*
X0035509Y0092499D02*
X0027959Y0092499D01*
X0027959Y0098899D02*
X0035509Y0098899D01*
X0176000Y0169163D02*
X0176000Y0176713D01*
X0182400Y0176713D02*
X0182400Y0169163D01*
X0185200Y0169213D02*
X0185200Y0176763D01*
X0191600Y0176763D02*
X0191600Y0169213D01*
X0212200Y0169163D02*
X0212200Y0176713D01*
X0218600Y0176713D02*
X0218600Y0169163D01*
X0366592Y0098899D02*
X0374142Y0098899D01*
X0374142Y0092499D02*
X0366592Y0092499D01*
X0366542Y0089057D02*
X0374092Y0089057D01*
X0374092Y0082657D02*
X0366542Y0082657D01*
X0366542Y0059529D02*
X0374092Y0059529D01*
X0374092Y0053129D02*
X0366542Y0053129D01*
D23*
X0134650Y0042663D03*
X0126750Y0038963D03*
X0134650Y0035263D03*
D24*
X0200609Y0012063D02*
X0201298Y0011374D01*
X0201889Y0011965D01*
X0201200Y0012654D01*
X0200609Y0012063D01*
D25*
X0202283Y0013638D03*
D26*
X0365142Y0056329D03*
X0375542Y0056329D03*
X0375542Y0085857D03*
X0365142Y0085857D03*
X0365142Y0095699D03*
X0375542Y0095699D03*
X0036959Y0095699D03*
X0026559Y0095699D03*
X0026559Y0085857D03*
X0036959Y0085857D03*
X0036959Y0056329D03*
X0026559Y0056329D03*
D27*
X0179200Y0167763D03*
X0188400Y0167763D03*
X0188400Y0178163D03*
X0179200Y0178163D03*
X0215400Y0178163D03*
X0215400Y0167763D03*
D28*
X0199402Y0183974D02*
X0198668Y0184708D01*
X0197200Y0184708D01*
X0198301Y0184708D02*
X0198301Y0183240D01*
X0198668Y0183240D02*
X0199402Y0183974D01*
X0198668Y0183240D02*
X0197200Y0183240D01*
X0381019Y0074731D02*
X0381019Y0073263D01*
X0381019Y0074364D02*
X0382487Y0074364D01*
X0382487Y0074731D02*
X0381753Y0075464D01*
X0381019Y0074731D01*
X0382487Y0074731D02*
X0382487Y0073263D01*
X0021441Y0068091D02*
X0021441Y0066623D01*
X0021441Y0067724D02*
X0019973Y0067724D01*
X0019973Y0068091D02*
X0019973Y0066623D01*
X0019973Y0068091D02*
X0020707Y0068825D01*
X0021441Y0068091D01*
M02*
