G75*
%MOIN*%
%OFA0B0*%
%FSLAX25Y25*%
%IPPOS*%
%LPD*%
%AMOC8*
5,1,8,0,0,1.08239X$1,22.5*
%
%ADD10C,0.12611*%
%ADD11C,0.04690*%
%ADD12R,0.06300X0.02170*%
%ADD13OC8,0.07100*%
%ADD14C,0.07100*%
%ADD15R,0.06706X0.08674*%
%ADD16R,0.22060X0.25209*%
%ADD17R,0.04737X0.07099*%
%ADD18C,0.06800*%
%ADD19R,0.08674X0.06706*%
%ADD20R,0.06312X0.04737*%
%ADD21R,0.05524X0.05524*%
%ADD22C,0.08200*%
%ADD23R,0.07099X0.07898*%
%ADD24R,0.07898X0.07099*%
%ADD25R,0.07887X0.06312*%
%ADD26R,0.06312X0.07887*%
%ADD27C,0.04800*%
%ADD28C,0.04737*%
%ADD29C,0.05524*%
%ADD30C,0.04369*%
%ADD31C,0.09400*%
%ADD32C,0.08400*%
%ADD33C,0.03778*%
%ADD34C,0.03975*%
%ADD35C,0.05131*%
D10*
X0023098Y0041762D03*
X0023098Y0112628D03*
X0149082Y0190187D03*
X0253019Y0190187D03*
X0379003Y0112628D03*
X0379003Y0041762D03*
D11*
X0228862Y0051620D02*
X0226846Y0051620D01*
X0228862Y0051620D02*
X0228862Y0051574D01*
X0226846Y0051574D01*
X0226846Y0051620D01*
X0226846Y0057525D02*
X0228862Y0057525D01*
X0228862Y0057479D01*
X0226846Y0057479D01*
X0226846Y0057525D01*
X0226846Y0063431D02*
X0228862Y0063431D01*
X0228862Y0063385D01*
X0226846Y0063385D01*
X0226846Y0063431D01*
X0226846Y0069336D02*
X0228862Y0069336D01*
X0228862Y0069290D01*
X0226846Y0069290D01*
X0226846Y0069336D01*
X0226846Y0075242D02*
X0228862Y0075242D01*
X0228862Y0075196D01*
X0226846Y0075196D01*
X0226846Y0075242D01*
X0226846Y0081147D02*
X0228862Y0081147D01*
X0228862Y0081101D01*
X0226846Y0081101D01*
X0226846Y0081147D01*
X0226846Y0087053D02*
X0228862Y0087053D01*
X0228862Y0087007D01*
X0226846Y0087007D01*
X0226846Y0087053D01*
X0175554Y0087007D02*
X0173538Y0087007D01*
X0173538Y0087053D01*
X0175554Y0087053D01*
X0175554Y0087007D01*
X0175554Y0081101D02*
X0173538Y0081101D01*
X0173538Y0081147D01*
X0175554Y0081147D01*
X0175554Y0081101D01*
X0175554Y0075196D02*
X0173538Y0075196D01*
X0173538Y0075242D01*
X0175554Y0075242D01*
X0175554Y0075196D01*
X0175554Y0069290D02*
X0173538Y0069290D01*
X0173538Y0069336D01*
X0175554Y0069336D01*
X0175554Y0069290D01*
X0175554Y0063385D02*
X0173538Y0063385D01*
X0173538Y0063431D01*
X0175554Y0063431D01*
X0175554Y0063385D01*
X0175554Y0057479D02*
X0173538Y0057479D01*
X0173538Y0057525D01*
X0175554Y0057525D01*
X0175554Y0057479D01*
X0175554Y0051574D02*
X0173538Y0051574D01*
X0173538Y0051620D01*
X0175554Y0051620D01*
X0175554Y0051574D01*
X0180475Y0044455D02*
X0180475Y0042439D01*
X0180429Y0042439D01*
X0180429Y0044455D01*
X0180475Y0044455D01*
X0186380Y0044455D02*
X0186380Y0042439D01*
X0186334Y0042439D01*
X0186334Y0044455D01*
X0186380Y0044455D01*
X0192286Y0044455D02*
X0192286Y0042439D01*
X0192240Y0042439D01*
X0192240Y0044455D01*
X0192286Y0044455D01*
X0198192Y0044455D02*
X0198192Y0042439D01*
X0198146Y0042439D01*
X0198146Y0044455D01*
X0198192Y0044455D01*
X0204097Y0044455D02*
X0204097Y0042439D01*
X0204051Y0042439D01*
X0204051Y0044455D01*
X0204097Y0044455D01*
X0210003Y0044455D02*
X0210003Y0042439D01*
X0209957Y0042439D01*
X0209957Y0044455D01*
X0210003Y0044455D01*
X0215908Y0044455D02*
X0215908Y0042439D01*
X0215862Y0042439D01*
X0215862Y0044455D01*
X0215908Y0044455D01*
X0221814Y0044455D02*
X0221814Y0042439D01*
X0221768Y0042439D01*
X0221768Y0044455D01*
X0221814Y0044455D01*
D12*
X0301306Y0062888D03*
X0301306Y0065447D03*
X0301306Y0068006D03*
X0301306Y0070565D03*
X0301306Y0073124D03*
X0301306Y0075683D03*
X0301306Y0078243D03*
X0301306Y0080802D03*
X0301306Y0083361D03*
X0301306Y0085920D03*
X0301306Y0088479D03*
X0301306Y0091038D03*
X0330094Y0091038D03*
X0330094Y0088479D03*
X0330094Y0085920D03*
X0330094Y0083361D03*
X0330094Y0080802D03*
X0330094Y0078243D03*
X0330094Y0075683D03*
X0330094Y0073124D03*
X0330094Y0070565D03*
X0330094Y0068006D03*
X0330094Y0065447D03*
X0330094Y0062888D03*
X0100094Y0062888D03*
X0100094Y0065447D03*
X0100094Y0068006D03*
X0100094Y0070565D03*
X0100094Y0073124D03*
X0100094Y0075683D03*
X0100094Y0078243D03*
X0100094Y0080802D03*
X0100094Y0083361D03*
X0100094Y0085920D03*
X0100094Y0088479D03*
X0100094Y0091038D03*
X0071306Y0091038D03*
X0071306Y0088479D03*
X0071306Y0085920D03*
X0071306Y0083361D03*
X0071306Y0080802D03*
X0071306Y0078243D03*
X0071306Y0075683D03*
X0071306Y0073124D03*
X0071306Y0070565D03*
X0071306Y0068006D03*
X0071306Y0065447D03*
X0071306Y0062888D03*
D13*
X0067700Y0042963D03*
X0096200Y0042963D03*
X0133700Y0123463D03*
X0271200Y0160463D03*
X0308200Y0042963D03*
X0346700Y0042963D03*
D14*
X0336700Y0042963D03*
X0318200Y0042963D03*
X0143700Y0123463D03*
X0261200Y0160463D03*
X0086200Y0042963D03*
X0057700Y0042963D03*
D15*
X0056794Y0052463D03*
X0068606Y0052463D03*
X0085294Y0052963D03*
X0097106Y0052963D03*
X0307794Y0052463D03*
X0319606Y0052463D03*
X0335794Y0052963D03*
X0347606Y0052963D03*
D16*
X0239200Y0155306D03*
X0162901Y0155306D03*
D17*
X0171877Y0126565D03*
X0153924Y0126565D03*
X0230224Y0126565D03*
X0248176Y0126565D03*
D18*
X0294200Y0121963D02*
X0294200Y0115963D01*
X0314200Y0115963D02*
X0314200Y0121963D01*
X0307200Y0138963D02*
X0301200Y0138963D01*
D19*
X0123200Y0128869D03*
X0123200Y0117057D03*
X0117200Y0044869D03*
X0117200Y0033057D03*
D20*
X0126369Y0038963D03*
X0135031Y0042703D03*
X0135031Y0035223D03*
D21*
X0197066Y0012063D03*
X0205334Y0012063D03*
D22*
X0151700Y0058463D03*
X0141700Y0058463D03*
X0141700Y0068963D03*
X0151700Y0068963D03*
X0109200Y0119463D03*
X0099200Y0119463D03*
D23*
X0037357Y0095699D03*
X0026161Y0095699D03*
X0026161Y0085857D03*
X0037357Y0085857D03*
X0037357Y0056329D03*
X0026161Y0056329D03*
X0364743Y0056329D03*
X0375940Y0056329D03*
X0375940Y0085857D03*
X0364743Y0085857D03*
X0364743Y0095699D03*
X0375940Y0095699D03*
D24*
X0215400Y0167365D03*
X0215400Y0178561D03*
X0188400Y0178561D03*
X0179200Y0178561D03*
X0179200Y0167365D03*
X0188400Y0167365D03*
D25*
X0036836Y0074663D03*
X0026600Y0074663D03*
X0026600Y0067183D03*
X0036836Y0067183D03*
X0365082Y0067423D03*
X0365082Y0074903D03*
X0375318Y0074903D03*
X0375318Y0067423D03*
D26*
X0205240Y0167845D03*
X0197760Y0167845D03*
X0197760Y0178081D03*
X0205240Y0178081D03*
D27*
X0258200Y0145463D03*
X0265700Y0146963D03*
X0218700Y0144963D03*
X0218200Y0138463D03*
X0219000Y0132363D03*
X0183200Y0133963D03*
X0180200Y0139463D03*
X0181200Y0144963D03*
X0146700Y0103963D03*
X0146200Y0097463D03*
X0134700Y0088963D03*
X0130200Y0056463D03*
X0142200Y0035963D03*
X0177400Y0035463D03*
X0187700Y0035463D03*
X0194200Y0034963D03*
X0200600Y0034763D03*
X0250200Y0042463D03*
X0254200Y0096463D03*
X0254200Y0103963D03*
X0235200Y0100463D03*
D28*
X0044700Y0030463D03*
X0073700Y0030463D03*
X0104200Y0033963D03*
X0164200Y0058963D03*
X0197200Y0067963D03*
X0202700Y0082963D03*
X0166700Y0104963D03*
X0158200Y0101463D03*
X0086200Y0087963D03*
X0040200Y0105463D03*
X0131999Y0166491D03*
X0235200Y0116463D03*
X0291602Y0158691D03*
X0349700Y0075463D03*
X0349700Y0030463D03*
X0290700Y0031963D03*
D29*
X0275854Y0030739D03*
X0269948Y0030739D03*
X0147200Y0085963D03*
D30*
X0339100Y0127263D03*
D31*
X0263200Y0041963D03*
D32*
X0286877Y0064203D03*
X0286877Y0089794D03*
X0115224Y0089794D03*
X0115224Y0064203D03*
D33*
X0252300Y0012063D03*
X0228600Y0171263D03*
D34*
X0201200Y0148463D03*
D35*
X0165700Y0041463D03*
M02*
