G75*
%MOIN*%
%OFA0B0*%
%FSLAX25Y25*%
%IPPOS*%
%LPD*%
%AMOC8*
5,1,8,0,0,1.08239X$1,22.5*
%
%ADD10R,0.04700X0.02200*%
%ADD11R,0.02200X0.04700*%
%ADD12R,0.06299X0.07098*%
%ADD13R,0.05906X0.07874*%
%ADD14OC8,0.06300*%
%ADD15C,0.06300*%
%ADD16R,0.05512X0.07480*%
%ADD17R,0.08661X0.02362*%
%ADD18R,0.07098X0.06299*%
%ADD19C,0.06000*%
%ADD20R,0.07874X0.05906*%
%ADD21R,0.04724X0.04724*%
%ADD22C,0.07400*%
%ADD23R,0.01181X0.05118*%
%ADD24R,0.07087X0.08661*%
%ADD25C,0.04000*%
%ADD26C,0.01600*%
%ADD27C,0.03937*%
%ADD28C,0.02400*%
%ADD29C,0.01200*%
%ADD30C,0.04724*%
%ADD31C,0.03569*%
%ADD32C,0.08600*%
%ADD33C,0.07600*%
%ADD34C,0.02000*%
%ADD35C,0.03200*%
%ADD36C,0.01000*%
%ADD37C,0.02978*%
%ADD38C,0.03175*%
%ADD39C,0.04331*%
D10*
X0170259Y0048191D03*
X0170259Y0051341D03*
X0170259Y0054491D03*
X0170259Y0057640D03*
X0170259Y0060790D03*
X0170259Y0063939D03*
X0170259Y0067089D03*
X0170259Y0070239D03*
X0170259Y0073388D03*
X0170259Y0076538D03*
X0170259Y0079687D03*
X0170259Y0082837D03*
X0170259Y0085987D03*
X0170259Y0089136D03*
X0170259Y0092286D03*
X0170259Y0095435D03*
X0231676Y0095435D03*
X0231676Y0092286D03*
X0231676Y0089136D03*
X0231676Y0085987D03*
X0231676Y0082837D03*
X0231676Y0079687D03*
X0231676Y0076538D03*
X0231676Y0073388D03*
X0231676Y0070239D03*
X0231676Y0067089D03*
X0231676Y0063939D03*
X0231676Y0060790D03*
X0231676Y0057640D03*
X0231676Y0054491D03*
X0231676Y0051341D03*
X0231676Y0048191D03*
D11*
X0224590Y0041105D03*
X0221440Y0041105D03*
X0218291Y0041105D03*
X0215141Y0041105D03*
X0211991Y0041105D03*
X0208842Y0041105D03*
X0205692Y0041105D03*
X0202543Y0041105D03*
X0199393Y0041105D03*
X0196243Y0041105D03*
X0193094Y0041105D03*
X0189944Y0041105D03*
X0186794Y0041105D03*
X0183645Y0041105D03*
X0180495Y0041105D03*
X0177346Y0041105D03*
X0177346Y0102522D03*
X0180495Y0102522D03*
X0183645Y0102522D03*
X0186794Y0102522D03*
X0189944Y0102522D03*
X0193094Y0102522D03*
X0196243Y0102522D03*
X0199393Y0102522D03*
X0202543Y0102522D03*
X0205692Y0102522D03*
X0208842Y0102522D03*
X0211991Y0102522D03*
X0215141Y0102522D03*
X0218291Y0102522D03*
X0221440Y0102522D03*
X0224590Y0102522D03*
D12*
X0127298Y0104463D03*
X0116102Y0104463D03*
X0183602Y0021963D03*
X0194798Y0021963D03*
X0206102Y0021963D03*
X0217298Y0021963D03*
X0228102Y0021963D03*
X0239298Y0021963D03*
X0287502Y0044763D03*
X0298698Y0044763D03*
D13*
X0276606Y0055963D03*
X0264794Y0055963D03*
X0264794Y0067463D03*
X0276606Y0067463D03*
X0276606Y0079463D03*
X0264794Y0079463D03*
X0167106Y0034463D03*
X0155294Y0034463D03*
X0140606Y0047963D03*
X0128794Y0047963D03*
X0128794Y0078963D03*
X0140606Y0078963D03*
D14*
X0096200Y0042963D03*
X0067700Y0042963D03*
X0133700Y0123463D03*
X0271200Y0160463D03*
X0308200Y0042963D03*
X0346700Y0042963D03*
D15*
X0336700Y0042963D03*
X0318200Y0042963D03*
X0143700Y0123463D03*
X0261200Y0160463D03*
X0086200Y0042963D03*
X0057700Y0042963D03*
D16*
X0245976Y0062302D03*
X0255424Y0062302D03*
X0255424Y0079624D03*
X0245976Y0079624D03*
D17*
X0249436Y0128463D03*
X0249436Y0133463D03*
X0249436Y0138463D03*
X0249436Y0143463D03*
X0249436Y0148463D03*
X0249436Y0153463D03*
X0249436Y0158463D03*
X0228964Y0158463D03*
X0228964Y0153463D03*
X0228964Y0148463D03*
X0228964Y0143463D03*
X0228964Y0138463D03*
X0228964Y0133463D03*
X0228964Y0128463D03*
X0211436Y0128463D03*
X0211436Y0133463D03*
X0211436Y0138463D03*
X0211436Y0143463D03*
X0211436Y0148463D03*
X0211436Y0153463D03*
X0211436Y0158463D03*
X0190964Y0158463D03*
X0190964Y0153463D03*
X0190964Y0148463D03*
X0190964Y0143463D03*
X0190964Y0138463D03*
X0190964Y0133463D03*
X0190964Y0128463D03*
X0172936Y0128463D03*
X0172936Y0133463D03*
X0172936Y0138463D03*
X0172936Y0143463D03*
X0172936Y0148463D03*
X0172936Y0153463D03*
X0172936Y0158463D03*
X0152464Y0158463D03*
X0152464Y0153463D03*
X0152464Y0148463D03*
X0152464Y0143463D03*
X0152464Y0138463D03*
X0152464Y0133463D03*
X0152464Y0128463D03*
D18*
X0124200Y0124061D03*
X0124200Y0112865D03*
X0252240Y0026101D03*
X0252240Y0014904D03*
D19*
X0294200Y0115963D02*
X0294200Y0121963D01*
X0314200Y0121963D02*
X0314200Y0115963D01*
X0307200Y0138963D02*
X0301200Y0138963D01*
D20*
X0280200Y0154057D03*
X0280200Y0165869D03*
D21*
X0208834Y0029963D03*
X0200566Y0029963D03*
D22*
X0151700Y0058463D03*
X0141700Y0058463D03*
X0141700Y0068963D03*
X0151700Y0068963D03*
X0109200Y0119463D03*
X0099200Y0119463D03*
D23*
X0171523Y0177392D03*
X0175460Y0177392D03*
X0179397Y0177392D03*
X0183334Y0177392D03*
X0187271Y0177392D03*
X0191208Y0177392D03*
X0195145Y0177392D03*
X0199082Y0177392D03*
X0203019Y0177392D03*
X0206956Y0177392D03*
X0210893Y0177392D03*
X0214830Y0177392D03*
X0218767Y0177392D03*
X0222704Y0177392D03*
X0226641Y0177392D03*
X0230578Y0177392D03*
D24*
X0240027Y0190187D03*
X0162074Y0190187D03*
D25*
X0181200Y0144963D03*
X0180200Y0139463D03*
X0183200Y0133963D03*
X0218200Y0138463D03*
X0219000Y0132363D03*
X0218700Y0144963D03*
X0258200Y0145463D03*
X0265700Y0146963D03*
X0254200Y0103963D03*
X0254200Y0096463D03*
X0235200Y0100463D03*
X0146700Y0103963D03*
X0146200Y0097463D03*
X0134700Y0088963D03*
X0130200Y0056463D03*
X0142200Y0035963D03*
X0177400Y0035463D03*
X0187700Y0035463D03*
X0194200Y0034963D03*
X0200600Y0034763D03*
X0250200Y0042463D03*
D26*
X0253300Y0052263D02*
X0263200Y0041963D01*
X0279102Y0041963D01*
X0281902Y0044763D01*
X0287502Y0044763D01*
X0281900Y0050463D02*
X0279200Y0047963D01*
X0267200Y0047963D01*
X0264794Y0050369D01*
X0264794Y0055963D01*
X0266194Y0054563D01*
X0267000Y0054563D01*
X0267000Y0054363D01*
X0253300Y0052263D02*
X0239500Y0052263D01*
X0234223Y0057640D01*
X0231676Y0057640D01*
X0231676Y0063939D02*
X0227224Y0063939D01*
X0223700Y0067463D01*
X0231676Y0067089D02*
X0238326Y0067089D01*
X0240700Y0069463D01*
X0253200Y0069463D01*
X0255424Y0067239D01*
X0257149Y0068963D01*
X0263294Y0068963D01*
X0264794Y0067463D01*
X0255424Y0067239D02*
X0255424Y0062302D01*
X0241751Y0072463D02*
X0238700Y0072463D01*
X0236476Y0070239D01*
X0231676Y0070239D01*
X0241751Y0072463D02*
X0245976Y0076687D01*
X0248700Y0073963D01*
X0262200Y0073963D01*
X0265200Y0076963D01*
X0265200Y0079057D01*
X0264794Y0079463D01*
X0282400Y0050963D02*
X0295700Y0050963D01*
X0298700Y0047963D01*
X0298698Y0047961D01*
X0298698Y0044763D01*
X0282400Y0050963D02*
X0281900Y0050463D01*
X0246700Y0020463D02*
X0245200Y0021963D01*
X0239298Y0021963D01*
X0228102Y0021964D02*
X0228038Y0021980D01*
X0227975Y0021999D01*
X0227913Y0022022D01*
X0227852Y0022048D01*
X0227793Y0022078D01*
X0227736Y0022111D01*
X0227681Y0022147D01*
X0227627Y0022186D01*
X0227576Y0022228D01*
X0227528Y0022273D01*
X0227482Y0022321D01*
X0227439Y0022371D01*
X0227399Y0022423D01*
X0227361Y0022478D01*
X0227327Y0022534D01*
X0227296Y0022593D01*
X0227269Y0022653D01*
X0227244Y0022714D01*
X0227224Y0022777D01*
X0227206Y0022841D01*
X0227193Y0022905D01*
X0227183Y0022971D01*
X0227177Y0023036D01*
X0227174Y0023102D01*
X0227175Y0023169D01*
X0227180Y0023234D01*
X0227189Y0023300D01*
X0227201Y0023365D01*
X0227200Y0023365D02*
X0227200Y0025963D01*
X0227198Y0026089D01*
X0227192Y0026214D01*
X0227182Y0026339D01*
X0227168Y0026464D01*
X0227151Y0026589D01*
X0227129Y0026713D01*
X0227104Y0026836D01*
X0227074Y0026958D01*
X0227041Y0027079D01*
X0227004Y0027199D01*
X0226964Y0027318D01*
X0226919Y0027435D01*
X0226871Y0027552D01*
X0226819Y0027666D01*
X0226764Y0027779D01*
X0226705Y0027890D01*
X0226643Y0027999D01*
X0226577Y0028106D01*
X0226508Y0028211D01*
X0226436Y0028314D01*
X0226361Y0028415D01*
X0226282Y0028513D01*
X0226200Y0028608D01*
X0226116Y0028701D01*
X0226028Y0028791D01*
X0225938Y0028879D01*
X0225845Y0028963D01*
X0225750Y0029045D01*
X0225652Y0029124D01*
X0225551Y0029199D01*
X0225448Y0029271D01*
X0225343Y0029340D01*
X0225236Y0029406D01*
X0225127Y0029468D01*
X0225016Y0029527D01*
X0224903Y0029582D01*
X0224789Y0029634D01*
X0224672Y0029682D01*
X0224555Y0029727D01*
X0224436Y0029767D01*
X0224316Y0029804D01*
X0224195Y0029837D01*
X0224073Y0029867D01*
X0223950Y0029892D01*
X0223826Y0029914D01*
X0223701Y0029931D01*
X0223576Y0029945D01*
X0223451Y0029955D01*
X0223326Y0029961D01*
X0223200Y0029963D01*
X0208834Y0029963D01*
X0200600Y0029997D02*
X0200566Y0029963D01*
X0200600Y0029997D02*
X0200600Y0034763D01*
X0187700Y0035463D02*
X0187700Y0030463D01*
X0194798Y0021963D01*
X0193298Y0024463D01*
X0192700Y0024463D01*
X0194798Y0021963D02*
X0206102Y0021963D01*
X0183602Y0021963D02*
X0183602Y0041061D01*
X0183603Y0041072D01*
X0183608Y0041083D01*
X0183615Y0041091D01*
X0183624Y0041098D01*
X0183634Y0041103D01*
X0183645Y0041104D01*
X0180495Y0041105D02*
X0180495Y0038258D01*
X0180488Y0038151D01*
X0180476Y0038043D01*
X0180461Y0037937D01*
X0180442Y0037831D01*
X0180419Y0037726D01*
X0180392Y0037621D01*
X0180361Y0037518D01*
X0180327Y0037416D01*
X0180289Y0037315D01*
X0180247Y0037216D01*
X0180202Y0037118D01*
X0180153Y0037022D01*
X0180101Y0036928D01*
X0180045Y0036836D01*
X0179986Y0036746D01*
X0179924Y0036658D01*
X0179858Y0036572D01*
X0179789Y0036489D01*
X0179718Y0036409D01*
X0179643Y0036331D01*
X0179566Y0036256D01*
X0179486Y0036184D01*
X0179404Y0036114D01*
X0179319Y0036048D01*
X0179231Y0035985D01*
X0179142Y0035925D01*
X0179050Y0035869D01*
X0178956Y0035816D01*
X0178861Y0035766D01*
X0178763Y0035720D01*
X0178664Y0035678D01*
X0178564Y0035639D01*
X0178462Y0035604D01*
X0178359Y0035572D01*
X0178255Y0035544D01*
X0178150Y0035521D01*
X0178044Y0035501D01*
X0177937Y0035485D01*
X0177830Y0035472D01*
X0177723Y0035464D01*
X0177615Y0035460D01*
X0177508Y0035459D01*
X0177400Y0035463D01*
X0167106Y0034463D02*
X0165700Y0035869D01*
X0165700Y0041463D01*
X0165700Y0043632D01*
X0170259Y0048191D01*
X0170259Y0051341D02*
X0165078Y0051341D01*
X0162700Y0048963D01*
X0170259Y0051341D02*
X0179578Y0051341D01*
X0182700Y0054463D01*
X0170259Y0054491D02*
X0170231Y0054463D01*
X0170259Y0057640D02*
X0165523Y0057640D01*
X0164200Y0058963D01*
X0143200Y0047963D02*
X0140606Y0047963D01*
X0174826Y0082837D02*
X0180700Y0076963D01*
X0181200Y0076463D01*
X0174826Y0082837D02*
X0170259Y0082837D01*
X0177700Y0094963D02*
X0177700Y0095120D01*
X0167857Y0104963D01*
X0166700Y0104963D01*
X0158200Y0101463D02*
X0151200Y0108463D01*
X0144200Y0108463D01*
X0140200Y0104463D01*
X0127298Y0104463D01*
X0116102Y0104463D02*
X0100200Y0104463D01*
X0086200Y0090463D01*
X0086200Y0087963D01*
X0123798Y0112463D02*
X0124200Y0112865D01*
X0152464Y0128463D02*
X0154700Y0128463D01*
X0154700Y0133463D02*
X0152464Y0133463D01*
X0172936Y0128463D02*
X0175200Y0128463D01*
X0183200Y0133963D02*
X0183200Y0134963D01*
X0183210Y0135083D01*
X0183224Y0135203D01*
X0183242Y0135322D01*
X0183263Y0135440D01*
X0183288Y0135558D01*
X0183317Y0135675D01*
X0183350Y0135791D01*
X0183386Y0135906D01*
X0183426Y0136020D01*
X0183470Y0136132D01*
X0183517Y0136243D01*
X0183568Y0136352D01*
X0183622Y0136459D01*
X0183680Y0136565D01*
X0183741Y0136669D01*
X0183806Y0136771D01*
X0183873Y0136871D01*
X0183944Y0136968D01*
X0184018Y0137063D01*
X0184094Y0137156D01*
X0184174Y0137246D01*
X0184257Y0137334D01*
X0184342Y0137419D01*
X0184430Y0137501D01*
X0184521Y0137580D01*
X0184614Y0137657D01*
X0184710Y0137730D01*
X0184808Y0137800D01*
X0184908Y0137868D01*
X0185010Y0137931D01*
X0185114Y0137992D01*
X0185220Y0138049D01*
X0185328Y0138103D01*
X0185437Y0138153D01*
X0185548Y0138200D01*
X0185661Y0138243D01*
X0185775Y0138282D01*
X0185890Y0138318D01*
X0186006Y0138350D01*
X0186123Y0138379D01*
X0186241Y0138403D01*
X0186359Y0138424D01*
X0186479Y0138441D01*
X0186598Y0138455D01*
X0186718Y0138464D01*
X0186839Y0138469D01*
X0186959Y0138471D01*
X0187080Y0138469D01*
X0187200Y0138463D01*
X0190964Y0138463D01*
X0190964Y0133463D02*
X0194200Y0133463D01*
X0207200Y0133463D02*
X0211436Y0133463D01*
X0219000Y0132363D02*
X0223394Y0136657D01*
X0226962Y0138463D02*
X0228964Y0138463D01*
X0228964Y0133463D02*
X0225200Y0133463D01*
X0223394Y0136657D02*
X0223487Y0136763D01*
X0223584Y0136866D01*
X0223683Y0136967D01*
X0223785Y0137065D01*
X0223889Y0137161D01*
X0223997Y0137253D01*
X0224106Y0137343D01*
X0224218Y0137429D01*
X0224332Y0137513D01*
X0224449Y0137593D01*
X0224567Y0137670D01*
X0224688Y0137744D01*
X0224811Y0137815D01*
X0224935Y0137882D01*
X0225061Y0137946D01*
X0225189Y0138007D01*
X0225319Y0138064D01*
X0225450Y0138117D01*
X0225582Y0138167D01*
X0225716Y0138213D01*
X0225851Y0138256D01*
X0225987Y0138295D01*
X0226124Y0138330D01*
X0226262Y0138362D01*
X0226401Y0138390D01*
X0226540Y0138414D01*
X0226680Y0138434D01*
X0226821Y0138450D01*
X0226962Y0138463D01*
X0227962Y0133463D02*
X0228964Y0133463D01*
X0228964Y0128463D02*
X0227200Y0128463D01*
X0217200Y0143463D02*
X0211436Y0143463D01*
X0202200Y0143463D01*
X0202140Y0143465D01*
X0202079Y0143470D01*
X0202020Y0143479D01*
X0201961Y0143492D01*
X0201902Y0143508D01*
X0201845Y0143528D01*
X0201790Y0143551D01*
X0201735Y0143578D01*
X0201683Y0143607D01*
X0201632Y0143640D01*
X0201583Y0143676D01*
X0201537Y0143714D01*
X0201493Y0143756D01*
X0201451Y0143800D01*
X0201413Y0143846D01*
X0201377Y0143895D01*
X0201344Y0143946D01*
X0201315Y0143998D01*
X0201288Y0144053D01*
X0201265Y0144108D01*
X0201245Y0144165D01*
X0201229Y0144224D01*
X0201216Y0144283D01*
X0201207Y0144342D01*
X0201202Y0144403D01*
X0201200Y0144463D01*
X0201200Y0148463D01*
X0201200Y0153463D01*
X0211436Y0153463D01*
X0201200Y0153463D02*
X0201200Y0157463D01*
X0201198Y0157523D01*
X0201193Y0157584D01*
X0201184Y0157643D01*
X0201171Y0157702D01*
X0201155Y0157761D01*
X0201135Y0157818D01*
X0201112Y0157873D01*
X0201085Y0157928D01*
X0201056Y0157980D01*
X0201023Y0158031D01*
X0200987Y0158080D01*
X0200949Y0158126D01*
X0200907Y0158170D01*
X0200863Y0158212D01*
X0200817Y0158250D01*
X0200768Y0158286D01*
X0200717Y0158319D01*
X0200665Y0158348D01*
X0200610Y0158375D01*
X0200555Y0158398D01*
X0200498Y0158418D01*
X0200439Y0158434D01*
X0200380Y0158447D01*
X0200321Y0158456D01*
X0200260Y0158461D01*
X0200200Y0158463D01*
X0190964Y0158463D01*
X0173700Y0158463D02*
X0172936Y0158463D01*
X0162700Y0157963D02*
X0162700Y0152463D01*
X0162700Y0148463D01*
X0162700Y0144463D01*
X0162702Y0144403D01*
X0162707Y0144342D01*
X0162716Y0144283D01*
X0162729Y0144224D01*
X0162745Y0144165D01*
X0162765Y0144108D01*
X0162788Y0144053D01*
X0162815Y0143998D01*
X0162844Y0143946D01*
X0162877Y0143895D01*
X0162913Y0143846D01*
X0162951Y0143800D01*
X0162993Y0143756D01*
X0163037Y0143714D01*
X0163083Y0143676D01*
X0163132Y0143640D01*
X0163183Y0143607D01*
X0163235Y0143578D01*
X0163290Y0143551D01*
X0163345Y0143528D01*
X0163402Y0143508D01*
X0163461Y0143492D01*
X0163520Y0143479D01*
X0163579Y0143470D01*
X0163640Y0143465D01*
X0163700Y0143463D01*
X0172936Y0143463D01*
X0179700Y0143463D01*
X0179776Y0143465D01*
X0179852Y0143471D01*
X0179927Y0143480D01*
X0180002Y0143494D01*
X0180076Y0143511D01*
X0180149Y0143532D01*
X0180221Y0143556D01*
X0180292Y0143585D01*
X0180361Y0143616D01*
X0180428Y0143651D01*
X0180493Y0143690D01*
X0180557Y0143732D01*
X0180618Y0143777D01*
X0180677Y0143825D01*
X0180733Y0143876D01*
X0180787Y0143930D01*
X0180838Y0143986D01*
X0180886Y0144045D01*
X0180931Y0144106D01*
X0180973Y0144170D01*
X0181012Y0144235D01*
X0181047Y0144302D01*
X0181078Y0144371D01*
X0181107Y0144442D01*
X0181131Y0144514D01*
X0181152Y0144587D01*
X0181169Y0144661D01*
X0181183Y0144736D01*
X0181192Y0144811D01*
X0181198Y0144887D01*
X0181200Y0144963D01*
X0190964Y0148463D02*
X0201200Y0148463D01*
X0217200Y0143463D02*
X0217276Y0143465D01*
X0217352Y0143471D01*
X0217427Y0143480D01*
X0217502Y0143494D01*
X0217576Y0143511D01*
X0217649Y0143532D01*
X0217721Y0143556D01*
X0217792Y0143585D01*
X0217861Y0143616D01*
X0217928Y0143651D01*
X0217993Y0143690D01*
X0218057Y0143732D01*
X0218118Y0143777D01*
X0218177Y0143825D01*
X0218233Y0143876D01*
X0218287Y0143930D01*
X0218338Y0143986D01*
X0218386Y0144045D01*
X0218431Y0144106D01*
X0218473Y0144170D01*
X0218512Y0144235D01*
X0218547Y0144302D01*
X0218578Y0144371D01*
X0218607Y0144442D01*
X0218631Y0144514D01*
X0218652Y0144587D01*
X0218669Y0144661D01*
X0218683Y0144736D01*
X0218692Y0144811D01*
X0218698Y0144887D01*
X0218700Y0144963D01*
X0228964Y0148463D02*
X0239200Y0148463D01*
X0239200Y0153463D01*
X0249436Y0153463D01*
X0239200Y0153463D02*
X0239200Y0157463D01*
X0239198Y0157523D01*
X0239193Y0157584D01*
X0239184Y0157643D01*
X0239171Y0157702D01*
X0239155Y0157761D01*
X0239135Y0157818D01*
X0239112Y0157873D01*
X0239085Y0157928D01*
X0239056Y0157980D01*
X0239023Y0158031D01*
X0238987Y0158080D01*
X0238949Y0158126D01*
X0238907Y0158170D01*
X0238863Y0158212D01*
X0238817Y0158250D01*
X0238768Y0158286D01*
X0238717Y0158319D01*
X0238665Y0158348D01*
X0238610Y0158375D01*
X0238555Y0158398D01*
X0238498Y0158418D01*
X0238439Y0158434D01*
X0238380Y0158447D01*
X0238321Y0158456D01*
X0238260Y0158461D01*
X0238200Y0158463D01*
X0228964Y0158463D01*
X0239200Y0148463D02*
X0239200Y0144463D01*
X0239202Y0144403D01*
X0239207Y0144342D01*
X0239216Y0144283D01*
X0239229Y0144224D01*
X0239245Y0144165D01*
X0239265Y0144108D01*
X0239288Y0144053D01*
X0239315Y0143998D01*
X0239344Y0143946D01*
X0239377Y0143895D01*
X0239413Y0143846D01*
X0239451Y0143800D01*
X0239493Y0143756D01*
X0239537Y0143714D01*
X0239583Y0143676D01*
X0239632Y0143640D01*
X0239683Y0143607D01*
X0239735Y0143578D01*
X0239790Y0143551D01*
X0239845Y0143528D01*
X0239902Y0143508D01*
X0239961Y0143492D01*
X0240020Y0143479D01*
X0240079Y0143470D01*
X0240140Y0143465D01*
X0240200Y0143463D01*
X0249436Y0143463D01*
X0256700Y0143463D01*
X0258200Y0145463D01*
X0230578Y0173241D02*
X0230578Y0177392D01*
X0226700Y0177333D02*
X0226700Y0173163D01*
X0226702Y0173078D01*
X0226708Y0172993D01*
X0226717Y0172908D01*
X0226731Y0172824D01*
X0226748Y0172740D01*
X0226768Y0172658D01*
X0226793Y0172576D01*
X0226821Y0172495D01*
X0226853Y0172416D01*
X0226888Y0172339D01*
X0226927Y0172263D01*
X0226969Y0172188D01*
X0227014Y0172116D01*
X0227063Y0172046D01*
X0227115Y0171978D01*
X0227169Y0171913D01*
X0227227Y0171850D01*
X0227287Y0171790D01*
X0227350Y0171732D01*
X0227415Y0171678D01*
X0227483Y0171626D01*
X0227553Y0171577D01*
X0227625Y0171532D01*
X0227700Y0171490D01*
X0227776Y0171451D01*
X0227853Y0171416D01*
X0227932Y0171384D01*
X0228013Y0171356D01*
X0228095Y0171331D01*
X0228177Y0171311D01*
X0228261Y0171294D01*
X0228345Y0171280D01*
X0228430Y0171271D01*
X0228515Y0171265D01*
X0228600Y0171263D01*
X0228686Y0171265D01*
X0228772Y0171271D01*
X0228858Y0171280D01*
X0228943Y0171293D01*
X0229028Y0171310D01*
X0229112Y0171330D01*
X0229195Y0171355D01*
X0229277Y0171382D01*
X0229357Y0171414D01*
X0229436Y0171448D01*
X0229513Y0171486D01*
X0229589Y0171528D01*
X0229663Y0171573D01*
X0229735Y0171621D01*
X0229804Y0171672D01*
X0229871Y0171726D01*
X0229936Y0171783D01*
X0229999Y0171842D01*
X0230058Y0171905D01*
X0230115Y0171970D01*
X0230169Y0172037D01*
X0230220Y0172106D01*
X0230268Y0172178D01*
X0230313Y0172252D01*
X0230355Y0172328D01*
X0230393Y0172405D01*
X0230427Y0172484D01*
X0230459Y0172564D01*
X0230486Y0172646D01*
X0230511Y0172729D01*
X0230531Y0172813D01*
X0230548Y0172898D01*
X0230561Y0172983D01*
X0230570Y0173069D01*
X0230576Y0173155D01*
X0230578Y0173241D01*
X0172936Y0153463D02*
X0163700Y0153463D01*
X0163640Y0153461D01*
X0163579Y0153456D01*
X0163520Y0153447D01*
X0163461Y0153434D01*
X0163402Y0153418D01*
X0163345Y0153398D01*
X0163290Y0153375D01*
X0163235Y0153348D01*
X0163183Y0153319D01*
X0163132Y0153286D01*
X0163083Y0153250D01*
X0163037Y0153212D01*
X0162993Y0153170D01*
X0162951Y0153126D01*
X0162913Y0153080D01*
X0162877Y0153031D01*
X0162844Y0152980D01*
X0162815Y0152928D01*
X0162788Y0152873D01*
X0162765Y0152818D01*
X0162745Y0152761D01*
X0162729Y0152702D01*
X0162716Y0152643D01*
X0162707Y0152584D01*
X0162702Y0152523D01*
X0162700Y0152463D01*
X0162700Y0148463D02*
X0152464Y0148463D01*
X0162200Y0158463D02*
X0162244Y0158461D01*
X0162287Y0158455D01*
X0162329Y0158446D01*
X0162371Y0158433D01*
X0162411Y0158416D01*
X0162450Y0158396D01*
X0162487Y0158373D01*
X0162521Y0158346D01*
X0162554Y0158317D01*
X0162583Y0158284D01*
X0162610Y0158250D01*
X0162633Y0158213D01*
X0162653Y0158174D01*
X0162670Y0158134D01*
X0162683Y0158092D01*
X0162692Y0158050D01*
X0162698Y0158007D01*
X0162700Y0157963D01*
X0162200Y0158463D02*
X0152464Y0158463D01*
X0252240Y0014904D02*
X0252300Y0014844D01*
X0252300Y0012063D01*
D27*
X0290700Y0031963D03*
X0349700Y0030463D03*
X0349700Y0075463D03*
X0235200Y0116463D03*
X0202700Y0082963D03*
X0197200Y0067963D03*
X0164200Y0058963D03*
X0104200Y0033963D03*
X0073700Y0030463D03*
X0044700Y0030463D03*
X0086200Y0087963D03*
X0040200Y0105463D03*
X0131999Y0166491D03*
X0166700Y0104963D03*
X0158200Y0101463D03*
X0291602Y0158691D03*
D28*
X0016742Y0012916D02*
X0015113Y0013352D01*
X0013653Y0014195D01*
X0012460Y0015388D01*
X0011617Y0016849D01*
X0011180Y0018478D01*
X0011125Y0019321D01*
X0011125Y0115047D01*
X0011310Y0116247D01*
X0012231Y0118781D01*
X0013771Y0120993D01*
X0014708Y0121897D01*
X0014798Y0121977D01*
X0015556Y0122619D01*
X0015565Y0122637D01*
X0021044Y0127338D01*
X0034044Y0137200D01*
X0047791Y0145991D01*
X0062196Y0153654D01*
X0077169Y0160140D01*
X0092612Y0165409D01*
X0108428Y0169425D01*
X0124514Y0172163D01*
X0132614Y0173046D01*
X0134219Y0173169D01*
X0137289Y0174435D01*
X0139818Y0176587D01*
X0141558Y0179415D01*
X0141558Y0179415D01*
X0142062Y0181501D01*
X0142263Y0181301D01*
X0144795Y0179839D01*
X0147620Y0179082D01*
X0150544Y0179082D01*
X0153368Y0179839D01*
X0155901Y0181301D01*
X0157137Y0182537D01*
X0157815Y0182257D01*
X0166333Y0182257D01*
X0167657Y0182805D01*
X0168669Y0183817D01*
X0169217Y0185141D01*
X0169217Y0195234D01*
X0168669Y0196557D01*
X0167791Y0197436D01*
X0234310Y0197436D01*
X0233432Y0196557D01*
X0232883Y0195234D01*
X0232883Y0185141D01*
X0233432Y0183817D01*
X0234444Y0182805D01*
X0235767Y0182257D01*
X0244286Y0182257D01*
X0244963Y0182537D01*
X0246200Y0181301D01*
X0248732Y0179839D01*
X0251557Y0179082D01*
X0254481Y0179082D01*
X0257305Y0179839D01*
X0259838Y0181301D01*
X0260038Y0181501D01*
X0260543Y0179415D01*
X0262283Y0176587D01*
X0264812Y0174435D01*
X0267882Y0173169D01*
X0269487Y0173046D01*
X0277587Y0172163D01*
X0284295Y0171021D01*
X0280476Y0171021D01*
X0280476Y0166145D01*
X0279924Y0166145D01*
X0279924Y0171021D01*
X0275973Y0171021D01*
X0275414Y0170871D01*
X0274912Y0170582D01*
X0274503Y0170172D01*
X0274213Y0169670D01*
X0274063Y0169111D01*
X0274063Y0166145D01*
X0279924Y0166145D01*
X0279924Y0165592D01*
X0280476Y0165592D01*
X0280476Y0160716D01*
X0284427Y0160716D01*
X0284986Y0160866D01*
X0285488Y0161155D01*
X0285897Y0161565D01*
X0286187Y0162067D01*
X0286337Y0162626D01*
X0286337Y0165592D01*
X0280476Y0165592D01*
X0280476Y0166145D01*
X0286337Y0166145D01*
X0286337Y0169111D01*
X0286187Y0169670D01*
X0285897Y0170172D01*
X0285488Y0170582D01*
X0284986Y0170871D01*
X0284656Y0170960D01*
X0293673Y0169425D01*
X0309488Y0165409D01*
X0324932Y0160140D01*
X0339904Y0153654D01*
X0354310Y0145991D01*
X0368057Y0137200D01*
X0381057Y0127338D01*
X0386535Y0122637D01*
X0386545Y0122619D01*
X0387303Y0121977D01*
X0387392Y0121897D01*
X0388329Y0120993D01*
X0389870Y0118781D01*
X0390790Y0116247D01*
X0390976Y0115047D01*
X0390976Y0019321D01*
X0390921Y0018478D01*
X0390484Y0016849D01*
X0389641Y0015388D01*
X0388448Y0014195D01*
X0386987Y0013352D01*
X0385358Y0012916D01*
X0384515Y0012860D01*
X0259389Y0012860D01*
X0259389Y0018770D01*
X0258841Y0020093D01*
X0258432Y0020502D01*
X0258841Y0020912D01*
X0259389Y0022235D01*
X0259389Y0029966D01*
X0258841Y0031290D01*
X0257829Y0032302D01*
X0256800Y0032728D01*
X0256800Y0036058D01*
X0257367Y0036624D01*
X0258725Y0035266D01*
X0261629Y0034063D01*
X0264771Y0034063D01*
X0264892Y0034113D01*
X0263986Y0031925D01*
X0263986Y0029553D01*
X0264894Y0027361D01*
X0266571Y0025684D01*
X0268762Y0024776D01*
X0271134Y0024776D01*
X0273325Y0025684D01*
X0275003Y0027361D01*
X0275910Y0029553D01*
X0275910Y0031925D01*
X0275003Y0034116D01*
X0273325Y0035793D01*
X0271134Y0036701D01*
X0269110Y0036701D01*
X0269897Y0037488D01*
X0269928Y0037563D01*
X0279977Y0037563D01*
X0280291Y0037693D01*
X0280365Y0037663D01*
X0283517Y0037663D01*
X0283636Y0037614D01*
X0291367Y0037614D01*
X0291486Y0037663D01*
X0294714Y0037663D01*
X0294833Y0037614D01*
X0302564Y0037614D01*
X0302683Y0037663D01*
X0304535Y0037663D01*
X0305524Y0038073D01*
X0305984Y0037613D01*
X0308200Y0037613D01*
X0310416Y0037613D01*
X0312321Y0039518D01*
X0312478Y0039139D01*
X0314376Y0037241D01*
X0316857Y0036213D01*
X0319543Y0036213D01*
X0322024Y0037241D01*
X0323922Y0039139D01*
X0324950Y0041620D01*
X0324950Y0044306D01*
X0323922Y0046787D01*
X0322024Y0048685D01*
X0319543Y0049713D01*
X0316857Y0049713D01*
X0314376Y0048685D01*
X0312478Y0046787D01*
X0312321Y0046408D01*
X0310416Y0048313D01*
X0308200Y0048313D01*
X0308200Y0042963D01*
X0308200Y0042963D01*
X0308200Y0048313D01*
X0305984Y0048313D01*
X0305448Y0047777D01*
X0305448Y0049028D01*
X0304900Y0050351D01*
X0303887Y0051364D01*
X0302564Y0051912D01*
X0300973Y0051912D01*
X0298192Y0054693D01*
X0296575Y0055363D01*
X0281758Y0055363D01*
X0281758Y0055687D01*
X0276882Y0055687D01*
X0276882Y0056239D01*
X0281758Y0056239D01*
X0281758Y0058857D01*
X0282685Y0057930D01*
X0285405Y0056803D01*
X0288349Y0056803D01*
X0291069Y0057930D01*
X0293151Y0060011D01*
X0294277Y0062731D01*
X0294277Y0065675D01*
X0293151Y0068395D01*
X0291069Y0070477D01*
X0288349Y0071603D01*
X0285405Y0071603D01*
X0282685Y0070477D01*
X0281758Y0069549D01*
X0281758Y0071690D01*
X0281608Y0072249D01*
X0281319Y0072751D01*
X0280909Y0073160D01*
X0280407Y0073450D01*
X0280359Y0073463D01*
X0280407Y0073476D01*
X0280909Y0073766D01*
X0281319Y0074175D01*
X0281608Y0074677D01*
X0281758Y0075236D01*
X0281758Y0079187D01*
X0276882Y0079187D01*
X0276882Y0079739D01*
X0281758Y0079739D01*
X0281758Y0083690D01*
X0281608Y0084249D01*
X0281319Y0084751D01*
X0280909Y0085160D01*
X0280407Y0085450D01*
X0279848Y0085600D01*
X0276882Y0085600D01*
X0276882Y0079739D01*
X0276329Y0079739D01*
X0276329Y0079187D01*
X0271453Y0079187D01*
X0271453Y0075236D01*
X0271603Y0074677D01*
X0271892Y0074175D01*
X0272302Y0073766D01*
X0272804Y0073476D01*
X0272852Y0073463D01*
X0272804Y0073450D01*
X0272302Y0073160D01*
X0271892Y0072751D01*
X0271603Y0072249D01*
X0271453Y0071690D01*
X0271453Y0067739D01*
X0276329Y0067739D01*
X0276329Y0067187D01*
X0271453Y0067187D01*
X0271453Y0063236D01*
X0271603Y0062677D01*
X0271892Y0062175D01*
X0272302Y0061766D01*
X0272393Y0061713D01*
X0272302Y0061660D01*
X0271892Y0061251D01*
X0271603Y0060749D01*
X0271453Y0060190D01*
X0271453Y0056239D01*
X0276329Y0056239D01*
X0276329Y0055687D01*
X0271453Y0055687D01*
X0271453Y0052363D01*
X0271347Y0052363D01*
X0271347Y0053360D01*
X0271400Y0053488D01*
X0271400Y0055438D01*
X0271347Y0055566D01*
X0271347Y0060616D01*
X0270893Y0061713D01*
X0271347Y0062810D01*
X0271347Y0072116D01*
X0270799Y0073439D01*
X0270775Y0073463D01*
X0270799Y0073487D01*
X0271347Y0074810D01*
X0271347Y0084116D01*
X0270799Y0085439D01*
X0269786Y0086452D01*
X0268463Y0087000D01*
X0261126Y0087000D01*
X0259968Y0086521D01*
X0258896Y0086965D01*
X0251952Y0086965D01*
X0250700Y0086446D01*
X0249448Y0086965D01*
X0242504Y0086965D01*
X0241180Y0086416D01*
X0240168Y0085404D01*
X0239620Y0084081D01*
X0239620Y0076863D01*
X0237825Y0076863D01*
X0237626Y0076781D01*
X0237626Y0088263D01*
X0251035Y0088263D01*
X0252579Y0088902D01*
X0253761Y0090084D01*
X0254540Y0090863D01*
X0255314Y0090863D01*
X0257372Y0091716D01*
X0258947Y0093291D01*
X0259800Y0095349D01*
X0259800Y0097577D01*
X0258947Y0099635D01*
X0258370Y0100213D01*
X0258947Y0100791D01*
X0259800Y0102849D01*
X0259800Y0105077D01*
X0258947Y0107135D01*
X0257372Y0108710D01*
X0255314Y0109563D01*
X0253086Y0109563D01*
X0251028Y0108710D01*
X0249453Y0107135D01*
X0248600Y0105077D01*
X0248600Y0104303D01*
X0243960Y0099663D01*
X0235883Y0099663D01*
X0234742Y0100135D01*
X0229290Y0100135D01*
X0229290Y0105588D01*
X0228742Y0106911D01*
X0227729Y0107924D01*
X0226406Y0108472D01*
X0222400Y0108472D01*
X0222400Y0109763D01*
X0224236Y0109763D01*
X0227159Y0110712D01*
X0229644Y0112519D01*
X0231450Y0115004D01*
X0231450Y0115004D01*
X0231859Y0116263D01*
X0236157Y0116263D01*
X0238929Y0117164D01*
X0241286Y0118877D01*
X0242999Y0121234D01*
X0242999Y0121234D01*
X0243865Y0123899D01*
X0244389Y0123682D01*
X0254483Y0123682D01*
X0255806Y0124230D01*
X0256819Y0125243D01*
X0257367Y0126566D01*
X0257367Y0130360D01*
X0257117Y0130963D01*
X0257367Y0131566D01*
X0257367Y0133863D01*
X0259781Y0133863D01*
X0260269Y0133773D01*
X0260687Y0133863D01*
X0261115Y0133863D01*
X0261573Y0134053D01*
X0262059Y0134157D01*
X0262411Y0134400D01*
X0262806Y0134563D01*
X0263157Y0134914D01*
X0263565Y0135196D01*
X0263797Y0135555D01*
X0264100Y0135857D01*
X0264290Y0136316D01*
X0267827Y0141783D01*
X0268745Y0142163D01*
X0277730Y0142163D01*
X0278205Y0142069D01*
X0278675Y0142163D01*
X0279155Y0142163D01*
X0279602Y0142348D01*
X0280078Y0142443D01*
X0280476Y0142710D01*
X0280919Y0142894D01*
X0281262Y0143236D01*
X0281664Y0143506D01*
X0281930Y0143905D01*
X0282269Y0144244D01*
X0282455Y0144692D01*
X0283930Y0146905D01*
X0284269Y0147244D01*
X0284377Y0147505D01*
X0284853Y0147505D01*
X0286176Y0148053D01*
X0287189Y0149065D01*
X0287737Y0150389D01*
X0287737Y0157726D01*
X0287189Y0159049D01*
X0286176Y0160062D01*
X0284853Y0160610D01*
X0276550Y0160610D01*
X0276550Y0160716D01*
X0279924Y0160716D01*
X0279924Y0165592D01*
X0274063Y0165592D01*
X0274063Y0165166D01*
X0273416Y0165813D01*
X0271200Y0165813D01*
X0271200Y0160463D01*
X0271200Y0160463D01*
X0271200Y0165813D01*
X0268984Y0165813D01*
X0267079Y0163908D01*
X0266922Y0164287D01*
X0265024Y0166185D01*
X0264458Y0166420D01*
X0262648Y0168911D01*
X0259624Y0171108D01*
X0259624Y0171108D01*
X0256069Y0172263D01*
X0235400Y0172263D01*
X0235400Y0176798D01*
X0235021Y0177713D01*
X0235400Y0178628D01*
X0235400Y0180298D01*
X0234761Y0181842D01*
X0233579Y0183024D01*
X0232035Y0183663D01*
X0178365Y0183663D01*
X0178095Y0183551D01*
X0178090Y0183551D01*
X0176767Y0183003D01*
X0175915Y0182151D01*
X0175460Y0182151D01*
X0175460Y0181409D01*
X0175460Y0181408D01*
X0175460Y0182151D01*
X0174580Y0182151D01*
X0174020Y0182001D01*
X0173518Y0181712D01*
X0173491Y0181684D01*
X0173464Y0181712D01*
X0172963Y0182001D01*
X0172403Y0182151D01*
X0171523Y0182151D01*
X0171523Y0177392D01*
X0171523Y0177392D01*
X0175206Y0177392D01*
X0175206Y0177392D01*
X0174313Y0177392D01*
X0171523Y0177392D01*
X0171523Y0177392D01*
X0168732Y0177392D01*
X0168732Y0174543D01*
X0168882Y0173984D01*
X0169172Y0173482D01*
X0169500Y0173154D01*
X0169500Y0169716D01*
X0169101Y0168563D01*
X0146759Y0168563D01*
X0144017Y0167672D01*
X0141685Y0165978D01*
X0139991Y0163646D01*
X0139991Y0163646D01*
X0139100Y0160904D01*
X0139100Y0145051D01*
X0140181Y0142441D01*
X0142178Y0140444D01*
X0142178Y0140444D01*
X0144788Y0139363D01*
X0145933Y0139363D01*
X0145933Y0138463D01*
X0152464Y0138463D01*
X0145933Y0138463D01*
X0145933Y0137535D01*
X0145081Y0136683D01*
X0144533Y0135360D01*
X0144533Y0131566D01*
X0144783Y0130963D01*
X0144533Y0130360D01*
X0144533Y0130213D01*
X0142357Y0130213D01*
X0139876Y0129185D01*
X0137978Y0127287D01*
X0137821Y0126908D01*
X0135916Y0128813D01*
X0133700Y0128813D01*
X0133700Y0123463D01*
X0133700Y0123463D01*
X0133700Y0128813D01*
X0131484Y0128813D01*
X0129949Y0127278D01*
X0129949Y0127501D01*
X0129799Y0128060D01*
X0129510Y0128562D01*
X0129100Y0128971D01*
X0128598Y0129261D01*
X0128039Y0129411D01*
X0124575Y0129411D01*
X0124575Y0124436D01*
X0123825Y0124436D01*
X0123825Y0123687D01*
X0118451Y0123687D01*
X0118451Y0120622D01*
X0118601Y0120063D01*
X0118890Y0119561D01*
X0119159Y0119293D01*
X0118612Y0119066D01*
X0117599Y0118053D01*
X0117051Y0116730D01*
X0117051Y0111612D01*
X0112236Y0111612D01*
X0110913Y0111064D01*
X0109900Y0110051D01*
X0109408Y0108863D01*
X0099325Y0108863D01*
X0097708Y0108193D01*
X0082470Y0092955D01*
X0081871Y0091509D01*
X0081479Y0091117D01*
X0080631Y0089071D01*
X0080631Y0086855D01*
X0081479Y0084809D01*
X0083046Y0083242D01*
X0085092Y0082394D01*
X0087308Y0082394D01*
X0089354Y0083242D01*
X0090921Y0084809D01*
X0091768Y0086855D01*
X0091768Y0089071D01*
X0091552Y0089593D01*
X0102023Y0100063D01*
X0109408Y0100063D01*
X0109900Y0098875D01*
X0110913Y0097862D01*
X0112236Y0097314D01*
X0119967Y0097314D01*
X0121290Y0097862D01*
X0121700Y0098271D01*
X0122110Y0097862D01*
X0123433Y0097314D01*
X0131164Y0097314D01*
X0132487Y0097862D01*
X0133500Y0098875D01*
X0133992Y0100063D01*
X0141075Y0100063D01*
X0141245Y0100133D01*
X0140600Y0098577D01*
X0140600Y0096349D01*
X0141453Y0094291D01*
X0143028Y0092716D01*
X0145086Y0091863D01*
X0145605Y0091863D01*
X0145676Y0091785D01*
X0143823Y0091017D01*
X0142145Y0089340D01*
X0141238Y0087149D01*
X0141238Y0086506D01*
X0141232Y0086500D01*
X0139741Y0086500D01*
X0140300Y0087849D01*
X0140300Y0090077D01*
X0139447Y0092135D01*
X0137872Y0093710D01*
X0135814Y0094563D01*
X0133586Y0094563D01*
X0131528Y0093710D01*
X0129953Y0092135D01*
X0129100Y0090077D01*
X0129100Y0087849D01*
X0129953Y0085791D01*
X0130500Y0085243D01*
X0130500Y0085100D01*
X0129071Y0085100D01*
X0129071Y0079239D01*
X0128518Y0079239D01*
X0128518Y0078687D01*
X0123642Y0078687D01*
X0123642Y0074736D01*
X0123792Y0074177D01*
X0124081Y0073675D01*
X0124491Y0073266D01*
X0124993Y0072976D01*
X0125552Y0072826D01*
X0128518Y0072826D01*
X0128518Y0078687D01*
X0129071Y0078687D01*
X0129071Y0072826D01*
X0130500Y0072826D01*
X0130500Y0062063D01*
X0129086Y0062063D01*
X0127028Y0061210D01*
X0125453Y0059635D01*
X0124600Y0057577D01*
X0124600Y0055349D01*
X0125161Y0053995D01*
X0124993Y0053950D01*
X0124491Y0053660D01*
X0124081Y0053251D01*
X0123792Y0052749D01*
X0123642Y0052190D01*
X0123642Y0048239D01*
X0128518Y0048239D01*
X0128518Y0047687D01*
X0123642Y0047687D01*
X0123642Y0043736D01*
X0123792Y0043177D01*
X0124081Y0042675D01*
X0124491Y0042266D01*
X0124993Y0041976D01*
X0125552Y0041826D01*
X0128518Y0041826D01*
X0128518Y0047687D01*
X0129071Y0047687D01*
X0129071Y0041826D01*
X0130500Y0041826D01*
X0130500Y0040774D01*
X0130423Y0040255D01*
X0130500Y0039946D01*
X0130500Y0039628D01*
X0130701Y0039143D01*
X0130828Y0038634D01*
X0131018Y0038378D01*
X0131139Y0038084D01*
X0131510Y0037713D01*
X0131823Y0037291D01*
X0132096Y0037128D01*
X0132321Y0036902D01*
X0132806Y0036702D01*
X0136834Y0034285D01*
X0137453Y0032791D01*
X0139028Y0031216D01*
X0141086Y0030363D01*
X0143314Y0030363D01*
X0145372Y0031216D01*
X0146947Y0032791D01*
X0147800Y0034849D01*
X0147800Y0037077D01*
X0146947Y0039135D01*
X0145372Y0040710D01*
X0145167Y0040796D01*
X0145598Y0040974D01*
X0146386Y0041763D01*
X0153931Y0041763D01*
X0153992Y0041740D01*
X0154764Y0041763D01*
X0155535Y0041763D01*
X0155596Y0041788D01*
X0155662Y0041790D01*
X0156366Y0042107D01*
X0157079Y0042402D01*
X0157126Y0042449D01*
X0157186Y0042476D01*
X0157715Y0043038D01*
X0158261Y0043584D01*
X0158286Y0043645D01*
X0164337Y0050074D01*
X0164309Y0050007D01*
X0164309Y0048464D01*
X0161970Y0046125D01*
X0161801Y0045718D01*
X0160812Y0044729D01*
X0159935Y0042610D01*
X0159935Y0040316D01*
X0160553Y0038824D01*
X0160553Y0029810D01*
X0161101Y0028487D01*
X0162114Y0027474D01*
X0163437Y0026926D01*
X0170774Y0026926D01*
X0172098Y0027474D01*
X0173110Y0028487D01*
X0173658Y0029810D01*
X0173658Y0031285D01*
X0174228Y0030716D01*
X0176286Y0029863D01*
X0178514Y0029863D01*
X0179202Y0030148D01*
X0179202Y0028891D01*
X0178413Y0028564D01*
X0177400Y0027551D01*
X0176852Y0026228D01*
X0176852Y0017698D01*
X0177400Y0016375D01*
X0178413Y0015362D01*
X0179736Y0014814D01*
X0187467Y0014814D01*
X0188790Y0015362D01*
X0189200Y0015771D01*
X0189610Y0015362D01*
X0190933Y0014814D01*
X0198664Y0014814D01*
X0199987Y0015362D01*
X0200450Y0015825D01*
X0200913Y0015362D01*
X0202236Y0014814D01*
X0209967Y0014814D01*
X0211290Y0015362D01*
X0212303Y0016375D01*
X0212530Y0016922D01*
X0212798Y0016653D01*
X0213300Y0016364D01*
X0213859Y0016214D01*
X0216924Y0016214D01*
X0216924Y0021588D01*
X0217673Y0021588D01*
X0217673Y0016214D01*
X0220738Y0016214D01*
X0221297Y0016364D01*
X0221787Y0016647D01*
X0221900Y0016375D01*
X0222913Y0015362D01*
X0224236Y0014814D01*
X0231967Y0014814D01*
X0233290Y0015362D01*
X0234303Y0016375D01*
X0234530Y0016922D01*
X0234798Y0016653D01*
X0235300Y0016364D01*
X0235859Y0016214D01*
X0238924Y0016214D01*
X0238924Y0021588D01*
X0239673Y0021588D01*
X0239673Y0016214D01*
X0242738Y0016214D01*
X0243297Y0016364D01*
X0243799Y0016653D01*
X0244208Y0017063D01*
X0244498Y0017565D01*
X0244648Y0018124D01*
X0244648Y0021588D01*
X0239673Y0021588D01*
X0239673Y0022338D01*
X0238924Y0022338D01*
X0238924Y0027712D01*
X0235859Y0027712D01*
X0235300Y0027562D01*
X0234798Y0027273D01*
X0234530Y0027004D01*
X0234303Y0027551D01*
X0233290Y0028564D01*
X0231967Y0029112D01*
X0230988Y0029112D01*
X0230321Y0030721D01*
X0229779Y0031263D01*
X0242945Y0031263D01*
X0243021Y0031235D01*
X0243778Y0031263D01*
X0244535Y0031263D01*
X0244610Y0031294D01*
X0244690Y0031297D01*
X0245379Y0031612D01*
X0246079Y0031902D01*
X0246136Y0031959D01*
X0246209Y0031993D01*
X0246725Y0032548D01*
X0247261Y0033084D01*
X0247291Y0033158D01*
X0247600Y0033491D01*
X0247600Y0032695D01*
X0246652Y0032302D01*
X0245639Y0031290D01*
X0245091Y0029966D01*
X0245091Y0022235D01*
X0245639Y0020912D01*
X0246049Y0020502D01*
X0245639Y0020093D01*
X0245091Y0018770D01*
X0245091Y0012860D01*
X0017586Y0012860D01*
X0016742Y0012916D01*
X0013603Y0014245D02*
X0245091Y0014245D01*
X0245091Y0016644D02*
X0243782Y0016644D01*
X0244648Y0019042D02*
X0245204Y0019042D01*
X0245420Y0021441D02*
X0244648Y0021441D01*
X0244648Y0022338D02*
X0239673Y0022338D01*
X0239673Y0027712D01*
X0242738Y0027712D01*
X0243297Y0027562D01*
X0243799Y0027273D01*
X0244208Y0026863D01*
X0244498Y0026361D01*
X0244648Y0025802D01*
X0244648Y0022338D01*
X0244648Y0023839D02*
X0245091Y0023839D01*
X0245091Y0026238D02*
X0244531Y0026238D01*
X0245091Y0028636D02*
X0233116Y0028636D01*
X0230008Y0031035D02*
X0245533Y0031035D01*
X0247547Y0033433D02*
X0247600Y0033433D01*
X0256800Y0033433D02*
X0264611Y0033433D01*
X0263986Y0031035D02*
X0258947Y0031035D01*
X0259389Y0028636D02*
X0264365Y0028636D01*
X0266017Y0026238D02*
X0259389Y0026238D01*
X0259389Y0023839D02*
X0390976Y0023839D01*
X0390976Y0026238D02*
X0273879Y0026238D01*
X0275531Y0028636D02*
X0390976Y0028636D01*
X0390976Y0031035D02*
X0381876Y0031035D01*
X0380465Y0030657D02*
X0383290Y0031414D01*
X0385822Y0032876D01*
X0387890Y0034943D01*
X0389352Y0037476D01*
X0390109Y0040300D01*
X0390109Y0043224D01*
X0389352Y0046049D01*
X0387890Y0048581D01*
X0385822Y0050649D01*
X0383290Y0052111D01*
X0380465Y0052868D01*
X0377541Y0052868D01*
X0374717Y0052111D01*
X0372184Y0050649D01*
X0370117Y0048581D01*
X0368654Y0046049D01*
X0367898Y0043224D01*
X0367898Y0040300D01*
X0368654Y0037476D01*
X0370117Y0034943D01*
X0372184Y0032876D01*
X0374717Y0031414D01*
X0377541Y0030657D01*
X0380465Y0030657D01*
X0376130Y0031035D02*
X0275910Y0031035D01*
X0275285Y0033433D02*
X0371627Y0033433D01*
X0369604Y0035832D02*
X0273232Y0035832D01*
X0258159Y0035832D02*
X0256800Y0035832D01*
X0239673Y0026238D02*
X0238924Y0026238D01*
X0238924Y0023839D02*
X0239673Y0023839D01*
X0239673Y0021441D02*
X0238924Y0021441D01*
X0238924Y0019042D02*
X0239673Y0019042D01*
X0239673Y0016644D02*
X0238924Y0016644D01*
X0234815Y0016644D02*
X0234415Y0016644D01*
X0221789Y0016644D02*
X0221782Y0016644D01*
X0217673Y0016644D02*
X0216924Y0016644D01*
X0216924Y0019042D02*
X0217673Y0019042D01*
X0217673Y0021441D02*
X0216924Y0021441D01*
X0212815Y0016644D02*
X0212415Y0016644D01*
X0177289Y0016644D02*
X0011735Y0016644D01*
X0011143Y0019042D02*
X0176852Y0019042D01*
X0176852Y0021441D02*
X0011125Y0021441D01*
X0011125Y0023839D02*
X0176852Y0023839D01*
X0176856Y0026238D02*
X0011125Y0026238D01*
X0011125Y0028636D02*
X0151215Y0028636D01*
X0150991Y0028766D02*
X0151493Y0028476D01*
X0152052Y0028326D01*
X0155018Y0028326D01*
X0155018Y0034187D01*
X0150142Y0034187D01*
X0150142Y0030236D01*
X0150292Y0029677D01*
X0150581Y0029175D01*
X0150991Y0028766D01*
X0150142Y0031035D02*
X0144936Y0031035D01*
X0147214Y0033433D02*
X0150142Y0033433D01*
X0150142Y0034739D02*
X0155018Y0034739D01*
X0155018Y0034187D01*
X0155571Y0034187D01*
X0155571Y0034739D01*
X0160447Y0034739D01*
X0160447Y0038690D01*
X0160297Y0039249D01*
X0160008Y0039751D01*
X0159598Y0040160D01*
X0159096Y0040450D01*
X0158537Y0040600D01*
X0155571Y0040600D01*
X0155571Y0034739D01*
X0155018Y0034739D01*
X0155018Y0040600D01*
X0152052Y0040600D01*
X0151493Y0040450D01*
X0150991Y0040160D01*
X0150581Y0039751D01*
X0150292Y0039249D01*
X0150142Y0038690D01*
X0150142Y0034739D01*
X0150142Y0035832D02*
X0147800Y0035832D01*
X0147322Y0038230D02*
X0150142Y0038230D01*
X0155018Y0038230D02*
X0155571Y0038230D01*
X0155571Y0035832D02*
X0155018Y0035832D01*
X0155571Y0034187D02*
X0160447Y0034187D01*
X0160447Y0030236D01*
X0160297Y0029677D01*
X0160008Y0029175D01*
X0159598Y0028766D01*
X0159096Y0028476D01*
X0158537Y0028326D01*
X0155571Y0028326D01*
X0155571Y0034187D01*
X0155571Y0033433D02*
X0155018Y0033433D01*
X0155018Y0031035D02*
X0155571Y0031035D01*
X0155571Y0028636D02*
X0155018Y0028636D01*
X0159374Y0028636D02*
X0161039Y0028636D01*
X0160553Y0031035D02*
X0160447Y0031035D01*
X0160447Y0033433D02*
X0160553Y0033433D01*
X0160553Y0035832D02*
X0160447Y0035832D01*
X0160447Y0038230D02*
X0160553Y0038230D01*
X0159935Y0040629D02*
X0145454Y0040629D01*
X0137186Y0033433D02*
X0030474Y0033433D01*
X0029917Y0032876D02*
X0031984Y0034943D01*
X0033446Y0037476D01*
X0034203Y0040300D01*
X0034203Y0043224D01*
X0033446Y0046049D01*
X0031984Y0048581D01*
X0029917Y0050649D01*
X0027384Y0052111D01*
X0024560Y0052868D01*
X0021636Y0052868D01*
X0018811Y0052111D01*
X0016279Y0050649D01*
X0014211Y0048581D01*
X0012749Y0046049D01*
X0011992Y0043224D01*
X0011992Y0040300D01*
X0012749Y0037476D01*
X0014211Y0034943D01*
X0016279Y0032876D01*
X0018811Y0031414D01*
X0021636Y0030657D01*
X0024560Y0030657D01*
X0027384Y0031414D01*
X0029917Y0032876D01*
X0032497Y0035832D02*
X0134255Y0035832D01*
X0131079Y0038230D02*
X0099033Y0038230D01*
X0098416Y0037613D02*
X0101550Y0040747D01*
X0101550Y0042963D01*
X0101550Y0045179D01*
X0098416Y0048313D01*
X0096200Y0048313D01*
X0096200Y0042963D01*
X0096200Y0042963D01*
X0101550Y0042963D01*
X0096200Y0042963D01*
X0096200Y0042963D01*
X0096200Y0048313D01*
X0093984Y0048313D01*
X0092079Y0046408D01*
X0091922Y0046787D01*
X0090024Y0048685D01*
X0087543Y0049713D01*
X0084857Y0049713D01*
X0082376Y0048685D01*
X0080478Y0046787D01*
X0079450Y0044306D01*
X0079450Y0041620D01*
X0080478Y0039139D01*
X0082376Y0037241D01*
X0084857Y0036213D01*
X0087543Y0036213D01*
X0090024Y0037241D01*
X0091922Y0039139D01*
X0092079Y0039518D01*
X0093984Y0037613D01*
X0096200Y0037613D01*
X0098416Y0037613D01*
X0096200Y0037613D02*
X0096200Y0042963D01*
X0096200Y0042963D01*
X0096200Y0037613D01*
X0096200Y0038230D02*
X0096200Y0038230D01*
X0096200Y0040629D02*
X0096200Y0040629D01*
X0096200Y0043027D02*
X0096200Y0043027D01*
X0096200Y0045426D02*
X0096200Y0045426D01*
X0101303Y0045426D02*
X0123642Y0045426D01*
X0123878Y0043027D02*
X0101550Y0043027D01*
X0101432Y0040629D02*
X0130478Y0040629D01*
X0129071Y0043027D02*
X0128518Y0043027D01*
X0128518Y0045426D02*
X0129071Y0045426D01*
X0128518Y0047824D02*
X0098905Y0047824D01*
X0096200Y0047824D02*
X0096200Y0047824D01*
X0093495Y0047824D02*
X0090885Y0047824D01*
X0081515Y0047824D02*
X0070405Y0047824D01*
X0069916Y0048313D02*
X0067700Y0048313D01*
X0067700Y0042963D01*
X0067700Y0042963D01*
X0073050Y0042963D01*
X0073050Y0045179D01*
X0069916Y0048313D01*
X0067700Y0048313D02*
X0065484Y0048313D01*
X0063579Y0046408D01*
X0063422Y0046787D01*
X0061524Y0048685D01*
X0059043Y0049713D01*
X0056357Y0049713D01*
X0053876Y0048685D01*
X0051978Y0046787D01*
X0050950Y0044306D01*
X0050950Y0041620D01*
X0051978Y0039139D01*
X0053876Y0037241D01*
X0056357Y0036213D01*
X0059043Y0036213D01*
X0061524Y0037241D01*
X0063422Y0039139D01*
X0063579Y0039518D01*
X0065484Y0037613D01*
X0067700Y0037613D01*
X0069916Y0037613D01*
X0073050Y0040747D01*
X0073050Y0042963D01*
X0067700Y0042963D01*
X0067700Y0042963D01*
X0067700Y0048313D01*
X0067700Y0047824D02*
X0067700Y0047824D01*
X0064995Y0047824D02*
X0062385Y0047824D01*
X0067700Y0045426D02*
X0067700Y0045426D01*
X0067700Y0043027D02*
X0067700Y0043027D01*
X0067700Y0042963D02*
X0067700Y0037613D01*
X0067700Y0042963D01*
X0067700Y0042963D01*
X0067700Y0040629D02*
X0067700Y0040629D01*
X0067700Y0038230D02*
X0067700Y0038230D01*
X0070533Y0038230D02*
X0081387Y0038230D01*
X0079861Y0040629D02*
X0072932Y0040629D01*
X0073050Y0043027D02*
X0079450Y0043027D01*
X0079914Y0045426D02*
X0072803Y0045426D01*
X0064867Y0038230D02*
X0062513Y0038230D01*
X0052887Y0038230D02*
X0033649Y0038230D01*
X0034203Y0040629D02*
X0051361Y0040629D01*
X0050950Y0043027D02*
X0034203Y0043027D01*
X0033613Y0045426D02*
X0051414Y0045426D01*
X0053015Y0047824D02*
X0032421Y0047824D01*
X0030343Y0050223D02*
X0123642Y0050223D01*
X0123757Y0052621D02*
X0025479Y0052621D01*
X0020716Y0052621D02*
X0011125Y0052621D01*
X0011125Y0050223D02*
X0015853Y0050223D01*
X0013774Y0047824D02*
X0011125Y0047824D01*
X0011125Y0045426D02*
X0012582Y0045426D01*
X0011992Y0043027D02*
X0011125Y0043027D01*
X0011125Y0040629D02*
X0011992Y0040629D01*
X0012547Y0038230D02*
X0011125Y0038230D01*
X0011125Y0035832D02*
X0013698Y0035832D01*
X0015721Y0033433D02*
X0011125Y0033433D01*
X0011125Y0031035D02*
X0020225Y0031035D01*
X0025970Y0031035D02*
X0139464Y0031035D01*
X0157705Y0043027D02*
X0160108Y0043027D01*
X0159962Y0045426D02*
X0161509Y0045426D01*
X0162219Y0047824D02*
X0163669Y0047824D01*
X0175651Y0051341D02*
X0175661Y0051351D01*
X0176209Y0052674D01*
X0176209Y0081387D01*
X0184610Y0081387D01*
X0215830Y0057327D01*
X0216268Y0056890D01*
X0216549Y0056774D01*
X0216790Y0056588D01*
X0217387Y0056426D01*
X0217958Y0056190D01*
X0218263Y0056190D01*
X0218557Y0056110D01*
X0219170Y0056190D01*
X0225726Y0056190D01*
X0225726Y0047055D01*
X0200726Y0047055D01*
X0198059Y0047055D01*
X0176209Y0047055D01*
X0176209Y0050007D01*
X0175661Y0051331D01*
X0175651Y0051341D01*
X0176120Y0050223D02*
X0225726Y0050223D01*
X0225726Y0052621D02*
X0176187Y0052621D01*
X0176209Y0055020D02*
X0225726Y0055020D01*
X0215712Y0057418D02*
X0176209Y0057418D01*
X0176209Y0059817D02*
X0212600Y0059817D01*
X0209487Y0062215D02*
X0176209Y0062215D01*
X0176209Y0064614D02*
X0206375Y0064614D01*
X0203262Y0067012D02*
X0176209Y0067012D01*
X0176209Y0069411D02*
X0200150Y0069411D01*
X0197037Y0071809D02*
X0176209Y0071809D01*
X0176209Y0074208D02*
X0193925Y0074208D01*
X0190813Y0076606D02*
X0176209Y0076606D01*
X0176209Y0079005D02*
X0187700Y0079005D01*
X0196547Y0083802D02*
X0225726Y0083802D01*
X0225726Y0086200D02*
X0193435Y0086200D01*
X0190322Y0088599D02*
X0225726Y0088599D01*
X0225726Y0090997D02*
X0176209Y0090997D01*
X0176209Y0090587D02*
X0176209Y0096572D01*
X0225726Y0096572D01*
X0225726Y0065390D01*
X0220440Y0065390D01*
X0189219Y0089449D01*
X0188782Y0089886D01*
X0188501Y0090003D01*
X0188259Y0090189D01*
X0187663Y0090350D01*
X0187091Y0090587D01*
X0186787Y0090587D01*
X0186493Y0090666D01*
X0185880Y0090587D01*
X0176209Y0090587D01*
X0176209Y0093396D02*
X0225726Y0093396D01*
X0225726Y0095795D02*
X0176209Y0095795D01*
X0172646Y0100135D02*
X0167193Y0100135D01*
X0165870Y0099587D01*
X0165845Y0099563D01*
X0163440Y0099563D01*
X0163768Y0100355D01*
X0163768Y0102571D01*
X0162921Y0104617D01*
X0161354Y0106184D01*
X0159308Y0107031D01*
X0158854Y0107031D01*
X0154930Y0110955D01*
X0153692Y0112193D01*
X0152075Y0112863D01*
X0143325Y0112863D01*
X0141708Y0112193D01*
X0138377Y0108863D01*
X0133992Y0108863D01*
X0133500Y0110051D01*
X0132487Y0111064D01*
X0131846Y0111330D01*
X0131368Y0112485D01*
X0131349Y0112504D01*
X0131349Y0116730D01*
X0130801Y0118053D01*
X0129788Y0119066D01*
X0129241Y0119293D01*
X0129510Y0119561D01*
X0129702Y0119895D01*
X0131484Y0118113D01*
X0133700Y0118113D01*
X0135916Y0118113D01*
X0137821Y0120018D01*
X0137978Y0119639D01*
X0139876Y0117741D01*
X0142357Y0116713D01*
X0145043Y0116713D01*
X0147524Y0117741D01*
X0149422Y0119639D01*
X0150450Y0122120D01*
X0150450Y0123682D01*
X0156503Y0123682D01*
X0157033Y0123296D01*
X0157640Y0122461D01*
X0157959Y0121479D01*
X0158000Y0120963D01*
X0158000Y0117847D01*
X0158998Y0114775D01*
X0158998Y0114775D01*
X0160898Y0112161D01*
X0163512Y0110261D01*
X0166584Y0109263D01*
X0179445Y0109263D01*
X0179445Y0108472D01*
X0175530Y0108472D01*
X0174206Y0107924D01*
X0173194Y0106911D01*
X0172646Y0105588D01*
X0172646Y0100135D01*
X0172646Y0100592D02*
X0163768Y0100592D01*
X0163595Y0102990D02*
X0172646Y0102990D01*
X0172646Y0105389D02*
X0162149Y0105389D01*
X0158098Y0107787D02*
X0174070Y0107787D01*
X0163745Y0110186D02*
X0155700Y0110186D01*
X0152749Y0112584D02*
X0160590Y0112584D01*
X0160898Y0112161D02*
X0160898Y0112161D01*
X0160898Y0112161D01*
X0163512Y0110261D02*
X0163512Y0110261D01*
X0158931Y0114983D02*
X0131349Y0114983D01*
X0131080Y0117381D02*
X0140744Y0117381D01*
X0137920Y0119780D02*
X0137583Y0119780D01*
X0133700Y0119780D02*
X0133700Y0119780D01*
X0133700Y0118113D02*
X0133700Y0123463D01*
X0133700Y0123463D01*
X0133700Y0118113D01*
X0129817Y0119780D02*
X0129636Y0119780D01*
X0133700Y0122178D02*
X0133700Y0122178D01*
X0133700Y0124577D02*
X0133700Y0124577D01*
X0133700Y0126975D02*
X0133700Y0126975D01*
X0137754Y0126975D02*
X0137849Y0126975D01*
X0140331Y0129374D02*
X0128178Y0129374D01*
X0124575Y0129374D02*
X0123825Y0129374D01*
X0123825Y0129411D02*
X0120361Y0129411D01*
X0119802Y0129261D01*
X0119300Y0128971D01*
X0118890Y0128562D01*
X0118601Y0128060D01*
X0118451Y0127501D01*
X0118451Y0124436D01*
X0123825Y0124436D01*
X0123825Y0129411D01*
X0123825Y0126975D02*
X0124575Y0126975D01*
X0124575Y0124577D02*
X0123825Y0124577D01*
X0118451Y0124577D02*
X0114410Y0124577D01*
X0115389Y0123598D02*
X0113335Y0125652D01*
X0110652Y0126763D01*
X0107748Y0126763D01*
X0105065Y0125652D01*
X0103210Y0123797D01*
X0103044Y0123963D01*
X0102292Y0124509D01*
X0101465Y0124931D01*
X0100582Y0125218D01*
X0099664Y0125363D01*
X0099200Y0125363D01*
X0099200Y0119463D01*
X0099200Y0119463D01*
X0099200Y0125363D01*
X0098736Y0125363D01*
X0097818Y0125218D01*
X0096935Y0124931D01*
X0096108Y0124509D01*
X0095356Y0123963D01*
X0094700Y0123307D01*
X0094154Y0122555D01*
X0093732Y0121728D01*
X0093445Y0120845D01*
X0093300Y0119927D01*
X0093300Y0119463D01*
X0099200Y0119463D01*
X0099200Y0119463D01*
X0099200Y0113563D01*
X0099664Y0113563D01*
X0100582Y0113708D01*
X0101465Y0113995D01*
X0102292Y0114417D01*
X0103044Y0114963D01*
X0103210Y0115129D01*
X0105065Y0113274D01*
X0107748Y0112163D01*
X0110652Y0112163D01*
X0113335Y0113274D01*
X0115389Y0115328D01*
X0116500Y0118011D01*
X0116500Y0120915D01*
X0115389Y0123598D01*
X0115977Y0122178D02*
X0118451Y0122178D01*
X0118764Y0119780D02*
X0116500Y0119780D01*
X0116239Y0117381D02*
X0117320Y0117381D01*
X0117051Y0114983D02*
X0115043Y0114983D01*
X0117051Y0112584D02*
X0111669Y0112584D01*
X0110034Y0110186D02*
X0033940Y0110186D01*
X0034203Y0111166D02*
X0033446Y0108342D01*
X0031984Y0105809D01*
X0029917Y0103742D01*
X0027384Y0102280D01*
X0024560Y0101523D01*
X0021636Y0101523D01*
X0018811Y0102280D01*
X0016279Y0103742D01*
X0014211Y0105809D01*
X0012749Y0108342D01*
X0011992Y0111166D01*
X0011992Y0114090D01*
X0012749Y0116915D01*
X0014211Y0119447D01*
X0016279Y0121515D01*
X0018811Y0122977D01*
X0021636Y0123734D01*
X0024560Y0123734D01*
X0027384Y0122977D01*
X0029917Y0121515D01*
X0031984Y0119447D01*
X0033446Y0116915D01*
X0034203Y0114090D01*
X0034203Y0111166D01*
X0034203Y0112584D02*
X0106731Y0112584D01*
X0099200Y0113563D02*
X0099200Y0119463D01*
X0099200Y0119463D01*
X0093300Y0119463D01*
X0093300Y0118999D01*
X0093445Y0118081D01*
X0093732Y0117198D01*
X0094154Y0116371D01*
X0094700Y0115619D01*
X0095356Y0114963D01*
X0096108Y0114417D01*
X0096935Y0113995D01*
X0097818Y0113708D01*
X0098736Y0113563D01*
X0099200Y0113563D01*
X0099200Y0114983D02*
X0099200Y0114983D01*
X0099200Y0117381D02*
X0099200Y0117381D01*
X0099200Y0119780D02*
X0099200Y0119780D01*
X0099200Y0122178D02*
X0099200Y0122178D01*
X0099200Y0124577D02*
X0099200Y0124577D01*
X0102160Y0124577D02*
X0103990Y0124577D01*
X0096240Y0124577D02*
X0017826Y0124577D01*
X0017427Y0122178D02*
X0015035Y0122178D01*
X0014543Y0119780D02*
X0012926Y0119780D01*
X0013018Y0117381D02*
X0011722Y0117381D01*
X0012231Y0114983D02*
X0011125Y0114983D01*
X0011125Y0112584D02*
X0011992Y0112584D01*
X0012255Y0110186D02*
X0011125Y0110186D01*
X0011125Y0107787D02*
X0013069Y0107787D01*
X0014632Y0105389D02*
X0011125Y0105389D01*
X0011125Y0102990D02*
X0017581Y0102990D01*
X0011125Y0100592D02*
X0090106Y0100592D01*
X0092505Y0102990D02*
X0028615Y0102990D01*
X0031563Y0105389D02*
X0094903Y0105389D01*
X0097302Y0107787D02*
X0033126Y0107787D01*
X0033964Y0114983D02*
X0095337Y0114983D01*
X0093673Y0117381D02*
X0033177Y0117381D01*
X0031652Y0119780D02*
X0093300Y0119780D01*
X0093962Y0122178D02*
X0028768Y0122178D01*
X0020622Y0126975D02*
X0118451Y0126975D01*
X0120222Y0129374D02*
X0023728Y0129374D01*
X0026889Y0131772D02*
X0144533Y0131772D01*
X0144533Y0134171D02*
X0030051Y0134171D01*
X0033212Y0136569D02*
X0145034Y0136569D01*
X0145933Y0138968D02*
X0036808Y0138968D01*
X0040559Y0141366D02*
X0141256Y0141366D01*
X0140181Y0142441D02*
X0140181Y0142441D01*
X0139633Y0143765D02*
X0044310Y0143765D01*
X0048115Y0146163D02*
X0139100Y0146163D01*
X0139100Y0148562D02*
X0052624Y0148562D01*
X0057133Y0150960D02*
X0139100Y0150960D01*
X0139100Y0153359D02*
X0061641Y0153359D01*
X0067051Y0155757D02*
X0139100Y0155757D01*
X0139100Y0158156D02*
X0072588Y0158156D01*
X0078382Y0160554D02*
X0139100Y0160554D01*
X0139766Y0162953D02*
X0085413Y0162953D01*
X0092444Y0165351D02*
X0141230Y0165351D01*
X0141685Y0165978D02*
X0141685Y0165978D01*
X0144256Y0167750D02*
X0101832Y0167750D01*
X0112678Y0170148D02*
X0169500Y0170148D01*
X0169500Y0172547D02*
X0128034Y0172547D01*
X0134219Y0173169D02*
X0134219Y0173169D01*
X0137289Y0174435D02*
X0137289Y0174435D01*
X0137889Y0174945D02*
X0168732Y0174945D01*
X0168732Y0177344D02*
X0140283Y0177344D01*
X0139818Y0176587D02*
X0139818Y0176587D01*
X0139818Y0176587D01*
X0141637Y0179742D02*
X0145155Y0179742D01*
X0153009Y0179742D02*
X0168732Y0179742D01*
X0168732Y0180241D02*
X0168732Y0177392D01*
X0171523Y0177392D01*
X0171523Y0177392D01*
X0171523Y0182151D01*
X0170643Y0182151D01*
X0170083Y0182001D01*
X0169581Y0181712D01*
X0169172Y0181302D01*
X0168882Y0180800D01*
X0168732Y0180241D01*
X0170604Y0182141D02*
X0156741Y0182141D01*
X0168968Y0184539D02*
X0233132Y0184539D01*
X0232883Y0186938D02*
X0169217Y0186938D01*
X0169217Y0189336D02*
X0232883Y0189336D01*
X0232883Y0191735D02*
X0169217Y0191735D01*
X0169217Y0194133D02*
X0232883Y0194133D01*
X0233421Y0196532D02*
X0168680Y0196532D01*
X0171523Y0182141D02*
X0171523Y0182141D01*
X0172441Y0182141D02*
X0174541Y0182141D01*
X0175460Y0182141D02*
X0175460Y0182141D01*
X0171523Y0179742D02*
X0171523Y0179742D01*
X0228600Y0171263D02*
X0228600Y0169363D01*
X0228621Y0169269D01*
X0228646Y0169176D01*
X0228675Y0169084D01*
X0228707Y0168994D01*
X0228743Y0168904D01*
X0228783Y0168816D01*
X0228825Y0168730D01*
X0228872Y0168646D01*
X0228921Y0168563D01*
X0228974Y0168482D01*
X0229029Y0168404D01*
X0229088Y0168328D01*
X0229150Y0168254D01*
X0229215Y0168182D01*
X0229282Y0168114D01*
X0229352Y0168047D01*
X0229424Y0167984D01*
X0229499Y0167924D01*
X0229577Y0167866D01*
X0229656Y0167812D01*
X0229738Y0167761D01*
X0229821Y0167713D01*
X0229907Y0167668D01*
X0229994Y0167627D01*
X0230082Y0167589D01*
X0230172Y0167555D01*
X0230263Y0167524D01*
X0230356Y0167497D01*
X0230449Y0167474D01*
X0230543Y0167454D01*
X0230638Y0167438D01*
X0230734Y0167425D01*
X0230830Y0167417D01*
X0230926Y0167412D01*
X0231022Y0167411D01*
X0231118Y0167414D01*
X0231214Y0167420D01*
X0231310Y0167431D01*
X0231405Y0167445D01*
X0231500Y0167463D01*
X0254200Y0167463D01*
X0260945Y0170148D02*
X0274489Y0170148D01*
X0274063Y0167750D02*
X0263491Y0167750D01*
X0262648Y0168911D02*
X0262648Y0168911D01*
X0262648Y0168911D01*
X0265858Y0165351D02*
X0268522Y0165351D01*
X0271200Y0165351D02*
X0271200Y0165351D01*
X0271200Y0162953D02*
X0271200Y0162953D01*
X0271200Y0160554D02*
X0271200Y0160554D01*
X0271200Y0160463D02*
X0271200Y0155113D01*
X0272663Y0155113D01*
X0272663Y0151763D01*
X0268745Y0151763D01*
X0266814Y0152563D01*
X0264586Y0152563D01*
X0262528Y0151710D01*
X0261129Y0150311D01*
X0259800Y0150862D01*
X0259800Y0153737D01*
X0259857Y0153713D01*
X0262543Y0153713D01*
X0265024Y0154741D01*
X0266922Y0156639D01*
X0267079Y0157018D01*
X0268984Y0155113D01*
X0271200Y0155113D01*
X0271200Y0160463D01*
X0271200Y0160463D01*
X0271200Y0158156D02*
X0271200Y0158156D01*
X0271200Y0155757D02*
X0271200Y0155757D01*
X0272663Y0153359D02*
X0259800Y0153359D01*
X0259800Y0150960D02*
X0261778Y0150960D01*
X0265700Y0146963D02*
X0278200Y0146963D01*
X0280200Y0149963D01*
X0280200Y0154057D01*
X0287737Y0153359D02*
X0340459Y0153359D01*
X0344968Y0150960D02*
X0287737Y0150960D01*
X0286685Y0148562D02*
X0349477Y0148562D01*
X0353986Y0146163D02*
X0283436Y0146163D01*
X0281837Y0143765D02*
X0296668Y0143765D01*
X0297461Y0144558D02*
X0295605Y0142702D01*
X0294600Y0140276D01*
X0294600Y0137650D01*
X0295605Y0135224D01*
X0297461Y0133368D01*
X0299887Y0132363D01*
X0308513Y0132363D01*
X0310939Y0133368D01*
X0312795Y0135224D01*
X0313800Y0137650D01*
X0313800Y0140276D01*
X0312795Y0142702D01*
X0310939Y0144558D01*
X0308513Y0145563D01*
X0299887Y0145563D01*
X0297461Y0144558D01*
X0295052Y0141366D02*
X0267558Y0141366D01*
X0266006Y0138968D02*
X0294600Y0138968D01*
X0295048Y0136569D02*
X0264454Y0136569D01*
X0262079Y0134171D02*
X0296658Y0134171D01*
X0295513Y0128563D02*
X0292887Y0128563D01*
X0290461Y0127558D01*
X0288605Y0125702D01*
X0287600Y0123276D01*
X0287600Y0114650D01*
X0288605Y0112224D01*
X0290461Y0110368D01*
X0292887Y0109363D01*
X0295513Y0109363D01*
X0297939Y0110368D01*
X0299795Y0112224D01*
X0300800Y0114650D01*
X0300800Y0123276D01*
X0299795Y0125702D01*
X0297939Y0127558D01*
X0295513Y0128563D01*
X0298522Y0126975D02*
X0312798Y0126975D01*
X0312982Y0127035D02*
X0312204Y0126782D01*
X0311475Y0126410D01*
X0310812Y0125929D01*
X0310234Y0125351D01*
X0309753Y0124688D01*
X0309381Y0123959D01*
X0309128Y0123181D01*
X0309000Y0122372D01*
X0309000Y0118963D01*
X0314200Y0118963D01*
X0314200Y0118963D01*
X0314200Y0127163D01*
X0314609Y0127163D01*
X0315418Y0127035D01*
X0316196Y0126782D01*
X0316925Y0126410D01*
X0317588Y0125929D01*
X0318166Y0125351D01*
X0318647Y0124688D01*
X0319019Y0123959D01*
X0319272Y0123181D01*
X0319400Y0122372D01*
X0319400Y0118963D01*
X0314200Y0118963D01*
X0314200Y0118963D01*
X0314200Y0127163D01*
X0313791Y0127163D01*
X0312982Y0127035D01*
X0314200Y0126975D02*
X0314200Y0126975D01*
X0315602Y0126975D02*
X0381479Y0126975D01*
X0380465Y0123734D02*
X0377541Y0123734D01*
X0374717Y0122977D01*
X0372184Y0121515D01*
X0370117Y0119447D01*
X0368654Y0116915D01*
X0367898Y0114090D01*
X0367898Y0111166D01*
X0368654Y0108342D01*
X0370117Y0105809D01*
X0372184Y0103742D01*
X0374717Y0102280D01*
X0377541Y0101523D01*
X0380465Y0101523D01*
X0383290Y0102280D01*
X0385822Y0103742D01*
X0387890Y0105809D01*
X0389352Y0108342D01*
X0390109Y0111166D01*
X0390109Y0114090D01*
X0389352Y0116915D01*
X0387890Y0119447D01*
X0385822Y0121515D01*
X0383290Y0122977D01*
X0380465Y0123734D01*
X0384275Y0124577D02*
X0318704Y0124577D01*
X0319400Y0122178D02*
X0373333Y0122178D01*
X0370449Y0119780D02*
X0319400Y0119780D01*
X0319400Y0118963D02*
X0314200Y0118963D01*
X0314200Y0118963D01*
X0314200Y0110763D01*
X0314609Y0110763D01*
X0315418Y0110891D01*
X0316196Y0111144D01*
X0316925Y0111516D01*
X0317588Y0111997D01*
X0318166Y0112575D01*
X0318647Y0113238D01*
X0319019Y0113967D01*
X0319272Y0114745D01*
X0319400Y0115554D01*
X0319400Y0118963D01*
X0319400Y0117381D02*
X0368924Y0117381D01*
X0368137Y0114983D02*
X0319310Y0114983D01*
X0314200Y0114983D02*
X0314200Y0114983D01*
X0314200Y0117381D02*
X0314200Y0117381D01*
X0314200Y0118963D02*
X0314200Y0118963D01*
X0314200Y0110763D01*
X0313791Y0110763D01*
X0312982Y0110891D01*
X0312204Y0111144D01*
X0311475Y0111516D01*
X0310812Y0111997D01*
X0310234Y0112575D01*
X0309753Y0113238D01*
X0309381Y0113967D01*
X0309128Y0114745D01*
X0309000Y0115554D01*
X0309000Y0118963D01*
X0314200Y0118963D01*
X0314200Y0119780D02*
X0314200Y0119780D01*
X0314200Y0122178D02*
X0314200Y0122178D01*
X0314200Y0124577D02*
X0314200Y0124577D01*
X0309696Y0124577D02*
X0300261Y0124577D01*
X0300800Y0122178D02*
X0309000Y0122178D01*
X0309000Y0119780D02*
X0300800Y0119780D01*
X0300800Y0117381D02*
X0309000Y0117381D01*
X0309090Y0114983D02*
X0300800Y0114983D01*
X0299944Y0112584D02*
X0310227Y0112584D01*
X0314200Y0112584D02*
X0314200Y0112584D01*
X0318173Y0112584D02*
X0367898Y0112584D01*
X0368160Y0110186D02*
X0297499Y0110186D01*
X0290901Y0110186D02*
X0225537Y0110186D01*
X0227159Y0110712D02*
X0227159Y0110712D01*
X0229644Y0112519D02*
X0229644Y0112519D01*
X0229644Y0112519D01*
X0229692Y0112584D02*
X0288456Y0112584D01*
X0287600Y0114983D02*
X0231435Y0114983D01*
X0235200Y0116463D02*
X0235200Y0100463D01*
X0229290Y0100592D02*
X0244889Y0100592D01*
X0247287Y0102990D02*
X0229290Y0102990D01*
X0229290Y0105389D02*
X0248729Y0105389D01*
X0250104Y0107787D02*
X0227866Y0107787D01*
X0238929Y0117164D02*
X0238929Y0117164D01*
X0239228Y0117381D02*
X0287600Y0117381D01*
X0287600Y0119780D02*
X0241943Y0119780D01*
X0241286Y0118877D02*
X0241286Y0118877D01*
X0241286Y0118877D01*
X0243306Y0122178D02*
X0287600Y0122178D01*
X0288139Y0124577D02*
X0256153Y0124577D01*
X0257367Y0126975D02*
X0289878Y0126975D01*
X0311742Y0134171D02*
X0372050Y0134171D01*
X0375211Y0131772D02*
X0257367Y0131772D01*
X0257367Y0129374D02*
X0378373Y0129374D01*
X0384673Y0122178D02*
X0387065Y0122178D01*
X0387557Y0119780D02*
X0389174Y0119780D01*
X0389083Y0117381D02*
X0390378Y0117381D01*
X0389870Y0114983D02*
X0390976Y0114983D01*
X0390976Y0112584D02*
X0390109Y0112584D01*
X0389846Y0110186D02*
X0390976Y0110186D01*
X0390976Y0107787D02*
X0389032Y0107787D01*
X0387469Y0105389D02*
X0390976Y0105389D01*
X0390976Y0102990D02*
X0384520Y0102990D01*
X0390976Y0100592D02*
X0258748Y0100592D01*
X0259545Y0098193D02*
X0390976Y0098193D01*
X0390976Y0095795D02*
X0291342Y0095795D01*
X0291069Y0096067D02*
X0288349Y0097194D01*
X0285405Y0097194D01*
X0282685Y0096067D01*
X0280604Y0093985D01*
X0279477Y0091266D01*
X0279477Y0088322D01*
X0280604Y0085602D01*
X0282685Y0083520D01*
X0285405Y0082394D01*
X0288349Y0082394D01*
X0291069Y0083520D01*
X0293151Y0085602D01*
X0294277Y0088322D01*
X0294277Y0091266D01*
X0293151Y0093985D01*
X0291069Y0096067D01*
X0293395Y0093396D02*
X0390976Y0093396D01*
X0390976Y0090997D02*
X0294277Y0090997D01*
X0294277Y0088599D02*
X0390976Y0088599D01*
X0390976Y0086200D02*
X0293398Y0086200D01*
X0291351Y0083802D02*
X0390976Y0083802D01*
X0390976Y0081403D02*
X0281758Y0081403D01*
X0281758Y0079005D02*
X0390976Y0079005D01*
X0390976Y0076606D02*
X0281758Y0076606D01*
X0281338Y0074208D02*
X0390976Y0074208D01*
X0390976Y0071809D02*
X0281726Y0071809D01*
X0276882Y0071809D02*
X0276329Y0071809D01*
X0276882Y0073326D02*
X0276882Y0079187D01*
X0276329Y0079187D01*
X0276329Y0067739D01*
X0276882Y0067739D01*
X0276882Y0073326D01*
X0276882Y0074208D02*
X0276329Y0074208D01*
X0276329Y0076606D02*
X0276882Y0076606D01*
X0276882Y0079005D02*
X0276329Y0079005D01*
X0276329Y0079739D02*
X0271453Y0079739D01*
X0271453Y0083690D01*
X0271603Y0084249D01*
X0271892Y0084751D01*
X0272302Y0085160D01*
X0272804Y0085450D01*
X0273363Y0085600D01*
X0276329Y0085600D01*
X0276329Y0079739D01*
X0276329Y0081403D02*
X0276882Y0081403D01*
X0276882Y0083802D02*
X0276329Y0083802D01*
X0280356Y0086200D02*
X0270038Y0086200D01*
X0271347Y0083802D02*
X0271483Y0083802D01*
X0271453Y0081403D02*
X0271347Y0081403D01*
X0271347Y0079005D02*
X0271453Y0079005D01*
X0271453Y0076606D02*
X0271347Y0076606D01*
X0271098Y0074208D02*
X0271873Y0074208D01*
X0271485Y0071809D02*
X0271347Y0071809D01*
X0271347Y0069411D02*
X0271453Y0069411D01*
X0271453Y0067012D02*
X0271347Y0067012D01*
X0271347Y0064614D02*
X0271453Y0064614D01*
X0271101Y0062215D02*
X0271869Y0062215D01*
X0271453Y0059817D02*
X0271347Y0059817D01*
X0271347Y0057418D02*
X0271453Y0057418D01*
X0271400Y0055020D02*
X0271453Y0055020D01*
X0271453Y0052621D02*
X0271347Y0052621D01*
X0276329Y0056239D02*
X0276329Y0067187D01*
X0276882Y0067187D01*
X0276882Y0061326D01*
X0276882Y0056239D01*
X0276329Y0056239D01*
X0276329Y0057418D02*
X0276882Y0057418D01*
X0276882Y0059817D02*
X0276329Y0059817D01*
X0276329Y0062215D02*
X0276882Y0062215D01*
X0276882Y0064614D02*
X0276329Y0064614D01*
X0276329Y0067012D02*
X0276882Y0067012D01*
X0276882Y0069411D02*
X0276329Y0069411D01*
X0292135Y0069411D02*
X0390976Y0069411D01*
X0390976Y0067012D02*
X0293723Y0067012D01*
X0294277Y0064614D02*
X0390976Y0064614D01*
X0390976Y0062215D02*
X0294063Y0062215D01*
X0292956Y0059817D02*
X0390976Y0059817D01*
X0390976Y0057418D02*
X0289834Y0057418D01*
X0283920Y0057418D02*
X0281758Y0057418D01*
X0297404Y0055020D02*
X0390976Y0055020D01*
X0390976Y0052621D02*
X0381385Y0052621D01*
X0376622Y0052621D02*
X0300264Y0052621D01*
X0304953Y0050223D02*
X0371758Y0050223D01*
X0369680Y0047824D02*
X0349405Y0047824D01*
X0348916Y0048313D02*
X0346700Y0048313D01*
X0346700Y0042963D01*
X0346700Y0042963D01*
X0352050Y0042963D01*
X0352050Y0045179D01*
X0348916Y0048313D01*
X0346700Y0048313D02*
X0344484Y0048313D01*
X0342579Y0046408D01*
X0342422Y0046787D01*
X0340524Y0048685D01*
X0338043Y0049713D01*
X0335357Y0049713D01*
X0332876Y0048685D01*
X0330978Y0046787D01*
X0329950Y0044306D01*
X0329950Y0041620D01*
X0330978Y0039139D01*
X0332876Y0037241D01*
X0335357Y0036213D01*
X0338043Y0036213D01*
X0340524Y0037241D01*
X0342422Y0039139D01*
X0342579Y0039518D01*
X0344484Y0037613D01*
X0346700Y0037613D01*
X0348916Y0037613D01*
X0352050Y0040747D01*
X0352050Y0042963D01*
X0346700Y0042963D01*
X0346700Y0042963D01*
X0346700Y0048313D01*
X0346700Y0047824D02*
X0346700Y0047824D01*
X0343995Y0047824D02*
X0341385Y0047824D01*
X0346700Y0045426D02*
X0346700Y0045426D01*
X0346700Y0043027D02*
X0346700Y0043027D01*
X0346700Y0042963D02*
X0346700Y0037613D01*
X0346700Y0042963D01*
X0346700Y0042963D01*
X0346700Y0040629D02*
X0346700Y0040629D01*
X0346700Y0038230D02*
X0346700Y0038230D01*
X0349533Y0038230D02*
X0368452Y0038230D01*
X0367898Y0040629D02*
X0351932Y0040629D01*
X0352050Y0043027D02*
X0367898Y0043027D01*
X0368488Y0045426D02*
X0351803Y0045426D01*
X0343867Y0038230D02*
X0341513Y0038230D01*
X0331887Y0038230D02*
X0323013Y0038230D01*
X0324539Y0040629D02*
X0330361Y0040629D01*
X0329950Y0043027D02*
X0324950Y0043027D01*
X0324486Y0045426D02*
X0330414Y0045426D01*
X0332015Y0047824D02*
X0322885Y0047824D01*
X0313515Y0047824D02*
X0310905Y0047824D01*
X0308200Y0047824D02*
X0308200Y0047824D01*
X0305495Y0047824D02*
X0305448Y0047824D01*
X0308200Y0045426D02*
X0308200Y0045426D01*
X0308200Y0043027D02*
X0308200Y0043027D01*
X0308200Y0042963D02*
X0308200Y0037613D01*
X0308200Y0042963D01*
X0308200Y0042963D01*
X0308200Y0040629D02*
X0308200Y0040629D01*
X0308200Y0038230D02*
X0308200Y0038230D01*
X0311033Y0038230D02*
X0313387Y0038230D01*
X0259060Y0021441D02*
X0390976Y0021441D01*
X0390958Y0019042D02*
X0259276Y0019042D01*
X0259389Y0016644D02*
X0390366Y0016644D01*
X0388498Y0014245D02*
X0259389Y0014245D01*
X0225726Y0047824D02*
X0176209Y0047824D01*
X0173909Y0031035D02*
X0173658Y0031035D01*
X0173172Y0028636D02*
X0178587Y0028636D01*
X0124736Y0055020D02*
X0011125Y0055020D01*
X0011125Y0057418D02*
X0112266Y0057418D01*
X0111032Y0057930D02*
X0113752Y0056803D01*
X0116696Y0056803D01*
X0119415Y0057930D01*
X0121497Y0060011D01*
X0122624Y0062731D01*
X0122624Y0065675D01*
X0121497Y0068395D01*
X0119415Y0070477D01*
X0116696Y0071603D01*
X0113752Y0071603D01*
X0111032Y0070477D01*
X0108950Y0068395D01*
X0107824Y0065675D01*
X0107824Y0062731D01*
X0108950Y0060011D01*
X0111032Y0057930D01*
X0109145Y0059817D02*
X0011125Y0059817D01*
X0011125Y0062215D02*
X0108037Y0062215D01*
X0107824Y0064614D02*
X0011125Y0064614D01*
X0011125Y0067012D02*
X0108378Y0067012D01*
X0109966Y0069411D02*
X0011125Y0069411D01*
X0011125Y0071809D02*
X0130500Y0071809D01*
X0130500Y0069411D02*
X0120481Y0069411D01*
X0122070Y0067012D02*
X0130500Y0067012D01*
X0130500Y0064614D02*
X0122624Y0064614D01*
X0122410Y0062215D02*
X0130500Y0062215D01*
X0125634Y0059817D02*
X0121302Y0059817D01*
X0118181Y0057418D02*
X0124600Y0057418D01*
X0123783Y0074208D02*
X0011125Y0074208D01*
X0011125Y0076606D02*
X0123642Y0076606D01*
X0123642Y0079239D02*
X0128518Y0079239D01*
X0128518Y0085100D01*
X0125552Y0085100D01*
X0124993Y0084950D01*
X0124491Y0084660D01*
X0124081Y0084251D01*
X0123792Y0083749D01*
X0123642Y0083190D01*
X0123642Y0079239D01*
X0123642Y0081403D02*
X0011125Y0081403D01*
X0011125Y0079005D02*
X0128518Y0079005D01*
X0128518Y0081403D02*
X0129071Y0081403D01*
X0129071Y0083802D02*
X0128518Y0083802D01*
X0129783Y0086200D02*
X0121745Y0086200D01*
X0121497Y0085602D02*
X0122624Y0088322D01*
X0122624Y0091266D01*
X0121497Y0093985D01*
X0119415Y0096067D01*
X0116696Y0097194D01*
X0113752Y0097194D01*
X0111032Y0096067D01*
X0108950Y0093985D01*
X0107824Y0091266D01*
X0107824Y0088322D01*
X0108950Y0085602D01*
X0111032Y0083520D01*
X0113752Y0082394D01*
X0116696Y0082394D01*
X0119415Y0083520D01*
X0121497Y0085602D01*
X0119697Y0083802D02*
X0123822Y0083802D01*
X0122624Y0088599D02*
X0129100Y0088599D01*
X0129481Y0090997D02*
X0122624Y0090997D01*
X0121741Y0093396D02*
X0131213Y0093396D01*
X0132818Y0098193D02*
X0140600Y0098193D01*
X0140830Y0095795D02*
X0119688Y0095795D01*
X0121622Y0098193D02*
X0121778Y0098193D01*
X0127298Y0104463D02*
X0127298Y0109766D01*
X0124200Y0112865D01*
X0131349Y0112584D02*
X0142651Y0112584D01*
X0139700Y0110186D02*
X0133366Y0110186D01*
X0146656Y0117381D02*
X0158152Y0117381D01*
X0158000Y0119780D02*
X0149480Y0119780D01*
X0150450Y0122178D02*
X0157732Y0122178D01*
X0152464Y0138463D02*
X0152464Y0138463D01*
X0172936Y0138463D02*
X0179200Y0138463D01*
X0179260Y0138465D01*
X0179321Y0138470D01*
X0179380Y0138479D01*
X0179439Y0138492D01*
X0179498Y0138508D01*
X0179555Y0138528D01*
X0179610Y0138551D01*
X0179665Y0138578D01*
X0179717Y0138607D01*
X0179768Y0138640D01*
X0179817Y0138676D01*
X0179863Y0138714D01*
X0179907Y0138756D01*
X0179949Y0138800D01*
X0179987Y0138846D01*
X0180023Y0138895D01*
X0180056Y0138946D01*
X0180085Y0138998D01*
X0180112Y0139053D01*
X0180135Y0139108D01*
X0180155Y0139165D01*
X0180171Y0139224D01*
X0180184Y0139283D01*
X0180193Y0139342D01*
X0180198Y0139403D01*
X0180200Y0139463D01*
X0185800Y0138463D02*
X0190964Y0138463D01*
X0185800Y0138463D01*
X0185800Y0138463D01*
X0190964Y0138463D02*
X0190964Y0138463D01*
X0211436Y0138463D02*
X0217200Y0138463D01*
X0217237Y0138429D01*
X0217276Y0138397D01*
X0217318Y0138368D01*
X0217361Y0138342D01*
X0217406Y0138320D01*
X0217453Y0138301D01*
X0217501Y0138285D01*
X0217550Y0138272D01*
X0217599Y0138263D01*
X0217650Y0138258D01*
X0217700Y0138256D01*
X0217750Y0138258D01*
X0217801Y0138263D01*
X0217850Y0138272D01*
X0217899Y0138285D01*
X0217947Y0138301D01*
X0217994Y0138320D01*
X0218039Y0138342D01*
X0218082Y0138368D01*
X0218124Y0138397D01*
X0218163Y0138429D01*
X0218200Y0138463D01*
X0223800Y0138463D02*
X0228964Y0138463D01*
X0223800Y0138463D01*
X0223800Y0138463D01*
X0228964Y0138463D02*
X0228964Y0138463D01*
X0266040Y0155757D02*
X0268340Y0155757D01*
X0279924Y0162953D02*
X0280476Y0162953D01*
X0280476Y0165351D02*
X0279924Y0165351D01*
X0279924Y0167750D02*
X0280476Y0167750D01*
X0280476Y0170148D02*
X0279924Y0170148D01*
X0274067Y0172547D02*
X0235400Y0172547D01*
X0235400Y0174945D02*
X0264212Y0174945D01*
X0264812Y0174435D02*
X0264812Y0174435D01*
X0262283Y0176587D02*
X0262283Y0176587D01*
X0261817Y0177344D02*
X0235174Y0177344D01*
X0235400Y0179742D02*
X0249092Y0179742D01*
X0245360Y0182141D02*
X0234462Y0182141D01*
X0256946Y0179742D02*
X0260464Y0179742D01*
X0260543Y0179415D02*
X0260543Y0179415D01*
X0267882Y0173169D02*
X0267882Y0173169D01*
X0273878Y0165351D02*
X0274063Y0165351D01*
X0284988Y0160554D02*
X0323719Y0160554D01*
X0329513Y0158156D02*
X0287559Y0158156D01*
X0287737Y0155757D02*
X0335049Y0155757D01*
X0316688Y0162953D02*
X0286337Y0162953D01*
X0286337Y0165351D02*
X0309656Y0165351D01*
X0300269Y0167750D02*
X0286337Y0167750D01*
X0285911Y0170148D02*
X0289423Y0170148D01*
X0261200Y0160463D02*
X0261198Y0160632D01*
X0261192Y0160801D01*
X0261182Y0160970D01*
X0261167Y0161139D01*
X0261149Y0161307D01*
X0261127Y0161474D01*
X0261100Y0161641D01*
X0261070Y0161808D01*
X0261035Y0161973D01*
X0260997Y0162138D01*
X0260954Y0162302D01*
X0260908Y0162465D01*
X0260857Y0162626D01*
X0260803Y0162786D01*
X0260745Y0162945D01*
X0260683Y0163103D01*
X0260618Y0163259D01*
X0260548Y0163413D01*
X0260475Y0163565D01*
X0260398Y0163716D01*
X0260318Y0163865D01*
X0260234Y0164012D01*
X0260146Y0164156D01*
X0260055Y0164299D01*
X0259961Y0164439D01*
X0259863Y0164577D01*
X0259762Y0164713D01*
X0259658Y0164846D01*
X0259550Y0164977D01*
X0259440Y0165105D01*
X0259326Y0165230D01*
X0259209Y0165353D01*
X0259090Y0165472D01*
X0258967Y0165589D01*
X0258842Y0165703D01*
X0258714Y0165813D01*
X0258583Y0165921D01*
X0258450Y0166025D01*
X0258314Y0166126D01*
X0258176Y0166224D01*
X0258036Y0166318D01*
X0257893Y0166409D01*
X0257749Y0166497D01*
X0257602Y0166581D01*
X0257453Y0166661D01*
X0257302Y0166738D01*
X0257150Y0166811D01*
X0256996Y0166881D01*
X0256840Y0166946D01*
X0256682Y0167008D01*
X0256523Y0167066D01*
X0256363Y0167120D01*
X0256202Y0167171D01*
X0256039Y0167217D01*
X0255875Y0167260D01*
X0255710Y0167298D01*
X0255545Y0167333D01*
X0255378Y0167363D01*
X0255211Y0167390D01*
X0255044Y0167412D01*
X0254876Y0167430D01*
X0254707Y0167445D01*
X0254538Y0167455D01*
X0254369Y0167461D01*
X0254200Y0167463D01*
X0311732Y0143765D02*
X0357791Y0143765D01*
X0361542Y0141366D02*
X0313348Y0141366D01*
X0313800Y0138968D02*
X0365293Y0138968D01*
X0368888Y0136569D02*
X0313352Y0136569D01*
X0258295Y0107787D02*
X0368975Y0107787D01*
X0370537Y0105389D02*
X0259671Y0105389D01*
X0259800Y0102990D02*
X0373486Y0102990D01*
X0282413Y0095795D02*
X0259800Y0095795D01*
X0258991Y0093396D02*
X0280360Y0093396D01*
X0279477Y0090997D02*
X0255639Y0090997D01*
X0251847Y0088599D02*
X0279477Y0088599D01*
X0281728Y0083802D02*
X0282404Y0083802D01*
X0240964Y0086200D02*
X0237626Y0086200D01*
X0237626Y0083802D02*
X0239620Y0083802D01*
X0239620Y0081403D02*
X0237626Y0081403D01*
X0237626Y0079005D02*
X0239620Y0079005D01*
X0225726Y0079005D02*
X0202772Y0079005D01*
X0199660Y0081403D02*
X0225726Y0081403D01*
X0225726Y0076606D02*
X0205885Y0076606D01*
X0208997Y0074208D02*
X0225726Y0074208D01*
X0225726Y0071809D02*
X0212110Y0071809D01*
X0215222Y0069411D02*
X0225726Y0069411D01*
X0225726Y0067012D02*
X0218334Y0067012D01*
X0143803Y0090997D02*
X0139919Y0090997D01*
X0140300Y0088599D02*
X0141838Y0088599D01*
X0142347Y0093396D02*
X0138187Y0093396D01*
X0110759Y0095795D02*
X0097754Y0095795D01*
X0100153Y0098193D02*
X0110582Y0098193D01*
X0108706Y0093396D02*
X0095356Y0093396D01*
X0092957Y0090997D02*
X0107824Y0090997D01*
X0107824Y0088599D02*
X0091768Y0088599D01*
X0091497Y0086200D02*
X0108702Y0086200D01*
X0110750Y0083802D02*
X0089914Y0083802D01*
X0082486Y0083802D02*
X0011125Y0083802D01*
X0011125Y0086200D02*
X0080903Y0086200D01*
X0080631Y0088599D02*
X0011125Y0088599D01*
X0011125Y0090997D02*
X0081430Y0090997D01*
X0082910Y0093396D02*
X0011125Y0093396D01*
X0011125Y0095795D02*
X0085309Y0095795D01*
X0087707Y0098193D02*
X0011125Y0098193D01*
X0103063Y0114983D02*
X0103357Y0114983D01*
X0128518Y0076606D02*
X0129071Y0076606D01*
X0129071Y0074208D02*
X0128518Y0074208D01*
X0093367Y0038230D02*
X0091013Y0038230D01*
X0386380Y0033433D02*
X0390976Y0033433D01*
X0390976Y0035832D02*
X0388403Y0035832D01*
X0389554Y0038230D02*
X0390976Y0038230D01*
X0390976Y0040629D02*
X0390109Y0040629D01*
X0390109Y0043027D02*
X0390976Y0043027D01*
X0390976Y0045426D02*
X0389519Y0045426D01*
X0388327Y0047824D02*
X0390976Y0047824D01*
X0390976Y0050223D02*
X0386248Y0050223D01*
D29*
X0257700Y0020463D02*
X0246700Y0020463D01*
X0252200Y0024471D02*
X0252240Y0026101D01*
X0243700Y0035463D02*
X0250200Y0042463D01*
X0243700Y0035463D02*
X0222700Y0035463D01*
X0221440Y0036723D01*
X0221440Y0041105D01*
X0194200Y0034963D02*
X0193400Y0034963D01*
X0190200Y0038163D01*
X0190200Y0040849D01*
X0190198Y0040880D01*
X0190193Y0040910D01*
X0190183Y0040940D01*
X0190171Y0040968D01*
X0190155Y0040994D01*
X0190136Y0041019D01*
X0190114Y0041041D01*
X0190089Y0041060D01*
X0190063Y0041076D01*
X0190035Y0041088D01*
X0190005Y0041098D01*
X0189975Y0041103D01*
X0189944Y0041105D01*
X0170231Y0054463D02*
X0162700Y0054463D01*
X0154700Y0045963D01*
X0145700Y0045963D01*
X0143200Y0047963D01*
X0149200Y0052463D02*
X0143200Y0058463D01*
X0141700Y0058463D01*
X0149200Y0052463D02*
X0156200Y0052463D01*
X0157700Y0053963D01*
X0157700Y0058963D01*
X0160200Y0061463D01*
X0160200Y0068963D01*
X0161200Y0069963D01*
X0169983Y0069963D01*
X0170259Y0070239D01*
X0170259Y0073388D02*
X0170184Y0073463D01*
X0159700Y0073463D01*
X0157200Y0070963D01*
X0157200Y0062963D01*
X0152700Y0058463D01*
X0151700Y0058463D01*
X0151700Y0068963D02*
X0151700Y0073463D01*
X0154775Y0076538D01*
X0170259Y0076538D01*
X0170259Y0079687D02*
X0169983Y0079963D01*
X0152700Y0079963D01*
X0141700Y0068963D01*
X0177950Y0079713D02*
X0180700Y0076963D01*
X0170136Y0092163D02*
X0151000Y0092163D01*
X0146200Y0097463D01*
X0146700Y0103963D02*
X0155300Y0095363D01*
X0170187Y0095363D01*
X0170203Y0095365D01*
X0170218Y0095370D01*
X0170232Y0095379D01*
X0170243Y0095390D01*
X0170252Y0095404D01*
X0170257Y0095419D01*
X0170259Y0095435D01*
X0170259Y0092286D02*
X0170257Y0092265D01*
X0170252Y0092244D01*
X0170243Y0092225D01*
X0170230Y0092207D01*
X0170215Y0092192D01*
X0170198Y0092179D01*
X0170178Y0092170D01*
X0170157Y0092165D01*
X0170136Y0092163D01*
X0183645Y0102522D02*
X0183645Y0110408D01*
X0183700Y0110463D01*
X0183700Y0112463D01*
X0183698Y0112523D01*
X0183693Y0112584D01*
X0183684Y0112643D01*
X0183671Y0112702D01*
X0183655Y0112761D01*
X0183635Y0112818D01*
X0183612Y0112873D01*
X0183585Y0112928D01*
X0183556Y0112980D01*
X0183523Y0113031D01*
X0183487Y0113080D01*
X0183449Y0113126D01*
X0183407Y0113170D01*
X0183363Y0113212D01*
X0183317Y0113250D01*
X0183268Y0113286D01*
X0183217Y0113319D01*
X0183165Y0113348D01*
X0183110Y0113375D01*
X0183055Y0113398D01*
X0182998Y0113418D01*
X0182939Y0113434D01*
X0182880Y0113447D01*
X0182821Y0113456D01*
X0182760Y0113461D01*
X0182700Y0113463D01*
X0168200Y0113463D01*
X0168700Y0116963D02*
X0185700Y0116963D01*
X0185760Y0116961D01*
X0185821Y0116956D01*
X0185880Y0116947D01*
X0185939Y0116934D01*
X0185998Y0116918D01*
X0186055Y0116898D01*
X0186110Y0116875D01*
X0186165Y0116848D01*
X0186217Y0116819D01*
X0186268Y0116786D01*
X0186317Y0116750D01*
X0186363Y0116712D01*
X0186407Y0116670D01*
X0186449Y0116626D01*
X0186487Y0116580D01*
X0186523Y0116531D01*
X0186556Y0116480D01*
X0186585Y0116428D01*
X0186612Y0116373D01*
X0186635Y0116318D01*
X0186655Y0116261D01*
X0186671Y0116202D01*
X0186684Y0116143D01*
X0186693Y0116084D01*
X0186698Y0116023D01*
X0186700Y0115963D01*
X0186700Y0102617D01*
X0186702Y0102599D01*
X0186707Y0102581D01*
X0186716Y0102565D01*
X0186728Y0102551D01*
X0186742Y0102539D01*
X0186758Y0102530D01*
X0186776Y0102525D01*
X0186794Y0102523D01*
X0189900Y0102566D02*
X0189900Y0118063D01*
X0189898Y0118163D01*
X0189892Y0118262D01*
X0189883Y0118361D01*
X0189870Y0118460D01*
X0189852Y0118558D01*
X0189832Y0118655D01*
X0189807Y0118752D01*
X0189779Y0118847D01*
X0189747Y0118942D01*
X0189712Y0119035D01*
X0189673Y0119127D01*
X0189630Y0119217D01*
X0189584Y0119305D01*
X0189535Y0119392D01*
X0189482Y0119476D01*
X0189427Y0119559D01*
X0189368Y0119639D01*
X0189306Y0119717D01*
X0189241Y0119793D01*
X0189173Y0119866D01*
X0189103Y0119936D01*
X0189030Y0120004D01*
X0188954Y0120069D01*
X0188876Y0120131D01*
X0188796Y0120190D01*
X0188713Y0120245D01*
X0188629Y0120298D01*
X0188542Y0120347D01*
X0188454Y0120393D01*
X0188364Y0120436D01*
X0188272Y0120475D01*
X0188179Y0120510D01*
X0188084Y0120542D01*
X0187989Y0120570D01*
X0187892Y0120595D01*
X0187795Y0120615D01*
X0187697Y0120633D01*
X0187598Y0120646D01*
X0187499Y0120655D01*
X0187400Y0120661D01*
X0187300Y0120663D01*
X0181800Y0120663D01*
X0181682Y0120665D01*
X0181565Y0120671D01*
X0181447Y0120680D01*
X0181330Y0120694D01*
X0181214Y0120711D01*
X0181098Y0120732D01*
X0180983Y0120757D01*
X0180868Y0120786D01*
X0180755Y0120818D01*
X0180643Y0120854D01*
X0180532Y0120894D01*
X0180422Y0120937D01*
X0180314Y0120984D01*
X0180208Y0121034D01*
X0180103Y0121088D01*
X0180000Y0121145D01*
X0179899Y0121206D01*
X0179800Y0121270D01*
X0179703Y0121337D01*
X0179608Y0121407D01*
X0179516Y0121480D01*
X0179426Y0121556D01*
X0179339Y0121635D01*
X0179254Y0121717D01*
X0179172Y0121802D01*
X0179093Y0121889D01*
X0179017Y0121979D01*
X0178944Y0122071D01*
X0178874Y0122166D01*
X0178807Y0122263D01*
X0178743Y0122362D01*
X0178682Y0122463D01*
X0178625Y0122566D01*
X0178571Y0122671D01*
X0178521Y0122777D01*
X0178474Y0122885D01*
X0178431Y0122995D01*
X0178391Y0123106D01*
X0178355Y0123218D01*
X0178323Y0123331D01*
X0178294Y0123446D01*
X0178269Y0123561D01*
X0178248Y0123677D01*
X0178231Y0123793D01*
X0178217Y0123910D01*
X0178208Y0124028D01*
X0178202Y0124145D01*
X0178200Y0124263D01*
X0178200Y0125463D01*
X0178198Y0125570D01*
X0178192Y0125677D01*
X0178183Y0125784D01*
X0178169Y0125890D01*
X0178152Y0125996D01*
X0178131Y0126101D01*
X0178107Y0126205D01*
X0178078Y0126308D01*
X0178046Y0126410D01*
X0178011Y0126511D01*
X0177972Y0126611D01*
X0177929Y0126709D01*
X0177883Y0126806D01*
X0177833Y0126901D01*
X0177780Y0126994D01*
X0177724Y0127085D01*
X0177664Y0127174D01*
X0177602Y0127261D01*
X0177536Y0127345D01*
X0177467Y0127428D01*
X0177396Y0127507D01*
X0177321Y0127584D01*
X0177244Y0127659D01*
X0177165Y0127730D01*
X0177082Y0127799D01*
X0176998Y0127865D01*
X0176911Y0127927D01*
X0176822Y0127987D01*
X0176731Y0128043D01*
X0176638Y0128096D01*
X0176543Y0128146D01*
X0176446Y0128192D01*
X0176348Y0128235D01*
X0176248Y0128274D01*
X0176147Y0128309D01*
X0176045Y0128341D01*
X0175942Y0128370D01*
X0175838Y0128394D01*
X0175733Y0128415D01*
X0175627Y0128432D01*
X0175521Y0128446D01*
X0175414Y0128455D01*
X0175307Y0128461D01*
X0175200Y0128463D01*
X0179200Y0131463D02*
X0179210Y0131544D01*
X0179216Y0131626D01*
X0179218Y0131707D01*
X0179216Y0131789D01*
X0179211Y0131870D01*
X0179202Y0131951D01*
X0179189Y0132032D01*
X0179172Y0132112D01*
X0179152Y0132191D01*
X0179128Y0132269D01*
X0179101Y0132346D01*
X0179070Y0132422D01*
X0179035Y0132496D01*
X0178997Y0132568D01*
X0178956Y0132639D01*
X0178912Y0132707D01*
X0178864Y0132774D01*
X0178814Y0132838D01*
X0178760Y0132900D01*
X0178704Y0132959D01*
X0178645Y0133016D01*
X0178584Y0133069D01*
X0178520Y0133120D01*
X0178454Y0133168D01*
X0178386Y0133213D01*
X0178315Y0133255D01*
X0178243Y0133293D01*
X0178169Y0133328D01*
X0178094Y0133359D01*
X0178017Y0133387D01*
X0177939Y0133412D01*
X0177860Y0133433D01*
X0177781Y0133450D01*
X0177700Y0133463D01*
X0172936Y0133463D01*
X0179200Y0131463D02*
X0179202Y0131380D01*
X0179208Y0131297D01*
X0179217Y0131214D01*
X0179231Y0131132D01*
X0179248Y0131051D01*
X0179269Y0130970D01*
X0179293Y0130891D01*
X0179322Y0130813D01*
X0179353Y0130736D01*
X0179389Y0130661D01*
X0179427Y0130587D01*
X0179470Y0130515D01*
X0179515Y0130446D01*
X0179564Y0130378D01*
X0179615Y0130313D01*
X0179670Y0130250D01*
X0179727Y0130190D01*
X0179787Y0130133D01*
X0179850Y0130078D01*
X0179915Y0130027D01*
X0179983Y0129978D01*
X0180052Y0129933D01*
X0180124Y0129890D01*
X0180198Y0129852D01*
X0180273Y0129816D01*
X0180350Y0129785D01*
X0180428Y0129756D01*
X0180507Y0129732D01*
X0180588Y0129711D01*
X0180669Y0129694D01*
X0180751Y0129680D01*
X0180834Y0129671D01*
X0180917Y0129665D01*
X0181000Y0129663D01*
X0181300Y0129663D01*
X0181392Y0129671D01*
X0181483Y0129676D01*
X0181575Y0129677D01*
X0181667Y0129674D01*
X0181759Y0129667D01*
X0181850Y0129656D01*
X0181940Y0129641D01*
X0182030Y0129623D01*
X0182120Y0129601D01*
X0182208Y0129575D01*
X0182295Y0129545D01*
X0182380Y0129511D01*
X0182464Y0129474D01*
X0182547Y0129434D01*
X0182627Y0129390D01*
X0182706Y0129342D01*
X0182783Y0129292D01*
X0182857Y0129238D01*
X0182929Y0129181D01*
X0182998Y0129121D01*
X0183065Y0129058D01*
X0183130Y0128992D01*
X0183191Y0128924D01*
X0183249Y0128853D01*
X0183305Y0128780D01*
X0183357Y0128704D01*
X0183406Y0128626D01*
X0183451Y0128546D01*
X0183493Y0128465D01*
X0183532Y0128381D01*
X0183567Y0128297D01*
X0183599Y0128210D01*
X0183626Y0128123D01*
X0183650Y0128034D01*
X0183671Y0127944D01*
X0183687Y0127854D01*
X0183700Y0127763D01*
X0183700Y0126463D01*
X0183702Y0126365D01*
X0183708Y0126267D01*
X0183717Y0126169D01*
X0183731Y0126072D01*
X0183748Y0125975D01*
X0183769Y0125879D01*
X0183794Y0125784D01*
X0183822Y0125690D01*
X0183855Y0125598D01*
X0183890Y0125506D01*
X0183930Y0125416D01*
X0183972Y0125328D01*
X0184019Y0125241D01*
X0184068Y0125157D01*
X0184121Y0125074D01*
X0184177Y0124994D01*
X0184237Y0124915D01*
X0184299Y0124839D01*
X0184364Y0124766D01*
X0184432Y0124695D01*
X0184503Y0124627D01*
X0184576Y0124562D01*
X0184652Y0124500D01*
X0184731Y0124440D01*
X0184811Y0124384D01*
X0184894Y0124331D01*
X0184978Y0124282D01*
X0185065Y0124235D01*
X0185153Y0124193D01*
X0185243Y0124153D01*
X0185335Y0124118D01*
X0185427Y0124085D01*
X0185521Y0124057D01*
X0185616Y0124032D01*
X0185712Y0124011D01*
X0185809Y0123994D01*
X0185906Y0123980D01*
X0186004Y0123971D01*
X0186102Y0123965D01*
X0186200Y0123963D01*
X0191200Y0123963D01*
X0190964Y0128463D02*
X0191106Y0128461D01*
X0191247Y0128455D01*
X0191389Y0128446D01*
X0191530Y0128432D01*
X0191671Y0128415D01*
X0191811Y0128394D01*
X0191951Y0128369D01*
X0192090Y0128341D01*
X0192228Y0128308D01*
X0192365Y0128272D01*
X0192501Y0128232D01*
X0192636Y0128189D01*
X0192770Y0128142D01*
X0192902Y0128091D01*
X0193033Y0128037D01*
X0193163Y0127979D01*
X0193290Y0127918D01*
X0193417Y0127853D01*
X0193541Y0127785D01*
X0193663Y0127714D01*
X0193784Y0127639D01*
X0193902Y0127561D01*
X0194019Y0127480D01*
X0194133Y0127395D01*
X0194244Y0127308D01*
X0194354Y0127218D01*
X0194461Y0127124D01*
X0194565Y0127028D01*
X0194666Y0126929D01*
X0194765Y0126828D01*
X0194861Y0126724D01*
X0194955Y0126617D01*
X0195045Y0126507D01*
X0195132Y0126396D01*
X0195217Y0126282D01*
X0195298Y0126165D01*
X0195376Y0126047D01*
X0195451Y0125926D01*
X0195522Y0125804D01*
X0195590Y0125680D01*
X0195655Y0125553D01*
X0195716Y0125426D01*
X0195774Y0125296D01*
X0195828Y0125165D01*
X0195879Y0125033D01*
X0195926Y0124899D01*
X0195969Y0124764D01*
X0196009Y0124628D01*
X0196045Y0124491D01*
X0196078Y0124353D01*
X0196106Y0124214D01*
X0196131Y0124074D01*
X0196152Y0123934D01*
X0196169Y0123793D01*
X0196183Y0123652D01*
X0196192Y0123510D01*
X0196198Y0123369D01*
X0196200Y0123227D01*
X0196200Y0102565D01*
X0196201Y0102554D01*
X0196206Y0102544D01*
X0196213Y0102535D01*
X0196222Y0102528D01*
X0196232Y0102523D01*
X0196243Y0102522D01*
X0199200Y0102715D02*
X0199200Y0128463D01*
X0202700Y0128963D02*
X0202700Y0102680D01*
X0202698Y0102658D01*
X0202694Y0102636D01*
X0202686Y0102615D01*
X0202675Y0102595D01*
X0202662Y0102577D01*
X0202646Y0102561D01*
X0202628Y0102548D01*
X0202608Y0102537D01*
X0202587Y0102529D01*
X0202565Y0102525D01*
X0202543Y0102523D01*
X0205692Y0102522D02*
X0205696Y0102523D01*
X0205699Y0102526D01*
X0205700Y0102530D01*
X0205700Y0122727D01*
X0208900Y0121663D02*
X0208900Y0102580D01*
X0208899Y0102567D01*
X0208894Y0102555D01*
X0208887Y0102544D01*
X0208878Y0102535D01*
X0208867Y0102528D01*
X0208855Y0102523D01*
X0208842Y0102522D01*
X0211991Y0102522D02*
X0211996Y0102523D01*
X0211999Y0102527D01*
X0212000Y0102531D01*
X0212000Y0116963D01*
X0212002Y0117070D01*
X0212008Y0117177D01*
X0212017Y0117284D01*
X0212031Y0117390D01*
X0212048Y0117496D01*
X0212069Y0117601D01*
X0212093Y0117705D01*
X0212122Y0117808D01*
X0212154Y0117910D01*
X0212189Y0118011D01*
X0212228Y0118111D01*
X0212271Y0118209D01*
X0212317Y0118306D01*
X0212367Y0118401D01*
X0212420Y0118494D01*
X0212476Y0118585D01*
X0212536Y0118674D01*
X0212598Y0118761D01*
X0212664Y0118845D01*
X0212733Y0118928D01*
X0212804Y0119007D01*
X0212879Y0119084D01*
X0212956Y0119159D01*
X0213035Y0119230D01*
X0213118Y0119299D01*
X0213202Y0119365D01*
X0213289Y0119427D01*
X0213378Y0119487D01*
X0213469Y0119543D01*
X0213562Y0119596D01*
X0213657Y0119646D01*
X0213754Y0119692D01*
X0213852Y0119735D01*
X0213952Y0119774D01*
X0214053Y0119809D01*
X0214155Y0119841D01*
X0214258Y0119870D01*
X0214362Y0119894D01*
X0214467Y0119915D01*
X0214573Y0119932D01*
X0214679Y0119946D01*
X0214786Y0119955D01*
X0214893Y0119961D01*
X0215000Y0119963D01*
X0217700Y0119963D01*
X0219200Y0116963D02*
X0219340Y0116940D01*
X0219480Y0116920D01*
X0219620Y0116904D01*
X0219761Y0116892D01*
X0219902Y0116885D01*
X0220044Y0116881D01*
X0220185Y0116880D01*
X0220326Y0116884D01*
X0220467Y0116892D01*
X0220608Y0116904D01*
X0220749Y0116919D01*
X0220889Y0116939D01*
X0221028Y0116962D01*
X0221167Y0116990D01*
X0221305Y0117021D01*
X0221442Y0117056D01*
X0221578Y0117094D01*
X0221712Y0117137D01*
X0221846Y0117183D01*
X0221978Y0117233D01*
X0222109Y0117287D01*
X0222238Y0117344D01*
X0222366Y0117405D01*
X0222492Y0117469D01*
X0222616Y0117537D01*
X0222738Y0117608D01*
X0222858Y0117682D01*
X0222976Y0117760D01*
X0223092Y0117841D01*
X0223205Y0117926D01*
X0223316Y0118013D01*
X0223425Y0118104D01*
X0223531Y0118197D01*
X0223634Y0118294D01*
X0223735Y0118393D01*
X0223833Y0118495D01*
X0223928Y0118600D01*
X0224020Y0118707D01*
X0224109Y0118817D01*
X0224195Y0118929D01*
X0224278Y0119043D01*
X0224357Y0119160D01*
X0224434Y0119279D01*
X0224507Y0119400D01*
X0224576Y0119523D01*
X0224642Y0119648D01*
X0224705Y0119775D01*
X0224764Y0119903D01*
X0224820Y0120034D01*
X0224871Y0120165D01*
X0224920Y0120298D01*
X0224964Y0120432D01*
X0225005Y0120568D01*
X0225042Y0120704D01*
X0225075Y0120841D01*
X0225104Y0120980D01*
X0225129Y0121119D01*
X0225151Y0121258D01*
X0225169Y0121399D01*
X0225182Y0121539D01*
X0225192Y0121680D01*
X0225198Y0121822D01*
X0225200Y0121963D01*
X0225202Y0122039D01*
X0225208Y0122115D01*
X0225217Y0122190D01*
X0225231Y0122265D01*
X0225248Y0122339D01*
X0225269Y0122412D01*
X0225293Y0122484D01*
X0225322Y0122555D01*
X0225353Y0122624D01*
X0225388Y0122691D01*
X0225427Y0122756D01*
X0225469Y0122820D01*
X0225514Y0122881D01*
X0225562Y0122940D01*
X0225613Y0122996D01*
X0225667Y0123050D01*
X0225723Y0123101D01*
X0225782Y0123149D01*
X0225843Y0123194D01*
X0225907Y0123236D01*
X0225972Y0123275D01*
X0226039Y0123310D01*
X0226108Y0123341D01*
X0226179Y0123370D01*
X0226251Y0123394D01*
X0226324Y0123415D01*
X0226398Y0123432D01*
X0226473Y0123446D01*
X0226548Y0123455D01*
X0226624Y0123461D01*
X0226700Y0123463D01*
X0233200Y0123463D01*
X0234700Y0120463D02*
X0234840Y0120465D01*
X0234980Y0120471D01*
X0235120Y0120481D01*
X0235260Y0120494D01*
X0235399Y0120512D01*
X0235538Y0120534D01*
X0235675Y0120559D01*
X0235813Y0120588D01*
X0235949Y0120621D01*
X0236084Y0120658D01*
X0236218Y0120699D01*
X0236351Y0120744D01*
X0236483Y0120792D01*
X0236613Y0120844D01*
X0236742Y0120899D01*
X0236869Y0120958D01*
X0236995Y0121021D01*
X0237119Y0121087D01*
X0237240Y0121156D01*
X0237360Y0121229D01*
X0237478Y0121306D01*
X0237593Y0121385D01*
X0237707Y0121468D01*
X0237817Y0121554D01*
X0237926Y0121643D01*
X0238032Y0121735D01*
X0238135Y0121830D01*
X0238236Y0121927D01*
X0238333Y0122028D01*
X0238428Y0122131D01*
X0238520Y0122237D01*
X0238609Y0122346D01*
X0238695Y0122456D01*
X0238778Y0122570D01*
X0238857Y0122685D01*
X0238934Y0122803D01*
X0239007Y0122923D01*
X0239076Y0123044D01*
X0239142Y0123168D01*
X0239205Y0123294D01*
X0239264Y0123421D01*
X0239319Y0123550D01*
X0239371Y0123680D01*
X0239419Y0123812D01*
X0239464Y0123945D01*
X0239505Y0124079D01*
X0239542Y0124214D01*
X0239575Y0124350D01*
X0239604Y0124488D01*
X0239629Y0124625D01*
X0239651Y0124764D01*
X0239669Y0124903D01*
X0239682Y0125043D01*
X0239692Y0125183D01*
X0239698Y0125323D01*
X0239700Y0125463D01*
X0239702Y0125570D01*
X0239708Y0125677D01*
X0239717Y0125784D01*
X0239731Y0125890D01*
X0239748Y0125996D01*
X0239769Y0126101D01*
X0239793Y0126205D01*
X0239822Y0126308D01*
X0239854Y0126410D01*
X0239889Y0126511D01*
X0239928Y0126611D01*
X0239971Y0126709D01*
X0240017Y0126806D01*
X0240067Y0126901D01*
X0240120Y0126994D01*
X0240176Y0127085D01*
X0240236Y0127174D01*
X0240298Y0127261D01*
X0240364Y0127345D01*
X0240433Y0127428D01*
X0240504Y0127507D01*
X0240579Y0127584D01*
X0240656Y0127659D01*
X0240735Y0127730D01*
X0240818Y0127799D01*
X0240902Y0127865D01*
X0240989Y0127927D01*
X0241078Y0127987D01*
X0241169Y0128043D01*
X0241262Y0128096D01*
X0241357Y0128146D01*
X0241454Y0128192D01*
X0241552Y0128235D01*
X0241652Y0128274D01*
X0241753Y0128309D01*
X0241855Y0128341D01*
X0241958Y0128370D01*
X0242062Y0128394D01*
X0242167Y0128415D01*
X0242273Y0128432D01*
X0242379Y0128446D01*
X0242486Y0128455D01*
X0242593Y0128461D01*
X0242700Y0128463D01*
X0249436Y0128463D01*
X0243200Y0133463D02*
X0243031Y0133461D01*
X0242862Y0133455D01*
X0242693Y0133445D01*
X0242524Y0133430D01*
X0242356Y0133412D01*
X0242189Y0133390D01*
X0242022Y0133363D01*
X0241855Y0133333D01*
X0241690Y0133298D01*
X0241525Y0133260D01*
X0241361Y0133217D01*
X0241198Y0133171D01*
X0241037Y0133120D01*
X0240877Y0133066D01*
X0240718Y0133008D01*
X0240560Y0132946D01*
X0240404Y0132881D01*
X0240250Y0132811D01*
X0240098Y0132738D01*
X0239947Y0132661D01*
X0239798Y0132581D01*
X0239651Y0132497D01*
X0239507Y0132409D01*
X0239364Y0132318D01*
X0239224Y0132224D01*
X0239086Y0132126D01*
X0238950Y0132025D01*
X0238817Y0131921D01*
X0238686Y0131813D01*
X0238558Y0131703D01*
X0238433Y0131589D01*
X0238310Y0131472D01*
X0238191Y0131353D01*
X0238074Y0131230D01*
X0237960Y0131105D01*
X0237850Y0130977D01*
X0237742Y0130846D01*
X0237638Y0130713D01*
X0237537Y0130577D01*
X0237439Y0130439D01*
X0237345Y0130299D01*
X0237254Y0130156D01*
X0237166Y0130012D01*
X0237082Y0129865D01*
X0237002Y0129716D01*
X0236925Y0129565D01*
X0236852Y0129413D01*
X0236782Y0129259D01*
X0236717Y0129103D01*
X0236655Y0128945D01*
X0236597Y0128786D01*
X0236543Y0128626D01*
X0236492Y0128465D01*
X0236446Y0128302D01*
X0236403Y0128138D01*
X0236365Y0127973D01*
X0236330Y0127808D01*
X0236300Y0127641D01*
X0236273Y0127474D01*
X0236251Y0127307D01*
X0236233Y0127139D01*
X0236218Y0126970D01*
X0236208Y0126801D01*
X0236202Y0126632D01*
X0236200Y0126463D01*
X0236198Y0126356D01*
X0236192Y0126249D01*
X0236183Y0126142D01*
X0236169Y0126036D01*
X0236152Y0125930D01*
X0236131Y0125825D01*
X0236107Y0125721D01*
X0236078Y0125618D01*
X0236046Y0125516D01*
X0236011Y0125415D01*
X0235972Y0125315D01*
X0235929Y0125217D01*
X0235883Y0125120D01*
X0235833Y0125025D01*
X0235780Y0124932D01*
X0235724Y0124841D01*
X0235664Y0124752D01*
X0235602Y0124665D01*
X0235536Y0124581D01*
X0235467Y0124498D01*
X0235396Y0124419D01*
X0235321Y0124342D01*
X0235244Y0124267D01*
X0235165Y0124196D01*
X0235082Y0124127D01*
X0234998Y0124061D01*
X0234911Y0123999D01*
X0234822Y0123939D01*
X0234731Y0123883D01*
X0234638Y0123830D01*
X0234543Y0123780D01*
X0234446Y0123734D01*
X0234348Y0123691D01*
X0234248Y0123652D01*
X0234147Y0123617D01*
X0234045Y0123585D01*
X0233942Y0123556D01*
X0233838Y0123532D01*
X0233733Y0123511D01*
X0233627Y0123494D01*
X0233521Y0123480D01*
X0233414Y0123471D01*
X0233307Y0123465D01*
X0233200Y0123463D01*
X0234700Y0120463D02*
X0229200Y0120463D01*
X0229140Y0120461D01*
X0229079Y0120456D01*
X0229020Y0120447D01*
X0228961Y0120434D01*
X0228902Y0120418D01*
X0228845Y0120398D01*
X0228790Y0120375D01*
X0228735Y0120348D01*
X0228683Y0120319D01*
X0228632Y0120286D01*
X0228583Y0120250D01*
X0228537Y0120212D01*
X0228493Y0120170D01*
X0228451Y0120126D01*
X0228413Y0120080D01*
X0228377Y0120031D01*
X0228344Y0119980D01*
X0228315Y0119928D01*
X0228288Y0119873D01*
X0228265Y0119818D01*
X0228245Y0119761D01*
X0228229Y0119702D01*
X0228216Y0119643D01*
X0228207Y0119584D01*
X0228202Y0119523D01*
X0228200Y0119463D01*
X0228198Y0119317D01*
X0228192Y0119170D01*
X0228182Y0119024D01*
X0228169Y0118878D01*
X0228151Y0118733D01*
X0228130Y0118588D01*
X0228105Y0118444D01*
X0228076Y0118300D01*
X0228043Y0118158D01*
X0228006Y0118016D01*
X0227966Y0117875D01*
X0227922Y0117736D01*
X0227874Y0117597D01*
X0227822Y0117460D01*
X0227767Y0117324D01*
X0227708Y0117190D01*
X0227646Y0117058D01*
X0227580Y0116927D01*
X0227511Y0116798D01*
X0227439Y0116671D01*
X0227363Y0116546D01*
X0227283Y0116423D01*
X0227201Y0116302D01*
X0227115Y0116183D01*
X0227026Y0116067D01*
X0226934Y0115953D01*
X0226839Y0115841D01*
X0226741Y0115732D01*
X0226641Y0115626D01*
X0226537Y0115522D01*
X0226431Y0115422D01*
X0226322Y0115324D01*
X0226210Y0115229D01*
X0226096Y0115137D01*
X0225980Y0115048D01*
X0225861Y0114962D01*
X0225740Y0114880D01*
X0225617Y0114800D01*
X0225492Y0114724D01*
X0225365Y0114652D01*
X0225236Y0114583D01*
X0225105Y0114517D01*
X0224973Y0114455D01*
X0224839Y0114396D01*
X0224703Y0114341D01*
X0224566Y0114289D01*
X0224427Y0114241D01*
X0224288Y0114197D01*
X0224147Y0114157D01*
X0224005Y0114120D01*
X0223863Y0114087D01*
X0223719Y0114058D01*
X0223575Y0114033D01*
X0223430Y0114012D01*
X0223285Y0113994D01*
X0223139Y0113981D01*
X0222993Y0113971D01*
X0222846Y0113965D01*
X0222700Y0113963D01*
X0220200Y0113963D01*
X0220113Y0113961D01*
X0220026Y0113955D01*
X0219939Y0113946D01*
X0219853Y0113933D01*
X0219767Y0113916D01*
X0219682Y0113895D01*
X0219599Y0113870D01*
X0219516Y0113842D01*
X0219435Y0113811D01*
X0219355Y0113776D01*
X0219277Y0113737D01*
X0219200Y0113695D01*
X0219125Y0113650D01*
X0219053Y0113601D01*
X0218982Y0113550D01*
X0218914Y0113495D01*
X0218849Y0113438D01*
X0218786Y0113377D01*
X0218725Y0113314D01*
X0218668Y0113249D01*
X0218613Y0113181D01*
X0218562Y0113110D01*
X0218513Y0113038D01*
X0218468Y0112963D01*
X0218426Y0112886D01*
X0218387Y0112808D01*
X0218352Y0112728D01*
X0218321Y0112647D01*
X0218293Y0112564D01*
X0218268Y0112481D01*
X0218247Y0112396D01*
X0218230Y0112310D01*
X0218217Y0112224D01*
X0218208Y0112137D01*
X0218202Y0112050D01*
X0218200Y0111963D01*
X0218200Y0102613D01*
X0218202Y0102595D01*
X0218207Y0102578D01*
X0218215Y0102562D01*
X0218227Y0102549D01*
X0218240Y0102537D01*
X0218256Y0102529D01*
X0218273Y0102524D01*
X0218291Y0102522D01*
X0215200Y0102581D02*
X0215200Y0114963D01*
X0215202Y0115050D01*
X0215208Y0115137D01*
X0215217Y0115224D01*
X0215230Y0115310D01*
X0215247Y0115396D01*
X0215268Y0115481D01*
X0215293Y0115564D01*
X0215321Y0115647D01*
X0215352Y0115728D01*
X0215387Y0115808D01*
X0215426Y0115886D01*
X0215468Y0115963D01*
X0215513Y0116038D01*
X0215562Y0116110D01*
X0215613Y0116181D01*
X0215668Y0116249D01*
X0215725Y0116314D01*
X0215786Y0116377D01*
X0215849Y0116438D01*
X0215914Y0116495D01*
X0215982Y0116550D01*
X0216053Y0116601D01*
X0216125Y0116650D01*
X0216200Y0116695D01*
X0216277Y0116737D01*
X0216355Y0116776D01*
X0216435Y0116811D01*
X0216516Y0116842D01*
X0216599Y0116870D01*
X0216682Y0116895D01*
X0216767Y0116916D01*
X0216853Y0116933D01*
X0216939Y0116946D01*
X0217026Y0116955D01*
X0217113Y0116961D01*
X0217200Y0116963D01*
X0219200Y0116963D01*
X0211200Y0123963D02*
X0211105Y0123961D01*
X0211010Y0123955D01*
X0210916Y0123945D01*
X0210821Y0123932D01*
X0210728Y0123914D01*
X0210635Y0123893D01*
X0210544Y0123867D01*
X0210453Y0123838D01*
X0210364Y0123806D01*
X0210276Y0123769D01*
X0210190Y0123729D01*
X0210105Y0123686D01*
X0210023Y0123639D01*
X0209942Y0123588D01*
X0209864Y0123535D01*
X0209787Y0123478D01*
X0209714Y0123418D01*
X0209642Y0123355D01*
X0209574Y0123289D01*
X0209508Y0123221D01*
X0209445Y0123149D01*
X0209385Y0123076D01*
X0209328Y0122999D01*
X0209275Y0122921D01*
X0209224Y0122840D01*
X0209177Y0122758D01*
X0209134Y0122673D01*
X0209094Y0122587D01*
X0209057Y0122499D01*
X0209025Y0122410D01*
X0208996Y0122319D01*
X0208970Y0122228D01*
X0208949Y0122135D01*
X0208931Y0122042D01*
X0208918Y0121947D01*
X0208908Y0121853D01*
X0208902Y0121758D01*
X0208900Y0121663D01*
X0205700Y0122727D02*
X0205702Y0122877D01*
X0205708Y0123027D01*
X0205718Y0123177D01*
X0205731Y0123327D01*
X0205749Y0123476D01*
X0205771Y0123624D01*
X0205796Y0123772D01*
X0205825Y0123920D01*
X0205858Y0124066D01*
X0205895Y0124212D01*
X0205936Y0124356D01*
X0205981Y0124500D01*
X0206029Y0124642D01*
X0206081Y0124783D01*
X0206137Y0124922D01*
X0206196Y0125060D01*
X0206259Y0125196D01*
X0206325Y0125331D01*
X0206395Y0125464D01*
X0206468Y0125595D01*
X0206545Y0125724D01*
X0206625Y0125851D01*
X0206709Y0125976D01*
X0206795Y0126099D01*
X0206885Y0126219D01*
X0206978Y0126337D01*
X0207074Y0126452D01*
X0207173Y0126565D01*
X0207275Y0126675D01*
X0207380Y0126783D01*
X0207488Y0126888D01*
X0207598Y0126990D01*
X0207711Y0127089D01*
X0207826Y0127185D01*
X0207944Y0127278D01*
X0208064Y0127368D01*
X0208187Y0127454D01*
X0208312Y0127538D01*
X0208439Y0127618D01*
X0208568Y0127695D01*
X0208699Y0127768D01*
X0208832Y0127838D01*
X0208967Y0127904D01*
X0209103Y0127967D01*
X0209241Y0128026D01*
X0209380Y0128082D01*
X0209521Y0128134D01*
X0209663Y0128182D01*
X0209807Y0128227D01*
X0209951Y0128268D01*
X0210097Y0128305D01*
X0210243Y0128338D01*
X0210391Y0128367D01*
X0210539Y0128392D01*
X0210687Y0128414D01*
X0210836Y0128432D01*
X0210986Y0128445D01*
X0211136Y0128455D01*
X0211286Y0128461D01*
X0211436Y0128463D01*
X0207200Y0133463D02*
X0207067Y0133461D01*
X0206933Y0133455D01*
X0206800Y0133445D01*
X0206668Y0133431D01*
X0206536Y0133414D01*
X0206404Y0133392D01*
X0206273Y0133367D01*
X0206143Y0133337D01*
X0206014Y0133304D01*
X0205886Y0133267D01*
X0205759Y0133226D01*
X0205633Y0133181D01*
X0205509Y0133133D01*
X0205386Y0133081D01*
X0205265Y0133026D01*
X0205145Y0132966D01*
X0205027Y0132904D01*
X0204912Y0132838D01*
X0204798Y0132768D01*
X0204686Y0132695D01*
X0204577Y0132619D01*
X0204469Y0132540D01*
X0204365Y0132457D01*
X0204262Y0132372D01*
X0204163Y0132283D01*
X0204066Y0132192D01*
X0203971Y0132097D01*
X0203880Y0132000D01*
X0203791Y0131901D01*
X0203706Y0131798D01*
X0203623Y0131694D01*
X0203544Y0131586D01*
X0203468Y0131477D01*
X0203395Y0131365D01*
X0203325Y0131251D01*
X0203259Y0131136D01*
X0203197Y0131018D01*
X0203137Y0130898D01*
X0203082Y0130777D01*
X0203030Y0130654D01*
X0202982Y0130530D01*
X0202937Y0130404D01*
X0202896Y0130277D01*
X0202859Y0130149D01*
X0202826Y0130020D01*
X0202796Y0129890D01*
X0202771Y0129759D01*
X0202749Y0129627D01*
X0202732Y0129495D01*
X0202718Y0129363D01*
X0202708Y0129230D01*
X0202702Y0129096D01*
X0202700Y0128963D01*
X0199200Y0128463D02*
X0199198Y0128603D01*
X0199192Y0128743D01*
X0199182Y0128883D01*
X0199169Y0129023D01*
X0199151Y0129162D01*
X0199129Y0129301D01*
X0199104Y0129438D01*
X0199075Y0129576D01*
X0199042Y0129712D01*
X0199005Y0129847D01*
X0198964Y0129981D01*
X0198919Y0130114D01*
X0198871Y0130246D01*
X0198819Y0130376D01*
X0198764Y0130505D01*
X0198705Y0130632D01*
X0198642Y0130758D01*
X0198576Y0130882D01*
X0198507Y0131003D01*
X0198434Y0131123D01*
X0198357Y0131241D01*
X0198278Y0131356D01*
X0198195Y0131470D01*
X0198109Y0131580D01*
X0198020Y0131689D01*
X0197928Y0131795D01*
X0197833Y0131898D01*
X0197736Y0131999D01*
X0197635Y0132096D01*
X0197532Y0132191D01*
X0197426Y0132283D01*
X0197317Y0132372D01*
X0197207Y0132458D01*
X0197093Y0132541D01*
X0196978Y0132620D01*
X0196860Y0132697D01*
X0196740Y0132770D01*
X0196619Y0132839D01*
X0196495Y0132905D01*
X0196369Y0132968D01*
X0196242Y0133027D01*
X0196113Y0133082D01*
X0195983Y0133134D01*
X0195851Y0133182D01*
X0195718Y0133227D01*
X0195584Y0133268D01*
X0195449Y0133305D01*
X0195313Y0133338D01*
X0195175Y0133367D01*
X0195038Y0133392D01*
X0194899Y0133414D01*
X0194760Y0133432D01*
X0194620Y0133445D01*
X0194480Y0133455D01*
X0194340Y0133461D01*
X0194200Y0133463D01*
X0211200Y0123963D02*
X0216700Y0123963D01*
X0217700Y0119963D02*
X0217833Y0119965D01*
X0217967Y0119971D01*
X0218100Y0119981D01*
X0218232Y0119995D01*
X0218364Y0120012D01*
X0218496Y0120034D01*
X0218627Y0120059D01*
X0218757Y0120089D01*
X0218886Y0120122D01*
X0219014Y0120159D01*
X0219141Y0120200D01*
X0219267Y0120245D01*
X0219391Y0120293D01*
X0219514Y0120345D01*
X0219635Y0120400D01*
X0219755Y0120460D01*
X0219873Y0120522D01*
X0219988Y0120588D01*
X0220102Y0120658D01*
X0220214Y0120731D01*
X0220323Y0120807D01*
X0220431Y0120886D01*
X0220535Y0120969D01*
X0220638Y0121054D01*
X0220737Y0121143D01*
X0220834Y0121234D01*
X0220929Y0121329D01*
X0221020Y0121426D01*
X0221109Y0121525D01*
X0221194Y0121628D01*
X0221277Y0121732D01*
X0221356Y0121840D01*
X0221432Y0121949D01*
X0221505Y0122061D01*
X0221575Y0122175D01*
X0221641Y0122290D01*
X0221703Y0122408D01*
X0221763Y0122528D01*
X0221818Y0122649D01*
X0221870Y0122772D01*
X0221918Y0122896D01*
X0221963Y0123022D01*
X0222004Y0123149D01*
X0222041Y0123277D01*
X0222074Y0123406D01*
X0222104Y0123536D01*
X0222129Y0123667D01*
X0222151Y0123799D01*
X0222168Y0123931D01*
X0222182Y0124063D01*
X0222192Y0124196D01*
X0222198Y0124330D01*
X0222200Y0124463D01*
X0222202Y0124550D01*
X0222208Y0124637D01*
X0222217Y0124724D01*
X0222230Y0124810D01*
X0222247Y0124896D01*
X0222268Y0124981D01*
X0222293Y0125064D01*
X0222321Y0125147D01*
X0222352Y0125228D01*
X0222387Y0125308D01*
X0222426Y0125386D01*
X0222468Y0125463D01*
X0222513Y0125538D01*
X0222562Y0125610D01*
X0222613Y0125681D01*
X0222668Y0125749D01*
X0222725Y0125814D01*
X0222786Y0125877D01*
X0222849Y0125938D01*
X0222914Y0125995D01*
X0222982Y0126050D01*
X0223053Y0126101D01*
X0223125Y0126150D01*
X0223200Y0126195D01*
X0223277Y0126237D01*
X0223355Y0126276D01*
X0223435Y0126311D01*
X0223516Y0126342D01*
X0223599Y0126370D01*
X0223682Y0126395D01*
X0223767Y0126416D01*
X0223853Y0126433D01*
X0223939Y0126446D01*
X0224026Y0126455D01*
X0224113Y0126461D01*
X0224200Y0126463D01*
X0225200Y0126463D01*
X0225202Y0126550D01*
X0225208Y0126637D01*
X0225217Y0126724D01*
X0225230Y0126810D01*
X0225247Y0126896D01*
X0225268Y0126981D01*
X0225293Y0127064D01*
X0225321Y0127147D01*
X0225352Y0127228D01*
X0225387Y0127308D01*
X0225426Y0127386D01*
X0225468Y0127463D01*
X0225513Y0127538D01*
X0225562Y0127610D01*
X0225613Y0127681D01*
X0225668Y0127749D01*
X0225725Y0127814D01*
X0225786Y0127877D01*
X0225849Y0127938D01*
X0225914Y0127995D01*
X0225982Y0128050D01*
X0226053Y0128101D01*
X0226125Y0128150D01*
X0226200Y0128195D01*
X0226277Y0128237D01*
X0226355Y0128276D01*
X0226435Y0128311D01*
X0226516Y0128342D01*
X0226599Y0128370D01*
X0226682Y0128395D01*
X0226767Y0128416D01*
X0226853Y0128433D01*
X0226939Y0128446D01*
X0227026Y0128455D01*
X0227113Y0128461D01*
X0227200Y0128463D01*
X0222800Y0130063D02*
X0222783Y0130169D01*
X0222771Y0130276D01*
X0222762Y0130383D01*
X0222758Y0130491D01*
X0222757Y0130598D01*
X0222760Y0130706D01*
X0222768Y0130813D01*
X0222779Y0130920D01*
X0222794Y0131026D01*
X0222813Y0131132D01*
X0222835Y0131237D01*
X0222862Y0131341D01*
X0222892Y0131444D01*
X0222926Y0131546D01*
X0222964Y0131647D01*
X0223005Y0131746D01*
X0223050Y0131844D01*
X0223099Y0131940D01*
X0223151Y0132034D01*
X0223206Y0132126D01*
X0223265Y0132216D01*
X0223327Y0132304D01*
X0223392Y0132389D01*
X0223460Y0132472D01*
X0223532Y0132553D01*
X0223606Y0132631D01*
X0223683Y0132706D01*
X0223762Y0132778D01*
X0223845Y0132847D01*
X0223929Y0132914D01*
X0224016Y0132977D01*
X0224106Y0133037D01*
X0224197Y0133093D01*
X0224290Y0133146D01*
X0224386Y0133196D01*
X0224483Y0133242D01*
X0224581Y0133285D01*
X0224681Y0133324D01*
X0224783Y0133359D01*
X0224886Y0133391D01*
X0224990Y0133419D01*
X0225094Y0133443D01*
X0225200Y0133463D01*
X0222800Y0130063D02*
X0222798Y0129990D01*
X0222792Y0129917D01*
X0222783Y0129844D01*
X0222769Y0129772D01*
X0222752Y0129701D01*
X0222731Y0129630D01*
X0222707Y0129561D01*
X0222679Y0129494D01*
X0222647Y0129427D01*
X0222612Y0129363D01*
X0222574Y0129301D01*
X0222533Y0129240D01*
X0222488Y0129182D01*
X0222440Y0129126D01*
X0222390Y0129073D01*
X0222337Y0129023D01*
X0222281Y0128975D01*
X0222223Y0128930D01*
X0222162Y0128889D01*
X0222100Y0128851D01*
X0222036Y0128816D01*
X0221969Y0128784D01*
X0221902Y0128756D01*
X0221833Y0128732D01*
X0221762Y0128711D01*
X0221691Y0128694D01*
X0221619Y0128680D01*
X0221546Y0128671D01*
X0221473Y0128665D01*
X0221400Y0128663D01*
X0220100Y0128663D01*
X0220027Y0128661D01*
X0219954Y0128655D01*
X0219881Y0128646D01*
X0219809Y0128632D01*
X0219738Y0128615D01*
X0219667Y0128594D01*
X0219598Y0128570D01*
X0219531Y0128542D01*
X0219464Y0128510D01*
X0219400Y0128475D01*
X0219338Y0128437D01*
X0219277Y0128396D01*
X0219219Y0128351D01*
X0219163Y0128303D01*
X0219110Y0128253D01*
X0219060Y0128200D01*
X0219012Y0128144D01*
X0218967Y0128086D01*
X0218926Y0128025D01*
X0218888Y0127963D01*
X0218853Y0127899D01*
X0218821Y0127832D01*
X0218793Y0127765D01*
X0218769Y0127696D01*
X0218748Y0127625D01*
X0218731Y0127554D01*
X0218717Y0127482D01*
X0218708Y0127409D01*
X0218702Y0127336D01*
X0218700Y0127263D01*
X0218700Y0125963D01*
X0218698Y0125876D01*
X0218692Y0125789D01*
X0218683Y0125702D01*
X0218670Y0125616D01*
X0218653Y0125530D01*
X0218632Y0125445D01*
X0218607Y0125362D01*
X0218579Y0125279D01*
X0218548Y0125198D01*
X0218513Y0125118D01*
X0218474Y0125040D01*
X0218432Y0124963D01*
X0218387Y0124888D01*
X0218338Y0124816D01*
X0218287Y0124745D01*
X0218232Y0124677D01*
X0218175Y0124612D01*
X0218114Y0124549D01*
X0218051Y0124488D01*
X0217986Y0124431D01*
X0217918Y0124376D01*
X0217847Y0124325D01*
X0217775Y0124276D01*
X0217700Y0124231D01*
X0217623Y0124189D01*
X0217545Y0124150D01*
X0217465Y0124115D01*
X0217384Y0124084D01*
X0217301Y0124056D01*
X0217218Y0124031D01*
X0217133Y0124010D01*
X0217047Y0123993D01*
X0216961Y0123980D01*
X0216874Y0123971D01*
X0216787Y0123965D01*
X0216700Y0123963D01*
X0193200Y0121963D02*
X0193200Y0102628D01*
X0193198Y0102610D01*
X0193194Y0102592D01*
X0193186Y0102575D01*
X0193175Y0102560D01*
X0193162Y0102547D01*
X0193147Y0102536D01*
X0193130Y0102528D01*
X0193112Y0102524D01*
X0193094Y0102522D01*
X0189944Y0102522D02*
X0189933Y0102523D01*
X0189922Y0102528D01*
X0189913Y0102535D01*
X0189906Y0102544D01*
X0189901Y0102555D01*
X0189900Y0102566D01*
X0199200Y0102715D02*
X0199202Y0102688D01*
X0199208Y0102661D01*
X0199217Y0102635D01*
X0199231Y0102611D01*
X0199247Y0102589D01*
X0199267Y0102569D01*
X0199289Y0102553D01*
X0199313Y0102539D01*
X0199339Y0102530D01*
X0199366Y0102524D01*
X0199393Y0102522D01*
X0215141Y0102522D02*
X0215154Y0102523D01*
X0215167Y0102528D01*
X0215178Y0102535D01*
X0215187Y0102544D01*
X0215194Y0102555D01*
X0215199Y0102568D01*
X0215200Y0102581D01*
X0231704Y0095463D02*
X0245700Y0095463D01*
X0254200Y0103963D01*
X0254200Y0096463D02*
X0250200Y0092463D01*
X0231854Y0092463D01*
X0231829Y0092461D01*
X0231804Y0092456D01*
X0231780Y0092447D01*
X0231758Y0092435D01*
X0231738Y0092420D01*
X0231720Y0092402D01*
X0231705Y0092382D01*
X0231693Y0092360D01*
X0231684Y0092336D01*
X0231679Y0092311D01*
X0231677Y0092286D01*
X0231676Y0095435D02*
X0231677Y0095444D01*
X0231681Y0095451D01*
X0231688Y0095458D01*
X0231695Y0095462D01*
X0231704Y0095463D01*
X0193200Y0121963D02*
X0193198Y0122050D01*
X0193192Y0122137D01*
X0193183Y0122224D01*
X0193170Y0122310D01*
X0193153Y0122396D01*
X0193132Y0122481D01*
X0193107Y0122564D01*
X0193079Y0122647D01*
X0193048Y0122728D01*
X0193013Y0122808D01*
X0192974Y0122886D01*
X0192932Y0122963D01*
X0192887Y0123038D01*
X0192838Y0123110D01*
X0192787Y0123181D01*
X0192732Y0123249D01*
X0192675Y0123314D01*
X0192614Y0123377D01*
X0192551Y0123438D01*
X0192486Y0123495D01*
X0192418Y0123550D01*
X0192347Y0123601D01*
X0192275Y0123650D01*
X0192200Y0123695D01*
X0192123Y0123737D01*
X0192045Y0123776D01*
X0191965Y0123811D01*
X0191884Y0123842D01*
X0191801Y0123870D01*
X0191718Y0123895D01*
X0191633Y0123916D01*
X0191547Y0123933D01*
X0191461Y0123946D01*
X0191374Y0123955D01*
X0191287Y0123961D01*
X0191200Y0123963D01*
X0168700Y0116963D02*
X0168613Y0116965D01*
X0168526Y0116971D01*
X0168439Y0116980D01*
X0168353Y0116993D01*
X0168267Y0117010D01*
X0168182Y0117031D01*
X0168099Y0117056D01*
X0168016Y0117084D01*
X0167935Y0117115D01*
X0167855Y0117150D01*
X0167777Y0117189D01*
X0167700Y0117231D01*
X0167625Y0117276D01*
X0167553Y0117325D01*
X0167482Y0117376D01*
X0167414Y0117431D01*
X0167349Y0117488D01*
X0167286Y0117549D01*
X0167225Y0117612D01*
X0167168Y0117677D01*
X0167113Y0117745D01*
X0167062Y0117816D01*
X0167013Y0117888D01*
X0166968Y0117963D01*
X0166926Y0118040D01*
X0166887Y0118118D01*
X0166852Y0118198D01*
X0166821Y0118279D01*
X0166793Y0118362D01*
X0166768Y0118445D01*
X0166747Y0118530D01*
X0166730Y0118616D01*
X0166717Y0118702D01*
X0166708Y0118789D01*
X0166702Y0118876D01*
X0166700Y0118963D01*
X0166700Y0121463D01*
X0162200Y0119463D02*
X0162202Y0119311D01*
X0162208Y0119159D01*
X0162217Y0119007D01*
X0162231Y0118856D01*
X0162248Y0118705D01*
X0162269Y0118554D01*
X0162294Y0118404D01*
X0162323Y0118255D01*
X0162355Y0118107D01*
X0162392Y0117959D01*
X0162431Y0117812D01*
X0162475Y0117667D01*
X0162523Y0117522D01*
X0162573Y0117379D01*
X0162628Y0117237D01*
X0162686Y0117097D01*
X0162748Y0116958D01*
X0162813Y0116821D01*
X0162882Y0116685D01*
X0162954Y0116551D01*
X0163029Y0116419D01*
X0163108Y0116289D01*
X0163190Y0116161D01*
X0163275Y0116035D01*
X0163364Y0115912D01*
X0163455Y0115790D01*
X0163550Y0115671D01*
X0163647Y0115555D01*
X0163748Y0115441D01*
X0163851Y0115329D01*
X0163957Y0115220D01*
X0164066Y0115114D01*
X0164178Y0115011D01*
X0164292Y0114910D01*
X0164408Y0114813D01*
X0164527Y0114718D01*
X0164649Y0114627D01*
X0164772Y0114538D01*
X0164898Y0114453D01*
X0165026Y0114371D01*
X0165156Y0114292D01*
X0165288Y0114217D01*
X0165422Y0114145D01*
X0165558Y0114076D01*
X0165695Y0114011D01*
X0165834Y0113949D01*
X0165974Y0113891D01*
X0166116Y0113836D01*
X0166259Y0113786D01*
X0166404Y0113738D01*
X0166549Y0113694D01*
X0166696Y0113655D01*
X0166844Y0113618D01*
X0166992Y0113586D01*
X0167141Y0113557D01*
X0167291Y0113532D01*
X0167442Y0113511D01*
X0167593Y0113494D01*
X0167744Y0113480D01*
X0167896Y0113471D01*
X0168048Y0113465D01*
X0168200Y0113463D01*
X0162200Y0119463D02*
X0162200Y0120963D01*
X0162198Y0121144D01*
X0162191Y0121325D01*
X0162180Y0121506D01*
X0162165Y0121687D01*
X0162145Y0121867D01*
X0162121Y0122047D01*
X0162093Y0122226D01*
X0162060Y0122404D01*
X0162023Y0122581D01*
X0161982Y0122758D01*
X0161937Y0122933D01*
X0161887Y0123108D01*
X0161833Y0123281D01*
X0161775Y0123452D01*
X0161713Y0123623D01*
X0161646Y0123791D01*
X0161576Y0123958D01*
X0161502Y0124124D01*
X0161423Y0124287D01*
X0161341Y0124448D01*
X0161255Y0124608D01*
X0161165Y0124765D01*
X0161071Y0124920D01*
X0160974Y0125073D01*
X0160872Y0125223D01*
X0160768Y0125371D01*
X0160659Y0125517D01*
X0160548Y0125659D01*
X0160432Y0125799D01*
X0160314Y0125936D01*
X0160192Y0126071D01*
X0160067Y0126202D01*
X0159939Y0126330D01*
X0159808Y0126455D01*
X0159673Y0126577D01*
X0159536Y0126695D01*
X0159396Y0126811D01*
X0159254Y0126922D01*
X0159108Y0127031D01*
X0158960Y0127135D01*
X0158810Y0127237D01*
X0158657Y0127334D01*
X0158502Y0127428D01*
X0158345Y0127518D01*
X0158185Y0127604D01*
X0158024Y0127686D01*
X0157861Y0127765D01*
X0157695Y0127839D01*
X0157528Y0127909D01*
X0157360Y0127976D01*
X0157189Y0128038D01*
X0157018Y0128096D01*
X0156845Y0128150D01*
X0156670Y0128200D01*
X0156495Y0128245D01*
X0156318Y0128286D01*
X0156141Y0128323D01*
X0155963Y0128356D01*
X0155784Y0128384D01*
X0155604Y0128408D01*
X0155424Y0128428D01*
X0155243Y0128443D01*
X0155062Y0128454D01*
X0154881Y0128461D01*
X0154700Y0128463D01*
X0154700Y0133463D02*
X0154990Y0133459D01*
X0155280Y0133449D01*
X0155569Y0133431D01*
X0155858Y0133407D01*
X0156146Y0133376D01*
X0156434Y0133337D01*
X0156720Y0133292D01*
X0157006Y0133239D01*
X0157289Y0133180D01*
X0157572Y0133114D01*
X0157852Y0133042D01*
X0158131Y0132962D01*
X0158408Y0132876D01*
X0158683Y0132783D01*
X0158955Y0132683D01*
X0159225Y0132577D01*
X0159492Y0132465D01*
X0159757Y0132345D01*
X0160018Y0132220D01*
X0160277Y0132088D01*
X0160532Y0131951D01*
X0160784Y0131807D01*
X0161032Y0131657D01*
X0161276Y0131501D01*
X0161517Y0131339D01*
X0161753Y0131171D01*
X0161986Y0130998D01*
X0162214Y0130819D01*
X0162438Y0130635D01*
X0162657Y0130445D01*
X0162872Y0130250D01*
X0163082Y0130050D01*
X0163287Y0129845D01*
X0163487Y0129635D01*
X0163682Y0129420D01*
X0163872Y0129201D01*
X0164056Y0128977D01*
X0164235Y0128749D01*
X0164408Y0128516D01*
X0164576Y0128280D01*
X0164738Y0128039D01*
X0164894Y0127795D01*
X0165044Y0127547D01*
X0165188Y0127295D01*
X0165325Y0127040D01*
X0165457Y0126781D01*
X0165582Y0126520D01*
X0165702Y0126255D01*
X0165814Y0125988D01*
X0165920Y0125718D01*
X0166020Y0125446D01*
X0166113Y0125171D01*
X0166199Y0124894D01*
X0166279Y0124615D01*
X0166351Y0124335D01*
X0166417Y0124052D01*
X0166476Y0123769D01*
X0166529Y0123483D01*
X0166574Y0123197D01*
X0166613Y0122909D01*
X0166644Y0122621D01*
X0166668Y0122332D01*
X0166686Y0122043D01*
X0166696Y0121753D01*
X0166700Y0121463D01*
X0186200Y0153463D02*
X0190964Y0153463D01*
X0175200Y0157963D02*
X0174700Y0158463D01*
X0172936Y0158463D01*
X0243200Y0133463D02*
X0249436Y0133463D01*
X0134700Y0088963D02*
X0134700Y0040463D01*
X0142200Y0035963D01*
D30*
X0147200Y0085963D03*
X0269948Y0030739D03*
X0275854Y0030739D03*
D31*
X0339100Y0127263D03*
D32*
X0263200Y0041963D03*
D33*
X0286877Y0064203D03*
X0286877Y0089794D03*
X0115224Y0089794D03*
X0115224Y0064203D03*
D34*
X0140606Y0078963D02*
X0140606Y0079369D01*
X0147200Y0085963D01*
X0147224Y0085987D01*
X0170259Y0085987D01*
X0186176Y0085987D01*
X0218873Y0060790D01*
X0231676Y0060790D01*
X0236373Y0060790D01*
X0241200Y0055963D01*
X0264794Y0055963D01*
X0255200Y0044963D02*
X0251700Y0048463D01*
X0238100Y0048463D01*
X0235222Y0051341D01*
X0231676Y0051341D01*
X0255200Y0044963D02*
X0255200Y0040963D01*
X0252200Y0037963D01*
X0252200Y0024471D01*
X0249436Y0138463D02*
X0260200Y0138463D01*
X0265700Y0146963D01*
D35*
X0140606Y0078963D02*
X0140606Y0078869D01*
D36*
X0223100Y0168763D02*
X0224006Y0167970D01*
X0224900Y0167163D01*
X0223100Y0168763D02*
X0223051Y0168806D01*
X0223003Y0168853D01*
X0222959Y0168902D01*
X0222917Y0168953D01*
X0222879Y0169007D01*
X0222844Y0169063D01*
X0222813Y0169121D01*
X0222784Y0169181D01*
X0222760Y0169242D01*
X0222739Y0169305D01*
X0222722Y0169369D01*
X0222709Y0169433D01*
X0222699Y0169499D01*
X0222694Y0169565D01*
X0222692Y0169631D01*
X0222694Y0169697D01*
X0222701Y0169763D01*
X0222700Y0169763D02*
X0222700Y0177388D01*
X0222701Y0177390D01*
X0222702Y0177391D01*
X0222704Y0177392D01*
X0218800Y0177425D02*
X0218800Y0168263D01*
X0216000Y0165763D02*
X0215932Y0165765D01*
X0215863Y0165771D01*
X0215795Y0165781D01*
X0215728Y0165794D01*
X0215662Y0165811D01*
X0215597Y0165833D01*
X0215533Y0165857D01*
X0215470Y0165886D01*
X0215410Y0165918D01*
X0215351Y0165953D01*
X0215294Y0165991D01*
X0215240Y0166033D01*
X0215188Y0166078D01*
X0215139Y0166126D01*
X0215092Y0166176D01*
X0215049Y0166229D01*
X0215008Y0166284D01*
X0214971Y0166342D01*
X0214937Y0166401D01*
X0214907Y0166463D01*
X0214880Y0166526D01*
X0214857Y0166590D01*
X0214837Y0166656D01*
X0214821Y0166722D01*
X0214809Y0166790D01*
X0214801Y0166858D01*
X0214797Y0166926D01*
X0214796Y0166995D01*
X0214800Y0167063D01*
X0214800Y0177362D01*
X0214801Y0177371D01*
X0214806Y0177380D01*
X0214812Y0177386D01*
X0214821Y0177391D01*
X0214830Y0177392D01*
X0210900Y0177385D02*
X0210900Y0165263D01*
X0210902Y0165180D01*
X0210908Y0165097D01*
X0210917Y0165014D01*
X0210931Y0164932D01*
X0210948Y0164851D01*
X0210969Y0164770D01*
X0210993Y0164691D01*
X0211022Y0164613D01*
X0211053Y0164536D01*
X0211089Y0164461D01*
X0211127Y0164387D01*
X0211170Y0164315D01*
X0211215Y0164246D01*
X0211264Y0164178D01*
X0211315Y0164113D01*
X0211370Y0164050D01*
X0211427Y0163990D01*
X0211487Y0163933D01*
X0211550Y0163878D01*
X0211615Y0163827D01*
X0211683Y0163778D01*
X0211752Y0163733D01*
X0211824Y0163690D01*
X0211898Y0163652D01*
X0211973Y0163616D01*
X0212050Y0163585D01*
X0212128Y0163556D01*
X0212207Y0163532D01*
X0212288Y0163511D01*
X0212369Y0163494D01*
X0212451Y0163480D01*
X0212534Y0163471D01*
X0212617Y0163465D01*
X0212700Y0163463D01*
X0215700Y0163463D01*
X0215700Y0161463D02*
X0209100Y0161463D01*
X0209009Y0161465D01*
X0208918Y0161471D01*
X0208828Y0161480D01*
X0208738Y0161493D01*
X0208649Y0161510D01*
X0208560Y0161530D01*
X0208472Y0161554D01*
X0208386Y0161582D01*
X0208300Y0161613D01*
X0208216Y0161648D01*
X0208134Y0161687D01*
X0208053Y0161728D01*
X0207974Y0161773D01*
X0207897Y0161821D01*
X0207822Y0161873D01*
X0207749Y0161927D01*
X0207678Y0161984D01*
X0207610Y0162044D01*
X0207544Y0162107D01*
X0207481Y0162173D01*
X0207421Y0162241D01*
X0207364Y0162312D01*
X0207310Y0162385D01*
X0207258Y0162460D01*
X0207210Y0162537D01*
X0207165Y0162616D01*
X0207124Y0162697D01*
X0207085Y0162779D01*
X0207050Y0162863D01*
X0207019Y0162949D01*
X0206991Y0163035D01*
X0206967Y0163123D01*
X0206947Y0163212D01*
X0206930Y0163301D01*
X0206917Y0163391D01*
X0206908Y0163481D01*
X0206902Y0163572D01*
X0206900Y0163663D01*
X0206900Y0177336D01*
X0206901Y0177348D01*
X0206906Y0177360D01*
X0206912Y0177371D01*
X0206921Y0177380D01*
X0206932Y0177386D01*
X0206944Y0177391D01*
X0206956Y0177392D01*
X0210893Y0177392D02*
X0210897Y0177391D01*
X0210899Y0177389D01*
X0210900Y0177385D01*
X0187200Y0173463D02*
X0187186Y0172963D01*
X0187181Y0172463D01*
X0187186Y0171963D01*
X0187200Y0171463D01*
X0187200Y0173463D02*
X0187200Y0177321D01*
X0187202Y0177337D01*
X0187207Y0177352D01*
X0187215Y0177365D01*
X0187227Y0177377D01*
X0187240Y0177385D01*
X0187255Y0177390D01*
X0187271Y0177392D01*
X0191200Y0177384D02*
X0191200Y0168463D01*
X0191198Y0168376D01*
X0191192Y0168289D01*
X0191183Y0168202D01*
X0191170Y0168116D01*
X0191153Y0168030D01*
X0191132Y0167945D01*
X0191107Y0167862D01*
X0191079Y0167779D01*
X0191048Y0167698D01*
X0191013Y0167618D01*
X0190974Y0167540D01*
X0190932Y0167463D01*
X0190887Y0167388D01*
X0190838Y0167316D01*
X0190787Y0167245D01*
X0190732Y0167177D01*
X0190675Y0167112D01*
X0190614Y0167049D01*
X0190551Y0166988D01*
X0190486Y0166931D01*
X0190418Y0166876D01*
X0190347Y0166825D01*
X0190275Y0166776D01*
X0190200Y0166731D01*
X0190123Y0166689D01*
X0190045Y0166650D01*
X0189965Y0166615D01*
X0189884Y0166584D01*
X0189801Y0166556D01*
X0189718Y0166531D01*
X0189633Y0166510D01*
X0189547Y0166493D01*
X0189461Y0166480D01*
X0189374Y0166471D01*
X0189287Y0166465D01*
X0189200Y0166463D01*
X0184700Y0166463D01*
X0185200Y0163963D02*
X0193200Y0163963D01*
X0193287Y0163970D01*
X0193374Y0163980D01*
X0193460Y0163994D01*
X0193546Y0164011D01*
X0193630Y0164033D01*
X0193714Y0164058D01*
X0193797Y0164086D01*
X0193878Y0164118D01*
X0193958Y0164154D01*
X0194036Y0164193D01*
X0194112Y0164236D01*
X0194186Y0164281D01*
X0194259Y0164330D01*
X0194329Y0164382D01*
X0194397Y0164438D01*
X0194462Y0164496D01*
X0194525Y0164556D01*
X0194585Y0164620D01*
X0194642Y0164686D01*
X0194696Y0164754D01*
X0194747Y0164825D01*
X0194795Y0164898D01*
X0194840Y0164973D01*
X0194882Y0165050D01*
X0194920Y0165128D01*
X0194954Y0165209D01*
X0194986Y0165290D01*
X0195013Y0165373D01*
X0195037Y0165457D01*
X0195057Y0165542D01*
X0195074Y0165628D01*
X0195086Y0165714D01*
X0195095Y0165801D01*
X0195101Y0165888D01*
X0195102Y0165976D01*
X0195100Y0166063D01*
X0195100Y0177437D01*
X0195102Y0177425D01*
X0195106Y0177415D01*
X0195113Y0177405D01*
X0195123Y0177398D01*
X0195133Y0177394D01*
X0195145Y0177392D01*
X0199082Y0177392D02*
X0199094Y0177381D01*
X0199104Y0177368D01*
X0199111Y0177353D01*
X0199115Y0177337D01*
X0199116Y0177320D01*
X0199114Y0177304D01*
X0199108Y0177288D01*
X0199100Y0177274D01*
X0199100Y0163963D01*
X0199101Y0163870D01*
X0199097Y0163777D01*
X0199089Y0163684D01*
X0199078Y0163592D01*
X0199063Y0163500D01*
X0199044Y0163409D01*
X0199021Y0163319D01*
X0198995Y0163230D01*
X0198965Y0163142D01*
X0198931Y0163055D01*
X0198894Y0162970D01*
X0198853Y0162886D01*
X0198809Y0162804D01*
X0198761Y0162724D01*
X0198711Y0162646D01*
X0198657Y0162570D01*
X0198600Y0162497D01*
X0198540Y0162426D01*
X0198477Y0162357D01*
X0198411Y0162291D01*
X0198343Y0162228D01*
X0198272Y0162168D01*
X0198198Y0162111D01*
X0198123Y0162056D01*
X0198045Y0162005D01*
X0197965Y0161958D01*
X0197883Y0161913D01*
X0197800Y0161872D01*
X0197715Y0161835D01*
X0197628Y0161801D01*
X0197540Y0161770D01*
X0197451Y0161744D01*
X0197361Y0161721D01*
X0197270Y0161701D01*
X0197178Y0161686D01*
X0197086Y0161674D01*
X0196993Y0161667D01*
X0196900Y0161663D01*
X0186300Y0161663D01*
X0185200Y0163963D02*
X0185093Y0163961D01*
X0184986Y0163955D01*
X0184879Y0163946D01*
X0184773Y0163932D01*
X0184667Y0163915D01*
X0184562Y0163894D01*
X0184458Y0163870D01*
X0184355Y0163841D01*
X0184253Y0163809D01*
X0184152Y0163774D01*
X0184052Y0163735D01*
X0183954Y0163692D01*
X0183857Y0163646D01*
X0183762Y0163596D01*
X0183669Y0163543D01*
X0183578Y0163487D01*
X0183489Y0163427D01*
X0183402Y0163365D01*
X0183318Y0163299D01*
X0183235Y0163230D01*
X0183156Y0163159D01*
X0183079Y0163084D01*
X0183004Y0163007D01*
X0182933Y0162928D01*
X0182864Y0162845D01*
X0182798Y0162761D01*
X0182736Y0162674D01*
X0182676Y0162585D01*
X0182620Y0162494D01*
X0182567Y0162401D01*
X0182517Y0162306D01*
X0182471Y0162209D01*
X0182428Y0162111D01*
X0182389Y0162011D01*
X0182354Y0161910D01*
X0182322Y0161808D01*
X0182293Y0161705D01*
X0182269Y0161601D01*
X0182248Y0161496D01*
X0182231Y0161390D01*
X0182217Y0161284D01*
X0182208Y0161177D01*
X0182202Y0161070D01*
X0182200Y0160963D01*
X0182200Y0150963D01*
X0182202Y0150903D01*
X0182207Y0150842D01*
X0182216Y0150783D01*
X0182229Y0150724D01*
X0182245Y0150665D01*
X0182265Y0150608D01*
X0182288Y0150553D01*
X0182315Y0150498D01*
X0182344Y0150446D01*
X0182377Y0150395D01*
X0182413Y0150346D01*
X0182451Y0150300D01*
X0182493Y0150256D01*
X0182537Y0150214D01*
X0182583Y0150176D01*
X0182632Y0150140D01*
X0182683Y0150107D01*
X0182735Y0150078D01*
X0182790Y0150051D01*
X0182845Y0150028D01*
X0182902Y0150008D01*
X0182961Y0149992D01*
X0183020Y0149979D01*
X0183079Y0149970D01*
X0183140Y0149965D01*
X0183200Y0149963D01*
X0183276Y0149961D01*
X0183352Y0149955D01*
X0183427Y0149946D01*
X0183502Y0149932D01*
X0183576Y0149915D01*
X0183649Y0149894D01*
X0183721Y0149870D01*
X0183792Y0149841D01*
X0183861Y0149810D01*
X0183928Y0149775D01*
X0183993Y0149736D01*
X0184057Y0149694D01*
X0184118Y0149649D01*
X0184177Y0149601D01*
X0184233Y0149550D01*
X0184287Y0149496D01*
X0184338Y0149440D01*
X0184386Y0149381D01*
X0184431Y0149320D01*
X0184473Y0149256D01*
X0184512Y0149191D01*
X0184547Y0149124D01*
X0184578Y0149055D01*
X0184607Y0148984D01*
X0184631Y0148912D01*
X0184652Y0148839D01*
X0184669Y0148765D01*
X0184683Y0148690D01*
X0184692Y0148615D01*
X0184698Y0148539D01*
X0184700Y0148463D01*
X0184700Y0147963D01*
X0184702Y0147830D01*
X0184708Y0147696D01*
X0184718Y0147563D01*
X0184732Y0147431D01*
X0184749Y0147299D01*
X0184771Y0147167D01*
X0184796Y0147036D01*
X0184826Y0146906D01*
X0184859Y0146777D01*
X0184896Y0146649D01*
X0184937Y0146522D01*
X0184982Y0146396D01*
X0185030Y0146272D01*
X0185082Y0146149D01*
X0185137Y0146028D01*
X0185197Y0145908D01*
X0185259Y0145790D01*
X0185325Y0145675D01*
X0185395Y0145561D01*
X0185468Y0145449D01*
X0185544Y0145340D01*
X0185623Y0145232D01*
X0185706Y0145128D01*
X0185791Y0145025D01*
X0185880Y0144926D01*
X0185971Y0144829D01*
X0186066Y0144734D01*
X0186163Y0144643D01*
X0186262Y0144554D01*
X0186365Y0144469D01*
X0186469Y0144386D01*
X0186577Y0144307D01*
X0186686Y0144231D01*
X0186798Y0144158D01*
X0186912Y0144088D01*
X0187027Y0144022D01*
X0187145Y0143960D01*
X0187265Y0143900D01*
X0187386Y0143845D01*
X0187509Y0143793D01*
X0187633Y0143745D01*
X0187759Y0143700D01*
X0187886Y0143659D01*
X0188014Y0143622D01*
X0188143Y0143589D01*
X0188273Y0143559D01*
X0188404Y0143534D01*
X0188536Y0143512D01*
X0188668Y0143495D01*
X0188800Y0143481D01*
X0188933Y0143471D01*
X0189067Y0143465D01*
X0189200Y0143463D01*
X0190964Y0143463D01*
X0179700Y0149963D02*
X0179700Y0161463D01*
X0175200Y0163463D02*
X0175202Y0163607D01*
X0175207Y0163751D01*
X0175217Y0163895D01*
X0175230Y0164039D01*
X0175247Y0164182D01*
X0175267Y0164325D01*
X0175291Y0164467D01*
X0175319Y0164609D01*
X0175351Y0164749D01*
X0175386Y0164889D01*
X0175425Y0165028D01*
X0175467Y0165166D01*
X0175513Y0165303D01*
X0175563Y0165438D01*
X0175615Y0165572D01*
X0175672Y0165705D01*
X0175732Y0165836D01*
X0175795Y0165966D01*
X0175862Y0166094D01*
X0175931Y0166220D01*
X0176004Y0166345D01*
X0176081Y0166467D01*
X0176160Y0166587D01*
X0176243Y0166706D01*
X0176328Y0166822D01*
X0176417Y0166936D01*
X0176508Y0167047D01*
X0176603Y0167156D01*
X0176700Y0167263D01*
X0174100Y0168763D02*
X0174017Y0168707D01*
X0173935Y0168648D01*
X0173857Y0168586D01*
X0173780Y0168521D01*
X0173706Y0168452D01*
X0173635Y0168381D01*
X0173567Y0168308D01*
X0173501Y0168232D01*
X0173438Y0168153D01*
X0173379Y0168072D01*
X0173322Y0167989D01*
X0173269Y0167903D01*
X0173220Y0167816D01*
X0173173Y0167727D01*
X0173130Y0167636D01*
X0173091Y0167544D01*
X0173055Y0167450D01*
X0173023Y0167355D01*
X0172994Y0167258D01*
X0172969Y0167161D01*
X0172948Y0167063D01*
X0172931Y0166964D01*
X0172917Y0166864D01*
X0172908Y0166764D01*
X0172902Y0166663D01*
X0172900Y0166563D01*
X0172900Y0166163D01*
X0172898Y0166082D01*
X0172892Y0166001D01*
X0172883Y0165921D01*
X0172869Y0165841D01*
X0172852Y0165762D01*
X0172831Y0165684D01*
X0172807Y0165607D01*
X0172778Y0165531D01*
X0172746Y0165457D01*
X0172711Y0165384D01*
X0172672Y0165313D01*
X0172630Y0165244D01*
X0172585Y0165177D01*
X0172536Y0165112D01*
X0172485Y0165050D01*
X0172430Y0164990D01*
X0172373Y0164933D01*
X0172313Y0164878D01*
X0172251Y0164827D01*
X0172186Y0164778D01*
X0172119Y0164733D01*
X0172050Y0164691D01*
X0171979Y0164652D01*
X0171906Y0164617D01*
X0171832Y0164585D01*
X0171756Y0164556D01*
X0171679Y0164532D01*
X0171601Y0164511D01*
X0171522Y0164494D01*
X0171442Y0164480D01*
X0171362Y0164471D01*
X0171281Y0164465D01*
X0171200Y0164463D01*
X0148200Y0164463D01*
X0148200Y0161463D02*
X0173200Y0161463D01*
X0173287Y0161465D01*
X0173374Y0161471D01*
X0173461Y0161480D01*
X0173547Y0161493D01*
X0173633Y0161510D01*
X0173718Y0161531D01*
X0173801Y0161556D01*
X0173884Y0161584D01*
X0173965Y0161615D01*
X0174045Y0161650D01*
X0174123Y0161689D01*
X0174200Y0161731D01*
X0174275Y0161776D01*
X0174347Y0161825D01*
X0174418Y0161876D01*
X0174486Y0161931D01*
X0174551Y0161988D01*
X0174614Y0162049D01*
X0174675Y0162112D01*
X0174732Y0162177D01*
X0174787Y0162245D01*
X0174838Y0162316D01*
X0174887Y0162388D01*
X0174932Y0162463D01*
X0174974Y0162540D01*
X0175013Y0162618D01*
X0175048Y0162698D01*
X0175079Y0162779D01*
X0175107Y0162862D01*
X0175132Y0162945D01*
X0175153Y0163030D01*
X0175170Y0163116D01*
X0175183Y0163202D01*
X0175192Y0163289D01*
X0175198Y0163376D01*
X0175200Y0163463D01*
X0177200Y0161363D02*
X0177200Y0159963D01*
X0177198Y0159876D01*
X0177192Y0159789D01*
X0177183Y0159702D01*
X0177170Y0159616D01*
X0177153Y0159530D01*
X0177132Y0159445D01*
X0177107Y0159362D01*
X0177079Y0159279D01*
X0177048Y0159198D01*
X0177013Y0159118D01*
X0176974Y0159040D01*
X0176932Y0158963D01*
X0176887Y0158888D01*
X0176838Y0158816D01*
X0176787Y0158745D01*
X0176732Y0158677D01*
X0176675Y0158612D01*
X0176614Y0158549D01*
X0176551Y0158488D01*
X0176486Y0158431D01*
X0176418Y0158376D01*
X0176347Y0158325D01*
X0176275Y0158276D01*
X0176200Y0158231D01*
X0176123Y0158189D01*
X0176045Y0158150D01*
X0175965Y0158115D01*
X0175884Y0158084D01*
X0175801Y0158056D01*
X0175718Y0158031D01*
X0175633Y0158010D01*
X0175547Y0157993D01*
X0175461Y0157980D01*
X0175374Y0157971D01*
X0175287Y0157965D01*
X0175200Y0157963D01*
X0184700Y0160063D02*
X0184700Y0154963D01*
X0184702Y0154887D01*
X0184708Y0154811D01*
X0184717Y0154736D01*
X0184731Y0154661D01*
X0184748Y0154587D01*
X0184769Y0154514D01*
X0184793Y0154442D01*
X0184822Y0154371D01*
X0184853Y0154302D01*
X0184888Y0154235D01*
X0184927Y0154170D01*
X0184969Y0154106D01*
X0185014Y0154045D01*
X0185062Y0153986D01*
X0185113Y0153930D01*
X0185167Y0153876D01*
X0185223Y0153825D01*
X0185282Y0153777D01*
X0185343Y0153732D01*
X0185407Y0153690D01*
X0185472Y0153651D01*
X0185539Y0153616D01*
X0185608Y0153585D01*
X0185679Y0153556D01*
X0185751Y0153532D01*
X0185824Y0153511D01*
X0185898Y0153494D01*
X0185973Y0153480D01*
X0186048Y0153471D01*
X0186124Y0153465D01*
X0186200Y0153463D01*
X0179700Y0149963D02*
X0179698Y0149887D01*
X0179692Y0149811D01*
X0179683Y0149736D01*
X0179669Y0149661D01*
X0179652Y0149587D01*
X0179631Y0149514D01*
X0179607Y0149442D01*
X0179578Y0149371D01*
X0179547Y0149302D01*
X0179512Y0149235D01*
X0179473Y0149170D01*
X0179431Y0149106D01*
X0179386Y0149045D01*
X0179338Y0148986D01*
X0179287Y0148930D01*
X0179233Y0148876D01*
X0179177Y0148825D01*
X0179118Y0148777D01*
X0179057Y0148732D01*
X0178993Y0148690D01*
X0178928Y0148651D01*
X0178861Y0148616D01*
X0178792Y0148585D01*
X0178721Y0148556D01*
X0178649Y0148532D01*
X0178576Y0148511D01*
X0178502Y0148494D01*
X0178427Y0148480D01*
X0178352Y0148471D01*
X0178276Y0148465D01*
X0178200Y0148463D01*
X0172936Y0148463D01*
X0152464Y0143463D02*
X0146200Y0143463D01*
X0146093Y0143465D01*
X0145986Y0143471D01*
X0145879Y0143480D01*
X0145773Y0143494D01*
X0145667Y0143511D01*
X0145562Y0143532D01*
X0145458Y0143556D01*
X0145355Y0143585D01*
X0145253Y0143617D01*
X0145152Y0143652D01*
X0145052Y0143691D01*
X0144954Y0143734D01*
X0144857Y0143780D01*
X0144762Y0143830D01*
X0144669Y0143883D01*
X0144578Y0143939D01*
X0144489Y0143999D01*
X0144402Y0144061D01*
X0144318Y0144127D01*
X0144235Y0144196D01*
X0144156Y0144267D01*
X0144079Y0144342D01*
X0144004Y0144419D01*
X0143933Y0144498D01*
X0143864Y0144581D01*
X0143798Y0144665D01*
X0143736Y0144752D01*
X0143676Y0144841D01*
X0143620Y0144932D01*
X0143567Y0145025D01*
X0143517Y0145120D01*
X0143471Y0145217D01*
X0143428Y0145315D01*
X0143389Y0145415D01*
X0143354Y0145516D01*
X0143322Y0145618D01*
X0143293Y0145721D01*
X0143269Y0145825D01*
X0143248Y0145930D01*
X0143231Y0146036D01*
X0143217Y0146142D01*
X0143208Y0146249D01*
X0143202Y0146356D01*
X0143200Y0146463D01*
X0143200Y0159463D01*
X0146200Y0159463D02*
X0146200Y0154963D01*
X0146202Y0154887D01*
X0146208Y0154811D01*
X0146217Y0154736D01*
X0146231Y0154661D01*
X0146248Y0154587D01*
X0146269Y0154514D01*
X0146293Y0154442D01*
X0146322Y0154371D01*
X0146353Y0154302D01*
X0146388Y0154235D01*
X0146427Y0154170D01*
X0146469Y0154106D01*
X0146514Y0154045D01*
X0146562Y0153986D01*
X0146613Y0153930D01*
X0146667Y0153876D01*
X0146723Y0153825D01*
X0146782Y0153777D01*
X0146843Y0153732D01*
X0146907Y0153690D01*
X0146972Y0153651D01*
X0147039Y0153616D01*
X0147108Y0153585D01*
X0147179Y0153556D01*
X0147251Y0153532D01*
X0147324Y0153511D01*
X0147398Y0153494D01*
X0147473Y0153480D01*
X0147548Y0153471D01*
X0147624Y0153465D01*
X0147700Y0153463D01*
X0152464Y0153463D01*
X0146200Y0159463D02*
X0146202Y0159550D01*
X0146208Y0159637D01*
X0146217Y0159724D01*
X0146230Y0159810D01*
X0146247Y0159896D01*
X0146268Y0159981D01*
X0146293Y0160064D01*
X0146321Y0160147D01*
X0146352Y0160228D01*
X0146387Y0160308D01*
X0146426Y0160386D01*
X0146468Y0160463D01*
X0146513Y0160538D01*
X0146562Y0160610D01*
X0146613Y0160681D01*
X0146668Y0160749D01*
X0146725Y0160814D01*
X0146786Y0160877D01*
X0146849Y0160938D01*
X0146914Y0160995D01*
X0146982Y0161050D01*
X0147053Y0161101D01*
X0147125Y0161150D01*
X0147200Y0161195D01*
X0147277Y0161237D01*
X0147355Y0161276D01*
X0147435Y0161311D01*
X0147516Y0161342D01*
X0147599Y0161370D01*
X0147682Y0161395D01*
X0147767Y0161416D01*
X0147853Y0161433D01*
X0147939Y0161446D01*
X0148026Y0161455D01*
X0148113Y0161461D01*
X0148200Y0161463D01*
X0148200Y0164463D02*
X0148060Y0164461D01*
X0147920Y0164455D01*
X0147780Y0164445D01*
X0147640Y0164432D01*
X0147501Y0164414D01*
X0147362Y0164392D01*
X0147225Y0164367D01*
X0147087Y0164338D01*
X0146951Y0164305D01*
X0146816Y0164268D01*
X0146682Y0164227D01*
X0146549Y0164182D01*
X0146417Y0164134D01*
X0146287Y0164082D01*
X0146158Y0164027D01*
X0146031Y0163968D01*
X0145905Y0163905D01*
X0145781Y0163839D01*
X0145660Y0163770D01*
X0145540Y0163697D01*
X0145422Y0163620D01*
X0145307Y0163541D01*
X0145193Y0163458D01*
X0145083Y0163372D01*
X0144974Y0163283D01*
X0144868Y0163191D01*
X0144765Y0163096D01*
X0144664Y0162999D01*
X0144567Y0162898D01*
X0144472Y0162795D01*
X0144380Y0162689D01*
X0144291Y0162580D01*
X0144205Y0162470D01*
X0144122Y0162356D01*
X0144043Y0162241D01*
X0143966Y0162123D01*
X0143893Y0162003D01*
X0143824Y0161882D01*
X0143758Y0161758D01*
X0143695Y0161632D01*
X0143636Y0161505D01*
X0143581Y0161376D01*
X0143529Y0161246D01*
X0143481Y0161114D01*
X0143436Y0160981D01*
X0143395Y0160847D01*
X0143358Y0160712D01*
X0143325Y0160576D01*
X0143296Y0160438D01*
X0143271Y0160301D01*
X0143249Y0160162D01*
X0143231Y0160023D01*
X0143218Y0159883D01*
X0143208Y0159743D01*
X0143202Y0159603D01*
X0143200Y0159463D01*
X0174100Y0168763D02*
X0175400Y0170263D01*
X0179400Y0173263D02*
X0179400Y0177389D01*
X0179400Y0177391D01*
X0179399Y0177392D01*
X0179397Y0177392D01*
X0183300Y0173363D02*
X0183290Y0173253D01*
X0183276Y0173143D01*
X0183259Y0173034D01*
X0183237Y0172926D01*
X0183212Y0172819D01*
X0183183Y0172712D01*
X0183150Y0172607D01*
X0183113Y0172503D01*
X0183073Y0172400D01*
X0183030Y0172299D01*
X0182982Y0172199D01*
X0182932Y0172101D01*
X0182878Y0172005D01*
X0182820Y0171911D01*
X0182760Y0171819D01*
X0182696Y0171729D01*
X0182629Y0171641D01*
X0182559Y0171556D01*
X0182486Y0171473D01*
X0182410Y0171393D01*
X0182331Y0171315D01*
X0182250Y0171241D01*
X0182166Y0171169D01*
X0182080Y0171100D01*
X0181991Y0171035D01*
X0181900Y0170972D01*
X0181807Y0170913D01*
X0181712Y0170857D01*
X0181615Y0170804D01*
X0181516Y0170755D01*
X0181416Y0170709D01*
X0181314Y0170667D01*
X0181211Y0170629D01*
X0181106Y0170594D01*
X0181000Y0170562D01*
X0184600Y0168763D02*
X0184700Y0168765D01*
X0184799Y0168771D01*
X0184898Y0168780D01*
X0184997Y0168793D01*
X0185095Y0168811D01*
X0185193Y0168831D01*
X0185289Y0168856D01*
X0185385Y0168884D01*
X0185479Y0168916D01*
X0185572Y0168952D01*
X0185664Y0168991D01*
X0185754Y0169033D01*
X0185843Y0169079D01*
X0185929Y0169128D01*
X0186014Y0169181D01*
X0186097Y0169236D01*
X0186177Y0169295D01*
X0186255Y0169357D01*
X0186331Y0169422D01*
X0186404Y0169490D01*
X0186474Y0169560D01*
X0186542Y0169633D01*
X0186607Y0169709D01*
X0186669Y0169787D01*
X0186728Y0169867D01*
X0186784Y0169950D01*
X0186836Y0170034D01*
X0186885Y0170121D01*
X0186931Y0170210D01*
X0186974Y0170300D01*
X0187013Y0170391D01*
X0187048Y0170484D01*
X0187080Y0170579D01*
X0187109Y0170674D01*
X0187133Y0170771D01*
X0187154Y0170868D01*
X0187171Y0170966D01*
X0187185Y0171065D01*
X0187194Y0171164D01*
X0187200Y0171264D01*
X0187202Y0171364D01*
X0187200Y0171463D01*
X0183300Y0173363D02*
X0183300Y0177358D01*
X0183302Y0177369D01*
X0183306Y0177378D01*
X0183314Y0177386D01*
X0183323Y0177390D01*
X0183334Y0177392D01*
X0179400Y0173263D02*
X0179388Y0173205D01*
X0179373Y0173148D01*
X0179355Y0173091D01*
X0179333Y0173036D01*
X0179308Y0172982D01*
X0179279Y0172930D01*
X0179248Y0172880D01*
X0179213Y0172832D01*
X0179176Y0172786D01*
X0179136Y0172742D01*
X0179093Y0172701D01*
X0179048Y0172662D01*
X0179001Y0172626D01*
X0178951Y0172593D01*
X0178900Y0172564D01*
X0178900Y0172563D02*
X0178725Y0172505D01*
X0178551Y0172444D01*
X0178379Y0172378D01*
X0178208Y0172307D01*
X0178040Y0172233D01*
X0177873Y0172155D01*
X0177707Y0172073D01*
X0177544Y0171987D01*
X0177383Y0171897D01*
X0177225Y0171803D01*
X0177068Y0171706D01*
X0176914Y0171604D01*
X0176762Y0171499D01*
X0176613Y0171391D01*
X0176467Y0171279D01*
X0176323Y0171163D01*
X0176182Y0171044D01*
X0176044Y0170922D01*
X0175909Y0170796D01*
X0175777Y0170668D01*
X0175648Y0170536D01*
X0175522Y0170401D01*
X0175400Y0170263D01*
X0177200Y0161363D02*
X0177202Y0161542D01*
X0177209Y0161721D01*
X0177219Y0161899D01*
X0177235Y0162077D01*
X0177254Y0162255D01*
X0177278Y0162432D01*
X0177306Y0162609D01*
X0177338Y0162785D01*
X0177374Y0162960D01*
X0177415Y0163134D01*
X0177460Y0163307D01*
X0177509Y0163479D01*
X0177562Y0163650D01*
X0177619Y0163819D01*
X0177681Y0163987D01*
X0177746Y0164154D01*
X0177816Y0164318D01*
X0177889Y0164481D01*
X0177966Y0164643D01*
X0178048Y0164802D01*
X0178133Y0164959D01*
X0178221Y0165115D01*
X0178314Y0165268D01*
X0178410Y0165418D01*
X0178510Y0165567D01*
X0178613Y0165713D01*
X0178720Y0165856D01*
X0178830Y0165997D01*
X0178944Y0166135D01*
X0179061Y0166270D01*
X0179181Y0166403D01*
X0179305Y0166532D01*
X0179431Y0166658D01*
X0179560Y0166782D01*
X0179693Y0166902D01*
X0179828Y0167019D01*
X0179966Y0167133D01*
X0180107Y0167243D01*
X0180250Y0167350D01*
X0180396Y0167453D01*
X0180545Y0167553D01*
X0180695Y0167649D01*
X0180848Y0167742D01*
X0181004Y0167830D01*
X0181161Y0167915D01*
X0181320Y0167997D01*
X0181482Y0168074D01*
X0181645Y0168147D01*
X0181809Y0168217D01*
X0181976Y0168282D01*
X0182144Y0168344D01*
X0182313Y0168401D01*
X0182484Y0168454D01*
X0182656Y0168503D01*
X0182829Y0168548D01*
X0183003Y0168589D01*
X0183178Y0168625D01*
X0183354Y0168657D01*
X0183531Y0168685D01*
X0183708Y0168709D01*
X0183886Y0168728D01*
X0184064Y0168744D01*
X0184242Y0168754D01*
X0184421Y0168761D01*
X0184600Y0168763D01*
X0184700Y0166463D02*
X0184560Y0166461D01*
X0184420Y0166455D01*
X0184280Y0166445D01*
X0184140Y0166432D01*
X0184001Y0166414D01*
X0183862Y0166392D01*
X0183725Y0166367D01*
X0183587Y0166338D01*
X0183451Y0166305D01*
X0183316Y0166268D01*
X0183182Y0166227D01*
X0183049Y0166182D01*
X0182917Y0166134D01*
X0182787Y0166082D01*
X0182658Y0166027D01*
X0182531Y0165968D01*
X0182405Y0165905D01*
X0182281Y0165839D01*
X0182160Y0165770D01*
X0182040Y0165697D01*
X0181922Y0165620D01*
X0181807Y0165541D01*
X0181693Y0165458D01*
X0181583Y0165372D01*
X0181474Y0165283D01*
X0181368Y0165191D01*
X0181265Y0165096D01*
X0181164Y0164999D01*
X0181067Y0164898D01*
X0180972Y0164795D01*
X0180880Y0164689D01*
X0180791Y0164580D01*
X0180705Y0164470D01*
X0180622Y0164356D01*
X0180543Y0164241D01*
X0180466Y0164123D01*
X0180393Y0164003D01*
X0180324Y0163882D01*
X0180258Y0163758D01*
X0180195Y0163632D01*
X0180136Y0163505D01*
X0180081Y0163376D01*
X0180029Y0163246D01*
X0179981Y0163114D01*
X0179936Y0162981D01*
X0179895Y0162847D01*
X0179858Y0162712D01*
X0179825Y0162576D01*
X0179796Y0162438D01*
X0179771Y0162301D01*
X0179749Y0162162D01*
X0179731Y0162023D01*
X0179718Y0161883D01*
X0179708Y0161743D01*
X0179702Y0161603D01*
X0179700Y0161463D01*
X0184700Y0160063D02*
X0184702Y0160142D01*
X0184708Y0160220D01*
X0184717Y0160298D01*
X0184731Y0160375D01*
X0184748Y0160452D01*
X0184769Y0160527D01*
X0184794Y0160602D01*
X0184822Y0160675D01*
X0184854Y0160747D01*
X0184889Y0160817D01*
X0184928Y0160886D01*
X0184970Y0160952D01*
X0185015Y0161016D01*
X0185063Y0161078D01*
X0185114Y0161137D01*
X0185169Y0161194D01*
X0185226Y0161249D01*
X0185285Y0161300D01*
X0185347Y0161348D01*
X0185411Y0161393D01*
X0185477Y0161435D01*
X0185546Y0161474D01*
X0185616Y0161509D01*
X0185688Y0161541D01*
X0185761Y0161569D01*
X0185836Y0161594D01*
X0185911Y0161615D01*
X0185988Y0161632D01*
X0186065Y0161646D01*
X0186143Y0161655D01*
X0186221Y0161661D01*
X0186300Y0161663D01*
X0181000Y0170563D02*
X0180727Y0170431D01*
X0180457Y0170292D01*
X0180191Y0170147D01*
X0179928Y0169996D01*
X0179668Y0169838D01*
X0179413Y0169674D01*
X0179161Y0169504D01*
X0178914Y0169328D01*
X0178671Y0169146D01*
X0178433Y0168959D01*
X0178199Y0168765D01*
X0177970Y0168567D01*
X0177745Y0168362D01*
X0177526Y0168152D01*
X0177312Y0167938D01*
X0177103Y0167718D01*
X0176899Y0167493D01*
X0176701Y0167263D01*
X0191200Y0177384D02*
X0191201Y0177388D01*
X0191204Y0177391D01*
X0191208Y0177392D01*
X0203000Y0177373D02*
X0203000Y0162163D01*
X0203002Y0162044D01*
X0203008Y0161926D01*
X0203017Y0161808D01*
X0203030Y0161690D01*
X0203047Y0161572D01*
X0203068Y0161456D01*
X0203093Y0161340D01*
X0203121Y0161224D01*
X0203153Y0161110D01*
X0203188Y0160997D01*
X0203228Y0160885D01*
X0203270Y0160775D01*
X0203317Y0160665D01*
X0203366Y0160558D01*
X0203420Y0160452D01*
X0203476Y0160347D01*
X0203536Y0160245D01*
X0203599Y0160145D01*
X0203665Y0160046D01*
X0203735Y0159950D01*
X0203807Y0159856D01*
X0203883Y0159765D01*
X0203961Y0159675D01*
X0204042Y0159589D01*
X0204126Y0159505D01*
X0204212Y0159424D01*
X0204302Y0159346D01*
X0204393Y0159270D01*
X0204487Y0159198D01*
X0204583Y0159128D01*
X0204682Y0159062D01*
X0204782Y0158999D01*
X0204884Y0158939D01*
X0204989Y0158883D01*
X0205095Y0158829D01*
X0205202Y0158780D01*
X0205312Y0158733D01*
X0205422Y0158691D01*
X0205534Y0158651D01*
X0205647Y0158616D01*
X0205761Y0158584D01*
X0205877Y0158556D01*
X0205993Y0158531D01*
X0206109Y0158510D01*
X0206227Y0158493D01*
X0206345Y0158480D01*
X0206463Y0158471D01*
X0206581Y0158465D01*
X0206700Y0158463D01*
X0211436Y0158463D01*
X0218799Y0168262D02*
X0219061Y0168153D01*
X0219320Y0168037D01*
X0219576Y0167915D01*
X0219829Y0167787D01*
X0220079Y0167652D01*
X0220325Y0167512D01*
X0220568Y0167365D01*
X0220808Y0167213D01*
X0221043Y0167054D01*
X0221275Y0166891D01*
X0221502Y0166721D01*
X0221725Y0166546D01*
X0221944Y0166366D01*
X0222159Y0166180D01*
X0222369Y0165989D01*
X0222574Y0165793D01*
X0222774Y0165592D01*
X0222969Y0165386D01*
X0223160Y0165176D01*
X0223345Y0164961D01*
X0223524Y0164741D01*
X0223525Y0164742D02*
X0224751Y0162484D01*
X0225623Y0161463D01*
X0246436Y0161463D01*
X0249436Y0158463D01*
X0251700Y0163963D02*
X0251826Y0163961D01*
X0251951Y0163955D01*
X0252076Y0163945D01*
X0252201Y0163931D01*
X0252326Y0163914D01*
X0252450Y0163892D01*
X0252573Y0163867D01*
X0252695Y0163837D01*
X0252816Y0163804D01*
X0252936Y0163767D01*
X0253055Y0163727D01*
X0253172Y0163682D01*
X0253289Y0163634D01*
X0253403Y0163582D01*
X0253516Y0163527D01*
X0253627Y0163468D01*
X0253736Y0163406D01*
X0253843Y0163340D01*
X0253948Y0163271D01*
X0254051Y0163199D01*
X0254152Y0163124D01*
X0254250Y0163045D01*
X0254345Y0162963D01*
X0254438Y0162879D01*
X0254528Y0162791D01*
X0254616Y0162701D01*
X0254700Y0162608D01*
X0254782Y0162513D01*
X0254861Y0162415D01*
X0254936Y0162314D01*
X0255008Y0162211D01*
X0255077Y0162106D01*
X0255143Y0161999D01*
X0255205Y0161890D01*
X0255264Y0161779D01*
X0255319Y0161666D01*
X0255371Y0161552D01*
X0255419Y0161435D01*
X0255464Y0161318D01*
X0255504Y0161199D01*
X0255541Y0161079D01*
X0255574Y0160958D01*
X0255604Y0160836D01*
X0255629Y0160713D01*
X0255651Y0160589D01*
X0255668Y0160464D01*
X0255682Y0160339D01*
X0255692Y0160214D01*
X0255698Y0160089D01*
X0255700Y0159963D01*
X0255700Y0149963D01*
X0255698Y0149887D01*
X0255692Y0149811D01*
X0255683Y0149736D01*
X0255669Y0149661D01*
X0255652Y0149587D01*
X0255631Y0149514D01*
X0255607Y0149442D01*
X0255578Y0149371D01*
X0255547Y0149302D01*
X0255512Y0149235D01*
X0255473Y0149170D01*
X0255431Y0149106D01*
X0255386Y0149045D01*
X0255338Y0148986D01*
X0255287Y0148930D01*
X0255233Y0148876D01*
X0255177Y0148825D01*
X0255118Y0148777D01*
X0255057Y0148732D01*
X0254993Y0148690D01*
X0254928Y0148651D01*
X0254861Y0148616D01*
X0254792Y0148585D01*
X0254721Y0148556D01*
X0254649Y0148532D01*
X0254576Y0148511D01*
X0254502Y0148494D01*
X0254427Y0148480D01*
X0254352Y0148471D01*
X0254276Y0148465D01*
X0254200Y0148463D01*
X0249436Y0148463D01*
X0228964Y0143463D02*
X0227200Y0143463D01*
X0227060Y0143465D01*
X0226920Y0143471D01*
X0226780Y0143481D01*
X0226640Y0143494D01*
X0226501Y0143512D01*
X0226362Y0143534D01*
X0226225Y0143559D01*
X0226087Y0143588D01*
X0225951Y0143621D01*
X0225816Y0143658D01*
X0225682Y0143699D01*
X0225549Y0143744D01*
X0225417Y0143792D01*
X0225287Y0143844D01*
X0225158Y0143899D01*
X0225031Y0143958D01*
X0224905Y0144021D01*
X0224781Y0144087D01*
X0224660Y0144156D01*
X0224540Y0144229D01*
X0224422Y0144306D01*
X0224307Y0144385D01*
X0224193Y0144468D01*
X0224083Y0144554D01*
X0223974Y0144643D01*
X0223868Y0144735D01*
X0223765Y0144830D01*
X0223664Y0144927D01*
X0223567Y0145028D01*
X0223472Y0145131D01*
X0223380Y0145237D01*
X0223291Y0145346D01*
X0223205Y0145456D01*
X0223122Y0145570D01*
X0223043Y0145685D01*
X0222966Y0145803D01*
X0222893Y0145923D01*
X0222824Y0146044D01*
X0222758Y0146168D01*
X0222695Y0146294D01*
X0222636Y0146421D01*
X0222581Y0146550D01*
X0222529Y0146680D01*
X0222481Y0146812D01*
X0222436Y0146945D01*
X0222395Y0147079D01*
X0222358Y0147214D01*
X0222325Y0147350D01*
X0222296Y0147488D01*
X0222271Y0147625D01*
X0222249Y0147764D01*
X0222231Y0147903D01*
X0222218Y0148043D01*
X0222208Y0148183D01*
X0222202Y0148323D01*
X0222200Y0148463D01*
X0222200Y0148963D01*
X0222198Y0149023D01*
X0222193Y0149084D01*
X0222184Y0149143D01*
X0222171Y0149202D01*
X0222155Y0149261D01*
X0222135Y0149318D01*
X0222112Y0149373D01*
X0222085Y0149428D01*
X0222056Y0149480D01*
X0222023Y0149531D01*
X0221987Y0149580D01*
X0221949Y0149626D01*
X0221907Y0149670D01*
X0221863Y0149712D01*
X0221817Y0149750D01*
X0221768Y0149786D01*
X0221717Y0149819D01*
X0221665Y0149848D01*
X0221610Y0149875D01*
X0221555Y0149898D01*
X0221498Y0149918D01*
X0221439Y0149934D01*
X0221380Y0149947D01*
X0221321Y0149956D01*
X0221260Y0149961D01*
X0221200Y0149963D01*
X0221140Y0149965D01*
X0221079Y0149970D01*
X0221020Y0149979D01*
X0220961Y0149992D01*
X0220902Y0150008D01*
X0220845Y0150028D01*
X0220790Y0150051D01*
X0220735Y0150078D01*
X0220683Y0150107D01*
X0220632Y0150140D01*
X0220583Y0150176D01*
X0220537Y0150214D01*
X0220493Y0150256D01*
X0220451Y0150300D01*
X0220413Y0150346D01*
X0220377Y0150395D01*
X0220344Y0150446D01*
X0220315Y0150498D01*
X0220288Y0150553D01*
X0220265Y0150608D01*
X0220245Y0150665D01*
X0220229Y0150724D01*
X0220216Y0150783D01*
X0220207Y0150842D01*
X0220202Y0150903D01*
X0220200Y0150963D01*
X0220200Y0158963D01*
X0222700Y0159063D02*
X0222700Y0154963D01*
X0222702Y0154887D01*
X0222708Y0154811D01*
X0222717Y0154736D01*
X0222731Y0154661D01*
X0222748Y0154587D01*
X0222769Y0154514D01*
X0222793Y0154442D01*
X0222822Y0154371D01*
X0222853Y0154302D01*
X0222888Y0154235D01*
X0222927Y0154170D01*
X0222969Y0154106D01*
X0223014Y0154045D01*
X0223062Y0153986D01*
X0223113Y0153930D01*
X0223167Y0153876D01*
X0223223Y0153825D01*
X0223282Y0153777D01*
X0223343Y0153732D01*
X0223407Y0153690D01*
X0223472Y0153651D01*
X0223539Y0153616D01*
X0223608Y0153585D01*
X0223679Y0153556D01*
X0223751Y0153532D01*
X0223824Y0153511D01*
X0223898Y0153494D01*
X0223973Y0153480D01*
X0224048Y0153471D01*
X0224124Y0153465D01*
X0224200Y0153463D01*
X0228964Y0153463D01*
X0217700Y0149963D02*
X0217700Y0159463D01*
X0222700Y0159063D02*
X0222698Y0159225D01*
X0222692Y0159387D01*
X0222682Y0159548D01*
X0222669Y0159710D01*
X0222651Y0159871D01*
X0222630Y0160031D01*
X0222604Y0160191D01*
X0222575Y0160350D01*
X0222542Y0160509D01*
X0222505Y0160666D01*
X0222465Y0160823D01*
X0222420Y0160979D01*
X0222372Y0161133D01*
X0222320Y0161287D01*
X0222265Y0161439D01*
X0222205Y0161590D01*
X0222143Y0161739D01*
X0222076Y0161886D01*
X0222006Y0162032D01*
X0221933Y0162177D01*
X0221856Y0162319D01*
X0221775Y0162460D01*
X0221691Y0162598D01*
X0221604Y0162735D01*
X0221514Y0162869D01*
X0221420Y0163001D01*
X0221324Y0163131D01*
X0221224Y0163258D01*
X0221121Y0163383D01*
X0221015Y0163506D01*
X0220906Y0163626D01*
X0220795Y0163743D01*
X0220680Y0163858D01*
X0220563Y0163969D01*
X0220443Y0164078D01*
X0220320Y0164184D01*
X0220195Y0164287D01*
X0220068Y0164387D01*
X0219938Y0164483D01*
X0219806Y0164577D01*
X0219672Y0164667D01*
X0219535Y0164754D01*
X0219397Y0164838D01*
X0219256Y0164919D01*
X0219114Y0164996D01*
X0218969Y0165069D01*
X0218823Y0165139D01*
X0218676Y0165206D01*
X0218527Y0165268D01*
X0218376Y0165328D01*
X0218224Y0165383D01*
X0218070Y0165435D01*
X0217916Y0165483D01*
X0217760Y0165528D01*
X0217603Y0165568D01*
X0217446Y0165605D01*
X0217287Y0165638D01*
X0217128Y0165667D01*
X0216968Y0165693D01*
X0216808Y0165714D01*
X0216647Y0165732D01*
X0216485Y0165745D01*
X0216324Y0165755D01*
X0216162Y0165761D01*
X0216000Y0165763D01*
X0224900Y0167163D02*
X0225018Y0167077D01*
X0225134Y0166988D01*
X0225247Y0166896D01*
X0225358Y0166801D01*
X0225466Y0166703D01*
X0225572Y0166603D01*
X0225675Y0166500D01*
X0225775Y0166394D01*
X0225872Y0166285D01*
X0225967Y0166174D01*
X0226058Y0166061D01*
X0226147Y0165945D01*
X0226232Y0165827D01*
X0226315Y0165706D01*
X0226394Y0165584D01*
X0226470Y0165460D01*
X0226543Y0165333D01*
X0226612Y0165205D01*
X0226678Y0165075D01*
X0226741Y0164943D01*
X0226800Y0164810D01*
X0226855Y0164675D01*
X0226907Y0164539D01*
X0226956Y0164401D01*
X0227000Y0164263D01*
X0227018Y0164222D01*
X0227039Y0164183D01*
X0227064Y0164146D01*
X0227092Y0164111D01*
X0227122Y0164079D01*
X0227155Y0164049D01*
X0227191Y0164022D01*
X0227228Y0163998D01*
X0227267Y0163977D01*
X0227308Y0163959D01*
X0227351Y0163945D01*
X0227394Y0163935D01*
X0227438Y0163928D01*
X0227482Y0163924D01*
X0227527Y0163925D01*
X0227571Y0163929D01*
X0227615Y0163936D01*
X0227658Y0163948D01*
X0227700Y0163963D01*
X0251700Y0163963D01*
X0226700Y0177333D02*
X0226641Y0177392D01*
X0218800Y0177425D02*
X0218798Y0177415D01*
X0218794Y0177406D01*
X0218786Y0177398D01*
X0218777Y0177394D01*
X0218767Y0177392D01*
X0203019Y0177392D02*
X0203012Y0177391D01*
X0203006Y0177386D01*
X0203001Y0177380D01*
X0203000Y0177373D01*
X0215700Y0161463D02*
X0215787Y0161461D01*
X0215874Y0161455D01*
X0215961Y0161446D01*
X0216047Y0161433D01*
X0216133Y0161416D01*
X0216218Y0161395D01*
X0216301Y0161370D01*
X0216384Y0161342D01*
X0216465Y0161311D01*
X0216545Y0161276D01*
X0216623Y0161237D01*
X0216700Y0161195D01*
X0216775Y0161150D01*
X0216847Y0161101D01*
X0216918Y0161050D01*
X0216986Y0160995D01*
X0217051Y0160938D01*
X0217114Y0160877D01*
X0217175Y0160814D01*
X0217232Y0160749D01*
X0217287Y0160681D01*
X0217338Y0160610D01*
X0217387Y0160538D01*
X0217432Y0160463D01*
X0217474Y0160386D01*
X0217513Y0160308D01*
X0217548Y0160228D01*
X0217579Y0160147D01*
X0217607Y0160064D01*
X0217632Y0159981D01*
X0217653Y0159896D01*
X0217670Y0159810D01*
X0217683Y0159724D01*
X0217692Y0159637D01*
X0217698Y0159550D01*
X0217700Y0159463D01*
X0220200Y0158963D02*
X0220198Y0159096D01*
X0220192Y0159230D01*
X0220182Y0159363D01*
X0220168Y0159495D01*
X0220151Y0159627D01*
X0220129Y0159759D01*
X0220104Y0159890D01*
X0220074Y0160020D01*
X0220041Y0160149D01*
X0220004Y0160277D01*
X0219963Y0160404D01*
X0219918Y0160530D01*
X0219870Y0160654D01*
X0219818Y0160777D01*
X0219763Y0160898D01*
X0219703Y0161018D01*
X0219641Y0161136D01*
X0219575Y0161251D01*
X0219505Y0161365D01*
X0219432Y0161477D01*
X0219356Y0161586D01*
X0219277Y0161694D01*
X0219194Y0161798D01*
X0219109Y0161901D01*
X0219020Y0162000D01*
X0218929Y0162097D01*
X0218834Y0162192D01*
X0218737Y0162283D01*
X0218638Y0162372D01*
X0218535Y0162457D01*
X0218431Y0162540D01*
X0218323Y0162619D01*
X0218214Y0162695D01*
X0218102Y0162768D01*
X0217988Y0162838D01*
X0217873Y0162904D01*
X0217755Y0162966D01*
X0217635Y0163026D01*
X0217514Y0163081D01*
X0217391Y0163133D01*
X0217267Y0163181D01*
X0217141Y0163226D01*
X0217014Y0163267D01*
X0216886Y0163304D01*
X0216757Y0163337D01*
X0216627Y0163367D01*
X0216496Y0163392D01*
X0216364Y0163414D01*
X0216232Y0163431D01*
X0216100Y0163445D01*
X0215967Y0163455D01*
X0215833Y0163461D01*
X0215700Y0163463D01*
X0217700Y0149963D02*
X0217698Y0149887D01*
X0217692Y0149811D01*
X0217683Y0149736D01*
X0217669Y0149661D01*
X0217652Y0149587D01*
X0217631Y0149514D01*
X0217607Y0149442D01*
X0217578Y0149371D01*
X0217547Y0149302D01*
X0217512Y0149235D01*
X0217473Y0149170D01*
X0217431Y0149106D01*
X0217386Y0149045D01*
X0217338Y0148986D01*
X0217287Y0148930D01*
X0217233Y0148876D01*
X0217177Y0148825D01*
X0217118Y0148777D01*
X0217057Y0148732D01*
X0216993Y0148690D01*
X0216928Y0148651D01*
X0216861Y0148616D01*
X0216792Y0148585D01*
X0216721Y0148556D01*
X0216649Y0148532D01*
X0216576Y0148511D01*
X0216502Y0148494D01*
X0216427Y0148480D01*
X0216352Y0148471D01*
X0216276Y0148465D01*
X0216200Y0148463D01*
X0211436Y0148463D01*
D37*
X0228600Y0171263D03*
X0252300Y0012063D03*
D38*
X0201200Y0148463D03*
D39*
X0165700Y0041463D03*
M02*
