%
M48
M72
T01C0.01378
T02C0.01575
T03C0.01969
T04C0.02165
T05C0.02756
T06C0.03200
T07C0.03937
T08C0.04000
T09C0.04331
T10C0.11811
%
T01
X252300Y12063
X228600Y171263
T02
X201200Y148463
T03
X44700Y30463
X73700Y30463
X104200Y33963
X142200Y35963
X177400Y35463
X187700Y35463
X194200Y34963
X200600Y34763
X164200Y58963
X130200Y56463
X147200Y85963
X134700Y88963
X146200Y97463
X146700Y103963
X158200Y101463
X166700Y104963
X202700Y82963
X197200Y67963
X250200Y42463
X290700Y31963
X349700Y30463
X349700Y75463
X254200Y96463
X254200Y103963
X235200Y100463
X235200Y116463
X219000Y132363
X218200Y138463
X218700Y144963
X183200Y133963
X180200Y139463
X181200Y144963
X131999Y166491
X40200Y105463
X86200Y87963
X258200Y145463
X265700Y146963
X291602Y158691
X339100Y127263
T04
X165700Y41463
T05
X269948Y30739
X275854Y30739
T06
X308200Y42963
X318200Y42963
X336700Y42963
X346700Y42963
X143700Y123463
X133700Y123463
X261200Y160463
X271200Y160463
X96200Y42963
X86200Y42963
X67700Y42963
X57700Y42963
T07
X263200Y41963
T08
X151700Y58463
X141700Y58463
X141700Y68963
X151700Y68963
X109200Y119463
X99200Y119463
X294200Y118963
X314200Y118963
X304200Y138963
T09
X286877Y89794
X286877Y64203
X115224Y64203
X115224Y89794
T10
X23098Y112628
X23098Y41762
X149082Y190187
X253019Y190187
X379003Y112628
X379003Y41762
M30
