G75*
%MOIN*%
%OFA0B0*%
%FSLAX25Y25*%
%IPPOS*%
%LPD*%
%AMOC8*
5,1,8,0,0,1.08239X$1,22.5*
%
%ADD10C,0.12611*%
%ADD11R,0.05500X0.03000*%
%ADD12R,0.03000X0.05500*%
%ADD13R,0.07099X0.07898*%
%ADD14R,0.06706X0.08674*%
%ADD15OC8,0.07100*%
%ADD16C,0.07100*%
%ADD17R,0.06312X0.08280*%
%ADD18R,0.09461X0.03162*%
%ADD19R,0.07898X0.07099*%
%ADD20C,0.06800*%
%ADD21R,0.08674X0.06706*%
%ADD22R,0.05524X0.05524*%
%ADD23C,0.08200*%
%ADD24R,0.01575X0.05512*%
%ADD25R,0.07480X0.09252*%
%ADD26C,0.04800*%
%ADD27C,0.04737*%
%ADD28C,0.05524*%
%ADD29C,0.04369*%
%ADD30C,0.09400*%
%ADD31C,0.08400*%
%ADD32C,0.03778*%
%ADD33C,0.03975*%
%ADD34C,0.05131*%
D10*
X0023098Y0041762D03*
X0023098Y0112628D03*
X0149082Y0190187D03*
X0253019Y0190187D03*
X0379003Y0112628D03*
X0379003Y0041762D03*
D11*
X0231676Y0048191D03*
X0231676Y0051341D03*
X0231676Y0054491D03*
X0231676Y0057640D03*
X0231676Y0060790D03*
X0231676Y0063939D03*
X0231676Y0067089D03*
X0231676Y0070239D03*
X0231676Y0073388D03*
X0231676Y0076538D03*
X0231676Y0079687D03*
X0231676Y0082837D03*
X0231676Y0085987D03*
X0231676Y0089136D03*
X0231676Y0092286D03*
X0231676Y0095435D03*
X0170259Y0095435D03*
X0170259Y0092286D03*
X0170259Y0089136D03*
X0170259Y0085987D03*
X0170259Y0082837D03*
X0170259Y0079687D03*
X0170259Y0076538D03*
X0170259Y0073388D03*
X0170259Y0070239D03*
X0170259Y0067089D03*
X0170259Y0063939D03*
X0170259Y0060790D03*
X0170259Y0057640D03*
X0170259Y0054491D03*
X0170259Y0051341D03*
X0170259Y0048191D03*
D12*
X0177346Y0041105D03*
X0180495Y0041105D03*
X0183645Y0041105D03*
X0186794Y0041105D03*
X0189944Y0041105D03*
X0193094Y0041105D03*
X0196243Y0041105D03*
X0199393Y0041105D03*
X0202543Y0041105D03*
X0205692Y0041105D03*
X0208842Y0041105D03*
X0211991Y0041105D03*
X0215141Y0041105D03*
X0218291Y0041105D03*
X0221440Y0041105D03*
X0224590Y0041105D03*
X0224590Y0102522D03*
X0221440Y0102522D03*
X0218291Y0102522D03*
X0215141Y0102522D03*
X0211991Y0102522D03*
X0208842Y0102522D03*
X0205692Y0102522D03*
X0202543Y0102522D03*
X0199393Y0102522D03*
X0196243Y0102522D03*
X0193094Y0102522D03*
X0189944Y0102522D03*
X0186794Y0102522D03*
X0183645Y0102522D03*
X0180495Y0102522D03*
X0177346Y0102522D03*
D13*
X0127298Y0104463D03*
X0116102Y0104463D03*
X0183602Y0021963D03*
X0194798Y0021963D03*
X0206102Y0021963D03*
X0217298Y0021963D03*
X0228102Y0021963D03*
X0239298Y0021963D03*
X0287502Y0044763D03*
X0298698Y0044763D03*
D14*
X0276606Y0055963D03*
X0264794Y0055963D03*
X0264794Y0067463D03*
X0276606Y0067463D03*
X0276606Y0079463D03*
X0264794Y0079463D03*
X0167106Y0034463D03*
X0155294Y0034463D03*
X0140606Y0047963D03*
X0128794Y0047963D03*
X0128794Y0078963D03*
X0140606Y0078963D03*
D15*
X0096200Y0042963D03*
X0067700Y0042963D03*
X0133700Y0123463D03*
X0271200Y0160463D03*
X0308200Y0042963D03*
X0346700Y0042963D03*
D16*
X0336700Y0042963D03*
X0318200Y0042963D03*
X0143700Y0123463D03*
X0261200Y0160463D03*
X0086200Y0042963D03*
X0057700Y0042963D03*
D17*
X0245976Y0062302D03*
X0255424Y0062302D03*
X0255424Y0079624D03*
X0245976Y0079624D03*
D18*
X0249436Y0128463D03*
X0249436Y0133463D03*
X0249436Y0138463D03*
X0249436Y0143463D03*
X0249436Y0148463D03*
X0249436Y0153463D03*
X0249436Y0158463D03*
X0228964Y0158463D03*
X0228964Y0153463D03*
X0228964Y0148463D03*
X0228964Y0143463D03*
X0228964Y0138463D03*
X0228964Y0133463D03*
X0228964Y0128463D03*
X0211436Y0128463D03*
X0211436Y0133463D03*
X0211436Y0138463D03*
X0211436Y0143463D03*
X0211436Y0148463D03*
X0211436Y0153463D03*
X0211436Y0158463D03*
X0190964Y0158463D03*
X0190964Y0153463D03*
X0190964Y0148463D03*
X0190964Y0143463D03*
X0190964Y0138463D03*
X0190964Y0133463D03*
X0190964Y0128463D03*
X0172936Y0128463D03*
X0172936Y0133463D03*
X0172936Y0138463D03*
X0172936Y0143463D03*
X0172936Y0148463D03*
X0172936Y0153463D03*
X0172936Y0158463D03*
X0152464Y0158463D03*
X0152464Y0153463D03*
X0152464Y0148463D03*
X0152464Y0143463D03*
X0152464Y0138463D03*
X0152464Y0133463D03*
X0152464Y0128463D03*
D19*
X0124200Y0124061D03*
X0124200Y0112865D03*
X0252240Y0026101D03*
X0252240Y0014904D03*
D20*
X0294200Y0115963D02*
X0294200Y0121963D01*
X0314200Y0121963D02*
X0314200Y0115963D01*
X0307200Y0138963D02*
X0301200Y0138963D01*
D21*
X0280200Y0154057D03*
X0280200Y0165869D03*
D22*
X0208834Y0029963D03*
X0200566Y0029963D03*
D23*
X0151700Y0058463D03*
X0141700Y0058463D03*
X0141700Y0068963D03*
X0151700Y0068963D03*
X0109200Y0119463D03*
X0099200Y0119463D03*
D24*
X0171523Y0177392D03*
X0175460Y0177392D03*
X0179397Y0177392D03*
X0183334Y0177392D03*
X0187271Y0177392D03*
X0191208Y0177392D03*
X0195145Y0177392D03*
X0199082Y0177392D03*
X0203019Y0177392D03*
X0206956Y0177392D03*
X0210893Y0177392D03*
X0214830Y0177392D03*
X0218767Y0177392D03*
X0222704Y0177392D03*
X0226641Y0177392D03*
X0230578Y0177392D03*
D25*
X0240027Y0190187D03*
X0162074Y0190187D03*
D26*
X0181200Y0144963D03*
X0180200Y0139463D03*
X0183200Y0133963D03*
X0218200Y0138463D03*
X0219000Y0132363D03*
X0218700Y0144963D03*
X0258200Y0145463D03*
X0265700Y0146963D03*
X0254200Y0103963D03*
X0254200Y0096463D03*
X0235200Y0100463D03*
X0146700Y0103963D03*
X0146200Y0097463D03*
X0134700Y0088963D03*
X0130200Y0056463D03*
X0142200Y0035963D03*
X0177400Y0035463D03*
X0187700Y0035463D03*
X0194200Y0034963D03*
X0200600Y0034763D03*
X0250200Y0042463D03*
D27*
X0044700Y0030463D03*
X0073700Y0030463D03*
X0104200Y0033963D03*
X0164200Y0058963D03*
X0197200Y0067963D03*
X0202700Y0082963D03*
X0166700Y0104963D03*
X0158200Y0101463D03*
X0086200Y0087963D03*
X0040200Y0105463D03*
X0131999Y0166491D03*
X0235200Y0116463D03*
X0291602Y0158691D03*
X0349700Y0075463D03*
X0349700Y0030463D03*
X0290700Y0031963D03*
D28*
X0275854Y0030739D03*
X0269948Y0030739D03*
X0147200Y0085963D03*
D29*
X0339100Y0127263D03*
D30*
X0263200Y0041963D03*
D31*
X0286877Y0064203D03*
X0286877Y0089794D03*
X0115224Y0089794D03*
X0115224Y0064203D03*
D32*
X0252300Y0012063D03*
X0228600Y0171263D03*
D33*
X0201200Y0148463D03*
D34*
X0165700Y0041463D03*
M02*
