G75*
%MOIN*%
%OFA0B0*%
%FSLAX25Y25*%
%IPPOS*%
%LPD*%
%AMOC8*
5,1,8,0,0,1.08239X$1,22.5*
%
%ADD10C,0.03898*%
%ADD11R,0.05500X0.01370*%
%ADD12OC8,0.06300*%
%ADD13C,0.06300*%
%ADD14R,0.05906X0.07874*%
%ADD15R,0.21260X0.24409*%
%ADD16R,0.03937X0.06299*%
%ADD17C,0.06000*%
%ADD18R,0.07874X0.05906*%
%ADD19R,0.05512X0.03937*%
%ADD20R,0.04724X0.04724*%
%ADD21C,0.07400*%
%ADD22R,0.06299X0.07098*%
%ADD23R,0.07098X0.06299*%
%ADD24R,0.07087X0.05512*%
%ADD25R,0.05512X0.07087*%
%ADD26C,0.01200*%
%ADD27C,0.01600*%
%ADD28C,0.04000*%
%ADD29C,0.02400*%
%ADD30C,0.04000*%
%ADD31C,0.03937*%
%ADD32C,0.02200*%
%ADD33C,0.04724*%
%ADD34C,0.03569*%
%ADD35C,0.08600*%
%ADD36C,0.07600*%
%ADD37C,0.02000*%
%ADD38C,0.02978*%
%ADD39C,0.03200*%
%ADD40C,0.00600*%
%ADD41C,0.03175*%
%ADD42C,0.04331*%
D10*
X0173542Y0051578D02*
X0175550Y0051578D01*
X0173542Y0051578D02*
X0173542Y0051616D01*
X0175550Y0051616D01*
X0175550Y0051578D01*
X0175550Y0057483D02*
X0173542Y0057483D01*
X0173542Y0057521D01*
X0175550Y0057521D01*
X0175550Y0057483D01*
X0175550Y0063389D02*
X0173542Y0063389D01*
X0173542Y0063427D01*
X0175550Y0063427D01*
X0175550Y0063389D01*
X0175550Y0069294D02*
X0173542Y0069294D01*
X0173542Y0069332D01*
X0175550Y0069332D01*
X0175550Y0069294D01*
X0175550Y0075200D02*
X0173542Y0075200D01*
X0173542Y0075238D01*
X0175550Y0075238D01*
X0175550Y0075200D01*
X0175550Y0081105D02*
X0173542Y0081105D01*
X0173542Y0081143D01*
X0175550Y0081143D01*
X0175550Y0081105D01*
X0175550Y0087011D02*
X0173542Y0087011D01*
X0173542Y0087049D01*
X0175550Y0087049D01*
X0175550Y0087011D01*
X0226850Y0087049D02*
X0228858Y0087049D01*
X0228858Y0087011D01*
X0226850Y0087011D01*
X0226850Y0087049D01*
X0226850Y0081143D02*
X0228858Y0081143D01*
X0228858Y0081105D01*
X0226850Y0081105D01*
X0226850Y0081143D01*
X0226850Y0075238D02*
X0228858Y0075238D01*
X0228858Y0075200D01*
X0226850Y0075200D01*
X0226850Y0075238D01*
X0226850Y0069332D02*
X0228858Y0069332D01*
X0228858Y0069294D01*
X0226850Y0069294D01*
X0226850Y0069332D01*
X0226850Y0063427D02*
X0228858Y0063427D01*
X0228858Y0063389D01*
X0226850Y0063389D01*
X0226850Y0063427D01*
X0226850Y0057521D02*
X0228858Y0057521D01*
X0228858Y0057483D01*
X0226850Y0057483D01*
X0226850Y0057521D01*
X0226850Y0051616D02*
X0228858Y0051616D01*
X0228858Y0051578D01*
X0226850Y0051578D01*
X0226850Y0051616D01*
X0221810Y0044451D02*
X0221810Y0042443D01*
X0221772Y0042443D01*
X0221772Y0044451D01*
X0221810Y0044451D01*
X0215904Y0044451D02*
X0215904Y0042443D01*
X0215866Y0042443D01*
X0215866Y0044451D01*
X0215904Y0044451D01*
X0209999Y0044451D02*
X0209999Y0042443D01*
X0209961Y0042443D01*
X0209961Y0044451D01*
X0209999Y0044451D01*
X0204093Y0044451D02*
X0204093Y0042443D01*
X0204055Y0042443D01*
X0204055Y0044451D01*
X0204093Y0044451D01*
X0198188Y0044451D02*
X0198188Y0042443D01*
X0198150Y0042443D01*
X0198150Y0044451D01*
X0198188Y0044451D01*
X0192282Y0044451D02*
X0192282Y0042443D01*
X0192244Y0042443D01*
X0192244Y0044451D01*
X0192282Y0044451D01*
X0186376Y0044451D02*
X0186376Y0042443D01*
X0186338Y0042443D01*
X0186338Y0044451D01*
X0186376Y0044451D01*
X0180471Y0044451D02*
X0180471Y0042443D01*
X0180433Y0042443D01*
X0180433Y0044451D01*
X0180471Y0044451D01*
D11*
X0100094Y0062888D03*
X0100094Y0065447D03*
X0100094Y0068006D03*
X0100094Y0070565D03*
X0100094Y0073124D03*
X0100094Y0075683D03*
X0100094Y0078243D03*
X0100094Y0080802D03*
X0100094Y0083361D03*
X0100094Y0085920D03*
X0100094Y0088479D03*
X0100094Y0091038D03*
X0071306Y0091038D03*
X0071306Y0088479D03*
X0071306Y0085920D03*
X0071306Y0083361D03*
X0071306Y0080802D03*
X0071306Y0078243D03*
X0071306Y0075683D03*
X0071306Y0073124D03*
X0071306Y0070565D03*
X0071306Y0068006D03*
X0071306Y0065447D03*
X0071306Y0062888D03*
X0301306Y0062888D03*
X0301306Y0065447D03*
X0301306Y0068006D03*
X0301306Y0070565D03*
X0301306Y0073124D03*
X0301306Y0075683D03*
X0301306Y0078243D03*
X0301306Y0080802D03*
X0301306Y0083361D03*
X0301306Y0085920D03*
X0301306Y0088479D03*
X0301306Y0091038D03*
X0330094Y0091038D03*
X0330094Y0088479D03*
X0330094Y0085920D03*
X0330094Y0083361D03*
X0330094Y0080802D03*
X0330094Y0078243D03*
X0330094Y0075683D03*
X0330094Y0073124D03*
X0330094Y0070565D03*
X0330094Y0068006D03*
X0330094Y0065447D03*
X0330094Y0062888D03*
D12*
X0346700Y0042963D03*
X0308200Y0042963D03*
X0133700Y0123463D03*
X0271200Y0160463D03*
X0096200Y0042963D03*
X0067700Y0042963D03*
D13*
X0057700Y0042963D03*
X0086200Y0042963D03*
X0143700Y0123463D03*
X0261200Y0160463D03*
X0318200Y0042963D03*
X0336700Y0042963D03*
D14*
X0335794Y0052963D03*
X0347606Y0052963D03*
X0319606Y0052463D03*
X0307794Y0052463D03*
X0097106Y0052963D03*
X0085294Y0052963D03*
X0068606Y0052463D03*
X0056794Y0052463D03*
D15*
X0162901Y0155306D03*
X0239200Y0155306D03*
D16*
X0230224Y0126565D03*
X0248176Y0126565D03*
X0171877Y0126565D03*
X0153924Y0126565D03*
D17*
X0294200Y0121963D02*
X0294200Y0115963D01*
X0314200Y0115963D02*
X0314200Y0121963D01*
X0307200Y0138963D02*
X0301200Y0138963D01*
D18*
X0123200Y0128869D03*
X0123200Y0117057D03*
X0117200Y0044869D03*
X0117200Y0033057D03*
D19*
X0126369Y0038963D03*
X0135031Y0042703D03*
X0135031Y0035223D03*
D20*
X0197066Y0012063D03*
X0205334Y0012063D03*
D21*
X0151700Y0058463D03*
X0141700Y0058463D03*
X0141700Y0068963D03*
X0151700Y0068963D03*
X0109200Y0119463D03*
X0099200Y0119463D03*
D22*
X0037357Y0095699D03*
X0026161Y0095699D03*
X0026161Y0085857D03*
X0037357Y0085857D03*
X0037357Y0056329D03*
X0026161Y0056329D03*
X0364743Y0056329D03*
X0375940Y0056329D03*
X0375940Y0085857D03*
X0364743Y0085857D03*
X0364743Y0095699D03*
X0375940Y0095699D03*
D23*
X0215400Y0167365D03*
X0215400Y0178561D03*
X0188400Y0178561D03*
X0179200Y0178561D03*
X0179200Y0167365D03*
X0188400Y0167365D03*
D24*
X0036836Y0074663D03*
X0026600Y0074663D03*
X0026600Y0067183D03*
X0036836Y0067183D03*
X0365082Y0067423D03*
X0365082Y0074903D03*
X0375318Y0074903D03*
X0375318Y0067423D03*
D25*
X0205240Y0167845D03*
X0197760Y0167845D03*
X0197760Y0178081D03*
X0205240Y0178081D03*
D26*
X0254200Y0103963D02*
X0293938Y0103963D01*
X0293438Y0101463D02*
X0259200Y0101463D01*
X0254200Y0096463D01*
X0254200Y0089563D02*
X0263200Y0098963D01*
X0292200Y0098963D01*
X0293938Y0103963D02*
X0294180Y0103949D01*
X0294422Y0103929D01*
X0294664Y0103904D01*
X0294904Y0103873D01*
X0295144Y0103836D01*
X0295383Y0103794D01*
X0295621Y0103746D01*
X0295857Y0103692D01*
X0296093Y0103633D01*
X0296326Y0103568D01*
X0296559Y0103497D01*
X0296789Y0103421D01*
X0297018Y0103340D01*
X0297244Y0103253D01*
X0297468Y0103161D01*
X0297691Y0103063D01*
X0297910Y0102960D01*
X0298128Y0102852D01*
X0298342Y0102739D01*
X0298554Y0102621D01*
X0298763Y0102498D01*
X0298969Y0102370D01*
X0299172Y0102237D01*
X0299372Y0102099D01*
X0299568Y0101956D01*
X0299761Y0101809D01*
X0299950Y0101657D01*
X0300136Y0101501D01*
X0300318Y0101341D01*
X0300496Y0101176D01*
X0300670Y0101007D01*
X0300840Y0100834D01*
X0301006Y0100656D01*
X0301006Y0100657D02*
X0301200Y0100463D01*
X0338700Y0100463D01*
X0337700Y0097463D02*
X0301200Y0097463D01*
X0300306Y0097457D01*
X0297321Y0096842D02*
X0299700Y0094463D01*
X0335700Y0094463D01*
X0337700Y0097463D02*
X0337807Y0097461D01*
X0337914Y0097455D01*
X0338021Y0097446D01*
X0338127Y0097432D01*
X0338233Y0097415D01*
X0338338Y0097394D01*
X0338442Y0097370D01*
X0338545Y0097341D01*
X0338647Y0097309D01*
X0338748Y0097274D01*
X0338848Y0097235D01*
X0338946Y0097192D01*
X0339043Y0097146D01*
X0339138Y0097096D01*
X0339231Y0097043D01*
X0339322Y0096987D01*
X0339411Y0096927D01*
X0339498Y0096865D01*
X0339582Y0096799D01*
X0339665Y0096730D01*
X0339744Y0096659D01*
X0339821Y0096584D01*
X0339896Y0096507D01*
X0339967Y0096428D01*
X0340036Y0096345D01*
X0340102Y0096261D01*
X0340164Y0096174D01*
X0340224Y0096085D01*
X0340280Y0095994D01*
X0340333Y0095901D01*
X0340383Y0095806D01*
X0340429Y0095709D01*
X0340472Y0095611D01*
X0340511Y0095511D01*
X0340546Y0095410D01*
X0340578Y0095308D01*
X0340607Y0095205D01*
X0340631Y0095101D01*
X0340652Y0094996D01*
X0340669Y0094890D01*
X0340683Y0094784D01*
X0340692Y0094677D01*
X0340698Y0094570D01*
X0340700Y0094463D01*
X0340700Y0086463D01*
X0343700Y0086463D02*
X0343698Y0086315D01*
X0343692Y0086167D01*
X0343683Y0086019D01*
X0343669Y0085871D01*
X0343652Y0085724D01*
X0343630Y0085577D01*
X0343605Y0085431D01*
X0343576Y0085286D01*
X0343544Y0085141D01*
X0343507Y0084998D01*
X0343467Y0084855D01*
X0343423Y0084714D01*
X0343375Y0084573D01*
X0343324Y0084434D01*
X0343269Y0084297D01*
X0343211Y0084160D01*
X0343149Y0084026D01*
X0343083Y0083893D01*
X0343014Y0083762D01*
X0342942Y0083633D01*
X0342866Y0083505D01*
X0342787Y0083380D01*
X0342704Y0083257D01*
X0342619Y0083136D01*
X0342530Y0083017D01*
X0342438Y0082900D01*
X0342344Y0082786D01*
X0342246Y0082675D01*
X0342145Y0082566D01*
X0342042Y0082460D01*
X0341936Y0082357D01*
X0341827Y0082256D01*
X0341716Y0082158D01*
X0341602Y0082064D01*
X0341485Y0081972D01*
X0341366Y0081883D01*
X0341245Y0081798D01*
X0341122Y0081715D01*
X0340997Y0081636D01*
X0340870Y0081560D01*
X0340740Y0081488D01*
X0340609Y0081419D01*
X0340476Y0081353D01*
X0340342Y0081291D01*
X0340205Y0081233D01*
X0340068Y0081178D01*
X0339929Y0081127D01*
X0339788Y0081079D01*
X0339647Y0081035D01*
X0339504Y0080995D01*
X0339361Y0080958D01*
X0339216Y0080926D01*
X0339071Y0080897D01*
X0338925Y0080872D01*
X0338778Y0080850D01*
X0338631Y0080833D01*
X0338483Y0080819D01*
X0338335Y0080810D01*
X0338187Y0080804D01*
X0338039Y0080802D01*
X0330094Y0080802D01*
X0330093Y0080792D01*
X0330089Y0080783D01*
X0330083Y0080774D01*
X0330075Y0080768D01*
X0330065Y0080764D01*
X0330055Y0080763D01*
X0327100Y0080763D01*
X0327200Y0085963D02*
X0327031Y0085961D01*
X0326862Y0085955D01*
X0326693Y0085945D01*
X0326524Y0085930D01*
X0326356Y0085912D01*
X0326189Y0085890D01*
X0326022Y0085863D01*
X0325855Y0085833D01*
X0325690Y0085798D01*
X0325525Y0085760D01*
X0325361Y0085717D01*
X0325198Y0085671D01*
X0325037Y0085620D01*
X0324877Y0085566D01*
X0324718Y0085508D01*
X0324560Y0085446D01*
X0324404Y0085381D01*
X0324250Y0085311D01*
X0324098Y0085238D01*
X0323947Y0085161D01*
X0323798Y0085081D01*
X0323651Y0084997D01*
X0323507Y0084909D01*
X0323364Y0084818D01*
X0323224Y0084724D01*
X0323086Y0084626D01*
X0322950Y0084525D01*
X0322817Y0084421D01*
X0322686Y0084313D01*
X0322558Y0084203D01*
X0322433Y0084089D01*
X0322310Y0083972D01*
X0322191Y0083853D01*
X0322074Y0083730D01*
X0321960Y0083605D01*
X0321850Y0083477D01*
X0321742Y0083346D01*
X0321638Y0083213D01*
X0321537Y0083077D01*
X0321439Y0082939D01*
X0321345Y0082799D01*
X0321254Y0082656D01*
X0321166Y0082512D01*
X0321082Y0082365D01*
X0321002Y0082216D01*
X0320925Y0082065D01*
X0320852Y0081913D01*
X0320782Y0081759D01*
X0320717Y0081603D01*
X0320655Y0081445D01*
X0320597Y0081286D01*
X0320543Y0081126D01*
X0320492Y0080965D01*
X0320446Y0080802D01*
X0320403Y0080638D01*
X0320365Y0080473D01*
X0320330Y0080308D01*
X0320300Y0080141D01*
X0320273Y0079974D01*
X0320251Y0079807D01*
X0320233Y0079639D01*
X0320218Y0079470D01*
X0320208Y0079301D01*
X0320202Y0079132D01*
X0320200Y0078963D01*
X0320200Y0071963D01*
X0322700Y0071963D02*
X0322700Y0078763D01*
X0325200Y0078863D02*
X0325200Y0071963D01*
X0325202Y0071890D01*
X0325208Y0071817D01*
X0325217Y0071744D01*
X0325231Y0071672D01*
X0325248Y0071601D01*
X0325268Y0071531D01*
X0325293Y0071462D01*
X0325321Y0071394D01*
X0325352Y0071328D01*
X0325387Y0071264D01*
X0325426Y0071202D01*
X0325467Y0071141D01*
X0325512Y0071083D01*
X0325559Y0071028D01*
X0325609Y0070974D01*
X0325663Y0070924D01*
X0325718Y0070877D01*
X0325776Y0070832D01*
X0325837Y0070791D01*
X0325899Y0070752D01*
X0325963Y0070717D01*
X0326029Y0070686D01*
X0326097Y0070658D01*
X0326166Y0070633D01*
X0326236Y0070613D01*
X0326307Y0070596D01*
X0326379Y0070582D01*
X0326452Y0070573D01*
X0326525Y0070567D01*
X0326598Y0070565D01*
X0330094Y0070565D01*
X0330094Y0068006D02*
X0326657Y0068006D01*
X0326716Y0065447D02*
X0330094Y0065447D01*
X0326716Y0065447D02*
X0326556Y0065449D01*
X0326396Y0065455D01*
X0326237Y0065465D01*
X0326077Y0065478D01*
X0325918Y0065496D01*
X0325760Y0065518D01*
X0325602Y0065543D01*
X0325445Y0065572D01*
X0325288Y0065605D01*
X0325133Y0065642D01*
X0324978Y0065683D01*
X0324825Y0065728D01*
X0324672Y0065776D01*
X0324521Y0065828D01*
X0324371Y0065884D01*
X0324222Y0065943D01*
X0324075Y0066006D01*
X0323930Y0066073D01*
X0323786Y0066143D01*
X0323644Y0066216D01*
X0323504Y0066294D01*
X0323366Y0066374D01*
X0323230Y0066458D01*
X0323096Y0066545D01*
X0322964Y0066636D01*
X0322834Y0066729D01*
X0322707Y0066826D01*
X0322582Y0066926D01*
X0322460Y0067029D01*
X0322340Y0067135D01*
X0322223Y0067244D01*
X0322108Y0067355D01*
X0321997Y0067470D01*
X0321888Y0067587D01*
X0321782Y0067707D01*
X0321679Y0067829D01*
X0321579Y0067954D01*
X0321482Y0068081D01*
X0321389Y0068211D01*
X0321298Y0068343D01*
X0321211Y0068477D01*
X0321127Y0068613D01*
X0321047Y0068751D01*
X0320969Y0068891D01*
X0320896Y0069033D01*
X0320826Y0069177D01*
X0320759Y0069322D01*
X0320696Y0069469D01*
X0320637Y0069618D01*
X0320581Y0069768D01*
X0320529Y0069919D01*
X0320481Y0070072D01*
X0320436Y0070225D01*
X0320395Y0070380D01*
X0320358Y0070535D01*
X0320325Y0070692D01*
X0320296Y0070849D01*
X0320271Y0071007D01*
X0320249Y0071165D01*
X0320231Y0071324D01*
X0320218Y0071484D01*
X0320208Y0071643D01*
X0320202Y0071803D01*
X0320200Y0071963D01*
X0322700Y0071963D02*
X0322702Y0071839D01*
X0322708Y0071715D01*
X0322718Y0071591D01*
X0322731Y0071467D01*
X0322749Y0071344D01*
X0322770Y0071222D01*
X0322795Y0071100D01*
X0322824Y0070979D01*
X0322857Y0070859D01*
X0322894Y0070740D01*
X0322934Y0070623D01*
X0322978Y0070506D01*
X0323025Y0070391D01*
X0323077Y0070278D01*
X0323131Y0070167D01*
X0323189Y0070057D01*
X0323251Y0069949D01*
X0323316Y0069843D01*
X0323384Y0069739D01*
X0323456Y0069637D01*
X0323530Y0069538D01*
X0323608Y0069441D01*
X0323689Y0069346D01*
X0323772Y0069254D01*
X0323859Y0069165D01*
X0323948Y0069078D01*
X0324040Y0068995D01*
X0324135Y0068914D01*
X0324232Y0068836D01*
X0324331Y0068762D01*
X0324433Y0068690D01*
X0324537Y0068622D01*
X0324643Y0068557D01*
X0324751Y0068495D01*
X0324861Y0068437D01*
X0324972Y0068383D01*
X0325085Y0068331D01*
X0325200Y0068284D01*
X0325317Y0068240D01*
X0325434Y0068200D01*
X0325553Y0068163D01*
X0325673Y0068130D01*
X0325794Y0068101D01*
X0325916Y0068076D01*
X0326038Y0068055D01*
X0326161Y0068037D01*
X0326285Y0068024D01*
X0326409Y0068014D01*
X0326533Y0068008D01*
X0326657Y0068006D01*
X0322700Y0078763D02*
X0322702Y0078897D01*
X0322708Y0079030D01*
X0322718Y0079164D01*
X0322731Y0079297D01*
X0322749Y0079430D01*
X0322770Y0079562D01*
X0322795Y0079693D01*
X0322824Y0079824D01*
X0322857Y0079954D01*
X0322893Y0080082D01*
X0322933Y0080210D01*
X0322977Y0080336D01*
X0323025Y0080461D01*
X0323076Y0080585D01*
X0323131Y0080707D01*
X0323189Y0080827D01*
X0323251Y0080946D01*
X0323316Y0081063D01*
X0323385Y0081178D01*
X0323457Y0081291D01*
X0323532Y0081401D01*
X0323610Y0081510D01*
X0323692Y0081616D01*
X0323776Y0081720D01*
X0323864Y0081821D01*
X0323954Y0081920D01*
X0324047Y0082016D01*
X0324143Y0082109D01*
X0324242Y0082199D01*
X0324343Y0082287D01*
X0324447Y0082371D01*
X0324553Y0082453D01*
X0324662Y0082531D01*
X0324772Y0082606D01*
X0324885Y0082678D01*
X0325000Y0082747D01*
X0325117Y0082812D01*
X0325236Y0082874D01*
X0325356Y0082932D01*
X0325478Y0082987D01*
X0325602Y0083038D01*
X0325727Y0083086D01*
X0325853Y0083130D01*
X0325981Y0083170D01*
X0326109Y0083206D01*
X0326239Y0083239D01*
X0326370Y0083268D01*
X0326501Y0083293D01*
X0326633Y0083314D01*
X0326766Y0083332D01*
X0326899Y0083345D01*
X0327033Y0083355D01*
X0327166Y0083361D01*
X0327300Y0083363D01*
X0330091Y0083363D01*
X0330092Y0083363D01*
X0330093Y0083362D01*
X0330093Y0083361D01*
X0330094Y0083361D02*
X0337598Y0083361D01*
X0337709Y0083363D01*
X0337819Y0083369D01*
X0337930Y0083379D01*
X0338039Y0083393D01*
X0338149Y0083410D01*
X0338257Y0083432D01*
X0338365Y0083457D01*
X0338472Y0083487D01*
X0338578Y0083520D01*
X0338682Y0083557D01*
X0338785Y0083597D01*
X0338887Y0083641D01*
X0338987Y0083689D01*
X0339085Y0083740D01*
X0339181Y0083795D01*
X0339275Y0083853D01*
X0339367Y0083915D01*
X0339457Y0083980D01*
X0339544Y0084048D01*
X0339629Y0084119D01*
X0339712Y0084193D01*
X0339791Y0084270D01*
X0339868Y0084349D01*
X0339942Y0084432D01*
X0340013Y0084517D01*
X0340081Y0084604D01*
X0340146Y0084694D01*
X0340208Y0084786D01*
X0340266Y0084880D01*
X0340321Y0084976D01*
X0340372Y0085074D01*
X0340420Y0085174D01*
X0340464Y0085276D01*
X0340504Y0085379D01*
X0340541Y0085483D01*
X0340574Y0085589D01*
X0340604Y0085696D01*
X0340629Y0085804D01*
X0340651Y0085912D01*
X0340668Y0086022D01*
X0340682Y0086131D01*
X0340692Y0086242D01*
X0340698Y0086352D01*
X0340700Y0086463D01*
X0343700Y0086463D02*
X0343700Y0095463D01*
X0343698Y0095603D01*
X0343692Y0095743D01*
X0343682Y0095883D01*
X0343669Y0096023D01*
X0343651Y0096162D01*
X0343629Y0096301D01*
X0343604Y0096438D01*
X0343575Y0096576D01*
X0343542Y0096712D01*
X0343505Y0096847D01*
X0343464Y0096981D01*
X0343419Y0097114D01*
X0343371Y0097246D01*
X0343319Y0097376D01*
X0343264Y0097505D01*
X0343205Y0097632D01*
X0343142Y0097758D01*
X0343076Y0097882D01*
X0343007Y0098003D01*
X0342934Y0098123D01*
X0342857Y0098241D01*
X0342778Y0098356D01*
X0342695Y0098470D01*
X0342609Y0098580D01*
X0342520Y0098689D01*
X0342428Y0098795D01*
X0342333Y0098898D01*
X0342236Y0098999D01*
X0342135Y0099096D01*
X0342032Y0099191D01*
X0341926Y0099283D01*
X0341817Y0099372D01*
X0341707Y0099458D01*
X0341593Y0099541D01*
X0341478Y0099620D01*
X0341360Y0099697D01*
X0341240Y0099770D01*
X0341119Y0099839D01*
X0340995Y0099905D01*
X0340869Y0099968D01*
X0340742Y0100027D01*
X0340613Y0100082D01*
X0340483Y0100134D01*
X0340351Y0100182D01*
X0340218Y0100227D01*
X0340084Y0100268D01*
X0339949Y0100305D01*
X0339813Y0100338D01*
X0339675Y0100367D01*
X0339538Y0100392D01*
X0339399Y0100414D01*
X0339260Y0100432D01*
X0339120Y0100445D01*
X0338980Y0100455D01*
X0338840Y0100461D01*
X0338700Y0100463D01*
X0337700Y0092463D02*
X0337700Y0087963D01*
X0337698Y0087874D01*
X0337692Y0087785D01*
X0337683Y0087696D01*
X0337669Y0087608D01*
X0337652Y0087521D01*
X0337630Y0087434D01*
X0337605Y0087349D01*
X0337577Y0087264D01*
X0337544Y0087181D01*
X0337509Y0087100D01*
X0337469Y0087020D01*
X0337426Y0086942D01*
X0337380Y0086865D01*
X0337331Y0086791D01*
X0337278Y0086719D01*
X0337222Y0086650D01*
X0337163Y0086583D01*
X0337102Y0086518D01*
X0337037Y0086457D01*
X0336970Y0086398D01*
X0336901Y0086342D01*
X0336829Y0086289D01*
X0336755Y0086240D01*
X0336679Y0086194D01*
X0336600Y0086151D01*
X0336520Y0086111D01*
X0336439Y0086076D01*
X0336356Y0086043D01*
X0336271Y0086015D01*
X0336186Y0085990D01*
X0336099Y0085968D01*
X0336012Y0085951D01*
X0335924Y0085937D01*
X0335835Y0085928D01*
X0335746Y0085922D01*
X0335657Y0085920D01*
X0330094Y0085920D01*
X0330093Y0085920D02*
X0330092Y0085931D01*
X0330087Y0085942D01*
X0330080Y0085950D01*
X0330072Y0085957D01*
X0330061Y0085962D01*
X0330050Y0085963D01*
X0327200Y0085963D01*
X0327100Y0080763D02*
X0327015Y0080761D01*
X0326930Y0080755D01*
X0326845Y0080746D01*
X0326761Y0080732D01*
X0326677Y0080715D01*
X0326595Y0080695D01*
X0326513Y0080670D01*
X0326432Y0080642D01*
X0326353Y0080610D01*
X0326276Y0080575D01*
X0326200Y0080536D01*
X0326125Y0080494D01*
X0326053Y0080449D01*
X0325983Y0080400D01*
X0325915Y0080348D01*
X0325850Y0080294D01*
X0325787Y0080236D01*
X0325727Y0080176D01*
X0325669Y0080113D01*
X0325615Y0080048D01*
X0325563Y0079980D01*
X0325514Y0079910D01*
X0325469Y0079838D01*
X0325427Y0079763D01*
X0325388Y0079687D01*
X0325353Y0079610D01*
X0325321Y0079531D01*
X0325293Y0079450D01*
X0325268Y0079368D01*
X0325248Y0079286D01*
X0325231Y0079202D01*
X0325217Y0079118D01*
X0325208Y0079033D01*
X0325202Y0078948D01*
X0325200Y0078863D01*
X0337700Y0092463D02*
X0337698Y0092550D01*
X0337692Y0092637D01*
X0337683Y0092724D01*
X0337670Y0092810D01*
X0337653Y0092896D01*
X0337632Y0092981D01*
X0337607Y0093064D01*
X0337579Y0093147D01*
X0337548Y0093228D01*
X0337513Y0093308D01*
X0337474Y0093386D01*
X0337432Y0093463D01*
X0337387Y0093538D01*
X0337338Y0093610D01*
X0337287Y0093681D01*
X0337232Y0093749D01*
X0337175Y0093814D01*
X0337114Y0093877D01*
X0337051Y0093938D01*
X0336986Y0093995D01*
X0336918Y0094050D01*
X0336847Y0094101D01*
X0336775Y0094150D01*
X0336700Y0094195D01*
X0336623Y0094237D01*
X0336545Y0094276D01*
X0336465Y0094311D01*
X0336384Y0094342D01*
X0336301Y0094370D01*
X0336218Y0094395D01*
X0336133Y0094416D01*
X0336047Y0094433D01*
X0335961Y0094446D01*
X0335874Y0094455D01*
X0335787Y0094461D01*
X0335700Y0094463D01*
X0297322Y0096842D02*
X0297194Y0096966D01*
X0297064Y0097087D01*
X0296931Y0097204D01*
X0296795Y0097319D01*
X0296656Y0097430D01*
X0296515Y0097538D01*
X0296371Y0097642D01*
X0296224Y0097742D01*
X0296075Y0097839D01*
X0295924Y0097933D01*
X0295770Y0098022D01*
X0295614Y0098108D01*
X0295457Y0098190D01*
X0295297Y0098268D01*
X0295135Y0098342D01*
X0294972Y0098412D01*
X0294807Y0098478D01*
X0294640Y0098540D01*
X0294472Y0098597D01*
X0294303Y0098651D01*
X0294132Y0098701D01*
X0293960Y0098746D01*
X0293787Y0098787D01*
X0293613Y0098824D01*
X0293438Y0098856D01*
X0293263Y0098885D01*
X0293087Y0098909D01*
X0292910Y0098928D01*
X0292733Y0098943D01*
X0292555Y0098954D01*
X0292378Y0098961D01*
X0292200Y0098963D01*
X0293438Y0101463D02*
X0293683Y0101427D01*
X0293926Y0101385D01*
X0294169Y0101337D01*
X0294410Y0101283D01*
X0294650Y0101224D01*
X0294889Y0101159D01*
X0295126Y0101088D01*
X0295361Y0101012D01*
X0295594Y0100930D01*
X0295825Y0100842D01*
X0296054Y0100749D01*
X0296281Y0100651D01*
X0296506Y0100547D01*
X0296727Y0100438D01*
X0296947Y0100324D01*
X0297163Y0100205D01*
X0297377Y0100080D01*
X0297587Y0099950D01*
X0297795Y0099816D01*
X0297999Y0099676D01*
X0298199Y0099532D01*
X0298397Y0099383D01*
X0298590Y0099229D01*
X0298780Y0099071D01*
X0298966Y0098908D01*
X0299149Y0098741D01*
X0299327Y0098570D01*
X0299501Y0098394D01*
X0299671Y0098214D01*
X0299836Y0098031D01*
X0299997Y0097843D01*
X0300154Y0097652D01*
X0300306Y0097457D01*
X0254200Y0089563D02*
X0250200Y0085563D01*
X0250200Y0042463D01*
X0194200Y0034963D02*
X0194200Y0032463D01*
X0192700Y0031463D01*
X0149700Y0031463D01*
X0142200Y0035963D01*
X0105275Y0062888D02*
X0105200Y0062888D01*
X0086200Y0062963D02*
X0086199Y0062948D01*
X0086194Y0062934D01*
X0086187Y0062921D01*
X0086178Y0062910D01*
X0086167Y0062901D01*
X0086154Y0062894D01*
X0086140Y0062889D01*
X0086125Y0062888D01*
X0086184Y0065447D02*
X0086190Y0065448D01*
X0086195Y0065452D01*
X0086199Y0065457D01*
X0086200Y0065463D01*
X0074743Y0068006D02*
X0071306Y0068006D01*
X0071306Y0070565D02*
X0074302Y0070565D01*
X0074361Y0073124D02*
X0071306Y0073124D01*
X0074302Y0070565D02*
X0074432Y0070567D01*
X0074563Y0070573D01*
X0074693Y0070582D01*
X0074822Y0070596D01*
X0074951Y0070613D01*
X0075080Y0070634D01*
X0075208Y0070659D01*
X0075335Y0070688D01*
X0075461Y0070721D01*
X0075586Y0070757D01*
X0075711Y0070797D01*
X0075833Y0070840D01*
X0075955Y0070887D01*
X0076075Y0070938D01*
X0076193Y0070992D01*
X0076310Y0071050D01*
X0076425Y0071112D01*
X0076539Y0071176D01*
X0076650Y0071244D01*
X0076759Y0071315D01*
X0076866Y0071390D01*
X0076971Y0071467D01*
X0077073Y0071548D01*
X0077173Y0071631D01*
X0077271Y0071718D01*
X0077365Y0071807D01*
X0077458Y0071900D01*
X0077547Y0071994D01*
X0077634Y0072092D01*
X0077717Y0072192D01*
X0077798Y0072294D01*
X0077875Y0072399D01*
X0077950Y0072506D01*
X0078021Y0072615D01*
X0078089Y0072726D01*
X0078153Y0072840D01*
X0078215Y0072955D01*
X0078273Y0073072D01*
X0078327Y0073190D01*
X0078378Y0073310D01*
X0078425Y0073432D01*
X0078468Y0073554D01*
X0078508Y0073679D01*
X0078544Y0073804D01*
X0078577Y0073930D01*
X0078606Y0074057D01*
X0078631Y0074185D01*
X0078652Y0074314D01*
X0078669Y0074443D01*
X0078683Y0074572D01*
X0078692Y0074702D01*
X0078698Y0074833D01*
X0078700Y0074963D01*
X0078700Y0080963D01*
X0081200Y0081463D02*
X0081200Y0074463D01*
X0076200Y0074963D02*
X0076200Y0081563D01*
X0076198Y0081646D01*
X0076192Y0081729D01*
X0076183Y0081812D01*
X0076169Y0081894D01*
X0076152Y0081975D01*
X0076131Y0082056D01*
X0076107Y0082135D01*
X0076078Y0082213D01*
X0076047Y0082290D01*
X0076011Y0082365D01*
X0075973Y0082439D01*
X0075930Y0082511D01*
X0075885Y0082580D01*
X0075836Y0082648D01*
X0075785Y0082713D01*
X0075730Y0082776D01*
X0075673Y0082836D01*
X0075613Y0082893D01*
X0075550Y0082948D01*
X0075485Y0082999D01*
X0075417Y0083048D01*
X0075348Y0083093D01*
X0075276Y0083136D01*
X0075202Y0083174D01*
X0075127Y0083210D01*
X0075050Y0083241D01*
X0074972Y0083270D01*
X0074893Y0083294D01*
X0074812Y0083315D01*
X0074731Y0083332D01*
X0074649Y0083346D01*
X0074566Y0083355D01*
X0074483Y0083361D01*
X0074400Y0083363D01*
X0071309Y0083363D01*
X0071308Y0083363D01*
X0071307Y0083362D01*
X0071307Y0083361D01*
X0071306Y0083361D02*
X0065302Y0083361D01*
X0065743Y0085920D02*
X0071306Y0085920D01*
X0068743Y0085920D01*
X0068684Y0088479D02*
X0071306Y0088479D01*
X0066684Y0088479D01*
X0065743Y0085920D02*
X0065618Y0085922D01*
X0065494Y0085928D01*
X0065370Y0085937D01*
X0065246Y0085951D01*
X0065123Y0085968D01*
X0065000Y0085989D01*
X0064878Y0086014D01*
X0064757Y0086042D01*
X0064637Y0086074D01*
X0064517Y0086110D01*
X0064399Y0086150D01*
X0064282Y0086193D01*
X0064167Y0086240D01*
X0064053Y0086290D01*
X0063941Y0086344D01*
X0063830Y0086401D01*
X0063721Y0086462D01*
X0063615Y0086526D01*
X0063510Y0086593D01*
X0063407Y0086663D01*
X0063307Y0086737D01*
X0063208Y0086813D01*
X0063113Y0086893D01*
X0063019Y0086975D01*
X0062929Y0087060D01*
X0062840Y0087149D01*
X0062755Y0087239D01*
X0062673Y0087333D01*
X0062593Y0087428D01*
X0062517Y0087527D01*
X0062443Y0087627D01*
X0062373Y0087730D01*
X0062306Y0087835D01*
X0062242Y0087942D01*
X0062181Y0088050D01*
X0062124Y0088161D01*
X0062070Y0088273D01*
X0062020Y0088387D01*
X0061973Y0088502D01*
X0061930Y0088619D01*
X0061890Y0088737D01*
X0061854Y0088857D01*
X0061822Y0088977D01*
X0061794Y0089098D01*
X0061769Y0089220D01*
X0061748Y0089343D01*
X0061731Y0089466D01*
X0061717Y0089590D01*
X0061708Y0089714D01*
X0061702Y0089838D01*
X0061700Y0089963D01*
X0061700Y0092963D01*
X0058700Y0092963D02*
X0058700Y0089963D01*
X0064700Y0090463D02*
X0064700Y0092463D01*
X0058700Y0092963D02*
X0058702Y0093144D01*
X0058709Y0093325D01*
X0058720Y0093506D01*
X0058735Y0093687D01*
X0058755Y0093867D01*
X0058779Y0094047D01*
X0058807Y0094226D01*
X0058840Y0094404D01*
X0058877Y0094581D01*
X0058918Y0094758D01*
X0058963Y0094933D01*
X0059013Y0095108D01*
X0059067Y0095281D01*
X0059125Y0095452D01*
X0059187Y0095623D01*
X0059254Y0095791D01*
X0059324Y0095958D01*
X0059398Y0096124D01*
X0059477Y0096287D01*
X0059559Y0096448D01*
X0059645Y0096608D01*
X0059735Y0096765D01*
X0059829Y0096920D01*
X0059926Y0097073D01*
X0060028Y0097223D01*
X0060132Y0097371D01*
X0060241Y0097517D01*
X0060352Y0097659D01*
X0060468Y0097799D01*
X0060586Y0097936D01*
X0060708Y0098071D01*
X0060833Y0098202D01*
X0060961Y0098330D01*
X0061092Y0098455D01*
X0061227Y0098577D01*
X0061364Y0098695D01*
X0061504Y0098811D01*
X0061646Y0098922D01*
X0061792Y0099031D01*
X0061940Y0099135D01*
X0062090Y0099237D01*
X0062243Y0099334D01*
X0062398Y0099428D01*
X0062555Y0099518D01*
X0062715Y0099604D01*
X0062876Y0099686D01*
X0063039Y0099765D01*
X0063205Y0099839D01*
X0063372Y0099909D01*
X0063540Y0099976D01*
X0063711Y0100038D01*
X0063882Y0100096D01*
X0064055Y0100150D01*
X0064230Y0100200D01*
X0064405Y0100245D01*
X0064582Y0100286D01*
X0064759Y0100323D01*
X0064937Y0100356D01*
X0065116Y0100384D01*
X0065296Y0100408D01*
X0065476Y0100428D01*
X0065657Y0100443D01*
X0065838Y0100454D01*
X0066019Y0100461D01*
X0066200Y0100463D01*
X0098700Y0100463D01*
X0099294Y0100457D01*
X0102079Y0099342D02*
X0100200Y0097463D01*
X0066200Y0097463D01*
X0066700Y0094463D02*
X0101200Y0094463D01*
X0103932Y0097195D01*
X0099293Y0100457D02*
X0099431Y0100630D01*
X0099573Y0100799D01*
X0099718Y0100965D01*
X0099868Y0101127D01*
X0100021Y0101286D01*
X0100178Y0101441D01*
X0100339Y0101592D01*
X0100503Y0101739D01*
X0100671Y0101882D01*
X0100842Y0102022D01*
X0101016Y0102157D01*
X0101194Y0102288D01*
X0101374Y0102415D01*
X0101558Y0102537D01*
X0101744Y0102655D01*
X0101933Y0102769D01*
X0102125Y0102878D01*
X0102319Y0102982D01*
X0102516Y0103082D01*
X0102715Y0103177D01*
X0102916Y0103267D01*
X0103120Y0103353D01*
X0103325Y0103433D01*
X0103532Y0103509D01*
X0103741Y0103580D01*
X0103952Y0103646D01*
X0104164Y0103706D01*
X0104378Y0103762D01*
X0104592Y0103813D01*
X0104808Y0103858D01*
X0105025Y0103899D01*
X0105243Y0103934D01*
X0105461Y0103964D01*
X0105462Y0103963D02*
X0146700Y0103963D01*
X0142700Y0101463D02*
X0107200Y0101463D01*
X0108200Y0098963D02*
X0127357Y0098963D01*
X0134200Y0089620D01*
X0134700Y0088963D01*
X0146200Y0097463D02*
X0142700Y0101463D01*
X0108200Y0098963D02*
X0108047Y0098961D01*
X0107894Y0098955D01*
X0107742Y0098946D01*
X0107589Y0098932D01*
X0107437Y0098915D01*
X0107286Y0098893D01*
X0107135Y0098868D01*
X0106985Y0098839D01*
X0106836Y0098807D01*
X0106687Y0098770D01*
X0106540Y0098730D01*
X0106393Y0098686D01*
X0106248Y0098639D01*
X0106104Y0098587D01*
X0105961Y0098532D01*
X0105820Y0098474D01*
X0105680Y0098412D01*
X0105542Y0098346D01*
X0105405Y0098277D01*
X0105271Y0098205D01*
X0105138Y0098129D01*
X0105007Y0098049D01*
X0104878Y0097967D01*
X0104752Y0097881D01*
X0104627Y0097792D01*
X0104505Y0097700D01*
X0104386Y0097605D01*
X0104268Y0097507D01*
X0104154Y0097406D01*
X0104041Y0097302D01*
X0103932Y0097195D01*
X0102078Y0099342D02*
X0102202Y0099462D01*
X0102328Y0099579D01*
X0102457Y0099694D01*
X0102588Y0099805D01*
X0102723Y0099913D01*
X0102859Y0100018D01*
X0102999Y0100120D01*
X0103140Y0100218D01*
X0103284Y0100313D01*
X0103430Y0100405D01*
X0103578Y0100493D01*
X0103729Y0100577D01*
X0103881Y0100658D01*
X0104035Y0100735D01*
X0104191Y0100808D01*
X0104349Y0100878D01*
X0104508Y0100944D01*
X0104669Y0101006D01*
X0104831Y0101065D01*
X0104995Y0101119D01*
X0105159Y0101170D01*
X0105325Y0101216D01*
X0105492Y0101259D01*
X0105660Y0101297D01*
X0105829Y0101332D01*
X0105999Y0101363D01*
X0106169Y0101389D01*
X0106340Y0101412D01*
X0106512Y0101430D01*
X0106683Y0101445D01*
X0106855Y0101455D01*
X0107028Y0101461D01*
X0107200Y0101463D01*
X0100050Y0085963D02*
X0100094Y0085920D01*
X0099991Y0083463D02*
X0100094Y0083361D01*
X0081200Y0081463D02*
X0081198Y0081632D01*
X0081192Y0081801D01*
X0081182Y0081970D01*
X0081167Y0082139D01*
X0081149Y0082307D01*
X0081127Y0082474D01*
X0081100Y0082641D01*
X0081070Y0082808D01*
X0081035Y0082973D01*
X0080997Y0083138D01*
X0080954Y0083302D01*
X0080908Y0083465D01*
X0080857Y0083626D01*
X0080803Y0083786D01*
X0080745Y0083945D01*
X0080683Y0084103D01*
X0080618Y0084259D01*
X0080548Y0084413D01*
X0080475Y0084565D01*
X0080398Y0084716D01*
X0080318Y0084865D01*
X0080234Y0085012D01*
X0080146Y0085156D01*
X0080055Y0085299D01*
X0079961Y0085439D01*
X0079863Y0085577D01*
X0079762Y0085713D01*
X0079658Y0085846D01*
X0079550Y0085977D01*
X0079440Y0086105D01*
X0079326Y0086230D01*
X0079209Y0086353D01*
X0079090Y0086472D01*
X0078967Y0086589D01*
X0078842Y0086703D01*
X0078714Y0086813D01*
X0078583Y0086921D01*
X0078450Y0087025D01*
X0078314Y0087126D01*
X0078176Y0087224D01*
X0078036Y0087318D01*
X0077893Y0087409D01*
X0077749Y0087497D01*
X0077602Y0087581D01*
X0077453Y0087661D01*
X0077302Y0087738D01*
X0077150Y0087811D01*
X0076996Y0087881D01*
X0076840Y0087946D01*
X0076682Y0088008D01*
X0076523Y0088066D01*
X0076363Y0088120D01*
X0076202Y0088171D01*
X0076039Y0088217D01*
X0075875Y0088260D01*
X0075710Y0088298D01*
X0075545Y0088333D01*
X0075378Y0088363D01*
X0075211Y0088390D01*
X0075044Y0088412D01*
X0074876Y0088430D01*
X0074707Y0088445D01*
X0074538Y0088455D01*
X0074369Y0088461D01*
X0074200Y0088463D01*
X0071322Y0088463D01*
X0071316Y0088464D01*
X0071311Y0088468D01*
X0071307Y0088473D01*
X0071306Y0088479D01*
X0071350Y0085963D02*
X0073700Y0085963D01*
X0071350Y0085963D02*
X0071339Y0085962D01*
X0071329Y0085957D01*
X0071320Y0085950D01*
X0071313Y0085942D01*
X0071308Y0085931D01*
X0071307Y0085920D01*
X0071306Y0083361D02*
X0068802Y0083361D01*
X0073700Y0085963D02*
X0073840Y0085961D01*
X0073980Y0085955D01*
X0074120Y0085945D01*
X0074260Y0085932D01*
X0074399Y0085914D01*
X0074538Y0085892D01*
X0074675Y0085867D01*
X0074813Y0085838D01*
X0074949Y0085805D01*
X0075084Y0085768D01*
X0075218Y0085727D01*
X0075351Y0085682D01*
X0075483Y0085634D01*
X0075613Y0085582D01*
X0075742Y0085527D01*
X0075869Y0085468D01*
X0075995Y0085405D01*
X0076119Y0085339D01*
X0076240Y0085270D01*
X0076360Y0085197D01*
X0076478Y0085120D01*
X0076593Y0085041D01*
X0076707Y0084958D01*
X0076817Y0084872D01*
X0076926Y0084783D01*
X0077032Y0084691D01*
X0077135Y0084596D01*
X0077236Y0084499D01*
X0077333Y0084398D01*
X0077428Y0084295D01*
X0077520Y0084189D01*
X0077609Y0084080D01*
X0077695Y0083970D01*
X0077778Y0083856D01*
X0077857Y0083741D01*
X0077934Y0083623D01*
X0078007Y0083503D01*
X0078076Y0083382D01*
X0078142Y0083258D01*
X0078205Y0083132D01*
X0078264Y0083005D01*
X0078319Y0082876D01*
X0078371Y0082746D01*
X0078419Y0082614D01*
X0078464Y0082481D01*
X0078505Y0082347D01*
X0078542Y0082212D01*
X0078575Y0082076D01*
X0078604Y0081938D01*
X0078629Y0081801D01*
X0078651Y0081662D01*
X0078669Y0081523D01*
X0078682Y0081383D01*
X0078692Y0081243D01*
X0078698Y0081103D01*
X0078700Y0080963D01*
X0076200Y0074963D02*
X0076198Y0074878D01*
X0076192Y0074793D01*
X0076182Y0074709D01*
X0076169Y0074625D01*
X0076151Y0074542D01*
X0076130Y0074460D01*
X0076105Y0074379D01*
X0076076Y0074299D01*
X0076043Y0074220D01*
X0076007Y0074143D01*
X0075968Y0074068D01*
X0075925Y0073995D01*
X0075878Y0073924D01*
X0075829Y0073855D01*
X0075776Y0073788D01*
X0075720Y0073724D01*
X0075661Y0073663D01*
X0075600Y0073604D01*
X0075536Y0073548D01*
X0075469Y0073495D01*
X0075400Y0073446D01*
X0075329Y0073399D01*
X0075256Y0073356D01*
X0075181Y0073317D01*
X0075104Y0073281D01*
X0075025Y0073248D01*
X0074945Y0073219D01*
X0074864Y0073194D01*
X0074782Y0073173D01*
X0074699Y0073155D01*
X0074615Y0073142D01*
X0074531Y0073132D01*
X0074446Y0073126D01*
X0074361Y0073124D01*
X0074743Y0068006D02*
X0074901Y0068008D01*
X0075060Y0068014D01*
X0075218Y0068023D01*
X0075376Y0068037D01*
X0075533Y0068055D01*
X0075690Y0068076D01*
X0075847Y0068101D01*
X0076003Y0068130D01*
X0076158Y0068163D01*
X0076312Y0068200D01*
X0076465Y0068240D01*
X0076617Y0068284D01*
X0076768Y0068332D01*
X0076918Y0068383D01*
X0077067Y0068439D01*
X0077214Y0068498D01*
X0077360Y0068560D01*
X0077504Y0068626D01*
X0077646Y0068695D01*
X0077787Y0068768D01*
X0077926Y0068845D01*
X0078063Y0068925D01*
X0078197Y0069008D01*
X0078330Y0069094D01*
X0078461Y0069184D01*
X0078589Y0069277D01*
X0078716Y0069373D01*
X0078839Y0069472D01*
X0078961Y0069574D01*
X0079079Y0069679D01*
X0079195Y0069787D01*
X0079309Y0069897D01*
X0079419Y0070011D01*
X0079527Y0070127D01*
X0079632Y0070245D01*
X0079734Y0070367D01*
X0079833Y0070490D01*
X0079929Y0070617D01*
X0080022Y0070745D01*
X0080112Y0070876D01*
X0080198Y0071009D01*
X0080281Y0071143D01*
X0080361Y0071280D01*
X0080438Y0071419D01*
X0080511Y0071560D01*
X0080580Y0071702D01*
X0080646Y0071846D01*
X0080708Y0071992D01*
X0080767Y0072139D01*
X0080823Y0072288D01*
X0080874Y0072438D01*
X0080922Y0072589D01*
X0080966Y0072741D01*
X0081006Y0072894D01*
X0081043Y0073048D01*
X0081076Y0073203D01*
X0081105Y0073359D01*
X0081130Y0073516D01*
X0081151Y0073673D01*
X0081169Y0073830D01*
X0081183Y0073988D01*
X0081192Y0074146D01*
X0081198Y0074305D01*
X0081200Y0074463D01*
X0064200Y0073963D02*
X0064200Y0069463D01*
X0064700Y0068963D01*
X0065302Y0083361D02*
X0065142Y0083363D01*
X0064983Y0083369D01*
X0064824Y0083378D01*
X0064665Y0083392D01*
X0064506Y0083409D01*
X0064348Y0083430D01*
X0064191Y0083455D01*
X0064034Y0083484D01*
X0063877Y0083517D01*
X0063722Y0083553D01*
X0063568Y0083593D01*
X0063414Y0083637D01*
X0063262Y0083684D01*
X0063111Y0083735D01*
X0062961Y0083790D01*
X0062812Y0083848D01*
X0062665Y0083910D01*
X0062520Y0083976D01*
X0062376Y0084045D01*
X0062234Y0084117D01*
X0062094Y0084193D01*
X0061955Y0084272D01*
X0061819Y0084355D01*
X0061684Y0084441D01*
X0061552Y0084530D01*
X0061421Y0084622D01*
X0061294Y0084717D01*
X0061168Y0084816D01*
X0061045Y0084917D01*
X0060924Y0085021D01*
X0060806Y0085129D01*
X0060690Y0085239D01*
X0060578Y0085351D01*
X0060468Y0085467D01*
X0060360Y0085585D01*
X0060256Y0085706D01*
X0060155Y0085829D01*
X0060056Y0085955D01*
X0059961Y0086082D01*
X0059869Y0086213D01*
X0059780Y0086345D01*
X0059694Y0086480D01*
X0059611Y0086616D01*
X0059532Y0086755D01*
X0059456Y0086895D01*
X0059384Y0087037D01*
X0059315Y0087181D01*
X0059249Y0087326D01*
X0059187Y0087473D01*
X0059129Y0087622D01*
X0059074Y0087772D01*
X0059023Y0087923D01*
X0058976Y0088075D01*
X0058932Y0088229D01*
X0058892Y0088383D01*
X0058856Y0088538D01*
X0058823Y0088695D01*
X0058794Y0088852D01*
X0058769Y0089009D01*
X0058748Y0089167D01*
X0058731Y0089326D01*
X0058717Y0089485D01*
X0058708Y0089644D01*
X0058702Y0089803D01*
X0058700Y0089963D01*
X0064700Y0090463D02*
X0064702Y0090376D01*
X0064708Y0090290D01*
X0064717Y0090204D01*
X0064730Y0090118D01*
X0064747Y0090034D01*
X0064768Y0089950D01*
X0064792Y0089866D01*
X0064820Y0089784D01*
X0064851Y0089704D01*
X0064886Y0089625D01*
X0064924Y0089547D01*
X0064966Y0089471D01*
X0065011Y0089397D01*
X0065059Y0089325D01*
X0065110Y0089255D01*
X0065164Y0089188D01*
X0065221Y0089123D01*
X0065281Y0089060D01*
X0065344Y0089000D01*
X0065409Y0088943D01*
X0065476Y0088889D01*
X0065546Y0088838D01*
X0065618Y0088790D01*
X0065692Y0088745D01*
X0065768Y0088703D01*
X0065846Y0088665D01*
X0065925Y0088630D01*
X0066005Y0088599D01*
X0066087Y0088571D01*
X0066171Y0088547D01*
X0066255Y0088526D01*
X0066339Y0088509D01*
X0066425Y0088496D01*
X0066511Y0088487D01*
X0066597Y0088481D01*
X0066684Y0088479D01*
X0064700Y0092463D02*
X0064702Y0092550D01*
X0064708Y0092637D01*
X0064717Y0092724D01*
X0064730Y0092810D01*
X0064747Y0092896D01*
X0064768Y0092981D01*
X0064793Y0093064D01*
X0064821Y0093147D01*
X0064852Y0093228D01*
X0064887Y0093308D01*
X0064926Y0093386D01*
X0064968Y0093463D01*
X0065013Y0093538D01*
X0065062Y0093610D01*
X0065113Y0093681D01*
X0065168Y0093749D01*
X0065225Y0093814D01*
X0065286Y0093877D01*
X0065349Y0093938D01*
X0065414Y0093995D01*
X0065482Y0094050D01*
X0065553Y0094101D01*
X0065625Y0094150D01*
X0065700Y0094195D01*
X0065777Y0094237D01*
X0065855Y0094276D01*
X0065935Y0094311D01*
X0066016Y0094342D01*
X0066099Y0094370D01*
X0066182Y0094395D01*
X0066267Y0094416D01*
X0066353Y0094433D01*
X0066439Y0094446D01*
X0066526Y0094455D01*
X0066613Y0094461D01*
X0066700Y0094463D01*
X0066200Y0097463D02*
X0066067Y0097461D01*
X0065933Y0097455D01*
X0065800Y0097445D01*
X0065668Y0097431D01*
X0065536Y0097414D01*
X0065404Y0097392D01*
X0065273Y0097367D01*
X0065143Y0097337D01*
X0065014Y0097304D01*
X0064886Y0097267D01*
X0064759Y0097226D01*
X0064633Y0097181D01*
X0064509Y0097133D01*
X0064386Y0097081D01*
X0064265Y0097026D01*
X0064145Y0096966D01*
X0064027Y0096904D01*
X0063912Y0096838D01*
X0063798Y0096768D01*
X0063686Y0096695D01*
X0063577Y0096619D01*
X0063469Y0096540D01*
X0063365Y0096457D01*
X0063262Y0096372D01*
X0063163Y0096283D01*
X0063066Y0096192D01*
X0062971Y0096097D01*
X0062880Y0096000D01*
X0062791Y0095901D01*
X0062706Y0095798D01*
X0062623Y0095694D01*
X0062544Y0095586D01*
X0062468Y0095477D01*
X0062395Y0095365D01*
X0062325Y0095251D01*
X0062259Y0095136D01*
X0062197Y0095018D01*
X0062137Y0094898D01*
X0062082Y0094777D01*
X0062030Y0094654D01*
X0061982Y0094530D01*
X0061937Y0094404D01*
X0061896Y0094277D01*
X0061859Y0094149D01*
X0061826Y0094020D01*
X0061796Y0093890D01*
X0061771Y0093759D01*
X0061749Y0093627D01*
X0061732Y0093495D01*
X0061718Y0093363D01*
X0061708Y0093230D01*
X0061702Y0093096D01*
X0061700Y0092963D01*
X0196700Y0017963D02*
X0196736Y0017961D01*
X0196771Y0017956D01*
X0196806Y0017947D01*
X0196840Y0017935D01*
X0196873Y0017920D01*
X0196903Y0017901D01*
X0196932Y0017880D01*
X0196959Y0017856D01*
X0196983Y0017829D01*
X0197004Y0017800D01*
X0197023Y0017770D01*
X0197038Y0017737D01*
X0197050Y0017703D01*
X0197059Y0017668D01*
X0197064Y0017633D01*
X0197066Y0017597D01*
X0254200Y0089163D02*
X0254200Y0089563D01*
D27*
X0296200Y0088463D02*
X0296216Y0088479D01*
X0301306Y0088479D01*
X0301350Y0085963D02*
X0307700Y0085963D01*
X0307700Y0083463D02*
X0301409Y0083463D01*
X0301391Y0083461D01*
X0301374Y0083457D01*
X0301358Y0083449D01*
X0301343Y0083439D01*
X0301331Y0083427D01*
X0301321Y0083412D01*
X0301313Y0083396D01*
X0301309Y0083379D01*
X0301307Y0083361D01*
X0301307Y0085920D02*
X0301308Y0085931D01*
X0301313Y0085942D01*
X0301320Y0085950D01*
X0301329Y0085957D01*
X0301339Y0085962D01*
X0301350Y0085963D01*
X0301306Y0080802D02*
X0296039Y0080802D01*
X0296004Y0080800D01*
X0295969Y0080795D01*
X0295934Y0080785D01*
X0295901Y0080773D01*
X0295870Y0080757D01*
X0295840Y0080737D01*
X0295812Y0080715D01*
X0295787Y0080690D01*
X0295765Y0080662D01*
X0295745Y0080633D01*
X0295729Y0080601D01*
X0295717Y0080568D01*
X0295707Y0080533D01*
X0295702Y0080498D01*
X0295700Y0080463D01*
X0295980Y0078243D02*
X0301306Y0078243D01*
X0301306Y0075683D02*
X0295920Y0075683D01*
X0295891Y0075681D01*
X0295863Y0075676D01*
X0295836Y0075666D01*
X0295810Y0075654D01*
X0295786Y0075638D01*
X0295764Y0075619D01*
X0295745Y0075597D01*
X0295729Y0075573D01*
X0295717Y0075547D01*
X0295707Y0075520D01*
X0295702Y0075492D01*
X0295700Y0075463D01*
X0295861Y0073124D02*
X0301306Y0073124D01*
X0301307Y0070565D02*
X0301309Y0070547D01*
X0301313Y0070530D01*
X0301321Y0070514D01*
X0301331Y0070499D01*
X0301343Y0070487D01*
X0301358Y0070477D01*
X0301374Y0070469D01*
X0301391Y0070465D01*
X0301409Y0070463D01*
X0307700Y0070463D01*
X0307700Y0067963D02*
X0301350Y0067963D01*
X0301339Y0067964D01*
X0301329Y0067969D01*
X0301320Y0067976D01*
X0301313Y0067985D01*
X0301308Y0067995D01*
X0301307Y0068006D01*
X0301306Y0065447D02*
X0296200Y0065463D01*
X0296200Y0062963D02*
X0301306Y0062888D01*
X0314775Y0062888D02*
X0330094Y0062888D01*
X0330094Y0073124D02*
X0336539Y0073124D01*
X0336562Y0073122D01*
X0336584Y0073117D01*
X0336606Y0073109D01*
X0336626Y0073098D01*
X0336644Y0073085D01*
X0336661Y0073068D01*
X0336674Y0073050D01*
X0336685Y0073030D01*
X0336693Y0073008D01*
X0336698Y0072986D01*
X0336700Y0072963D01*
X0336700Y0073963D02*
X0336698Y0074045D01*
X0336692Y0074126D01*
X0336682Y0074208D01*
X0336669Y0074289D01*
X0336652Y0074369D01*
X0336630Y0074448D01*
X0336605Y0074526D01*
X0336577Y0074602D01*
X0336545Y0074678D01*
X0336509Y0074751D01*
X0336470Y0074823D01*
X0336427Y0074893D01*
X0336381Y0074961D01*
X0336332Y0075026D01*
X0336280Y0075089D01*
X0336225Y0075150D01*
X0336167Y0075208D01*
X0336106Y0075263D01*
X0336043Y0075315D01*
X0335978Y0075364D01*
X0335910Y0075410D01*
X0335840Y0075453D01*
X0335768Y0075492D01*
X0335695Y0075528D01*
X0335619Y0075560D01*
X0335543Y0075588D01*
X0335465Y0075613D01*
X0335386Y0075635D01*
X0335306Y0075652D01*
X0335225Y0075665D01*
X0335143Y0075675D01*
X0335062Y0075681D01*
X0334980Y0075683D01*
X0330094Y0075683D01*
X0330094Y0078243D02*
X0342280Y0078243D01*
X0342288Y0078245D01*
X0342294Y0078249D01*
X0342298Y0078255D01*
X0342300Y0078263D01*
X0330094Y0088479D02*
X0330078Y0088463D01*
X0314700Y0088463D01*
X0314700Y0090963D02*
X0314701Y0090978D01*
X0314706Y0090992D01*
X0314713Y0091005D01*
X0314722Y0091016D01*
X0314733Y0091025D01*
X0314746Y0091032D01*
X0314760Y0091037D01*
X0314775Y0091038D01*
X0330094Y0091038D01*
X0301306Y0091038D02*
X0296275Y0091038D01*
X0296200Y0090963D01*
X0295980Y0078243D02*
X0295949Y0078241D01*
X0295918Y0078236D01*
X0295888Y0078227D01*
X0295859Y0078215D01*
X0295831Y0078200D01*
X0295805Y0078182D01*
X0295782Y0078161D01*
X0295761Y0078138D01*
X0295743Y0078112D01*
X0295728Y0078084D01*
X0295716Y0078055D01*
X0295707Y0078025D01*
X0295702Y0077994D01*
X0295700Y0077963D01*
X0294700Y0073463D02*
X0294750Y0073488D01*
X0294801Y0073510D01*
X0294854Y0073528D01*
X0294908Y0073544D01*
X0294963Y0073555D01*
X0295018Y0073563D01*
X0295074Y0073567D01*
X0295130Y0073568D01*
X0295186Y0073565D01*
X0295241Y0073558D01*
X0295296Y0073548D01*
X0295350Y0073534D01*
X0295403Y0073516D01*
X0295455Y0073496D01*
X0295506Y0073471D01*
X0295555Y0073444D01*
X0295601Y0073413D01*
X0295646Y0073380D01*
X0295689Y0073343D01*
X0295729Y0073304D01*
X0295766Y0073263D01*
X0295801Y0073219D01*
X0295832Y0073172D01*
X0295861Y0073124D01*
X0314700Y0062963D02*
X0314701Y0062948D01*
X0314706Y0062934D01*
X0314713Y0062921D01*
X0314722Y0062910D01*
X0314733Y0062901D01*
X0314746Y0062894D01*
X0314760Y0062889D01*
X0314775Y0062888D01*
X0365082Y0074903D02*
X0365082Y0075345D01*
X0370200Y0080463D01*
X0370200Y0093463D01*
X0372436Y0095699D01*
X0375940Y0095699D01*
X0375940Y0078563D02*
X0375940Y0075525D01*
X0375318Y0074903D01*
X0375318Y0067423D02*
X0375940Y0066801D01*
X0375940Y0056329D01*
X0252300Y0012063D02*
X0205334Y0012063D01*
X0197066Y0012063D02*
X0197066Y0017597D01*
X0215700Y0028463D02*
X0138700Y0028463D01*
X0135031Y0032132D01*
X0135031Y0033463D01*
X0135031Y0035223D01*
X0135031Y0033463D02*
X0135029Y0033426D01*
X0135024Y0033388D01*
X0135016Y0033352D01*
X0135004Y0033316D01*
X0134988Y0033282D01*
X0134970Y0033249D01*
X0134949Y0033218D01*
X0134925Y0033189D01*
X0134899Y0033163D01*
X0134870Y0033139D01*
X0134839Y0033118D01*
X0134806Y0033100D01*
X0134772Y0033084D01*
X0134736Y0033072D01*
X0134700Y0033064D01*
X0134662Y0033059D01*
X0134625Y0033057D01*
X0117200Y0033057D01*
X0158200Y0064963D02*
X0164200Y0058963D01*
X0158200Y0064963D02*
X0158200Y0101463D01*
X0186074Y0122463D02*
X0230200Y0122463D01*
X0242200Y0135463D02*
X0244700Y0132963D01*
X0245200Y0132963D01*
X0242200Y0135463D02*
X0222700Y0135463D01*
X0219700Y0138463D01*
X0218200Y0138463D01*
X0222500Y0141963D02*
X0222500Y0143963D01*
X0221200Y0144963D01*
X0218700Y0144963D01*
X0222500Y0141963D02*
X0225500Y0139863D01*
X0257800Y0139863D01*
X0258200Y0140263D01*
X0258200Y0145463D01*
X0258200Y0140263D02*
X0258202Y0140193D01*
X0258208Y0140122D01*
X0258217Y0140053D01*
X0258230Y0139984D01*
X0258247Y0139915D01*
X0258268Y0139848D01*
X0258292Y0139782D01*
X0258320Y0139717D01*
X0258351Y0139654D01*
X0258386Y0139593D01*
X0258424Y0139533D01*
X0258465Y0139476D01*
X0258509Y0139421D01*
X0258556Y0139369D01*
X0258606Y0139319D01*
X0258658Y0139272D01*
X0258713Y0139228D01*
X0258770Y0139187D01*
X0258830Y0139149D01*
X0258891Y0139114D01*
X0258954Y0139083D01*
X0259019Y0139055D01*
X0259085Y0139031D01*
X0259152Y0139010D01*
X0259221Y0138993D01*
X0259290Y0138980D01*
X0259359Y0138971D01*
X0259430Y0138965D01*
X0259500Y0138963D01*
X0304200Y0138963D01*
X0228600Y0171263D02*
X0228400Y0171263D01*
X0226500Y0172963D01*
X0208300Y0172963D01*
X0206700Y0171563D01*
X0205240Y0170103D01*
X0205240Y0167845D01*
X0197760Y0167845D02*
X0197760Y0169202D01*
X0188400Y0178561D01*
X0179200Y0178561D02*
X0179200Y0183163D01*
X0180700Y0184663D01*
X0193300Y0184663D01*
X0197760Y0180203D01*
X0197760Y0178081D01*
X0201200Y0148463D02*
X0184700Y0148463D01*
X0181200Y0144963D01*
X0180200Y0139463D02*
X0178200Y0137463D01*
X0178200Y0130337D01*
X0186074Y0122463D01*
X0105125Y0091038D02*
X0100094Y0091038D01*
X0100094Y0088479D02*
X0105184Y0088479D01*
X0100050Y0085963D02*
X0093700Y0085963D01*
X0093700Y0083463D02*
X0099991Y0083463D01*
X0100094Y0080802D02*
X0105361Y0080802D01*
X0105420Y0078243D02*
X0100094Y0078243D01*
X0100094Y0075683D02*
X0105480Y0075683D01*
X0105539Y0073124D02*
X0100094Y0073124D01*
X0100094Y0070565D02*
X0093802Y0070565D01*
X0093743Y0068006D02*
X0100094Y0068006D01*
X0100094Y0065447D02*
X0105216Y0065447D01*
X0105200Y0062888D02*
X0100094Y0062888D01*
X0086125Y0062888D02*
X0071306Y0062888D01*
X0071306Y0065447D02*
X0086184Y0065447D01*
X0071306Y0075683D02*
X0065920Y0075683D01*
X0065838Y0075681D01*
X0065757Y0075675D01*
X0065675Y0075665D01*
X0065594Y0075652D01*
X0065514Y0075635D01*
X0065435Y0075613D01*
X0065357Y0075588D01*
X0065281Y0075560D01*
X0065205Y0075528D01*
X0065132Y0075492D01*
X0065060Y0075453D01*
X0064990Y0075410D01*
X0064922Y0075364D01*
X0064857Y0075315D01*
X0064794Y0075263D01*
X0064733Y0075208D01*
X0064675Y0075150D01*
X0064620Y0075089D01*
X0064568Y0075026D01*
X0064519Y0074961D01*
X0064473Y0074893D01*
X0064430Y0074823D01*
X0064391Y0074751D01*
X0064355Y0074678D01*
X0064323Y0074602D01*
X0064295Y0074526D01*
X0064270Y0074448D01*
X0064248Y0074369D01*
X0064231Y0074289D01*
X0064218Y0074208D01*
X0064208Y0074126D01*
X0064202Y0074045D01*
X0064200Y0073963D01*
X0057515Y0078243D02*
X0071306Y0078243D01*
X0071306Y0080802D02*
X0057728Y0080802D01*
X0057669Y0080800D01*
X0057611Y0080795D01*
X0057553Y0080785D01*
X0057496Y0080773D01*
X0057440Y0080756D01*
X0057385Y0080736D01*
X0057331Y0080713D01*
X0057279Y0080687D01*
X0057228Y0080657D01*
X0057180Y0080624D01*
X0057133Y0080588D01*
X0057089Y0080549D01*
X0057048Y0080508D01*
X0057009Y0080464D01*
X0056973Y0080417D01*
X0056940Y0080369D01*
X0056910Y0080318D01*
X0056884Y0080266D01*
X0056861Y0080212D01*
X0056841Y0080157D01*
X0056824Y0080101D01*
X0056812Y0080044D01*
X0056802Y0079986D01*
X0056797Y0079928D01*
X0056795Y0079869D01*
X0056795Y0078963D02*
X0056797Y0078912D01*
X0056802Y0078861D01*
X0056811Y0078810D01*
X0056824Y0078760D01*
X0056840Y0078711D01*
X0056860Y0078664D01*
X0056883Y0078618D01*
X0056909Y0078574D01*
X0056939Y0078532D01*
X0056971Y0078492D01*
X0057006Y0078454D01*
X0057044Y0078419D01*
X0057084Y0078387D01*
X0057126Y0078357D01*
X0057170Y0078331D01*
X0057216Y0078308D01*
X0057263Y0078288D01*
X0057312Y0078272D01*
X0057362Y0078259D01*
X0057413Y0078250D01*
X0057464Y0078245D01*
X0057515Y0078243D01*
X0036836Y0067183D02*
X0036836Y0066750D01*
X0032467Y0062381D01*
X0036200Y0065963D01*
X0032467Y0062381D02*
X0026161Y0056329D01*
X0026600Y0067183D02*
X0021980Y0067183D01*
X0019700Y0069463D01*
X0019700Y0083963D01*
X0021700Y0085963D01*
X0026054Y0085963D01*
X0026161Y0085857D01*
X0031700Y0090963D02*
X0031700Y0077963D01*
X0028400Y0074663D01*
X0026600Y0074663D01*
X0031700Y0090963D02*
X0026464Y0095699D01*
X0026161Y0095699D01*
X0071306Y0091038D02*
X0086125Y0091038D01*
X0180452Y0043447D02*
X0180452Y0038215D01*
X0180445Y0038109D01*
X0180433Y0038004D01*
X0180418Y0037898D01*
X0180399Y0037794D01*
X0180377Y0037690D01*
X0180350Y0037588D01*
X0180320Y0037486D01*
X0180286Y0037385D01*
X0180248Y0037286D01*
X0180207Y0037188D01*
X0180162Y0037092D01*
X0180114Y0036997D01*
X0180062Y0036905D01*
X0180007Y0036814D01*
X0179949Y0036725D01*
X0179888Y0036639D01*
X0179823Y0036554D01*
X0179755Y0036473D01*
X0179685Y0036393D01*
X0179611Y0036317D01*
X0179535Y0036243D01*
X0179456Y0036172D01*
X0179375Y0036103D01*
X0179291Y0036038D01*
X0179205Y0035976D01*
X0179117Y0035917D01*
X0179026Y0035862D01*
X0178934Y0035810D01*
X0178840Y0035761D01*
X0178744Y0035715D01*
X0178646Y0035674D01*
X0178547Y0035635D01*
X0178447Y0035601D01*
X0178345Y0035570D01*
X0178242Y0035543D01*
X0178139Y0035519D01*
X0178035Y0035500D01*
X0177930Y0035484D01*
X0177824Y0035472D01*
X0177718Y0035464D01*
X0177612Y0035460D01*
X0177506Y0035459D01*
X0177400Y0035463D01*
X0186357Y0036806D02*
X0186357Y0043447D01*
X0186335Y0043445D01*
X0186313Y0043441D01*
X0186292Y0043433D01*
X0186272Y0043422D01*
X0186254Y0043409D01*
X0186238Y0043393D01*
X0186225Y0043375D01*
X0186214Y0043355D01*
X0186206Y0043334D01*
X0186202Y0043312D01*
X0186200Y0043290D01*
X0180452Y0043447D02*
X0180422Y0043445D01*
X0180392Y0043440D01*
X0180363Y0043431D01*
X0180335Y0043418D01*
X0180309Y0043402D01*
X0180285Y0043384D01*
X0180263Y0043362D01*
X0180245Y0043338D01*
X0180229Y0043312D01*
X0180216Y0043284D01*
X0180207Y0043255D01*
X0180202Y0043225D01*
X0180200Y0043195D01*
X0186357Y0036806D02*
X0186359Y0036736D01*
X0186364Y0036666D01*
X0186374Y0036596D01*
X0186386Y0036527D01*
X0186403Y0036458D01*
X0186423Y0036391D01*
X0186446Y0036325D01*
X0186473Y0036260D01*
X0186503Y0036196D01*
X0186537Y0036135D01*
X0186574Y0036075D01*
X0186613Y0036017D01*
X0186656Y0035961D01*
X0186702Y0035907D01*
X0186750Y0035856D01*
X0186801Y0035808D01*
X0186855Y0035762D01*
X0186911Y0035719D01*
X0186969Y0035680D01*
X0187029Y0035643D01*
X0187090Y0035609D01*
X0187154Y0035579D01*
X0187219Y0035552D01*
X0187285Y0035529D01*
X0187352Y0035509D01*
X0187421Y0035492D01*
X0187490Y0035480D01*
X0187560Y0035470D01*
X0187630Y0035465D01*
X0187700Y0035463D01*
X0200600Y0034763D02*
X0200716Y0034765D01*
X0200832Y0034771D01*
X0200948Y0034780D01*
X0201063Y0034794D01*
X0201178Y0034811D01*
X0201292Y0034833D01*
X0201405Y0034858D01*
X0201518Y0034886D01*
X0201629Y0034919D01*
X0201740Y0034955D01*
X0201849Y0034995D01*
X0201956Y0035039D01*
X0202062Y0035086D01*
X0202167Y0035136D01*
X0202270Y0035190D01*
X0202370Y0035248D01*
X0202469Y0035309D01*
X0202566Y0035373D01*
X0202661Y0035440D01*
X0202753Y0035511D01*
X0202843Y0035584D01*
X0202930Y0035661D01*
X0203015Y0035740D01*
X0203097Y0035822D01*
X0203176Y0035907D01*
X0203253Y0035994D01*
X0203326Y0036084D01*
X0203397Y0036176D01*
X0203464Y0036271D01*
X0203528Y0036368D01*
X0203589Y0036467D01*
X0203647Y0036567D01*
X0203701Y0036670D01*
X0203751Y0036775D01*
X0203798Y0036881D01*
X0203842Y0036988D01*
X0203882Y0037097D01*
X0203918Y0037208D01*
X0203951Y0037319D01*
X0203979Y0037432D01*
X0204004Y0037545D01*
X0204026Y0037659D01*
X0204043Y0037774D01*
X0204057Y0037889D01*
X0204066Y0038005D01*
X0204072Y0038121D01*
X0204074Y0038237D01*
X0204074Y0043447D01*
X0215700Y0028463D02*
X0215865Y0028483D01*
X0216030Y0028507D01*
X0216194Y0028535D01*
X0216357Y0028567D01*
X0216519Y0028603D01*
X0216681Y0028643D01*
X0216841Y0028687D01*
X0217000Y0028735D01*
X0217159Y0028786D01*
X0217315Y0028841D01*
X0217471Y0028900D01*
X0217625Y0028963D01*
X0217777Y0029030D01*
X0217928Y0029100D01*
X0218077Y0029174D01*
X0218224Y0029251D01*
X0218370Y0029332D01*
X0218513Y0029416D01*
X0218654Y0029504D01*
X0218793Y0029595D01*
X0218930Y0029690D01*
X0219065Y0029788D01*
X0219197Y0029889D01*
X0219326Y0029993D01*
X0219453Y0030100D01*
X0219578Y0030210D01*
X0219700Y0030324D01*
X0219819Y0030440D01*
X0219935Y0030559D01*
X0220048Y0030681D01*
X0220158Y0030805D01*
X0220265Y0030933D01*
X0220369Y0031062D01*
X0220470Y0031194D01*
X0220568Y0031329D01*
X0220662Y0031466D01*
X0220753Y0031605D01*
X0220841Y0031746D01*
X0220925Y0031890D01*
X0221006Y0032035D01*
X0221083Y0032182D01*
X0221157Y0032332D01*
X0221227Y0032482D01*
X0221293Y0032635D01*
X0221356Y0032789D01*
X0221415Y0032944D01*
X0221470Y0033101D01*
X0221521Y0033260D01*
X0221569Y0033419D01*
X0221612Y0033579D01*
X0221652Y0033741D01*
X0221688Y0033903D01*
X0221720Y0034067D01*
X0221748Y0034231D01*
X0221772Y0034395D01*
X0221792Y0034560D01*
X0221808Y0034726D01*
X0221820Y0034892D01*
X0221828Y0035058D01*
X0221832Y0035224D01*
X0221831Y0035390D01*
X0221827Y0035557D01*
X0221819Y0035723D01*
X0221807Y0035889D01*
X0221791Y0036054D01*
X0221791Y0043447D01*
X0169407Y0018170D02*
X0169200Y0017963D01*
D28*
X0063200Y0017963D01*
X0063044Y0017983D01*
X0062889Y0018008D01*
X0062735Y0018036D01*
X0062581Y0018069D01*
X0062429Y0018105D01*
X0062277Y0018144D01*
X0062126Y0018188D01*
X0061976Y0018235D01*
X0061828Y0018286D01*
X0061681Y0018341D01*
X0061535Y0018400D01*
X0061391Y0018462D01*
X0061248Y0018527D01*
X0061108Y0018596D01*
X0060968Y0018669D01*
X0060831Y0018745D01*
X0060696Y0018824D01*
X0060562Y0018907D01*
X0060431Y0018993D01*
X0060302Y0019083D01*
X0060175Y0019175D01*
X0060051Y0019271D01*
X0059929Y0019370D01*
X0059809Y0019471D01*
X0059693Y0019576D01*
X0059578Y0019684D01*
X0059467Y0019794D01*
X0059358Y0019907D01*
X0059252Y0020023D01*
X0059149Y0020141D01*
X0059049Y0020262D01*
X0058952Y0020386D01*
X0058858Y0020512D01*
X0058767Y0020640D01*
X0058680Y0020770D01*
X0058596Y0020902D01*
X0058515Y0021037D01*
X0058437Y0021173D01*
X0058363Y0021312D01*
X0058293Y0021452D01*
X0058226Y0021594D01*
X0058162Y0021737D01*
X0058102Y0021883D01*
X0058046Y0022029D01*
X0057993Y0022177D01*
X0057944Y0022326D01*
X0057899Y0022476D01*
X0057858Y0022628D01*
X0057820Y0022780D01*
X0057786Y0022933D01*
X0057756Y0023087D01*
X0057730Y0023242D01*
X0057708Y0023398D01*
X0057690Y0023553D01*
X0057675Y0023710D01*
X0057665Y0023866D01*
X0057658Y0024023D01*
X0057655Y0024180D01*
X0057656Y0024337D01*
X0057661Y0024494D01*
X0057670Y0024651D01*
X0057683Y0024807D01*
X0057700Y0024963D01*
X0057700Y0042963D01*
X0057700Y0051557D01*
X0056794Y0052463D01*
X0056794Y0078963D01*
X0056794Y0079869D01*
X0053583Y0083080D01*
X0050700Y0090040D02*
X0050700Y0101463D01*
X0050703Y0101680D01*
X0050711Y0101898D01*
X0050724Y0102115D01*
X0050742Y0102332D01*
X0050766Y0102548D01*
X0050794Y0102763D01*
X0050828Y0102978D01*
X0050868Y0103192D01*
X0050912Y0103405D01*
X0050962Y0103617D01*
X0051016Y0103827D01*
X0051076Y0104037D01*
X0051140Y0104244D01*
X0051210Y0104450D01*
X0051285Y0104654D01*
X0051364Y0104857D01*
X0051449Y0105057D01*
X0051538Y0105256D01*
X0051632Y0105452D01*
X0051731Y0105646D01*
X0051834Y0105837D01*
X0051942Y0106026D01*
X0052055Y0106212D01*
X0052172Y0106395D01*
X0052293Y0106576D01*
X0052419Y0106753D01*
X0052549Y0106927D01*
X0052683Y0107099D01*
X0052821Y0107267D01*
X0052963Y0107431D01*
X0053110Y0107592D01*
X0053260Y0107750D01*
X0053413Y0107903D01*
X0053571Y0108053D01*
X0053732Y0108200D01*
X0053896Y0108342D01*
X0054064Y0108480D01*
X0054236Y0108614D01*
X0054410Y0108744D01*
X0054587Y0108870D01*
X0054768Y0108991D01*
X0054951Y0109108D01*
X0055137Y0109221D01*
X0055326Y0109329D01*
X0055517Y0109432D01*
X0055711Y0109531D01*
X0055907Y0109625D01*
X0056106Y0109714D01*
X0056306Y0109799D01*
X0056509Y0109878D01*
X0056713Y0109953D01*
X0056919Y0110023D01*
X0057126Y0110087D01*
X0057336Y0110147D01*
X0057546Y0110201D01*
X0057758Y0110251D01*
X0057971Y0110295D01*
X0058185Y0110335D01*
X0058400Y0110369D01*
X0058615Y0110397D01*
X0058831Y0110421D01*
X0059048Y0110439D01*
X0059265Y0110452D01*
X0059483Y0110460D01*
X0059700Y0110463D01*
X0109200Y0110463D01*
X0109200Y0119463D01*
X0123200Y0117057D02*
X0123200Y0110463D01*
X0145700Y0110463D01*
X0145860Y0110465D01*
X0146020Y0110471D01*
X0146180Y0110481D01*
X0146339Y0110494D01*
X0146499Y0110512D01*
X0146657Y0110534D01*
X0146815Y0110559D01*
X0146973Y0110588D01*
X0147129Y0110622D01*
X0147285Y0110659D01*
X0147440Y0110699D01*
X0147594Y0110744D01*
X0147746Y0110792D01*
X0147898Y0110844D01*
X0148048Y0110900D01*
X0148197Y0110960D01*
X0148344Y0111023D01*
X0148489Y0111089D01*
X0148633Y0111160D01*
X0148775Y0111233D01*
X0148916Y0111311D01*
X0149054Y0111391D01*
X0149190Y0111475D01*
X0149325Y0111562D01*
X0149457Y0111653D01*
X0149586Y0111747D01*
X0149714Y0111844D01*
X0149839Y0111944D01*
X0149961Y0112047D01*
X0150081Y0112153D01*
X0150199Y0112262D01*
X0150313Y0112374D01*
X0150425Y0112488D01*
X0150534Y0112606D01*
X0150640Y0112726D01*
X0150743Y0112848D01*
X0150843Y0112973D01*
X0150940Y0113101D01*
X0151034Y0113230D01*
X0151125Y0113362D01*
X0151212Y0113497D01*
X0151296Y0113633D01*
X0151376Y0113771D01*
X0151454Y0113912D01*
X0151527Y0114054D01*
X0151598Y0114198D01*
X0151664Y0114343D01*
X0151727Y0114490D01*
X0151787Y0114639D01*
X0151843Y0114789D01*
X0151895Y0114941D01*
X0151943Y0115093D01*
X0151988Y0115247D01*
X0152028Y0115402D01*
X0152065Y0115558D01*
X0152099Y0115714D01*
X0152128Y0115872D01*
X0152153Y0116030D01*
X0152175Y0116188D01*
X0152193Y0116348D01*
X0152206Y0116507D01*
X0152216Y0116667D01*
X0152222Y0116827D01*
X0152224Y0116987D01*
X0152224Y0124865D01*
X0152223Y0124865D02*
X0152225Y0124946D01*
X0152231Y0125027D01*
X0152240Y0125107D01*
X0152254Y0125187D01*
X0152271Y0125266D01*
X0152292Y0125344D01*
X0152317Y0125421D01*
X0152345Y0125497D01*
X0152377Y0125572D01*
X0152412Y0125644D01*
X0152451Y0125716D01*
X0152493Y0125785D01*
X0152538Y0125852D01*
X0152587Y0125916D01*
X0152638Y0125979D01*
X0152693Y0126039D01*
X0152750Y0126096D01*
X0152810Y0126151D01*
X0152873Y0126202D01*
X0152937Y0126251D01*
X0153004Y0126296D01*
X0153074Y0126338D01*
X0153145Y0126377D01*
X0153217Y0126412D01*
X0153292Y0126444D01*
X0153368Y0126472D01*
X0153445Y0126497D01*
X0153523Y0126518D01*
X0153602Y0126535D01*
X0153682Y0126549D01*
X0153762Y0126558D01*
X0153843Y0126564D01*
X0153924Y0126566D01*
X0153924Y0126565D02*
X0149121Y0123463D01*
X0143700Y0123463D01*
X0152224Y0116987D02*
X0152224Y0091487D01*
X0147200Y0085963D01*
X0130200Y0068963D01*
X0130200Y0056463D01*
X0130200Y0052063D01*
X0126400Y0048763D01*
X0126400Y0038994D01*
X0126369Y0038963D01*
X0096200Y0023963D02*
X0095924Y0023997D01*
X0095650Y0024038D01*
X0095376Y0024086D01*
X0095103Y0024140D01*
X0094832Y0024201D01*
X0094563Y0024268D01*
X0094295Y0024343D01*
X0094029Y0024423D01*
X0093766Y0024510D01*
X0093504Y0024604D01*
X0093245Y0024704D01*
X0092988Y0024810D01*
X0092734Y0024923D01*
X0092483Y0025042D01*
X0092235Y0025167D01*
X0091990Y0025298D01*
X0091748Y0025435D01*
X0091510Y0025578D01*
X0091275Y0025726D01*
X0091045Y0025881D01*
X0090817Y0026041D01*
X0090594Y0026206D01*
X0090375Y0026377D01*
X0090161Y0026554D01*
X0089950Y0026735D01*
X0089745Y0026922D01*
X0089543Y0027113D01*
X0089347Y0027310D01*
X0089155Y0027511D01*
X0088969Y0027717D01*
X0088788Y0027927D01*
X0088611Y0028142D01*
X0088440Y0028361D01*
X0088275Y0028584D01*
X0088115Y0028811D01*
X0087961Y0029042D01*
X0087812Y0029277D01*
X0087669Y0029516D01*
X0087533Y0029757D01*
X0087402Y0030002D01*
X0087277Y0030250D01*
X0087158Y0030502D01*
X0087046Y0030756D01*
X0086939Y0031012D01*
X0086839Y0031271D01*
X0086746Y0031533D01*
X0086659Y0031797D01*
X0086578Y0032063D01*
X0086504Y0032330D01*
X0086437Y0032600D01*
X0086376Y0032871D01*
X0086322Y0033144D01*
X0086274Y0033417D01*
X0086234Y0033692D01*
X0086200Y0033968D01*
X0086173Y0034244D01*
X0086152Y0034521D01*
X0086139Y0034799D01*
X0086132Y0035076D01*
X0086132Y0035354D01*
X0086139Y0035632D01*
X0086152Y0035909D01*
X0086173Y0036187D01*
X0086200Y0036463D01*
X0086200Y0042963D01*
X0086200Y0052057D01*
X0086198Y0052116D01*
X0086192Y0052175D01*
X0086183Y0052234D01*
X0086169Y0052291D01*
X0086152Y0052348D01*
X0086131Y0052404D01*
X0086107Y0052458D01*
X0086079Y0052510D01*
X0086047Y0052560D01*
X0086013Y0052609D01*
X0085975Y0052654D01*
X0085935Y0052698D01*
X0085891Y0052738D01*
X0085846Y0052776D01*
X0085797Y0052810D01*
X0085747Y0052842D01*
X0085695Y0052870D01*
X0085641Y0052894D01*
X0085585Y0052915D01*
X0085528Y0052932D01*
X0085471Y0052946D01*
X0085412Y0052955D01*
X0085353Y0052961D01*
X0085294Y0052963D01*
X0085351Y0052965D01*
X0085407Y0052971D01*
X0085463Y0052980D01*
X0085518Y0052994D01*
X0085572Y0053011D01*
X0085625Y0053032D01*
X0085676Y0053056D01*
X0085726Y0053084D01*
X0085773Y0053115D01*
X0085818Y0053149D01*
X0085861Y0053187D01*
X0085901Y0053227D01*
X0085939Y0053270D01*
X0085973Y0053315D01*
X0086004Y0053362D01*
X0086032Y0053412D01*
X0086056Y0053463D01*
X0086077Y0053516D01*
X0086094Y0053570D01*
X0086108Y0053625D01*
X0086117Y0053681D01*
X0086123Y0053737D01*
X0086125Y0053794D01*
X0086125Y0062888D01*
X0086184Y0062947D01*
X0086184Y0065447D01*
X0086184Y0076447D01*
X0086200Y0076463D01*
X0086200Y0087963D01*
X0086200Y0089963D01*
X0093700Y0085963D02*
X0093700Y0083463D01*
X0093700Y0070668D01*
X0093700Y0068050D01*
X0093700Y0067963D02*
X0093700Y0056369D01*
X0097106Y0052963D01*
X0097106Y0043869D01*
X0096200Y0042963D01*
X0111657Y0055963D02*
X0114200Y0055963D01*
X0111657Y0055963D02*
X0111495Y0055971D01*
X0111334Y0055983D01*
X0111173Y0055998D01*
X0111012Y0056018D01*
X0110852Y0056042D01*
X0110693Y0056069D01*
X0110534Y0056100D01*
X0110376Y0056135D01*
X0110219Y0056174D01*
X0110063Y0056217D01*
X0109908Y0056263D01*
X0109754Y0056314D01*
X0109601Y0056367D01*
X0109450Y0056425D01*
X0109300Y0056486D01*
X0109152Y0056551D01*
X0109006Y0056619D01*
X0108861Y0056691D01*
X0108717Y0056767D01*
X0108576Y0056845D01*
X0108437Y0056927D01*
X0108299Y0057013D01*
X0108164Y0057102D01*
X0108031Y0057194D01*
X0107900Y0057289D01*
X0107772Y0057388D01*
X0107646Y0057489D01*
X0107522Y0057593D01*
X0107401Y0057701D01*
X0107283Y0057811D01*
X0107167Y0057924D01*
X0107054Y0058040D01*
X0106944Y0058159D01*
X0106837Y0058280D01*
X0106733Y0058404D01*
X0106631Y0058530D01*
X0106533Y0058659D01*
X0106438Y0058790D01*
X0106347Y0058923D01*
X0106258Y0059059D01*
X0106173Y0059196D01*
X0106091Y0059336D01*
X0106013Y0059477D01*
X0105937Y0059621D01*
X0105866Y0059766D01*
X0105798Y0059913D01*
X0105733Y0060061D01*
X0105673Y0060211D01*
X0105615Y0060362D01*
X0105562Y0060515D01*
X0105512Y0060669D01*
X0105466Y0060824D01*
X0105424Y0060980D01*
X0105385Y0061137D01*
X0105350Y0061295D01*
X0105319Y0061454D01*
X0105292Y0061614D01*
X0105269Y0061774D01*
X0105250Y0061935D01*
X0105234Y0062096D01*
X0105223Y0062257D01*
X0105215Y0062419D01*
X0105211Y0062580D01*
X0105212Y0062742D01*
X0105216Y0062904D01*
X0105216Y0065447D01*
X0106538Y0073124D02*
X0106751Y0073119D01*
X0106963Y0073108D01*
X0107175Y0073093D01*
X0107387Y0073072D01*
X0107598Y0073046D01*
X0107809Y0073015D01*
X0108019Y0072979D01*
X0108227Y0072938D01*
X0108435Y0072891D01*
X0108641Y0072840D01*
X0108847Y0072784D01*
X0109050Y0072723D01*
X0109253Y0072657D01*
X0109453Y0072586D01*
X0109652Y0072510D01*
X0109849Y0072430D01*
X0110044Y0072345D01*
X0110237Y0072255D01*
X0110427Y0072160D01*
X0110616Y0072061D01*
X0110801Y0071957D01*
X0110985Y0071849D01*
X0111165Y0071737D01*
X0111343Y0071620D01*
X0111518Y0071499D01*
X0111690Y0071374D01*
X0111859Y0071244D01*
X0112025Y0071111D01*
X0112187Y0070973D01*
X0112346Y0070832D01*
X0112502Y0070687D01*
X0112654Y0070538D01*
X0112802Y0070386D01*
X0112947Y0070230D01*
X0113088Y0070070D01*
X0113225Y0069907D01*
X0113358Y0069741D01*
X0113487Y0069572D01*
X0113611Y0069400D01*
X0113732Y0069225D01*
X0113848Y0069046D01*
X0113960Y0068866D01*
X0114068Y0068682D01*
X0114171Y0068496D01*
X0114270Y0068307D01*
X0114364Y0068117D01*
X0114453Y0067924D01*
X0114538Y0067728D01*
X0114618Y0067531D01*
X0114693Y0067332D01*
X0114763Y0067131D01*
X0114829Y0066929D01*
X0114889Y0066725D01*
X0114945Y0066520D01*
X0114996Y0066313D01*
X0115041Y0066105D01*
X0115082Y0065896D01*
X0115117Y0065687D01*
X0115148Y0065476D01*
X0115173Y0065265D01*
X0115194Y0065053D01*
X0115209Y0064841D01*
X0115219Y0064628D01*
X0115223Y0064416D01*
X0115223Y0064203D01*
X0123200Y0062463D02*
X0123167Y0062276D01*
X0123130Y0062090D01*
X0123089Y0061905D01*
X0123043Y0061721D01*
X0122993Y0061538D01*
X0122938Y0061356D01*
X0122879Y0061176D01*
X0122815Y0060997D01*
X0122748Y0060820D01*
X0122676Y0060645D01*
X0122599Y0060471D01*
X0122519Y0060299D01*
X0122434Y0060129D01*
X0122346Y0059962D01*
X0122253Y0059796D01*
X0122156Y0059633D01*
X0122056Y0059472D01*
X0121951Y0059314D01*
X0121843Y0059158D01*
X0121731Y0059005D01*
X0121616Y0058854D01*
X0121496Y0058707D01*
X0121374Y0058562D01*
X0121248Y0058420D01*
X0121118Y0058282D01*
X0120985Y0058147D01*
X0120849Y0058014D01*
X0120710Y0057886D01*
X0120567Y0057760D01*
X0120422Y0057638D01*
X0120274Y0057520D01*
X0120123Y0057405D01*
X0119969Y0057294D01*
X0119812Y0057187D01*
X0119653Y0057083D01*
X0119492Y0056984D01*
X0119328Y0056888D01*
X0119162Y0056796D01*
X0118994Y0056709D01*
X0118824Y0056625D01*
X0118651Y0056545D01*
X0118477Y0056470D01*
X0118301Y0056399D01*
X0118124Y0056332D01*
X0117945Y0056270D01*
X0117764Y0056212D01*
X0117582Y0056158D01*
X0117399Y0056109D01*
X0117215Y0056064D01*
X0117029Y0056024D01*
X0116843Y0055988D01*
X0116656Y0055956D01*
X0116468Y0055929D01*
X0116280Y0055907D01*
X0116091Y0055889D01*
X0115902Y0055876D01*
X0115712Y0055867D01*
X0115523Y0055863D01*
X0115333Y0055864D01*
X0115143Y0055869D01*
X0114954Y0055879D01*
X0114765Y0055893D01*
X0114576Y0055912D01*
X0114388Y0055935D01*
X0114200Y0055963D01*
X0123200Y0062463D02*
X0123200Y0070463D01*
X0123191Y0070653D01*
X0123178Y0070843D01*
X0123161Y0071032D01*
X0123138Y0071221D01*
X0123111Y0071410D01*
X0123079Y0071597D01*
X0123043Y0071784D01*
X0123002Y0071970D01*
X0122957Y0072155D01*
X0122907Y0072339D01*
X0122853Y0072521D01*
X0122794Y0072702D01*
X0122730Y0072881D01*
X0122663Y0073059D01*
X0122591Y0073235D01*
X0122514Y0073410D01*
X0122434Y0073582D01*
X0122349Y0073753D01*
X0122260Y0073921D01*
X0122167Y0074087D01*
X0122070Y0074250D01*
X0121969Y0074412D01*
X0121864Y0074570D01*
X0121755Y0074727D01*
X0121642Y0074880D01*
X0121526Y0075030D01*
X0121406Y0075178D01*
X0121282Y0075323D01*
X0121155Y0075464D01*
X0121024Y0075603D01*
X0120891Y0075738D01*
X0120753Y0075870D01*
X0120613Y0075998D01*
X0120469Y0076123D01*
X0120323Y0076245D01*
X0120173Y0076362D01*
X0120021Y0076476D01*
X0119866Y0076587D01*
X0119708Y0076693D01*
X0119548Y0076796D01*
X0119385Y0076894D01*
X0119220Y0076989D01*
X0119052Y0077079D01*
X0118883Y0077166D01*
X0118711Y0077248D01*
X0118538Y0077326D01*
X0118362Y0077399D01*
X0118185Y0077469D01*
X0118006Y0077534D01*
X0117826Y0077594D01*
X0117644Y0077650D01*
X0117460Y0077702D01*
X0117276Y0077749D01*
X0117091Y0077791D01*
X0116904Y0077829D01*
X0116717Y0077863D01*
X0116529Y0077892D01*
X0116340Y0077916D01*
X0116151Y0077935D01*
X0115961Y0077950D01*
X0115771Y0077960D01*
X0115581Y0077966D01*
X0115390Y0077967D01*
X0115200Y0077963D01*
X0115224Y0089794D01*
X0115200Y0091463D01*
X0115163Y0091596D01*
X0115123Y0091727D01*
X0115078Y0091858D01*
X0115030Y0091987D01*
X0114979Y0092115D01*
X0114924Y0092241D01*
X0114865Y0092366D01*
X0114803Y0092489D01*
X0114737Y0092610D01*
X0114669Y0092729D01*
X0114596Y0092847D01*
X0114521Y0092962D01*
X0114442Y0093075D01*
X0114360Y0093186D01*
X0114275Y0093294D01*
X0114187Y0093400D01*
X0114097Y0093504D01*
X0114003Y0093605D01*
X0113906Y0093703D01*
X0113807Y0093799D01*
X0113705Y0093892D01*
X0113601Y0093981D01*
X0113494Y0094068D01*
X0113385Y0094152D01*
X0113273Y0094233D01*
X0113159Y0094310D01*
X0113043Y0094385D01*
X0112925Y0094456D01*
X0112805Y0094524D01*
X0112683Y0094588D01*
X0112560Y0094649D01*
X0112434Y0094706D01*
X0112308Y0094760D01*
X0112179Y0094811D01*
X0112050Y0094857D01*
X0111919Y0094900D01*
X0111787Y0094940D01*
X0111654Y0094975D01*
X0111520Y0095007D01*
X0111385Y0095035D01*
X0111249Y0095060D01*
X0111113Y0095080D01*
X0110976Y0095097D01*
X0110839Y0095110D01*
X0110702Y0095119D01*
X0110564Y0095124D01*
X0110426Y0095125D01*
X0110288Y0095122D01*
X0110151Y0095116D01*
X0110013Y0095106D01*
X0109876Y0095091D01*
X0109740Y0095073D01*
X0109604Y0095052D01*
X0109468Y0095026D01*
X0109334Y0094996D01*
X0109200Y0094963D01*
X0109050Y0094963D01*
X0108927Y0094961D01*
X0108804Y0094955D01*
X0108681Y0094946D01*
X0108558Y0094932D01*
X0108436Y0094915D01*
X0108315Y0094893D01*
X0108194Y0094868D01*
X0108074Y0094840D01*
X0107955Y0094807D01*
X0107837Y0094771D01*
X0107720Y0094731D01*
X0107605Y0094687D01*
X0107491Y0094640D01*
X0107379Y0094589D01*
X0107268Y0094535D01*
X0107159Y0094478D01*
X0107052Y0094416D01*
X0106947Y0094352D01*
X0106844Y0094284D01*
X0106743Y0094213D01*
X0106644Y0094139D01*
X0106548Y0094062D01*
X0106454Y0093982D01*
X0106363Y0093899D01*
X0106275Y0093813D01*
X0106189Y0093725D01*
X0106106Y0093634D01*
X0106026Y0093540D01*
X0105949Y0093444D01*
X0105875Y0093345D01*
X0105804Y0093244D01*
X0105736Y0093141D01*
X0105672Y0093036D01*
X0105610Y0092929D01*
X0105553Y0092820D01*
X0105499Y0092709D01*
X0105448Y0092597D01*
X0105401Y0092483D01*
X0105357Y0092368D01*
X0105317Y0092251D01*
X0105281Y0092133D01*
X0105248Y0092014D01*
X0105220Y0091894D01*
X0105195Y0091773D01*
X0105173Y0091652D01*
X0105156Y0091530D01*
X0105142Y0091407D01*
X0105133Y0091284D01*
X0105127Y0091161D01*
X0105125Y0091038D01*
X0105138Y0091037D01*
X0105151Y0091032D01*
X0105162Y0091025D01*
X0105171Y0091016D01*
X0105178Y0091005D01*
X0105183Y0090992D01*
X0105184Y0090979D01*
X0105184Y0088479D01*
X0105420Y0080743D02*
X0105420Y0078243D01*
X0105538Y0080624D02*
X0105536Y0080644D01*
X0105531Y0080664D01*
X0105522Y0080683D01*
X0105510Y0080700D01*
X0105496Y0080714D01*
X0105479Y0080726D01*
X0105460Y0080735D01*
X0105440Y0080740D01*
X0105420Y0080742D01*
X0105539Y0080624D02*
X0105539Y0073124D01*
X0106539Y0073124D01*
X0053583Y0083080D02*
X0053419Y0083248D01*
X0053260Y0083419D01*
X0053104Y0083594D01*
X0052953Y0083773D01*
X0052806Y0083955D01*
X0052663Y0084141D01*
X0052525Y0084330D01*
X0052392Y0084523D01*
X0052263Y0084718D01*
X0052138Y0084917D01*
X0052019Y0085118D01*
X0051904Y0085323D01*
X0051794Y0085530D01*
X0051689Y0085739D01*
X0051589Y0085951D01*
X0051495Y0086165D01*
X0051405Y0086382D01*
X0051321Y0086600D01*
X0051241Y0086821D01*
X0051167Y0087043D01*
X0051099Y0087267D01*
X0051035Y0087492D01*
X0050977Y0087719D01*
X0050925Y0087948D01*
X0050878Y0088177D01*
X0050836Y0088408D01*
X0050800Y0088639D01*
X0050770Y0088871D01*
X0050745Y0089104D01*
X0050725Y0089338D01*
X0050711Y0089572D01*
X0050703Y0089806D01*
X0050700Y0090040D01*
X0109200Y0110463D02*
X0123200Y0110463D01*
X0269948Y0030739D02*
X0269948Y0025211D01*
X0269946Y0025143D01*
X0269941Y0025076D01*
X0269932Y0025009D01*
X0269919Y0024943D01*
X0269903Y0024877D01*
X0269883Y0024813D01*
X0269859Y0024749D01*
X0269833Y0024687D01*
X0269803Y0024626D01*
X0269769Y0024568D01*
X0269733Y0024511D01*
X0269694Y0024456D01*
X0269651Y0024403D01*
X0269606Y0024353D01*
X0269558Y0024305D01*
X0269508Y0024260D01*
X0269455Y0024217D01*
X0269400Y0024178D01*
X0269343Y0024142D01*
X0269285Y0024108D01*
X0269224Y0024078D01*
X0269162Y0024052D01*
X0269098Y0024028D01*
X0269034Y0024008D01*
X0268968Y0023992D01*
X0268902Y0023979D01*
X0268835Y0023970D01*
X0268768Y0023965D01*
X0268700Y0023963D01*
X0268263Y0024400D01*
X0268700Y0023963D02*
X0299200Y0023963D01*
X0268700Y0023963D02*
X0240700Y0023963D01*
X0096200Y0023963D01*
X0169200Y0017963D02*
X0196700Y0017963D01*
X0332200Y0017963D01*
X0332333Y0017965D01*
X0332467Y0017971D01*
X0332600Y0017981D01*
X0332732Y0017995D01*
X0332864Y0018012D01*
X0332996Y0018034D01*
X0333127Y0018059D01*
X0333257Y0018089D01*
X0333386Y0018122D01*
X0333514Y0018159D01*
X0333641Y0018200D01*
X0333767Y0018245D01*
X0333891Y0018293D01*
X0334014Y0018345D01*
X0334135Y0018400D01*
X0334255Y0018460D01*
X0334373Y0018522D01*
X0334488Y0018588D01*
X0334602Y0018658D01*
X0334714Y0018731D01*
X0334823Y0018807D01*
X0334931Y0018886D01*
X0335035Y0018969D01*
X0335138Y0019054D01*
X0335237Y0019143D01*
X0335334Y0019234D01*
X0335429Y0019329D01*
X0335520Y0019426D01*
X0335609Y0019525D01*
X0335694Y0019628D01*
X0335777Y0019732D01*
X0335856Y0019840D01*
X0335932Y0019949D01*
X0336005Y0020061D01*
X0336075Y0020175D01*
X0336141Y0020290D01*
X0336203Y0020408D01*
X0336263Y0020528D01*
X0336318Y0020649D01*
X0336370Y0020772D01*
X0336418Y0020896D01*
X0336463Y0021022D01*
X0336504Y0021149D01*
X0336541Y0021277D01*
X0336574Y0021406D01*
X0336604Y0021536D01*
X0336629Y0021667D01*
X0336651Y0021799D01*
X0336668Y0021931D01*
X0336682Y0022063D01*
X0336692Y0022196D01*
X0336698Y0022330D01*
X0336700Y0022463D01*
X0336700Y0042963D01*
X0336700Y0052057D01*
X0336698Y0052116D01*
X0336692Y0052175D01*
X0336683Y0052234D01*
X0336669Y0052291D01*
X0336652Y0052348D01*
X0336631Y0052404D01*
X0336607Y0052458D01*
X0336579Y0052510D01*
X0336547Y0052560D01*
X0336513Y0052609D01*
X0336475Y0052654D01*
X0336435Y0052698D01*
X0336391Y0052738D01*
X0336346Y0052776D01*
X0336297Y0052810D01*
X0336247Y0052842D01*
X0336195Y0052870D01*
X0336141Y0052894D01*
X0336085Y0052915D01*
X0336028Y0052932D01*
X0335971Y0052946D01*
X0335912Y0052955D01*
X0335853Y0052961D01*
X0335794Y0052963D01*
X0335853Y0052965D01*
X0335912Y0052971D01*
X0335971Y0052980D01*
X0336028Y0052994D01*
X0336085Y0053011D01*
X0336141Y0053032D01*
X0336195Y0053056D01*
X0336247Y0053084D01*
X0336297Y0053116D01*
X0336346Y0053150D01*
X0336391Y0053188D01*
X0336435Y0053228D01*
X0336475Y0053272D01*
X0336513Y0053317D01*
X0336547Y0053366D01*
X0336579Y0053416D01*
X0336607Y0053468D01*
X0336631Y0053522D01*
X0336652Y0053578D01*
X0336669Y0053635D01*
X0336683Y0053692D01*
X0336692Y0053751D01*
X0336698Y0053810D01*
X0336700Y0053869D01*
X0336700Y0066463D01*
X0336700Y0072963D01*
X0336700Y0073963D01*
X0314700Y0062963D02*
X0314702Y0062810D01*
X0314708Y0062657D01*
X0314717Y0062505D01*
X0314731Y0062352D01*
X0314748Y0062200D01*
X0314770Y0062049D01*
X0314795Y0061898D01*
X0314824Y0061748D01*
X0314856Y0061599D01*
X0314893Y0061450D01*
X0314933Y0061303D01*
X0314977Y0061156D01*
X0315024Y0061011D01*
X0315076Y0060867D01*
X0315131Y0060724D01*
X0315189Y0060583D01*
X0315251Y0060443D01*
X0315317Y0060305D01*
X0315386Y0060168D01*
X0315458Y0060034D01*
X0315534Y0059901D01*
X0315614Y0059770D01*
X0315696Y0059641D01*
X0315782Y0059515D01*
X0315871Y0059390D01*
X0315963Y0059268D01*
X0316058Y0059149D01*
X0316156Y0059031D01*
X0316257Y0058917D01*
X0316361Y0058804D01*
X0316468Y0058695D01*
X0319700Y0055463D01*
X0319700Y0052691D01*
X0319698Y0052659D01*
X0319694Y0052628D01*
X0319686Y0052597D01*
X0319675Y0052567D01*
X0319662Y0052539D01*
X0319646Y0052512D01*
X0319627Y0052486D01*
X0319605Y0052463D01*
X0319606Y0052463D02*
X0319532Y0052461D01*
X0319459Y0052455D01*
X0319386Y0052446D01*
X0319314Y0052432D01*
X0319242Y0052415D01*
X0319172Y0052394D01*
X0319102Y0052370D01*
X0319034Y0052341D01*
X0318968Y0052310D01*
X0318903Y0052275D01*
X0318840Y0052236D01*
X0318780Y0052194D01*
X0318721Y0052150D01*
X0318665Y0052102D01*
X0318612Y0052051D01*
X0318561Y0051998D01*
X0318513Y0051942D01*
X0318469Y0051883D01*
X0318427Y0051823D01*
X0318388Y0051760D01*
X0318353Y0051695D01*
X0318322Y0051629D01*
X0318293Y0051561D01*
X0318269Y0051491D01*
X0318248Y0051421D01*
X0318231Y0051349D01*
X0318217Y0051277D01*
X0318208Y0051204D01*
X0318202Y0051131D01*
X0318200Y0051057D01*
X0318200Y0042963D01*
X0308200Y0042963D02*
X0308200Y0052191D01*
X0307700Y0052691D01*
X0307700Y0067963D01*
X0307700Y0070463D01*
X0307700Y0083463D01*
X0307700Y0085963D01*
X0314700Y0088463D02*
X0314700Y0090963D01*
X0314775Y0091038D01*
X0314700Y0088463D02*
X0314700Y0062963D01*
X0307700Y0052691D02*
X0307702Y0052659D01*
X0307706Y0052628D01*
X0307714Y0052597D01*
X0307725Y0052567D01*
X0307738Y0052539D01*
X0307754Y0052512D01*
X0307773Y0052486D01*
X0307795Y0052463D01*
X0289700Y0055963D02*
X0287700Y0055963D01*
X0289700Y0055963D02*
X0289863Y0055971D01*
X0290026Y0055983D01*
X0290188Y0055998D01*
X0290350Y0056018D01*
X0290512Y0056042D01*
X0290673Y0056070D01*
X0290833Y0056101D01*
X0290992Y0056136D01*
X0291151Y0056176D01*
X0291308Y0056219D01*
X0291465Y0056265D01*
X0291620Y0056316D01*
X0291774Y0056370D01*
X0291926Y0056428D01*
X0292077Y0056490D01*
X0292227Y0056555D01*
X0292375Y0056624D01*
X0292521Y0056697D01*
X0292666Y0056773D01*
X0292808Y0056852D01*
X0292949Y0056935D01*
X0293088Y0057021D01*
X0293224Y0057111D01*
X0293358Y0057204D01*
X0293490Y0057300D01*
X0293620Y0057399D01*
X0293747Y0057501D01*
X0293872Y0057606D01*
X0293994Y0057715D01*
X0294113Y0057826D01*
X0294230Y0057940D01*
X0294344Y0058057D01*
X0294455Y0058177D01*
X0294563Y0058299D01*
X0294669Y0058424D01*
X0294771Y0058551D01*
X0294870Y0058681D01*
X0294965Y0058813D01*
X0295058Y0058947D01*
X0295147Y0059084D01*
X0295233Y0059223D01*
X0295316Y0059364D01*
X0295395Y0059506D01*
X0295471Y0059651D01*
X0295543Y0059797D01*
X0295612Y0059945D01*
X0295677Y0060095D01*
X0295739Y0060246D01*
X0295796Y0060399D01*
X0295850Y0060553D01*
X0295901Y0060708D01*
X0295947Y0060865D01*
X0295990Y0061022D01*
X0296029Y0061181D01*
X0296064Y0061340D01*
X0296095Y0061501D01*
X0296123Y0061661D01*
X0296146Y0061823D01*
X0296166Y0061985D01*
X0296181Y0062148D01*
X0296193Y0062310D01*
X0296201Y0062473D01*
X0296205Y0062637D01*
X0296204Y0062800D01*
X0296200Y0062963D01*
X0296200Y0065463D01*
X0294700Y0073463D02*
X0294519Y0073473D01*
X0294337Y0073479D01*
X0294155Y0073480D01*
X0293974Y0073477D01*
X0293792Y0073469D01*
X0293611Y0073457D01*
X0293430Y0073440D01*
X0293250Y0073420D01*
X0293070Y0073395D01*
X0292891Y0073365D01*
X0292712Y0073331D01*
X0292534Y0073293D01*
X0292358Y0073251D01*
X0292182Y0073204D01*
X0292008Y0073153D01*
X0291835Y0073098D01*
X0291663Y0073039D01*
X0291493Y0072976D01*
X0291324Y0072908D01*
X0291157Y0072837D01*
X0290992Y0072761D01*
X0290829Y0072682D01*
X0290667Y0072598D01*
X0290508Y0072511D01*
X0290351Y0072420D01*
X0290196Y0072325D01*
X0290043Y0072226D01*
X0289893Y0072124D01*
X0289746Y0072018D01*
X0289601Y0071909D01*
X0289458Y0071796D01*
X0289319Y0071680D01*
X0289182Y0071560D01*
X0289048Y0071437D01*
X0288917Y0071311D01*
X0288790Y0071182D01*
X0288665Y0071049D01*
X0288544Y0070914D01*
X0288426Y0070776D01*
X0288311Y0070635D01*
X0288200Y0070492D01*
X0288093Y0070345D01*
X0287988Y0070196D01*
X0287888Y0070045D01*
X0287791Y0069891D01*
X0287698Y0069735D01*
X0287609Y0069577D01*
X0287523Y0069417D01*
X0287442Y0069254D01*
X0287364Y0069090D01*
X0287291Y0068924D01*
X0287221Y0068756D01*
X0287156Y0068587D01*
X0287094Y0068416D01*
X0287037Y0068243D01*
X0286984Y0068070D01*
X0286935Y0067895D01*
X0286891Y0067719D01*
X0286851Y0067541D01*
X0286815Y0067363D01*
X0286783Y0067185D01*
X0286756Y0067005D01*
X0286733Y0066825D01*
X0286714Y0066644D01*
X0286700Y0066463D01*
X0286877Y0064203D01*
X0287700Y0055963D02*
X0287500Y0055935D01*
X0287300Y0055912D01*
X0287099Y0055894D01*
X0286898Y0055881D01*
X0286696Y0055873D01*
X0286495Y0055869D01*
X0286293Y0055870D01*
X0286092Y0055877D01*
X0285890Y0055888D01*
X0285689Y0055904D01*
X0285489Y0055925D01*
X0285289Y0055950D01*
X0285089Y0055981D01*
X0284891Y0056016D01*
X0284693Y0056056D01*
X0284497Y0056101D01*
X0284301Y0056150D01*
X0284107Y0056205D01*
X0283914Y0056264D01*
X0283723Y0056327D01*
X0283533Y0056395D01*
X0283345Y0056468D01*
X0283159Y0056545D01*
X0282975Y0056627D01*
X0282792Y0056713D01*
X0282612Y0056804D01*
X0282434Y0056899D01*
X0282259Y0056998D01*
X0282086Y0057101D01*
X0281915Y0057209D01*
X0281747Y0057321D01*
X0281582Y0057436D01*
X0281420Y0057556D01*
X0281260Y0057679D01*
X0281104Y0057807D01*
X0280951Y0057938D01*
X0280801Y0058072D01*
X0280654Y0058211D01*
X0280510Y0058353D01*
X0280371Y0058498D01*
X0280234Y0058646D01*
X0280102Y0058798D01*
X0279973Y0058953D01*
X0279847Y0059111D01*
X0279726Y0059272D01*
X0279609Y0059436D01*
X0279495Y0059603D01*
X0279386Y0059772D01*
X0279281Y0059944D01*
X0279180Y0060119D01*
X0279083Y0060296D01*
X0278990Y0060475D01*
X0278902Y0060656D01*
X0278818Y0060840D01*
X0278739Y0061025D01*
X0278664Y0061212D01*
X0278594Y0061401D01*
X0278528Y0061592D01*
X0278467Y0061784D01*
X0278411Y0061978D01*
X0278359Y0062173D01*
X0278312Y0062369D01*
X0278270Y0062566D01*
X0278233Y0062764D01*
X0278200Y0062963D01*
X0278200Y0069963D01*
X0278202Y0070168D01*
X0278210Y0070374D01*
X0278222Y0070579D01*
X0278240Y0070783D01*
X0278262Y0070988D01*
X0278289Y0071191D01*
X0278321Y0071394D01*
X0278358Y0071596D01*
X0278400Y0071797D01*
X0278447Y0071997D01*
X0278499Y0072196D01*
X0278555Y0072394D01*
X0278616Y0072590D01*
X0278682Y0072784D01*
X0278752Y0072977D01*
X0278828Y0073168D01*
X0278907Y0073358D01*
X0278992Y0073545D01*
X0279080Y0073730D01*
X0279174Y0073913D01*
X0279271Y0074094D01*
X0279373Y0074272D01*
X0279480Y0074448D01*
X0279590Y0074621D01*
X0279705Y0074792D01*
X0279823Y0074959D01*
X0279946Y0075124D01*
X0280073Y0075286D01*
X0280203Y0075444D01*
X0280338Y0075600D01*
X0280476Y0075752D01*
X0280617Y0075900D01*
X0280763Y0076046D01*
X0280911Y0076187D01*
X0281063Y0076325D01*
X0281219Y0076460D01*
X0281377Y0076590D01*
X0281539Y0076717D01*
X0281704Y0076840D01*
X0281871Y0076958D01*
X0282042Y0077073D01*
X0282215Y0077183D01*
X0282391Y0077290D01*
X0282569Y0077392D01*
X0282750Y0077489D01*
X0282933Y0077583D01*
X0283118Y0077671D01*
X0283305Y0077756D01*
X0283495Y0077835D01*
X0283686Y0077911D01*
X0283879Y0077981D01*
X0284073Y0078047D01*
X0284269Y0078108D01*
X0284467Y0078164D01*
X0284666Y0078216D01*
X0284866Y0078263D01*
X0285067Y0078305D01*
X0285269Y0078342D01*
X0285472Y0078374D01*
X0285675Y0078401D01*
X0285880Y0078423D01*
X0286084Y0078441D01*
X0286289Y0078453D01*
X0286495Y0078461D01*
X0286700Y0078463D01*
X0286700Y0091463D01*
X0286702Y0091580D01*
X0286708Y0091697D01*
X0286718Y0091813D01*
X0286731Y0091930D01*
X0286749Y0092045D01*
X0286770Y0092160D01*
X0286795Y0092274D01*
X0286824Y0092388D01*
X0286857Y0092500D01*
X0286894Y0092611D01*
X0286934Y0092721D01*
X0286978Y0092829D01*
X0287025Y0092936D01*
X0287076Y0093042D01*
X0287131Y0093145D01*
X0287189Y0093247D01*
X0287250Y0093346D01*
X0287314Y0093444D01*
X0287382Y0093539D01*
X0287453Y0093632D01*
X0287527Y0093723D01*
X0287604Y0093811D01*
X0287684Y0093896D01*
X0287767Y0093979D01*
X0287852Y0094059D01*
X0287940Y0094136D01*
X0288031Y0094210D01*
X0288124Y0094281D01*
X0288219Y0094349D01*
X0288317Y0094413D01*
X0288416Y0094474D01*
X0288518Y0094532D01*
X0288621Y0094587D01*
X0288727Y0094638D01*
X0288834Y0094685D01*
X0288942Y0094729D01*
X0289052Y0094769D01*
X0289163Y0094806D01*
X0289275Y0094839D01*
X0289389Y0094868D01*
X0289503Y0094893D01*
X0289618Y0094914D01*
X0289733Y0094932D01*
X0289850Y0094945D01*
X0289966Y0094955D01*
X0290083Y0094961D01*
X0290200Y0094963D01*
X0290082Y0094961D01*
X0289964Y0094955D01*
X0289847Y0094945D01*
X0289730Y0094932D01*
X0289613Y0094914D01*
X0289497Y0094892D01*
X0289382Y0094867D01*
X0289267Y0094838D01*
X0289154Y0094805D01*
X0289042Y0094768D01*
X0288931Y0094727D01*
X0288822Y0094683D01*
X0288714Y0094635D01*
X0288608Y0094584D01*
X0288504Y0094529D01*
X0288401Y0094470D01*
X0288301Y0094409D01*
X0288202Y0094343D01*
X0288106Y0094275D01*
X0288012Y0094204D01*
X0287921Y0094129D01*
X0287832Y0094051D01*
X0287746Y0093971D01*
X0287662Y0093887D01*
X0287582Y0093801D01*
X0287504Y0093712D01*
X0287430Y0093621D01*
X0287358Y0093527D01*
X0287290Y0093431D01*
X0287224Y0093333D01*
X0287163Y0093232D01*
X0287104Y0093130D01*
X0287049Y0093026D01*
X0286998Y0092919D01*
X0286950Y0092812D01*
X0286905Y0092702D01*
X0286865Y0092592D01*
X0286828Y0092480D01*
X0286795Y0092366D01*
X0286766Y0092252D01*
X0286740Y0092137D01*
X0286718Y0092021D01*
X0286701Y0091904D01*
X0286687Y0091787D01*
X0286677Y0091670D01*
X0286671Y0091552D01*
X0286669Y0091434D01*
X0286671Y0091316D01*
X0286677Y0091198D01*
X0286687Y0091080D01*
X0286700Y0090963D01*
X0286735Y0090836D01*
X0286766Y0090708D01*
X0286794Y0090579D01*
X0286817Y0090449D01*
X0286837Y0090319D01*
X0286853Y0090188D01*
X0286865Y0090057D01*
X0286873Y0089926D01*
X0286877Y0089794D01*
X0290200Y0094962D02*
X0290339Y0094988D01*
X0290478Y0095010D01*
X0290618Y0095028D01*
X0290758Y0095042D01*
X0290898Y0095052D01*
X0291039Y0095058D01*
X0291180Y0095061D01*
X0291321Y0095060D01*
X0291462Y0095054D01*
X0291602Y0095045D01*
X0291743Y0095032D01*
X0291883Y0095015D01*
X0292022Y0094994D01*
X0292161Y0094970D01*
X0292299Y0094942D01*
X0292436Y0094909D01*
X0292572Y0094873D01*
X0292708Y0094834D01*
X0292842Y0094790D01*
X0292975Y0094743D01*
X0293106Y0094693D01*
X0293236Y0094638D01*
X0293365Y0094580D01*
X0293491Y0094519D01*
X0293616Y0094454D01*
X0293740Y0094386D01*
X0293861Y0094314D01*
X0293980Y0094239D01*
X0294098Y0094161D01*
X0294213Y0094079D01*
X0294325Y0093995D01*
X0294436Y0093907D01*
X0294544Y0093817D01*
X0294649Y0093723D01*
X0294752Y0093626D01*
X0294852Y0093527D01*
X0294949Y0093425D01*
X0295043Y0093321D01*
X0295135Y0093213D01*
X0295223Y0093104D01*
X0295309Y0092992D01*
X0295391Y0092877D01*
X0295470Y0092761D01*
X0295546Y0092642D01*
X0295619Y0092521D01*
X0295688Y0092398D01*
X0295754Y0092274D01*
X0295816Y0092147D01*
X0295875Y0092019D01*
X0295931Y0091890D01*
X0295982Y0091759D01*
X0296030Y0091626D01*
X0296075Y0091493D01*
X0296116Y0091358D01*
X0296153Y0091222D01*
X0296186Y0091085D01*
X0296215Y0090947D01*
X0296216Y0090947D02*
X0296216Y0088479D01*
X0296216Y0090947D02*
X0296215Y0090953D01*
X0296211Y0090958D01*
X0296206Y0090962D01*
X0296200Y0090963D01*
X0296039Y0080802D02*
X0295980Y0080743D01*
X0295980Y0078243D01*
X0295980Y0075743D01*
X0295979Y0075743D02*
X0295978Y0075730D01*
X0295973Y0075717D01*
X0295966Y0075706D01*
X0295957Y0075697D01*
X0295946Y0075690D01*
X0295933Y0075685D01*
X0295920Y0075684D01*
X0295861Y0073124D02*
X0295861Y0080624D01*
X0295862Y0080624D02*
X0295864Y0080649D01*
X0295869Y0080674D01*
X0295878Y0080698D01*
X0295890Y0080720D01*
X0295905Y0080740D01*
X0295923Y0080758D01*
X0295943Y0080773D01*
X0295965Y0080785D01*
X0295989Y0080794D01*
X0296014Y0080799D01*
X0296039Y0080801D01*
X0318200Y0042963D02*
X0318194Y0042504D01*
X0318178Y0042045D01*
X0318150Y0041587D01*
X0318111Y0041129D01*
X0318061Y0040673D01*
X0318001Y0040218D01*
X0317929Y0039764D01*
X0317846Y0039313D01*
X0317752Y0038863D01*
X0317648Y0038416D01*
X0317533Y0037972D01*
X0317407Y0037530D01*
X0317270Y0037092D01*
X0317123Y0036657D01*
X0316965Y0036226D01*
X0316797Y0035798D01*
X0316619Y0035375D01*
X0316431Y0034956D01*
X0316232Y0034542D01*
X0316024Y0034133D01*
X0315805Y0033729D01*
X0315577Y0033331D01*
X0315340Y0032938D01*
X0315093Y0032551D01*
X0314837Y0032170D01*
X0314571Y0031795D01*
X0314297Y0031427D01*
X0314014Y0031065D01*
X0313722Y0030711D01*
X0313422Y0030364D01*
X0313113Y0030024D01*
X0312796Y0029691D01*
X0312472Y0029367D01*
X0312139Y0029050D01*
X0311799Y0028741D01*
X0311452Y0028441D01*
X0311098Y0028149D01*
X0310736Y0027866D01*
X0310368Y0027592D01*
X0309993Y0027326D01*
X0309612Y0027070D01*
X0309225Y0026823D01*
X0308832Y0026586D01*
X0308434Y0026358D01*
X0308030Y0026139D01*
X0307621Y0025931D01*
X0307207Y0025732D01*
X0306788Y0025544D01*
X0306365Y0025366D01*
X0305937Y0025198D01*
X0305506Y0025040D01*
X0305071Y0024893D01*
X0304633Y0024756D01*
X0304191Y0024630D01*
X0303747Y0024515D01*
X0303300Y0024411D01*
X0302850Y0024317D01*
X0302399Y0024234D01*
X0301945Y0024162D01*
X0301490Y0024102D01*
X0301034Y0024052D01*
X0300576Y0024013D01*
X0300118Y0023985D01*
X0299659Y0023969D01*
X0299200Y0023963D01*
D29*
X0016742Y0012916D02*
X0015113Y0013352D01*
X0013653Y0014195D01*
X0012460Y0015388D01*
X0011617Y0016849D01*
X0011180Y0018478D01*
X0011125Y0019321D01*
X0011125Y0096940D01*
X0011600Y0098087D01*
X0011600Y0100239D01*
X0011125Y0101386D01*
X0011125Y0115047D01*
X0011310Y0116247D01*
X0012231Y0118781D01*
X0013771Y0120993D01*
X0014708Y0121897D01*
X0014798Y0121977D01*
X0015556Y0122619D01*
X0015565Y0122637D01*
X0021044Y0127338D01*
X0034044Y0137200D01*
X0047791Y0145991D01*
X0062196Y0153654D01*
X0077169Y0160140D01*
X0092612Y0165409D01*
X0108428Y0169425D01*
X0124514Y0172163D01*
X0132614Y0173046D01*
X0134219Y0173169D01*
X0137289Y0174435D01*
X0139818Y0176587D01*
X0141558Y0179415D01*
X0141558Y0179415D01*
X0142062Y0181501D01*
X0142263Y0181301D01*
X0144795Y0179839D01*
X0147620Y0179082D01*
X0150544Y0179082D01*
X0153368Y0179839D01*
X0155901Y0181301D01*
X0157969Y0183368D01*
X0159431Y0185901D01*
X0160187Y0188725D01*
X0160187Y0191649D01*
X0159431Y0194474D01*
X0157969Y0197006D01*
X0157539Y0197436D01*
X0244562Y0197436D01*
X0244132Y0197006D01*
X0242670Y0194474D01*
X0241913Y0191649D01*
X0241913Y0188725D01*
X0242670Y0185901D01*
X0244132Y0183368D01*
X0246200Y0181301D01*
X0248732Y0179839D01*
X0251557Y0179082D01*
X0254481Y0179082D01*
X0257305Y0179839D01*
X0259838Y0181301D01*
X0260038Y0181501D01*
X0260543Y0179415D01*
X0262283Y0176587D01*
X0264812Y0174435D01*
X0267882Y0173169D01*
X0269487Y0173046D01*
X0277587Y0172163D01*
X0293673Y0169425D01*
X0309488Y0165409D01*
X0324932Y0160140D01*
X0339904Y0153654D01*
X0354310Y0145991D01*
X0368057Y0137200D01*
X0381057Y0127338D01*
X0386535Y0122637D01*
X0386545Y0122619D01*
X0387303Y0121977D01*
X0387392Y0121897D01*
X0388329Y0120993D01*
X0389870Y0118781D01*
X0390790Y0116247D01*
X0390976Y0115047D01*
X0390976Y0019321D01*
X0390921Y0018478D01*
X0390484Y0016849D01*
X0389641Y0015388D01*
X0388448Y0014195D01*
X0386987Y0013352D01*
X0385358Y0012916D01*
X0384515Y0012860D01*
X0335330Y0012860D01*
X0336842Y0013352D01*
X0336842Y0013352D01*
X0339431Y0015232D01*
X0339431Y0015232D01*
X0339431Y0015232D01*
X0341311Y0017821D01*
X0342300Y0020863D01*
X0342300Y0039017D01*
X0342422Y0039139D01*
X0342579Y0039518D01*
X0344484Y0037613D01*
X0346700Y0037613D01*
X0348916Y0037613D01*
X0352050Y0040747D01*
X0352050Y0042963D01*
X0352050Y0045179D01*
X0350403Y0046826D01*
X0350848Y0046826D01*
X0351407Y0046976D01*
X0351909Y0047266D01*
X0352319Y0047675D01*
X0352608Y0048177D01*
X0352758Y0048736D01*
X0352758Y0052687D01*
X0347882Y0052687D01*
X0347882Y0053239D01*
X0352758Y0053239D01*
X0352758Y0057190D01*
X0352608Y0057749D01*
X0352319Y0058251D01*
X0351909Y0058660D01*
X0351407Y0058950D01*
X0350848Y0059100D01*
X0347882Y0059100D01*
X0347882Y0053239D01*
X0347329Y0053239D01*
X0347329Y0052687D01*
X0342453Y0052687D01*
X0342453Y0048736D01*
X0342603Y0048177D01*
X0342892Y0047675D01*
X0343302Y0047266D01*
X0343387Y0047216D01*
X0342579Y0046408D01*
X0342422Y0046787D01*
X0342300Y0046909D01*
X0342300Y0048196D01*
X0342347Y0048310D01*
X0342347Y0057616D01*
X0342300Y0057730D01*
X0342300Y0061863D01*
X0359251Y0061863D01*
X0359499Y0061615D01*
X0360008Y0061404D01*
X0359833Y0061229D01*
X0359544Y0060728D01*
X0359394Y0060168D01*
X0359394Y0056704D01*
X0364368Y0056704D01*
X0364368Y0055954D01*
X0359394Y0055954D01*
X0359394Y0052490D01*
X0359544Y0051931D01*
X0359833Y0051429D01*
X0360243Y0051019D01*
X0360745Y0050730D01*
X0361304Y0050580D01*
X0364368Y0050580D01*
X0364368Y0055954D01*
X0365118Y0055954D01*
X0365118Y0050580D01*
X0368183Y0050580D01*
X0368742Y0050730D01*
X0369244Y0051019D01*
X0369512Y0051288D01*
X0369739Y0050741D01*
X0370751Y0049728D01*
X0371113Y0049578D01*
X0370117Y0048581D01*
X0368654Y0046049D01*
X0367898Y0043224D01*
X0367898Y0040300D01*
X0368654Y0037476D01*
X0370117Y0034943D01*
X0372184Y0032876D01*
X0374717Y0031414D01*
X0377541Y0030657D01*
X0380465Y0030657D01*
X0383290Y0031414D01*
X0385822Y0032876D01*
X0387890Y0034943D01*
X0389352Y0037476D01*
X0390109Y0040300D01*
X0390109Y0043224D01*
X0389352Y0046049D01*
X0387890Y0048581D01*
X0385822Y0050649D01*
X0383290Y0052111D01*
X0382690Y0052272D01*
X0382690Y0060594D01*
X0382142Y0061918D01*
X0381672Y0062387D01*
X0381913Y0062628D01*
X0382461Y0063951D01*
X0382461Y0070895D01*
X0382350Y0071163D01*
X0382461Y0071431D01*
X0382461Y0078375D01*
X0381913Y0079698D01*
X0381743Y0079869D01*
X0382142Y0080268D01*
X0382690Y0081591D01*
X0382690Y0090122D01*
X0382418Y0090778D01*
X0382690Y0091434D01*
X0382690Y0099965D01*
X0382142Y0101288D01*
X0381602Y0101827D01*
X0383290Y0102280D01*
X0385822Y0103742D01*
X0387890Y0105809D01*
X0389352Y0108342D01*
X0390109Y0111166D01*
X0390109Y0114090D01*
X0389352Y0116915D01*
X0387890Y0119447D01*
X0385822Y0121515D01*
X0383290Y0122977D01*
X0380465Y0123734D01*
X0377541Y0123734D01*
X0374717Y0122977D01*
X0372184Y0121515D01*
X0370117Y0119447D01*
X0368654Y0116915D01*
X0367898Y0114090D01*
X0367898Y0111166D01*
X0368654Y0108342D01*
X0370117Y0105809D01*
X0372184Y0103742D01*
X0373731Y0102848D01*
X0372074Y0102848D01*
X0370751Y0102300D01*
X0369739Y0101288D01*
X0369512Y0100741D01*
X0369244Y0101009D01*
X0368742Y0101298D01*
X0368183Y0101448D01*
X0365118Y0101448D01*
X0365118Y0096074D01*
X0364368Y0096074D01*
X0364368Y0095324D01*
X0359394Y0095324D01*
X0359394Y0091860D01*
X0359544Y0091301D01*
X0359833Y0090799D01*
X0359854Y0090778D01*
X0359833Y0090757D01*
X0359544Y0090255D01*
X0359394Y0089696D01*
X0359394Y0086231D01*
X0364368Y0086231D01*
X0364368Y0085482D01*
X0359394Y0085482D01*
X0359394Y0082018D01*
X0359544Y0081458D01*
X0359833Y0080957D01*
X0359909Y0080881D01*
X0359499Y0080711D01*
X0358487Y0079698D01*
X0357939Y0078375D01*
X0357939Y0071431D01*
X0358050Y0071163D01*
X0358008Y0071063D01*
X0342300Y0071063D01*
X0342300Y0075077D01*
X0341447Y0077135D01*
X0341397Y0077185D01*
X0342571Y0077567D01*
X0342571Y0077567D01*
X0345099Y0079403D01*
X0346935Y0081930D01*
X0346935Y0081930D01*
X0347900Y0084901D01*
X0347900Y0096920D01*
X0346999Y0099692D01*
X0345286Y0102049D01*
X0345286Y0102049D01*
X0342929Y0103762D01*
X0342929Y0103762D01*
X0340157Y0104663D01*
X0303034Y0104663D01*
X0302828Y0104889D01*
X0302828Y0104889D01*
X0302828Y0104889D01*
X0299633Y0106930D01*
X0296020Y0108074D01*
X0294864Y0108126D01*
X0294774Y0108163D01*
X0294033Y0108163D01*
X0293292Y0108196D01*
X0293201Y0108163D01*
X0257920Y0108163D01*
X0257372Y0108710D01*
X0255314Y0109563D01*
X0253086Y0109563D01*
X0251028Y0108710D01*
X0249453Y0107135D01*
X0248600Y0105077D01*
X0248600Y0102849D01*
X0249453Y0100791D01*
X0250030Y0100213D01*
X0249453Y0099635D01*
X0248600Y0097577D01*
X0248600Y0095349D01*
X0249453Y0093291D01*
X0250720Y0092023D01*
X0246639Y0087942D01*
X0246000Y0086398D01*
X0246000Y0046183D01*
X0245900Y0046083D01*
X0245900Y0104497D01*
X0251992Y0111401D01*
X0252608Y0112017D01*
X0252673Y0112172D01*
X0252783Y0112298D01*
X0253066Y0113123D01*
X0253400Y0113929D01*
X0253400Y0114096D01*
X0253454Y0114255D01*
X0253400Y0115125D01*
X0253400Y0119017D01*
X0253404Y0119026D01*
X0253400Y0120052D01*
X0253400Y0121076D01*
X0253396Y0121085D01*
X0253393Y0121851D01*
X0253745Y0122700D01*
X0253745Y0128163D01*
X0289400Y0128163D01*
X0289400Y0126497D01*
X0288605Y0125702D01*
X0287600Y0123276D01*
X0287600Y0114650D01*
X0288605Y0112224D01*
X0290461Y0110368D01*
X0292887Y0109363D01*
X0295513Y0109363D01*
X0297939Y0110368D01*
X0299795Y0112224D01*
X0300800Y0114650D01*
X0300800Y0123276D01*
X0299795Y0125702D01*
X0299000Y0126497D01*
X0299000Y0128163D01*
X0310331Y0128163D01*
X0313434Y0129171D01*
X0313434Y0129171D01*
X0316074Y0131089D01*
X0317992Y0133729D01*
X0319000Y0136832D01*
X0319000Y0143436D01*
X0318090Y0146238D01*
X0316358Y0148621D01*
X0313975Y0150353D01*
X0311173Y0151263D01*
X0309728Y0151263D01*
X0268830Y0151728D01*
X0267809Y0152151D01*
X0266000Y0154563D01*
X0266000Y0155717D01*
X0266922Y0156639D01*
X0267079Y0157018D01*
X0268984Y0155113D01*
X0271200Y0155113D01*
X0273416Y0155113D01*
X0276550Y0158247D01*
X0276550Y0160463D01*
X0276550Y0162679D01*
X0273416Y0165813D01*
X0271200Y0165813D01*
X0271200Y0160463D01*
X0271200Y0160463D01*
X0271200Y0165813D01*
X0268984Y0165813D01*
X0267079Y0163908D01*
X0266922Y0164287D01*
X0265024Y0166185D01*
X0262543Y0167213D01*
X0259857Y0167213D01*
X0257376Y0166185D01*
X0255478Y0164287D01*
X0254450Y0161806D01*
X0254450Y0159120D01*
X0255478Y0156639D01*
X0256400Y0155717D01*
X0256400Y0153304D01*
X0256313Y0152697D01*
X0256400Y0152358D01*
X0256400Y0152008D01*
X0256635Y0151441D01*
X0256766Y0150930D01*
X0255028Y0150210D01*
X0253453Y0148635D01*
X0252600Y0146577D01*
X0252600Y0144349D01*
X0252636Y0144263D01*
X0252030Y0144263D01*
X0252030Y0154106D01*
X0240400Y0154106D01*
X0240400Y0156505D01*
X0252030Y0156505D01*
X0252030Y0167800D01*
X0251880Y0168359D01*
X0251590Y0168861D01*
X0251181Y0169271D01*
X0250679Y0169560D01*
X0250120Y0169710D01*
X0240400Y0169710D01*
X0240400Y0156506D01*
X0238000Y0156506D01*
X0238000Y0169710D01*
X0233465Y0169710D01*
X0233689Y0170251D01*
X0233689Y0172275D01*
X0232914Y0174146D01*
X0231483Y0175577D01*
X0229612Y0176352D01*
X0229334Y0176352D01*
X0228992Y0176693D01*
X0228876Y0176741D01*
X0228782Y0176826D01*
X0228071Y0177075D01*
X0227375Y0177363D01*
X0227249Y0177363D01*
X0227130Y0177405D01*
X0226378Y0177363D01*
X0222549Y0177363D01*
X0222549Y0182427D01*
X0222001Y0183750D01*
X0220988Y0184763D01*
X0219665Y0185311D01*
X0211135Y0185311D01*
X0209819Y0184766D01*
X0208712Y0185224D01*
X0201768Y0185224D01*
X0201500Y0185113D01*
X0201232Y0185224D01*
X0198961Y0185224D01*
X0195792Y0188393D01*
X0194175Y0189063D01*
X0179825Y0189063D01*
X0178208Y0188393D01*
X0176970Y0187155D01*
X0175470Y0185655D01*
X0175327Y0185311D01*
X0174935Y0185311D01*
X0173612Y0184763D01*
X0172599Y0183750D01*
X0172051Y0182427D01*
X0172051Y0174696D01*
X0172599Y0173373D01*
X0173612Y0172360D01*
X0174159Y0172133D01*
X0173890Y0171865D01*
X0173601Y0171363D01*
X0173451Y0170804D01*
X0173451Y0169710D01*
X0164101Y0169710D01*
X0164101Y0156506D01*
X0161701Y0156506D01*
X0161701Y0169710D01*
X0151981Y0169710D01*
X0151422Y0169560D01*
X0150920Y0169271D01*
X0150510Y0168861D01*
X0150221Y0168359D01*
X0150071Y0167800D01*
X0150071Y0156505D01*
X0161701Y0156505D01*
X0161701Y0154106D01*
X0150071Y0154106D01*
X0150071Y0142811D01*
X0150221Y0142252D01*
X0150510Y0141750D01*
X0150920Y0141340D01*
X0151422Y0141051D01*
X0151981Y0140901D01*
X0161701Y0140901D01*
X0161701Y0154105D01*
X0164101Y0154105D01*
X0164101Y0140901D01*
X0173820Y0140901D01*
X0174380Y0141051D01*
X0174882Y0141340D01*
X0174941Y0141400D01*
X0174600Y0140577D01*
X0174600Y0140086D01*
X0174470Y0139955D01*
X0173800Y0138338D01*
X0173800Y0133315D01*
X0169193Y0133315D01*
X0167869Y0132767D01*
X0166857Y0131754D01*
X0166309Y0130431D01*
X0166309Y0122700D01*
X0166677Y0121811D01*
X0166676Y0119336D01*
X0166663Y0119304D01*
X0166676Y0118304D01*
X0166676Y0117303D01*
X0166690Y0117270D01*
X0166690Y0117235D01*
X0167085Y0116316D01*
X0167468Y0115392D01*
X0167493Y0115367D01*
X0167507Y0115334D01*
X0168223Y0114637D01*
X0168930Y0113929D01*
X0168963Y0113915D01*
X0179881Y0103278D01*
X0180566Y0102581D01*
X0180620Y0102558D01*
X0180662Y0102517D01*
X0181570Y0102154D01*
X0182471Y0101772D01*
X0182529Y0101772D01*
X0182584Y0101750D01*
X0183561Y0101763D01*
X0235500Y0101308D01*
X0235500Y0029563D01*
X0224663Y0029563D01*
X0225632Y0031258D01*
X0226359Y0034757D01*
X0226191Y0036294D01*
X0226191Y0038976D01*
X0226514Y0039300D01*
X0227359Y0041340D01*
X0227359Y0045555D01*
X0227163Y0046028D01*
X0229961Y0046028D01*
X0232001Y0046873D01*
X0233562Y0048434D01*
X0234406Y0050473D01*
X0234406Y0052720D01*
X0233649Y0054550D01*
X0234406Y0056379D01*
X0234406Y0058626D01*
X0233649Y0060455D01*
X0234406Y0062284D01*
X0234406Y0064531D01*
X0233649Y0066361D01*
X0234406Y0068190D01*
X0234406Y0070437D01*
X0233649Y0072266D01*
X0234406Y0074095D01*
X0234406Y0076342D01*
X0233649Y0078172D01*
X0234406Y0080001D01*
X0234406Y0082248D01*
X0233649Y0084077D01*
X0234406Y0085906D01*
X0234406Y0088153D01*
X0233562Y0090193D01*
X0232001Y0091754D01*
X0229961Y0092598D01*
X0225746Y0092598D01*
X0223706Y0091754D01*
X0222146Y0090193D01*
X0221301Y0088153D01*
X0221301Y0085906D01*
X0222059Y0084077D01*
X0221301Y0082248D01*
X0221301Y0080001D01*
X0222059Y0078172D01*
X0221301Y0076342D01*
X0221301Y0074095D01*
X0222059Y0072266D01*
X0221301Y0070437D01*
X0221301Y0068190D01*
X0222059Y0066361D01*
X0221301Y0064531D01*
X0221301Y0062284D01*
X0222059Y0060455D01*
X0221301Y0058626D01*
X0221301Y0056379D01*
X0222059Y0054550D01*
X0221301Y0052720D01*
X0221301Y0050473D01*
X0221497Y0050000D01*
X0220667Y0050000D01*
X0218628Y0049155D01*
X0217677Y0048204D01*
X0217497Y0048296D01*
X0216876Y0048498D01*
X0216231Y0048600D01*
X0215885Y0048600D01*
X0215539Y0048600D01*
X0214894Y0048498D01*
X0214273Y0048296D01*
X0214093Y0048204D01*
X0213142Y0049155D01*
X0211103Y0050000D01*
X0208856Y0050000D01*
X0207027Y0049242D01*
X0205197Y0050000D01*
X0202951Y0050000D01*
X0201121Y0049242D01*
X0199292Y0050000D01*
X0197045Y0050000D01*
X0195216Y0049242D01*
X0193386Y0050000D01*
X0191140Y0050000D01*
X0189310Y0049242D01*
X0187481Y0050000D01*
X0185234Y0050000D01*
X0183405Y0049242D01*
X0181575Y0050000D01*
X0180903Y0050000D01*
X0181099Y0050473D01*
X0181099Y0052720D01*
X0180341Y0054550D01*
X0181099Y0056379D01*
X0181099Y0058626D01*
X0180341Y0060455D01*
X0181099Y0062284D01*
X0181099Y0064531D01*
X0180341Y0066361D01*
X0181099Y0068190D01*
X0181099Y0070437D01*
X0180341Y0072266D01*
X0181099Y0074095D01*
X0181099Y0076342D01*
X0180341Y0078172D01*
X0181099Y0080001D01*
X0181099Y0082248D01*
X0180341Y0084077D01*
X0181099Y0085906D01*
X0181099Y0088153D01*
X0180254Y0090193D01*
X0178694Y0091754D01*
X0176654Y0092598D01*
X0172439Y0092598D01*
X0170399Y0091754D01*
X0168838Y0090193D01*
X0167994Y0088153D01*
X0167994Y0085906D01*
X0168751Y0084077D01*
X0167994Y0082248D01*
X0167994Y0080001D01*
X0168751Y0078172D01*
X0167994Y0076342D01*
X0167994Y0074095D01*
X0168751Y0072266D01*
X0167994Y0070437D01*
X0167994Y0068190D01*
X0168751Y0066361D01*
X0167994Y0064531D01*
X0167994Y0063044D01*
X0167354Y0063684D01*
X0165308Y0064531D01*
X0164854Y0064531D01*
X0162600Y0066786D01*
X0162600Y0097988D01*
X0162921Y0098309D01*
X0163768Y0100355D01*
X0163768Y0102571D01*
X0162921Y0104617D01*
X0161354Y0106184D01*
X0159308Y0107031D01*
X0157824Y0107031D01*
X0157824Y0120319D01*
X0157932Y0120364D01*
X0158945Y0121377D01*
X0159493Y0122700D01*
X0159493Y0125375D01*
X0159524Y0125451D01*
X0159524Y0125970D01*
X0159633Y0126477D01*
X0159524Y0127073D01*
X0159524Y0127679D01*
X0159493Y0127755D01*
X0159493Y0130431D01*
X0158945Y0131754D01*
X0157932Y0132767D01*
X0156609Y0133315D01*
X0151240Y0133315D01*
X0149917Y0132767D01*
X0148904Y0131754D01*
X0148356Y0130431D01*
X0148356Y0129635D01*
X0147577Y0129132D01*
X0147524Y0129185D01*
X0145043Y0130213D01*
X0142357Y0130213D01*
X0139876Y0129185D01*
X0137978Y0127287D01*
X0137821Y0126908D01*
X0135916Y0128813D01*
X0133700Y0128813D01*
X0133700Y0123463D01*
X0133700Y0123463D01*
X0133700Y0128813D01*
X0131484Y0128813D01*
X0129337Y0126666D01*
X0129337Y0128592D01*
X0123476Y0128592D01*
X0123476Y0123716D01*
X0127427Y0123716D01*
X0127986Y0123866D01*
X0128350Y0124076D01*
X0128350Y0123463D01*
X0133700Y0123463D01*
X0133700Y0123463D01*
X0133700Y0118113D01*
X0135916Y0118113D01*
X0137821Y0120018D01*
X0137978Y0119639D01*
X0139876Y0117741D01*
X0142357Y0116713D01*
X0145043Y0116713D01*
X0146624Y0117368D01*
X0146624Y0116987D01*
X0146612Y0116842D01*
X0146523Y0116567D01*
X0146353Y0116334D01*
X0146119Y0116164D01*
X0145844Y0116074D01*
X0145700Y0116063D01*
X0130737Y0116063D01*
X0130737Y0118860D01*
X0131484Y0118113D01*
X0133700Y0118113D01*
X0133700Y0123463D01*
X0133700Y0123463D01*
X0128350Y0123463D01*
X0128350Y0123404D01*
X0127853Y0123610D01*
X0118547Y0123610D01*
X0117224Y0123062D01*
X0116211Y0122049D01*
X0116121Y0121831D01*
X0115389Y0123598D01*
X0113335Y0125652D01*
X0110652Y0126763D01*
X0107748Y0126763D01*
X0105065Y0125652D01*
X0103210Y0123797D01*
X0103044Y0123963D01*
X0102292Y0124509D01*
X0101465Y0124931D01*
X0100582Y0125218D01*
X0099664Y0125363D01*
X0099200Y0125363D01*
X0099200Y0119463D01*
X0099200Y0119463D01*
X0099200Y0125363D01*
X0098736Y0125363D01*
X0097818Y0125218D01*
X0096935Y0124931D01*
X0096108Y0124509D01*
X0095356Y0123963D01*
X0094700Y0123307D01*
X0094154Y0122555D01*
X0093732Y0121728D01*
X0093445Y0120845D01*
X0093300Y0119927D01*
X0093300Y0119463D01*
X0099200Y0119463D01*
X0099200Y0119463D01*
X0093300Y0119463D01*
X0093300Y0118999D01*
X0093445Y0118081D01*
X0093732Y0117198D01*
X0094154Y0116371D01*
X0094377Y0116063D01*
X0057778Y0116063D01*
X0054065Y0115068D01*
X0054065Y0115068D01*
X0050735Y0113146D01*
X0048017Y0110428D01*
X0048017Y0110428D01*
X0046095Y0107098D01*
X0045100Y0103385D01*
X0045100Y0088007D01*
X0046152Y0084079D01*
X0048185Y0080558D01*
X0049480Y0079263D01*
X0043512Y0079263D01*
X0043431Y0079458D01*
X0042419Y0080471D01*
X0041968Y0080657D01*
X0042268Y0080957D01*
X0042557Y0081458D01*
X0042707Y0082018D01*
X0042707Y0085482D01*
X0037732Y0085482D01*
X0037732Y0086231D01*
X0042707Y0086231D01*
X0042707Y0089696D01*
X0042557Y0090255D01*
X0042268Y0090757D01*
X0042246Y0090778D01*
X0042268Y0090799D01*
X0042557Y0091301D01*
X0042707Y0091860D01*
X0042707Y0095324D01*
X0037732Y0095324D01*
X0037732Y0089950D01*
X0037732Y0086232D01*
X0036983Y0086232D01*
X0036983Y0095324D01*
X0037732Y0095324D01*
X0037732Y0096074D01*
X0036983Y0096074D01*
X0036983Y0101448D01*
X0033918Y0101448D01*
X0033359Y0101298D01*
X0032857Y0101009D01*
X0032589Y0100741D01*
X0032362Y0101288D01*
X0031349Y0102300D01*
X0030026Y0102848D01*
X0028369Y0102848D01*
X0029917Y0103742D01*
X0031984Y0105809D01*
X0033446Y0108342D01*
X0034203Y0111166D01*
X0034203Y0114090D01*
X0033446Y0116915D01*
X0031984Y0119447D01*
X0029917Y0121515D01*
X0027384Y0122977D01*
X0024560Y0123734D01*
X0021636Y0123734D01*
X0018811Y0122977D01*
X0016279Y0121515D01*
X0014211Y0119447D01*
X0012749Y0116915D01*
X0011992Y0114090D01*
X0011992Y0111166D01*
X0012749Y0108342D01*
X0014211Y0105809D01*
X0016279Y0103742D01*
X0018811Y0102280D01*
X0020499Y0101827D01*
X0019959Y0101288D01*
X0019411Y0099965D01*
X0019411Y0091434D01*
X0019683Y0090778D01*
X0019411Y0090122D01*
X0019411Y0089777D01*
X0019208Y0089693D01*
X0017970Y0088455D01*
X0015970Y0086455D01*
X0015300Y0084838D01*
X0015300Y0068588D01*
X0015970Y0066971D01*
X0018250Y0064690D01*
X0019488Y0063453D01*
X0019579Y0063415D01*
X0020005Y0062388D01*
X0020217Y0062175D01*
X0019959Y0061918D01*
X0019411Y0060594D01*
X0019411Y0052272D01*
X0018811Y0052111D01*
X0016279Y0050649D01*
X0014211Y0048581D01*
X0012749Y0046049D01*
X0011992Y0043224D01*
X0011992Y0040300D01*
X0012749Y0037476D01*
X0014211Y0034943D01*
X0016279Y0032876D01*
X0018811Y0031414D01*
X0021636Y0030657D01*
X0024560Y0030657D01*
X0027384Y0031414D01*
X0029917Y0032876D01*
X0031984Y0034943D01*
X0033446Y0037476D01*
X0034203Y0040300D01*
X0034203Y0043224D01*
X0033446Y0046049D01*
X0031984Y0048581D01*
X0030987Y0049578D01*
X0031349Y0049728D01*
X0032362Y0050741D01*
X0032589Y0051288D01*
X0032857Y0051019D01*
X0033359Y0050730D01*
X0033918Y0050580D01*
X0036983Y0050580D01*
X0036983Y0055954D01*
X0037732Y0055954D01*
X0037732Y0050580D01*
X0040797Y0050580D01*
X0041356Y0050730D01*
X0041858Y0051019D01*
X0042268Y0051429D01*
X0042557Y0051931D01*
X0042707Y0052490D01*
X0042707Y0055954D01*
X0037732Y0055954D01*
X0037732Y0056704D01*
X0042707Y0056704D01*
X0042707Y0060168D01*
X0042557Y0060728D01*
X0042268Y0061229D01*
X0042209Y0061288D01*
X0042419Y0061375D01*
X0043431Y0062388D01*
X0043980Y0063711D01*
X0043980Y0070063D01*
X0051194Y0070063D01*
X0051194Y0058844D01*
X0050790Y0058439D01*
X0050242Y0057116D01*
X0050242Y0047810D01*
X0050790Y0046487D01*
X0051542Y0045735D01*
X0050950Y0044306D01*
X0050950Y0041620D01*
X0051978Y0039139D01*
X0052100Y0039017D01*
X0052100Y0025298D01*
X0051915Y0023760D01*
X0052645Y0020063D01*
X0054480Y0016773D01*
X0054480Y0016772D01*
X0057243Y0014210D01*
X0060159Y0012860D01*
X0017586Y0012860D01*
X0016742Y0012916D01*
X0013603Y0014245D02*
X0057205Y0014245D01*
X0057243Y0014210D02*
X0057243Y0014210D01*
X0054619Y0016644D02*
X0011735Y0016644D01*
X0011143Y0019042D02*
X0053214Y0019042D01*
X0052645Y0020063D02*
X0052645Y0020063D01*
X0052373Y0021441D02*
X0011125Y0021441D01*
X0011125Y0023839D02*
X0051925Y0023839D01*
X0051915Y0023760D02*
X0051915Y0023760D01*
X0052100Y0026238D02*
X0011125Y0026238D01*
X0011125Y0028636D02*
X0052100Y0028636D01*
X0052100Y0031035D02*
X0025970Y0031035D01*
X0030474Y0033433D02*
X0052100Y0033433D01*
X0052100Y0035832D02*
X0032497Y0035832D01*
X0033649Y0038230D02*
X0052100Y0038230D01*
X0051361Y0040629D02*
X0034203Y0040629D01*
X0034203Y0043027D02*
X0050950Y0043027D01*
X0051414Y0045426D02*
X0033613Y0045426D01*
X0032421Y0047824D02*
X0050242Y0047824D01*
X0050242Y0050223D02*
X0031844Y0050223D01*
X0036983Y0052621D02*
X0037732Y0052621D01*
X0037732Y0055020D02*
X0036983Y0055020D01*
X0042707Y0055020D02*
X0050242Y0055020D01*
X0050242Y0052621D02*
X0042707Y0052621D01*
X0042707Y0057418D02*
X0050367Y0057418D01*
X0051194Y0059817D02*
X0042707Y0059817D01*
X0043259Y0062215D02*
X0051194Y0062215D01*
X0051194Y0064614D02*
X0043980Y0064614D01*
X0043980Y0067012D02*
X0051194Y0067012D01*
X0051194Y0069411D02*
X0043980Y0069411D01*
X0048185Y0080558D02*
X0048185Y0080558D01*
X0047697Y0081403D02*
X0042525Y0081403D01*
X0042707Y0083802D02*
X0046312Y0083802D01*
X0046152Y0084079D02*
X0046152Y0084079D01*
X0045584Y0086200D02*
X0037732Y0086200D01*
X0037732Y0088599D02*
X0036983Y0088599D01*
X0036983Y0090997D02*
X0037732Y0090997D01*
X0042382Y0090997D02*
X0045100Y0090997D01*
X0045100Y0088599D02*
X0042707Y0088599D01*
X0042707Y0093396D02*
X0045100Y0093396D01*
X0045100Y0095795D02*
X0037732Y0095795D01*
X0037732Y0096074D02*
X0042707Y0096074D01*
X0042707Y0099538D01*
X0042557Y0100098D01*
X0042268Y0100599D01*
X0041858Y0101009D01*
X0041356Y0101298D01*
X0040797Y0101448D01*
X0037732Y0101448D01*
X0037732Y0096074D01*
X0037732Y0098193D02*
X0036983Y0098193D01*
X0036983Y0100592D02*
X0037732Y0100592D01*
X0042272Y0100592D02*
X0045100Y0100592D01*
X0045100Y0102990D02*
X0028615Y0102990D01*
X0031563Y0105389D02*
X0045637Y0105389D01*
X0046095Y0107098D02*
X0046095Y0107098D01*
X0046493Y0107787D02*
X0033126Y0107787D01*
X0033940Y0110186D02*
X0047877Y0110186D01*
X0050174Y0112584D02*
X0034203Y0112584D01*
X0033964Y0114983D02*
X0053917Y0114983D01*
X0050735Y0113146D02*
X0050735Y0113146D01*
X0033177Y0117381D02*
X0093673Y0117381D01*
X0093300Y0119780D02*
X0031652Y0119780D01*
X0028768Y0122178D02*
X0093962Y0122178D01*
X0096240Y0124577D02*
X0017826Y0124577D01*
X0017427Y0122178D02*
X0015035Y0122178D01*
X0014543Y0119780D02*
X0012926Y0119780D01*
X0013018Y0117381D02*
X0011722Y0117381D01*
X0012231Y0114983D02*
X0011125Y0114983D01*
X0011125Y0112584D02*
X0011992Y0112584D01*
X0012255Y0110186D02*
X0011125Y0110186D01*
X0011125Y0107787D02*
X0013069Y0107787D01*
X0014632Y0105389D02*
X0011125Y0105389D01*
X0011125Y0102990D02*
X0017581Y0102990D01*
X0019671Y0100592D02*
X0011454Y0100592D01*
X0011600Y0098193D02*
X0019411Y0098193D01*
X0019411Y0095795D02*
X0011125Y0095795D01*
X0011125Y0093396D02*
X0019411Y0093396D01*
X0019592Y0090997D02*
X0011125Y0090997D01*
X0011125Y0088599D02*
X0018113Y0088599D01*
X0015864Y0086200D02*
X0011125Y0086200D01*
X0011125Y0083802D02*
X0015300Y0083802D01*
X0015300Y0081403D02*
X0011125Y0081403D01*
X0011125Y0079005D02*
X0015300Y0079005D01*
X0015300Y0076606D02*
X0011125Y0076606D01*
X0011125Y0074208D02*
X0015300Y0074208D01*
X0015300Y0071809D02*
X0011125Y0071809D01*
X0011125Y0069411D02*
X0015300Y0069411D01*
X0015953Y0067012D02*
X0011125Y0067012D01*
X0011125Y0064614D02*
X0018327Y0064614D01*
X0020177Y0062215D02*
X0011125Y0062215D01*
X0011125Y0059817D02*
X0019411Y0059817D01*
X0019411Y0057418D02*
X0011125Y0057418D01*
X0011125Y0055020D02*
X0019411Y0055020D01*
X0019411Y0052621D02*
X0011125Y0052621D01*
X0011125Y0050223D02*
X0015853Y0050223D01*
X0013774Y0047824D02*
X0011125Y0047824D01*
X0011125Y0045426D02*
X0012582Y0045426D01*
X0011992Y0043027D02*
X0011125Y0043027D01*
X0011125Y0040629D02*
X0011992Y0040629D01*
X0012547Y0038230D02*
X0011125Y0038230D01*
X0011125Y0035832D02*
X0013698Y0035832D01*
X0015721Y0033433D02*
X0011125Y0033433D01*
X0011125Y0031035D02*
X0020225Y0031035D01*
X0063300Y0031035D02*
X0080972Y0031035D01*
X0081059Y0030463D02*
X0081059Y0030463D01*
X0082847Y0026383D01*
X0085103Y0023563D01*
X0063720Y0023563D01*
X0063563Y0023636D01*
X0063404Y0023784D01*
X0063300Y0023969D01*
X0063300Y0024628D01*
X0063393Y0025402D01*
X0063300Y0025733D01*
X0063300Y0039017D01*
X0063422Y0039139D01*
X0063579Y0039518D01*
X0065484Y0037613D01*
X0067700Y0037613D01*
X0069916Y0037613D01*
X0073050Y0040747D01*
X0073050Y0042963D01*
X0073050Y0045179D01*
X0071891Y0046338D01*
X0072407Y0046476D01*
X0072909Y0046766D01*
X0073319Y0047175D01*
X0073608Y0047677D01*
X0073758Y0048236D01*
X0073758Y0052187D01*
X0068882Y0052187D01*
X0068882Y0052739D01*
X0073758Y0052739D01*
X0073758Y0056690D01*
X0073608Y0057249D01*
X0073319Y0057751D01*
X0072909Y0058160D01*
X0072407Y0058450D01*
X0072265Y0058488D01*
X0079103Y0058488D01*
X0078742Y0057616D01*
X0078742Y0048310D01*
X0079290Y0046987D01*
X0080188Y0046088D01*
X0079450Y0044306D01*
X0079450Y0041620D01*
X0080478Y0039139D01*
X0080600Y0039017D01*
X0080600Y0036773D01*
X0080388Y0034868D01*
X0081059Y0030463D01*
X0081860Y0028636D02*
X0063300Y0028636D01*
X0063300Y0026238D02*
X0082963Y0026238D01*
X0082847Y0026383D02*
X0082847Y0026383D01*
X0084882Y0023839D02*
X0063373Y0023839D01*
X0063300Y0033433D02*
X0080607Y0033433D01*
X0080495Y0035832D02*
X0063300Y0035832D01*
X0063300Y0038230D02*
X0064867Y0038230D01*
X0067700Y0038230D02*
X0067700Y0038230D01*
X0067700Y0037613D02*
X0067700Y0042963D01*
X0073050Y0042963D01*
X0067700Y0042963D01*
X0067700Y0042963D01*
X0067700Y0042963D01*
X0067700Y0037613D01*
X0070533Y0038230D02*
X0080600Y0038230D01*
X0079861Y0040629D02*
X0072932Y0040629D01*
X0073050Y0043027D02*
X0079450Y0043027D01*
X0079914Y0045426D02*
X0072803Y0045426D01*
X0073648Y0047824D02*
X0078943Y0047824D01*
X0078742Y0050223D02*
X0073758Y0050223D01*
X0068882Y0052621D02*
X0078742Y0052621D01*
X0078742Y0055020D02*
X0073758Y0055020D01*
X0073511Y0057418D02*
X0078742Y0057418D01*
X0070161Y0058600D02*
X0068882Y0058600D01*
X0068882Y0052739D01*
X0068329Y0052739D01*
X0068329Y0052187D01*
X0063453Y0052187D01*
X0063453Y0048236D01*
X0063603Y0047677D01*
X0063892Y0047175D01*
X0064119Y0046948D01*
X0063579Y0046408D01*
X0063422Y0046787D01*
X0063300Y0046909D01*
X0063300Y0047696D01*
X0063347Y0047810D01*
X0063347Y0057116D01*
X0062799Y0058439D01*
X0062394Y0058844D01*
X0062394Y0073843D01*
X0064956Y0073843D01*
X0064956Y0061487D01*
X0065504Y0060164D01*
X0066517Y0059151D01*
X0067840Y0058603D01*
X0070154Y0058603D01*
X0070161Y0058600D01*
X0068882Y0057418D02*
X0068329Y0057418D01*
X0068329Y0058600D02*
X0065363Y0058600D01*
X0064804Y0058450D01*
X0064302Y0058160D01*
X0063892Y0057751D01*
X0063603Y0057249D01*
X0063453Y0056690D01*
X0063453Y0052739D01*
X0068329Y0052739D01*
X0068329Y0058600D01*
X0065851Y0059817D02*
X0062394Y0059817D01*
X0062394Y0062215D02*
X0064956Y0062215D01*
X0064956Y0064614D02*
X0062394Y0064614D01*
X0062394Y0067012D02*
X0064956Y0067012D01*
X0064956Y0069411D02*
X0062394Y0069411D01*
X0062394Y0071809D02*
X0064956Y0071809D01*
X0063700Y0057418D02*
X0063222Y0057418D01*
X0063347Y0055020D02*
X0063453Y0055020D01*
X0063347Y0052621D02*
X0068329Y0052621D01*
X0068329Y0055020D02*
X0068882Y0055020D01*
X0063453Y0050223D02*
X0063347Y0050223D01*
X0063347Y0047824D02*
X0063563Y0047824D01*
X0067700Y0040629D02*
X0067700Y0040629D01*
X0091800Y0039017D02*
X0091800Y0037258D01*
X0091889Y0036952D01*
X0091800Y0036153D01*
X0091800Y0035349D01*
X0091736Y0035196D01*
X0091732Y0035097D01*
X0091957Y0033621D01*
X0092556Y0032254D01*
X0093489Y0031088D01*
X0094691Y0030203D01*
X0096082Y0029660D01*
X0096626Y0029563D01*
X0109663Y0029563D01*
X0109663Y0036726D01*
X0110211Y0038049D01*
X0111224Y0039062D01*
X0112547Y0039610D01*
X0120013Y0039610D01*
X0120013Y0039716D01*
X0117476Y0039716D01*
X0117476Y0044592D01*
X0116924Y0044592D01*
X0116924Y0039716D01*
X0112973Y0039716D01*
X0112414Y0039866D01*
X0111912Y0040155D01*
X0111503Y0040565D01*
X0111213Y0041067D01*
X0111063Y0041626D01*
X0111063Y0044592D01*
X0116924Y0044592D01*
X0116924Y0045145D01*
X0116924Y0050021D01*
X0112973Y0050021D01*
X0112414Y0049871D01*
X0111912Y0049582D01*
X0111503Y0049172D01*
X0111213Y0048670D01*
X0111063Y0048111D01*
X0111063Y0045145D01*
X0116924Y0045145D01*
X0117476Y0045145D01*
X0117476Y0050021D01*
X0119600Y0050021D01*
X0119600Y0050746D01*
X0115411Y0050095D01*
X0115411Y0050095D01*
X0113751Y0050363D01*
X0112662Y0050363D01*
X0112561Y0050325D01*
X0111552Y0050363D01*
X0110543Y0050363D01*
X0110443Y0050404D01*
X0109502Y0050440D01*
X0109502Y0050440D01*
X0105845Y0051781D01*
X0105845Y0051781D01*
X0102781Y0054186D01*
X0102781Y0054186D01*
X0102258Y0054966D01*
X0102258Y0053239D01*
X0097382Y0053239D01*
X0097382Y0052687D01*
X0102258Y0052687D01*
X0102258Y0048736D01*
X0102108Y0048177D01*
X0101819Y0047675D01*
X0101409Y0047266D01*
X0100907Y0046976D01*
X0100348Y0046826D01*
X0099903Y0046826D01*
X0101550Y0045179D01*
X0101550Y0042963D01*
X0096200Y0042963D01*
X0096200Y0042963D01*
X0101550Y0042963D01*
X0101550Y0040747D01*
X0098416Y0037613D01*
X0096200Y0037613D01*
X0096200Y0042963D01*
X0096200Y0042963D01*
X0096200Y0037613D01*
X0093984Y0037613D01*
X0092079Y0039518D01*
X0091922Y0039139D01*
X0091800Y0039017D01*
X0091800Y0038230D02*
X0093367Y0038230D01*
X0096200Y0038230D02*
X0096200Y0038230D01*
X0096200Y0040629D02*
X0096200Y0040629D01*
X0099033Y0038230D02*
X0110392Y0038230D01*
X0109663Y0035832D02*
X0091800Y0035832D01*
X0092039Y0033433D02*
X0109663Y0033433D01*
X0109663Y0031035D02*
X0093561Y0031035D01*
X0101432Y0040629D02*
X0111466Y0040629D01*
X0111063Y0043027D02*
X0101550Y0043027D01*
X0101303Y0045426D02*
X0111063Y0045426D01*
X0111063Y0047824D02*
X0101905Y0047824D01*
X0102258Y0050223D02*
X0114620Y0050223D01*
X0116232Y0050223D02*
X0119600Y0050223D01*
X0117476Y0047824D02*
X0116924Y0047824D01*
X0116924Y0045426D02*
X0117476Y0045426D01*
X0117476Y0043027D02*
X0116924Y0043027D01*
X0116924Y0040629D02*
X0117476Y0040629D01*
X0132763Y0046872D02*
X0133184Y0047238D01*
X0133372Y0047316D01*
X0134021Y0047964D01*
X0134713Y0048565D01*
X0134804Y0048747D01*
X0134947Y0048891D01*
X0135298Y0049738D01*
X0135708Y0050558D01*
X0135722Y0050761D01*
X0135800Y0050949D01*
X0135800Y0051866D01*
X0135864Y0052781D01*
X0135800Y0052974D01*
X0135800Y0054039D01*
X0137565Y0052274D01*
X0140248Y0051163D01*
X0143152Y0051163D01*
X0145835Y0052274D01*
X0146700Y0053139D01*
X0147565Y0052274D01*
X0150248Y0051163D01*
X0153152Y0051163D01*
X0155835Y0052274D01*
X0157889Y0054328D01*
X0158991Y0056988D01*
X0159479Y0055809D01*
X0161046Y0054242D01*
X0163092Y0053394D01*
X0165308Y0053394D01*
X0167354Y0054242D01*
X0168432Y0055320D01*
X0168751Y0054550D01*
X0167994Y0052720D01*
X0167994Y0050473D01*
X0168838Y0048434D01*
X0170399Y0046873D01*
X0172439Y0046028D01*
X0175080Y0046028D01*
X0174883Y0045555D01*
X0174883Y0041340D01*
X0175187Y0040608D01*
X0174228Y0040210D01*
X0172653Y0038635D01*
X0171800Y0036577D01*
X0171800Y0035663D01*
X0150863Y0035663D01*
X0147566Y0037641D01*
X0146947Y0039135D01*
X0145372Y0040710D01*
X0143314Y0041563D01*
X0141086Y0041563D01*
X0139987Y0041108D01*
X0139987Y0042703D01*
X0135031Y0042703D01*
X0135031Y0042703D01*
X0139987Y0042703D01*
X0139987Y0044961D01*
X0139837Y0045521D01*
X0139547Y0046022D01*
X0139137Y0046432D01*
X0138636Y0046722D01*
X0138076Y0046872D01*
X0135031Y0046872D01*
X0135031Y0042703D01*
X0135031Y0042703D01*
X0135031Y0046872D01*
X0132763Y0046872D01*
X0133881Y0047824D02*
X0169448Y0047824D01*
X0168966Y0046351D02*
X0166847Y0047228D01*
X0164553Y0047228D01*
X0162434Y0046351D01*
X0160812Y0044729D01*
X0159935Y0042610D01*
X0159935Y0040316D01*
X0160812Y0038197D01*
X0162434Y0036575D01*
X0164553Y0035698D01*
X0166847Y0035698D01*
X0168966Y0036575D01*
X0170588Y0038197D01*
X0171465Y0040316D01*
X0171465Y0042610D01*
X0170588Y0044729D01*
X0168966Y0046351D01*
X0169891Y0045426D02*
X0174883Y0045426D01*
X0174883Y0043027D02*
X0171292Y0043027D01*
X0171465Y0040629D02*
X0175178Y0040629D01*
X0172485Y0038230D02*
X0170601Y0038230D01*
X0171800Y0035832D02*
X0167171Y0035832D01*
X0164229Y0035832D02*
X0150582Y0035832D01*
X0147322Y0038230D02*
X0160799Y0038230D01*
X0159935Y0040629D02*
X0145454Y0040629D01*
X0139987Y0043027D02*
X0160108Y0043027D01*
X0161509Y0045426D02*
X0139862Y0045426D01*
X0135031Y0045426D02*
X0135031Y0045426D01*
X0135031Y0043027D02*
X0135031Y0043027D01*
X0135540Y0050223D02*
X0168098Y0050223D01*
X0167994Y0052621D02*
X0156182Y0052621D01*
X0158175Y0055020D02*
X0160268Y0055020D01*
X0168132Y0055020D02*
X0168557Y0055020D01*
X0180536Y0055020D02*
X0221864Y0055020D01*
X0221301Y0057418D02*
X0181099Y0057418D01*
X0180606Y0059817D02*
X0221794Y0059817D01*
X0221329Y0062215D02*
X0181071Y0062215D01*
X0181065Y0064614D02*
X0221335Y0064614D01*
X0221789Y0067012D02*
X0180611Y0067012D01*
X0181099Y0069411D02*
X0221301Y0069411D01*
X0221869Y0071809D02*
X0180531Y0071809D01*
X0181099Y0074208D02*
X0221301Y0074208D01*
X0221410Y0076606D02*
X0180990Y0076606D01*
X0180687Y0079005D02*
X0221713Y0079005D01*
X0221301Y0081403D02*
X0181099Y0081403D01*
X0180455Y0083802D02*
X0221945Y0083802D01*
X0221301Y0086200D02*
X0181099Y0086200D01*
X0180915Y0088599D02*
X0221485Y0088599D01*
X0222950Y0090997D02*
X0179450Y0090997D01*
X0169643Y0090997D02*
X0162600Y0090997D01*
X0162600Y0088599D02*
X0168178Y0088599D01*
X0167994Y0086200D02*
X0162600Y0086200D01*
X0162600Y0083802D02*
X0168637Y0083802D01*
X0167994Y0081403D02*
X0162600Y0081403D01*
X0162600Y0079005D02*
X0168406Y0079005D01*
X0168103Y0076606D02*
X0162600Y0076606D01*
X0162600Y0074208D02*
X0167994Y0074208D01*
X0168562Y0071809D02*
X0162600Y0071809D01*
X0162600Y0069411D02*
X0167994Y0069411D01*
X0168481Y0067012D02*
X0162600Y0067012D01*
X0164772Y0064614D02*
X0168028Y0064614D01*
X0181099Y0052621D02*
X0221301Y0052621D01*
X0221405Y0050223D02*
X0180995Y0050223D01*
X0208474Y0037053D02*
X0208474Y0036671D01*
X0207275Y0033777D01*
X0207275Y0033777D01*
X0207275Y0033777D01*
X0206361Y0032863D01*
X0215358Y0032863D01*
X0215603Y0032909D01*
X0216311Y0033228D01*
X0216886Y0033751D01*
X0217271Y0034425D01*
X0217415Y0035119D01*
X0217391Y0035178D01*
X0217391Y0035813D01*
X0217321Y0036444D01*
X0217391Y0036681D01*
X0217391Y0038564D01*
X0216876Y0038397D01*
X0216231Y0038294D01*
X0215885Y0038294D01*
X0215885Y0043447D01*
X0215885Y0043447D01*
X0215885Y0038294D01*
X0215539Y0038294D01*
X0214894Y0038397D01*
X0214273Y0038598D01*
X0214093Y0038690D01*
X0213142Y0037739D01*
X0211103Y0036894D01*
X0208856Y0036894D01*
X0208474Y0037053D01*
X0208126Y0035832D02*
X0217388Y0035832D01*
X0217391Y0038230D02*
X0213633Y0038230D01*
X0215885Y0040629D02*
X0215885Y0040629D01*
X0215885Y0043027D02*
X0215885Y0043027D01*
X0215885Y0043447D02*
X0215885Y0048600D01*
X0215885Y0043447D01*
X0215885Y0043447D01*
X0215885Y0045426D02*
X0215885Y0045426D01*
X0215885Y0047824D02*
X0215885Y0047824D01*
X0227359Y0045426D02*
X0235500Y0045426D01*
X0235500Y0043027D02*
X0227359Y0043027D01*
X0227065Y0040629D02*
X0235500Y0040629D01*
X0235500Y0038230D02*
X0226191Y0038230D01*
X0226241Y0035832D02*
X0235500Y0035832D01*
X0235500Y0033433D02*
X0226084Y0033433D01*
X0226359Y0034757D02*
X0226359Y0034757D01*
X0225632Y0031258D02*
X0225632Y0031258D01*
X0225504Y0031035D02*
X0235500Y0031035D01*
X0216536Y0033433D02*
X0206932Y0033433D01*
X0232952Y0047824D02*
X0235500Y0047824D01*
X0235500Y0050223D02*
X0234302Y0050223D01*
X0234406Y0052621D02*
X0235500Y0052621D01*
X0235500Y0055020D02*
X0233843Y0055020D01*
X0234406Y0057418D02*
X0235500Y0057418D01*
X0235500Y0059817D02*
X0233913Y0059817D01*
X0234378Y0062215D02*
X0235500Y0062215D01*
X0235500Y0064614D02*
X0234372Y0064614D01*
X0233919Y0067012D02*
X0235500Y0067012D01*
X0235500Y0069411D02*
X0234406Y0069411D01*
X0233838Y0071809D02*
X0235500Y0071809D01*
X0235500Y0074208D02*
X0234406Y0074208D01*
X0234297Y0076606D02*
X0235500Y0076606D01*
X0235500Y0079005D02*
X0233994Y0079005D01*
X0234406Y0081403D02*
X0235500Y0081403D01*
X0235500Y0083802D02*
X0233763Y0083802D01*
X0234406Y0086200D02*
X0235500Y0086200D01*
X0235500Y0088599D02*
X0234222Y0088599D01*
X0235500Y0090997D02*
X0232757Y0090997D01*
X0235500Y0093396D02*
X0162600Y0093396D01*
X0162600Y0095795D02*
X0235500Y0095795D01*
X0235500Y0098193D02*
X0162805Y0098193D01*
X0163768Y0100592D02*
X0235500Y0100592D01*
X0245900Y0100592D02*
X0249652Y0100592D01*
X0248855Y0098193D02*
X0245900Y0098193D01*
X0245900Y0095795D02*
X0248600Y0095795D01*
X0249409Y0093396D02*
X0245900Y0093396D01*
X0245900Y0090997D02*
X0249695Y0090997D01*
X0247296Y0088599D02*
X0245900Y0088599D01*
X0245900Y0086200D02*
X0246000Y0086200D01*
X0246000Y0083802D02*
X0245900Y0083802D01*
X0245900Y0081403D02*
X0246000Y0081403D01*
X0246000Y0079005D02*
X0245900Y0079005D01*
X0245900Y0076606D02*
X0246000Y0076606D01*
X0246000Y0074208D02*
X0245900Y0074208D01*
X0245900Y0071809D02*
X0246000Y0071809D01*
X0246000Y0069411D02*
X0245900Y0069411D01*
X0245900Y0067012D02*
X0246000Y0067012D01*
X0246000Y0064614D02*
X0245900Y0064614D01*
X0245900Y0062215D02*
X0246000Y0062215D01*
X0246000Y0059817D02*
X0245900Y0059817D01*
X0245900Y0057418D02*
X0246000Y0057418D01*
X0246000Y0055020D02*
X0245900Y0055020D01*
X0245900Y0052621D02*
X0246000Y0052621D01*
X0246000Y0050223D02*
X0245900Y0050223D01*
X0245900Y0047824D02*
X0246000Y0047824D01*
X0254400Y0047824D02*
X0257889Y0047824D01*
X0258725Y0048660D02*
X0256503Y0046438D01*
X0255559Y0044159D01*
X0254947Y0045635D01*
X0254400Y0046183D01*
X0254400Y0083823D01*
X0255896Y0085320D01*
X0256579Y0085602D01*
X0257761Y0086784D01*
X0258071Y0087533D01*
X0264993Y0094763D01*
X0281381Y0094763D01*
X0280604Y0093985D01*
X0279477Y0091266D01*
X0279477Y0088322D01*
X0280604Y0085602D01*
X0281100Y0085106D01*
X0281100Y0082969D01*
X0280219Y0082683D01*
X0276606Y0080057D01*
X0276606Y0080057D01*
X0273980Y0076444D01*
X0272600Y0072196D01*
X0272600Y0063645D01*
X0272496Y0063225D01*
X0272600Y0062541D01*
X0272600Y0061849D01*
X0272765Y0061450D01*
X0272994Y0059940D01*
X0274973Y0055991D01*
X0278075Y0052847D01*
X0281997Y0050816D01*
X0286355Y0050095D01*
X0288122Y0050363D01*
X0288693Y0050363D01*
X0288794Y0050326D01*
X0289804Y0050363D01*
X0290814Y0050363D01*
X0290913Y0050404D01*
X0291863Y0050439D01*
X0295537Y0051786D01*
X0295537Y0051786D01*
X0298616Y0054201D01*
X0298616Y0054201D01*
X0298616Y0054201D01*
X0300798Y0057451D01*
X0301094Y0058491D01*
X0302117Y0058476D01*
X0302438Y0058603D01*
X0304772Y0058603D01*
X0306096Y0059151D01*
X0307108Y0060164D01*
X0307656Y0061487D01*
X0307656Y0066848D01*
X0307108Y0068172D01*
X0306241Y0069039D01*
X0306175Y0069286D01*
X0306241Y0069533D01*
X0307108Y0070400D01*
X0307656Y0071723D01*
X0307656Y0082203D01*
X0307108Y0083526D01*
X0306241Y0084393D01*
X0306175Y0084640D01*
X0306241Y0084887D01*
X0307108Y0085754D01*
X0307656Y0087078D01*
X0307656Y0090263D01*
X0309100Y0090263D01*
X0309100Y0061431D01*
X0309859Y0058600D01*
X0308071Y0058600D01*
X0308071Y0052739D01*
X0312719Y0052739D01*
X0312600Y0052451D01*
X0312600Y0052187D01*
X0308071Y0052187D01*
X0308071Y0052739D01*
X0307518Y0052739D01*
X0307518Y0052187D01*
X0302642Y0052187D01*
X0302642Y0048236D01*
X0302792Y0047677D01*
X0303081Y0047175D01*
X0303491Y0046766D01*
X0303993Y0046476D01*
X0304114Y0046443D01*
X0302850Y0045179D01*
X0302850Y0042963D01*
X0308200Y0042963D01*
X0308200Y0042963D01*
X0308200Y0037613D01*
X0310416Y0037613D01*
X0311998Y0039195D01*
X0311848Y0038537D01*
X0310546Y0035834D01*
X0308675Y0033488D01*
X0306329Y0031617D01*
X0303626Y0030315D01*
X0300700Y0029647D01*
X0299200Y0029563D01*
X0275910Y0029563D01*
X0275910Y0031925D01*
X0275003Y0034116D01*
X0273325Y0035793D01*
X0271134Y0036701D01*
X0269110Y0036701D01*
X0269897Y0037488D01*
X0271100Y0040392D01*
X0271100Y0043534D01*
X0269897Y0046438D01*
X0267675Y0048660D01*
X0264771Y0049863D01*
X0261629Y0049863D01*
X0258725Y0048660D01*
X0254400Y0050223D02*
X0285584Y0050223D01*
X0286355Y0050095D02*
X0286355Y0050095D01*
X0287196Y0050223D02*
X0302642Y0050223D01*
X0302752Y0047824D02*
X0268511Y0047824D01*
X0270317Y0045426D02*
X0303097Y0045426D01*
X0302850Y0043027D02*
X0271100Y0043027D01*
X0271100Y0040629D02*
X0302968Y0040629D01*
X0302850Y0040747D02*
X0305984Y0037613D01*
X0308200Y0037613D01*
X0308200Y0042963D01*
X0308200Y0042963D01*
X0302850Y0042963D01*
X0302850Y0040747D01*
X0305367Y0038230D02*
X0270205Y0038230D01*
X0273232Y0035832D02*
X0310544Y0035832D01*
X0311033Y0038230D02*
X0311700Y0038230D01*
X0308200Y0038230D02*
X0308200Y0038230D01*
X0308200Y0040629D02*
X0308200Y0040629D01*
X0308607Y0033433D02*
X0275285Y0033433D01*
X0275910Y0031035D02*
X0305120Y0031035D01*
X0338072Y0014245D02*
X0388498Y0014245D01*
X0390366Y0016644D02*
X0340456Y0016644D01*
X0341311Y0017821D02*
X0341311Y0017821D01*
X0341708Y0019042D02*
X0390958Y0019042D01*
X0390484Y0016849D02*
X0390484Y0016849D01*
X0390976Y0021441D02*
X0342300Y0021441D01*
X0342300Y0023839D02*
X0390976Y0023839D01*
X0390976Y0026238D02*
X0342300Y0026238D01*
X0342300Y0028636D02*
X0390976Y0028636D01*
X0390976Y0031035D02*
X0381876Y0031035D01*
X0386380Y0033433D02*
X0390976Y0033433D01*
X0390976Y0035832D02*
X0388403Y0035832D01*
X0389554Y0038230D02*
X0390976Y0038230D01*
X0390976Y0040629D02*
X0390109Y0040629D01*
X0390109Y0043027D02*
X0390976Y0043027D01*
X0390976Y0045426D02*
X0389519Y0045426D01*
X0388327Y0047824D02*
X0390976Y0047824D01*
X0390976Y0050223D02*
X0386248Y0050223D01*
X0382690Y0052621D02*
X0390976Y0052621D01*
X0390976Y0055020D02*
X0382690Y0055020D01*
X0382690Y0057418D02*
X0390976Y0057418D01*
X0390976Y0059817D02*
X0382690Y0059817D01*
X0381844Y0062215D02*
X0390976Y0062215D01*
X0390976Y0064614D02*
X0382461Y0064614D01*
X0382461Y0067012D02*
X0390976Y0067012D01*
X0390976Y0069411D02*
X0382461Y0069411D01*
X0382461Y0071809D02*
X0390976Y0071809D01*
X0390976Y0074208D02*
X0382461Y0074208D01*
X0382461Y0076606D02*
X0390976Y0076606D01*
X0390976Y0079005D02*
X0382201Y0079005D01*
X0382612Y0081403D02*
X0390976Y0081403D01*
X0390976Y0083802D02*
X0382690Y0083802D01*
X0382690Y0086200D02*
X0390976Y0086200D01*
X0390976Y0088599D02*
X0382690Y0088599D01*
X0382509Y0090997D02*
X0390976Y0090997D01*
X0390976Y0093396D02*
X0382690Y0093396D01*
X0382690Y0095795D02*
X0390976Y0095795D01*
X0390976Y0098193D02*
X0382690Y0098193D01*
X0382430Y0100592D02*
X0390976Y0100592D01*
X0390976Y0102990D02*
X0384520Y0102990D01*
X0387469Y0105389D02*
X0390976Y0105389D01*
X0390976Y0107787D02*
X0389032Y0107787D01*
X0389846Y0110186D02*
X0390976Y0110186D01*
X0390976Y0112584D02*
X0390109Y0112584D01*
X0389870Y0114983D02*
X0390976Y0114983D01*
X0390378Y0117381D02*
X0389083Y0117381D01*
X0389174Y0119780D02*
X0387557Y0119780D01*
X0387065Y0122178D02*
X0384673Y0122178D01*
X0384275Y0124577D02*
X0318704Y0124577D01*
X0318647Y0124688D02*
X0318166Y0125351D01*
X0317588Y0125929D01*
X0316925Y0126410D01*
X0316196Y0126782D01*
X0315418Y0127035D01*
X0314609Y0127163D01*
X0314200Y0127163D01*
X0314200Y0118963D01*
X0314200Y0118963D01*
X0319400Y0118963D01*
X0319400Y0122372D01*
X0319272Y0123181D01*
X0319019Y0123959D01*
X0318647Y0124688D01*
X0319400Y0122178D02*
X0373333Y0122178D01*
X0370449Y0119780D02*
X0319400Y0119780D01*
X0319400Y0118963D02*
X0314200Y0118963D01*
X0314200Y0118963D01*
X0314200Y0127163D01*
X0313791Y0127163D01*
X0312982Y0127035D01*
X0312204Y0126782D01*
X0311475Y0126410D01*
X0310812Y0125929D01*
X0310234Y0125351D01*
X0309753Y0124688D01*
X0309381Y0123959D01*
X0309128Y0123181D01*
X0309000Y0122372D01*
X0309000Y0118963D01*
X0314200Y0118963D01*
X0314200Y0118963D01*
X0314200Y0110763D01*
X0314609Y0110763D01*
X0315418Y0110891D01*
X0316196Y0111144D01*
X0316925Y0111516D01*
X0317588Y0111997D01*
X0318166Y0112575D01*
X0318647Y0113238D01*
X0319019Y0113967D01*
X0319272Y0114745D01*
X0319400Y0115554D01*
X0319400Y0118963D01*
X0319400Y0117381D02*
X0368924Y0117381D01*
X0368137Y0114983D02*
X0319310Y0114983D01*
X0314200Y0114983D02*
X0314200Y0114983D01*
X0314200Y0117381D02*
X0314200Y0117381D01*
X0314200Y0118963D02*
X0314200Y0118963D01*
X0314200Y0110763D01*
X0313791Y0110763D01*
X0312982Y0110891D01*
X0312204Y0111144D01*
X0311475Y0111516D01*
X0310812Y0111997D01*
X0310234Y0112575D01*
X0309753Y0113238D01*
X0309381Y0113967D01*
X0309128Y0114745D01*
X0309000Y0115554D01*
X0309000Y0118963D01*
X0314200Y0118963D01*
X0314200Y0119780D02*
X0314200Y0119780D01*
X0314200Y0122178D02*
X0314200Y0122178D01*
X0314200Y0124577D02*
X0314200Y0124577D01*
X0314200Y0126975D02*
X0314200Y0126975D01*
X0315602Y0126975D02*
X0381479Y0126975D01*
X0378373Y0129374D02*
X0313713Y0129374D01*
X0312798Y0126975D02*
X0299000Y0126975D01*
X0300261Y0124577D02*
X0309696Y0124577D01*
X0309000Y0122178D02*
X0300800Y0122178D01*
X0300800Y0119780D02*
X0309000Y0119780D01*
X0309000Y0117381D02*
X0300800Y0117381D01*
X0300800Y0114983D02*
X0309090Y0114983D01*
X0310227Y0112584D02*
X0299944Y0112584D01*
X0297499Y0110186D02*
X0368160Y0110186D01*
X0367898Y0112584D02*
X0318173Y0112584D01*
X0314200Y0112584D02*
X0314200Y0112584D01*
X0302046Y0105389D02*
X0370537Y0105389D01*
X0368975Y0107787D02*
X0296925Y0107787D01*
X0296020Y0108074D02*
X0296020Y0108074D01*
X0299633Y0106930D02*
X0299633Y0106930D01*
X0290901Y0110186D02*
X0250919Y0110186D01*
X0250104Y0107787D02*
X0248803Y0107787D01*
X0248729Y0105389D02*
X0246687Y0105389D01*
X0245900Y0102990D02*
X0248600Y0102990D01*
X0252882Y0112584D02*
X0288456Y0112584D01*
X0287600Y0114983D02*
X0253409Y0114983D01*
X0253400Y0117381D02*
X0287600Y0117381D01*
X0287600Y0119780D02*
X0253401Y0119780D01*
X0253529Y0122178D02*
X0287600Y0122178D01*
X0288139Y0124577D02*
X0253745Y0124577D01*
X0253745Y0126975D02*
X0289400Y0126975D01*
X0294200Y0123463D02*
X0294200Y0118963D01*
X0294200Y0132963D01*
X0308700Y0132963D01*
X0308846Y0132965D01*
X0308993Y0132971D01*
X0309139Y0132981D01*
X0309285Y0132994D01*
X0309430Y0133012D01*
X0309575Y0133033D01*
X0309719Y0133058D01*
X0309863Y0133087D01*
X0310005Y0133120D01*
X0310147Y0133157D01*
X0310288Y0133197D01*
X0310427Y0133241D01*
X0310566Y0133289D01*
X0310703Y0133341D01*
X0310839Y0133396D01*
X0310973Y0133455D01*
X0311105Y0133517D01*
X0311236Y0133583D01*
X0311365Y0133652D01*
X0311492Y0133724D01*
X0311617Y0133800D01*
X0311740Y0133880D01*
X0311861Y0133962D01*
X0311980Y0134048D01*
X0312096Y0134137D01*
X0312210Y0134229D01*
X0312322Y0134324D01*
X0312431Y0134422D01*
X0312537Y0134522D01*
X0312641Y0134626D01*
X0312741Y0134732D01*
X0312839Y0134841D01*
X0312934Y0134953D01*
X0313026Y0135067D01*
X0313115Y0135183D01*
X0313201Y0135302D01*
X0313283Y0135423D01*
X0313363Y0135546D01*
X0313439Y0135671D01*
X0313511Y0135798D01*
X0313580Y0135927D01*
X0313646Y0136058D01*
X0313708Y0136190D01*
X0313767Y0136324D01*
X0313822Y0136460D01*
X0313874Y0136597D01*
X0313922Y0136736D01*
X0313966Y0136875D01*
X0314006Y0137016D01*
X0314043Y0137158D01*
X0314076Y0137300D01*
X0314105Y0137444D01*
X0314130Y0137588D01*
X0314151Y0137733D01*
X0314169Y0137878D01*
X0314182Y0138024D01*
X0314192Y0138170D01*
X0314198Y0138317D01*
X0314200Y0138463D01*
X0314200Y0141963D01*
X0314198Y0142096D01*
X0314192Y0142230D01*
X0314182Y0142363D01*
X0314168Y0142495D01*
X0314151Y0142627D01*
X0314129Y0142759D01*
X0314104Y0142890D01*
X0314074Y0143020D01*
X0314041Y0143149D01*
X0314004Y0143277D01*
X0313963Y0143404D01*
X0313918Y0143530D01*
X0313870Y0143654D01*
X0313818Y0143777D01*
X0313763Y0143898D01*
X0313703Y0144018D01*
X0313641Y0144136D01*
X0313575Y0144251D01*
X0313505Y0144365D01*
X0313432Y0144477D01*
X0313356Y0144586D01*
X0313277Y0144694D01*
X0313194Y0144798D01*
X0313109Y0144901D01*
X0313020Y0145000D01*
X0312929Y0145097D01*
X0312834Y0145192D01*
X0312737Y0145283D01*
X0312638Y0145372D01*
X0312535Y0145457D01*
X0312431Y0145540D01*
X0312323Y0145619D01*
X0312214Y0145695D01*
X0312102Y0145768D01*
X0311988Y0145838D01*
X0311873Y0145904D01*
X0311755Y0145966D01*
X0311635Y0146026D01*
X0311514Y0146081D01*
X0311391Y0146133D01*
X0311267Y0146181D01*
X0311141Y0146226D01*
X0311014Y0146267D01*
X0310886Y0146304D01*
X0310757Y0146337D01*
X0310627Y0146367D01*
X0310496Y0146392D01*
X0310364Y0146414D01*
X0310232Y0146431D01*
X0310100Y0146445D01*
X0309967Y0146455D01*
X0309833Y0146461D01*
X0309700Y0146463D01*
X0265700Y0146963D01*
X0261200Y0152963D01*
X0261200Y0160463D01*
X0254450Y0160554D02*
X0252030Y0160554D01*
X0252030Y0162953D02*
X0254925Y0162953D01*
X0256542Y0165351D02*
X0252030Y0165351D01*
X0252030Y0167750D02*
X0300269Y0167750D01*
X0289423Y0170148D02*
X0233647Y0170148D01*
X0233576Y0172547D02*
X0274067Y0172547D01*
X0267882Y0173169D02*
X0267882Y0173169D01*
X0264812Y0174435D02*
X0264812Y0174435D01*
X0264212Y0174945D02*
X0232114Y0174945D01*
X0227421Y0177344D02*
X0261817Y0177344D01*
X0262283Y0176587D02*
X0262283Y0176587D01*
X0260543Y0179415D02*
X0260543Y0179415D01*
X0260464Y0179742D02*
X0256946Y0179742D01*
X0249092Y0179742D02*
X0222549Y0179742D01*
X0222549Y0182141D02*
X0245360Y0182141D01*
X0243456Y0184539D02*
X0221212Y0184539D01*
X0215400Y0178561D02*
X0206700Y0178561D01*
X0197248Y0186938D02*
X0242392Y0186938D01*
X0241913Y0189336D02*
X0160187Y0189336D01*
X0160164Y0191735D02*
X0241936Y0191735D01*
X0242579Y0194133D02*
X0159522Y0194133D01*
X0158242Y0196532D02*
X0243858Y0196532D01*
X0240400Y0167750D02*
X0238000Y0167750D01*
X0238000Y0165351D02*
X0240400Y0165351D01*
X0240400Y0162953D02*
X0238000Y0162953D01*
X0238000Y0160554D02*
X0240400Y0160554D01*
X0240400Y0158156D02*
X0238000Y0158156D01*
X0238000Y0156505D02*
X0238000Y0154106D01*
X0226370Y0154106D01*
X0226370Y0146117D01*
X0226230Y0146455D01*
X0226023Y0146663D01*
X0225876Y0146917D01*
X0225409Y0147276D01*
X0224992Y0147693D01*
X0224721Y0147805D01*
X0224109Y0148276D01*
X0223692Y0148693D01*
X0223421Y0148805D01*
X0223189Y0148984D01*
X0222620Y0149137D01*
X0222322Y0149261D01*
X0221872Y0149710D01*
X0219814Y0150563D01*
X0217586Y0150563D01*
X0215528Y0149710D01*
X0213953Y0148135D01*
X0213100Y0146077D01*
X0213100Y0143849D01*
X0213852Y0142034D01*
X0213453Y0141635D01*
X0212600Y0139577D01*
X0212600Y0137349D01*
X0213453Y0135291D01*
X0215028Y0133716D01*
X0217086Y0132863D01*
X0219077Y0132863D01*
X0220208Y0131733D01*
X0221825Y0131063D01*
X0224917Y0131063D01*
X0224655Y0130431D01*
X0224655Y0126863D01*
X0187897Y0126863D01*
X0182600Y0132160D01*
X0182600Y0134396D01*
X0183372Y0134716D01*
X0184947Y0136291D01*
X0185800Y0138349D01*
X0185800Y0140577D01*
X0185488Y0141331D01*
X0185947Y0141791D01*
X0186800Y0143849D01*
X0186800Y0144063D01*
X0198267Y0144063D01*
X0200168Y0143276D01*
X0202232Y0143276D01*
X0204138Y0144065D01*
X0205598Y0145525D01*
X0206387Y0147431D01*
X0206387Y0149495D01*
X0205598Y0151401D01*
X0204138Y0152861D01*
X0202232Y0153650D01*
X0200168Y0153650D01*
X0198267Y0152863D01*
X0183825Y0152863D01*
X0182208Y0152193D01*
X0180970Y0150955D01*
X0180577Y0150563D01*
X0180086Y0150563D01*
X0178028Y0149710D01*
X0176453Y0148135D01*
X0175731Y0146392D01*
X0175731Y0154106D01*
X0164101Y0154106D01*
X0164101Y0156505D01*
X0175731Y0156505D01*
X0175731Y0162015D01*
X0178825Y0162015D01*
X0178825Y0166990D01*
X0179575Y0166990D01*
X0179575Y0167739D01*
X0188025Y0167739D01*
X0188025Y0166990D01*
X0182651Y0166990D01*
X0179575Y0166990D01*
X0179575Y0162015D01*
X0183039Y0162015D01*
X0183598Y0162165D01*
X0183800Y0162281D01*
X0184002Y0162165D01*
X0184561Y0162015D01*
X0188025Y0162015D01*
X0188025Y0166990D01*
X0188775Y0166990D01*
X0188775Y0162015D01*
X0192199Y0162015D01*
X0192965Y0161250D01*
X0194288Y0160702D01*
X0201232Y0160702D01*
X0201500Y0160813D01*
X0201768Y0160702D01*
X0208712Y0160702D01*
X0210035Y0161250D01*
X0210969Y0162184D01*
X0211002Y0162165D01*
X0211561Y0162015D01*
X0215025Y0162015D01*
X0215025Y0166990D01*
X0215775Y0166990D01*
X0215775Y0167739D01*
X0221149Y0167739D01*
X0221149Y0168563D01*
X0224210Y0168563D01*
X0224286Y0168380D01*
X0225717Y0166949D01*
X0226370Y0166678D01*
X0226370Y0156505D01*
X0238000Y0156505D01*
X0238000Y0155757D02*
X0164101Y0155757D01*
X0164101Y0153359D02*
X0161701Y0153359D01*
X0161701Y0155757D02*
X0067051Y0155757D01*
X0072588Y0158156D02*
X0150071Y0158156D01*
X0150071Y0160554D02*
X0078382Y0160554D01*
X0085413Y0162953D02*
X0150071Y0162953D01*
X0150071Y0165351D02*
X0092444Y0165351D01*
X0101832Y0167750D02*
X0150071Y0167750D01*
X0161701Y0167750D02*
X0164101Y0167750D01*
X0164101Y0165351D02*
X0161701Y0165351D01*
X0161701Y0162953D02*
X0164101Y0162953D01*
X0164101Y0160554D02*
X0161701Y0160554D01*
X0161701Y0158156D02*
X0164101Y0158156D01*
X0164101Y0150960D02*
X0161701Y0150960D01*
X0161701Y0148562D02*
X0164101Y0148562D01*
X0164101Y0146163D02*
X0161701Y0146163D01*
X0161701Y0143765D02*
X0164101Y0143765D01*
X0164101Y0141366D02*
X0161701Y0141366D01*
X0150894Y0141366D02*
X0040559Y0141366D01*
X0036808Y0138968D02*
X0174061Y0138968D01*
X0173800Y0136569D02*
X0033212Y0136569D01*
X0030051Y0134171D02*
X0173800Y0134171D01*
X0166875Y0131772D02*
X0158927Y0131772D01*
X0159493Y0129374D02*
X0166309Y0129374D01*
X0166309Y0126975D02*
X0159542Y0126975D01*
X0159493Y0124577D02*
X0166309Y0124577D01*
X0166525Y0122178D02*
X0159277Y0122178D01*
X0157824Y0119780D02*
X0166677Y0119780D01*
X0166676Y0117381D02*
X0157824Y0117381D01*
X0157824Y0114983D02*
X0167868Y0114983D01*
X0170330Y0112584D02*
X0157824Y0112584D01*
X0157824Y0110186D02*
X0172791Y0110186D01*
X0175253Y0107787D02*
X0157824Y0107787D01*
X0162149Y0105389D02*
X0177715Y0105389D01*
X0180164Y0102990D02*
X0163595Y0102990D01*
X0140744Y0117381D02*
X0130737Y0117381D01*
X0133700Y0119780D02*
X0133700Y0119780D01*
X0133700Y0122178D02*
X0133700Y0122178D01*
X0133700Y0124577D02*
X0133700Y0124577D01*
X0133700Y0126975D02*
X0133700Y0126975D01*
X0137754Y0126975D02*
X0137849Y0126975D01*
X0140331Y0129374D02*
X0129337Y0129374D01*
X0129337Y0129145D02*
X0129337Y0132111D01*
X0129187Y0132670D01*
X0128897Y0133172D01*
X0128488Y0133582D01*
X0127986Y0133871D01*
X0127427Y0134021D01*
X0123476Y0134021D01*
X0123476Y0129145D01*
X0122924Y0129145D01*
X0122924Y0134021D01*
X0118973Y0134021D01*
X0118414Y0133871D01*
X0117912Y0133582D01*
X0117503Y0133172D01*
X0117213Y0132670D01*
X0117063Y0132111D01*
X0117063Y0129145D01*
X0122924Y0129145D01*
X0122924Y0128592D01*
X0123476Y0128592D01*
X0123476Y0129145D01*
X0129337Y0129145D01*
X0129337Y0126975D02*
X0129646Y0126975D01*
X0129337Y0131772D02*
X0148922Y0131772D01*
X0147951Y0129374D02*
X0147069Y0129374D01*
X0137920Y0119780D02*
X0137583Y0119780D01*
X0123476Y0124577D02*
X0122924Y0124577D01*
X0122924Y0123716D02*
X0122924Y0128592D01*
X0117063Y0128592D01*
X0117063Y0125626D01*
X0117213Y0125067D01*
X0117503Y0124565D01*
X0117912Y0124155D01*
X0118414Y0123866D01*
X0118973Y0123716D01*
X0122924Y0123716D01*
X0122924Y0126975D02*
X0123476Y0126975D01*
X0123476Y0129374D02*
X0122924Y0129374D01*
X0122924Y0131772D02*
X0123476Y0131772D01*
X0117063Y0131772D02*
X0026889Y0131772D01*
X0023728Y0129374D02*
X0117063Y0129374D01*
X0117063Y0126975D02*
X0020622Y0126975D01*
X0044310Y0143765D02*
X0150071Y0143765D01*
X0150071Y0146163D02*
X0048115Y0146163D01*
X0052624Y0148562D02*
X0150071Y0148562D01*
X0150071Y0150960D02*
X0057133Y0150960D01*
X0061641Y0153359D02*
X0150071Y0153359D01*
X0175731Y0153359D02*
X0199464Y0153359D01*
X0202936Y0153359D02*
X0226370Y0153359D01*
X0226370Y0150960D02*
X0205780Y0150960D01*
X0206387Y0148562D02*
X0214379Y0148562D01*
X0213136Y0146163D02*
X0205862Y0146163D01*
X0203413Y0143765D02*
X0213135Y0143765D01*
X0213341Y0141366D02*
X0185523Y0141366D01*
X0185800Y0138968D02*
X0212600Y0138968D01*
X0212923Y0136569D02*
X0185063Y0136569D01*
X0182600Y0134171D02*
X0214573Y0134171D01*
X0220168Y0131772D02*
X0182987Y0131772D01*
X0185386Y0129374D02*
X0224655Y0129374D01*
X0224655Y0126975D02*
X0187784Y0126975D01*
X0174927Y0141366D02*
X0174907Y0141366D01*
X0175731Y0148562D02*
X0176879Y0148562D01*
X0175731Y0150960D02*
X0180975Y0150960D01*
X0175731Y0158156D02*
X0226370Y0158156D01*
X0226370Y0160554D02*
X0175731Y0160554D01*
X0178825Y0162953D02*
X0179575Y0162953D01*
X0179575Y0165351D02*
X0178825Y0165351D01*
X0173451Y0170148D02*
X0112678Y0170148D01*
X0128034Y0172547D02*
X0173425Y0172547D01*
X0172051Y0174945D02*
X0137889Y0174945D01*
X0137289Y0174435D02*
X0137289Y0174435D01*
X0139818Y0176587D02*
X0139818Y0176587D01*
X0139818Y0176587D01*
X0140283Y0177344D02*
X0172051Y0177344D01*
X0172051Y0179742D02*
X0153009Y0179742D01*
X0156741Y0182141D02*
X0172051Y0182141D01*
X0173388Y0184539D02*
X0158645Y0184539D01*
X0159708Y0186938D02*
X0176752Y0186938D01*
X0145155Y0179742D02*
X0141637Y0179742D01*
X0134219Y0173169D02*
X0134219Y0173169D01*
X0188025Y0165351D02*
X0188775Y0165351D01*
X0188775Y0162953D02*
X0188025Y0162953D01*
X0215025Y0162953D02*
X0215775Y0162953D01*
X0215775Y0162015D02*
X0219239Y0162015D01*
X0219798Y0162165D01*
X0220300Y0162455D01*
X0220710Y0162864D01*
X0220999Y0163366D01*
X0221149Y0163925D01*
X0221149Y0166990D01*
X0215775Y0166990D01*
X0215775Y0162015D01*
X0220761Y0162953D02*
X0226370Y0162953D01*
X0226370Y0165351D02*
X0221149Y0165351D01*
X0221149Y0167750D02*
X0224916Y0167750D01*
X0215775Y0165351D02*
X0215025Y0165351D01*
X0240400Y0155757D02*
X0256360Y0155757D01*
X0256400Y0153359D02*
X0252030Y0153359D01*
X0252030Y0150960D02*
X0256758Y0150960D01*
X0253422Y0148562D02*
X0252030Y0148562D01*
X0252030Y0146163D02*
X0252600Y0146163D01*
X0266903Y0153359D02*
X0340459Y0153359D01*
X0344968Y0150960D02*
X0312105Y0150960D01*
X0313975Y0150353D02*
X0313975Y0150353D01*
X0316358Y0148621D02*
X0316358Y0148621D01*
X0316358Y0148621D01*
X0316401Y0148562D02*
X0349477Y0148562D01*
X0353986Y0146163D02*
X0318114Y0146163D01*
X0318090Y0146238D02*
X0318090Y0146238D01*
X0318893Y0143765D02*
X0357791Y0143765D01*
X0361542Y0141366D02*
X0319000Y0141366D01*
X0319000Y0138968D02*
X0365293Y0138968D01*
X0368888Y0136569D02*
X0318915Y0136569D01*
X0318135Y0134171D02*
X0372050Y0134171D01*
X0375211Y0131772D02*
X0316570Y0131772D01*
X0316074Y0131089D02*
X0316074Y0131089D01*
X0316074Y0131089D01*
X0294200Y0132963D02*
X0245200Y0132963D01*
X0240802Y0128065D01*
X0240802Y0115065D01*
X0238600Y0111963D01*
X0232600Y0111963D01*
X0230200Y0114963D01*
X0230200Y0122463D01*
X0230200Y0126542D01*
X0230224Y0126565D01*
X0235792Y0126975D02*
X0236002Y0126975D01*
X0236002Y0127936D02*
X0236002Y0116763D01*
X0235000Y0116763D01*
X0235000Y0121132D01*
X0235244Y0121377D01*
X0235792Y0122700D01*
X0235792Y0128866D01*
X0235961Y0128696D01*
X0236002Y0127936D01*
X0236002Y0124577D02*
X0235792Y0124577D01*
X0235576Y0122178D02*
X0236002Y0122178D01*
X0236002Y0119780D02*
X0235000Y0119780D01*
X0235800Y0117563D02*
X0235200Y0116463D01*
X0235000Y0117381D02*
X0236002Y0117381D01*
X0263685Y0093396D02*
X0280360Y0093396D01*
X0279477Y0090997D02*
X0261388Y0090997D01*
X0259092Y0088599D02*
X0279477Y0088599D01*
X0280356Y0086200D02*
X0257177Y0086200D01*
X0254400Y0083802D02*
X0281100Y0083802D01*
X0280219Y0082683D02*
X0280219Y0082683D01*
X0278458Y0081403D02*
X0254400Y0081403D01*
X0254400Y0079005D02*
X0275841Y0079005D01*
X0274098Y0076606D02*
X0254400Y0076606D01*
X0254400Y0074208D02*
X0273254Y0074208D01*
X0273980Y0076444D02*
X0273980Y0076444D01*
X0272600Y0071809D02*
X0254400Y0071809D01*
X0254400Y0069411D02*
X0272600Y0069411D01*
X0272600Y0067012D02*
X0254400Y0067012D01*
X0254400Y0064614D02*
X0272600Y0064614D01*
X0272600Y0062215D02*
X0254400Y0062215D01*
X0254400Y0059817D02*
X0273056Y0059817D01*
X0272994Y0059940D02*
X0272994Y0059940D01*
X0274258Y0057418D02*
X0254400Y0057418D01*
X0254400Y0055020D02*
X0275932Y0055020D01*
X0274973Y0055991D02*
X0274973Y0055991D01*
X0278075Y0052847D02*
X0278075Y0052847D01*
X0278511Y0052621D02*
X0254400Y0052621D01*
X0255034Y0045426D02*
X0256083Y0045426D01*
X0281997Y0050816D02*
X0281997Y0050816D01*
X0291863Y0050439D02*
X0291863Y0050439D01*
X0296602Y0052621D02*
X0307518Y0052621D01*
X0307518Y0052739D02*
X0302642Y0052739D01*
X0302642Y0056690D01*
X0302792Y0057249D01*
X0303081Y0057751D01*
X0303491Y0058160D01*
X0303993Y0058450D01*
X0304552Y0058600D01*
X0307518Y0058600D01*
X0307518Y0052739D01*
X0308071Y0052621D02*
X0312671Y0052621D01*
X0308071Y0055020D02*
X0307518Y0055020D01*
X0307518Y0057418D02*
X0308071Y0057418D01*
X0306761Y0059817D02*
X0309533Y0059817D01*
X0309100Y0062215D02*
X0307656Y0062215D01*
X0307656Y0064614D02*
X0309100Y0064614D01*
X0309100Y0067012D02*
X0307588Y0067012D01*
X0306208Y0069411D02*
X0309100Y0069411D01*
X0309100Y0071809D02*
X0307656Y0071809D01*
X0307656Y0074208D02*
X0309100Y0074208D01*
X0309100Y0076606D02*
X0307656Y0076606D01*
X0307656Y0079005D02*
X0309100Y0079005D01*
X0309100Y0081403D02*
X0307656Y0081403D01*
X0306832Y0083802D02*
X0309100Y0083802D01*
X0309100Y0086200D02*
X0307293Y0086200D01*
X0307656Y0088599D02*
X0309100Y0088599D01*
X0341666Y0076606D02*
X0357939Y0076606D01*
X0357939Y0074208D02*
X0342300Y0074208D01*
X0342300Y0071809D02*
X0357939Y0071809D01*
X0358199Y0079005D02*
X0344551Y0079005D01*
X0345099Y0079403D02*
X0345099Y0079403D01*
X0345099Y0079403D01*
X0346552Y0081403D02*
X0359575Y0081403D01*
X0359394Y0083802D02*
X0347543Y0083802D01*
X0347900Y0086200D02*
X0364368Y0086200D01*
X0364368Y0086232D02*
X0364368Y0095324D01*
X0365118Y0095324D01*
X0365118Y0089950D01*
X0365118Y0086232D01*
X0364368Y0086232D01*
X0364368Y0088599D02*
X0365118Y0088599D01*
X0365118Y0090997D02*
X0364368Y0090997D01*
X0359719Y0090997D02*
X0347900Y0090997D01*
X0347900Y0088599D02*
X0359394Y0088599D01*
X0359394Y0093396D02*
X0347900Y0093396D01*
X0347900Y0095795D02*
X0364368Y0095795D01*
X0364368Y0096074D02*
X0359394Y0096074D01*
X0359394Y0099538D01*
X0359544Y0100098D01*
X0359833Y0100599D01*
X0360243Y0101009D01*
X0360745Y0101298D01*
X0361304Y0101448D01*
X0364368Y0101448D01*
X0364368Y0096074D01*
X0364368Y0098193D02*
X0365118Y0098193D01*
X0365118Y0100592D02*
X0364368Y0100592D01*
X0359829Y0100592D02*
X0346346Y0100592D01*
X0346999Y0099692D02*
X0346999Y0099692D01*
X0347486Y0098193D02*
X0359394Y0098193D01*
X0364368Y0093396D02*
X0365118Y0093396D01*
X0373486Y0102990D02*
X0343992Y0102990D01*
X0342300Y0059817D02*
X0359394Y0059817D01*
X0359394Y0057418D02*
X0352697Y0057418D01*
X0352758Y0055020D02*
X0359394Y0055020D01*
X0359394Y0052621D02*
X0352758Y0052621D01*
X0352758Y0050223D02*
X0370256Y0050223D01*
X0369680Y0047824D02*
X0352405Y0047824D01*
X0351803Y0045426D02*
X0368488Y0045426D01*
X0367898Y0043027D02*
X0352050Y0043027D01*
X0352050Y0042963D02*
X0346700Y0042963D01*
X0346700Y0042963D01*
X0352050Y0042963D01*
X0351932Y0040629D02*
X0367898Y0040629D01*
X0368452Y0038230D02*
X0349533Y0038230D01*
X0346700Y0038230D02*
X0346700Y0038230D01*
X0346700Y0037613D02*
X0346700Y0042963D01*
X0346700Y0042963D01*
X0346700Y0037613D01*
X0343867Y0038230D02*
X0342300Y0038230D01*
X0342300Y0035832D02*
X0369604Y0035832D01*
X0371627Y0033433D02*
X0342300Y0033433D01*
X0342300Y0031035D02*
X0376130Y0031035D01*
X0346700Y0040629D02*
X0346700Y0040629D01*
X0342806Y0047824D02*
X0342300Y0047824D01*
X0342347Y0050223D02*
X0342453Y0050223D01*
X0342453Y0052621D02*
X0342347Y0052621D01*
X0342453Y0053239D02*
X0347329Y0053239D01*
X0347329Y0059100D01*
X0344363Y0059100D01*
X0343804Y0058950D01*
X0343302Y0058660D01*
X0342892Y0058251D01*
X0342603Y0057749D01*
X0342453Y0057190D01*
X0342453Y0053239D01*
X0342453Y0055020D02*
X0342347Y0055020D01*
X0342347Y0057418D02*
X0342514Y0057418D01*
X0347329Y0057418D02*
X0347882Y0057418D01*
X0347882Y0055020D02*
X0347329Y0055020D01*
X0364368Y0055020D02*
X0365118Y0055020D01*
X0365118Y0052621D02*
X0364368Y0052621D01*
X0302889Y0057418D02*
X0300776Y0057418D01*
X0300798Y0057451D02*
X0300798Y0057451D01*
X0299166Y0055020D02*
X0302642Y0055020D01*
X0147218Y0052621D02*
X0146182Y0052621D01*
X0137218Y0052621D02*
X0135853Y0052621D01*
X0104774Y0052621D02*
X0102258Y0052621D01*
X0096829Y0052687D02*
X0091953Y0052687D01*
X0091953Y0048736D01*
X0092103Y0048177D01*
X0092392Y0047675D01*
X0092802Y0047266D01*
X0092887Y0047216D01*
X0092079Y0046408D01*
X0091922Y0046787D01*
X0091800Y0046909D01*
X0091800Y0048196D01*
X0091847Y0048310D01*
X0091847Y0057616D01*
X0091725Y0057911D01*
X0091725Y0061691D01*
X0091784Y0061833D01*
X0091784Y0075311D01*
X0091800Y0075349D01*
X0091800Y0090263D01*
X0093744Y0090263D01*
X0093744Y0087078D01*
X0094292Y0085754D01*
X0095159Y0084887D01*
X0095225Y0084640D01*
X0095159Y0084393D01*
X0094292Y0083526D01*
X0093744Y0082203D01*
X0093744Y0071723D01*
X0094292Y0070400D01*
X0095159Y0069533D01*
X0095225Y0069286D01*
X0095159Y0069039D01*
X0094292Y0068172D01*
X0093744Y0066848D01*
X0093744Y0061487D01*
X0094292Y0060164D01*
X0095304Y0059151D01*
X0095428Y0059100D01*
X0093863Y0059100D01*
X0093304Y0058950D01*
X0092802Y0058660D01*
X0092392Y0058251D01*
X0092103Y0057749D01*
X0091953Y0057190D01*
X0091953Y0053239D01*
X0096829Y0053239D01*
X0096829Y0052687D01*
X0091953Y0052621D02*
X0091847Y0052621D01*
X0091847Y0050223D02*
X0091953Y0050223D01*
X0091800Y0047824D02*
X0092306Y0047824D01*
X0091953Y0055020D02*
X0091847Y0055020D01*
X0091847Y0057418D02*
X0092014Y0057418D01*
X0091725Y0059817D02*
X0094639Y0059817D01*
X0093744Y0062215D02*
X0091784Y0062215D01*
X0091784Y0064614D02*
X0093744Y0064614D01*
X0093812Y0067012D02*
X0091784Y0067012D01*
X0093700Y0067963D02*
X0093701Y0067974D01*
X0093706Y0067985D01*
X0093713Y0067993D01*
X0093722Y0068000D01*
X0093732Y0068005D01*
X0093743Y0068006D01*
X0093700Y0068050D01*
X0095192Y0069411D02*
X0091784Y0069411D01*
X0093700Y0070668D02*
X0093802Y0070565D01*
X0093744Y0071809D02*
X0091784Y0071809D01*
X0091784Y0074208D02*
X0093744Y0074208D01*
X0093744Y0076606D02*
X0091800Y0076606D01*
X0091800Y0079005D02*
X0093744Y0079005D01*
X0093744Y0081403D02*
X0091800Y0081403D01*
X0091800Y0083802D02*
X0094568Y0083802D01*
X0094107Y0086200D02*
X0091800Y0086200D01*
X0091800Y0088599D02*
X0093744Y0088599D01*
X0105361Y0080802D02*
X0105374Y0080801D01*
X0105387Y0080796D01*
X0105398Y0080789D01*
X0105407Y0080780D01*
X0105414Y0080769D01*
X0105419Y0080756D01*
X0105420Y0080743D01*
X0105216Y0062904D02*
X0105215Y0062898D01*
X0105211Y0062893D01*
X0105206Y0062889D01*
X0105200Y0062888D01*
X0045100Y0098193D02*
X0042707Y0098193D01*
X0037732Y0093396D02*
X0036983Y0093396D01*
X0099200Y0119780D02*
X0099200Y0119780D01*
X0099200Y0122178D02*
X0099200Y0122178D01*
X0099200Y0124577D02*
X0099200Y0124577D01*
X0102160Y0124577D02*
X0103990Y0124577D01*
X0114410Y0124577D02*
X0117496Y0124577D01*
X0116340Y0122178D02*
X0115977Y0122178D01*
X0186765Y0143765D02*
X0198987Y0143765D01*
X0223824Y0148562D02*
X0226370Y0148562D01*
X0226351Y0146163D02*
X0226370Y0146163D01*
X0252030Y0158156D02*
X0254850Y0158156D01*
X0266040Y0155757D02*
X0268340Y0155757D01*
X0271200Y0155757D02*
X0271200Y0155757D01*
X0271200Y0155113D02*
X0271200Y0160463D01*
X0276550Y0160463D01*
X0271200Y0160463D01*
X0271200Y0160463D01*
X0271200Y0160463D01*
X0271200Y0155113D01*
X0274060Y0155757D02*
X0335049Y0155757D01*
X0329513Y0158156D02*
X0276459Y0158156D01*
X0276550Y0160554D02*
X0323719Y0160554D01*
X0316688Y0162953D02*
X0276276Y0162953D01*
X0273878Y0165351D02*
X0309656Y0165351D01*
X0271200Y0165351D02*
X0271200Y0165351D01*
X0271200Y0162953D02*
X0271200Y0162953D01*
X0271200Y0160554D02*
X0271200Y0160554D01*
X0271200Y0158156D02*
X0271200Y0158156D01*
X0268522Y0165351D02*
X0265858Y0165351D01*
D30*
X0265700Y0146963D03*
X0258200Y0145463D03*
X0218700Y0144963D03*
X0218200Y0138463D03*
X0219000Y0132363D03*
X0183200Y0133963D03*
X0180200Y0139463D03*
X0181200Y0144963D03*
X0146700Y0103963D03*
X0146200Y0097463D03*
X0134700Y0088963D03*
X0130200Y0056463D03*
X0142200Y0035963D03*
X0177400Y0035463D03*
X0187700Y0035463D03*
X0194200Y0034963D03*
X0200600Y0034763D03*
X0250200Y0042463D03*
X0254200Y0096463D03*
X0254200Y0103963D03*
X0235200Y0100463D03*
D31*
X0235200Y0116463D03*
X0202700Y0082963D03*
X0197200Y0067963D03*
X0164200Y0058963D03*
X0104200Y0033963D03*
X0073700Y0030463D03*
X0044700Y0030463D03*
X0086200Y0087963D03*
X0040200Y0105463D03*
X0131999Y0166491D03*
X0166700Y0104963D03*
X0158200Y0101463D03*
X0291602Y0158691D03*
X0349700Y0075463D03*
X0349700Y0030463D03*
X0290700Y0031963D03*
D32*
X0235800Y0117563D02*
X0235800Y0130863D01*
X0234300Y0132363D01*
X0219000Y0132363D01*
D33*
X0147200Y0085963D03*
X0269948Y0030739D03*
X0275854Y0030739D03*
D34*
X0339100Y0127263D03*
D35*
X0263200Y0041963D03*
D36*
X0286877Y0064203D03*
X0286877Y0089794D03*
X0115224Y0089794D03*
X0115224Y0064203D03*
D37*
X0056794Y0079869D02*
X0051589Y0074663D01*
X0036836Y0074663D01*
X0336700Y0066463D02*
X0364122Y0066463D01*
X0365082Y0067423D01*
X0375940Y0077306D02*
X0375940Y0078563D01*
X0375940Y0085857D01*
X0336700Y0066463D02*
X0336700Y0066172D01*
X0375940Y0056329D02*
X0377231Y0057620D01*
D38*
X0252300Y0012063D03*
X0228600Y0171263D03*
D39*
X0248176Y0126565D02*
X0248200Y0120042D01*
X0248200Y0114963D01*
X0240700Y0106463D01*
X0183550Y0106963D01*
X0171876Y0118337D01*
X0171877Y0126565D01*
X0240700Y0106463D02*
X0240700Y0023963D01*
D40*
X0007700Y0098863D02*
X0007700Y0099463D01*
D41*
X0201200Y0148463D03*
D42*
X0165700Y0041463D03*
M02*
